<?xml version="1.0" encoding="utf-8"?>
<!-- Generator: Adobe Illustrator 23.1.0, SVG Export Plug-In . SVG Version: 6.00 Build 0)  -->
<svg version="1.1" id="Layer_1" xmlns="http://www.w3.org/2000/svg" xmlns:xlink="http://www.w3.org/1999/xlink" x="0px" y="0px"
	 viewBox="0 0 235.5 70" style="enable-background:new 0 0 235.5 70;" xml:space="preserve">
<style type="text/css">
	.st0{fill:#1D3254;}
	.st1{fill:#F3EDD3;}
</style>
<g>
	<g>
		<path class="st0" d="M235.5,36.9c0-12.4-6.8-23.2-16.9-28.9c-1.7-0.9-3.5-1.8-5.3-2.4c-0.1,0-0.1,0-0.2-0.1
			c-0.6-0.2-1.2-0.4-1.8-0.5c-0.1,0-0.2,0-0.2-0.1c-1.3-0.3-2.6-0.6-4-0.8c-0.2,0-0.3,0-0.5-0.1c-0.5-0.1-1-0.1-1.5-0.2
			c-0.2,0-0.4,0-0.6,0c-0.7,0-1.3-0.1-2-0.1c-6,0-11.7,1.6-16.6,4.4c-4.9-2.8-10.5-4.4-16.6-4.4c-6,0-11.7,1.6-16.6,4.4
			c-4.9-2.8-10.5-4.4-16.6-4.4c-6,0-11.7,1.6-16.6,4.4c-4.9-2.8-10.5-4.4-16.6-4.4c-0.7,0-1.4,0-2,0.1c-0.2,0-0.4,0-0.6,0
			C100,3.9,99.5,4,99,4c-0.2,0-0.3,0-0.5,0.1c-1.4,0.2-2.7,0.5-4,0.8c-0.1,0-0.2,0-0.2,0.1c-0.6,0.2-1.2,0.4-1.8,0.5
			c-0.1,0-0.1,0-0.2,0.1c-2,0.7-3.9,1.6-5.7,2.6c0,0,0,0,0,0C81.7,5.4,76,3.8,70,3.8S58.3,5.4,53.4,8.2c-4.9-2.8-10.5-4.4-16.6-4.4
			C18.6,3.8,3.8,18.6,3.8,36.9S18.6,70,36.9,70c6,0,11.7-1.6,16.6-4.4C58.3,68.4,64,70,70,70s11.7-1.6,16.6-4.4c0,0,0,0,0,0
			c1.8,1,3.7,1.9,5.7,2.6c0.1,0,0.1,0,0.2,0.1c0.6,0.2,1.2,0.4,1.8,0.6c0.1,0,0.2,0,0.2,0.1c1.3,0.3,2.6,0.6,4,0.8
			c0.2,0,0.3,0,0.5,0.1c0.5,0.1,1,0.1,1.5,0.2c0.2,0,0.4,0,0.6,0c0.7,0,1.3,0.1,2,0.1c6,0,11.7-1.6,16.6-4.4
			c4.9,2.8,10.5,4.4,16.6,4.4c6,0,11.7-1.6,16.6-4.4c4.9,2.8,10.5,4.4,16.6,4.4c6,0,11.7-1.6,16.6-4.4c4.9,2.8,10.5,4.4,16.6,4.4
			c0.7,0,1.4,0,2-0.1c0.2,0,0.4,0,0.6,0c0.5,0,1-0.1,1.5-0.2c0.2,0,0.3,0,0.5-0.1c1.4-0.2,2.7-0.5,4-0.8c0.1,0,0.2,0,0.2-0.1
			c0.6-0.2,1.2-0.4,1.8-0.6c0.1,0,0.1,0,0.2-0.1c1.9-0.6,3.6-1.5,5.3-2.4C228.7,60.1,235.5,49.3,235.5,36.9z"/>
	</g>
	<g>
		<path class="st1" d="M198.6,65.7c-5.7,0-11.4-1.5-16.3-4.4l-0.3-0.1l-0.3,0.1c-4.9,2.9-10.6,4.4-16.3,4.4
			c-5.7,0-11.4-1.5-16.3-4.4l-0.3-0.1l-0.3,0.1c-4.9,2.9-10.6,4.4-16.3,4.4c-5.7,0-11.4-1.5-16.3-4.4l-0.3-0.1l-0.3,0.1
			c-4.9,2.9-10.6,4.4-16.3,4.4c-0.7,0-1.3,0-2-0.1l-0.6,0c-0.5,0-1-0.1-1.5-0.2l-0.5-0.1c-1.3-0.2-2.6-0.5-3.9-0.8l-0.2-0.1
			c-0.6-0.2-1.2-0.3-1.8-0.5l-0.2-0.1c-1.9-0.7-3.8-1.5-5.6-2.6l-0.3-0.1l-0.3,0.1c-4.9,2.9-10.6,4.4-16.3,4.4s-11.4-1.5-16.3-4.4
			l-0.3-0.1l-0.3,0.1c-4.9,2.9-10.6,4.4-16.3,4.4c-18,0-32.6-14.6-32.6-32.6S15.1,0.5,33.1,0.5c5.7,0,11.4,1.5,16.3,4.4L49.7,5
			l0.3-0.1C54.9,2,60.5,0.5,66.2,0.5S77.6,2,82.5,4.9L82.8,5L83,4.9c1.8-1,3.7-1.9,5.6-2.6l0.2-0.1C89.4,2,90,1.9,90.6,1.7l0.2-0.1
			c1.3-0.3,2.6-0.6,3.9-0.8l0.5-0.1c0.5-0.1,1-0.1,1.5-0.2l0.6,0c0.7,0,1.3-0.1,2-0.1c5.7,0,11.4,1.5,16.3,4.4l0.3,0.1l0.3-0.1
			c4.9-2.9,10.6-4.4,16.3-4.4c5.7,0,11.4,1.5,16.3,4.4L149,5l0.3-0.1c4.9-2.9,10.6-4.4,16.3-4.4c5.7,0,11.4,1.5,16.3,4.4l0.3,0.1
			l0.3-0.1c4.9-2.9,10.6-4.4,16.3-4.4c0.7,0,1.3,0,2,0.1l0.6,0c0.5,0,1,0.1,1.5,0.2l0.5,0.1c1.3,0.2,2.6,0.5,3.9,0.8l0.2,0.1
			c0.6,0.2,1.2,0.3,1.8,0.5l0.2,0.1c1.8,0.6,3.6,1.4,5.2,2.4c10.3,5.8,16.7,16.7,16.7,28.4c0,11.8-6.4,22.7-16.7,28.4
			c-1.7,1-3.5,1.8-5.2,2.4l-0.2,0.1c-0.6,0.2-1.2,0.4-1.8,0.5l-0.2,0.1c-1.3,0.3-2.6,0.6-3.9,0.8l-0.5,0.1c-0.5,0.1-1,0.1-1.5,0.2
			l-0.6,0C200,65.7,199.3,65.7,198.6,65.7z"/>
		<path class="st0" d="M198.6,1c0.6,0,1.2,0,2,0.1c0.1,0,0.3,0,0.4,0l0.2,0c0.5,0,1,0.1,1.5,0.1l0.1,0c0.1,0,0.2,0,0.4,0
			c1.3,0.2,2.6,0.4,3.9,0.8l0.1,0l0.1,0c0.6,0.2,1.2,0.3,1.7,0.5l0.1,0l0.1,0c1.8,0.6,3.5,1.4,5.2,2.3c10.1,5.7,16.4,16.4,16.4,28
			s-6.3,22.3-16.4,28c-1.7,0.9-3.4,1.7-5.2,2.3l-0.1,0l-0.1,0c-0.6,0.2-1.2,0.4-1.7,0.5l-0.1,0l-0.1,0c-1.3,0.3-2.6,0.6-3.9,0.8
			c-0.1,0-0.2,0-0.4,0l-0.1,0c-0.5,0.1-1,0.1-1.5,0.1l-0.2,0c-0.1,0-0.3,0-0.4,0c-0.7,0-1.4,0.1-2,0.1c-5.6,0-11.2-1.5-16.1-4.3
			l-0.5-0.3l-0.5,0.3c-4.9,2.8-10.4,4.3-16.1,4.3c-5.6,0-11.2-1.5-16.1-4.3l-0.5-0.3l-0.5,0.3c-4.9,2.8-10.4,4.3-16.1,4.3
			c-5.6,0-11.2-1.5-16.1-4.3l-0.5-0.3l-0.5,0.3c-4.9,2.8-10.4,4.3-16.1,4.3c-0.6,0-1.2,0-2-0.1c-0.1,0-0.3,0-0.4,0l-0.2,0
			c-0.5,0-1-0.1-1.5-0.1l-0.1,0c-0.1,0-0.2,0-0.4,0c-1.3-0.2-2.6-0.4-3.9-0.8l-0.1,0l-0.1,0c-0.6-0.2-1.2-0.3-1.7-0.5l-0.1,0l-0.1,0
			c-1.9-0.7-3.8-1.5-5.5-2.5l-0.5-0.3l-0.5,0.3c-4.9,2.8-10.4,4.3-16.1,4.3S55,63.7,50.2,60.9l-0.5-0.3l-0.5,0.3
			c-4.9,2.8-10.4,4.3-16.1,4.3C15.4,65.2,1,50.8,1,33.1S15.4,1,33.1,1c5.6,0,11.2,1.5,16.1,4.3l0.5,0.3l0.5-0.3
			C55,2.5,60.6,1,66.2,1c5.6,0,11.2,1.5,16.1,4.3l0.5,0.3l0.5-0.3c1.8-1,3.6-1.9,5.5-2.5l0.1,0l0.1,0c0.6-0.2,1.2-0.4,1.7-0.5l0.1,0
			l0.1,0c1.3-0.3,2.6-0.6,3.9-0.8c0.1,0,0.2,0,0.4,0l0.1,0c0.5-0.1,1-0.1,1.5-0.1l0.2,0c0.1,0,0.3,0,0.4,0c0.7,0,1.4-0.1,2-0.1
			c5.6,0,11.2,1.5,16.1,4.3l0.5,0.3l0.5-0.3c4.9-2.8,10.4-4.3,16.1-4.3c5.6,0,11.2,1.5,16.1,4.3l0.5,0.3l0.5-0.3
			c4.9-2.8,10.4-4.3,16.1-4.3c5.6,0,11.2,1.5,16.1,4.3l0.5,0.3l0.5-0.3C187.5,2.5,193,1,198.6,1 M198.6,0c-6,0-11.7,1.6-16.6,4.4
			C177.2,1.6,171.6,0,165.5,0S153.9,1.6,149,4.4C144.1,1.6,138.5,0,132.4,0c-6,0-11.7,1.6-16.6,4.4C111,1.6,105.4,0,99.3,0
			c-0.7,0-1.4,0-2,0.1c-0.2,0-0.4,0-0.6,0c-0.5,0-1,0.1-1.5,0.2c-0.2,0-0.3,0-0.5,0.1c-1.4,0.2-2.7,0.5-4,0.8c-0.1,0-0.2,0-0.2,0.1
			c-0.6,0.2-1.2,0.4-1.8,0.5c-0.1,0-0.1,0-0.2,0.1c-2,0.7-3.9,1.6-5.7,2.6c0,0,0,0,0,0C77.9,1.6,72.2,0,66.2,0S54.5,1.6,49.7,4.4
			C44.8,1.6,39.1,0,33.1,0C14.8,0,0,14.8,0,33.1s14.8,33.1,33.1,33.1c6,0,11.7-1.6,16.6-4.4c4.9,2.8,10.5,4.4,16.6,4.4
			s11.7-1.6,16.6-4.4c0,0,0,0,0,0c1.8,1,3.7,1.9,5.7,2.6c0.1,0,0.1,0,0.2,0.1c0.6,0.2,1.2,0.4,1.8,0.6c0.1,0,0.2,0,0.2,0.1
			c1.3,0.3,2.6,0.6,4,0.8c0.2,0,0.3,0,0.5,0.1c0.5,0.1,1,0.1,1.5,0.2c0.2,0,0.4,0,0.6,0c0.7,0,1.3,0.1,2,0.1c6,0,11.7-1.6,16.6-4.4
			c4.9,2.8,10.5,4.4,16.6,4.4c6,0,11.7-1.6,16.6-4.4c4.9,2.8,10.5,4.4,16.6,4.4s11.7-1.6,16.6-4.4c4.9,2.8,10.5,4.4,16.6,4.4
			c0.7,0,1.4,0,2-0.1c0.2,0,0.4,0,0.6,0c0.5,0,1-0.1,1.5-0.2c0.2,0,0.3,0,0.5-0.1c1.4-0.2,2.7-0.5,4-0.8c0.1,0,0.2,0,0.2-0.1
			c0.6-0.2,1.2-0.4,1.8-0.6c0.1,0,0.1,0,0.2-0.1c1.9-0.6,3.6-1.5,5.3-2.4c10.1-5.7,16.9-16.5,16.9-28.9s-6.8-23.2-16.9-28.9
			c-1.7-0.9-3.5-1.8-5.3-2.4c-0.1,0-0.1,0-0.2-0.1c-0.6-0.2-1.2-0.4-1.8-0.5c-0.1,0-0.2,0-0.2-0.1c-1.3-0.3-2.6-0.6-4-0.8
			c-0.2,0-0.3,0-0.5-0.1c-0.5-0.1-1-0.1-1.5-0.2c-0.2,0-0.4,0-0.6,0C200,0,199.3,0,198.6,0L198.6,0z"/>
	</g>
</g>
</svg>
