<?xml version="1.0" encoding="utf-8"?>
<!-- Generator: Adobe Illustrator 23.1.0, SVG Export Plug-In . SVG Version: 6.00 Build 0)  -->
<svg version="1.1" id="Layer_1" xmlns="http://www.w3.org/2000/svg" xmlns:xlink="http://www.w3.org/1999/xlink" x="0px" y="0px"
	 viewBox="0 0 375.2 888" style="enable-background:new 0 0 375.2 888;" xml:space="preserve">
<style type="text/css">
	.st0{fill:#F3EDD3;stroke:#1D3254;stroke-width:2;stroke-miterlimit:10;}
	.st1{fill:#FF8B7C;}
	.st2{fill:#1D3254;}
	.st3{fill:#FF8B7C;stroke:#1D3254;stroke-width:2;stroke-miterlimit:10;}
	.st4{fill:#1D3254;stroke:#1D3254;stroke-miterlimit:10;}
	.st5{fill:#FFFFFF;stroke:#1D3254;stroke-miterlimit:10;}
	.st6{fill:#FFBFAD;stroke:#1D3254;stroke-width:2;stroke-miterlimit:10;}
	.st7{fill:#FF8B7C;stroke:#1D3254;stroke-miterlimit:10;}
</style>
<g>
	<g>
		<path class="st0" d="M227.5,231h117.4c2.2,0,3.9,2.2,3.9,4.9v646.2c0,2.7-1.7,4.9-3.9,4.9H227.7c-2.2,0-3.9-2.2-3.9-4.9V235.9
			C223.7,233.2,225.4,231,227.5,231z"/>
		<path class="st1" d="M311.5,736.2h34.4v-4.2h-34.4V736.2z"/>
		<path class="st1" d="M322.4,722.3h23.5v-4.2h-23.5V722.3z"/>
		<path class="st1" d="M322.4,708.4h23.5v-4.2h-23.5V708.4z"/>
		<path class="st1" d="M322.4,694.5h23.5v-4.2h-23.5V694.5z"/>
		<path class="st1" d="M322.4,680.6l23.5,0v-4.2h-23.5V680.6z"/>
		<path class="st1" d="M311.5,666.6h34.4v-4.2h-34.4V666.6z"/>
		<path class="st1" d="M322.4,652.7h23.5v-4.2h-23.5V652.7z"/>
		<path class="st1" d="M322.4,638.8h23.5v-4.2h-23.5V638.8z"/>
		<path class="st1" d="M322.4,624.9h23.5v-4.2h-23.5V624.9z"/>
		<path class="st1" d="M322.4,611h23.5v-4.2h-23.5V611z"/>
		<path class="st1" d="M311.5,597.1h34.4v-4.2h-34.4V597.1z"/>
		<path class="st1" d="M322.4,583.1h23.5V579h-23.5V583.1z"/>
		<path class="st1" d="M322.4,569.2h23.5v-4.2h-23.5V569.2z"/>
		<path class="st1" d="M322.4,555.3h23.5v-4.2h-23.5V555.3z"/>
		<path class="st1" d="M322.4,541.4h23.5v-4.2h-23.5V541.4z"/>
		<path class="st1" d="M311.5,527.5h34.4v-4.2h-34.4V527.5z"/>
		<path class="st1" d="M322.4,513.6h23.5v-4.2h-23.5V513.6z"/>
		<path class="st1" d="M322.4,499.8h23.5v-4.2h-23.5V499.8z"/>
		<path class="st1" d="M322.4,485.9h23.5v-4.2h-23.5V485.9z"/>
		<path class="st1" d="M322.4,472h23.5v-4.2h-23.5V472z"/>
		<path class="st1" d="M311.5,458h34.4v-4.2h-34.4V458z"/>
		<path class="st1" d="M322.4,444.1h23.5V440h-23.5V444.1z"/>
		<path class="st1" d="M322.4,430.2h23.5v-4.2h-23.5V430.2z"/>
		<path class="st1" d="M322.4,416.3h23.5v-4.2h-23.5V416.3z"/>
		<path class="st1" d="M322.4,402.4h23.5v-4.2h-23.5V402.4z"/>
		<path class="st1" d="M311.5,388.5h34.4v-4.2h-34.4V388.5z"/>
		<path class="st1" d="M322.4,374.5h23.5v-4.2h-23.5V374.5z"/>
		<path class="st1" d="M322.4,360.6h23.5v-4.2h-23.5V360.6z"/>
		<path class="st1" d="M322.4,346.7h23.5v-4.2h-23.5V346.7z"/>
		<path class="st1" d="M322.4,332.8h23.5v-4.2h-23.5V332.8z"/>
		<path class="st1" d="M311.5,318.9h34.4v-4.2h-34.4V318.9z"/>
		<path class="st1" d="M322.4,305h23.5v-4.2h-23.5V305z"/>
		<path class="st1" d="M322.4,291.1h23.5v-4.2h-23.5V291.1z"/>
		<path class="st1" d="M322.4,277.1h23.5V273h-23.5V277.1z"/>
		<path class="st1" d="M322.4,263.2h23.5v-4.2h-23.5V263.2z"/>
		<path class="st1" d="M311.5,249.3h34.4v-4.2h-34.4V249.3z"/>
		<path class="st1" d="M311.5,875.2h34.4v-4.2h-34.4V875.2z"/>
		<path class="st1" d="M322.4,861.3h23.5v-4.2h-23.5V861.3z"/>
		<path class="st1" d="M322.4,847.4h23.5v-4.2h-23.5V847.4z"/>
		<path class="st1" d="M322.4,833.5h23.5v-4.2h-23.5V833.5z"/>
		<path class="st1" d="M322.4,819.6h23.5v-4.2h-23.5V819.6z"/>
		<path class="st1" d="M311.5,805.7h34.4v-4.2h-34.4V805.7z"/>
		<path class="st1" d="M322.4,791.7h23.5v-4.2h-23.5V791.7z"/>
		<path class="st1" d="M322.4,777.8h23.5v-4.2h-23.5V777.8z"/>
		<path class="st1" d="M322.4,763.9h23.5v-4.2h-23.5V763.9z"/>
		<path class="st1" d="M322.4,750h23.5v-4.2h-23.5V750z"/>
	</g>
	<g>
		<path class="st2" d="M269.1,657.3l-33.3,3.9c-1.6,0.2-2.7,1.6-2.5,3.2l0.7,6.3c0.2,1.6,1.6,2.7,3.2,2.5l33.3-3.9
			c1.6-0.2,2.7-1.6,2.5-3.2l-0.7-6.3C272.3,658.2,270.9,657.1,269.1,657.3z"/>
		<path class="st0" d="M273.1,662.9l-39.5,4.6c-1.6,0.2-3-1-3.2-2.5l-45.9-394.7c-0.2-1.6,1-3,2.5-3.2l39.5-4.6c1.6-0.2,3,1,3.2,2.5
			l45.9,394.7C275.8,661.3,274.7,662.7,273.1,662.9z"/>
		<path class="st3" d="M178.2,343.8l-4.6,0.5c-0.7,0.1-1.3-0.4-1.4-1.1L149,143.8c-0.1-0.7,0.4-1.3,1.1-1.4l4.6-0.5
			c0.7-0.1,1.3,0.4,1.4,1.1l23.2,199.4C179.4,343,178.9,343.7,178.2,343.8z"/>
		<path class="st4" d="M163.3,143.7l-7,0.8l4.1,35.6l7-0.8L163.3,143.7z"/>
		<path class="st3" d="M186.6,94.2c-15.6,2.4-26.3,17.2-24.5,32.9c0.1,1.3,0.3,2.6,0.5,4l1.8,15.7c3.1,26.8,8.3,71,12.7,109.2
			c0.8,7.1,1.6,14,2.4,20.5l2.9,25.2c0.2,2,2.1,3.5,4.1,3.3l50.3-5.9c2-0.2,3.5-2.1,3.3-4.1l-3-25.9l-2.3-19.8l-12.8-110l-1.7-15
			l-0.5-4.7C217.8,103.3,202.9,91.7,186.6,94.2z"/>
		<path class="st5" d="M255.1,497l-27.5,3.2l16.1,138.2l27.5-3.2L255.1,497z"/>
	</g>
	<g>
		<path class="st6" d="M300,1c-41,0-74.2,33.2-74.2,74.2s33.2,74.2,74.2,74.2s74.2-33.2,74.2-74.2S341,1,300,1z M300,110
			c-19.2,0-34.8-15.6-34.8-34.8s15.6-34.8,34.8-34.8c19.2,0,34.8,15.6,34.8,34.8S319.2,110,300,110z"/>
		<path class="st5" d="M299.8,33.5c-22.9,0-41.5,18.6-41.5,41.5s18.6,41.5,41.5,41.5c22.9,0,41.5-18.6,41.5-41.5
			C341.4,52.1,322.7,33.5,299.8,33.5z M299.8,109.7c-19.2,0-34.7-15.6-34.7-34.7c0-19.2,15.6-34.7,34.7-34.7s34.7,15.6,34.7,34.7
			C334.5,94.2,319,109.7,299.8,109.7z"/>
	</g>
	<g>
		<path class="st0" d="M75,290c-40.9,0-74,33.1-74,74s33.1,74,74,74c40.9,0,74-33.1,74-74S115.9,290,75,290z M75,398.7
			c-19.1,0-34.7-15.6-34.7-34.7s15.6-34.7,34.7-34.7c19.1,0,34.7,15.6,34.7,34.7S94.1,398.7,75,398.7z"/>
		<path class="st5" d="M74.8,322.4c-22.9,0-41.4,18.5-41.4,41.4c0,22.9,18.5,41.4,41.4,41.4c22.9,0,41.4-18.5,41.4-41.4
			C116.3,340.9,97.7,322.4,74.8,322.4z M74.8,398.4c-19.1,0-34.6-15.5-34.6-34.6c0-19.1,15.5-34.6,34.6-34.6
			c19.1,0,34.6,15.5,34.6,34.6C109.4,382.9,93.9,398.4,74.8,398.4z"/>
	</g>
	<path class="st0" d="M187.2,672.5h-74.7v174.1h74.7V672.5z"/>
	<path class="st3" d="M184.1,587.1h-68.4c-4.3,0-7.9,3.5-7.9,7.9v4.2v70.7v5.8c0,0.9,0.6,1.5,1.5,1.5h81.2c0.9,0,1.5-0.6,1.5-1.5
		v-5.8v-70.7V595C192,590.5,188.4,587.1,184.1,587.1z"/>
	<path class="st6" d="M185.6,886.7h-71.4c-1.9,0-3.3-1.5-3.3-3.3V846c0-1.9,1.5-3.3,3.3-3.3h71.4c1.9,0,3.3,1.5,3.3,3.3v37.4
		C188.9,885.2,187.4,886.7,185.6,886.7z"/>
	<path class="st7" d="M118,882.6h-8.5c-0.7,0-1.4-0.7-1.4-1.5v-36.6c0-0.8,0.6-1.5,1.4-1.5h8.5c0.7,0,1.4,0.7,1.4,1.5v36.6
		C119.4,882.1,118.8,882.6,118,882.6z"/>
	<path class="st7" d="M145.8,882.6h-19.8c-0.7,0-1.4-0.7-1.4-1.5v-36.6c0-0.8,0.6-1.5,1.4-1.5h19.8c0.7,0,1.4,0.7,1.4,1.5v36.6
		C147.2,882.1,146.6,882.6,145.8,882.6z"/>
	<path class="st7" d="M173.7,882.6H154c-0.7,0-1.4-0.7-1.4-1.5v-36.6c0-0.8,0.6-1.5,1.4-1.5h19.8c0.7,0,1.4,0.7,1.4,1.5v36.6
		C175,882.1,174.3,882.6,173.7,882.6z"/>
	<path class="st7" d="M190.3,882.6h-8.5c-0.7,0-1.4-0.7-1.4-1.5v-36.6c0-0.8,0.6-1.5,1.4-1.5h8.5c0.7,0,1.4,0.7,1.4,1.5v36.6
		C191.6,882.1,191,882.6,190.3,882.6z"/>
	<path class="st5" d="M187.3,709.3h-37.4v100.5h37.4V709.3z"/>
</g>
</svg>
