<?xml version="1.0" encoding="utf-8"?>
<!-- Generator: Adobe Illustrator 23.1.0, SVG Export Plug-In . SVG Version: 6.00 Build 0)  -->
<svg version="1.1" id="Layer_1" xmlns="http://www.w3.org/2000/svg" xmlns:xlink="http://www.w3.org/1999/xlink" x="0px" y="0px"
	 viewBox="0 0 423 573" style="enable-background:new 0 0 423 573;" xml:space="preserve">
<style type="text/css">
	.st0{fill:#1D3254;}
	.st1{fill:none;stroke:#1D3254;}
	.st2{fill:none;stroke:#A4A6A5;stroke-width:3;stroke-linecap:round;stroke-linejoin:round;stroke-miterlimit:10;}
	.st3{fill:#F2F2F0;}
	.st4{fill:#63708B;}
	.st5{fill:none;stroke:#1D3254;stroke-width:2;}
	.st6{fill:none;stroke:#000000;}
	.st7{fill:#1D3254;stroke:#1D3254;stroke-width:2;stroke-linecap:round;stroke-linejoin:round;stroke-miterlimit:10;}
	.st8{fill:#FFFFFF;stroke:#1D3254;stroke-width:2;stroke-linecap:round;stroke-linejoin:round;stroke-miterlimit:10;}
	.st9{fill:#FFBFAD;stroke:#1D3254;stroke-width:2;stroke-linecap:round;stroke-linejoin:round;stroke-miterlimit:10;}
	.st10{fill:#FA5D4C;stroke:#1D3254;stroke-width:2;stroke-linecap:round;stroke-linejoin:round;stroke-miterlimit:10;}
	.st11{fill:#F3EDD3;stroke:#1D3254;stroke-width:2;stroke-linecap:round;stroke-linejoin:round;stroke-miterlimit:10;}
	.st12{fill:none;stroke:#383838;stroke-width:2;stroke-linecap:round;stroke-linejoin:round;stroke-miterlimit:10;}
	.st13{fill:#383838;}
	.st14{fill:url(#SVGID_1_);}
	.st15{fill:#F5EEB3;}
	.st16{fill:none;stroke:#FFFFFF;stroke-width:2;stroke-linecap:round;stroke-linejoin:round;stroke-miterlimit:10;}
	.st17{fill:#8FC2A8;}
	.st18{fill:#5E9B7C;}
	.st19{fill:#468263;}
	.st20{fill:url(#SVGID_2_);}
	.st21{fill:#704728;}
	.st22{fill:url(#SVGID_3_);}
	.st23{fill:url(#SVGID_4_);}
	.st24{fill:url(#SVGID_5_);}
</style>
<path class="st0" d="M196.2,516.7v0.6h2.1v0.6h1v-6.3h-1v5.1H196.2z M194,512.5c1.1,0,1.7,0.4,1.7,0.9c0,0.6-0.7,0.9-1.7,0.9
	c-1,0-1.7-0.4-1.7-0.9C192.3,512.9,193,512.5,194,512.5z M194,515.1c1.6,0,2.7-0.6,2.7-1.6c0-1-1.1-1.6-2.7-1.6
	c-1.6,0-2.7,0.6-2.7,1.6C191.4,514.4,192.4,515.1,194,515.1z M193.4,518h1v-1.7c1-0.1,2.1-0.1,3.2-0.3l-0.1-0.6
	c-2.3,0.3-4.9,0.3-7,0.3l0.1,0.7c0.9,0,1.8,0,2.8,0V518z M193.1,521.5v-0.9h6.2v-2.2h-7.2v0.7h6.3v0.9h-6.2v2.3h7.6v-0.7H193.1z
	 M202.1,512.5v0.8h4c-0.2,1.9-1.9,3.4-4.4,4.2l0.4,0.8c3.1-1,5.1-3,5.1-5.8H202.1z M204.2,518.7h-1v3.5h7.2v-0.8h-6.2V518.7z
	 M209.9,514.9v-3.3h-1v7.9h1v-3.8h1.6v-0.8H209.9z M215.5,519.1c-1,0-1.8-1.1-1.8-2.9c0-1.7,0.7-2.9,1.8-2.9c1,0,1.8,1.1,1.8,2.9
	C217.3,518,216.5,519.1,215.5,519.1z M215.5,512.5c-1.6,0-2.7,1.5-2.7,3.8s1.1,3.8,2.7,3.8s2.7-1.5,2.7-3.8S217.1,512.5,215.5,512.5
	z M222.7,515.9h-1.8v-4.3h-1v10.8h1v-5.6h1.8V515.9z M232.5,511.6h-1v7.9h1V511.6z M230.3,517.2c-1.6-0.5-2.7-1.8-2.7-3.3v-0.6h2.4
	v-0.8h-5.9v0.8h2.5v0.6c0,1.5-1.1,2.9-2.7,3.5l0.5,0.8c1.3-0.5,2.3-1.4,2.7-2.7c0.5,1.1,1.5,2,2.7,2.4L230.3,517.2z M226.6,521.3
	v-2.6h-1v3.4h7.2v-0.8H226.6z"/>
<line class="st1" x1="29.5" y1="504" x2="394.5" y2="504"/>
<path class="st2" d="M340.9,312c1.1,0,2.1-1.4,2.1-3.2c0-1.7-0.9-3.2-2.1-3.2c-1.1,0-2.1,1.4-2.1,3.2
	C338.8,310.6,339.8,312,340.9,312z"/>
<path class="st2" d="M356.3,312c1.1,0,2.1-1.4,2.1-3.2c0-1.7-0.9-3.2-2.1-3.2c-1.1,0-2.1,1.4-2.1,3.2
	C354.2,310.6,355.1,312,356.3,312z"/>
<path class="st2" d="M353.4,301.6c0,0,4.9-3.8,9.9,3.3"/>
<path class="st2" d="M316.3,293.3c0,0,9.6,9.1,18.4-0.5c8.8-9.6,4.7-20.3-1.1-20c-5.8,0.3-11.5,21.4,2.7,25
	c14.3,3.6,17.6-15.1,15.1-17c-2.5-1.9-8.8,13.2,4.4,13.5"/>
<path class="st2" d="M363,315.9c0,0-6.6,2.5-15.4,2.5c-8.8,0-13.7-2.5-13.7-2.5s3.8,11,14,11C358.1,326.8,363,315.9,363,315.9z"/>
<path class="st2" d="M368.1,286.5c5.2,5.2,8.4,12.4,8.4,20.3c0,15.9-12.9,28.8-28.8,28.8c-15.9,0-28.8-12.9-28.8-28.8
	c0-15.9,12.9-28.8,28.8-28.8c5.7,0,11.1,1.7,15.6,4.6"/>
<path class="st2" d="M233.1,286.4c5.2,5.2,8.4,12.4,8.4,20.3c0,15.9-12.9,28.8-28.8,28.8s-28.8-12.9-28.8-28.8
	c0-15.9,12.9-28.8,28.8-28.8c5.7,0,11.1,1.7,15.6,4.6"/>
<path class="st2" d="M181.4,293.3c0,0,9.6,9.1,18.4-0.5c8.8-9.6,4.7-20.3-1.1-20c-5.8,0.3-11.5,21.4,2.7,25
	c14.3,3.6,17.6-15.1,15.1-17c-2.5-1.9-8.8,13.2,4.4,13.4"/>
<path class="st2" d="M205.1,312c1.1,0,2.1-1.4,2.1-3.2s-0.9-3.2-2.1-3.2s-2.1,1.4-2.1,3.2S203.9,312,205.1,312z"/>
<path class="st2" d="M220.4,312c1.1,0,2.1-1.4,2.1-3.2s-0.9-3.2-2.1-3.2s-2.1,1.4-2.1,3.2S219.3,312,220.4,312z"/>
<path class="st2" d="M218.4,301.6c0,0,4.9-3.8,9.9,3.3"/>
<path class="st2" d="M70.2,312c1.1,0,2.1-1.4,2.1-3.2c0-1.7-0.9-3.2-2.1-3.2c-1.1,0-2.1,1.4-2.1,3.2C68.2,310.6,69.1,312,70.2,312z"
	/>
<path class="st2" d="M85.6,312c1.1,0,2.1-1.4,2.1-3.2c0-1.7-0.9-3.2-2.1-3.2c-1.1,0-2.1,1.4-2.1,3.2C83.6,310.6,84.5,312,85.6,312z"
	/>
<path class="st2" d="M46.5,293.3c0,0,9.6,9.1,18.4-0.5c8.8-9.6,4.7-20.3-1.1-20c-5.8,0.3-11.5,21.4,2.7,25s17.6-15.1,15.1-17
	c-2.5-1.9-8.8,13.2,4.4,13.5"/>
<path class="st2" d="M82,302.8c0,0,8.1,2.6,14.7-2.7"/>
<path class="st2" d="M77.8,323.8c3.2,0,5.8-1,5.8-2.2c0-1.2-2.6-2.2-5.8-2.2c-3.2,0-5.8,1-5.8,2.2C72,322.8,74.6,323.8,77.8,323.8z"
	/>
<path class="st2" d="M98.3,286.5c5.2,5.2,8.4,12.4,8.4,20.3c0,15.9-12.9,28.8-28.8,28.8S49,322.7,49,306.8
	c0-15.9,12.9-28.8,28.8-28.8c5.7,0,11.1,1.7,15.6,4.6"/>
<path class="st3" d="M266.9,383.9c-2.1,0-4.1-0.6-5.8-1.8c-1.7-1.2-3-2.9-3.7-4.8c-0.7-1.9-0.8-4.1-0.3-6.1c0.5-2,1.7-3.8,3.3-5.1
	c11.9-10,20.4-23.4,24.4-38.3c4-15,3.3-30.8-2-45.4c-5.3-14.6-15-27.1-27.7-36c-12.7-8.9-27.9-13.6-43.4-13.6s-30.7,4.8-43.4,13.6
	c-12.7,8.9-22.4,21.4-27.7,36c-5.3,14.6-6,30.4-2,45.4c4,15,12.5,28.4,24.4,38.3c1.1,0.8,1.9,1.9,2.6,3.1c0.6,1.2,1,2.5,1.2,3.8
	c0.1,1.3,0,2.7-0.4,4c-0.4,1.3-1.1,2.5-1.9,3.5c-0.9,1-1.9,1.9-3.2,2.5c-1.2,0.6-2.5,1-3.9,1.1c-1.4,0.1-2.7-0.1-4-0.5
	c-1.3-0.4-2.5-1.1-3.5-2c-15.1-12.7-25.9-29.6-30.9-48.6s-4.2-39,2.6-57.5c6.8-18.4,19-34.4,35.2-45.6
	c16.1-11.3,35.4-17.3,55.1-17.3s38.9,6,55.1,17.3c16.1,11.3,28.4,27.2,35.2,45.6c6.8,18.4,7.7,38.5,2.6,57.5s-15.9,35.9-30.9,48.6
	C271.6,383.1,269.3,383.9,266.9,383.9z"/>
<path class="st4" d="M156.5,229.8c16.1-11.3,35.4-17.3,55.1-17.3l0,0c5.5,0,10,4.5,10,10c0,5.5-4.5,10-10,10v0.2
	c-15.5,0-30.7,4.8-43.4,13.6c-12.7,8.9-22.4,21.4-27.7,36c-5.3,14.6-6,30.4-2,45.4c4,15,12.5,28.4,24.4,38.3
	c1.1,0.8,1.9,1.9,2.6,3.1c0.6,1.2,1,2.5,1.2,3.8c0.1,1.3,0,2.7-0.4,4c-0.4,1.3-1.1,2.5-1.9,3.5c-0.9,1-1.9,1.9-3.2,2.5
	c-1.2,0.6-2.5,1-3.9,1.1c-1.4,0.1-2.7-0.1-4-0.5c-1.3-0.4-2.5-1.1-3.5-2c-15.1-12.7-25.9-29.6-30.9-48.6s-4.2-39,2.6-57.5
	C128.1,257,140.3,241.1,156.5,229.8z"/>
<line class="st5" x1="29.5" y1="121.5" x2="394.5" y2="121.5"/>
<line class="st5" x1="29.5" y1="51.5" x2="394.5" y2="51.5"/>
<line class="st6" x1="295" y1="52.5" x2="295" y2="122.5"/>
<line class="st6" x1="130" y1="52.5" x2="130" y2="122.5"/>
<path class="st0" d="M351.2,72.5h-5.7v-0.9l2.2-2.3c0.4-0.4,0.8-0.8,1.1-1.2c0.3-0.3,0.5-0.7,0.7-1c0.2-0.3,0.2-0.7,0.2-1.1
	c0-0.5-0.1-0.8-0.4-1.1c-0.3-0.2-0.6-0.4-1.1-0.4c-0.4,0-0.8,0.1-1.1,0.2c-0.3,0.1-0.6,0.3-1,0.6l-0.6-0.7c0.3-0.3,0.7-0.5,1.2-0.7
	c0.4-0.2,0.9-0.3,1.5-0.3c0.8,0,1.4,0.2,1.9,0.6c0.5,0.4,0.7,1,0.7,1.7c0,0.4-0.1,0.9-0.3,1.3c-0.2,0.4-0.4,0.8-0.8,1.2
	c-0.3,0.4-0.7,0.8-1.2,1.2l-1.8,1.8v0h4.3V72.5z M358.1,68.2c0,0.9-0.1,1.7-0.3,2.4c-0.2,0.7-0.5,1.2-0.9,1.5
	c-0.4,0.4-1,0.5-1.7,0.5c-1,0-1.7-0.4-2.1-1.2c-0.5-0.8-0.7-1.9-0.7-3.3c0-0.9,0.1-1.7,0.3-2.4c0.2-0.7,0.5-1.2,0.9-1.5
	c0.4-0.4,1-0.5,1.6-0.5c1,0,1.7,0.4,2.1,1.2C357.9,65.7,358.1,66.8,358.1,68.2z M353.5,68.2c0,1.2,0.1,2.1,0.4,2.6
	c0.3,0.6,0.7,0.9,1.4,0.9c0.6,0,1.1-0.3,1.4-0.9c0.3-0.6,0.4-1.5,0.4-2.7c0-1.2-0.1-2-0.4-2.6c-0.3-0.6-0.7-0.9-1.4-0.9
	c-0.6,0-1.1,0.3-1.4,0.9C353.6,66.2,353.5,67,353.5,68.2z M364.9,72.5h-5.7v-0.9l2.2-2.3c0.4-0.4,0.8-0.8,1.1-1.2
	c0.3-0.3,0.5-0.7,0.7-1c0.2-0.3,0.2-0.7,0.2-1.1c0-0.5-0.1-0.8-0.4-1.1c-0.3-0.2-0.6-0.4-1.1-0.4c-0.4,0-0.8,0.1-1.1,0.2
	c-0.3,0.1-0.6,0.3-1,0.6l-0.6-0.7c0.3-0.3,0.7-0.5,1.2-0.7c0.4-0.2,0.9-0.3,1.5-0.3c0.8,0,1.4,0.2,1.9,0.6c0.5,0.4,0.7,1,0.7,1.7
	c0,0.4-0.1,0.9-0.3,1.3c-0.2,0.4-0.4,0.8-0.8,1.2c-0.3,0.4-0.7,0.8-1.2,1.2l-1.8,1.8v0h4.3V72.5z M371.8,72.5h-5.7v-0.9l2.2-2.3
	c0.4-0.4,0.8-0.8,1.1-1.2c0.3-0.3,0.5-0.7,0.7-1c0.2-0.3,0.2-0.7,0.2-1.1c0-0.5-0.1-0.8-0.4-1.1c-0.3-0.2-0.6-0.4-1.1-0.4
	c-0.4,0-0.8,0.1-1.1,0.2c-0.3,0.1-0.6,0.3-1,0.6l-0.6-0.7c0.3-0.3,0.7-0.5,1.2-0.7c0.4-0.2,0.9-0.3,1.5-0.3c0.8,0,1.4,0.2,1.9,0.6
	c0.5,0.4,0.7,1,0.7,1.7c0,0.4-0.1,0.9-0.3,1.3c-0.2,0.4-0.4,0.8-0.8,1.2c-0.3,0.4-0.7,0.8-1.2,1.2l-1.8,1.8v0h4.3V72.5z M380.9,70.6
	h1v-8h-1V64h-3v0.8h3v1.3h-3v0.8h3V70.6z M379.2,67.8c-1.6,0.3-3,0.4-4.5,0.4v-4.8h-1V69h0.8c1.6,0,3-0.1,4.8-0.4L379.2,67.8z
	 M376,72.3v-2.4h-1v3.2h7.2v-0.8H376z M389.5,71.2v-2.8h3.3v-0.8h-6.4v-3.4h6.3v-0.8h-7.3v5h3.1v2.8h-4.4V72h9.8v-0.8H389.5z
	 M366.2,82.7h1.9v-0.8h-4.9v0.8h2v1c0,2-0.8,3.9-2.3,4.8l0.6,0.7c1.1-0.7,1.8-1.9,2.2-3.4c0.4,1.4,1.1,2.5,2.2,3.1l0.6-0.7
	c-1.5-0.8-2.3-2.7-2.3-4.6V82.7z M369.1,84.5h-1.8v0.8h1.8v5.5h0.9v-10h-0.9V84.5z M371.3,80.6v10.8h0.9V80.6H371.3z M380.9,90.5h-1
	v-6c0-0.3,0-0.6,0-0.8c0-0.2,0-0.4,0-0.6c-0.1,0.1-0.2,0.2-0.3,0.3s-0.2,0.2-0.4,0.3l-0.9,0.7l-0.6-0.7l2.3-1.8h0.9V90.5z
	 M393.3,82.2h-3.9v-1.4h-1v1.4h-3.9V83h8.7V82.2z M386.4,85.8c0-0.8,1-1.3,2.5-1.3c1.5,0,2.5,0.5,2.5,1.3c0,0.8-1,1.3-2.5,1.3
	C387.4,87.1,386.4,86.6,386.4,85.8z M389.5,89.3v-1.5c1.9-0.1,3-0.8,3-2c0-1.3-1.4-2-3.5-2c-2.2,0-3.5,0.7-3.5,2c0,1.2,1.2,1.9,3,2
	v1.5h-4.4v0.8h9.8v-0.8H389.5z"/>
<path class="st7" d="M199,112.5c6.9,0,12.5-5.6,12.5-12.5c0-6.9-5.6-12.5-12.5-12.5s-12.5,5.6-12.5,12.5
	C186.5,106.9,192.1,112.5,199,112.5z"/>
<path class="st8" d="M186.5,100c0-2.2,0.6-4.3,1.5-6c0.4-0.8,1-1.5,1.6-2.2c0.5-0.5,1-1,1.6-1.5c0.5-0.4,1-0.8,1.5-1.1
	c0.5-0.3,1-0.6,1.5-0.8c0.5-0.2,1-0.4,1.6-0.5c0.5-0.1,1-0.2,1.6-0.3c0.5-0.1,1-0.1,1.5-0.1v25c-0.5,0-1,0-1.5-0.1
	c-0.5-0.1-1.1-0.2-1.6-0.3c-0.5-0.1-1.1-0.3-1.6-0.5c-0.5-0.2-1.1-0.5-1.5-0.8c-0.6-0.3-1.1-0.7-1.5-1.1c-0.6-0.4-1.1-1-1.6-1.5
	c-0.6-0.7-1.1-1.4-1.6-2.2C187.1,104.3,186.5,102.2,186.5,100z"/>
<path class="st8" d="M236.5,62.5h-25V75h25V62.5z"/>
<path class="st8" d="M211.5,75c0,6.9-5.6,12.5-12.5,12.5s-12.5-5.6-12.5-12.5H211.5z"/>
<path class="st8" d="M224,100c0-2.2,0.6-4.3,1.5-6c0.4-0.8,1-1.5,1.6-2.2c0.5-0.5,1-1,1.6-1.5c0.5-0.4,1-0.8,1.5-1.1
	c0.5-0.3,1-0.6,1.5-0.8c0.5-0.2,1-0.4,1.6-0.5c0.5-0.1,1-0.2,1.6-0.3c0.5-0.1,1-0.1,1.5-0.1v25c-0.5,0-1,0-1.5-0.1
	c-0.5-0.1-1.1-0.2-1.6-0.3c-0.5-0.1-1.1-0.3-1.6-0.5c-0.5-0.2-1.1-0.5-1.5-0.8c-0.6-0.3-1.1-0.7-1.5-1.1c-0.6-0.4-1.1-1-1.6-1.5
	c-0.6-0.7-1.1-1.4-1.6-2.2C224.6,104.3,224,102.2,224,100z"/>
<path class="st9" d="M236.5,87.5h-25v10.3h25V87.5z"/>
<path class="st8" d="M211.5,87.5c6.9,0,12.5,5.6,12.5,12.5c0,6.9-5.6,12.5-12.5,12.5V87.5z"/>
<path class="st10" d="M236.5,62.5c-6.9,0-12.5,5.6-12.5,12.5s5.6,12.5,12.5,12.5V62.5z"/>
<path class="st11" d="M199,62.5c-6.9,0-12.5,5.6-12.5,12.5h25C211.5,68.1,205.9,62.5,199,62.5z"/>
<path class="st0" d="M46,75.1c-1.3,0-2.3-0.9-2.3-2.4s1-2.4,2.3-2.4c1.3,0,2.2,0.9,2.2,2.4C48.2,74.2,47.3,75.1,46,75.1z M46,68.1
	c-2.8,0-4.9,1.9-4.9,4.6c0,2.7,2.1,4.6,4.9,4.6c2.8,0,4.9-1.9,4.9-4.6C50.9,70,48.8,68.1,46,68.1z M47.4,62.3h-2.8v2.5h-4.3V67h11.3
	v-2.2h-4.2V62.3z M58.4,69.5h-2.8V62h-2.8v19.3h2.8v-9.5h2.8V69.5z M72.4,66.3H61.8v5.9h13.9v-2.2H64.6v-1.6h10.6v-5.8H61.7v2.2
	h10.7V66.3z M77.2,73.5H59.7v2.2h7.3v5.6h2.8v-5.6h7.4V73.5z M85.3,63.2c-3,0-5.3,2-5.3,4.8c0,2.8,2.3,4.8,5.3,4.8s5.3-2,5.3-4.8
	C90.6,65.2,88.3,63.2,85.3,63.2z M85.3,65.6c1.5,0,2.6,0.9,2.6,2.4s-1.1,2.4-2.6,2.4s-2.6-0.9-2.6-2.4S83.8,65.6,85.3,65.6z
	 M92.4,61.9v19.4h2.8V61.9H92.4z M79.5,77.4c3.3,0,7.9,0,12-0.9l-0.2-2c-4.1,0.6-8.8,0.6-12.2,0.6L79.5,77.4z M53.7,90v11.3h2.8V90
	H53.7z M49.9,101.7c-4.1,0-6.6,1.4-6.6,3.8c0,2.4,2.5,3.8,6.6,3.8c4.1,0,6.6-1.4,6.6-3.8C56.5,103.1,54,101.7,49.9,101.7z
	 M49.9,103.8c2.5,0,3.8,0.5,3.8,1.7c0,1.1-1.3,1.7-3.8,1.7c-2.5,0-3.9-0.6-3.9-1.7C46.1,104.4,47.4,103.8,49.9,103.8z M45.9,91.1
	c-3,0-5.3,1.9-5.3,4.6s2.3,4.6,5.3,4.6c3,0,5.3-1.9,5.3-4.6S49,91.1,45.9,91.1z M45.9,93.4c1.5,0,2.6,0.9,2.6,2.3
	c0,1.4-1.1,2.3-2.6,2.3c-1.4,0-2.5-0.9-2.5-2.3C43.4,94.2,44.5,93.4,45.9,93.4z M61.1,97.4l0.3,2.2l11-0.6c-0.1,1.3-0.3,2.7-0.7,4.3
	l2.7,0.3c0.9-4.2,0.9-6.9,0.9-9.7v-2.2H61.7v2.2h11v0c0,1,0,2,0,3.1L61.1,97.4z M59.7,104.7v2.3h17.5v-2.3H59.7z"/>
</svg>
