<?xml version="1.0" encoding="utf-8"?>
<!-- Generator: Adobe Illustrator 23.1.0, SVG Export Plug-In . SVG Version: 6.00 Build 0)  -->
<svg version="1.1" id="Layer_1" xmlns="http://www.w3.org/2000/svg" xmlns:xlink="http://www.w3.org/1999/xlink" x="0px" y="0px"
	 viewBox="0 0 423 573" style="enable-background:new 0 0 423 573;" xml:space="preserve">
<style type="text/css">
	.st0{fill:#1D3254;}
	.st1{fill:none;stroke:#1D3254;}
	.st2{fill:none;stroke:#1D3254;stroke-width:2;}
	.st3{fill:none;stroke:#000000;}
	.st4{fill:#1D3254;stroke:#1D3254;stroke-width:2;stroke-linecap:round;stroke-linejoin:round;stroke-miterlimit:10;}
	.st5{fill:#FFFFFF;stroke:#1D3254;stroke-width:2;stroke-linecap:round;stroke-linejoin:round;stroke-miterlimit:10;}
	.st6{fill:#FFBFAD;stroke:#1D3254;stroke-width:2;stroke-linecap:round;stroke-linejoin:round;stroke-miterlimit:10;}
	.st7{fill:#FA5D4C;stroke:#1D3254;stroke-width:2;stroke-linecap:round;stroke-linejoin:round;stroke-miterlimit:10;}
	.st8{fill:#F3EDD3;stroke:#1D3254;stroke-width:2;stroke-linecap:round;stroke-linejoin:round;stroke-miterlimit:10;}
	.st9{fill:#8FC2A8;}
	.st10{fill:#5E9B7C;}
	.st11{fill:#468263;}
	.st12{fill:url(#SVGID_1_);}
	.st13{fill:#704728;}
	.st14{fill:url(#SVGID_2_);}
	.st15{fill:url(#SVGID_3_);}
	.st16{fill:url(#SVGID_4_);}
</style>
<g>
	<path class="st0" d="M196.2,516.7v0.6h2.1v0.6h1v-6.3h-1v5.1L196.2,516.7L196.2,516.7z M194,512.5c1.1,0,1.7,0.4,1.7,0.9
		c0,0.6-0.7,0.9-1.7,0.9s-1.7-0.4-1.7-0.9S193,512.5,194,512.5z M194,515.1c1.6,0,2.7-0.6,2.7-1.6s-1.1-1.6-2.7-1.6
		c-1.6,0-2.7,0.6-2.7,1.6C191.4,514.4,192.4,515.1,194,515.1z M193.4,518h1v-1.7c1-0.1,2.1-0.1,3.2-0.3l-0.1-0.6
		c-2.3,0.3-4.9,0.3-7,0.3l0.1,0.7c0.9,0,1.8,0,2.8,0V518z M193.1,521.5v-0.9h6.2v-2.2h-7.2v0.7h6.3v0.9h-6.2v2.3h7.6v-0.7
		L193.1,521.5L193.1,521.5z M202.1,512.5v0.8h4c-0.2,1.9-1.9,3.4-4.4,4.2l0.4,0.8c3.1-1,5.1-3,5.1-5.8H202.1z M204.2,518.7h-1v3.5
		h7.2v-0.8h-6.2V518.7z M209.9,514.9v-3.3h-1v7.9h1v-3.8h1.6v-0.8L209.9,514.9L209.9,514.9z M215.5,519.1c-1,0-1.8-1.1-1.8-2.9
		c0-1.7,0.7-2.9,1.8-2.9c1,0,1.8,1.1,1.8,2.9S216.5,519.1,215.5,519.1z M215.5,512.5c-1.6,0-2.7,1.5-2.7,3.8s1.1,3.8,2.7,3.8
		s2.7-1.5,2.7-3.8S217.1,512.5,215.5,512.5z M222.7,515.9h-1.8v-4.3h-1v10.8h1v-5.6h1.8V515.9z M232.5,511.6h-1v7.9h1V511.6z
		 M230.3,517.2c-1.6-0.5-2.7-1.8-2.7-3.3v-0.6h2.4v-0.8h-5.9v0.8h2.5v0.6c0,1.5-1.1,2.9-2.7,3.5l0.5,0.8c1.3-0.5,2.3-1.4,2.7-2.7
		c0.5,1.1,1.5,2,2.7,2.4L230.3,517.2z M226.6,521.3v-2.6h-1v3.4h7.2v-0.8L226.6,521.3L226.6,521.3z"/>
	<line class="st1" x1="29.5" y1="504" x2="394.5" y2="504"/>
	<line class="st2" x1="29.5" y1="121.5" x2="394.5" y2="121.5"/>
	<line class="st2" x1="29.5" y1="51.5" x2="394.5" y2="51.5"/>
	<line class="st3" x1="295" y1="52.5" x2="295" y2="122.5"/>
	<line class="st3" x1="130" y1="52.5" x2="130" y2="122.5"/>
	<path class="st0" d="M351.2,72.5h-5.7v-0.9l2.2-2.3c0.4-0.4,0.8-0.8,1.1-1.2c0.3-0.3,0.5-0.7,0.7-1s0.2-0.7,0.2-1.1
		c0-0.5-0.1-0.8-0.4-1.1c-0.3-0.2-0.6-0.4-1.1-0.4c-0.4,0-0.8,0.1-1.1,0.2c-0.3,0.1-0.6,0.3-1,0.6l-0.6-0.7c0.3-0.3,0.7-0.5,1.2-0.7
		c0.4-0.2,0.9-0.3,1.5-0.3c0.8,0,1.4,0.2,1.9,0.6c0.5,0.4,0.7,1,0.7,1.7c0,0.4-0.1,0.9-0.3,1.3c-0.2,0.4-0.4,0.8-0.8,1.2
		c-0.3,0.4-0.7,0.8-1.2,1.2l-1.8,1.8l0,0h4.3v1.1H351.2z M358.1,68.2c0,0.9-0.1,1.7-0.3,2.4c-0.2,0.7-0.5,1.2-0.9,1.5
		c-0.4,0.4-1,0.5-1.7,0.5c-1,0-1.7-0.4-2.1-1.2c-0.5-0.8-0.7-1.9-0.7-3.3c0-0.9,0.1-1.7,0.3-2.4c0.2-0.7,0.5-1.2,0.9-1.5
		c0.4-0.4,1-0.5,1.6-0.5c1,0,1.7,0.4,2.1,1.2C357.9,65.7,358.1,66.8,358.1,68.2z M353.5,68.2c0,1.2,0.1,2.1,0.4,2.6
		c0.3,0.6,0.7,0.9,1.4,0.9c0.6,0,1.1-0.3,1.4-0.9s0.4-1.5,0.4-2.7s-0.1-2-0.4-2.6s-0.7-0.9-1.4-0.9c-0.6,0-1.1,0.3-1.4,0.9
		C353.6,66.2,353.5,67,353.5,68.2z M364.9,72.5h-5.7v-0.9l2.2-2.3c0.4-0.4,0.8-0.8,1.1-1.2c0.3-0.3,0.5-0.7,0.7-1s0.2-0.7,0.2-1.1
		c0-0.5-0.1-0.8-0.4-1.1c-0.3-0.2-0.6-0.4-1.1-0.4c-0.4,0-0.8,0.1-1.1,0.2c-0.3,0.1-0.6,0.3-1,0.6l-0.6-0.7c0.3-0.3,0.7-0.5,1.2-0.7
		c0.4-0.2,0.9-0.3,1.5-0.3c0.8,0,1.4,0.2,1.9,0.6c0.5,0.4,0.7,1,0.7,1.7c0,0.4-0.1,0.9-0.3,1.3c-0.2,0.4-0.4,0.8-0.8,1.2
		c-0.3,0.4-0.7,0.8-1.2,1.2l-1.8,1.8l0,0h4.3v1.1H364.9z M371.8,72.5h-5.7v-0.9l2.2-2.3c0.4-0.4,0.8-0.8,1.1-1.2
		c0.3-0.3,0.5-0.7,0.7-1s0.2-0.7,0.2-1.1c0-0.5-0.1-0.8-0.4-1.1c-0.3-0.2-0.6-0.4-1.1-0.4c-0.4,0-0.8,0.1-1.1,0.2
		c-0.3,0.1-0.6,0.3-1,0.6l-0.6-0.7c0.3-0.3,0.7-0.5,1.2-0.7c0.4-0.2,0.9-0.3,1.5-0.3c0.8,0,1.4,0.2,1.9,0.6c0.5,0.4,0.7,1,0.7,1.7
		c0,0.4-0.1,0.9-0.3,1.3c-0.2,0.4-0.4,0.8-0.8,1.2c-0.3,0.4-0.7,0.8-1.2,1.2l-1.8,1.8l0,0h4.3v1.1H371.8z M380.9,70.6h1v-8h-1V64h-3
		v0.8h3v1.3h-3v0.8h3V70.6z M379.2,67.8c-1.6,0.3-3,0.4-4.5,0.4v-4.8h-1V69h0.8c1.6,0,3-0.1,4.8-0.4L379.2,67.8z M376,72.3v-2.4h-1
		v3.2h7.2v-0.8C382.2,72.3,376,72.3,376,72.3z M389.5,71.2v-2.8h3.3v-0.8h-6.4v-3.4h6.3v-0.8h-7.3v5h3.1v2.8h-4.4V72h9.8v-0.8H389.5
		z M366.2,82.7h1.9v-0.8h-4.9v0.8h2v1c0,2-0.8,3.9-2.3,4.8l0.6,0.7c1.1-0.7,1.8-1.9,2.2-3.4c0.4,1.4,1.1,2.5,2.2,3.1l0.6-0.7
		c-1.5-0.8-2.3-2.7-2.3-4.6L366.2,82.7L366.2,82.7z M369.1,84.5h-1.8v0.8h1.8v5.5h0.9v-10h-0.9V84.5z M371.3,80.6v10.8h0.9V80.6
		H371.3z M382.5,83.9c0,0.6-0.2,1-0.5,1.4c-0.3,0.3-0.8,0.6-1.3,0.7l0,0c0.7,0.1,1.2,0.3,1.5,0.6c0.3,0.4,0.5,0.8,0.5,1.4
		c0,0.5-0.1,0.9-0.3,1.3c-0.2,0.4-0.6,0.7-1.1,0.9c-0.5,0.2-1.1,0.3-1.9,0.3c-0.4,0-0.9,0-1.2-0.1c-0.4-0.1-0.8-0.2-1.1-0.4v-1
		c0.4,0.2,0.7,0.3,1.2,0.4c0.4,0.1,0.8,0.1,1.2,0.1c0.8,0,1.3-0.1,1.7-0.4c0.3-0.3,0.5-0.7,0.5-1.2s-0.2-0.9-0.6-1.2
		c-0.4-0.2-1-0.4-1.8-0.4h-0.8v-0.9h0.8c0.7,0,1.2-0.1,1.6-0.4s0.6-0.7,0.6-1.2c0-0.4-0.1-0.7-0.4-1c-0.3-0.2-0.7-0.3-1.1-0.3
		c-0.5,0-0.9,0.1-1.2,0.2s-0.7,0.3-1,0.5l-0.5-0.7c0.3-0.2,0.7-0.4,1.1-0.6c0.5-0.2,1-0.3,1.5-0.3c0.9,0,1.6,0.2,2,0.6
		C382.3,82.8,382.5,83.3,382.5,83.9z M393.3,82.2h-3.9v-1.4h-1v1.4h-3.9V83h8.7L393.3,82.2L393.3,82.2z M386.4,85.8
		c0-0.8,1-1.3,2.5-1.3s2.5,0.5,2.5,1.3s-1,1.3-2.5,1.3C387.4,87.1,386.4,86.6,386.4,85.8z M389.5,89.3v-1.5c1.9-0.1,3-0.8,3-2
		c0-1.3-1.4-2-3.5-2c-2.2,0-3.5,0.7-3.5,2c0,1.2,1.2,1.9,3,2v1.5h-4.4v0.8h9.8v-0.8H389.5z"/>
	<path class="st4" d="M199,112.5c6.9,0,12.5-5.6,12.5-12.5s-5.6-12.5-12.5-12.5s-12.5,5.6-12.5,12.5S192.1,112.5,199,112.5z"/>
	<path class="st5" d="M186.5,100c0-2.2,0.6-4.3,1.5-6c0.4-0.8,1-1.5,1.6-2.2c0.5-0.5,1-1,1.6-1.5c0.5-0.4,1-0.8,1.5-1.1
		c0.5-0.3,1-0.6,1.5-0.8c0.5-0.2,1-0.4,1.6-0.5c0.5-0.1,1-0.2,1.6-0.3c0.5-0.1,1-0.1,1.5-0.1v25c-0.5,0-1,0-1.5-0.1
		s-1.1-0.2-1.6-0.3c-0.5-0.1-1.1-0.3-1.6-0.5s-1.1-0.5-1.5-0.8c-0.6-0.3-1.1-0.7-1.5-1.1c-0.6-0.4-1.1-1-1.6-1.5
		c-0.6-0.7-1.1-1.4-1.6-2.2C187.1,104.3,186.5,102.2,186.5,100z"/>
	<path class="st5" d="M236.5,62.5h-25V75h25V62.5z"/>
	<path class="st5" d="M211.5,75c0,6.9-5.6,12.5-12.5,12.5s-12.5-5.6-12.5-12.5H211.5z"/>
	<path class="st5" d="M224,100c0-2.2,0.6-4.3,1.5-6c0.4-0.8,1-1.5,1.6-2.2c0.5-0.5,1-1,1.6-1.5c0.5-0.4,1-0.8,1.5-1.1
		c0.5-0.3,1-0.6,1.5-0.8c0.5-0.2,1-0.4,1.6-0.5c0.5-0.1,1-0.2,1.6-0.3c0.5-0.1,1-0.1,1.5-0.1v25c-0.5,0-1,0-1.5-0.1
		s-1.1-0.2-1.6-0.3c-0.5-0.1-1.1-0.3-1.6-0.5s-1.1-0.5-1.5-0.8c-0.6-0.3-1.1-0.7-1.5-1.1c-0.6-0.4-1.1-1-1.6-1.5
		c-0.6-0.7-1.1-1.4-1.6-2.2C224.6,104.3,224,102.2,224,100z"/>
	<path class="st6" d="M236.5,87.5h-25v10.3h25V87.5z"/>
	<path class="st5" d="M211.5,87.5c6.9,0,12.5,5.6,12.5,12.5s-5.6,12.5-12.5,12.5V87.5z"/>
	<path class="st7" d="M236.5,62.5c-6.9,0-12.5,5.6-12.5,12.5s5.6,12.5,12.5,12.5V62.5z"/>
	<path class="st8" d="M199,62.5c-6.9,0-12.5,5.6-12.5,12.5h25C211.5,68.1,205.9,62.5,199,62.5z"/>
	<path class="st0" d="M51.9,69.5c-3.1-0.9-4.4-3.2-4.4-5.6v-1.2h-2.8V64c0,2.5-1.3,5-4.6,6l1.4,2.2c2.3-0.7,3.8-2.2,4.7-4.1
		c0.8,1.6,2.2,2.9,4.3,3.6L51.9,69.5z M44.6,77.9h3.6V73h-6.3v2h3.7v1H42v5.1h1c2.6,0,4,0,5.7-0.3l-0.2-2c-1.3,0.2-2.3,0.3-3.9,0.3
		V77.9z M51.6,75h1.6v4.2h-1.6V75z M49.2,81.2h6.4V73h-6.4V81.2z M58.2,65.8h-2.5V62h-2.8v10.2h2.8V68h2.5V65.8z M68.5,64.7
		c2.6,0,4.2,0.6,4.2,1.8c0,1.2-1.6,1.8-4.2,1.8s-4.1-0.6-4.1-1.8C64.3,65.3,65.9,64.7,68.5,64.7z M68.5,70.5c4.2,0,7-1.5,7-4
		s-2.8-4-7-4s-7,1.5-7,4S64.3,70.5,68.5,70.5z M64.6,75.3h-2.8V81h13.4v-2.2H64.6V75.3z M59.7,71.8V74h17.5v-2.2H59.7z M50.4,95.1
		h-1.9c0.1-0.9,0.2-1.8,0.2-2.8h-7.5v2.2H46c-0.4,3.8-2,6.6-5.9,8.9l1.6,1.9c3.6-2.1,5.5-4.8,6.4-8h2.3v2.6h-2.7v2.2h2.7v6.3H53v-18
		h-2.6V95.1z M54.4,89.9v19.4H57V89.9H54.4z M70.9,98.7c-2.4,0.4-4.5,0.6-7.7,0.6v-2h6v-6.1h-8.8v2.2h6.1v1.8h-6.1v6.3h1.7
		c3.9,0,6.3-0.1,9-0.6L70.9,98.7z M65.3,103.1h-2.8v5.9h13.1v-2.2H65.3V103.1z M74.9,95.5V90h-2.8v14.3h2.8v-6.4h2.6v-2.3L74.9,95.5
		L74.9,95.5z"/>
	<path class="st9" d="M144.3,363.5c0-5.5,4.5-10,10-10h111c5.5,0,10,4.5,10,10v35h-131L144.3,363.5L144.3,363.5z"/>
	<rect x="144.3" y="398.5" class="st10" width="26" height="9"/>
	<rect x="249.3" y="398.5" class="st10" width="26" height="9"/>
	<rect x="144.3" y="407.5" class="st11" width="26" height="2"/>
	<rect x="249.3" y="407.5" class="st11" width="26" height="2"/>
	<ellipse class="st10" cx="209.8" cy="365.5" rx="42.5" ry="10"/>
	
		<linearGradient id="SVGID_1_" gradientUnits="userSpaceOnUse" x1="-52.562" y1="478.4" x2="-52.562" y2="310.2124" gradientTransform="matrix(1 0 0 1 262.01 -107.6)">
		<stop  offset="0" style="stop-color:#D19869"/>
		<stop  offset="1" style="stop-color:#F7DAC4"/>
	</linearGradient>
	<path class="st12" d="M272.5,282.2c-8.3-49.5-30.3-68.5-46-75.7c-12.4-5.8-23.4-3.9-29.4-2c-15.6,5.5-41.5,23-50.7,77.7
		c-11.3,67.5,27,88.6,63,88.6S283.8,349.6,272.5,282.2z"/>
	<path class="st13" d="M268.4,316.1c-0.3-1.2,0.5-2.3,1.6-2.6c4.8-1.1,10.8-7.1,12.7-9.3c0.8-0.9,2.1-1,3-0.2s1,2.1,0.2,3
		c-0.3,0.4-7.8,9.1-15.1,10.7C269.8,318,268.7,317.3,268.4,316.1z"/>
	<path class="st13" d="M150.4,316.8c0,0.1,0,0.2,0,0.4c-0.2,1.2-1.4,1.9-2.5,1.7c-14.6-2.8-17.1-10.5-17.2-10.8
		c-0.3-1.1,0.3-2.3,1.4-2.7c1.1-0.3,2.3,0.3,2.7,1.4c0.1,0.2,2.3,5.7,13.9,7.9C149.7,314.9,150.5,315.8,150.4,316.8z"/>
	<path class="st13" d="M196.9,368.6c0-4.4-5.5-7.9-12.3-7.9s-12.3,3.5-12.3,7.9c0,0,0,0,0,0.1l0,0v5.1c0,1.5,1.2,2.7,2.7,2.7h19.1
		c1.5,0,2.7-1.2,2.7-2.7v-5.2H196.9C196.9,368.7,196.9,368.6,196.9,368.6z"/>
	<path class="st13" d="M244.2,368.6c0-4.4-5.5-7.9-12.3-7.9s-12.3,3.5-12.3,7.9c0,0,0,0,0,0.1l0,0v5.1c0,1.5,1.2,2.7,2.7,2.7h19.1
		c1.5,0,2.7-1.2,2.7-2.7v-5.2H244.2C244.2,368.7,244.2,368.6,244.2,368.6z"/>
	<path class="st13" d="M198.4,280.8c1.8,0.9,2.8,2.1,1.5,3.3c-1.3,1.2-4.5,2.1-6.3,1.2s-2.7-2.2-0.9-3.9
		C194,280.2,196.5,279.9,198.4,280.8z"/>
	<path class="st13" d="M220.5,280.8c-1.8,0.9-2.8,2.1-1.5,3.3c1.3,1.2,4.5,2.1,6.3,1.2s2.7-2.2,0.9-3.9
		C224.9,280.2,222.4,279.9,220.5,280.8z"/>
	<path class="st13" d="M210.9,302.5c-5.1,0-8.9-2.7-9-2.7c-0.6-0.4-0.7-1.2-0.3-1.8c0.4-0.6,1.2-0.7,1.8-0.3c0.3,0.2,7.2,5,14.2,0
		c0.6-0.4,1.4-0.3,1.8,0.3c0.4,0.6,0.3,1.4-0.3,1.8C216.3,301.8,213.5,302.5,210.9,302.5z"/>
	<path class="st13" d="M188.1,278.6c-0.3,0-0.7-0.1-0.9-0.4c-0.5-0.5-0.5-1.3,0-1.8c0.3-0.3,2.7-2.6,5.4-2.6c0.7,0,1.3,0.6,1.3,1.3
		c0,0.7-0.6,1.3-1.3,1.3c-1.4,0-3.1,1.4-3.6,1.9C188.7,278.4,188.4,278.6,188.1,278.6z"/>
	
		<linearGradient id="SVGID_2_" gradientUnits="userSpaceOnUse" x1="-134.6804" y1="348.3806" x2="-95.9917" y2="351.1562" gradientTransform="matrix(1 0 0 1 262.01 -107.6)">
		<stop  offset="0" style="stop-color:#E6E6E6"/>
		<stop  offset="1" style="stop-color:#CCCCCC"/>
	</linearGradient>
	<path class="st14" d="M167.6,220.9c0,0-5.8-3.3-17-4.1s-20.7,5.3-18.9,12.2s-10.6,21.8-2.3,31.4s10.7,7.5,17.8,3.5
		C156.1,258.9,158.2,226.9,167.6,220.9z"/>
	
		<linearGradient id="SVGID_3_" gradientUnits="userSpaceOnUse" x1="-12.291" y1="347.9421" x2="27.4363" y2="347.9421" gradientTransform="matrix(1 0 0 1 262.01 -107.6)">
		<stop  offset="0" style="stop-color:#CCCCCC"/>
		<stop  offset="1" style="stop-color:#E6E6E6"/>
	</linearGradient>
	<path class="st15" d="M258.4,227.1c0,0,2.9,16,8.4,32c5,14.4,36.1,15.2,30.7-2.1c-5.8-18.6,2.9-32.5-10.2-42
		C272.5,204.3,260.6,215.8,258.4,227.1z"/>
	
		<linearGradient id="SVGID_4_" gradientUnits="userSpaceOnUse" x1="-108.81" y1="330.2887" x2="4.79" y2="330.2887" gradientTransform="matrix(1 0 0 1 262.01 -107.6)">
		<stop  offset="0" style="stop-color:#E6E6E6"/>
		<stop  offset="0.4765" style="stop-color:#F2F2F2"/>
		<stop  offset="1" style="stop-color:#E6E6E6"/>
	</linearGradient>
	<path class="st16" d="M153.2,253c0,0,47-13.6,113.6,2.9c0,0-10-65.4-52.7-66.4C190.2,188.9,163.9,200,153.2,253z"/>
</g>
</svg>
