<?xml version="1.0" encoding="utf-8"?>
<!-- Generator: Adobe Illustrator 23.1.0, SVG Export Plug-In . SVG Version: 6.00 Build 0)  -->
<svg version="1.1" id="Layer_1" xmlns="http://www.w3.org/2000/svg" xmlns:xlink="http://www.w3.org/1999/xlink" x="0px" y="0px"
	 viewBox="0 0 52 52" style="enable-background:new 0 0 52 52;" xml:space="preserve">
<style type="text/css">
	.st0{fill:#F3EDD3;}
	.st1{fill:#FA5D4C;}
</style>
<rect class="st0" width="52" height="52"/>
<g>
	<g>
		<path class="st1" d="M13,14.4c0.8,0,1.4,0.6,1.5,1.3V35h23V21.5c0-0.8,0.7-1.5,1.5-1.5c0.8,0,1.4,0.6,1.5,1.3v15.2
			c0,0.8-0.7,1.5-1.5,1.5H13c-0.8,0-1.5-0.7-1.5-1.5V15.9C11.5,15,12.2,14.4,13,14.4z"/>
	</g>
	<path class="st1" d="M12.1,16.6l12,11.1c0.5,0.4,1.2,0.7,1.9,0.7c0.7,0,1.4-0.3,1.9-0.7l12-11.1c0.6-0.5,0.7-1.5,0.2-2.1
		C39.8,14.2,39.4,14,39,14v0H13.4c-0.5-0.1-1.1,0-1.5,0.5C11.4,15.2,11.4,16.1,12.1,16.6z M16.9,17h18.2L26,25.5L16.9,17z"/>
</g>
</svg>
