<?xml version="1.0" encoding="utf-8"?>
<!-- Generator: Adobe Illustrator 23.1.0, SVG Export Plug-In . SVG Version: 6.00 Build 0)  -->
<svg version="1.1" id="Layer_1" xmlns="http://www.w3.org/2000/svg" xmlns:xlink="http://www.w3.org/1999/xlink" x="0px" y="0px"
	 viewBox="0 0 470 554.5" style="enable-background:new 0 0 470 554.5;" xml:space="preserve">
<style type="text/css">
	.st0{fill:#1D3254;}
	.st1{fill:#FFFFFF;}
	.st2{fill:#FFFFFF;stroke:#1D3254;stroke-width:2;stroke-miterlimit:10;}
	.st3{fill:#0C2426;stroke:#1D3254;stroke-linecap:round;stroke-linejoin:round;}
	.st4{fill:#0C2426;}
	.st5{fill:#665673;stroke:#1D3254;stroke-linecap:round;stroke-linejoin:round;}
	.st6{fill:#665673;}
	.st7{fill:#3DDAC9;stroke:#1D3254;stroke-linecap:round;stroke-linejoin:round;}
	.st8{fill:#3DDAC9;}
	.st9{fill:#3DD9D8;stroke:#1D3254;stroke-linecap:round;stroke-linejoin:round;}
	.st10{fill:#3DD9D8;}
	.st11{fill:#C9F3F2;stroke:#1D3254;stroke-linecap:round;stroke-linejoin:round;}
	.st12{fill:#C9F3F2;}
	.st13{fill:#F3EDD3;stroke:#1D3254;stroke-linecap:round;stroke-linejoin:round;}
	.st14{fill:#F3EDD3;stroke:#1D3254;stroke-width:2;stroke-linecap:round;stroke-linejoin:round;}
	.st15{fill:#FFFFFF;stroke:#1D3254;stroke-linecap:round;stroke-linejoin:round;}
	.st16{fill:none;stroke:#FFBFAD;stroke-linecap:round;stroke-linejoin:round;}
</style>
<g>
	<rect x="3.8" y="58.5" class="st0" width="466.2" height="496"/>
</g>
<g>
	<rect x="0.5" y="55" class="st1" width="465.2" height="495"/>
	<path class="st0" d="M465.2,55.5v494H1v-494H465.2 M466.2,54.5H0v496h466.2V54.5L466.2,54.5z"/>
</g>
<g>
	<g>
		<g>
			<path class="st2" d="M134.1,137.5H27.2c-4.4,0-8,3.6-8,8v145c0,4.4,3.6,8,8,8h106.9c4.4,0,8-3.6,8-8v-145
				C142.1,141.1,138.6,137.5,134.1,137.5z"/>
			<path class="st3" d="M117.5,205.9c-0.3-9.9-7.2-17.9-16.1-19.1c-0.8-0.1-1.5-0.2-2.3-0.2c-10.2,0-18.4,8.9-18.4,20
				c0-11-8.2-20-18.4-20c-0.8,0-1.5,0.1-2.3,0.2c-8.9,1.2-15.8,9.2-16.1,19.1c0,0.2,0,0.5,0,0.7c0,4.1,1.1,8,3.3,11.4
				c10.8,19,33.5,31.2,33.5,31.2s22.7-12.2,33.5-31.2c2.2-3.4,3.4-7.4,3.3-11.4C117.5,206.4,117.5,206.2,117.5,205.9z"/>
			<path class="st4" d="M46.3,153.6c0-0.9-0.3-1.8-0.9-2.5c-0.6-0.7-1.4-1.1-2.3-1.3c-0.2,0-0.3,0-0.5,0c-1,0-2,0.5-2.7,1.2
				s-1.1,1.7-1,2.7c0-1-0.3-2-1-2.7s-1.7-1.2-2.7-1.2c-0.2,0-0.3,0-0.5,0c-0.9,0.2-1.7,0.6-2.3,1.3c-0.6,0.7-0.9,1.6-0.9,2.5l0,0
				v0.1c0,0.8,0.2,1.6,0.7,2.3c1.7,2.5,4,4.7,6.7,6.1c2.7-1.5,5-3.6,6.7-6.1c0.5-0.7,0.7-1.5,0.7-2.3V153.6z"/>
			<path class="st4" d="M115.1,282.5c0,0.9,0.3,1.8,0.9,2.5s1.4,1.1,2.3,1.3h0.5c1,0,2-0.5,2.7-1.2s1.1-1.7,1-2.7c0,1,0.3,2,1,2.7
				s1.7,1.2,2.7,1.2h0.5c0.9-0.2,1.7-0.6,2.3-1.3c0.6-0.7,0.9-1.6,0.9-2.5l0,0v-0.1c0-0.8-0.2-1.6-0.7-2.3c-1.7-2.5-4-4.7-6.7-6.1
				c-2.7,1.5-5,3.6-6.7,6.1c-0.4,0.7-0.7,1.5-0.7,2.3L115.1,282.5z"/>
			<path class="st0" d="M55.3,310.5l-0.5,2.6H57v1.1h-2.4l-0.7,3.3h-1.1l0.7-3.3h-2.3l-0.6,3.3h-1.1l0.6-3.3h-2v-1.1h2.2l0.5-2.6
				h-2.1v-1.1H51l0.6-3.4h1.2l-0.6,3.4h2.3l0.6-3.4h1.1l-0.6,3.4h2v1.1H55.3z M51.4,313.1h2.3l0.5-2.6h-2.3L51.4,313.1z M66.3,311.8
				c0,1.2-0.1,2.3-0.4,3.2c-0.3,0.9-0.7,1.5-1.2,2c-0.6,0.5-1.3,0.7-2.2,0.7c-1.3,0-2.2-0.5-2.9-1.6c-0.6-1-0.9-2.5-0.9-4.3
				c0-1.2,0.1-2.3,0.4-3.2c0.3-0.9,0.7-1.5,1.2-2c0.6-0.5,1.3-0.7,2.2-0.7c1.3,0,2.2,0.5,2.9,1.6C66,308.5,66.3,309.9,66.3,311.8z
				 M60.1,311.8c0,1.6,0.2,2.7,0.5,3.5c0.4,0.8,1,1.2,1.8,1.2c0.9,0,1.5-0.4,1.8-1.2c0.4-0.8,0.6-2,0.6-3.5c0-1.6-0.2-2.7-0.6-3.5
				s-1-1.2-1.8-1.2c-0.9,0-1.5,0.4-1.8,1.2C60.3,309,60.1,310.2,60.1,311.8z M73.6,307.2c-1.2,0-2.2,0.4-2.9,1.2
				c-0.7,0.8-1.1,1.9-1.1,3.4c0,1.4,0.3,2.5,1,3.4c0.7,0.8,1.6,1.2,3,1.2c0.5,0,1,0,1.4-0.1s0.9-0.2,1.3-0.3v1.2
				c-0.4,0.2-0.9,0.3-1.3,0.4s-1,0.1-1.6,0.1c-1.2,0-2.1-0.2-2.9-0.7s-1.4-1.2-1.8-2c-0.4-0.9-0.6-1.9-0.6-3.1s0.2-2.2,0.6-3
				c0.4-0.9,1.1-1.6,1.9-2.1s1.8-0.8,3-0.8s2.3,0.2,3.2,0.7l-0.6,1.2c-0.4-0.2-0.7-0.3-1.2-0.4C74.5,307.2,74.1,307.2,73.6,307.2z
				 M85.5,317.5H78v-1.2l3-3c0.6-0.6,1.1-1.1,1.5-1.5s0.7-0.9,0.9-1.3c0.2-0.4,0.3-0.9,0.3-1.4c0-0.6-0.2-1.1-0.6-1.4
				s-0.9-0.5-1.5-0.5s-1,0.1-1.5,0.3c-0.4,0.2-0.8,0.5-1.3,0.8l-0.8-0.9c0.4-0.4,1-0.7,1.5-0.9c0.6-0.3,1.2-0.4,2-0.4
				c1.1,0,1.9,0.3,2.5,0.8s0.9,1.3,0.9,2.2c0,0.6-0.1,1.2-0.4,1.7c-0.2,0.5-0.6,1-1,1.6c-0.4,0.5-0.9,1-1.5,1.6l-2.4,2.4v0.1h5.8
				L85.5,317.5L85.5,317.5z M95.2,314.9h-1.7v2.6h-1.4v-2.6h-5.5v-1.2L92,306h1.5v7.6h1.7V314.9z M92.2,310c0-0.6,0-1,0-1.4
				s0-0.8,0-1.1h-0.1c-0.1,0.2-0.2,0.4-0.3,0.7c-0.1,0.2-0.3,0.4-0.4,0.6l-3.4,4.9h4.1V310H92.2z M103.9,317.5h-7.6v-1.2l3-3
				c0.6-0.6,1.1-1.1,1.5-1.5s0.7-0.9,0.9-1.3c0.2-0.4,0.3-0.9,0.3-1.4c0-0.6-0.2-1.1-0.6-1.4s-0.9-0.5-1.5-0.5s-1,0.1-1.5,0.3
				c-0.4,0.2-0.8,0.5-1.3,0.8l-0.8-0.9c0.4-0.4,1-0.7,1.5-0.9c0.6-0.3,1.2-0.4,2-0.4c1.1,0,1.9,0.3,2.5,0.8s0.9,1.3,0.9,2.2
				c0,0.6-0.1,1.2-0.4,1.7c-0.2,0.5-0.6,1-1,1.6c-0.4,0.5-0.9,1-1.5,1.6l-2.4,2.4v0.1h5.8v1H103.9z M105.6,312.6
				c0-0.8,0.1-1.6,0.2-2.4s0.4-1.5,0.8-2.2s0.9-1.2,1.6-1.6s1.6-0.6,2.6-0.6c0.2,0,0.5,0,0.7,0c0.3,0,0.5,0.1,0.7,0.1v1.2
				c-0.2-0.1-0.4-0.1-0.7-0.1c-0.2,0-0.5,0-0.7,0c-0.7,0-1.3,0.1-1.8,0.4c-0.5,0.2-0.9,0.6-1.2,1c-0.3,0.4-0.5,0.9-0.6,1.5
				s-0.2,1.1-0.2,1.8h0.1c0.2-0.4,0.6-0.7,1-0.9c0.4-0.3,1-0.4,1.7-0.4c1,0,1.8,0.3,2.4,0.9s0.9,1.5,0.9,2.6c0,1.2-0.3,2.1-1,2.8
				c-0.7,0.7-1.5,1-2.6,1c-0.7,0-1.4-0.2-2-0.5c-0.6-0.4-1.1-0.9-1.4-1.7C105.7,314.7,105.6,313.8,105.6,312.6z M109.4,316.5
				c0.7,0,1.2-0.2,1.6-0.6s0.6-1.1,0.6-2c0-0.7-0.2-1.3-0.6-1.7c-0.4-0.4-0.9-0.6-1.6-0.6c-0.5,0-0.9,0.1-1.3,0.3
				c-0.4,0.2-0.7,0.5-0.9,0.8c-0.2,0.3-0.3,0.7-0.3,1c0,0.5,0.1,0.9,0.3,1.4c0.2,0.4,0.5,0.8,0.8,1.1
				C108.4,316.3,108.9,316.5,109.4,316.5z"/>
		</g>
		<g>
			<path class="st2" d="M288.6,138H181.7c-4.4,0-8,3.6-8,8v145c0,4.4,3.6,8,8,8h106.9c4.4,0,8-3.6,8-8V146
				C296.6,141.6,293.1,138,288.6,138z"/>
			<path class="st5" d="M272,206.4c-0.3-9.9-7.2-17.9-16.1-19.1c-0.8-0.1-1.5-0.2-2.3-0.2c-10.2,0-18.4,8.9-18.4,20
				c0-11-8.2-20-18.4-20c-0.8,0-1.5,0.1-2.3,0.2c-8.9,1.2-15.8,9.2-16.1,19.1c0,0.2,0,0.5,0,0.7c0,4.1,1.1,8,3.3,11.4
				c10.8,19,33.5,31.2,33.5,31.2s22.7-12.2,33.5-31.2c2.2-3.4,3.4-7.4,3.3-11.4C272,206.9,272,206.7,272,206.4z"/>
			<path class="st6" d="M200.8,154.1c0-0.9-0.3-1.8-0.9-2.5c-0.6-0.7-1.4-1.1-2.3-1.3c-0.2,0-0.3,0-0.5,0c-1,0-2,0.5-2.7,1.2
				s-1.1,1.7-1,2.7c0-1-0.3-2-1-2.7s-1.7-1.2-2.7-1.2c-0.2,0-0.3,0-0.5,0c-0.9,0.2-1.7,0.6-2.3,1.3s-0.9,1.6-0.9,2.5l0,0v0.1
				c0,0.8,0.2,1.6,0.7,2.3c1.7,2.5,4,4.7,6.7,6.1c2.7-1.5,5-3.6,6.7-6.1c0.5-0.7,0.7-1.5,0.7-2.3V154.1z"/>
			<path class="st6" d="M269.6,283c0,0.9,0.3,1.8,0.9,2.5s1.4,1.1,2.3,1.3h0.5c1,0,2-0.5,2.7-1.2s1.1-1.7,1-2.7c0,1,0.3,2,1,2.7
				s1.7,1.2,2.7,1.2h0.5c0.9-0.2,1.7-0.6,2.3-1.3c0.6-0.7,0.9-1.6,0.9-2.5l0,0v-0.1c0-0.8-0.2-1.6-0.7-2.3c-1.7-2.5-4-4.7-6.7-6.1
				c-2.7,1.5-5,3.6-6.7,6.1c-0.4,0.7-0.7,1.5-0.7,2.3L269.6,283z"/>
			<path class="st0" d="M210.8,311l-0.5,2.6h2.2v1.1h-2.4l-0.7,3.3h-1.1l0.7-3.3h-2.3L206,318h-1.1l0.6-3.3h-2v-1.1h2.2l0.5-2.6
				h-2.1v-1h2.3l0.6-3.4h1.2l-0.6,3.4h2.3l0.6-3.4h1.1L211,310h2v1.1h-2.2V311z M206.8,313.6h2.3l0.5-2.6h-2.3L206.8,313.6z
				 M214.3,313.1c0-0.8,0.1-1.6,0.2-2.4c0.1-0.8,0.4-1.5,0.8-2.2c0.4-0.7,0.9-1.2,1.6-1.6c0.7-0.4,1.6-0.6,2.6-0.6
				c0.2,0,0.5,0,0.7,0c0.3,0,0.5,0.1,0.7,0.1v1.2c-0.2-0.1-0.4-0.1-0.7-0.1c-0.2,0-0.5,0-0.7,0c-0.7,0-1.3,0.1-1.8,0.4
				c-0.5,0.2-0.9,0.6-1.2,1s-0.5,0.9-0.6,1.5s-0.2,1.1-0.2,1.8h0.1c0.2-0.4,0.6-0.7,1-0.9c0.4-0.3,1-0.4,1.7-0.4
				c1,0,1.8,0.3,2.4,0.9c0.6,0.6,0.9,1.5,0.9,2.6c0,1.2-0.3,2.1-1,2.8c-0.7,0.7-1.5,1-2.6,1c-0.7,0-1.4-0.2-2-0.5
				c-0.6-0.4-1.1-0.9-1.4-1.7C214.5,315.2,214.3,314.3,214.3,313.1z M218.2,317c0.7,0,1.2-0.2,1.6-0.6c0.4-0.4,0.6-1.1,0.6-2
				c0-0.7-0.2-1.3-0.6-1.7c-0.4-0.4-0.9-0.6-1.6-0.6c-0.5,0-0.9,0.1-1.3,0.3c-0.4,0.2-0.7,0.5-0.9,0.8s-0.3,0.7-0.3,1
				c0,0.5,0.1,0.9,0.3,1.4c0.2,0.4,0.5,0.8,0.8,1.1C217.2,316.8,217.6,317,218.2,317z M223.5,313.1c0-0.8,0.1-1.6,0.2-2.4
				c0.1-0.8,0.4-1.5,0.8-2.2c0.4-0.7,0.9-1.2,1.6-1.6c0.7-0.4,1.6-0.6,2.6-0.6c0.2,0,0.5,0,0.7,0c0.3,0,0.5,0.1,0.7,0.1v1.2
				c-0.2-0.1-0.4-0.1-0.7-0.1c-0.2,0-0.5,0-0.7,0c-0.7,0-1.3,0.1-1.8,0.4c-0.5,0.2-0.9,0.6-1.2,1s-0.5,0.9-0.6,1.5s-0.2,1.1-0.2,1.8
				h0.1c0.2-0.4,0.6-0.7,1-0.9c0.4-0.3,1-0.4,1.7-0.4c1,0,1.8,0.3,2.4,0.9c0.6,0.6,0.9,1.5,0.9,2.6c0,1.2-0.3,2.1-1,2.8
				c-0.7,0.7-1.5,1-2.6,1c-0.7,0-1.4-0.2-2-0.5c-0.6-0.4-1.1-0.9-1.4-1.7C223.6,315.2,223.5,314.3,223.5,313.1z M227.3,317
				c0.7,0,1.2-0.2,1.6-0.6c0.4-0.4,0.6-1.1,0.6-2c0-0.7-0.2-1.3-0.6-1.7c-0.4-0.4-0.9-0.6-1.6-0.6c-0.5,0-0.9,0.1-1.3,0.3
				c-0.4,0.2-0.7,0.5-0.9,0.8s-0.3,0.7-0.3,1c0,0.5,0.1,0.9,0.3,1.4c0.2,0.4,0.5,0.8,0.8,1.1C226.3,316.8,226.8,317,227.3,317z
				 M236.1,311c1.2,0,2.1,0.3,2.8,0.9s1,1.4,1,2.5c0,1.2-0.4,2.1-1.1,2.8c-0.7,0.7-1.8,1-3.1,1c-0.6,0-1.1-0.1-1.7-0.2
				c-0.5-0.1-0.9-0.3-1.3-0.5v-1.3c0.4,0.2,0.8,0.4,1.4,0.6c0.6,0.1,1.1,0.2,1.6,0.2c0.8,0,1.5-0.2,2-0.6s0.8-1,0.8-1.9
				c0-0.7-0.2-1.3-0.7-1.7c-0.5-0.4-1.2-0.6-2.2-0.6c-0.3,0-0.6,0-1,0.1s-0.7,0.1-0.9,0.2L233,312l0.4-5.4h5.7v1.3h-4.5l-0.3,3.3
				c0.2,0,0.4-0.1,0.7-0.1C235.4,311,235.8,311,236.1,311z M241.8,313.1c0-0.8,0.1-1.6,0.2-2.4c0.1-0.8,0.4-1.5,0.8-2.2
				c0.4-0.7,0.9-1.2,1.6-1.6c0.7-0.4,1.6-0.6,2.6-0.6c0.2,0,0.5,0,0.7,0c0.3,0,0.5,0.1,0.7,0.1v1.2c-0.2-0.1-0.4-0.1-0.7-0.1
				c-0.2,0-0.5,0-0.7,0c-0.7,0-1.3,0.1-1.8,0.4c-0.5,0.2-0.9,0.6-1.2,1s-0.5,0.9-0.6,1.5s-0.2,1.1-0.2,1.8h0.1
				c0.2-0.4,0.6-0.7,1-0.9c0.4-0.3,1-0.4,1.7-0.4c1,0,1.8,0.3,2.4,0.9c0.6,0.6,0.9,1.5,0.9,2.6c0,1.2-0.3,2.1-1,2.8
				c-0.7,0.7-1.5,1-2.6,1c-0.7,0-1.4-0.2-2-0.5c-0.6-0.4-1.1-0.9-1.4-1.7C242,315.2,241.8,314.3,241.8,313.1z M245.7,317
				c0.7,0,1.2-0.2,1.6-0.6c0.4-0.4,0.6-1.1,0.6-2c0-0.7-0.2-1.3-0.6-1.7c-0.4-0.4-0.9-0.6-1.6-0.6c-0.5,0-0.9,0.1-1.3,0.3
				c-0.4,0.2-0.7,0.5-0.9,0.8s-0.3,0.7-0.3,1c0,0.5,0.1,0.9,0.3,1.4c0.2,0.4,0.5,0.8,0.8,1.1C244.7,316.8,245.1,317,245.7,317z
				 M252.2,318l4.7-10.1h-6.2v-1.3h7.7v1.1l-4.6,10.3H252.2z M267.1,309.2c0,0.8-0.2,1.4-0.6,1.8s-1,0.7-1.7,0.9v0.1
				c0.9,0.1,1.6,0.4,2,0.9s0.7,1.1,0.7,1.8c0,0.7-0.2,1.3-0.5,1.8s-0.8,0.9-1.4,1.2c-0.6,0.3-1.5,0.4-2.5,0.4c-0.6,0-1.2,0-1.7-0.1
				s-1-0.2-1.5-0.5v-1.3c0.5,0.2,1,0.4,1.6,0.6c0.6,0.1,1.1,0.2,1.6,0.2c1,0,1.8-0.2,2.2-0.6c0.5-0.4,0.7-1,0.7-1.7
				s-0.3-1.2-0.8-1.5c-0.6-0.3-1.3-0.5-2.4-0.5h-1.1v-1.2h1.1c0.9,0,1.6-0.2,2.1-0.6s0.7-0.9,0.7-1.6c0-0.6-0.2-1-0.6-1.3
				s-0.9-0.5-1.5-0.5s-1.1,0.1-1.6,0.3c-0.4,0.2-0.9,0.4-1.3,0.7l-0.7-1c0.4-0.3,0.9-0.6,1.5-0.8c0.6-0.2,1.3-0.4,2.1-0.4
				c1.2,0,2.1,0.3,2.7,0.8C266.8,307.7,267.1,308.4,267.1,309.2z"/>
		</g>
		<g>
			<path class="st2" d="M443.1,136.5H336.2c-4.4,0-8,3.6-8,8v145c0,4.4,3.6,8,8,8h106.9c4.4,0,8-3.6,8-8v-145
				C451.1,140.1,447.6,136.5,443.1,136.5z"/>
			<path class="st7" d="M426.5,204.9c-0.3-9.9-7.2-17.9-16.1-19.1c-0.8-0.1-1.5-0.2-2.3-0.2c-10.2,0-18.4,8.9-18.4,20
				c0-11-8.2-20-18.4-20c-0.8,0-1.5,0.1-2.3,0.2c-8.9,1.2-15.8,9.2-16.1,19.1c0,0.2,0,0.5,0,0.7c0,4.1,1.1,8,3.3,11.4
				c10.8,19,33.5,31.2,33.5,31.2s22.7-12.2,33.5-31.2c2.2-3.4,3.4-7.4,3.3-11.4C426.5,205.4,426.5,205.2,426.5,204.9z"/>
			<path class="st8" d="M355.3,152.6c0-0.9-0.3-1.8-0.9-2.5s-1.4-1.1-2.3-1.3c-0.2,0-0.3,0-0.5,0c-1,0-2,0.5-2.7,1.2s-1.1,1.7-1,2.7
				c0-1-0.3-2-1-2.7s-1.7-1.2-2.7-1.2c-0.2,0-0.3,0-0.5,0c-0.9,0.2-1.7,0.6-2.3,1.3c-0.6,0.7-0.9,1.6-0.9,2.5l0,0v0.1
				c0,0.8,0.2,1.6,0.7,2.3c1.7,2.5,4,4.7,6.7,6.1c2.7-1.5,5-3.6,6.7-6.1c0.5-0.7,0.7-1.5,0.7-2.3L355.3,152.6z"/>
			<path class="st8" d="M424.1,281.5c0,0.9,0.3,1.8,0.9,2.5s1.4,1.1,2.3,1.3h0.5c1,0,2-0.5,2.7-1.2s1.1-1.7,1-2.7c0,1,0.3,2,1,2.7
				s1.7,1.2,2.7,1.2h0.5c0.9-0.2,1.7-0.6,2.3-1.3c0.6-0.7,0.9-1.6,0.9-2.5l0,0v-0.1c0-0.8-0.2-1.6-0.7-2.3c-1.7-2.5-4-4.7-6.7-6.1
				c-2.7,1.5-5,3.6-6.7,6.1c-0.4,0.7-0.7,1.5-0.7,2.3L424.1,281.5z"/>
			<path class="st0" d="M363,309.5l-0.5,2.6h2.2v1.1h-2.4l-0.7,3.3h-1.1l0.7-3.3h-2.3l-0.6,3.3h-1.1l0.6-3.3h-2v-1.1h2.2l0.5-2.6
				h-2.1v-1.1h2.3l0.6-3.4h1.2l-0.6,3.4h2.3l0.6-3.4h1.1l-0.6,3.4h2v1.1H363z M359.1,312.1h2.3l0.5-2.6h-2.3L359.1,312.1z
				 M373.6,307.7c0,0.8-0.2,1.4-0.6,1.8s-1,0.7-1.7,0.9v0.1c0.9,0.1,1.6,0.4,2,0.9s0.7,1.1,0.7,1.8c0,0.7-0.2,1.3-0.5,1.8
				s-0.8,0.9-1.4,1.2c-0.6,0.3-1.5,0.4-2.5,0.4c-0.6,0-1.2,0-1.7-0.1s-1-0.2-1.5-0.5v-1.3c0.5,0.2,1,0.4,1.6,0.6
				c0.6,0.1,1.1,0.2,1.6,0.2c1,0,1.8-0.2,2.2-0.6c0.5-0.4,0.7-1,0.7-1.7s-0.3-1.2-0.8-1.5c-0.6-0.3-1.3-0.5-2.4-0.5h-1.1V310h1.1
				c0.9,0,1.6-0.2,2.1-0.6s0.7-0.9,0.7-1.6c0-0.6-0.2-1-0.6-1.3s-0.9-0.5-1.5-0.5s-1.1,0.1-1.6,0.3c-0.4,0.2-0.9,0.4-1.3,0.7l-0.7-1
				c0.4-0.3,0.9-0.6,1.5-0.8c0.6-0.2,1.3-0.4,2.1-0.4c1.2,0,2.1,0.3,2.7,0.8C373.3,306.2,373.6,306.9,373.6,307.7z M385.6,310.7
				c0,1.9-0.5,3.4-1.6,4.4c-1,1-2.5,1.5-4.4,1.5h-3.2v-11.4h3.5c1.2,0,2.1,0.2,3,0.6s1.5,1.1,2,1.9
				C385.3,308.4,385.6,309.4,385.6,310.7z M384,310.7c0-1.5-0.4-2.6-1.1-3.3c-0.7-0.7-1.8-1.1-3.2-1.1h-1.9v9h1.6
				C382.5,315.3,384,313.8,384,310.7z M397.3,310.7c0,1.9-0.5,3.4-1.6,4.4c-1,1-2.5,1.5-4.4,1.5h-3.2v-11.4h3.5c1.2,0,2.1,0.2,3,0.6
				c0.8,0.4,1.5,1.1,2,1.9C397,308.4,397.3,309.4,397.3,310.7z M395.7,310.7c0-1.5-0.4-2.6-1.1-3.3c-0.7-0.7-1.8-1.1-3.2-1.1h-1.9v9
				h1.6C394.2,315.3,395.7,313.8,395.7,310.7z M406.6,316.5l-1.4-3.5h-4.5l-1.4,3.5h-1.5l4.5-11.5h1.3l4.4,11.5H406.6z M403.6,308.2
				c0-0.1-0.1-0.2-0.2-0.5c-0.1-0.2-0.1-0.5-0.2-0.7s-0.1-0.4-0.2-0.6c-0.1,0.3-0.2,0.7-0.3,1c-0.1,0.3-0.2,0.6-0.2,0.7l-1.3,3.5
				h3.6L403.6,308.2z M414.3,306.2c-1.2,0-2.2,0.4-2.9,1.2c-0.7,0.8-1.1,1.9-1.1,3.4c0,1.4,0.3,2.5,1,3.4c0.7,0.8,1.6,1.2,3,1.2
				c0.5,0,1,0,1.4-0.1s0.9-0.2,1.3-0.3v1.2c-0.4,0.2-0.9,0.3-1.3,0.4s-1,0.1-1.6,0.1c-1.2,0-2.1-0.2-2.9-0.7s-1.4-1.2-1.8-2
				c-0.4-0.9-0.6-1.9-0.6-3.1s0.2-2.2,0.6-3c0.4-0.9,1.1-1.6,1.9-2.1s1.8-0.8,3-0.8s2.3,0.2,3.2,0.7l-0.6,1.2
				c-0.4-0.2-0.7-0.3-1.2-0.4C415.3,306.2,414.8,306.2,414.3,306.2z M426.3,310c0,0.8-0.1,1.6-0.2,2.4s-0.4,1.5-0.8,2.2
				c-0.4,0.6-0.9,1.2-1.6,1.5c-0.7,0.4-1.6,0.6-2.6,0.6c-0.2,0-0.5,0-0.8,0s-0.5-0.1-0.7-0.1v-1.2c0.4,0.1,0.9,0.2,1.4,0.2
				c0.7,0,1.4-0.1,1.8-0.4c0.5-0.2,0.9-0.6,1.2-1c0.3-0.4,0.5-0.9,0.6-1.5s0.2-1.2,0.2-1.8h-0.1c-0.2,0.4-0.6,0.7-1,0.9
				c-0.4,0.3-1,0.4-1.7,0.4c-1,0-1.8-0.3-2.4-0.9s-0.9-1.5-0.9-2.6c0-0.8,0.1-1.5,0.4-2.1s0.7-1,1.3-1.3c0.5-0.3,1.2-0.5,1.9-0.5
				c0.7,0,1.4,0.2,2,0.6s1.1,0.9,1.4,1.7C426.1,307.9,426.3,308.8,426.3,310z M422.4,306.1c-0.7,0-1.2,0.2-1.6,0.7
				c-0.4,0.4-0.6,1.1-0.6,2c0,0.7,0.2,1.3,0.5,1.7c0.4,0.4,0.9,0.6,1.7,0.6c0.5,0,1-0.1,1.3-0.3c0.4-0.2,0.7-0.5,0.9-0.8
				c0.2-0.3,0.3-0.7,0.3-1c0-0.5-0.1-0.9-0.3-1.4c-0.2-0.4-0.5-0.8-0.8-1.1C423.4,306.2,422.9,306.1,422.4,306.1z"/>
		</g>
	</g>
	<g>
		<g>
			<path class="st2" d="M211.6,338.5H104.7c-4.4,0-8,3.6-8,8v145c0,4.4,3.6,8,8,8h106.9c4.4,0,8-3.6,8-8v-145
				C219.6,342.1,216.1,338.5,211.6,338.5z"/>
			<path class="st9" d="M195,406.9c-0.3-9.9-7.2-17.9-16.1-19.1c-0.8-0.1-1.5-0.2-2.3-0.2c-10.2,0-18.4,8.9-18.4,20
				c0-11-8.2-20-18.4-20c-0.8,0-1.5,0.1-2.3,0.2c-8.9,1.2-15.8,9.2-16.1,19.1c0,0.2,0,0.5,0,0.7c0,4.1,1.1,8,3.3,11.4
				c10.8,19,33.5,31.2,33.5,31.2s22.7-12.2,33.5-31.2c2.2-3.4,3.4-7.4,3.3-11.4C195,407.4,195,407.2,195,406.9z"/>
			<path class="st10" d="M123.8,354.6c0-0.9-0.3-1.8-0.9-2.5s-1.4-1.1-2.3-1.3c-0.2,0-0.3,0-0.5,0c-1,0-2,0.5-2.7,1.2
				s-1.1,1.7-1,2.7c0-1-0.3-2-1-2.7s-1.7-1.2-2.7-1.2c-0.2,0-0.3,0-0.5,0c-0.9,0.2-1.7,0.6-2.3,1.3c-0.6,0.7-0.9,1.6-0.9,2.5l0,0
				v0.1c0,0.8,0.2,1.6,0.7,2.3c1.7,2.5,4,4.7,6.7,6.1c2.7-1.5,5-3.6,6.7-6.1c0.5-0.7,0.7-1.5,0.7-2.3L123.8,354.6z"/>
			<path class="st10" d="M192.6,483.5c0,0.9,0.3,1.8,0.9,2.5c0.6,0.7,1.4,1.1,2.3,1.3h0.5c1,0,2-0.5,2.7-1.2s1.1-1.7,1-2.7
				c0,1,0.3,2,1,2.7s1.7,1.2,2.7,1.2h0.5c0.9-0.2,1.7-0.6,2.3-1.3c0.6-0.7,0.9-1.6,0.9-2.5l0,0v-0.1c0-0.8-0.2-1.6-0.7-2.3
				c-1.7-2.5-4-4.7-6.7-6.1c-2.7,1.5-5,3.6-6.7,6.1c-0.4,0.7-0.7,1.5-0.7,2.3V483.5z"/>
			<path class="st0" d="M129.5,511.5l-0.5,2.6h2.2v1.1h-2.4l-0.7,3.3H127l0.7-3.3h-2.3l-0.6,3.3h-1.1l0.6-3.3h-2v-1.1h2.2l0.5-2.6
				h-2.1v-1.1h2.3l0.6-3.4h1.2l-0.6,3.4h2.3l0.6-3.4h1.1l-0.6,3.4h2v1.1L129.5,511.5L129.5,511.5z M125.6,514.1h2.3l0.5-2.6H126
				L125.6,514.1z M140,509.7c0,0.8-0.2,1.4-0.6,1.8c-0.4,0.4-1,0.7-1.7,0.9v0.1c0.9,0.1,1.6,0.4,2,0.9s0.7,1.1,0.7,1.8
				s-0.2,1.3-0.5,1.8s-0.8,0.9-1.4,1.2c-0.6,0.3-1.5,0.4-2.5,0.4c-0.6,0-1.2,0-1.7-0.1s-1-0.2-1.5-0.5v-1.3c0.5,0.2,1,0.4,1.6,0.6
				c0.6,0.1,1.1,0.2,1.6,0.2c1,0,1.8-0.2,2.2-0.6c0.5-0.4,0.7-1,0.7-1.7s-0.3-1.2-0.8-1.5c-0.6-0.3-1.3-0.5-2.4-0.5h-1.1V512h1.1
				c0.9,0,1.6-0.2,2.1-0.6s0.7-0.9,0.7-1.6c0-0.6-0.2-1-0.6-1.3c-0.4-0.3-0.9-0.5-1.5-0.5s-1.1,0.1-1.6,0.3
				c-0.4,0.2-0.9,0.4-1.3,0.7l-0.7-1c0.4-0.3,0.9-0.6,1.5-0.8c0.6-0.2,1.3-0.4,2.1-0.4c1.2,0,2.1,0.3,2.7,0.8
				C139.7,508.2,140,508.9,140,509.7z M152,512.7c0,1.9-0.5,3.4-1.6,4.4c-1,1-2.5,1.5-4.4,1.5h-3.2v-11.4h3.5c1.2,0,2.1,0.2,3,0.6
				c0.8,0.4,1.5,1.1,2,1.9C151.8,510.4,152,511.4,152,512.7z M150.5,512.7c0-1.5-0.4-2.6-1.1-3.3c-0.7-0.7-1.8-1.1-3.2-1.1h-1.9v9
				h1.6C148.9,517.3,150.5,515.8,150.5,512.7z M163.7,512.7c0,1.9-0.5,3.4-1.6,4.4c-1,1-2.5,1.5-4.4,1.5h-3.2v-11.4h3.5
				c1.2,0,2.1,0.2,3,0.6c0.8,0.4,1.5,1.1,2,1.9C163.5,510.4,163.7,511.4,163.7,512.7z M162.2,512.7c0-1.5-0.4-2.6-1.1-3.3
				c-0.7-0.7-1.8-1.1-3.2-1.1H156v9h1.6C160.6,517.3,162.2,515.8,162.2,512.7z M173,512c0,0.8-0.1,1.6-0.2,2.4
				c-0.1,0.8-0.4,1.5-0.8,2.2c-0.4,0.6-0.9,1.2-1.6,1.5c-0.7,0.4-1.6,0.6-2.6,0.6c-0.2,0-0.5,0-0.8,0s-0.5-0.1-0.7-0.1v-1.2
				c0.4,0.1,0.9,0.2,1.4,0.2c0.7,0,1.4-0.1,1.8-0.4c0.5-0.2,0.9-0.6,1.2-1s0.5-0.9,0.6-1.5s0.2-1.2,0.2-1.8h-0.1
				c-0.2,0.4-0.6,0.7-1,0.9c-0.4,0.3-1,0.4-1.7,0.4c-1,0-1.8-0.3-2.4-0.9c-0.6-0.6-0.9-1.5-0.9-2.6c0-0.8,0.1-1.5,0.4-2.1
				c0.3-0.6,0.7-1,1.3-1.3c0.5-0.3,1.2-0.5,1.9-0.5s1.4,0.2,2,0.6s1.1,0.9,1.4,1.7C172.8,509.9,173,510.8,173,512z M169.1,508.1
				c-0.7,0-1.2,0.2-1.6,0.7c-0.4,0.4-0.6,1.1-0.6,2c0,0.7,0.2,1.3,0.5,1.7c0.4,0.4,0.9,0.6,1.7,0.6c0.5,0,1-0.1,1.3-0.3
				c0.4-0.2,0.7-0.5,0.9-0.8s0.3-0.7,0.3-1c0-0.5-0.1-0.9-0.3-1.4c-0.2-0.4-0.5-0.8-0.8-1.1C170.1,508.2,169.7,508.1,169.1,508.1z
				 M184.5,512.7c0,1.9-0.5,3.4-1.6,4.4c-1,1-2.5,1.5-4.4,1.5h-3.2v-11.4h3.5c1.2,0,2.1,0.2,3,0.6c0.8,0.4,1.5,1.1,2,1.9
				C184.3,510.4,184.5,511.4,184.5,512.7z M183,512.7c0-1.5-0.4-2.6-1.1-3.3c-0.7-0.7-1.8-1.1-3.2-1.1h-1.9v9h1.6
				C181.5,517.3,183,515.8,183,512.7z M190.1,506.9c1,0,1.8,0.2,2.5,0.7s1,1.1,1,2c0,0.5-0.1,0.9-0.3,1.2c-0.2,0.3-0.5,0.6-0.8,0.9
				s-0.7,0.5-1.1,0.7c0.5,0.2,0.9,0.5,1.3,0.8c0.4,0.3,0.7,0.6,0.9,1s0.4,0.8,0.4,1.3c0,1-0.3,1.7-1,2.3s-1.6,0.8-2.7,0.8
				c-1.2,0-2.2-0.3-2.8-0.8c-0.7-0.5-1-1.3-1-2.3c0-0.5,0.1-1,0.3-1.4s0.5-0.7,0.9-1s0.8-0.5,1.2-0.7c-0.6-0.3-1-0.7-1.4-1.2
				s-0.6-1-0.6-1.7c0-0.6,0.1-1.1,0.4-1.5c0.3-0.4,0.7-0.7,1.2-0.9C188.8,507,189.4,506.9,190.1,506.9z M190.1,508.1
				c-0.6,0-1.1,0.1-1.5,0.4s-0.6,0.7-0.6,1.2c0,0.4,0.1,0.7,0.3,1s0.4,0.5,0.8,0.7c0.3,0.2,0.7,0.4,1.1,0.5c0.6-0.2,1-0.5,1.4-0.8
				s0.6-0.8,0.6-1.4c0-0.5-0.2-0.9-0.6-1.2S190.7,508.1,190.1,508.1z M187.7,515.6c0,0.6,0.2,1,0.6,1.4c0.4,0.4,1,0.5,1.8,0.5
				s1.4-0.2,1.8-0.5c0.4-0.4,0.6-0.9,0.6-1.4c0-0.6-0.2-1-0.7-1.4c-0.4-0.4-1-0.7-1.7-1l-0.3-0.1c-0.7,0.3-1.2,0.6-1.6,1
				C187.9,514.5,187.7,515,187.7,515.6z"/>
		</g>
		<g>
			<path class="st2" d="M365.6,338.5H258.7c-4.4,0-8,3.6-8,8v145c0,4.4,3.6,8,8,8h106.9c4.4,0,8-3.6,8-8v-145
				C373.6,342.1,370.1,338.5,365.6,338.5z"/>
			<path class="st11" d="M349,406.9c-0.3-9.9-7.2-17.9-16.1-19.1c-0.8-0.1-1.5-0.2-2.3-0.2c-10.2,0-18.4,8.9-18.4,20
				c0-11-8.2-20-18.4-20c-0.8,0-1.5,0.1-2.3,0.2c-8.9,1.2-15.8,9.2-16.1,19.1c0,0.2,0,0.5,0,0.7c0,4.1,1.1,8,3.3,11.4
				c10.8,19,33.5,31.2,33.5,31.2s22.7-12.2,33.5-31.2c2.2-3.4,3.4-7.4,3.3-11.4C349,407.4,349,407.2,349,406.9z"/>
			<path class="st12" d="M277.8,354.6c0-0.9-0.3-1.8-0.9-2.5s-1.4-1.1-2.3-1.3c-0.2,0-0.3,0-0.5,0c-1,0-2,0.5-2.7,1.2
				s-1.1,1.7-1,2.7c0-1-0.3-2-1-2.7s-1.7-1.2-2.7-1.2c-0.2,0-0.3,0-0.5,0c-0.9,0.2-1.7,0.6-2.3,1.3c-0.6,0.7-0.9,1.6-0.9,2.5l0,0
				v0.1c0,0.8,0.2,1.6,0.7,2.3c1.7,2.5,4,4.7,6.7,6.1c2.7-1.5,5-3.6,6.7-6.1c0.5-0.7,0.7-1.5,0.7-2.3L277.8,354.6z"/>
			<path class="st12" d="M346.6,483.5c0,0.9,0.3,1.8,0.9,2.5s1.4,1.1,2.3,1.3h0.5c1,0,2-0.5,2.7-1.2s1.1-1.7,1-2.7c0,1,0.3,2,1,2.7
				s1.7,1.2,2.7,1.2h0.5c0.9-0.2,1.7-0.6,2.3-1.3c0.6-0.7,0.9-1.6,0.9-2.5l0,0v-0.1c0-0.8-0.2-1.6-0.7-2.3c-1.7-2.5-4-4.7-6.7-6.1
				c-2.7,1.5-5,3.6-6.7,6.1c-0.4,0.7-0.7,1.5-0.7,2.3L346.6,483.5z"/>
			<path class="st0" d="M287.7,511.5l-0.5,2.6h2.2v1.1H287l-0.7,3.3h-1.1l0.7-3.3h-2.3l-0.6,3.3h-1.1l0.6-3.3h-2v-1.1h2.2l0.5-2.6
				H281v-1.1h2.3l0.6-3.4h1.2l-0.6,3.4h2.3l0.6-3.4h1.1l-0.6,3.4h2v1.1L287.7,511.5L287.7,511.5z M283.7,514.1h2.3l0.5-2.6h-2.3
				L283.7,514.1z M296.8,508.2c-1.2,0-2.2,0.4-2.9,1.2c-0.7,0.8-1.1,1.9-1.1,3.4c0,1.4,0.3,2.5,1,3.4c0.7,0.8,1.6,1.2,3,1.2
				c0.5,0,1,0,1.4-0.1s0.9-0.2,1.3-0.3v1.2c-0.4,0.2-0.9,0.3-1.3,0.4c-0.4,0.1-1,0.1-1.6,0.1c-1.2,0-2.1-0.2-2.9-0.7s-1.4-1.2-1.8-2
				c-0.4-0.9-0.6-1.9-0.6-3.1c0-1.2,0.2-2.2,0.6-3c0.4-0.9,1.1-1.6,1.9-2.1s1.8-0.8,3-0.8s2.3,0.2,3.2,0.7l-0.6,1.2
				c-0.4-0.2-0.7-0.3-1.2-0.4C297.7,508.2,297.3,508.2,296.8,508.2z M308.7,512c0,0.8-0.1,1.6-0.2,2.4c-0.1,0.8-0.4,1.5-0.8,2.2
				c-0.4,0.6-0.9,1.2-1.6,1.5c-0.7,0.4-1.6,0.6-2.6,0.6c-0.2,0-0.5,0-0.8,0s-0.5-0.1-0.7-0.1v-1.2c0.4,0.1,0.9,0.2,1.4,0.2
				c0.7,0,1.4-0.1,1.8-0.4c0.5-0.2,0.9-0.6,1.2-1c0.3-0.4,0.5-0.9,0.6-1.5s0.2-1.2,0.2-1.8h-0.1c-0.2,0.4-0.6,0.7-1,0.9
				c-0.4,0.3-1,0.4-1.7,0.4c-1,0-1.8-0.3-2.4-0.9c-0.6-0.6-0.9-1.5-0.9-2.6c0-0.8,0.1-1.5,0.4-2.1s0.7-1,1.3-1.3
				c0.5-0.3,1.2-0.5,1.9-0.5c0.7,0,1.4,0.2,2,0.6s1.1,0.9,1.4,1.7C308.6,509.9,308.7,510.8,308.7,512z M304.9,508.1
				c-0.7,0-1.2,0.2-1.6,0.7c-0.4,0.4-0.6,1.1-0.6,2c0,0.7,0.2,1.3,0.5,1.7c0.4,0.4,0.9,0.6,1.7,0.6c0.5,0,1-0.1,1.3-0.3
				c0.4-0.2,0.7-0.5,0.9-0.8c0.2-0.3,0.3-0.7,0.3-1c0-0.5-0.1-0.9-0.3-1.4s-0.5-0.8-0.8-1.1C305.9,508.2,305.4,508.1,304.9,508.1z
				 M312.6,518.5h-1.4v-11.4h6.4v1.3h-4.9v4h4.6v1.3h-4.6v4.8H312.6z M325.8,509.7c0,0.8-0.2,1.4-0.6,1.8s-1,0.7-1.7,0.9v0.1
				c0.9,0.1,1.6,0.4,2,0.9s0.7,1.1,0.7,1.8s-0.2,1.3-0.5,1.8s-0.8,0.9-1.4,1.2s-1.5,0.4-2.5,0.4c-0.6,0-1.2,0-1.7-0.1
				s-1-0.2-1.5-0.5v-1.3c0.5,0.2,1,0.4,1.6,0.6c0.6,0.1,1.1,0.2,1.6,0.2c1,0,1.8-0.2,2.2-0.6c0.5-0.4,0.7-1,0.7-1.7
				s-0.3-1.2-0.8-1.5c-0.6-0.3-1.3-0.5-2.4-0.5h-1.1V512h1.1c0.9,0,1.6-0.2,2.1-0.6s0.7-0.9,0.7-1.6c0-0.6-0.2-1-0.6-1.3
				s-0.9-0.5-1.5-0.5s-1.1,0.1-1.6,0.3c-0.4,0.2-0.9,0.4-1.3,0.7l-0.7-1c0.4-0.3,0.9-0.6,1.5-0.8c0.6-0.2,1.3-0.4,2.1-0.4
				c1.2,0,2.1,0.3,2.7,0.8C325.5,508.2,325.8,508.9,325.8,509.7z M330,518.5h-1.4v-11.4h6.4v1.3h-5v4h4.6v1.3H330V518.5z
				 M343.7,518.5h-7.6v-1.2l3-3c0.6-0.6,1.1-1.1,1.5-1.5s0.7-0.9,0.9-1.3c0.2-0.4,0.3-0.9,0.3-1.4c0-0.6-0.2-1.1-0.6-1.4
				s-0.9-0.5-1.5-0.5s-1,0.1-1.5,0.3c-0.4,0.2-0.8,0.5-1.3,0.8l-0.8-0.9c0.4-0.4,1-0.7,1.5-0.9c0.6-0.3,1.2-0.4,2-0.4
				c1.1,0,1.9,0.3,2.5,0.8s0.9,1.3,0.9,2.2c0,0.6-0.1,1.2-0.4,1.7c-0.2,0.5-0.6,1-1,1.6c-0.4,0.5-0.9,1-1.5,1.6l-2.4,2.4v0.1h5.8v1
				H343.7z"/>
		</g>
	</g>
</g>
<g>
	<path class="st13" d="M230.8,11.4l2.1-2.1C233,9.2,233,9.1,233,9s0.1-0.2,0.1-0.3s0-0.2-0.1-0.3s-0.1-0.2-0.2-0.3L230.7,6l-0.1-0.1
		V5.6c0,0,0.1,0,0.1-0.1l2.1-2.1c0.1-0.1,0.1-0.2,0.2-0.3s0.1-0.2,0.1-0.3s0-0.2-0.1-0.3s-0.1-0.2-0.2-0.3L231,0.4h-87.4l-1.8,1.8
		c-0.1,0.1-0.2,0.3-0.2,0.5s0.1,0.4,0.2,0.5l2.1,2.1c0,0,0,0,0.1,0V6c0,0,0,0-0.1,0.1l-2.1,2.1c-0.1,0.1-0.2,0.3-0.2,0.5
		s0.1,0.4,0.2,0.5l2.1,2.1c0,0,0,0,0.1,0v0.5h-0.1l-2.1,2.1c-0.1,0.1-0.2,0.3-0.2,0.5s0.1,0.4,0.2,0.5l2.1,2.1c0,0,0,0,0.1,0v0.5
		h-0.1l-2.1,2.1c-0.1,0.1-0.2,0.3-0.2,0.5s0.1,0.4,0.2,0.5l2.1,2.1h0.1v0.5c0,0-0.1,0-0.1,0.1l-2.1,2.1c-0.1,0.1-0.2,0.3-0.2,0.5
		s0.1,0.4,0.2,0.5L144,29c0,0,0,0,0.1,0v0.5H144l-2.1,2.1c-0.1,0.1-0.2,0.3-0.2,0.5c0,0.2,0.1,0.4,0.2,0.5l2.1,2.1c0,0,0,0,0.1,0
		v0.5H144l-2.1,2.1c-0.1,0.1-0.2,0.3-0.2,0.5s0.1,0.4,0.2,0.5l1.9,1.9H231l1.9-1.9c0.1-0.1,0.1-0.2,0.2-0.3c0-0.1,0.1-0.2,0.1-0.3
		s0-0.2-0.1-0.3c0-0.1-0.1-0.2-0.2-0.3l-2.1-2.1l-0.1-0.1v-0.4l0.1-0.1l2.1-2.1c0.1-0.1,0.1-0.2,0.2-0.3c0-0.1,0.1-0.2,0.1-0.3
		c0-0.1,0-0.2-0.1-0.3s-0.1-0.2-0.2-0.3l-2.1-2.1l-0.1-0.1v-0.4l0.1-0.1l2.1-2.1c0.1-0.1,0.1-0.2,0.2-0.3c0-0.1,0.1-0.2,0.1-0.3
		c0-0.1,0-0.2-0.1-0.3c0-0.1-0.1-0.2-0.2-0.3l-2.1-2.1l-0.1-0.1v-0.4c0,0,0.1,0,0.1-0.1l2.1-2.1c0.1-0.1,0.1-0.2,0.2-0.3
		c0-0.1,0.1-0.2,0.1-0.3c0-0.1,0-0.2-0.1-0.3c0-0.1-0.1-0.2-0.2-0.3l-2.1-2.1l-0.1-0.1v-0.4c0,0,0.1,0,0.1-0.1l2.1-2.1
		C233,15,233,15,233,14.9s0.1-0.2,0.1-0.3s0-0.2-0.1-0.3c0-0.1-0.1-0.2-0.2-0.3l-2.1-2.1l-0.1-0.1v-0.4
		C230.7,11.4,230.7,11.4,230.8,11.4z"/>
	<path class="st14" d="M302.5,27.7v-3.2c0-1.6-0.6-3.1-1.7-4.2s-2.6-1.8-4.1-1.8h-116c-1.6,0-3,0.6-4.1,1.8
		c-1.1,1.1-1.7,2.7-1.7,4.2v3.2c-6.9,0-13.6,2.8-18.5,7.8s-7.7,11.8-7.7,18.9s2.8,13.9,7.7,18.9s11.6,7.8,18.5,7.8v3.2
		c0,0.8,0.1,1.6,0.4,2.3c0.3,0.7,0.7,1.4,1.3,1.9c0.5,0.6,1.2,1,1.9,1.3s1.5,0.5,2.2,0.5h115.9c0.8,0,1.5-0.2,2.2-0.5
		s1.4-0.7,1.9-1.3c0.5-0.6,1-1.2,1.3-1.9c0.3-0.7,0.4-1.5,0.4-2.3v-3.2c6.9,0,13.6-2.8,18.5-7.8s7.7-11.8,7.7-18.9
		s-2.8-13.9-7.7-18.9C316.1,30.5,309.4,27.7,302.5,27.7L302.5,27.7z"/>
	<path class="st15" d="M180.7,84.8h-0.1c0,0-0.1,0-0.1-0.1c0,0,0-0.1-0.1-0.1v-0.1v-3.2c0-1.5-0.6-3-1.6-4s-2.5-1.7-3.9-1.7
		c-5.5,0-10.7-2.2-14.6-6.2c-3.9-4-6-9.3-6-14.9s2.2-11,6-14.9c3.9-4,9.1-6.2,14.6-6.2c1.5,0,2.9-0.6,3.9-1.7c1-1.1,1.6-2.5,1.6-4
		v-3.2c0-0.1,0-0.2,0.1-0.2s0.1-0.1,0.2-0.1h115.9c0.1,0,0.1,0,0.2,0.1s0.1,0.1,0.1,0.2v3.2c0,1.5,0.6,3,1.6,4
		c1,1.1,2.5,1.7,3.9,1.7c5.5,0,10.7,2.2,14.6,6.2s6,9.3,6,14.9s-2.2,11-6,14.9c-3.9,4-9.1,6.2-14.6,6.2c-1.5,0-2.9,0.6-3.9,1.7
		s-1.6,2.5-1.6,4v3.2v0.1c0,0,0,0.1-0.1,0.1s-0.1,0.1-0.1,0.1h-0.1H180.7z"/>
	<path class="st0" d="M215.8,51.6c-0.3-0.2-0.6-0.2-0.9-0.1c-0.4,0.1-1.4,0.2-2.8,0.3c-1.4,0.1-1.8,0.2-2,0.2s-0.1-0.8-0.3-2.3
		c-0.1-0.9-0.2-1.8-0.3-2.6c-0.1-0.6-0.4-0.7-0.7-0.7c-0.2,0-0.4,0-0.4,0.5s0,0.9,0,1.4c0.2,1.5,0.3,2.5,0.4,3
		c0.1,0.5,0.1,1,0.1,1.5c0,0.1-0.2,0.3,0.4,3.5c0.1,0.9,0.3,1.9,0.6,2.8c0,0.2,0.1,0.3,0.3,0.4c0.1,0.1,0.3,0.1,0.4,0.1
		c0.3,0,0.5,0,0.6-0.2s0.1-0.3-0.5-3.5c-0.1-0.5-0.2-1.1-0.3-1.6c0-0.2,0-0.4,0.1-0.5c0.1,0,0.4-0.3,2.9-0.5
		c2.8-0.3,2.8-0.5,2.8-0.7c0-0.1,0-0.3-0.1-0.4C216,51.8,215.9,51.7,215.8,51.6z"/>
	<path class="st0" d="M203.4,57c-1.9,1-3.4,1.4-4.3,1c-0.2-0.1-0.4-0.2-0.6-0.4c-0.2-0.2-0.3-0.4-0.4-0.6c-0.3-0.8-0.4-1.6-0.3-2.4
		c0.1-0.8,0.4-1.2,0.8-1.4c1.4-0.5,2.2-0.9,2.6-1.1c0.4-0.2,0.7-0.5,0.9-0.8c0.2-0.4,0.2-0.8,0.2-1.2s-0.1-0.8-0.2-1.2
		c-0.3-0.8-0.8-1.5-1.6-2c-0.6-0.3-1.2-0.4-1.8-0.5s-1.3,0-1.9,0.2c-0.2,0-0.4,0.2-0.4,0.7c0,0.1,0,0.2,0.1,0.3s0.1,0.2,0.3,0.2
		c0.4,0.1,0.7,0.1,1.1,0c0.6-0.1,1.2-0.1,1.8,0.1c0.3,0,0.6,0.3,0.9,0.8c0.3,0.4,0.5,0.9,0.5,1.4c0,0.2,0,0.3-0.1,0.5
		s-0.1,0.3-0.3,0.4c-0.4,0.3-0.8,0.5-1.3,0.6l-1.9,0.6l-1.1,0.5v1.7c0,0.8,0.1,1.7,0.3,2.5c0.1,0.6,0.4,1.2,0.8,1.8
		c0.3,0.4,0.8,0.7,1.3,0.9c0.2,0,0.4,0.1,0.6,0.1c0.7,0,1.3-0.2,2-0.4c1-0.3,1.9-0.7,2.8-1.3c0.6-0.4,0.9-0.7,1-1c0-0.1,0-0.1,0-0.2
		c0-0.1-0.1-0.1-0.1-0.2C204.9,56.4,204.7,56.3,203.4,57z"/>
	<path class="st0" d="M230.6,47.1c-0.2-1.7-0.4-2.1-0.7-2.1c-0.1,0-0.2,0-0.2,0.1c-0.1,0-0.1,0.1-0.2,0.2c-0.1,0.1-0.2,0.3-0.2,0.4
		c-0.1,1.2-0.1,2.4,0.1,3.6c0.1,1.6,0.3,4,0.4,7c0.1,1.8,0.1,2.9,0.2,3.4c0,0.2,0.1,0.8,0.5,0.8s0.6-0.1,0.7-0.3
		c0.1-1.6,0.1-3.3-0.1-4.9C230.9,51.1,230.7,48.4,230.6,47.1z"/>
	<path class="st0" d="M222.7,49.5c-0.2-0.3-0.4-0.6-0.6-0.9c-0.3-0.3-0.6-0.6-1-0.7c-0.3-0.1-0.7,0-1,0.1c-0.8,0.4-1.5,1.1-1.8,1.9
		c-0.5,1.4-0.7,2.8-0.8,4.3c-0.1,0.9-0.1,1.8,0,2.7c0.1,0.6,0.5,1.1,1,1.4c0.3,0.2,0.6,0.3,0.9,0.3c0.2,0,0.4,0,0.5-0.1
		c0.6-0.2,1.2-0.6,1.6-1.1c1.1-1.4,1.7-3.1,1.6-4.9c0-0.6,0-1.2-0.1-1.8C222.9,50.3,222.8,49.9,222.7,49.5z M221.9,52
		c0.1,1,0,1.9-0.3,2.9c-0.3,0.6-0.7,1.2-1.1,1.7c-0.7,0.7-1,0.8-1.1,0.8s-0.3,0-0.4-0.1c-0.1-0.1-0.2-0.2-0.2-0.3
		c-0.2-0.7-0.2-1.3-0.2-2c0-2.2,0.3-3.6,0.9-4.2c0.1-0.1,0.3-0.3,0.4-0.4s0.1-0.3,0.2-0.5c0-0.1,0-0.3,0.1-0.4c0,0,0,0,0.2,0
		s0.3,0,0.5,0.1c0.3,0,0.6,0.1,0.8,0.3C221.8,49.7,221.9,50.1,221.9,52z"/>
	<path class="st0" d="M235.7,45.5h0.3c0.9,0,1.7-0.1,2.6-0.2c0.7,0,1.4-0.2,2-0.6c0.1-0.1,0.3-0.2,0.3-0.3s0.1-0.1,0.1-0.2
		c0-0.1,0-0.1-0.1-0.2c-0.2-0.2-0.6-0.4-2.9,0c-0.7,0.1-1.3,0.2-2,0.1c-0.4-0.1-0.8,0-1.2,0.1c-0.5,0.2-0.6,0.5-0.6,0.7
		C234.2,45.2,234.6,45.5,235.7,45.5z"/>
	<path class="st0" d="M237.7,53.5c-0.3,0-0.6,0-0.9-0.1c-0.2,0-0.4-0.1-0.5-0.2c-0.1-0.1-0.2-0.2-0.2-0.4c-0.1-0.2-0.1-0.4-0.2-0.6
		c0-0.2,0-0.6,0-1.1s0-1,0.1-1.4c0-0.1,0.2-0.1,0.4-0.1c1.4,0,2.4,0,2.8-0.1c0.4-0.1,0.9-0.2,1-0.4c0.1-0.1,0.1-0.2,0.1-0.2
		c0-0.2-0.2-0.4-1.5-0.4c-0.8,0-1.6-0.1-2.5-0.2c-0.4-0.1-0.5-0.3-0.5-0.5c0-0.3,0.1-0.6,0.3-0.9c0.2-0.2,0.3-0.5,0.4-0.8
		c0-0.1,0-0.2-0.1-0.2c0-0.1-0.1-0.1-0.2-0.1c-0.3,0-0.7,0.1-1.1,0.5c-0.2,0.3-0.4,0.7-0.4,1.1c-0.1,0.9-0.2,1.8-0.2,2.7
		s0,1.8,0,2.7c0.1,0.4,0.2,0.9,0.4,1.2s0.4,0.6,0.7,0.7c0.3,0.1,0.7,0.1,1.1,0.1h0.4c3.9,0,4.5-0.5,4.6-0.9l-0.1-0.3
		c-0.1-0.1-0.2-0.3-2.7-0.1H237.7z"/>
	<path class="st0" d="M243.7,59.9c-0.3-0.1-0.5-0.1-0.8-0.1l-1.4-0.1c-0.6,0-1.4,0-2.4,0c-1.7,0-3.4,0-5.1-0.2
		c-0.1-0.1-0.3-0.1-0.5-0.1s-0.3,0-0.5,0.1s-0.3,0.2-0.4,0.3c-0.1,0.1-0.2,0.3-0.2,0.4c0,0.1,0,0.1,0,0.2c0,0.1,0.1,0.1,0.1,0.1
		c0.1,0.1,0.3,0.1,0.4,0.2c0.2,0.1,0.5,0.1,0.7,0.1c0.3,0,0.7,0,1.1,0.1c1.7,0.1,3.6,0.2,5.8,0.2h0.7c2.5,0,2.6-0.1,2.6-0.2v-0.6
		C244,60,243.7,59.9,243.7,59.9z"/>
	<path class="st0" d="M267.4,60.1c-0.1-0.1-0.2-0.1-0.3-0.1h-0.4h-0.6h-0.9H264h-3.1l-0.2-1c0-0.8-0.1-1.9-0.1-3.3
		c0-0.6,0-1.2-0.1-1.8c-0.1-0.4-0.2-0.6-0.4-0.6c-0.1,0-0.3,0-0.4,0.1s-0.2,0.2-0.3,0.3c-0.1,1.1-0.1,2.2,0,3.4l0.1,2.8L258,60
		c-0.8,0.1-1.5,0.1-2.3,0c-0.5-0.1-1-0.1-1.4,0.1c-0.2,0.1-0.4,0.2-0.5,0.3c-0.1,0.2-0.2,0.4-0.2,0.6c0,0.4,0.2,0.5,0.3,0.6
		c0.1,0,0.1,0,0.2,0c0.3,0,0.7-0.1,1-0.1c0.9-0.1,3.1-0.2,6.6-0.3c5.3-0.1,5.5-0.2,5.6-0.3s0.3-0.3,0.2-0.7
		C267.5,60.2,267.5,60.1,267.4,60.1z"/>
	<path class="st0" d="M256.4,51.6c0.1,0.2,0.2,0.4,0.3,0.5c0.2,0.1,0.4,0.2,0.6,0.2c0.1,0,0.3,0,0.4,0c4-1.2,4.7-1.3,4.8-1.2
		c0.1,0,0.2,0,0.3,0c0.1,0,0.2,0,0.2-0.1c0.1,0,0.1-0.1,0.2-0.2c0-0.1,0.1-0.2,0.1-0.2c0.2-0.8,0.3-1.7,0.3-2.6
		c0.2-1,0.1-1.9-0.2-2.9c-0.2-0.4-0.5-0.7-0.8-1s-0.7-0.5-1.1-0.6c-0.9-0.2-1.9-0.2-2.8,0.1c-1,0.4-1.3,0.5-1.3,0.7
		c-0.1,0.1-0.1,0.2-0.2,0.1l-0.1-0.1c0-0.1,0-0.1,0-0.2c0-0.1,0-0.2,0-0.3s-0.1-0.2-0.2-0.2c-0.1-0.1-0.2-0.1-0.3-0.1
		c-0.1,0-0.2,0-0.3,0.1c-0.1,0.1-0.2,0.1-0.2,0.2c-0.1,0.1-0.1,0.2-0.1,0.3c0,1.2,0,2.5,0.1,3.7C256,49.2,256.2,50.4,256.4,51.6z
		 M257,45.9c0.2,0.1,0.4,0.1,0.6,0s0.3-0.2,0.4-0.4s0.3-0.4,0.5-0.5s0.5-0.2,0.8-0.2c0.4,0,0.8,0,1.2,0c0.6,0,1.1,0.2,1.6,0.6
		c0.4,0.9,0.5,2,0.2,3c0,0.3-0.1,0.6-0.2,0.8s-0.3,0.3-0.5,0.4c-0.3,0.1-1,0.4-2.2,0.8c-0.6,0.2-1.2,0.4-1.9,0.6
		c-0.1-0.7-0.2-1.4-0.2-2.1C257.1,47.1,257,46.2,257,45.9C257,46,257,45.9,257,45.9L257,45.9z"/>
	<path class="st0" d="M271,46.8h0.3c-0.1,0.1-0.1,0.2-0.2,0.3c-0.3,0.8-0.5,1.6-0.5,2.5c-0.1,0.8-0.1,1.7,0.2,2.4
		c0.1,0.3,0.4,0.6,0.7,0.8c0.2,0.1,0.5,0.1,0.7,0.1c0.5,0,1.4,0,3-0.2c1.4-0.1,2.2-0.2,2.6-0.3s0.7-0.3,0.7-0.6c0-0.1,0-0.3-0.1-0.4
		s-0.2-0.2-0.3-0.3c-0.1-0.1-0.3-0.2-3.1,0.2c-1.1,0.2-1.9,0.3-2.2,0.3c-0.4,0-0.6-0.1-0.7-0.2s-0.3-0.4-0.3-1.6
		c0-0.8,0.2-1.5,0.5-2.2c0.1-0.3,0.3-0.5,0.5-0.7c0.3-0.1,0.6-0.2,0.9-0.3c0.9-0.1,1.8-0.3,2.6-0.6c0.7-0.3,1.1-0.6,1.1-0.9
		c0-0.1,0-0.1-0.1-0.2c-0.1-0.1-0.3-0.2-0.9-0.2c-0.7,0.1-1.5,0.2-2.2,0.3c-0.8,0.2-1.7,0.3-2.6,0.3c-0.3,0-0.7,0.1-1,0.2
		c-0.1,0-0.2,0.1-0.2,0.2s-0.1,0.2-0.1,0.3s0,0.2,0,0.3s0.1,0.2,0.2,0.2C270.7,46.7,270.9,46.8,271,46.8z"/>
	<path class="st0" d="M279.9,58.3c-0.5,0-1.8-0.1-4-0.1c-3.1,0-5-0.1-5.6-0.2c-0.6-0.1-1.1,0-1.4,0.2c-0.2,0.2-0.3,0.4-0.4,0.7
		c0,0.1,0.1,0.2,0.1,0.2c0.1,0.1,0.3,0.3,4.4,0.4c1.8,0,3.5,0,5.3,0.1c0.3,0,0.5,0,0.8,0s0.6,0,0.8-0.1c0.6-0.2,0.7-0.5,0.7-0.8
		C280.7,58.6,280.2,58.4,279.9,58.3z"/>
	<path class="st16" d="M180.2,69.1c34.2-4.2,68.5-6.1,102.9-5.6"/>
	<path class="st16" d="M194.3,71.2c34.1-4.8,68.4-7.2,102.8-7.2"/>
</g>
</svg>
