<?xml version="1.0" encoding="utf-8"?>
<!-- Generator: Adobe Illustrator 23.1.0, SVG Export Plug-In . SVG Version: 6.00 Build 0)  -->
<svg version="1.1" id="Layer_1" xmlns="http://www.w3.org/2000/svg" xmlns:xlink="http://www.w3.org/1999/xlink" x="0px" y="0px"
	 viewBox="0 0 219 522" style="enable-background:new 0 0 219 522;" xml:space="preserve">
<style type="text/css">
	.st0{fill:#1D3254;}
	.st1{fill:#FFFFFF;}
	.st2{clip-path:url(#SVGID_2_);}
	.st3{fill:#FFFFFF;stroke:#1D3254;stroke-width:2;stroke-linecap:round;stroke-linejoin:round;}
	.st4{fill:#EDEDED;stroke:#1D3254;stroke-linecap:round;stroke-linejoin:round;}
	.st5{fill:#FFFFFF;stroke:#1D3254;stroke-linecap:round;stroke-linejoin:round;}
	.st6{fill:#EDEDED;}
	.st7{fill:#F3EDD3;stroke:#1D3254;stroke-linecap:round;stroke-linejoin:round;}
	.st8{clip-path:url(#SVGID_4_);}
	.st9{fill:#E9C1A2;stroke:#1D3254;stroke-linecap:round;stroke-linejoin:round;}
	.st10{fill:#E9C1A2;}
	.st11{clip-path:url(#SVGID_6_);}
	.st12{fill:#1A6872;stroke:#1D3254;stroke-linecap:round;stroke-linejoin:round;}
	.st13{fill:#1A6872;}
	.st14{clip-path:url(#SVGID_8_);}
	.st15{fill:#A92121;stroke:#1D3254;stroke-linecap:round;stroke-linejoin:round;}
	.st16{fill:#A92121;}
</style>
<rect x="3" y="23" class="st0" width="216" height="499"/>
<g>
	<g>
		<rect x="1" y="21" class="st1" width="215.5" height="498.5"/>
		<path class="st0" d="M216,21.5V519H1.5V21.5H216 M217,20.5H0.5V520H217V20.5L217,20.5z"/>
	</g>
</g>
<g>
	<defs>
		<rect id="SVGID_3_" x="53.8" y="184" width="110" height="233"/>
	</defs>
	<clipPath id="SVGID_2_">
		<use xlink:href="#SVGID_3_"  style="overflow:visible;"/>
	</clipPath>
	<g class="st2">
		<path class="st3" d="M138.2,185.5H79.3c-1,0-1.8,0.8-1.8,1.8v7.3c0,1,0.8,1.8,1.8,1.8h58.9c1,0,1.8-0.8,1.8-1.8v-7.3
			C140,186.4,139.2,185.5,138.2,185.5z"/>
		<path class="st3" d="M138.2,404.5H79.3c-1,0-1.8,0.8-1.8,1.8v7.3c0,1,0.8,1.8,1.8,1.8h58.9c1,0,1.8-0.8,1.8-1.8v-7.3
			C140,405.4,139.2,404.5,138.2,404.5z"/>
		<path class="st3" d="M157.1,192H60.4c-2.9,0-5.2,2.3-5.2,5.2v206.7c0,2.9,2.3,5.2,5.2,5.2h96.7c2.9,0,5.2-2.3,5.2-5.2V197.2
			C162.2,194.3,159.9,192,157.1,192z"/>
		<path class="st9" d="M155.2,260.2l-92.8,40.3v-40.3l92.8-40.3V260.2z"/>
		<path class="st5" d="M155.2,300.5l-92.8,40.3v-40.3l92.8-40.3V300.5z"/>
		<path class="st9" d="M155.2,340.9l-92.8,40.3v-40.3l92.8-40.3V340.9z"/>
		<path class="st5" d="M62.3,381.2v15.7c0,1.2,0.5,2.3,1.3,3.1c0.8,0.8,2,1.3,3.1,1.3h42l46.4-20.2v-40.3L62.3,381.2z"/>
		<path class="st5" d="M150.7,199.7h-42l-46.4,20.2v40.3l92.8-40.3v-15.7c0-1.2-0.5-2.3-1.3-3.1C153,200.2,151.9,199.8,150.7,199.7z
			"/>
		<path class="st9" d="M66.8,199.7c-1.2,0-2.3,0.5-3.1,1.3c-0.8,0.8-1.3,2-1.3,3.1v15.7l46.4-20.2H66.8z"/>
		<path class="st9" d="M150.7,401.3c0.6,0,1.2-0.1,1.7-0.3c0.5-0.2,1-0.6,1.4-1c0.4-0.4,0.7-0.9,1-1.4c0.2-0.5,0.3-1.1,0.3-1.7
			v-15.7l-46.4,20.2H150.7z"/>
	</g>
</g>
<g>
	<path class="st10" d="M142,126.2c1.6,1.7,3,3.9,3.7,6.4c0.7,2.4,0.8,5.2,0.3,7.8c-0.3,1.4-0.7,2.6-1.2,3.9c-0.5,1.2-1.2,2.4-2,3.5
		c-0.7,1.1-1.6,2.2-2.5,3.1c-0.9,1-1.8,1.9-2.8,2.7c-2,1.7-4.2,3.1-6.5,4.3c-2.3,1.2-4.7,2.2-7.1,2.9c-2.4,0.7-4.9,1.3-7.4,1.7
		c-2.5,0.3-5,0.5-7.6,0.5c-2.5,0-5.1-0.2-7.6-0.5c-2.5-0.4-5-1-7.4-1.7c-2.4-0.7-4.8-1.7-7.1-2.9c-0.5-0.3-1.2-0.6-1.7-1
		c-0.5-0.3-1.1-0.7-1.6-1c-1.1-0.7-2.1-1.5-3.1-2.3s-2-1.8-2.8-2.7c-0.9-1-1.8-2-2.5-3.1c-0.7-1.1-1.4-2.3-2-3.5
		c-0.5-1.2-0.9-2.5-1.2-3.9c-0.5-2.7-0.5-5.4,0.3-7.8c0.7-2.4,2-4.6,3.7-6.4c-0.7,2.3-1,4.6-0.9,6.7c0.1,2.2,0.7,4.1,1.6,5.9
		c1.8,3.5,4.9,6.3,8.4,8.3c3.5,2,7.4,3.5,11.5,4.4c2,0.5,4.1,0.8,6.2,1c2.1,0.3,4.2,0.3,6.3,0.3c2.1,0,4.2-0.1,6.3-0.3
		c2.1-0.2,4.1-0.6,6.2-1c4.1-1,8-2.4,11.5-4.4c3.5-2,6.6-4.8,8.4-8.3c0.9-1.8,1.5-3.8,1.6-5.9C143,130.7,142.7,128.5,142,126.2z"/>
	<path class="st10" d="M114.7,143.2c-1.3-0.7-2.4-1.6-3.6-2.5c-1.2-1-2.2-2-3.1-3.1c-1.9-2.2-3.5-4.9-4.5-7.9c-1-3-1.4-6.4-0.8-9.6
		c0.3-1.6,0.8-3.3,1.4-4.8c0.3-0.7,0.7-1.5,1.2-2.2c0.2-0.3,0.4-0.7,0.6-1l0.5-0.7c1.3-2.2,2.4-4.6,3.3-6.9c0.4-1.2,0.7-2.3,0.9-3.4
		c0.1-0.3,0.1-0.5,0.1-0.8c0-0.1,0-0.3,0-0.4c0-0.1,0-0.3,0-0.4c-0.1-0.6-0.1-1.2-0.2-1.8c-0.5-2.4-1.4-4.9-2.6-7.3
		c-1.3-2.4-2.8-4.7-4.6-7c2.6,1.2,4.9,3.1,7,5.2c2,2.2,3.8,4.7,4.9,7.7c0.3,0.7,0.5,1.5,0.7,2.3c0.1,0.3,0.2,0.9,0.3,1.3
		c0.1,0.5,0.1,0.9,0.1,1.3c0.1,1.8-0.1,3.4-0.5,5c-0.7,3.1-2,5.9-3.5,8.6c-0.2,0.3-0.4,0.6-0.6,1c-0.1,0.3-0.3,0.5-0.5,0.7
		c-0.3,0.5-0.5,1-0.8,1.6c-0.5,1-0.9,2.1-1.2,3.3c-0.6,2.2-0.7,4.6-0.3,7.1c0.3,2.4,1.2,5,2.2,7.5
		C111.9,138.3,113.2,140.7,114.7,143.2z"/>
	<path class="st10" d="M95.4,138.2c-1-0.1-2-0.3-3-0.7c-0.9-0.3-1.9-0.9-2.8-1.4c-1.8-1.2-3.3-2.9-4.3-5.2c-0.5-1.2-0.7-2.4-0.7-3.7
		c0-1.3,0.2-2.5,0.5-3.7c0.1-0.3,0.2-0.5,0.3-0.8l0.1-0.4l0.1-0.3c0.2-0.5,0.4-0.9,0.5-1.3c0.4-0.9,0.8-1.7,1.2-2.5
		c0.7-1.6,1.5-3.1,1.9-4.5c0.4-1.4,0.5-2.6,0.3-4.1c-0.2-1.6-0.7-3.2-1.4-5c-0.6-1.8-1.4-3.5-2-5.4c1.7,1,3.3,2.2,4.7,3.7
		c1.4,1.4,2.7,3.1,3.6,5.2c0.9,2,1.3,4.6,0.9,6.9c-0.1,1.2-0.5,2.2-0.8,3.3c-0.3,1-0.7,2-1.2,2.9c-0.4,0.9-0.8,1.8-1.2,2.6l-0.6,1.2
		l-0.1,0.3l0.1,0.1c-0.1,0.1-0.1,0.3-0.2,0.5c-0.3,0.6-0.5,1.2-0.6,1.8c-0.1,0.6-0.1,1.2-0.1,1.9c0.1,1.3,0.6,2.8,1.5,4.3
		C93.1,135.2,94.2,136.6,95.4,138.2z"/>
	<path class="st10" d="M132.8,138.2c-1-0.1-2-0.3-3-0.7c-0.9-0.3-1.9-0.9-2.8-1.4c-1.8-1.2-3.3-2.9-4.3-5.2
		c-0.5-1.2-0.7-2.4-0.7-3.7c0-1.3,0.2-2.5,0.5-3.7c0.1-0.3,0.2-0.5,0.3-0.8l0.1-0.4l0.1-0.3c0.2-0.5,0.4-0.9,0.5-1.3
		c0.4-0.9,0.8-1.7,1.2-2.5c0.7-1.6,1.5-3.1,1.9-4.5c0.4-1.4,0.5-2.6,0.3-4.1c-0.2-1.6-0.7-3.2-1.4-5c-0.6-1.8-1.4-3.5-2-5.4
		c1.7,1,3.3,2.2,4.7,3.7c1.4,1.4,2.7,3.1,3.6,5.2c0.9,2,1.3,4.6,0.9,6.9c-0.1,1.2-0.5,2.2-0.8,3.3c-0.3,1-0.7,2-1.2,2.9
		c-0.4,0.9-0.8,1.8-1.2,2.6l-0.6,1.2L129,125l0.1,0.1c-0.1,0.1-0.1,0.3-0.2,0.5c-0.3,0.6-0.5,1.2-0.6,1.8c-0.1,0.6-0.1,1.2-0.1,1.9
		c0.1,1.3,0.6,2.8,1.5,4.3C130.5,135.2,131.6,136.6,132.8,138.2z"/>
</g>
<path class="st7" d="M152.9,11.9l2.1-2.1c0.1-0.1,0.1-0.2,0.2-0.3s0.1-0.2,0.1-0.3s0-0.2-0.1-0.3s-0.1-0.2-0.2-0.3l-2.1-2.1
	c0,0-0.1-0.1-0.1-0.1V6.1c0,0,0.1,0,0.1-0.1l2.1-2.1c0.1-0.1,0.1-0.2,0.2-0.3s0.1-0.2,0.1-0.3s0-0.2-0.1-0.3s-0.1-0.2-0.2-0.3
	L153.2,1H65.8L64,2.8c-0.1,0.1-0.2,0.3-0.2,0.5c0,0.2,0.1,0.4,0.2,0.5L66.1,6c0,0,0,0,0.1,0v0.5c0,0,0,0-0.1,0.1L64,8.7
	c-0.1,0.1-0.2,0.3-0.2,0.5s0.1,0.4,0.2,0.5l2.1,2.1c0,0,0,0,0.1,0v0.5l-0.1,0L64,14.5c-0.1,0.1-0.2,0.3-0.2,0.5
	c0,0.2,0.1,0.4,0.2,0.5l2.1,2.1c0,0,0,0,0.1,0v0.5c0,0-0.1,0-0.1,0L64,20.4c-0.1,0.1-0.2,0.3-0.2,0.5c0,0.2,0.1,0.4,0.2,0.5l2.1,2.1
	l0.1,0v0.5c0,0-0.1,0-0.1,0.1L64,26.3c-0.1,0.1-0.2,0.3-0.2,0.5c0,0.2,0.1,0.4,0.2,0.5l2.1,2.1c0,0,0,0,0.1,0V30l-0.1,0L64,32.2
	c-0.1,0.1-0.2,0.3-0.2,0.5s0.1,0.4,0.2,0.5l2.1,2.1c0,0,0,0,0.1,0v0.5c0,0-0.1,0-0.1,0L64,38c-0.1,0.1-0.2,0.3-0.2,0.5
	s0.1,0.4,0.2,0.5l1.9,1.9h87.2l1.9-1.9c0.1-0.1,0.1-0.2,0.2-0.3c0-0.1,0.1-0.2,0.1-0.3s0-0.2-0.1-0.3c0-0.1-0.1-0.2-0.2-0.3
	l-2.1-2.1c0,0-0.1-0.1-0.1-0.1v-0.4c0,0,0.1-0.1,0.1-0.1l2.1-2.1c0.1-0.1,0.1-0.2,0.2-0.3c0-0.1,0.1-0.2,0.1-0.3
	c0-0.1,0-0.2-0.1-0.3s-0.1-0.2-0.2-0.3l-2.1-2.1c0,0-0.1-0.1-0.1-0.1v-0.4c0,0,0.1-0.1,0.1-0.1l2.1-2.1c0.1-0.1,0.1-0.2,0.2-0.3
	c0-0.1,0.1-0.2,0.1-0.3c0-0.1,0-0.2-0.1-0.3c0-0.1-0.1-0.2-0.2-0.3l-2.1-2.1c0,0-0.1-0.1-0.1-0.1v-0.4c0,0,0.1,0,0.1-0.1l2.1-2.1
	c0.1-0.1,0.1-0.2,0.2-0.3c0-0.1,0.1-0.2,0.1-0.3c0-0.1,0-0.2-0.1-0.3c0-0.1-0.1-0.2-0.2-0.3l-2.1-2.1c0,0-0.1-0.1-0.1-0.1v-0.4
	c0,0,0.1,0,0.1-0.1l2.1-2.1c0.1-0.1,0.1-0.2,0.2-0.3c0-0.1,0.1-0.2,0.1-0.3s0-0.2-0.1-0.3c0-0.1-0.1-0.2-0.2-0.3l-2.1-2.1
	c0,0-0.1-0.1-0.1-0.1v-0.4C152.8,11.9,152.9,11.9,152.9,11.9z"/>
<path class="st0" d="M82.9,449.2l-0.5,2.6h2.2v1.1h-2.4l-0.7,3.3h-1.1l0.7-3.3h-2.3l-0.6,3.3H77l0.6-3.3h-2v-1.1h2.2l0.5-2.6h-2.1
	v-1.1h2.3l0.6-3.4h1.2l-0.6,3.4H82l0.6-3.4h1.1l-0.6,3.4h2v1.1H82.9z M79,451.8h2.3l0.5-2.6h-2.3L79,451.8z M93.5,456.2h-6.4v-11.4
	h6.4v1.3h-4.9v3.6h4.7v1.2h-4.7v4.1h4.9V456.2z M102.8,449.6c0,0.8-0.1,1.6-0.2,2.4c-0.1,0.8-0.4,1.5-0.8,2.2
	c-0.4,0.6-0.9,1.2-1.6,1.5c-0.7,0.4-1.6,0.6-2.6,0.6c-0.2,0-0.5,0-0.8,0c-0.3,0-0.5-0.1-0.7-0.1V455c0.4,0.1,0.9,0.2,1.4,0.2
	c0.7,0,1.4-0.1,1.8-0.4c0.5-0.2,0.9-0.6,1.2-1c0.3-0.4,0.5-0.9,0.6-1.5c0.1-0.6,0.2-1.2,0.2-1.8h-0.1c-0.2,0.4-0.6,0.7-1,0.9
	c-0.4,0.3-1,0.4-1.7,0.4c-1,0-1.8-0.3-2.4-0.9c-0.6-0.6-0.9-1.5-0.9-2.6c0-0.8,0.1-1.5,0.4-2.1c0.3-0.6,0.7-1,1.3-1.3
	s1.2-0.5,1.9-0.5c0.7,0,1.4,0.2,2,0.6c0.6,0.4,1.1,0.9,1.4,1.7C102.6,447.6,102.8,448.5,102.8,449.6z M98.9,445.8
	c-0.7,0-1.2,0.2-1.6,0.7c-0.4,0.4-0.6,1.1-0.6,2c0,0.7,0.2,1.3,0.5,1.7c0.4,0.4,0.9,0.6,1.7,0.6c0.5,0,1-0.1,1.3-0.3
	c0.4-0.2,0.7-0.5,0.9-0.8c0.2-0.3,0.3-0.7,0.3-1c0-0.5-0.1-0.9-0.3-1.4c-0.2-0.4-0.5-0.8-0.8-1.1C99.9,445.9,99.4,445.8,98.9,445.8z
	 M110,445.9c-1.2,0-2.2,0.4-2.9,1.2c-0.7,0.8-1.1,1.9-1.1,3.4c0,1.4,0.3,2.5,1,3.4c0.7,0.8,1.6,1.2,3,1.2c0.5,0,1,0,1.4-0.1
	c0.4-0.1,0.9-0.2,1.3-0.3v1.2c-0.4,0.2-0.9,0.3-1.3,0.4c-0.4,0.1-1,0.1-1.6,0.1c-1.2,0-2.1-0.2-2.9-0.7c-0.8-0.5-1.4-1.2-1.8-2
	c-0.4-0.9-0.6-1.9-0.6-3.1c0-1.2,0.2-2.2,0.6-3c0.4-0.9,1.1-1.6,1.9-2.1c0.8-0.5,1.8-0.8,3-0.8c1.2,0,2.3,0.2,3.2,0.7l-0.6,1.2
	c-0.4-0.2-0.7-0.3-1.2-0.4C111,445.9,110.6,445.9,110,445.9z M119.4,456.2H118v-8c0-0.5,0-0.8,0-1.1c0-0.3,0-0.6,0-0.9
	c-0.2,0.2-0.3,0.3-0.5,0.4c-0.1,0.1-0.3,0.3-0.5,0.4l-1.2,1l-0.7-0.9l3.1-2.4h1.2V456.2z M131.6,456.2l-1.4-3.5h-4.5l-1.4,3.5h-1.5
	l4.5-11.5h1.3l4.4,11.5H131.6z M128.5,447.9c0-0.1-0.1-0.2-0.2-0.5c-0.1-0.2-0.1-0.5-0.2-0.7c-0.1-0.2-0.1-0.4-0.2-0.6
	c-0.1,0.3-0.2,0.7-0.3,1c-0.1,0.3-0.2,0.6-0.2,0.7l-1.3,3.5h3.6L128.5,447.9z M141.4,456.2h-7.6V455l3-3c0.6-0.6,1.1-1.1,1.5-1.5
	c0.4-0.4,0.7-0.9,0.9-1.3c0.2-0.4,0.3-0.9,0.3-1.4c0-0.6-0.2-1.1-0.6-1.4c-0.4-0.3-0.9-0.5-1.5-0.5c-0.6,0-1,0.1-1.5,0.3
	c-0.4,0.2-0.8,0.5-1.3,0.8L134,446c0.4-0.4,1-0.7,1.5-0.9c0.6-0.3,1.2-0.4,2-0.4c1.1,0,1.9,0.3,2.5,0.8c0.6,0.5,0.9,1.3,0.9,2.2
	c0,0.6-0.1,1.2-0.4,1.7c-0.2,0.5-0.6,1-1,1.6c-0.4,0.5-0.9,1-1.5,1.6l-2.4,2.4v0.1h5.8V456.2z"/>
</svg>
