<?xml version="1.0" encoding="utf-8"?>
<!-- Generator: Adobe Illustrator 23.1.0, SVG Export Plug-In . SVG Version: 6.00 Build 0)  -->
<svg version="1.1" id="Layer_1" xmlns="http://www.w3.org/2000/svg" xmlns:xlink="http://www.w3.org/1999/xlink" x="0px" y="0px"
	 viewBox="0 0 175.5 177.6" style="enable-background:new 0 0 175.5 177.6;" xml:space="preserve">
<style type="text/css">
	.st0{fill:#D9D8D7;}
	.st1{fill:none;stroke:#1D3254;stroke-width:2;stroke-miterlimit:10;}
	.st2{fill:#63708B;stroke:#FFFFFF;stroke-width:5;stroke-miterlimit:10;}
	.st3{fill:none;stroke:#FFFFFF;stroke-width:4;stroke-linecap:round;stroke-linejoin:round;stroke-miterlimit:10;}
</style>
<g>
	<g>
		<path class="st0" d="M174.2,73.6c-0.9-5.7-4.4-10.2-9-12.9c1.8-5,1.5-10.8-1.3-15.8s-7.7-8.1-12.9-9c0-5.4-2.3-10.6-6.7-14.3
			c-4.4-3.6-10-5-15.2-4c-1.9-5-5.8-9.2-11.2-11.2c-5.4-2-11.2-1.3-15.8,1.3C98.5,3.7,93.4,1,87.8,1C82,1,76.9,3.6,73.5,7.7
			C68.9,5,63.1,4.4,57.7,6.4c-5.4,2-9.3,6.2-11.2,11.2c-5.3-0.9-10.9,0.4-15.2,4c-4.4,3.6-6.7,9-6.7,14.3c-5.3,0.9-10.1,4-12.9,9
			c-2.8,5-3.2,10.8-1.3,15.8c-4.6,2.7-8.1,7.3-9,12.9c-0.9,5.7,0.7,11.2,4,15.2c-3.4,4-5.1,9.6-4,15.2c0.9,5.7,4.4,10.2,9,12.9
			c-1.8,5-1.5,10.8,1.3,15.8c2.8,5,7.7,8.1,12.9,9c0,5.4,2.3,10.6,6.7,14.3c4.4,3.6,10,5,15.2,4c1.9,5,5.8,9.2,11.2,11.2
			c5.4,2,11.2,1.3,15.8-1.3c3.5,4,8.6,6.7,14.3,6.7c5.8,0,10.9-2.6,14.3-6.7c4.6,2.7,10.4,3.4,15.8,1.3c5.4-2,9.3-6.2,11.2-11.2
			c5.3,0.9,10.9-0.4,15.2-4c4.3-3.6,6.7-9,6.7-14.3c5.3-0.9,10.1-4,12.9-9c2.8-5,3.2-10.8,1.3-15.8c4.6-2.7,8.1-7.3,9-12.9
			c0.9-5.7-0.7-11.2-4-15.2C173.6,84.8,175.3,79.2,174.2,73.6z"/>
		<path class="st1" d="M174.2,73.6c-0.9-5.7-4.4-10.2-9-12.9c1.8-5,1.5-10.8-1.3-15.8s-7.7-8.1-12.9-9c0-5.4-2.3-10.6-6.7-14.3
			c-4.4-3.6-10-5-15.2-4c-1.9-5-5.8-9.2-11.2-11.2c-5.4-2-11.2-1.3-15.8,1.3C98.5,3.7,93.4,1,87.8,1C82,1,76.9,3.6,73.5,7.7
			C68.9,5,63.1,4.4,57.7,6.4c-5.4,2-9.3,6.2-11.2,11.2c-5.3-0.9-10.9,0.4-15.2,4c-4.4,3.6-6.7,9-6.7,14.3c-5.3,0.9-10.1,4-12.9,9
			c-2.8,5-3.2,10.8-1.3,15.8c-4.6,2.7-8.1,7.3-9,12.9c-0.9,5.7,0.7,11.2,4,15.2c-3.4,4-5.1,9.6-4,15.2c0.9,5.7,4.4,10.2,9,12.9
			c-1.8,5-1.5,10.8,1.3,15.8c2.8,5,7.7,8.1,12.9,9c0,5.4,2.3,10.6,6.7,14.3c4.4,3.6,10,5,15.2,4c1.9,5,5.8,9.2,11.2,11.2
			c5.4,2,11.2,1.3,15.8-1.3c3.5,4,8.6,6.7,14.3,6.7c5.8,0,10.9-2.6,14.3-6.7c4.6,2.7,10.4,3.4,15.8,1.3c5.4-2,9.3-6.2,11.2-11.2
			c5.3,0.9,10.9-0.4,15.2-4c4.3-3.6,6.7-9,6.7-14.3c5.3-0.9,10.1-4,12.9-9c2.8-5,3.2-10.8,1.3-15.8c4.6-2.7,8.1-7.3,9-12.9
			c0.9-5.7-0.7-11.2-4-15.2C173.6,84.8,175.3,79.2,174.2,73.6z"/>
	</g>
	<path class="st2" d="M87.6,167.7c-2.8,0-5.5-1.2-7.4-3.5c-1.8-2.2-4.3-3.2-6.9-3.2c-1.5,0-3.1,0.4-4.4,1.2
		c-1.5,0.8-3.1,1.3-4.8,1.3c-1.1,0-2.3-0.1-3.2-0.5c-2.7-0.9-4.8-3.1-5.8-5.8c-1.3-3.6-4.7-5.9-8.5-5.9c-0.5,0-1.1,0-1.6,0.1
		c-0.5,0.1-1.1,0.1-1.8,0.1c-1.6,0-4-0.4-6.2-2.3c-2.2-1.9-3.5-4.6-3.5-7.4c0-4.4-3.1-8.1-7.4-8.9c-2.8-0.5-5.3-2.2-6.7-4.7
		c-1.5-2.4-1.8-5.4-0.7-8.1c1.5-4.2-0.1-8.8-3.9-10.9c-2.4-1.5-4.2-3.9-4.7-6.7c-0.5-2.8,0.3-5.7,2.2-7.9c2.8-3.4,2.8-8.2,0-11.6
		c-1.9-2.2-2.6-5.1-2.2-7.9c0.5-2.8,2.2-5.3,4.7-6.7c3.8-2.2,5.5-6.7,3.9-10.9c-0.9-2.7-0.7-5.7,0.7-8.1c1.5-2.4,3.9-4.2,6.7-4.7
		c4.3-0.8,7.4-4.6,7.4-8.9c0-2.8,1.2-5.5,3.5-7.4c2.3-1.9,4.6-2.3,6.2-2.3c0.5,0,1.1,0,1.8,0.1c0.5,0.1,1.1,0.1,1.6,0.1
		c3.8,0,7.1-2.3,8.5-5.9c0.9-2.7,3.1-4.8,5.8-5.8c1.1-0.4,2.2-0.5,3.2-0.5c1.8,0,3.4,0.4,4.8,1.3c1.3,0.8,3,1.2,4.4,1.2
		c2.6,0,5.1-1.1,6.9-3.2c1.9-2.2,4.6-3.5,7.4-3.5c2.8,0,5.5,1.2,7.4,3.5c1.8,2.2,4.3,3.2,6.9,3.2c1.5,0,3.1-0.4,4.4-1.2
		c1.5-0.8,3.1-1.3,4.8-1.3c1.1,0,2.3,0.1,3.2,0.5c2.7,0.9,4.8,3.1,5.8,5.8c1.3,3.6,4.7,5.9,8.5,5.9c0.5,0,1.1,0,1.6-0.1
		c0.5-0.1,1.1-0.1,1.8-0.1c1.6,0,4,0.4,6.2,2.3c2.2,1.9,3.5,4.6,3.5,7.4c0,4.4,3.1,8.1,7.4,8.9c2.8,0.5,5.3,2.2,6.7,4.7
		c1.5,2.4,1.8,5.4,0.7,8.1c-1.5,4.2,0.1,8.8,3.9,10.9c2.4,1.5,4.2,3.9,4.7,6.7c0.5,2.8-0.3,5.7-2.2,7.9c-2.8,3.4-2.8,8.2,0,11.6
		c1.9,2.2,2.6,5.1,2.2,7.9c-0.5,2.8-2.2,5.3-4.7,6.7c-3.8,2.2-5.5,6.7-3.9,10.9c0.9,2.7,0.7,5.7-0.7,8.1c-1.5,2.4-3.9,4.2-6.7,4.7
		c-4.3,0.8-7.4,4.6-7.4,8.9c0,2.8-1.2,5.5-3.5,7.4c-2.3,1.9-4.6,2.3-6.2,2.3c-0.5,0-1.1,0-1.8-0.1c-0.5-0.1-1.1-0.1-1.6-0.1
		c-3.8,0-7.1,2.3-8.5,5.9c-0.9,2.7-3.1,4.8-5.8,5.8c-1.1,0.4-2.2,0.5-3.2,0.5c-1.8,0-3.4-0.4-4.8-1.3c-1.3-0.8-3-1.2-4.4-1.2
		c-2.6,0-5.1,1.1-6.9,3.2C93.3,166.5,90.6,167.7,87.6,167.7z"/>
	<path class="st3" d="M76.3,97.8c1.9,0,3.4-2.3,3.4-5.1c0-2.8-1.5-5.1-3.4-5.1c-1.9,0-3.4,2.3-3.4,5.1C73,95.5,74.4,97.8,76.3,97.8z
		"/>
	<path class="st3" d="M101.4,97.8c1.9,0,3.4-2.3,3.4-5.1c0-2.8-1.5-5.1-3.4-5.1c-1.9,0-3.4,2.3-3.4,5.1
		C98,95.5,99.6,97.8,101.4,97.8z"/>
	<path class="st3" d="M96.8,80.7c0,0,8.1-6.3,16.2,5.4"/>
	<path class="st3" d="M36.1,67.3c0,0,15.8,14.8,30.2-0.9s7.7-33.3-1.9-32.9c-9.4,0.4-18.9,35,4.4,40.9c23.4,5.8,28.8-24.8,24.8-27.9
		c-4-3.1-14.4,21.5,7.1,22.1"/>
	<path class="st3" d="M112.4,104.2c0,0-10.8,4-25.2,4c-14.4,0-22.5-4-22.5-4s6.3,17.9,22.9,17.9
		C104.3,122.1,112.4,104.2,112.4,104.2z"/>
	<path class="st3" d="M120.9,55.9c8.5,8.5,13.7,20.3,13.7,33.3c0,26.1-21.1,47.3-47.3,47.3c-26.1,0-47.1-21.1-47.1-47.3
		c0-26.1,21.1-47.3,47.3-47.3c9.4,0,18.2,2.7,25.6,7.5"/>
</g>
</svg>
