<?xml version="1.0" encoding="utf-8"?>
<!-- Generator: Adobe Illustrator 23.1.0, SVG Export Plug-In . SVG Version: 6.00 Build 0)  -->
<svg version="1.1" id="Layer_1" xmlns="http://www.w3.org/2000/svg" xmlns:xlink="http://www.w3.org/1999/xlink" x="0px" y="0px"
	 viewBox="0 0 470 554.5" style="enable-background:new 0 0 470 554.5;" xml:space="preserve">
<style type="text/css">
	.st0{fill:#1D3254;}
	.st1{fill:#FFFFFF;}
	.st2{fill:#F3EDD3;stroke:#1D3254;stroke-linecap:round;stroke-linejoin:round;}
	.st3{fill:#FFFFFF;stroke:#1D3254;stroke-width:2;stroke-miterlimit:10;}
	.st4{fill:#F4F4F4;}
	.st5{fill:#F4F4F4;stroke:#1D3254;stroke-linecap:round;stroke-linejoin:round;}
	.st6{fill:#19A59A;}
	.st7{fill:#19A59A;stroke:#1D3254;stroke-linecap:round;stroke-linejoin:round;}
	.st8{fill:#121828;}
	.st9{fill:#121828;stroke:#1D3254;stroke-linecap:round;stroke-linejoin:round;}
	.st10{fill:#3E418E;}
	.st11{fill:#3E418E;stroke:#1D3254;stroke-linecap:round;stroke-linejoin:round;}
	.st12{fill:#83539F;}
	.st13{fill:#83539F;stroke:#1D3254;stroke-linecap:round;stroke-linejoin:round;}
	.st14{fill:#F3EDD3;stroke:#1D3254;stroke-width:2;stroke-linecap:round;stroke-linejoin:round;}
	.st15{fill:#FFFFFF;stroke:#1D3254;stroke-linecap:round;stroke-linejoin:round;}
	.st16{fill:#1D3254;stroke:#1D3254;}
	.st17{fill:none;stroke:#1D3254;}
	.st18{fill:none;stroke:#FFBFAD;stroke-linecap:round;stroke-linejoin:round;}
</style>
<g>
	<rect x="3.8" y="58.5" class="st0" width="466.2" height="496"/>
</g>
<g>
	<rect x="0.5" y="55" class="st1" width="465.2" height="495"/>
	<path class="st0" d="M465.2,55.5v494H1v-494H465.2 M466.2,54.5H0v496h466.2V54.5L466.2,54.5z"/>
</g>
<path class="st2" d="M230.8,11.4l2.1-2.1C233,9.2,233,9.1,233,9s0.1-0.2,0.1-0.3s0-0.2-0.1-0.3s-0.1-0.2-0.2-0.3l-2.1-2.1
	c0,0-0.1-0.1-0.1-0.1V5.6c0,0,0.1,0,0.1-0.1l2.1-2.1c0.1-0.1,0.1-0.2,0.2-0.3s0.1-0.2,0.1-0.3s0-0.2-0.1-0.3s-0.1-0.2-0.2-0.3
	l-1.8-1.8h-87.4l-1.8,1.8c-0.1,0.1-0.2,0.3-0.2,0.5c0,0.2,0.1,0.4,0.2,0.5l2.1,2.1c0,0,0,0,0.1,0V6c0,0,0,0-0.1,0.1l-2.1,2.1
	c-0.1,0.1-0.2,0.3-0.2,0.5s0.1,0.4,0.2,0.5l2.1,2.1c0,0,0,0,0.1,0v0.5l-0.1,0l-2.1,2.1c-0.1,0.1-0.2,0.3-0.2,0.5
	c0,0.2,0.1,0.4,0.2,0.5l2.1,2.1c0,0,0,0,0.1,0v0.5c0,0-0.1,0-0.1,0l-2.1,2.1c-0.1,0.1-0.2,0.3-0.2,0.5c0,0.2,0.1,0.4,0.2,0.5
	l2.1,2.1l0.1,0v0.5c0,0-0.1,0-0.1,0.1l-2.1,2.1c-0.1,0.1-0.2,0.3-0.2,0.5c0,0.2,0.1,0.4,0.2,0.5L144,29c0,0,0,0,0.1,0v0.5l-0.1,0
	l-2.1,2.1c-0.1,0.1-0.2,0.3-0.2,0.5s0.1,0.4,0.2,0.5l2.1,2.1c0,0,0,0,0.1,0v0.5c0,0-0.1,0-0.1,0l-2.1,2.1c-0.1,0.1-0.2,0.3-0.2,0.5
	s0.1,0.4,0.2,0.5l1.9,1.9H231l1.9-1.9c0.1-0.1,0.1-0.2,0.2-0.3c0-0.1,0.1-0.2,0.1-0.3s0-0.2-0.1-0.3c0-0.1-0.1-0.2-0.2-0.3l-2.1-2.1
	c0,0-0.1-0.1-0.1-0.1v-0.4c0,0,0.1-0.1,0.1-0.1l2.1-2.1c0.1-0.1,0.1-0.2,0.2-0.3c0-0.1,0.1-0.2,0.1-0.3c0-0.1,0-0.2-0.1-0.3
	s-0.1-0.2-0.2-0.3l-2.1-2.1c0,0-0.1-0.1-0.1-0.1v-0.4c0,0,0.1-0.1,0.1-0.1l2.1-2.1c0.1-0.1,0.1-0.2,0.2-0.3c0-0.1,0.1-0.2,0.1-0.3
	c0-0.1,0-0.2-0.1-0.3c0-0.1-0.1-0.2-0.2-0.3l-2.1-2.1c0,0-0.1-0.1-0.1-0.1v-0.4c0,0,0.1,0,0.1-0.1l2.1-2.1c0.1-0.1,0.1-0.2,0.2-0.3
	c0-0.1,0.1-0.2,0.1-0.3c0-0.1,0-0.2-0.1-0.3c0-0.1-0.1-0.2-0.2-0.3l-2.1-2.1c0,0-0.1-0.1-0.1-0.1v-0.4c0,0,0.1,0,0.1-0.1l2.1-2.1
	C233,15,233,15,233,14.9c0-0.1,0.1-0.2,0.1-0.3s0-0.2-0.1-0.3c0-0.1-0.1-0.2-0.2-0.3l-2.1-2.1c0,0-0.1-0.1-0.1-0.1v-0.4
	C230.7,11.4,230.7,11.4,230.8,11.4z"/>
<g>
	<g>
		<g>
			<path class="st3" d="M258.2,499.5h106.9c4.4,0,8-3.6,8-8v-145c0-4.4-3.6-8-8-8H258.2c-4.4,0-8,3.6-8,8v145
				C250.2,495.9,253.8,499.5,258.2,499.5z"/>
			<path class="st4" d="M346.1,483.4c0,0.9,0.3,1.8,0.9,2.5c0.6,0.7,1.4,1.1,2.3,1.3c0.2,0,0.3,0,0.5,0c1,0,2-0.5,2.7-1.2
				c0.7-0.7,1.1-1.7,1-2.7c0,1,0.3,2,1,2.7c0.7,0.7,1.7,1.2,2.7,1.2c0.2,0,0.3,0,0.5,0c0.9-0.2,1.7-0.6,2.3-1.3
				c0.6-0.7,0.9-1.6,0.9-2.5v-0.1c0-0.8-0.2-1.6-0.7-2.3c-1.7-2.5-4-4.7-6.7-6.1c-2.7,1.5-5,3.6-6.7,6.1c-0.5,0.7-0.7,1.5-0.7,2.3
				L346.1,483.4z"/>
			<path class="st5" d="M274.9,431.1c0.3,9.9,7.2,17.9,16.1,19.1c0.8,0.1,1.5,0.2,2.3,0.2c10.2,0,18.4-8.9,18.4-20
				c0,11,8.2,20,18.4,20c0.8,0,1.5-0.1,2.3-0.2c8.9-1.2,15.8-9.2,16.1-19.1c0-0.2,0-0.5,0-0.7c0-4.1-1.1-8-3.3-11.4
				c-10.8-19-33.5-31.2-33.5-31.2s-22.7,12.2-33.5,31.2c-2.2,3.4-3.4,7.4-3.3,11.4C274.8,430.6,274.8,430.8,274.9,431.1z"/>
			<path class="st0" d="M288.1,511.5l-0.5,2.6h2.2v1.1h-2.4l-0.7,3.3h-1.1l0.7-3.3h-2.3l-0.6,3.3h-1.1l0.6-3.3h-2v-1.1h2.2l0.5-2.6
				h-2.1v-1.1h2.3l0.6-3.4h1.2l-0.6,3.4h2.3l0.6-3.4h1.1l-0.6,3.4h2v1.1H288.1z M284.1,514.1h2.3l0.5-2.6h-2.3L284.1,514.1z
				 M293.7,518.5h-1.4v-11.4h6.4v1.3h-4.9v4h4.6v1.3h-4.6V518.5z M307.9,515.9h-1.7v2.6h-1.4v-2.6h-5.5v-1.2l5.4-7.7h1.5v7.6h1.7
				V515.9z M304.8,511c0-0.6,0-1,0-1.4c0-0.4,0-0.8,0-1.1h-0.1c-0.1,0.2-0.2,0.4-0.3,0.7c-0.1,0.2-0.3,0.4-0.4,0.6l-3.4,4.9h4.1V511
				z M311.2,518.5h-1.4v-11.4h6.4v1.3h-4.9v4h4.6v1.3h-4.6V518.5z M325.3,515.9h-1.7v2.6h-1.4v-2.6h-5.5v-1.2l5.4-7.7h1.5v7.6h1.7
				V515.9z M322.3,511c0-0.6,0-1,0-1.4c0-0.4,0-0.8,0-1.1h-0.1c-0.1,0.2-0.2,0.4-0.3,0.7c-0.1,0.2-0.3,0.4-0.4,0.6l-3.4,4.9h4.1V511
				z M328.6,518.5h-1.4v-11.4h6.4v1.3h-4.9v4h4.6v1.3h-4.6V518.5z M342.8,515.9h-1.7v2.6h-1.4v-2.6h-5.5v-1.2l5.4-7.7h1.5v7.6h1.7
				V515.9z M339.7,511c0-0.6,0-1,0-1.4c0-0.4,0-0.8,0-1.1h-0.1c-0.1,0.2-0.2,0.4-0.3,0.7c-0.1,0.2-0.3,0.4-0.4,0.6l-3.4,4.9h4.1V511
				z"/>
			<path class="st4" d="M277.3,354.5c0-0.9-0.3-1.8-0.9-2.5c-0.6-0.7-1.4-1.1-2.3-1.3h-0.5c-1,0-2,0.5-2.7,1.2
				c-0.7,0.7-1.1,1.7-1,2.7c0-1-0.3-2-1-2.7c-0.7-0.7-1.7-1.2-2.7-1.2h-0.5c-0.9,0.2-1.7,0.6-2.3,1.3c-0.6,0.7-0.9,1.6-0.9,2.5v0.1
				c0,0.8,0.2,1.6,0.7,2.3c1.7,2.5,4,4.7,6.7,6.1c2.7-1.5,5-3.6,6.7-6.1c0.4-0.7,0.7-1.5,0.7-2.3L277.3,354.5z"/>
		</g>
		<g>
			<path class="st3" d="M104.2,499.5h106.9c4.4,0,8-3.6,8-8v-145c0-4.4-3.6-8-8-8H104.2c-4.4,0-8,3.6-8,8v145
				C96.2,495.9,99.8,499.5,104.2,499.5z"/>
			<path class="st6" d="M123.3,354.5c0-0.9-0.3-1.8-0.9-2.5c-0.6-0.7-1.4-1.1-2.3-1.3h-0.4c-1,0-2,0.5-2.7,1.2
				c-0.7,0.7-1.1,1.7-1,2.7c0-1-0.3-2-1-2.7c-0.7-0.7-1.7-1.2-2.7-1.2h-0.5c-0.9,0.2-1.7,0.6-2.3,1.3c-0.6,0.7-0.9,1.6-0.9,2.5v0.1
				c0,0.8,0.2,1.6,0.7,2.3c1.7,2.5,4,4.7,6.7,6.1c2.7-1.5,5-3.6,6.7-6.1c0.4-0.7,0.7-1.5,0.7-2.3L123.3,354.5z"/>
			<path class="st7" d="M120.9,431.1c0.3,9.9,7.2,17.9,16.1,19.1c0.8,0.1,1.5,0.2,2.3,0.2c10.2,0,18.4-8.9,18.4-20
				c0,11,8.2,20,18.4,20c0.8,0,1.5-0.1,2.3-0.2c8.9-1.2,15.8-9.2,16.1-19.1c0-0.2,0-0.5,0-0.7c0-4.1-1.1-8-3.3-11.4
				c-10.8-19-33.5-31.2-33.5-31.2s-22.7,12.2-33.5,31.2c-2.2,3.4-3.4,7.4-3.3,11.4C120.8,430.6,120.8,430.8,120.9,431.1z"/>
			<path class="st6" d="M192.1,483.4c0,0.9,0.3,1.8,0.9,2.5c0.6,0.7,1.4,1.1,2.3,1.3c0.2,0,0.3,0,0.5,0c1,0,2-0.5,2.7-1.2
				c0.7-0.7,1.1-1.7,1-2.7c0,1,0.3,2,1,2.7c0.7,0.7,1.7,1.2,2.7,1.2c0.2,0,0.3,0,0.5,0c0.9-0.2,1.7-0.6,2.3-1.3
				c0.6-0.7,0.9-1.6,0.9-2.5v-0.1c0-0.8-0.2-1.6-0.7-2.3c-1.7-2.5-4-4.7-6.7-6.1c-2.7,1.5-5,3.6-6.7,6.1c-0.5,0.7-0.7,1.5-0.7,2.3
				L192.1,483.4z"/>
			<path class="st0" d="M131.2,511.5l-0.5,2.6h2.2v1.1h-2.4l-0.7,3.3h-1.1l0.7-3.3h-2.3l-0.6,3.3h-1.1l0.6-3.3h-2v-1.1h2.2l0.5-2.6
				h-2.1v-1.1h2.3l0.6-3.4h1.2l-0.6,3.4h2.3l0.6-3.4h1.1l-0.6,3.4h2v1.1H131.2z M127.3,514.1h2.3l0.5-2.6h-2.3L127.3,514.1z
				 M139.6,518.5h-1.4v-8c0-0.5,0-0.8,0-1.1c0-0.3,0-0.6,0-0.9c-0.2,0.2-0.3,0.3-0.5,0.4c-0.1,0.1-0.3,0.3-0.5,0.4l-1.2,1l-0.7-0.9
				l3.1-2.4h1.2V518.5z M151.3,512c0,0.8-0.1,1.6-0.2,2.4c-0.1,0.8-0.4,1.5-0.8,2.2c-0.4,0.6-0.9,1.2-1.6,1.5
				c-0.7,0.4-1.6,0.6-2.6,0.6c-0.2,0-0.5,0-0.8,0c-0.3,0-0.5-0.1-0.7-0.1v-1.2c0.4,0.1,0.9,0.2,1.4,0.2c0.7,0,1.4-0.1,1.8-0.4
				c0.5-0.2,0.9-0.6,1.2-1c0.3-0.4,0.5-0.9,0.6-1.5c0.1-0.6,0.2-1.2,0.2-1.8h-0.1c-0.2,0.4-0.6,0.7-1,0.9c-0.4,0.3-1,0.4-1.7,0.4
				c-1,0-1.8-0.3-2.4-0.9c-0.6-0.6-0.9-1.5-0.9-2.6c0-0.8,0.1-1.5,0.4-2.1c0.3-0.6,0.7-1,1.3-1.3c0.5-0.3,1.2-0.5,1.9-0.5
				c0.7,0,1.4,0.2,2,0.6c0.6,0.4,1.1,0.9,1.4,1.7C151.2,509.9,151.3,510.8,151.3,512z M147.5,508.1c-0.7,0-1.2,0.2-1.6,0.7
				c-0.4,0.4-0.6,1.1-0.6,2c0,0.7,0.2,1.3,0.5,1.7c0.4,0.4,0.9,0.6,1.7,0.6c0.5,0,1-0.1,1.3-0.3c0.4-0.2,0.7-0.5,0.9-0.8
				c0.2-0.3,0.3-0.7,0.3-1c0-0.5-0.1-0.9-0.3-1.4s-0.5-0.8-0.8-1.1C148.5,508.2,148,508.1,147.5,508.1z M160.9,518.5l-1.4-3.5H155
				l-1.4,3.5h-1.5l4.5-11.5h1.3l4.4,11.5H160.9z M157.8,510.2c0-0.1-0.1-0.2-0.2-0.5s-0.1-0.5-0.2-0.7c-0.1-0.2-0.1-0.4-0.2-0.6
				c-0.1,0.3-0.2,0.7-0.3,1c-0.1,0.3-0.2,0.6-0.2,0.7l-1.3,3.5h3.6L157.8,510.2z M166.8,511.5c1.2,0,2.1,0.3,2.8,0.9
				c0.7,0.6,1,1.4,1,2.5c0,1.2-0.4,2.1-1.1,2.8c-0.7,0.7-1.8,1-3.1,1c-0.6,0-1.1-0.1-1.7-0.2c-0.5-0.1-0.9-0.3-1.3-0.5v-1.3
				c0.4,0.2,0.8,0.4,1.4,0.6c0.6,0.1,1.1,0.2,1.6,0.2c0.8,0,1.5-0.2,2-0.6c0.5-0.4,0.8-1,0.8-1.9c0-0.7-0.2-1.3-0.7-1.7
				c-0.5-0.4-1.2-0.6-2.2-0.6c-0.3,0-0.6,0-1,0.1s-0.7,0.1-0.9,0.2l-0.7-0.4l0.4-5.4h5.7v1.3h-4.5l-0.3,3.3c0.2,0,0.4-0.1,0.7-0.1
				C166.1,511.5,166.4,511.5,166.8,511.5z M179.9,512c0,0.8-0.1,1.6-0.2,2.4c-0.1,0.8-0.4,1.5-0.8,2.2c-0.4,0.6-0.9,1.2-1.6,1.5
				c-0.7,0.4-1.6,0.6-2.6,0.6c-0.2,0-0.5,0-0.8,0c-0.3,0-0.5-0.1-0.7-0.1v-1.2c0.4,0.1,0.9,0.2,1.4,0.2c0.7,0,1.4-0.1,1.8-0.4
				c0.5-0.2,0.9-0.6,1.2-1c0.3-0.4,0.5-0.9,0.6-1.5c0.1-0.6,0.2-1.2,0.2-1.8h-0.1c-0.2,0.4-0.6,0.7-1,0.9c-0.4,0.3-1,0.4-1.7,0.4
				c-1,0-1.8-0.3-2.4-0.9c-0.6-0.6-0.9-1.5-0.9-2.6c0-0.8,0.1-1.5,0.4-2.1c0.3-0.6,0.7-1,1.3-1.3c0.5-0.3,1.2-0.5,1.9-0.5
				c0.7,0,1.4,0.2,2,0.6c0.6,0.4,1.1,0.9,1.4,1.7C179.7,509.9,179.9,510.8,179.9,512z M176,508.1c-0.7,0-1.2,0.2-1.6,0.7
				c-0.4,0.4-0.6,1.1-0.6,2c0,0.7,0.2,1.3,0.5,1.7c0.4,0.4,0.9,0.6,1.7,0.6c0.5,0,1-0.1,1.3-0.3c0.4-0.2,0.7-0.5,0.9-0.8
				c0.2-0.3,0.3-0.7,0.3-1c0-0.5-0.1-0.9-0.3-1.4s-0.5-0.8-0.8-1.1C177,508.2,176.5,508.1,176,508.1z M189.4,518.5l-1.4-3.5h-4.5
				l-1.4,3.5h-1.5l4.5-11.5h1.3l4.4,11.5H189.4z M186.3,510.2c0-0.1-0.1-0.2-0.2-0.5c-0.1-0.2-0.1-0.5-0.2-0.7
				c-0.1-0.2-0.1-0.4-0.2-0.6c-0.1,0.3-0.2,0.7-0.3,1c-0.1,0.3-0.2,0.6-0.2,0.7l-1.3,3.5h3.6L186.3,510.2z"/>
		</g>
	</g>
	<g>
		<g>
			<path class="st3" d="M27.2,297.5h106.9c4.4,0,8-3.6,8-8v-145c0-4.4-3.6-8-8-8l-106.9,0c-4.4,0-8,3.6-8,8l0,145
				C19.2,293.9,22.8,297.5,27.2,297.5z"/>
			<path class="st8" d="M115.1,281.4c0,0.9,0.3,1.8,0.9,2.5c0.6,0.7,1.4,1.1,2.3,1.3c0.2,0,0.3,0,0.5,0c1,0,2-0.5,2.7-1.2
				c0.7-0.7,1.1-1.7,1-2.7c0,1,0.3,2,1,2.7c0.7,0.7,1.7,1.2,2.7,1.2c0.2,0,0.3,0,0.5,0c0.9-0.2,1.7-0.6,2.3-1.3
				c0.6-0.7,0.9-1.6,0.9-2.5l0,0v-0.1c0-0.8-0.2-1.6-0.7-2.3c-1.7-2.5-4-4.7-6.7-6.1c-2.7,1.5-5,3.6-6.7,6.1
				c-0.5,0.7-0.7,1.5-0.7,2.3L115.1,281.4z"/>
			<path class="st8" d="M46.3,152.5c0-0.9-0.3-1.8-0.9-2.5c-0.6-0.7-1.4-1.1-2.3-1.3h-0.4c-1,0-2,0.5-2.7,1.2
				c-0.7,0.7-1.1,1.7-1,2.7c0-1-0.3-2-1-2.7c-0.7-0.7-1.7-1.2-2.7-1.2h-0.5c-0.9,0.2-1.7,0.6-2.3,1.3c-0.6,0.7-0.9,1.6-0.9,2.5l0,0
				v0.1c0,0.8,0.2,1.6,0.7,2.3c1.7,2.5,4,4.7,6.7,6.1c2.7-1.5,5-3.6,6.7-6.1c0.4-0.7,0.7-1.5,0.7-2.3L46.3,152.5z"/>
			<path class="st9" d="M43.9,229.1c0.3,9.9,7.2,17.9,16.1,19.1c0.8,0.1,1.5,0.2,2.3,0.2c10.2,0,18.4-8.9,18.4-20
				c0,11,8.2,20,18.4,20c0.8,0,1.5-0.1,2.3-0.2c8.9-1.2,15.8-9.2,16.1-19.1c0-0.2,0-0.5,0-0.7c0-4.1-1.1-8-3.3-11.4
				c-10.8-19-33.5-31.2-33.5-31.2S58,197.9,47.1,216.9c-2.2,3.4-3.4,7.4-3.3,11.4C43.8,228.6,43.8,228.8,43.9,229.1z"/>
			<path class="st0" d="M55.3,309.5l-0.5,2.6H57v1.1h-2.4l-0.7,3.3h-1.1l0.7-3.3h-2.3l-0.6,3.3h-1.1l0.6-3.3h-2v-1.1h2.2l0.5-2.6
				h-2.1v-1.1h2.3l0.6-3.4h1.2l-0.6,3.4h2.3l0.6-3.4h1.1l-0.6,3.4h2v1.1H55.3z M51.3,312.1h2.3l0.5-2.6h-2.3L51.3,312.1z
				 M63.6,316.5h-1.4v-8c0-0.5,0-0.8,0-1.1c0-0.3,0-0.6,0-0.9c-0.2,0.2-0.3,0.3-0.5,0.4c-0.1,0.1-0.3,0.3-0.5,0.4l-1.2,1l-0.7-0.9
				l3.1-2.4h1.2V316.5z M75.4,316.5h-7.6v-1.2l3-3c0.6-0.6,1.1-1.1,1.5-1.5c0.4-0.4,0.7-0.9,0.9-1.3c0.2-0.4,0.3-0.9,0.3-1.4
				c0-0.6-0.2-1.1-0.6-1.4c-0.4-0.3-0.9-0.5-1.5-0.5c-0.6,0-1,0.1-1.5,0.3c-0.4,0.2-0.8,0.5-1.3,0.8l-0.8-0.9c0.4-0.4,1-0.7,1.5-0.9
				c0.6-0.3,1.2-0.4,2-0.4c1.1,0,1.9,0.3,2.5,0.8c0.6,0.5,0.9,1.3,0.9,2.2c0,0.6-0.1,1.2-0.4,1.7c-0.2,0.5-0.6,1-1,1.6
				c-0.4,0.5-0.9,1-1.5,1.6l-2.4,2.4v0.1h5.8V316.5z M81.9,316.5h-1.4v-8c0-0.5,0-0.8,0-1.1c0-0.3,0-0.6,0-0.9
				c-0.2,0.2-0.3,0.3-0.5,0.4c-0.1,0.1-0.3,0.3-0.5,0.4l-1.2,1l-0.7-0.9l3.1-2.4h1.2V316.5z M90,304.9c1,0,1.8,0.2,2.5,0.7
				s1,1.1,1,2c0,0.5-0.1,0.9-0.3,1.2c-0.2,0.3-0.5,0.6-0.8,0.9c-0.3,0.3-0.7,0.5-1.1,0.7c0.5,0.2,0.9,0.5,1.3,0.8
				c0.4,0.3,0.7,0.6,0.9,1c0.2,0.4,0.4,0.8,0.4,1.3c0,1-0.3,1.7-1,2.3c-0.7,0.6-1.6,0.8-2.7,0.8c-1.2,0-2.2-0.3-2.8-0.8
				c-0.7-0.5-1-1.3-1-2.3c0-0.5,0.1-1,0.3-1.4c0.2-0.4,0.5-0.7,0.9-1c0.4-0.3,0.8-0.5,1.2-0.7c-0.6-0.3-1-0.7-1.4-1.2
				c-0.4-0.5-0.6-1-0.6-1.7c0-0.6,0.1-1.1,0.4-1.5c0.3-0.4,0.7-0.7,1.2-0.9C88.7,305,89.3,304.9,90,304.9z M89.9,306.1
				c-0.6,0-1.1,0.1-1.5,0.4c-0.4,0.3-0.6,0.7-0.6,1.2c0,0.4,0.1,0.7,0.3,1c0.2,0.3,0.4,0.5,0.8,0.7c0.3,0.2,0.7,0.4,1.1,0.5
				c0.6-0.2,1-0.5,1.4-0.8c0.4-0.3,0.6-0.8,0.6-1.4c0-0.5-0.2-0.9-0.6-1.2C91.1,306.2,90.6,306.1,89.9,306.1z M87.6,313.6
				c0,0.6,0.2,1,0.6,1.4c0.4,0.4,1,0.5,1.8,0.5c0.8,0,1.4-0.2,1.8-0.5c0.4-0.4,0.6-0.9,0.6-1.4c0-0.6-0.2-1-0.7-1.4
				c-0.4-0.4-1-0.7-1.7-1l-0.3-0.1c-0.7,0.3-1.2,0.6-1.6,1C87.7,312.5,87.6,313,87.6,313.6z M102.9,316.5h-7.6v-1.2l3-3
				c0.6-0.6,1.1-1.1,1.5-1.5c0.4-0.4,0.7-0.9,0.9-1.3c0.2-0.4,0.3-0.9,0.3-1.4c0-0.6-0.2-1.1-0.6-1.4c-0.4-0.3-0.9-0.5-1.5-0.5
				c-0.6,0-1,0.1-1.5,0.3c-0.4,0.2-0.8,0.5-1.3,0.8l-0.8-0.9c0.4-0.4,1-0.7,1.5-0.9c0.6-0.3,1.2-0.4,2-0.4c1.1,0,1.9,0.3,2.5,0.8
				c0.6,0.5,0.9,1.3,0.9,2.2c0,0.6-0.1,1.2-0.4,1.7c-0.2,0.5-0.6,1-1,1.6c-0.4,0.5-0.9,1-1.5,1.6l-2.4,2.4v0.1h5.8V316.5z
				 M108.3,304.9c1,0,1.8,0.2,2.5,0.7s1,1.1,1,2c0,0.5-0.1,0.9-0.3,1.2c-0.2,0.3-0.5,0.6-0.8,0.9c-0.3,0.3-0.7,0.5-1.1,0.7
				c0.5,0.2,0.9,0.5,1.3,0.8c0.4,0.3,0.7,0.6,0.9,1c0.2,0.4,0.4,0.8,0.4,1.3c0,1-0.3,1.7-1,2.3c-0.7,0.6-1.6,0.8-2.7,0.8
				c-1.2,0-2.2-0.3-2.8-0.8c-0.7-0.5-1-1.3-1-2.3c0-0.5,0.1-1,0.3-1.4c0.2-0.4,0.5-0.7,0.9-1c0.4-0.3,0.8-0.5,1.2-0.7
				c-0.6-0.3-1-0.7-1.4-1.2c-0.4-0.5-0.6-1-0.6-1.7c0-0.6,0.1-1.1,0.4-1.5c0.3-0.4,0.7-0.7,1.2-0.9C107,305,107.6,304.9,108.3,304.9
				z M108.3,306.1c-0.6,0-1.1,0.1-1.5,0.4c-0.4,0.3-0.6,0.7-0.6,1.2c0,0.4,0.1,0.7,0.3,1c0.2,0.3,0.4,0.5,0.8,0.7
				c0.3,0.2,0.7,0.4,1.1,0.5c0.6-0.2,1-0.5,1.4-0.8c0.4-0.3,0.6-0.8,0.6-1.4c0-0.5-0.2-0.9-0.6-1.2
				C109.4,306.2,108.9,306.1,108.3,306.1z M105.9,313.6c0,0.6,0.2,1,0.6,1.4c0.4,0.4,1,0.5,1.8,0.5c0.8,0,1.4-0.2,1.8-0.5
				c0.4-0.4,0.6-0.9,0.6-1.4c0-0.6-0.2-1-0.7-1.4c-0.4-0.4-1-0.7-1.7-1l-0.3-0.1c-0.7,0.3-1.2,0.6-1.6,1
				C106.1,312.5,105.9,313,105.9,313.6z"/>
		</g>
		<g>
			<path class="st3" d="M181.2,297.5h106.9c4.4,0,8-3.6,8-8v-145c0-4.4-3.6-8-8-8l-106.9,0c-4.4,0-8,3.6-8,8v145
				C173.2,293.9,176.8,297.5,181.2,297.5z"/>
			<path class="st10" d="M269.1,281.4c0,0.9,0.3,1.8,0.9,2.5c0.6,0.7,1.4,1.1,2.3,1.3c0.2,0,0.3,0,0.5,0c1,0,2-0.5,2.7-1.2
				c0.7-0.7,1.1-1.7,1-2.7c0,1,0.3,2,1,2.7c0.7,0.7,1.7,1.2,2.7,1.2c0.2,0,0.3,0,0.5,0c0.9-0.2,1.7-0.6,2.3-1.3
				c0.6-0.7,0.9-1.6,0.9-2.5v-0.1c0-0.8-0.2-1.6-0.7-2.3c-1.7-2.5-4-4.7-6.7-6.1c-2.7,1.5-5,3.6-6.7,6.1c-0.5,0.7-0.7,1.5-0.7,2.3
				L269.1,281.4z"/>
			<path class="st10" d="M200.3,152.5c0-0.9-0.3-1.8-0.9-2.5c-0.6-0.7-1.4-1.1-2.3-1.3h-0.4c-1,0-2,0.5-2.7,1.2
				c-0.7,0.7-1.1,1.7-1,2.7c0-1-0.3-2-1-2.7c-0.7-0.7-1.7-1.2-2.7-1.2h-0.5c-0.9,0.2-1.7,0.6-2.3,1.3c-0.6,0.7-0.9,1.6-0.9,2.5v0.1
				c0,0.8,0.2,1.6,0.7,2.3c1.7,2.5,4,4.7,6.7,6.1c2.7-1.5,5-3.6,6.7-6.1c0.4-0.7,0.7-1.5,0.7-2.3L200.3,152.5z"/>
			<path class="st11" d="M197.9,229.1c0.3,9.9,7.2,17.9,16.1,19.1c0.8,0.1,1.5,0.2,2.3,0.2c10.2,0,18.4-8.9,18.4-20
				c0,11,8.2,20,18.4,20c0.8,0,1.5-0.1,2.3-0.2c8.9-1.2,15.8-9.2,16.1-19.1c0-0.2,0-0.5,0-0.7c0-4.1-1.1-8-3.3-11.4
				c-10.8-19-33.5-31.2-33.5-31.2s-22.7,12.2-33.5,31.2c-2.2,3.4-3.4,7.4-3.3,11.4C197.8,228.6,197.8,228.8,197.9,229.1z"/>
			<path class="st0" d="M211,309.5l-0.5,2.6h2.2v1.1h-2.4l-0.7,3.3h-1.1l0.7-3.3h-2.3l-0.6,3.3h-1.1l0.6-3.3h-2v-1.1h2.2l0.5-2.6
				h-2.1v-1.1h2.3l0.6-3.4h1.2l-0.6,3.4h2.3l0.6-3.4h1.1l-0.6,3.4h2v1.1H211z M207.1,312.1h2.3l0.5-2.6h-2.3L207.1,312.1z
				 M221.6,307.7c0,0.8-0.2,1.4-0.6,1.8c-0.4,0.4-1,0.7-1.7,0.9v0.1c0.9,0.1,1.6,0.4,2,0.9s0.7,1.1,0.7,1.8c0,0.7-0.2,1.3-0.5,1.8
				c-0.3,0.5-0.8,0.9-1.4,1.2c-0.6,0.3-1.5,0.4-2.5,0.4c-0.6,0-1.2,0-1.7-0.1c-0.5-0.1-1-0.2-1.5-0.5v-1.3c0.5,0.2,1,0.4,1.6,0.6
				c0.6,0.1,1.1,0.2,1.6,0.2c1,0,1.8-0.2,2.2-0.6c0.5-0.4,0.7-1,0.7-1.7c0-0.7-0.3-1.2-0.8-1.5c-0.6-0.3-1.3-0.5-2.4-0.5h-1.1V310
				h1.1c0.9,0,1.6-0.2,2.1-0.6c0.5-0.4,0.7-0.9,0.7-1.6c0-0.6-0.2-1-0.6-1.3c-0.4-0.3-0.9-0.5-1.5-0.5c-0.6,0-1.1,0.1-1.6,0.3
				c-0.4,0.2-0.9,0.4-1.3,0.7l-0.7-1c0.4-0.3,0.9-0.6,1.5-0.8c0.6-0.2,1.3-0.4,2.1-0.4c1.2,0,2.1,0.3,2.7,0.8
				C221.3,306.2,221.6,306.9,221.6,307.7z M230.8,316.5h-6.4v-11.4h6.4v1.3h-4.9v3.6h4.7v1.2h-4.7v4.1h4.9V316.5z M240.6,313.9h-1.7
				v2.6h-1.4v-2.6h-5.5v-1.2l5.4-7.7h1.5v7.6h1.7V313.9z M237.6,309c0-0.6,0-1,0-1.4c0-0.4,0-0.8,0-1.1h-0.1
				c-0.1,0.2-0.2,0.4-0.3,0.7c-0.1,0.2-0.3,0.4-0.4,0.6l-3.4,4.9h4.1V309z M246.6,316.5h-1.4v-8c0-0.5,0-0.8,0-1.1
				c0-0.3,0-0.6,0-0.9c-0.2,0.2-0.3,0.3-0.5,0.4c-0.1,0.1-0.3,0.3-0.5,0.4l-1.2,1l-0.7-0.9l3.1-2.4h1.2V316.5z M254.6,304.9
				c1,0,1.8,0.2,2.5,0.7c0.6,0.5,1,1.1,1,2c0,0.5-0.1,0.9-0.3,1.2c-0.2,0.3-0.5,0.6-0.8,0.9c-0.3,0.3-0.7,0.5-1.1,0.7
				c0.5,0.2,0.9,0.5,1.3,0.8c0.4,0.3,0.7,0.6,0.9,1c0.2,0.4,0.4,0.8,0.4,1.3c0,1-0.3,1.7-1,2.3c-0.7,0.6-1.6,0.8-2.7,0.8
				c-1.2,0-2.2-0.3-2.8-0.8c-0.7-0.5-1-1.3-1-2.3c0-0.5,0.1-1,0.3-1.4c0.2-0.4,0.5-0.7,0.9-1c0.4-0.3,0.8-0.5,1.2-0.7
				c-0.6-0.3-1-0.7-1.4-1.2c-0.4-0.5-0.6-1-0.6-1.7c0-0.6,0.1-1.1,0.4-1.5c0.3-0.4,0.7-0.7,1.2-0.9C253.4,305,254,304.9,254.6,304.9
				z M254.6,306.1c-0.6,0-1.1,0.1-1.5,0.4c-0.4,0.3-0.6,0.7-0.6,1.2c0,0.4,0.1,0.7,0.3,1c0.2,0.3,0.4,0.5,0.8,0.7
				c0.3,0.2,0.7,0.4,1.1,0.5c0.6-0.2,1-0.5,1.4-0.8c0.4-0.3,0.6-0.8,0.6-1.4c0-0.5-0.2-0.9-0.6-1.2
				C255.7,306.2,255.2,306.1,254.6,306.1z M252.2,313.6c0,0.6,0.2,1,0.6,1.4c0.4,0.4,1,0.5,1.8,0.5c0.8,0,1.4-0.2,1.8-0.5
				c0.4-0.4,0.6-0.9,0.6-1.4c0-0.6-0.2-1-0.7-1.4c-0.4-0.4-1-0.7-1.7-1l-0.3-0.1c-0.7,0.3-1.2,0.6-1.6,1
				C252.4,312.5,252.2,313,252.2,313.6z M267.1,316.5h-6.4v-11.4h6.4v1.3h-4.9v3.6h4.7v1.2h-4.7v4.1h4.9V316.5z"/>
		</g>
		<g>
			<path class="st3" d="M335.2,297.5h106.9c4.4,0,8-3.6,8-8v-145c0-4.4-3.6-8-8-8l-106.9,0c-4.4,0-8,3.6-8,8v145
				C327.2,293.9,330.8,297.5,335.2,297.5z"/>
			<path class="st12" d="M423.1,281.4c0,0.9,0.3,1.8,0.9,2.5c0.6,0.7,1.4,1.1,2.3,1.3c0.2,0,0.3,0,0.5,0c1,0,2-0.5,2.7-1.2
				c0.7-0.7,1.1-1.7,1-2.7c0,1,0.3,2,1,2.7c0.7,0.7,1.7,1.2,2.7,1.2c0.2,0,0.3,0,0.5,0c0.9-0.2,1.7-0.6,2.3-1.3
				c0.6-0.7,0.9-1.6,0.9-2.5v-0.1c0-0.8-0.2-1.6-0.7-2.3c-1.7-2.5-4-4.7-6.7-6.1c-2.7,1.5-5,3.6-6.7,6.1c-0.5,0.7-0.7,1.5-0.7,2.3
				L423.1,281.4z"/>
			<path class="st12" d="M354.3,152.5c0-0.9-0.3-1.8-0.9-2.5c-0.6-0.7-1.4-1.1-2.3-1.3h-0.5c-1,0-2,0.5-2.7,1.2
				c-0.7,0.7-1.1,1.7-1,2.7c0-1-0.3-2-1-2.7c-0.7-0.7-1.7-1.2-2.7-1.2h-0.5c-0.9,0.2-1.7,0.6-2.3,1.3c-0.6,0.7-0.9,1.6-0.9,2.5v0.1
				c0,0.8,0.2,1.6,0.7,2.3c1.7,2.5,4,4.7,6.7,6.1c2.7-1.5,5-3.6,6.7-6.1c0.4-0.7,0.7-1.5,0.7-2.3L354.3,152.5z"/>
			<path class="st13" d="M351.9,229.1c0.3,9.9,7.2,17.9,16.1,19.1c0.8,0.1,1.5,0.2,2.3,0.2c10.2,0,18.4-8.9,18.4-20
				c0,11,8.2,20,18.4,20c0.8,0,1.5-0.1,2.3-0.2c8.9-1.2,15.8-9.2,16.1-19.1c0-0.2,0-0.5,0-0.7c0-4.1-1.1-8-3.3-11.4
				c-10.8-19-33.5-31.2-33.5-31.2s-22.7,12.2-33.5,31.2c-2.2,3.4-3.4,7.4-3.3,11.4C351.8,228.6,351.8,228.8,351.9,229.1z"/>
			<path class="st0" d="M366.2,309.5l-0.5,2.6h2.2v1.1h-2.4l-0.7,3.3h-1.1l0.7-3.3h-2.3l-0.6,3.3h-1.1l0.6-3.3h-2v-1.1h2.2l0.5-2.6
				h-2.1v-1.1h2.3l0.6-3.4h1.2l-0.6,3.4h2.3l0.6-3.4h1.1l-0.6,3.4h2v1.1H366.2z M362.3,312.1h2.3l0.5-2.6h-2.3L362.3,312.1z
				 M373.4,304.9c1,0,1.8,0.2,2.5,0.7c0.6,0.5,1,1.1,1,2c0,0.5-0.1,0.9-0.3,1.2c-0.2,0.3-0.5,0.6-0.8,0.9c-0.3,0.3-0.7,0.5-1.1,0.7
				c0.5,0.2,0.9,0.5,1.3,0.8c0.4,0.3,0.7,0.6,0.9,1c0.2,0.4,0.4,0.8,0.4,1.3c0,1-0.3,1.7-1,2.3c-0.7,0.6-1.6,0.8-2.7,0.8
				c-1.2,0-2.2-0.3-2.8-0.8c-0.7-0.5-1-1.3-1-2.3c0-0.5,0.1-1,0.3-1.4c0.2-0.4,0.5-0.7,0.9-1c0.4-0.3,0.8-0.5,1.2-0.7
				c-0.6-0.3-1-0.7-1.4-1.2c-0.4-0.5-0.6-1-0.6-1.7c0-0.6,0.1-1.1,0.4-1.5c0.3-0.4,0.7-0.7,1.2-0.9
				C372.2,305,372.8,304.9,373.4,304.9z M373.4,306.1c-0.6,0-1.1,0.1-1.5,0.4c-0.4,0.3-0.6,0.7-0.6,1.2c0,0.4,0.1,0.7,0.3,1
				c0.2,0.3,0.4,0.5,0.8,0.7c0.3,0.2,0.7,0.4,1.1,0.5c0.6-0.2,1-0.5,1.4-0.8c0.4-0.3,0.6-0.8,0.6-1.4c0-0.5-0.2-0.9-0.6-1.2
				C374.5,306.2,374,306.1,373.4,306.1z M371,313.6c0,0.6,0.2,1,0.6,1.4c0.4,0.4,1,0.5,1.8,0.5c0.8,0,1.4-0.2,1.8-0.5
				c0.4-0.4,0.6-0.9,0.6-1.4c0-0.6-0.2-1-0.7-1.4c-0.4-0.4-1-0.7-1.7-1l-0.3-0.1c-0.7,0.3-1.2,0.6-1.6,1
				C371.2,312.5,371,313,371,313.6z M385.9,307.7c0,0.8-0.2,1.4-0.6,1.8c-0.4,0.4-1,0.7-1.7,0.9v0.1c0.9,0.1,1.6,0.4,2,0.9
				s0.7,1.1,0.7,1.8c0,0.7-0.2,1.3-0.5,1.8c-0.3,0.5-0.8,0.9-1.4,1.2c-0.6,0.3-1.5,0.4-2.5,0.4c-0.6,0-1.2,0-1.7-0.1
				c-0.5-0.1-1-0.2-1.5-0.5v-1.3c0.5,0.2,1,0.4,1.6,0.6c0.6,0.1,1.1,0.2,1.6,0.2c1,0,1.8-0.2,2.2-0.6c0.5-0.4,0.7-1,0.7-1.7
				c0-0.7-0.3-1.2-0.8-1.5c-0.6-0.3-1.3-0.5-2.4-0.5h-1.1V310h1.1c0.9,0,1.6-0.2,2.1-0.6c0.5-0.4,0.7-0.9,0.7-1.6
				c0-0.6-0.2-1-0.6-1.3c-0.4-0.3-0.9-0.5-1.5-0.5c-0.6,0-1.1,0.1-1.6,0.3c-0.4,0.2-0.9,0.4-1.3,0.7l-0.7-1c0.4-0.3,0.9-0.6,1.5-0.8
				c0.6-0.2,1.3-0.4,2.1-0.4c1.2,0,2.1,0.3,2.7,0.8C385.6,306.2,385.9,306.9,385.9,307.7z M391.6,309.5c1.2,0,2.1,0.3,2.8,0.9
				c0.7,0.6,1,1.4,1,2.5c0,1.2-0.4,2.1-1.1,2.8c-0.7,0.7-1.8,1-3.1,1c-0.6,0-1.1-0.1-1.7-0.2c-0.5-0.1-0.9-0.3-1.3-0.5v-1.3
				c0.4,0.2,0.8,0.4,1.4,0.6c0.6,0.1,1.1,0.2,1.6,0.2c0.8,0,1.5-0.2,2-0.6c0.5-0.4,0.8-1,0.8-1.9c0-0.7-0.2-1.3-0.7-1.7
				c-0.5-0.4-1.2-0.6-2.2-0.6c-0.3,0-0.6,0-1,0.1c-0.4,0.1-0.7,0.1-0.9,0.2l-0.7-0.4l0.4-5.4h5.7v1.3h-4.5l-0.3,3.3
				c0.2,0,0.4-0.1,0.7-0.1C390.9,309.5,391.2,309.5,391.6,309.5z M404.2,307.7c0,0.8-0.2,1.4-0.6,1.8c-0.4,0.4-1,0.7-1.7,0.9v0.1
				c0.9,0.1,1.6,0.4,2,0.9c0.4,0.5,0.7,1.1,0.7,1.8c0,0.7-0.2,1.3-0.5,1.8c-0.3,0.5-0.8,0.9-1.4,1.2c-0.6,0.3-1.5,0.4-2.5,0.4
				c-0.6,0-1.2,0-1.7-0.1c-0.5-0.1-1-0.2-1.5-0.5v-1.3c0.5,0.2,1,0.4,1.6,0.6c0.6,0.1,1.1,0.2,1.6,0.2c1,0,1.8-0.2,2.2-0.6
				c0.5-0.4,0.7-1,0.7-1.7c0-0.7-0.3-1.2-0.8-1.5c-0.6-0.3-1.3-0.5-2.4-0.5h-1.1V310h1.1c0.9,0,1.6-0.2,2.1-0.6
				c0.5-0.4,0.7-0.9,0.7-1.6c0-0.6-0.2-1-0.6-1.3c-0.4-0.3-0.9-0.5-1.5-0.5c-0.6,0-1.1,0.1-1.6,0.3c-0.4,0.2-0.9,0.4-1.3,0.7l-0.7-1
				c0.4-0.3,0.9-0.6,1.5-0.8c0.6-0.2,1.3-0.4,2.1-0.4c1.2,0,2.1,0.3,2.7,0.8C403.9,306.2,404.2,306.9,404.2,307.7z M413.8,310
				c0,0.8-0.1,1.6-0.2,2.4c-0.1,0.8-0.4,1.5-0.8,2.2c-0.4,0.6-0.9,1.2-1.6,1.5c-0.7,0.4-1.6,0.6-2.6,0.6c-0.2,0-0.5,0-0.8,0
				c-0.3,0-0.5-0.1-0.7-0.1v-1.2c0.4,0.1,0.9,0.2,1.4,0.2c0.7,0,1.4-0.1,1.8-0.4c0.5-0.2,0.9-0.6,1.2-1c0.3-0.4,0.5-0.9,0.6-1.5
				c0.1-0.6,0.2-1.2,0.2-1.8h-0.1c-0.2,0.4-0.6,0.7-1,0.9c-0.4,0.3-1,0.4-1.7,0.4c-1,0-1.8-0.3-2.4-0.9c-0.6-0.6-0.9-1.5-0.9-2.6
				c0-0.8,0.1-1.5,0.4-2.1c0.3-0.6,0.7-1,1.3-1.3c0.5-0.3,1.2-0.5,1.9-0.5c0.7,0,1.4,0.2,2,0.6c0.6,0.4,1,0.9,1.4,1.7
				C413.6,307.9,413.8,308.8,413.8,310z M409.9,306.1c-0.7,0-1.2,0.2-1.6,0.7c-0.4,0.4-0.6,1.1-0.6,2c0,0.7,0.2,1.3,0.5,1.7
				c0.4,0.4,0.9,0.6,1.7,0.6c0.5,0,1-0.1,1.3-0.3c0.4-0.2,0.7-0.5,0.9-0.8c0.2-0.3,0.3-0.7,0.3-1c0-0.5-0.1-0.9-0.3-1.4
				c-0.2-0.4-0.5-0.8-0.8-1.1C410.9,306.2,410.5,306.1,409.9,306.1z M417.6,316.5h-1.4v-11.4h6.4v1.3h-4.9v4h4.6v1.3h-4.6V316.5z"/>
		</g>
	</g>
</g>
<g>
	<path class="st14" d="M302.5,27.7v-3.2c0-1.6-0.6-3.1-1.7-4.2c-1.1-1.1-2.6-1.8-4.1-1.8H180.7c-1.6,0-3,0.6-4.1,1.8
		c-1.1,1.1-1.7,2.7-1.7,4.2v3.2c-6.9,0-13.6,2.8-18.5,7.8s-7.7,11.8-7.7,18.9s2.8,13.9,7.7,18.9c4.9,5,11.6,7.8,18.5,7.8v3.2
		c0,0.8,0.1,1.6,0.4,2.3c0.3,0.7,0.7,1.4,1.3,1.9c0.5,0.6,1.2,1,1.9,1.3c0.7,0.3,1.5,0.5,2.2,0.5h115.9c0.8,0,1.5-0.2,2.2-0.5
		c0.7-0.3,1.4-0.7,1.9-1.3s1-1.2,1.3-1.9c0.3-0.7,0.4-1.5,0.4-2.3v-3.2c6.9,0,13.6-2.8,18.5-7.8c4.9-5,7.7-11.8,7.7-18.9
		s-2.8-13.9-7.7-18.9S309.4,27.7,302.5,27.7z"/>
	<path class="st15" d="M180.7,84.8c0,0-0.1,0-0.1,0c0,0-0.1,0-0.1-0.1c0,0,0-0.1-0.1-0.1c0,0,0-0.1,0-0.1v-3.2c0-1.5-0.6-3-1.6-4
		c-1-1.1-2.5-1.7-3.9-1.7c-5.5,0-10.7-2.2-14.6-6.2c-3.9-4-6-9.3-6-14.9c0-5.6,2.2-11,6-14.9c3.9-4,9.1-6.2,14.6-6.2
		c1.5,0,2.9-0.6,3.9-1.7c1-1.1,1.6-2.5,1.6-4v-3.2c0-0.1,0-0.2,0.1-0.2c0.1-0.1,0.1-0.1,0.2-0.1h115.9c0.1,0,0.1,0,0.2,0.1
		c0.1,0.1,0.1,0.1,0.1,0.2v3.2c0,1.5,0.6,3,1.6,4c1,1.1,2.5,1.7,3.9,1.7c5.5,0,10.7,2.2,14.6,6.2c3.9,4,6,9.3,6,14.9
		c0,5.6-2.2,11-6,14.9s-9.1,6.2-14.6,6.2c-1.5,0-2.9,0.6-3.9,1.7c-1,1.1-1.6,2.5-1.6,4v3.2c0,0,0,0.1,0,0.1c0,0,0,0.1-0.1,0.1
		c0,0-0.1,0.1-0.1,0.1c0,0-0.1,0-0.1,0H180.7z"/>
	<path class="st16" d="M215.7,52.1l0,0.5l0.5,0l1.5-0.1c1-0.1,2-0.2,2.9-0.3c0.4-0.1,0.7-0.1,1-0.1c0.1,0,0.2,0,0.2,0v0.1
		c0,0,0,0,0,0c0,0-0.1,0.1-0.3,0.1c-0.5,0.1-1,0.2-1.6,0.2c-1,0-1.9,0.2-2.9,0.4l0,0l0,0c-0.2,0.1-0.3,0.1-0.4,0.2
		c-0.1,0-0.1,0.1-0.1,0.1c0,0,0,0,0,0l0,0l0,0l0,0l0,0l0,0l0,0c0,0,0,0,0.3,0.4l-0.3-0.4l0,0c-0.2,0.1-0.3,0.3-0.3,0.5
		c-0.1,0.2-0.1,0.5,0,0.7c0.1,0.8,0.2,1.6,0.4,2.5c0.2,1,0.3,1.6,0.3,2c0,0.2,0,0.3,0,0.3h-0.1h0l0,0c0,0-0.1,0-0.1,0c0,0,0,0,0,0
		c-0.1-0.4-0.2-0.7-0.2-1.1l0,0l0,0c0-0.3-0.1-0.6-0.1-0.9c-0.1-1-0.2-1.7-0.3-2.2l0,0c-0.5-3.4-0.7-5.3-0.8-6.5
		c-0.1-0.6-0.1-0.9-0.1-1.2c0-0.2,0-0.3,0-0.3c0,0,0,0,0,0c0.1,0.1,0.2,0.3,0.2,0.5c0.2,0.9,0.3,1.8,0.3,2.8h0l0,0L215.7,52.1z"/>
	<path class="st16" d="M204.1,50.3l-0.6,0.1c-0.2,0-0.5,0-0.7,0c0,0,0,0,0,0c0,0,0,0,0,0l0,0l0,0c0,0,0,0,0,0c0,0,0,0,0.1,0
		c0.1,0,0.2-0.1,0.3-0.1c0.3-0.1,0.7-0.2,1.2-0.4c0.5-0.1,1.2-0.3,2.1-0.5c1.1-0.2,1.8-0.3,2.1-0.4c0,0,0,0,0,0c0,0,0,0,0,0.1
		c0,0-0.1,0-0.1,0.1c-0.2,0.1-0.5,0.2-0.9,0.3v0l0,0l-0.7,0.2l-0.8,0.2l0,0l-0.6,0.1l0,0l0,0l-0.7,0.2l-0.4,0.1v0.1L204.1,50.3z
		 M208.6,48.6C208.6,48.6,208.6,48.6,208.6,48.6C208.6,48.6,208.6,48.6,208.6,48.6z M208.6,48.9C208.6,48.9,208.6,48.9,208.6,48.9
		C208.6,48.9,208.6,48.9,208.6,48.9z M204.4,51.3L204.4,51.3l0.1,2.1v0l0,0c0.1,1.5,0.1,2.3,0.1,2.6v0v0.1l0,0.1
		c0.1,0.4,0.3,0.8,0.7,1c0.5,0.4,0.9,0.6,1.2,0.6h0.1l0.1,0c1-0.2,1.9-0.6,2.8-1.1c1.3-0.6,1.9-0.8,2.3-0.9c0,0,0,0,0.1,0
		c0,0,0,0,0,0c0,0-0.1,0.1-0.2,0.2c-0.3,0.2-1,0.6-2.2,1.1l0,0l0,0c-0.9,0.4-1.8,0.8-2.8,1h-0.3c-0.3,0-0.6-0.1-0.8-0.3l0,0l0,0
		c-0.4-0.3-0.7-0.7-0.8-1.1c-0.2-0.9-0.4-1.8-0.4-2.7l0,0l0,0c0-0.7,0-1.4,0-2C204.2,51.7,204.2,51.4,204.4,51.3L204.4,51.3
		L204.4,51.3z"/>
	<path class="st16" d="M227.8,45.5L227.8,45.5L227.8,45.5c-0.2,0.1-0.3,0.1-0.4,0.2c0,0,0-0.1,0-0.1c0-0.1,0.2-0.2,0.5-0.4
		c0.4-0.2,1-0.3,1.8-0.4l0,0l0,0c0.6-0.1,1.1-0.1,1.7-0.1c0.5,0.1,1,0.2,1.4,0.5l0,0l0,0c0.4,0.2,0.8,0.5,1,0.8
		c0.2,0.4,0.4,0.9,0.4,1.4h0l0,0c0,1,0,2-0.1,2.9l0,0l0,0c0,1.6-0.2,3.1-0.6,4.6l0,0h0c0,0,0,0,0,0c0,0,0,0,0,0c0,0,0-0.1,0-0.1
		c0-0.8,0.1-1.7,0.2-2.5c0.1-0.6,0.2-1.3,0.2-1.9l0-0.5h-0.5c-0.2,0-0.8,0-2.8,0.1l0,0l0,0c-1.5,0.1-2.2,0-2.6,0c0,0,0,0-0.1,0
		c0,0,0,0,0,0l0,0l0,0c0,0,0.1-0.1,0.3-0.1c0.3-0.1,0.9-0.1,1.9-0.1c0.9,0.1,1.9,0,2.8-0.2c0.3-0.1,0.6-0.3,0.7-0.5l0.1-0.1l0-0.1
		c0-0.4,0-0.9,0-1.3c0-0.4,0-0.9-0.1-1.3l0,0l0,0c-0.1-0.2-0.3-0.5-0.8-0.8l0,0l0,0c-0.3-0.2-0.6-0.3-1-0.4l0,0l0,0
		c-0.5-0.1-0.9-0.1-1.4,0C229.4,45,228.6,45.2,227.8,45.5z M227.9,50C227.9,50,227.9,50,227.9,50C227.9,50,227.9,50,227.9,50z"/>
	<path class="st16" d="M235.7,59.1L235.7,59.1L235.7,59.1c1,0,1.6,0,1.9,0c0,0,0,0.1,0,0.1c0,0,0,0-0.1,0c-0.1,0.1-0.3,0.1-0.6,0.1
		c-0.6,0.1-1.9,0.1-4.1,0.2c-3.2,0.1-5.6,0.2-7,0.3l-1.8,0.1v-0.6h2.4l0,0l0,0c2.1,0,3.7-0.1,5-0.2
		C232.6,59.1,234.1,59.1,235.7,59.1z M237.6,59.2C237.6,59.2,237.6,59.2,237.6,59.2L237.6,59.2z"/>
	<path class="st16" d="M261.4,60.4L261.4,60.4C261.5,60.5,261.5,60.5,261.4,60.4C261.5,60.5,261.5,60.5,261.4,60.4
		c-0.1,0.1-0.2,0.1-0.5,0.1c-0.7,0-2.1,0.1-4.7,0.1h0c-3.5,0.1-5.7,0.1-6.6,0.3l0,0l0,0c-0.3,0.1-0.6,0.1-0.9,0.1l0,0c0,0,0,0,0-0.1
		c0-0.1,0-0.2,0.1-0.3c0.1-0.1,0.1-0.1,0.2-0.2l0,0l0,0c0.3-0.1,0.7-0.2,1.1-0.1l0,0l0,0c0.8,0.1,1.6,0.1,2.4,0l1.5-0.1l0.5,0l0-0.5
		l-0.1-2.8v0l0,0c-0.1-1.1-0.1-2.1,0-3.2c0,0,0,0,0.1-0.1c0,0,0,0,0.1,0c0,0,0,0.1,0,0.1c0,0.6,0,1.2,0,1.7l0,0v0
		c0,1.1,0,2.2,0.1,3.3l0,0l0,0l0.1,1l0.1,0.4h0.4h3.1h1.2h0.9h0.6L261.4,60.4C261.4,60.4,261.4,60.4,261.4,60.4z"/>
	<path class="st17" d="M250.8,44.2C250.8,44.2,250.8,44.2,250.8,44.2C250.8,44.1,250.8,44.1,250.8,44.2
		C250.8,44.1,250.8,44.2,250.8,44.2C250.7,44.2,250.7,44.2,250.8,44.2c-0.1,1.3-0.1,2.5,0,3.8l0,0l0,0c0,1.2,0.2,2.3,0.4,3.5
		c0,0.1,0.1,0.2,0.1,0.2c0.1,0.1,0.2,0.1,0.2,0.1h0l0,0c0.1,0,0.1,0,0.2,0c2-0.6,3.1-0.9,3.8-1.1c0.4-0.1,0.6-0.1,0.8-0.1
		c0.1,0,0.3,0,0.4,0c0,0,0,0,0,0c0,0,0,0,0,0l0.3,0.4l-0.3-0.4c0,0,0,0,0,0c0,0,0,0,0-0.1v0l0,0c0.2-0.8,0.3-1.6,0.3-2.5v0l0,0
		c0.1-0.9,0.1-1.7-0.1-2.6c-0.2-0.3-0.4-0.6-0.7-0.8c-0.3-0.2-0.6-0.4-0.9-0.5c-0.8-0.2-1.7-0.2-2.5,0.1L250.8,44.2z M250.8,44.2
		c0,0.1,0,0.3,0,0.4c0,0.1,0.1,0.2,0.2,0.3l0.1,0.1l0.1,0l0,0l0,0v0c0,0,0,0,0,0l0,0c0,0,0.2,0,0.4,0c0.1-0.1,0.2-0.2,0.2-0.2
		c0,0,0,0,0,0c0,0,0,0,0,0c0.1-0.1,0.2-0.2,1.2-0.6L250.8,44.2z M251,44.3C251,44.3,251,44.3,251,44.3L251,44.3z M251.5,45.4
		l-0.7-0.2v0.7v0v0l0,0c0.1,0.3,0.1,1.2,0.3,2.8c0,0.7,0.1,1.5,0.3,2.2l0.1,0.5l0.5-0.1c0.2,0,0.8-0.2,1.9-0.6
		c1.2-0.4,1.9-0.7,2.2-0.8c0.3-0.1,0.5-0.3,0.7-0.6l0,0l0,0c0.1-0.3,0.2-0.6,0.2-1c0.3-1.1,0.2-2.2-0.2-3.2l0-0.1l-0.1-0.1
		c-0.5-0.4-1.2-0.7-1.9-0.7c-0.4,0-0.8,0-1.3,0l0,0l0,0c-0.3,0-0.6,0.1-0.9,0.3l0,0l0,0c-0.3,0.2-0.5,0.4-0.7,0.6l0,0l0,0
		c0,0.1-0.1,0.1-0.1,0.1C251.6,45.4,251.6,45.4,251.5,45.4z M250.9,45.9L250.9,45.9C250.9,45.9,250.9,45.9,250.9,45.9
		C250.9,45.9,250.9,45.9,250.9,45.9c-0.1-0.1-0.1-0.1,0-0.2c0-0.1,0.1-0.2,0.2-0.2c0.1-0.1,0.2-0.1,0.3-0.1c0,0,0.1,0,0.1,0
		c0.1,0,0.1,0.1,0.1,0.1c0,0,0,0,0,0c0,0,0.1,0.1,0.1,0.1l-0.3,0.1l-0.4,0.1L250.9,45.9z"/>
	<path class="st16" d="M265.4,46.3L265.4,46.3L265.4,46.3c-0.1,0-0.2,0-0.3-0.1c0,0,0,0,0,0c0,0,0,0,0,0l0,0l0,0c0,0,0,0,0,0
		c0,0,0,0,0,0c0.3-0.1,0.5-0.1,0.8-0.1v0l0,0c0.9,0,1.8-0.1,2.6-0.3c0.7-0.1,1.4-0.2,2.2-0.3c0.1,0,0.2,0,0.2,0
		c-0.1,0.1-0.3,0.2-0.6,0.3c-0.8,0.3-1.6,0.5-2.5,0.6c-0.4,0-0.8,0.2-1.1,0.3l-0.1,0l0,0c-0.3,0.2-0.5,0.5-0.6,0.9
		c-0.3,0.7-0.5,1.6-0.5,2.4c0,1.1,0.2,1.7,0.4,2l0,0l0,0c0.3,0.2,0.7,0.3,1,0.2c0.4,0,1.2-0.1,2.3-0.3c1.4-0.2,2.2-0.3,2.5-0.3
		c0.1,0,0.2,0,0.3,0c0,0,0,0,0.1,0.1c0,0,0,0.1,0,0.1c0,0,0,0,0,0c-0.1,0-0.2,0.1-0.3,0.1c-0.2,0-0.4,0.1-0.8,0.1
		c-0.4,0-1,0.1-1.8,0.2c-1.5,0.2-2.4,0.2-2.9,0.2h0h0l0,0c-0.2,0-0.3,0-0.5,0c-0.2-0.1-0.4-0.3-0.5-0.5c-0.2-0.7-0.3-1.5-0.2-2.2
		l0,0l0,0c0-0.8,0.2-1.5,0.5-2.2c0.1-0.1,0.1-0.2,0.2-0.3l0.4-0.7h-0.8H265.4z M271.1,45.2C271.1,45.2,271.1,45.2,271.1,45.2
		C271.1,45.2,271.1,45.2,271.1,45.2z M272.4,51.7C272.4,51.7,272.4,51.7,272.4,51.7C272.4,51.7,272.4,51.7,272.4,51.7z"/>
	<path class="st16" d="M263.8,58.9c-0.2,0-0.3,0-0.3-0.1c0,0,0.1-0.1,0.1-0.1c0,0,0.1-0.1,0.3-0.1c0.2,0,0.4,0,0.7,0
		c0.6,0.1,2.5,0.2,5.6,0.2c1.1,0,2,0,2.7,0c0.2,0,0.4,0,0.6,0c0.3,0,0.5,0,0.7,0c0,0,0,0,0,0c0,0,0.1,0,0.1,0c0.1,0,0.1,0,0.2,0.1
		c0,0,0,0,0,0c0,0-0.1,0.1-0.3,0.2c-0.2,0.1-0.5,0.1-0.7,0.1l0,0h0h0h0h0h0h0h0h0h0h0h0h0h0h0h0h0h0h0h0h0h0h0h0h0h0h0h0h0h0h0h0h0
		h0h0h0h0h0h0h0h0h0h0h0h0h0h0h0h0h0h0h0h0h0h0h0h0h0h0h0h0h0h0h0h0h0h0h0h0h0h0h0h0h0h0h0h0h0h0h0h0h0h0h0h0h0h0h0h0h0h0h0h0h0h0h0
		h0h0h0h0h0h0h0h0h0h0h0h0h0h0h0h0h0h0h0h0h0h0h0h0h0h0h0h0h0h0h0h0h0h0h0h0h0h0h0h0h0h0h0h0h0h0h0h0h0h0h0h0h0h0h0h0h0h0h0h0h0h0h0
		h0h0h0h0h0h0h0h0h0h0h0h0h0h0h0h0h0h0h0h0h0h0h0h0h0h0h0h0h0h0h0h0h0h0h0h0h0h0h0h0h0h0h0h0h0h0h0h0h0h0h0h0h0h0h0h0h0h0h0h0h0h0h0
		h0h0h0h0h0h0h0h0h0h0h0h0h0h0h0h0h0h0h0h0h0h0h0h0h0h0h0h0h0h0h0h0h0h0h0h0h0h0h0h0h0h0h0h0h0h0h0h0h0h0h0h0h0h0h0h0h0h0h0h0h0h0h0
		h0h0h0h0h0h0h0h0h0h0h0h0h0h0h0h0h0h0h0h0h0h0h0h0h0h0h0h0h0h0h0h0h0h0h0h0h0h0h0h0h0h0h0h0h0h0h0h0h0h0h0h0h0h0h0h0h0h0h0h0h0h0h0
		h0h0h0h0h0h0h0h0h0h0h0h0h0h0h0h0h0h0h0h0h0h0h0h0h0h0h0h0h0h0h0h0h0h0h0h0h0h0h0h0h0h0h0h0h0h0h0h0h0h0h0h0h0h0h0h0h0h0h0h0h0h0h0
		h0h0h0h0h0h0h0h0h0h0h0h0h0h0h0h0h0h0h0h0h0h0h0h0h0h0h0h0h0h0h0h0h0h0h0h0h0h0h0h0h0h0h0h0h0h0h0h0h0h0h0h0h0h0h0h0h0h0h0h0h0h0h0
		h0h0h0h0h0h0l0,0c-0.4-0.1-1-0.1-1.8-0.1c-0.9,0-2.1,0-3.5,0h0C265.4,59,264.4,59,263.8,58.9z M263.3,59L263.3,59L263.3,59
		L263.3,59z M274.7,59C274.7,59,274.7,59,274.7,59C274.7,59,274.7,59,274.7,59z"/>
	<path class="st18" d="M180.2,69.1c34.2-4.2,68.6-6.1,103-5.6"/>
	<path class="st18" d="M194.3,71.2c34.1-4.8,68.5-7.2,102.9-7.2"/>
</g>
</svg>
