<?xml version="1.0" encoding="utf-8"?>
<!-- Generator: Adobe Illustrator 23.1.0, SVG Export Plug-In . SVG Version: 6.00 Build 0)  -->
<svg version="1.1" id="Layer_1" xmlns="http://www.w3.org/2000/svg" xmlns:xlink="http://www.w3.org/1999/xlink" x="0px" y="0px"
	 viewBox="0 0 154 154" style="enable-background:new 0 0 154 154;" xml:space="preserve">
<style type="text/css">
	.st0{fill:#FFFFFF;stroke:#1D3254;stroke-width:2;}
	.st1{fill:none;stroke:#A92121;stroke-width:5;}
	.st2{fill:none;stroke:#2C9897;stroke-width:2;}
	.st3{fill:#FFFFFF;}
	.st4{fill:#468263;}
	.st5{fill:#8FC2A8;}
	.st6{fill:#5E9B7C;}
	.st7{fill:#F1E5A4;}
	.st8{fill:#FFF5C4;}
</style>
<g>
	<circle class="st0" cx="77" cy="77" r="76"/>
	<circle class="st1" cx="77" cy="77" r="51.4"/>
	<circle class="st2" cx="77" cy="77" r="58.5"/>
	<path class="st3" d="M27.7,76.7H126l-14.4,50.8H42.6L27.7,76.7z"/>
	<path class="st4" d="M61.7,52.7h-2.3v11.1h2.3V52.7z"/>
	<path class="st5" d="M67,64.7H55.2c-5.3,0-9.6,4.2-9.6,9.6v0.5v30.2v13.8c0,1.6,1.3,3,3,3h25.1c1.6,0,3-1.3,3-3v-13.8V74.7v-0.5
		C76.5,69,72.2,64.7,67,64.7z"/>
	<path class="st6" d="M65.9,64.7h-9.7c-0.9,0-1.7-0.7-1.7-1.7v-1.7c0-0.9,0.7-1.7,1.7-1.7h9.7c0.9,0,1.7,0.7,1.7,1.7V63
		C67.5,64,66.8,64.7,65.9,64.7z"/>
	<path class="st6" d="M63.8,53.9v-1.4c0-0.5-0.4-0.9-0.9-0.9H58c-0.5,0-0.9,0.4-0.9,0.9v2.7c0,0.5,0.4,0.9,0.9,0.9h4.5h0.3h10v-1.5
		L63.8,53.9z"/>
	<path class="st4" d="M95.2,52.7h-2.3v11.1h2.3V52.7z"/>
	<path class="st5" d="M100.5,64.7H88.7c-5.3,0-9.6,4.2-9.6,9.6v0.5v30.2v13.8c0,1.6,1.3,3,3,3h25.1c1.6,0,3-1.3,3-3v-13.8V74.7v-0.5
		C110.1,69,105.8,64.7,100.5,64.7z"/>
	<path class="st6" d="M99.4,64.7h-9.7c-0.9,0-1.7-0.7-1.7-1.7v-1.7c0-0.9,0.7-1.7,1.7-1.7h9.7c0.9,0,1.7,0.7,1.7,1.7V63
		C101.1,64,100.4,64.7,99.4,64.7z"/>
	<path class="st6" d="M97.4,53.9v-1.4c0-0.5-0.4-0.9-0.9-0.9h-4.9c-0.5,0-0.9,0.4-0.9,0.9v2.7c0,0.5,0.4,0.9,0.9,0.9h4.5h0.3h10
		v-1.5L97.4,53.9z"/>
	<path class="st7" d="M102.1,131.8H51.3c-2.2,0-3.9-1.8-3.9-3.9c0-2.2,1.8-3.9,3.9-3.9h50.8c2.2,0,3.9,1.8,3.9,3.9
		C106,130,104.2,131.8,102.1,131.8z"/>
	<path class="st8" d="M110,127.9H43.5c-2.4,0-4.4-1.6-5.1-3.8l-13.1-44c-0.7-2.4,0.3-4.8,2.4-6.1c0.9-0.5,1.8-0.8,2.8-0.8H123
		c1,0,1.9,0.3,2.8,0.8c2.1,1.2,3.1,3.7,2.4,6.1L115,124C114.4,126.3,112.3,127.9,110,127.9z M30.5,78.2c-0.1,0-0.2,0-0.2,0.1
		c-0.1,0.1-0.3,0.2-0.2,0.5l13.1,43.9c0.1,0.2,0.2,0.3,0.4,0.3h66.4c0.2,0,0.4-0.1,0.4-0.3l13.1-43.9c0.1-0.2-0.1-0.4-0.2-0.5
		c-0.1-0.1-0.1-0.1-0.2-0.1H30.5z"/>
	<path class="st8" d="M116.2,86.7l5.2,5.2l2.1-2.1l-5.2-5.2l7.3-7.3l-2.1-2.1l-7.3,7.3l-7.8-7.8l-0.1,0.1l-0.1-0.1l-7.8,7.8
		l-7.8-7.8l-0.1,0.1l-0.1-0.1l-7.8,7.8l-7.8-7.8l-0.1,0.1l-0.1-0.1l-7.8,7.8l-7.3-7.3l-0.1,0.1L61,74.8l-7.8,7.8l-7.8-7.8l-0.1,0.1
		l-0.1-0.1l-7.8,7.8L30,75.2L28,77.3l7.4,7.4l-5.2,5.2l2.1,2.1l5.2-5.2l5.8,5.8l-5.8,5.8l-3.9-3.9l-2.1,2.1l3.9,3.9l-1.7,1.7
		l2.1,2.1l1.7-1.7l5.8,5.8l-5.9,5.9l1.1,1.1l-2,2l6.8,6.8l-0.1,0.1l2.1,2.1l0.1-0.1l0.5,0.5l2.1-2.1l-0.5-0.5l5.8-5.8l5.8,5.8
		l-0.5,0.5l2.1,2.1l0.5-0.5l0.5,0.5l2.1-2.1l-0.5-0.5l5.8-5.8l5.8,5.8l-0.1,0.1l2.1,2.1l8-8l5.8,5.8l-0.5,0.5l2.1,2.1l8.4-8.4
		l5.8,5.8l-0.5,0.5l2.1,2.1l0.5-0.5l0.6,0.6l2.1-2.1l-0.6-0.6l6.8-6.8l-2-2l1.1-1.1l-5.9-5.9l5.8-5.8l1.7,1.7l2.1-2.1l-1.7-1.7
		l3.9-3.9l-2.1-2.1l-3.9,3.9l-5.8-5.8L116.2,86.7z M108.3,78.8l5.8,5.8l-5.8,5.8l-5.8-5.8L108.3,78.8z M92.5,106.1l-5.8-5.8l5.8-5.8
		l5.8,5.8L92.5,106.1z M100.4,102.3l5.8,5.8l-5.8,5.8l-5.8-5.8L100.4,102.3z M55.3,100.3l5.8-5.8l5.8,5.8l-5.8,5.8L55.3,100.3z
		 M58.9,108.1l-5.8,5.8l-5.8-5.8l5.8-5.8L58.9,108.1z M53.2,98.2l-5.8-5.8l5.8-5.8l5.8,5.8L53.2,98.2z M63.1,92.4l5.8-5.8l5.8,5.8
		L69,98.2L63.1,92.4z M68.9,102.3l5.8,5.8l-5.8,5.8l-5.8-5.8L68.9,102.3z M71,100.3l5.8-5.8l5.8,5.8l-5.8,5.8L71,100.3z M78.8,92.4
		l5.8-5.8l5.8,5.8l-5.8,5.8L78.8,92.4z M84.6,102.3l5.8,5.8l-5.8,5.8l-5.8-5.8L84.6,102.3z M94.6,92.4l5.8-5.8l5.8,5.8l-5.8,5.8
		L94.6,92.4z M92.5,78.8l5.8,5.8l-5.8,5.8l-5.8-5.8L92.5,78.8z M76.7,78.8l5.8,5.8l-5.8,5.8l-5.8-5.8L76.7,78.8z M61.1,78.8l5.8,5.8
		l-5.8,5.8l-5.8-5.8L61.1,78.8z M39.5,84.5l5.8-5.8l5.8,5.8l-5.8,5.8L39.5,84.5z M39.5,100.3l5.8-5.8l5.8,5.8l-5.8,5.8L39.5,100.3z
		 M45.3,121.8l-5.8-5.8l5.8-5.8l5.8,5.8L45.3,121.8z M61.1,121.8l-5.8-5.8l5.8-5.8l5.8,5.8L61.1,121.8z M76.7,121.8l-5.8-5.8
		l5.8-5.8l5.8,5.8L76.7,121.8z M92.5,121.8l-5.8-5.8l5.8-5.8l5.8,5.8L92.5,121.8z M114,116l-5.8,5.8l-5.8-5.8l5.8-5.8L114,116z
		 M114,100.3l-5.8,5.8l-5.8-5.8l5.8-5.8L114,100.3z"/>
	<path class="st6" d="M59.5,71.8h-1.3H38.5h-1.3c-0.9,0-1.5,0.7-1.5,1.5v1.3V86v8.3c0,1.6,1.3,2.9,2.9,2.9h19.7
		c1.6,0,2.9-1.3,2.9-2.9V86V74.5v-1.3C61.1,72.5,60.4,71.8,59.5,71.8z"/>
	<path class="st5" d="M61,75.5H35.5v2.2H61V75.5z"/>
	<path class="st5" d="M61,80.7H35.5v2.2H61V80.7z"/>
	<path class="st5" d="M61,86.1H35.5v2.2H61V86.1z"/>
	<path class="st5" d="M61,91.4H35.5v2.2H61V91.4z"/>
	<path class="st7" d="M139.9,78.6H78.6c-2.2,0-3.9-1.8-3.9-3.9c0-2.2,1.8-3.9,3.9-3.9h61.3c2.2,0,3.9,1.8,3.9,3.9
		C143.8,76.9,142.1,78.6,139.9,78.6z"/>
	<path class="st7" d="M123.1,32.4L76.2,71.8c-1.7,1.4-1.9,3.8-0.5,5.5c1.4,1.7,3.8,1.9,5.5,0.5l46.9-39.4c1.7-1.4,1.9-3.8,0.5-5.5
		C127.1,31.2,124.6,30.9,123.1,32.4z"/>
</g>
</svg>
