<?xml version="1.0" encoding="utf-8"?>
<!-- Generator: Adobe Illustrator 23.1.0, SVG Export Plug-In . SVG Version: 6.00 Build 0)  -->
<svg version="1.1" id="Layer_1" xmlns="http://www.w3.org/2000/svg" xmlns:xlink="http://www.w3.org/1999/xlink" x="0px" y="0px"
	 viewBox="0 0 429.3 458.7" style="enable-background:new 0 0 429.3 458.7;" xml:space="preserve">
<style type="text/css">
	.st0{fill:#8C8E96;stroke:#1D3254;stroke-width:2;stroke-linecap:round;stroke-linejoin:round;stroke-miterlimit:10;}
	.st1{fill:#FFFFFF;stroke:#1D3254;stroke-width:2;stroke-linecap:round;stroke-linejoin:round;stroke-miterlimit:10;}
	.st2{fill:#45484B;}
	.st3{fill:none;stroke:#63708B;stroke-width:2;stroke-linecap:round;stroke-linejoin:round;stroke-miterlimit:10;}
	.st4{fill:#63708B;}
</style>
<g>
	<path class="st0" d="M424.9,326.6L172.3,457c-3.1,1.7-7,0.4-8.6-2.8L1.7,140.7c-1.7-3.1-0.4-7,2.8-8.6L257.2,1.7
		c3.1-1.7,7-0.4,8.6,2.8l161.7,313.4C429.2,321,428,324.9,424.9,326.6z"/>
	<path class="st1" d="M422.1,338.2L161.6,452c-3.2,1.4-7.1-0.1-8.5-3.3L11.8,125.4c-1.4-3.2,0.1-7.1,3.3-8.5L275.7,3.1
		c3.2-1.4,7.1,0.1,8.5,3.3l141.2,323.1C426.9,332.9,425.5,336.7,422.1,338.2z"/>
	<path class="st2" d="M39.7,89.2c-8.2,3.6-12.3,13.2-8.9,21l4-1.8c-2.4-5.5,0.7-12.6,6.6-15.2c5.9-2.6,13.3,0,15.7,5.6L81,153.4
		c2.2,5.1,0.3,10.9-4.3,12.9c-4.4,1.9-9.6-0.6-11.8-5.9l-14.3-32.6c-0.5-1.1-1.8-1.6-2.9-1.1c-1.1,0.5-1.6,1.8-1.1,2.9L61,162.4
		c3.3,7.5,10.9,11.1,17.6,8.1c6.9-3,9.8-11.3,6.5-18.7L61.2,97.1C57.8,89.2,48,85.6,39.7,89.2z"/>
	<path class="st3" d="M70.3,254.3l269-117.5"/>
	<path class="st3" d="M80.4,277.4l269-117.5"/>
	<path class="st3" d="M90.5,300.5l269-117.5"/>
	<path class="st3" d="M100.6,323.6l269-117.5"/>
	<path class="st3" d="M110.7,346.7l269-117.5"/>
	<path class="st3" d="M120.8,369.8l269-117.5"/>
	<path class="st3" d="M130.8,392.9l269-117.5"/>
	<path class="st3" d="M140.9,416l269-117.5"/>
	<path class="st3" d="M146.2,221.2l70.7,161.7"/>
	<path class="st4" d="M274,98.4c-15.3-12.7-36.8-16.5-56.2-8.1c-27.3,11.9-39.9,43.8-27.9,71.2c8.5,19.3,26.9,31.3,46.7,32.2
		c9.9,1.8,20.4,0.9,30.3-3.5c26.5-11.6,38.4-42.4,26.9-68.7C289.5,111.6,282.4,103.8,274,98.4z M213.4,181
		c-5.8-4.8-10.6-11.1-13.8-18.4c-11.2-25.5,0.5-55.3,26-66.4c7.4-3.2,15.1-4.5,22.7-4.1c15.3,2.9,29.1,13.1,35.8,28.4
		c10.7,24.6-0.5,53.4-25.1,64.1C243.5,191.2,226.5,189.4,213.4,181z M219.8,95.3c4.7-2.1,9.6-3.2,14.5-3.8c-3.2,0.8-6.5,1.7-9.5,3.1
		c-26.5,11.6-38.4,42.4-26.9,68.7c1.4,3.1,3,6.1,4.9,8.7c-3.2-3.7-6-7.9-8.1-12.6C184,134.8,195.3,106.1,219.8,95.3z M266.1,188.7
		c-4.8,2.1-10,3.4-14.9,4c3.3-0.8,6.7-1.8,9.9-3.2c27.3-11.9,39.9-43.8,27.9-71.2c-1.4-3.2-3.1-6.3-5.1-9.1c3.4,3.8,6.1,8.2,8.3,13
		C303.3,147.8,291.6,177.6,266.1,188.7z"/>
	<path class="st4" d="M191.3,138.4c10.5-4.6,15.3-16.9,10.7-27.4c-4.6-10.5-16.9-15.3-27.4-10.7c-10.5,4.6-15.3,16.9-10.7,27.4
		C168.5,138.2,180.7,143,191.3,138.4z"/>
	<path class="st4" d="M197.8,89.6c4.4-1.9,6.4-7,4.5-11.4c-1.9-4.4-7-6.4-11.4-4.5c-4.4,1.9-6.4,7-4.5,11.4
		C188.3,89.5,193.4,91.5,197.8,89.6z"/>
	<path class="st4" d="M328.6,176.9c4.4-1.9,6.4-7,4.5-11.4c-1.9-4.4-7-6.4-11.4-4.5c-4.4,1.9-6.4,7-4.5,11.4
		C319.1,176.8,324.2,178.8,328.6,176.9z"/>
</g>
</svg>
