<?xml version="1.0" encoding="utf-8"?>
<!-- Generator: Adobe Illustrator 23.1.0, SVG Export Plug-In . SVG Version: 6.00 Build 0)  -->
<svg version="1.1" id="Layer_1" xmlns="http://www.w3.org/2000/svg" xmlns:xlink="http://www.w3.org/1999/xlink" x="0px" y="0px"
	 viewBox="0 0 208.6 250.2" style="enable-background:new 0 0 208.6 250.2;" xml:space="preserve">
<style type="text/css">
	.st0{fill:#FFFFFF;}
	.st1{fill:none;stroke:#1D3254;stroke-width:2;stroke-miterlimit:10;}
	.st2{fill:#63708B;}
	.st3{fill:#FFFFFF;stroke:#4A4F5B;stroke-width:3;stroke-miterlimit:10;}
	.st4{fill:#D9D8D7;}
	.st5{fill:#8C8E96;}
</style>
<g>
	<g>
		<path class="st0" d="M136.4,249.2c-6.1,0-11.8-1.6-17-4.6c-5.1,3-10.9,4.6-17,4.6c-6.1,0-12-1.6-17-4.6c-5.1,3-11,4.6-17,4.6
			c-6.1,0-11.8-1.6-17-4.6c-5.1,3-10.9,4.6-17,4.6C16,249.2,1,234.2,1,215.6v-38.2c0-3.2,0.5-6.2,1.3-9.1c-0.8-3-1.3-6.1-1.3-9.1
			v-38.4c0-3.2,0.5-6.2,1.3-9.3c-0.8-3-1.3-6.1-1.3-9.3V64.1c0-5.1,1.1-10.2,3.4-14.7C2.1,44.8,1,39.7,1,34.6C1,16,16,1,34.6,1
			c17.1,0,31.2,12.8,33.3,29.4c0.2,0,0.3,0,0.5,0c4.5,0,8.8,0.8,12.8,2.6c2.9-0.6,5.9-0.8,8.8-0.8c4.3,0,8.6,0.6,12.8,1.8
			c0.3-18.2,15.2-33,33.6-33c17.1,0,31.4,13,33.3,29.8c1.3-0.2,2.7-0.3,4.2-0.3c18.6,0,33.6,15,33.6,33.6c0,7-2.1,13.6-6.1,19.2
			c3.7,5.4,5.8,12,5.8,18.7c0,3-0.3,5.9-1.1,8.8c1,3.2,1.6,6.6,1.6,9.9c0,7-2.1,13.6-6.1,19.2c3.7,5.4,5.8,12,5.8,18.7
			c0,3-0.3,5.9-1.1,8.8c1,3.2,1.4,6.6,1.4,9.9c0,7-2.1,13.6-6.1,19.2c3.7,5.4,5.8,12,5.8,18.7c0,9-3.5,17.4-9.8,23.7
			c-6.4,6.4-14.7,9.8-23.7,9.8c-6.6,0-13-1.9-18.2-5.4C149.7,247.1,143.1,249.2,136.4,249.2z"/>
		<path class="st1" d="M136.4,249.2c-6.1,0-11.8-1.6-17-4.6c-5.1,3-10.9,4.6-17,4.6c-6.1,0-12-1.6-17-4.6c-5.1,3-11,4.6-17,4.6
			c-6.1,0-11.8-1.6-17-4.6c-5.1,3-10.9,4.6-17,4.6C16,249.2,1,234.2,1,215.6v-38.2c0-3.2,0.5-6.2,1.3-9.1c-0.8-3-1.3-6.1-1.3-9.1
			v-38.4c0-3.2,0.5-6.2,1.3-9.3c-0.8-3-1.3-6.1-1.3-9.3V64.1c0-5.1,1.1-10.2,3.4-14.7C2.1,44.8,1,39.7,1,34.6C1,16,16,1,34.6,1
			c17.1,0,31.2,12.8,33.3,29.4c0.2,0,0.3,0,0.5,0c4.5,0,8.8,0.8,12.8,2.6c2.9-0.6,5.9-0.8,8.8-0.8c4.3,0,8.6,0.6,12.8,1.8
			c0.3-18.2,15.2-33,33.6-33c17.1,0,31.4,13,33.3,29.8c1.3-0.2,2.7-0.3,4.2-0.3c18.6,0,33.6,15,33.6,33.6c0,7-2.1,13.6-6.1,19.2
			c3.7,5.4,5.8,12,5.8,18.7c0,3-0.3,5.9-1.1,8.8c1,3.2,1.6,6.6,1.6,9.9c0,7-2.1,13.6-6.1,19.2c3.7,5.4,5.8,12,5.8,18.7
			c0,3-0.3,5.9-1.1,8.8c1,3.2,1.4,6.6,1.4,9.9c0,7-2.1,13.6-6.1,19.2c3.7,5.4,5.8,12,5.8,18.7c0,9-3.5,17.4-9.8,23.7
			c-6.4,6.4-14.7,9.8-23.7,9.8c-6.6,0-13-1.9-18.2-5.4C149.7,247.1,143.1,249.2,136.4,249.2z"/>
	</g>
	<path class="st2" d="M34.6,61.8c6.2,0,11.2-5,11.2-11.2s-5-11.2-11.2-11.2s-11.2,5-11.2,11.2S28.4,61.8,34.6,61.8z"/>
	<path class="st2" d="M34.6,129.5c-6.1,0-11.2-5-11.2-11.2V80.1c0-6.1,5-11.2,11.2-11.2c6.1,0,11.2,5,11.2,11.2v38.2
		C45.6,124.4,40.7,129.5,34.6,129.5z"/>
	<path class="st2" d="M173.8,75.3c6.2,0,11.2-5,11.2-11.2s-5-11.2-11.2-11.2c-6.2,0-11.2,5-11.2,11.2S167.6,75.3,173.8,75.3z"/>
	<path class="st2" d="M181.4,109.8c-4.3,4.3-11.4,4.3-15.8,0l-33.9-34.1c-4.3-4.3-4.3-11.4,0-15.8c4.3-4.3,11.4-4.3,15.8,0L181.5,94
		C185.7,98.5,185.7,105.5,181.4,109.8z"/>
	<path class="st2" d="M136.4,113.5c-6.1,0-11.2-5-11.2-11.2V34.6c0-6.1,5-11.2,11.2-11.2c6.1,0,11.2,5,11.2,11.2v67.7
		C147.4,108.4,142.5,113.5,136.4,113.5z"/>
	<path class="st2" d="M68.4,113.5c-6.1,0-11.2-5-11.2-11.2V64.1c0-6.1,5-11.2,11.2-11.2c6.1,0,11.2,5,11.2,11.2v38.2
		C79.6,108.4,74.6,113.5,68.4,113.5z"/>
	<path class="st2" d="M102.5,113.5c-6.1,0-11.2-5-11.2-11.2V77.5c0-6.1,5-11.2,11.2-11.2c6.1,0,11.2,5,11.2,11.2v24.8
		C113.7,108.4,108.7,113.5,102.5,113.5z"/>
	<path class="st2" d="M90.1,54.6c-13,0-23.5,10.6-23.5,23.5c0,4.3,1.1,8.3,3.2,11.8c2.2-4,5.8-7.2,9.9-9.3c0.2-3,2.7-5.6,5.8-5.6
		c3.2,0,5.9,2.6,5.9,5.9c0,3,4.6,3.4,4.6,3.4s0.5-2.6,1-5.1c5.8,1.8,10.6,5.6,13.4,10.7c2.1-3.5,3.2-7.5,3.2-11.8
		C113.7,65,103.1,54.6,90.1,54.6z"/>
	<path class="st3" d="M185.8,82.8c6.1-4,10.2-10.9,10.2-18.7c0-12.3-10.1-22.4-22.4-22.4c-5.8,0-11,2.2-15,5.9v-13
		c0-12.3-10.1-22.4-22.4-22.4c-12.3,0-22.4,10.1-22.4,22.4v18.2c-6.1-5.9-14.4-9.4-23.7-9.4c-3.5,0-6.9,0.5-10.1,1.4
		c-3.4-2.1-7.4-3.2-11.5-3.2c-6.7,0-12.8,3-17,7.8l-0.2-0.2c3.5-4,5.6-9.1,5.6-14.7c0-12.3-10.1-22.4-22.4-22.4S12.2,22.3,12.2,34.6
		c0,5.6,2.1,10.7,5.6,14.7c-3.5,4-5.6,9.1-5.6,14.7v38.2c0,12.3,10.1,22.4,22.4,22.4c6.7,0,12.8-3,17-7.8c4.2,4.8,10.2,7.8,17,7.8
		c6.9,0,13-3,17-7.8c4.2,4.8,10.2,7.8,17,7.8c6.7,0,12.8-3,17-7.8c4.2,4.8,10.2,7.8,17,7.8c7.7,0,14.4-3.8,18.4-9.8l2.9,2.9
		c4.2,4.2,9.8,6.6,15.8,6.6c5.9,0,11.5-2.4,15.8-6.6c4.2-4.2,6.6-9.8,6.6-15.8c0-6.1-2.4-11.5-6.6-15.8L185.8,82.8z"/>
	<path class="st4" d="M34.6,45.8c6.2,0,11.2-5,11.2-11.2c0-6.2-5-11.2-11.2-11.2s-11.2,5-11.2,11.2C23.4,40.8,28.4,45.8,34.6,45.8z"
		/>
	<path class="st4" d="M34.6,52.9c-6.1,0-11.2,5-11.2,11.2v38.2c0,6.1,5,11.2,11.2,11.2s11.2-5,11.2-11.2V64.1
		C45.6,57.8,40.7,52.9,34.6,52.9z"/>
	<path class="st4" d="M176.4,74.9c6-1.4,9.7-7.5,8.3-13.5c-1.4-6-7.5-9.7-13.5-8.3s-9.7,7.5-8.3,13.5
		C164.4,72.6,170.4,76.4,176.4,74.9z"/>
	<path class="st4" d="M147.4,60.2V34.6c0-6.1-5-11.2-11.2-11.2c-6.1,0-11.2,5-11.2,11.2v67.7c0,6.1,5,11.2,11.2,11.2
		c6.1,0,11.2-5,11.2-11.2V91.7l18.1,18.1c4.3,4.3,11.4,4.3,15.8,0c4.3-4.3,4.3-11.4,0-15.8L147.4,60.2z"/>
	<path class="st4" d="M90.1,54.6c-4.5,0-8.6,1.3-12.3,3.5c-1.9-3-5.4-5.1-9.4-5.1c-6.1,0-11.2,5-11.2,11.2v38.2
		c0,6.1,5,11.2,11.2,11.2c6.1,0,11.2-5,11.2-11.2V80.5c0.2-3,2.7-5.6,5.8-5.6c3.2,0,5.9,2.6,5.9,5.9v21.3c0,6.1,5,11.2,11.2,11.2
		c6.1,0,11.2-5,11.2-11.2V77.5c0-0.5,0-1-0.2-1.4C112.5,64.1,102.5,54.6,90.1,54.6z"/>
	<path class="st2" d="M34.6,113.5c6.2,0,11.2-5,11.2-11.2c0-6.2-5-11.2-11.2-11.2s-11.2,5-11.2,11.2
		C23.4,108.5,28.4,113.5,34.6,113.5z"/>
	<path class="st2" d="M34.6,181.2c-6.1,0-11.2-5-11.2-11.2v-38.2c0-6.1,5-11.2,11.2-11.2c6.1,0,11.2,5,11.2,11.2V170
		C45.6,176.2,40.7,181.2,34.6,181.2z"/>
	<path class="st2" d="M173.8,126.9c6.2,0,11.2-5,11.2-11.2c0-6.2-5-11.2-11.2-11.2c-6.2,0-11.2,5-11.2,11.2
		C162.6,121.9,167.6,126.9,173.8,126.9z"/>
	<path class="st2" d="M181.4,161.7c-4.3,4.3-11.4,4.3-15.8,0l-33.9-34.1c-4.3-4.3-4.3-11.4,0-15.8c4.3-4.3,11.4-4.3,15.8,0
		l33.9,34.1C185.7,150.1,185.7,157.2,181.4,161.7z"/>
	<path class="st2" d="M136.4,165.2c-6.1,0-11.2-5-11.2-11.2V86.3c0-6.1,5-11.2,11.2-11.2c6.1,0,11.2,5,11.2,11.2V154
		C147.4,160.2,142.5,165.2,136.4,165.2z"/>
	<path class="st2" d="M68.4,165.2c-6.1,0-11.2-5-11.2-11.2v-38.2c0-6.1,5-11.2,11.2-11.2c6.1,0,11.2,5,11.2,11.2V154
		C79.6,160.2,74.6,165.2,68.4,165.2z"/>
	<path class="st2" d="M102.5,165.2c-6.1,0-11.2-5-11.2-11.2v-24.8c0-6.1,5-11.2,11.2-11.2c6.1,0,11.2,5,11.2,11.2V154
		C113.7,160.2,108.7,165.2,102.5,165.2z"/>
	<path class="st2" d="M90.1,106.3c-13,0-23.5,10.6-23.5,23.5c0,4.3,1.1,8.3,3.2,11.8c2.2-4,5.8-7.2,9.9-9.3c0.2-3,2.7-5.6,5.8-5.6
		c3.2,0,5.9,2.6,5.9,5.9c0,3,4.6,3.4,4.6,3.4s0.5-2.6,1-5.1c5.8,1.8,10.6,5.6,13.4,10.7c2.1-3.5,3.2-7.5,3.2-11.8
		C113.7,116.9,103.1,106.3,90.1,106.3z"/>
	<path class="st3" d="M185.8,139.4c6.1-4,10.2-10.9,10.2-18.7c0-12.3-10.1-22.4-22.4-22.4c-5.8,0-11,2.2-15,5.9v-13
		c0-12.3-10.1-22.4-22.4-22.4s-22.4,10.1-22.4,22.4v18.2c-6.2-5.9-14.6-9.4-23.8-9.4c-3.5,0-6.9,0.5-10.1,1.4
		c-3.4-2.1-7.4-3.2-11.5-3.2c-6.7,0-12.8,3-17,7.8l-0.2-0.2c3.5-4,5.6-9.1,5.6-14.7c0-12.3-10.1-22.4-22.4-22.4S12,78.9,12,91.3
		c0,5.6,2.1,10.7,5.6,14.7c-3.5,4-5.6,9.1-5.6,14.7V159c0,12.3,10.1,22.4,22.4,22.4c6.7,0,12.8-3,17-7.8c4.2,4.8,10.2,7.8,17,7.8
		c6.9,0,13-3,17-7.8c4.2,4.8,10.2,7.8,17,7.8c6.7,0,12.8-3,17-7.8c4.2,4.8,10.2,7.8,17,7.8c7.7,0,14.4-3.8,18.4-9.8l2.9,2.9
		c4.2,4.2,9.8,6.6,15.8,6.6c5.9,0,11.5-2.4,15.8-6.6c4.2-4.2,6.6-9.8,6.6-15.8c0-6.1-2.4-11.5-6.6-15.8L185.8,139.4z"/>
	<path class="st5" d="M34.6,102.5c6.2,0,11.2-5,11.2-11.2c0-6.2-5-11.2-11.2-11.2s-11.2,5-11.2,11.2
		C23.4,97.4,28.4,102.5,34.6,102.5z"/>
	<path class="st5" d="M34.6,109.7c-6.1,0-11.2,5-11.2,11.2v38.2c0,6.1,5,11.2,11.2,11.2s11.2-5,11.2-11.2v-38.4
		C45.6,114.6,40.7,109.7,34.6,109.7z"/>
	<path class="st5" d="M176.4,131.6c6-1.4,9.8-7.5,8.3-13.5c-1.4-6-7.5-9.7-13.5-8.3c-6,1.4-9.8,7.5-8.3,13.5
		C164.3,129.3,170.4,133,176.4,131.6z"/>
	<path class="st5" d="M147.4,117V91.4c0-6.1-5-11.2-11.2-11.2c-6.1,0-11.2,5-11.2,11.2v67.7c0,6.1,5,11.2,11.2,11.2
		c6.1,0,11.2-5,11.2-11.2v-10.6l18.1,18.1c4.3,4.3,11.4,4.3,15.8,0c4.3-4.3,4.3-11.4,0-15.8L147.4,117z"/>
	<path class="st5" d="M90.1,111.3c-4.5,0-8.6,1.3-12.3,3.5c-1.9-3-5.4-5.1-9.4-5.1c-6.1,0-11.2,5-11.2,11.2v38.2
		c0,6.1,5,11.2,11.2,11.2c6.1,0,11.2-5,11.2-11.2v-21.8c0.2-3,2.7-5.6,5.8-5.6c3.2,0,5.9,2.6,5.9,5.9V159c0,6.1,5,11.2,11.2,11.2
		c6.1,0,11.2-5,11.2-11.2v-24.8c0-0.5,0-1-0.2-1.4C112.5,120.7,102.5,111.3,90.1,111.3z"/>
	<path class="st3" d="M185.8,196.1c6.1-4,10.2-10.9,10.2-18.7c0-12.3-10.1-22.4-22.4-22.4c-5.8,0-11,2.2-15,5.9v-13
		c0-12.3-10.1-22.4-22.4-22.4s-22.4,10.1-22.4,22.4v18.2c-6.2-5.9-14.6-9.4-23.8-9.4c-3.5,0-6.9,0.5-10.1,1.4
		c-3.4-2.1-7.4-3.2-11.5-3.2c-6.7,0-12.8,3-17,7.8l-0.2-0.2c3.5-4,5.6-9.1,5.6-14.7c0-12.3-10.1-22.4-22.4-22.4S12,135.6,12,147.9
		c0,5.6,2.1,10.7,5.6,14.7c-3.5,4-5.6,9.1-5.6,14.7v38.2c0,12.3,10.1,22.4,22.4,22.4c6.7,0,12.8-3,17-7.8c4.2,4.8,10.2,7.8,17,7.8
		c6.9,0,13-3,17-7.8c4.2,4.8,10.2,7.8,17,7.8c6.7,0,12.8-3,17-7.8c4.2,4.8,10.2,7.8,17,7.8c7.7,0,14.4-3.8,18.4-9.8l2.9,2.9
		c4.2,4.2,9.8,6.6,15.8,6.6c5.9,0,11.5-2.4,15.8-6.6c4.2-4.2,6.6-9.8,6.6-15.8c0-6.1-2.4-11.5-6.6-15.8L185.8,196.1z"/>
	<path class="st2" d="M34.6,159.1c6.2,0,11.2-5,11.2-11.2c0-6.2-5-11.2-11.2-11.2s-11.2,5-11.2,11.2
		C23.4,154.1,28.4,159.1,34.6,159.1z"/>
	<path class="st2" d="M34.6,166.3c-6.1,0-11.2,5-11.2,11.2v38.2c0,6.1,5,11.2,11.2,11.2s11.2-5,11.2-11.2v-38.2
		C45.6,171.3,40.7,166.3,34.6,166.3z"/>
	<path class="st2" d="M176.4,188.2c6-1.4,9.7-7.5,8.3-13.5c-1.4-6-7.5-9.7-13.5-8.3s-9.8,7.5-8.3,13.5
		C164.3,185.9,170.4,189.6,176.4,188.2z"/>
	<path class="st2" d="M147.4,173.7v-25.6c0-6.1-5-11.2-11.2-11.2c-6.1,0-11.2,5-11.2,11.2v67.7c0,6.1,5,11.2,11.2,11.2
		c6.1,0,11.2-5,11.2-11.2v-10.6l18.1,18.1c4.3,4.3,11.4,4.3,15.8,0c4.3-4.3,4.3-11.4,0-15.8L147.4,173.7z"/>
	<path class="st2" d="M90.1,167.9c-4.5,0-8.6,1.3-12.3,3.5c-1.9-3-5.4-5.1-9.4-5.1c-6.1,0-11.2,5-11.2,11.2v38.2
		c0,6.1,5,11.2,11.2,11.2c6.1,0,11.2-5,11.2-11.2V194c0.2-3,2.7-5.6,5.8-5.6c3.2,0,5.9,2.6,5.9,5.9v21.3c0,6.1,5,11.2,11.2,11.2
		c6.1,0,11.2-5,11.2-11.2v-24.8c0-0.5,0-1-0.2-1.4C112.5,177.4,102.5,167.9,90.1,167.9z"/>
</g>
</svg>
