<?xml version="1.0" encoding="utf-8"?>
<!-- Generator: Adobe Illustrator 23.1.0, SVG Export Plug-In . SVG Version: 6.00 Build 0)  -->
<svg version="1.1" id="Layer_1" xmlns="http://www.w3.org/2000/svg" xmlns:xlink="http://www.w3.org/1999/xlink" x="0px" y="0px"
	 viewBox="0 0 72 673" style="enable-background:new 0 0 72 673;" xml:space="preserve">
<style type="text/css">
	.st0{fill:#182335;}
</style>
<rect y="85" class="st0" width="72" height="26.1"/>
<rect y="36" class="st0" width="72" height="9.8"/>
<rect y="0.1" class="st0" width="72" height="9.8"/>
<rect y="127.4" class="st0" width="72" height="9.8"/>
<rect y="196" class="st0" width="72" height="9.8"/>
<rect y="248.3" class="st0" width="72" height="9.8"/>
<rect y="231.9" class="st0" width="72" height="3.3"/>
<rect y="238.5" class="st0" width="72" height="3.3"/>
<rect y="120.9" class="st0" width="72" height="3.3"/>
<rect y="13.1" class="st0" width="72" height="3.3"/>
<rect y="19.6" class="st0" width="72" height="3.3"/>
<rect y="26.2" class="st0" width="72" height="3.3"/>
<rect y="62.1" class="st0" width="72" height="3.3"/>
<rect y="68.6" class="st0" width="72" height="3.3"/>
<rect y="75.2" class="st0" width="72" height="3.3"/>
<rect y="55.6" class="st0" width="72" height="3.3"/>
<rect y="156.8" class="st0" width="72" height="3.3"/>
<rect y="163.3" class="st0" width="72" height="3.3"/>
<rect y="169.9" class="st0" width="72" height="3.3"/>
<rect y="176.4" class="st0" width="72" height="3.3"/>
<rect y="182.9" class="st0" width="72" height="3.3"/>
<rect y="189.5" class="st0" width="72" height="3.3"/>
<rect y="209.1" class="st0" width="72" height="3.3"/>
<rect y="215.6" class="st0" width="72" height="3.3"/>
<rect y="445.6" class="st0" width="72" height="34.3"/>
<rect y="381.3" class="st0" width="72" height="12.9"/>
<rect y="334.1" class="st0" width="72" height="12.9"/>
<rect y="501.4" class="st0" width="72" height="12.9"/>
<rect y="591.5" class="st0" width="72" height="12.9"/>
<rect y="654.2" class="st0" width="72" height="12.9"/>
<rect y="638.7" class="st0" width="72" height="4.3"/>
<rect y="647.3" class="st0" width="72" height="4.3"/>
<rect y="492.8" class="st0" width="72" height="4.3"/>
<rect y="351.2" class="st0" width="72" height="4.3"/>
<rect y="359.8" class="st0" width="72" height="4.3"/>
<rect y="368.4" class="st0" width="72" height="4.3"/>
<rect y="415.6" class="st0" width="72" height="4.3"/>
<rect y="424.2" class="st0" width="72" height="4.3"/>
<rect y="432.7" class="st0" width="72" height="4.3"/>
<rect y="407" class="st0" width="72" height="4.3"/>
<rect y="540" class="st0" width="72" height="4.3"/>
<rect y="548.6" class="st0" width="72" height="4.3"/>
<rect y="557.2" class="st0" width="72" height="4.3"/>
<rect y="565.8" class="st0" width="72" height="4.3"/>
<rect y="574.4" class="st0" width="72" height="4.3"/>
<rect y="582.9" class="st0" width="72" height="4.3"/>
<rect y="608.7" class="st0" width="72" height="4.3"/>
<rect y="617.3" class="st0" width="72" height="4.3"/>
</svg>
