<?xml version="1.0" encoding="utf-8"?>
<!-- Generator: Adobe Illustrator 26.0.0, SVG Export Plug-In . SVG Version: 6.00 Build 0)  -->
<svg version="1.1" id="Layer_1" xmlns="http://www.w3.org/2000/svg" xmlns:xlink="http://www.w3.org/1999/xlink" x="0px" y="0px"
	 viewBox="0 0 539.9 622.4" style="enable-background:new 0 0 539.9 622.4;" xml:space="preserve">
<style type="text/css">
	.st0{fill:#FFFFFF;}
	.st1{fill:#EAE5D2;}
</style>
<g>
	<polygon class="st0" points="335.9,179.7 20,90.6 20,20 335.9,109.1 	"/>
</g>
<g>
	<polygon class="st0" points="335.9,268.8 20,179.7 20,109.1 335.9,198.2 	"/>
</g>
<g>
	<polygon class="st0" points="335.9,603.2 20,514.1 20,198.2 335.9,287.3 	"/>
</g>
<path class="st1" d="M492.3,254.5C333.2,118,174.4,227.8,124,238c0,0,53.5,9,91.8,38.1c60.9-11.2,125.3,5.4,125.3,5.4
	c-48.4-6.5-91.3,0.6-112.3,5.4c6.8,6.1,13.1,12.4,18.9,18.7c34.1-10.1,79.2-20.8,105.9-16.5c0,0-54,2-95.8,28
	c50,59.1,75.6,120.8,227.1,122.8C484.9,440,603.5,349.8,492.3,254.5z"/>
</svg>
