<?xml version="1.0" encoding="utf-8"?>
<!-- Generator: Adobe Illustrator 23.1.0, SVG Export Plug-In . SVG Version: 6.00 Build 0)  -->
<svg version="1.1" id="Layer_1" xmlns="http://www.w3.org/2000/svg" xmlns:xlink="http://www.w3.org/1999/xlink" x="0px" y="0px"
	 viewBox="0 0 50 50" style="enable-background:new 0 0 50 50;" xml:space="preserve">
<style type="text/css">
	.st0{fill:#E15546;}
	.st1{fill:none;stroke:#EAE5D2;stroke-width:1.5;stroke-linecap:round;stroke-linejoin:round;stroke-miterlimit:10;}
	.st2{fill:#EAE5D2;stroke:#EAE5D2;stroke-width:1.5;stroke-linecap:round;stroke-linejoin:round;stroke-miterlimit:10;}
</style>
<circle class="st0" cx="25" cy="25" r="25"/>
<g>
	<g>
		<path class="st1" d="M40,10c-4.1,0-7.5,3.4-7.5,7.5S35.9,25,40,25V10z"/>
		<rect x="25" y="10" class="st2" width="15" height="7.5"/>
	</g>
	<path class="st1" d="M40,25c-4.1,0-7.5,3.4-7.5,7.5S35.9,40,40,40V25z"/>
	<path class="st2" d="M25,25c4.1,0,7.5,3.4,7.5,7.5H40V25H25z"/>
	<circle class="st2" cx="17.5" cy="32.5" r="7.5"/>
	<circle class="st1" cx="17.5" cy="17.5" r="7.5"/>
	<path class="st1" d="M25,40c4.1,0,7.5-3.4,7.5-7.5S29.1,25,25,25V40z"/>
</g>
</svg>
