<?xml version="1.0" encoding="utf-8"?>
<!-- Generator: Adobe Illustrator 23.1.0, SVG Export Plug-In . SVG Version: 6.00 Build 0)  -->
<svg version="1.1" id="Layer_1" xmlns="http://www.w3.org/2000/svg" xmlns:xlink="http://www.w3.org/1999/xlink" x="0px" y="0px"
	 viewBox="0 0 50 50" style="enable-background:new 0 0 50 50;" xml:space="preserve">
<style type="text/css">
	.st0{fill:#EAE5D2;}
	.st1{fill:none;stroke:#E15546;stroke-width:1.5;stroke-linecap:round;stroke-linejoin:round;}
	.st2{fill:none;stroke:#E15546;stroke-width:1.5;stroke-linecap:round;stroke-linejoin:round;stroke-miterlimit:10;}
	.st3{fill:#E15546;stroke:#E15546;stroke-width:1.5;stroke-linecap:round;stroke-linejoin:round;stroke-miterlimit:10;}
	.st4{fill:#EAE5D2;stroke:#E15546;stroke-width:1.5;stroke-linecap:round;stroke-linejoin:round;stroke-miterlimit:10;}
</style>
<circle class="st0" cx="25" cy="25" r="25"/>
<path class="st1" d="M19,38.8c-3.6,1.2-7.3-1.2-8.5-2.4 M19.6,40c0,0-1.2-4.8,1.2-7.2c-3.2-0.1-6.2-1.4-8.5-3.6
	c-3.6-3.6-2.4-10.8,0-13.2c-0.4-1-0.4-2.1-0.2-3.2c0.2-1.1,0.7-2,1.4-2.8c0,0,3.6,0,6.1,2.4c2.4-1.2,8.5-1.2,10.9,0
	c2.4-2.4,6.1-2.4,6.1-2.4c0.7,0.8,1.2,1.8,1.4,2.8c0.2,1.1,0.1,2.1-0.2,3.2c2.4,2.4,3.6,9.6,0,13.2c-2.3,2.2-5.3,3.5-8.5,3.6
	c2.4,2.4,1.2,7.2,1.2,7.2"/>
</svg>
