<?xml version="1.0" encoding="utf-8"?>
<!-- Generator: Adobe Illustrator 26.0.0, SVG Export Plug-In . SVG Version: 6.00 Build 0)  -->
<svg version="1.1" id="Layer_1" xmlns="http://www.w3.org/2000/svg" xmlns:xlink="http://www.w3.org/1999/xlink" x="0px" y="0px"
	 viewBox="0 0 106.9 130" style="enable-background:new 0 0 106.9 130;" xml:space="preserve">
<style type="text/css">
	.st0{fill:#FFFFFF;}
	.st1{fill:#EEAF9D;}
	.st2{fill:#E15546;}
	.st3{fill:#EAE4CC;}
	.st4{fill:#182335;}
</style>
<g>
	<path class="st0" d="M79.8,79.8c0-4.6,1.2-9,3.3-12.7c0.9-1.7,2-3.2,3.3-4.7c1-1.1,2.1-2.2,3.3-3.2c1-0.8,2.1-1.6,3.3-2.2
		c1.1-0.6,2.2-1.2,3.3-1.6c1.1-0.4,2.2-0.8,3.3-1.1c1.1-0.3,2.2-0.5,3.3-0.6c1.1-0.2,2.2-0.2,3.3-0.2v52.6c-1.1,0-2.2-0.1-3.3-0.2
		c-1.1-0.1-2.2-0.3-3.3-0.6c-1.1-0.3-2.2-0.7-3.3-1.1c-1.1-0.4-2.2-1-3.3-1.6c-1.2-0.7-2.3-1.4-3.3-2.2c-1.2-0.9-2.3-2-3.3-3.2
		c-1.3-1.4-2.4-3-3.3-4.7C80.9,88.7,79.8,84.4,79.8,79.8z"/>
	<rect x="53.4" y="53.4" class="st1" width="52.6" height="21.7"/>
	<path class="st0" d="M53.4,53.4c14.5,0,26.3,11.8,26.3,26.3S68,106.1,53.4,106.1V53.4z"/>
	<path class="st2" d="M106.1,0.8c-14.5,0-26.3,11.8-26.3,26.3s11.8,26.3,26.3,26.3V0.8z"/>
	<rect x="53.4" y="0.8" class="st0" width="52.6" height="26.3"/>
	<path class="st0" d="M53.4,27.1c0,14.5-11.8,26.3-26.3,26.3S0.8,41.7,0.8,27.1H53.4z"/>
	<path class="st3" d="M27.1,0.8C12.6,0.8,0.8,12.6,0.8,27.1h52.6C53.4,12.6,41.7,0.8,27.1,0.8z"/>
	<path class="st0" d="M0.8,79.8c0-4.6,1.2-9,3.3-12.7c0.9-1.7,2-3.2,3.3-4.7c1-1.1,2.1-2.2,3.3-3.2c1-0.8,2.1-1.6,3.3-2.2
		c1.1-0.6,2.2-1.2,3.3-1.6c1.1-0.4,2.2-0.8,3.3-1.1c1.1-0.3,2.2-0.5,3.3-0.6c1.1-0.2,2.2-0.2,3.3-0.2v52.6c-1.1,0-2.2-0.1-3.3-0.2
		c-1.1-0.1-2.2-0.3-3.3-0.6c-1.1-0.3-2.2-0.7-3.3-1.1c-1.1-0.4-2.2-1-3.3-1.6c-1.2-0.7-2.3-1.4-3.3-2.2c-1.2-0.9-2.3-2-3.3-3.2
		c-1.3-1.4-2.4-3-3.3-4.7C2,88.7,0.8,84.4,0.8,79.8z"/>
	<g>
		<path class="st4" d="M53.3,114.3H-0.2V130h53.5h53.5v-15.7H53.3z M105.2,128.4H55V116h50.2V128.4z"/>
		<g>
			<g>
				<path class="st0" d="M18.3,125.2h-5.8v0.4h5.8v1h-7.1v-2.4H17v-0.3h-5.8v-1h5.7V122h-3.2v0.7h-1.3V122h-2.1v-1h6.6v-1.1h-1v-1.1
					h1v-1.3h1.3V125.2z M12.1,120.8c-0.2,0-0.4,0-0.5-0.1c-0.2-0.1-0.3-0.2-0.4-0.4c-0.1-0.1-0.2-0.3-0.3-0.5
					c-0.1-0.2-0.1-0.4-0.1-0.6V119c0-0.2,0-0.3,0.1-0.5c0.1-0.2,0.2-0.3,0.3-0.5c0.1-0.1,0.3-0.3,0.4-0.4c0.2-0.1,0.3-0.1,0.5-0.1
					H14c0.2,0,0.4,0,0.5,0.1c0.2,0.1,0.3,0.2,0.4,0.4c0.1,0.1,0.2,0.3,0.3,0.5c0.1,0.2,0.1,0.4,0.1,0.5v0.2c0,0.2,0,0.4-0.1,0.6
					c-0.1,0.2-0.2,0.4-0.3,0.5c-0.1,0.1-0.3,0.3-0.4,0.4s-0.3,0.1-0.5,0.1H12.1z M12,119.1c0,0.1,0,0.2,0.1,0.3
					c0.1,0.1,0.2,0.2,0.4,0.2h1.1c0.2,0,0.3-0.1,0.4-0.2s0.1-0.2,0.1-0.3c0,0,0-0.1,0-0.1c0-0.1,0-0.1-0.1-0.2
					c0-0.1-0.1-0.1-0.1-0.1c-0.1,0-0.1-0.1-0.2-0.1h-1.1c-0.1,0-0.2,0-0.2,0.1c-0.1,0-0.1,0.1-0.1,0.1c0,0.1-0.1,0.1-0.1,0.2
					C12.1,119,12,119.1,12,119.1z"/>
			</g>
			<g>
				<path class="st0" d="M36.2,117.5h4.5v1.3l-0.4,3.6h-1.5l0.4-3.6h-3V117.5z M37.2,126.6v-2.9h1.4v1.7h4v-7.8h1.4v2.3h1v1.2h-1
					v5.6H37.2z"/>
			</g>
			<g>
				<path class="st4" d="M64.7,117.5c0.3,0,0.6,0.1,0.9,0.2c0.3,0.1,0.5,0.3,0.8,0.5c0.2,0.2,0.4,0.5,0.5,0.7s0.2,0.6,0.2,0.9v4.5
					c0,0.3-0.1,0.6-0.2,0.9s-0.3,0.5-0.5,0.7c-0.2,0.2-0.5,0.4-0.8,0.5c-0.3,0.1-0.6,0.2-0.9,0.2c-0.3,0-0.6-0.1-0.9-0.2
					c-0.3-0.1-0.5-0.3-0.7-0.5c-0.2-0.2-0.4-0.5-0.5-0.7c-0.1-0.3-0.2-0.6-0.2-0.9v-4.5c0-0.3,0.1-0.6,0.2-0.9
					c0.1-0.3,0.3-0.5,0.5-0.7c0.2-0.2,0.5-0.4,0.7-0.5C64.1,117.5,64.4,117.5,64.7,117.5z M64.7,118.8c-0.1,0-0.3,0-0.4,0.1
					c-0.1,0.1-0.2,0.1-0.3,0.2c-0.1,0.1-0.2,0.2-0.2,0.3c-0.1,0.1-0.1,0.2-0.1,0.4v4.5c0,0.1,0,0.3,0.1,0.4c0.1,0.1,0.1,0.2,0.2,0.3
					c0.1,0.1,0.2,0.2,0.3,0.2c0.1,0.1,0.2,0.1,0.4,0.1c0.1,0,0.3,0,0.4-0.1c0.1-0.1,0.2-0.1,0.3-0.2s0.2-0.2,0.2-0.3
					c0.1-0.1,0.1-0.2,0.1-0.4v-4.5c0-0.1,0-0.3-0.1-0.4c-0.1-0.1-0.1-0.2-0.2-0.3s-0.2-0.2-0.3-0.2S64.9,118.8,64.7,118.8z
					 M69.8,121.2h1v1.3h-1v4h-1.3v-9.1h1.3V121.2z"/>
			</g>
			<g>
				<path class="st4" d="M91.2,118.8h-2.9v-1.3h5.1v1.3l-1.6,1.1l1.7,1.1v1.6l-2.7-1.9l-2.5,1.7v-1.7L91.2,118.8z M89.9,125.4h4.7
					v-7.9H96v9.1h-7.3v-3.2h1.3V125.4z"/>
			</g>
		</g>
	</g>
	<path class="st4" d="M27.1,0C12.2,0,0,12.2,0,27.1s12.2,27.1,27.1,27.1s27.1-12.2,27.1-27.1S42.1,0,27.1,0z M27.1,1.6
		c13.8,0,25.1,11,25.5,24.7h-51C2.1,12.6,13.3,1.6,27.1,1.6z M21.7,27.9c0.4,2.6,2.7,4.6,5.4,4.6s5-2,5.4-4.6H34
		c-0.4,3.4-3.3,6.1-6.9,6.1c-3.5,0-6.5-2.7-6.9-6.1H21.7z M23.4,27.9h7.5c-0.4,1.7-1.9,3-3.7,3C25.3,31,23.8,29.7,23.4,27.9z
		 M18.6,27.9c0.4,4.3,4.1,7.7,8.5,7.7s8.1-3.4,8.5-7.7h1.5c-0.4,5.1-4.7,9.2-10,9.2s-9.6-4.1-10-9.2H18.6z M15.5,27.9
		c0.4,6,5.5,10.8,11.6,10.8c6.1,0,11.2-4.8,11.6-10.8h1.5c-0.4,6.9-6.1,12.3-13.1,12.3c-7,0-12.6-5.4-13.1-12.3H15.5z M12.4,27.9
		c0.4,7.8,6.8,13.9,14.7,13.9s14.3-6.2,14.7-13.9h1.5c-0.4,8.6-7.5,15.4-16.2,15.4c-8.7,0-15.7-6.8-16.2-15.4H12.4z M9.3,27.9
		c0.4,9.5,8.3,17,17.8,17s17.4-7.6,17.8-17h1.5C46,38.2,37.5,46.4,27.1,46.4S8.3,38.2,7.8,27.9H9.3z M6.2,27.9
		c0.4,11.2,9.6,20.1,20.9,20.1c11.3,0,20.5-9,20.9-20.1h1.5c-0.4,12-10.3,21.6-22.4,21.6c-12.1,0-22-9.6-22.4-21.6H6.2z M27.1,52.6
		c-13.8,0-25.1-11-25.5-24.7h1.5c0.4,12.9,11,23.2,24,23.2c13,0,23.6-10.3,24-23.2h1.5C52.2,41.6,40.9,52.6,27.1,52.6z"/>
	<path class="st4" d="M27.9,52.6l-0.7,0l0,0c0,0-0.1,0-0.1,0c-1.2,0-2.4,0.1-3.4,0.2c-1.1,0.1-2.2,0.3-3.4,0.6
		c-1.1,0.3-2.3,0.7-3.4,1.1c0,0,0,0,0,0c0,0,0,0,0,0c-1.1,0.5-2.3,1-3.4,1.7c-1.2,0.7-2.4,1.5-3.4,2.3c-1.2,1-2.4,2.1-3.4,3.3
		c-1.3,1.4-2.4,3.1-3.4,4.8C1.2,70.6,0,75.2,0,79.8c0,4.6,1.2,9.1,3.4,13.1c1,1.7,2.1,3.4,3.4,4.8c1,1.2,2.2,2.3,3.4,3.3
		c1,0.8,2.2,1.6,3.4,2.3c1.1,0.6,2.2,1.2,3.4,1.7c0,0,0,0,0,0c0,0,0,0,0,0c1.1,0.5,2.3,0.8,3.4,1.1c1.2,0.3,2.3,0.5,3.4,0.6
		c1,0.2,2.2,0.2,3.4,0.2l0.8,0v0c0,0,0,0,0,0l0.1,0l0,0c14.5-0.5,26.2-12.4,26.2-27.1C54.3,65.1,42.5,53.1,27.9,52.6z M3.3,88.8
		c-1.1-2.9-1.7-5.9-1.7-9s0.6-6.1,1.7-9V88.8z M6.6,94.8C6,94,5.4,93.2,4.9,92.3v-25c0.5-0.9,1.1-1.8,1.7-2.6V94.8z M9.9,98.5
		c-0.6-0.5-1.1-1.1-1.7-1.7V62.7c0.5-0.6,1.1-1.2,1.7-1.7V98.5z M13.2,101.1c-0.6-0.4-1.1-0.8-1.7-1.2V59.6c0.5-0.4,1.1-0.8,1.7-1.2
		V101.1z M16.4,102.9c-0.6-0.3-1.1-0.5-1.7-0.8V57.5c0.5-0.3,1.1-0.6,1.7-0.8V102.9z M19.7,104.2c-0.6-0.2-1.1-0.4-1.7-0.6V55.9
		c0.6-0.2,1.1-0.4,1.7-0.6V104.2z M23,104.9c-0.5-0.1-1.1-0.2-1.7-0.3V54.9c0.6-0.1,1.1-0.2,1.7-0.3V104.9z M26.3,105.2
		c-0.6,0-1.1-0.1-1.7-0.1V54.4c0.5-0.1,1.1-0.1,1.7-0.1V105.2z"/>
	<path class="st4" d="M106.1,0H53.4c-0.5,0-0.8,0.4-0.8,0.8v26.3c0,0.5,0.4,0.8,0.8,0.8H79c0.4,14.6,12.4,26.3,27.1,26.3
		c0.5,0,0.8-0.4,0.8-0.8V27.1V0.8C106.9,0.4,106.5,0,106.1,0z M105.3,52.6C91.8,52.2,81,41.4,80.6,27.9h24.7V52.6z M105.3,24.7v1.6
		H80.6H79h-0.4H54.3v-1.6h24.3v0L105.3,24.7L105.3,24.7z M105.3,23.1H80.9h-1.7h-0.7H54.3v-1.7h24.3h1h1.7h24V23.1z M105.3,18.1v1.7
		v0H78.5v0H54.3v-1.7h24.3v0L105.3,18.1L105.3,18.1z M105.3,16.5H82.9h-1.8h-1.4H54.3v-1.7h25.5h2.2h1.8h21.5V16.5z M105.3,11.5v1.7
		v0H81.8v0H54.3v-1.7h27.6v0L105.3,11.5L105.3,11.5z M105.3,9.9H87.3h-2.2h-1.1H54.3V8.2h29.8h2.6H89h16.3V9.9z M105.3,4.9v1.7v0
		H87.3v0h-33V4.9h33v0L105.3,4.9L105.3,4.9z M105.3,1.6v1.7H97h-3.9h-0.6H54.3V1.6h38.3h4.3L105.3,1.6L105.3,1.6z"/>
</g>
<path class="st4" d="M106.1,52.6H53.4c-0.5,0-0.8,0.4-0.8,0.8v1.1v51.5c0,0.5,0.4,0.8,0.8,0.8c12.7,0,23.4-8.8,26.3-20.5
	c0.6,2.3,1.4,4.5,2.6,6.5c1,1.7,2.1,3.4,3.4,4.8c1,1.2,2.2,2.3,3.4,3.3c1,0.8,2.2,1.6,3.4,2.3c1.1,0.6,2.2,1.2,3.4,1.7c0,0,0,0,0,0
	c0,0,0,0,0,0c1.1,0.5,2.3,0.8,3.4,1.1c1.2,0.3,2.3,0.5,3.4,0.6c1,0.2,2.2,0.2,3.4,0.2c0.5,0,0.8-0.4,0.8-0.8V76.9v-0.9v-0.8v-0.5
	V53.4C106.9,53,106.5,52.6,106.1,52.6z M54.3,76c1.7,0.4,3,1.9,3,3.7c0,1.8-1.3,3.4-3,3.7V76z M54.3,85.1c2.6-0.4,4.6-2.7,4.6-5.4
	s-2-5-4.6-5.4v-1.5c3.4,0.4,6.1,3.3,6.1,6.9c0,3.5-2.7,6.5-6.1,6.9V85.1z M54.3,88.3c4.3-0.4,7.7-4.1,7.7-8.5s-3.4-8.1-7.7-8.5v-1.5
	c5.1,0.4,9.2,4.7,9.2,10c0,5.2-4.1,9.6-9.2,10V88.3z M54.3,91.4c6-0.4,10.8-5.5,10.8-11.6c0-6.1-4.8-11.2-10.8-11.6v-1.5
	c6.9,0.4,12.3,6.1,12.3,13.1c0,7-5.4,12.6-12.3,13.1V91.4z M54.3,94.5C62,94,68.2,87.6,68.2,79.8c0-7.9-6.2-14.3-13.9-14.7v-1.5
	c8.6,0.4,15.4,7.5,15.4,16.2c0,8.7-6.8,15.7-15.4,16.2V94.5z M54.3,97.6c9.5-0.4,17-8.3,17-17.8c0-9.6-7.6-17.4-17-17.8v-1.5
	c10.3,0.4,18.5,8.9,18.5,19.3c0,10.4-8.2,18.9-18.5,19.3V97.6z M54.3,100.7c11.2-0.4,20.1-9.6,20.1-20.9c0-11.3-9-20.5-20.1-20.9
	v-1.5c12,0.4,21.6,10.3,21.6,22.4c0,12.1-9.6,21.9-21.6,22.4V100.7z M54.3,105.2v-1.5c12.9-0.4,23.2-11,23.2-24
	c0-13-10.3-23.6-23.2-24v-1v-0.5C67.9,54.7,78.9,66,78.9,79.8C78.9,93.5,67.9,104.8,54.3,105.2z M82.2,88.8c-1.1-2.9-1.7-5.9-1.7-9
	c0-1.3,0.1-2.6,0.3-3.8h1.4V88.8z M85.5,94.8c-0.6-0.8-1.2-1.7-1.7-2.6V75.9h1.7V94.8z M88.8,98.5c-0.6-0.5-1.1-1.1-1.7-1.7V75.9
	h1.7V98.5z M92.1,101.1c-0.6-0.4-1.1-0.8-1.7-1.2v-24h1.7V101.1z M95.4,102.9c-0.6-0.3-1.1-0.5-1.7-0.8V75.9h1.7V102.9z M98.7,104.2
	c-0.6-0.2-1.1-0.4-1.7-0.6V75.9h1.7V104.2z M102,104.9c-0.5-0.1-1.1-0.2-1.7-0.3V75.9h1.7V104.9z M105.3,105.2
	c-0.6,0-1.1-0.1-1.7-0.1V75.9h1.7V105.2z M105.3,74.3H80c-1.9-9.3-8.6-16.9-17.3-20h42.5V74.3z"/>
</svg>
