<?xml version="1.0" encoding="utf-8"?>
<!-- Generator: Adobe Illustrator 23.1.0, SVG Export Plug-In . SVG Version: 6.00 Build 0)  -->
<svg version="1.1" id="Layer_1" xmlns="http://www.w3.org/2000/svg" xmlns:xlink="http://www.w3.org/1999/xlink" x="0px" y="0px"
	 viewBox="0 0 110 110" style="enable-background:new 0 0 110 110;" xml:space="preserve">
<style type="text/css">
	.st0{fill:#FFFFFF;}
	.st1{fill:#EEAF9D;}
	.st2{fill:#E15546;}
	.st3{fill:#EAE4CC;}
	.st4{fill:#182335;}
</style>
<g>
	<path class="st0" d="M82.1,82.2c0-4.7,1.2-9.3,3.4-13.1c0.9-1.7,2.1-3.3,3.4-4.8c1-1.1,2.2-2.3,3.4-3.3c1-0.8,2.2-1.6,3.4-2.3
		c1.1-0.6,2.3-1.2,3.4-1.6c1.1-0.4,2.3-0.8,3.4-1.1c1.1-0.3,2.3-0.5,3.4-0.6c1.1-0.2,2.3-0.2,3.4-0.2v54.1c-1.1,0-2.3-0.1-3.4-0.2
		c-1.1-0.1-2.3-0.3-3.4-0.6c-1.1-0.3-2.3-0.7-3.4-1.1c-1.1-0.4-2.3-1-3.4-1.6c-1.2-0.7-2.4-1.4-3.4-2.3c-1.2-0.9-2.4-2.1-3.4-3.3
		c-1.3-1.4-2.5-3.1-3.4-4.8C83.2,91.3,82.1,86.9,82.1,82.2z"/>
	<rect x="54.9" y="55" class="st1" width="54.1" height="22.3"/>
	<path class="st0" d="M54.9,55C69.9,55,82,67.1,82,82.1s-12,27.2-27.1,27.2V55z"/>
	<path class="st2" d="M109.2,0.9C94.3,0.9,82.1,13,82.1,27.9S94.3,55,109.2,55C109.2,55,109.2,0.9,109.2,0.9z"/>
	<rect x="54.9" y="0.9" class="st0" width="54.1" height="27.1"/>
	<path class="st0" d="M54.9,27.9C54.9,42.9,42.8,55,27.9,55S0.8,43,0.8,27.9H54.9z"/>
	<path class="st3" d="M27.9,0.9C13,0.9,0.8,13,0.8,27.9h54.1C54.9,13,42.9,0.9,27.9,0.9z"/>
	<path class="st0" d="M0.8,82.2c0-4.7,1.2-9.3,3.4-13.1c0.9-1.7,2.1-3.3,3.4-4.8c1-1.1,2.2-2.3,3.4-3.3c1-0.8,2.2-1.6,3.4-2.3
		c1.1-0.6,2.3-1.2,3.4-1.6c1.1-0.4,2.3-0.8,3.4-1.1c1.1-0.3,2.3-0.5,3.4-0.6c1.1-0.2,2.3-0.2,3.4-0.2v54.1c-1.1,0-2.3-0.1-3.4-0.2
		c-1.1-0.1-2.3-0.3-3.4-0.6c-1.1-0.3-2.3-0.7-3.4-1.1c-1.1-0.4-2.3-1-3.4-1.6c-1.2-0.7-2.4-1.4-3.4-2.3c-1.2-0.9-2.4-2.1-3.4-3.3
		c-1.3-1.4-2.5-3.1-3.4-4.8C2.1,91.3,0.8,86.9,0.8,82.2z"/>
	<path class="st4" d="M27.9,0C12.6,0,0,12.6,0,27.9s12.6,27.9,27.9,27.9s27.9-12.6,27.9-27.9S43.3,0,27.9,0z M27.9,1.7
		c14.2,0,25.8,11.3,26.2,25.4H1.6C2.2,13,13.7,1.7,27.9,1.7z M22.3,28.8c0.4,2.7,2.8,4.7,5.6,4.7s5.1-2.1,5.6-4.7H35
		c-0.4,3.5-3.4,6.3-7.1,6.3c-3.6,0-6.7-2.8-7.1-6.3H22.3z M24.1,28.8h7.7c-0.4,1.7-2,3.1-3.8,3.1C26,31.9,24.5,30.6,24.1,28.8z
		 M19.1,28.8c0.4,4.4,4.2,7.9,8.7,7.9s8.3-3.5,8.7-7.9h1.5c-0.4,5.2-4.8,9.5-10.3,9.5S18,34,17.6,28.8
		C17.6,28.8,19.1,28.8,19.1,28.8z M15.9,28.8c0.4,6.2,5.7,11.1,11.9,11.1s11.5-4.9,11.9-11.1h1.5c-0.4,7.1-6.3,12.7-13.5,12.7
		s-13-5.6-13.5-12.7C14.4,28.8,15.9,28.8,15.9,28.8z M12.8,28.8c0.4,8,7,14.3,15.1,14.3S42.6,36.7,43,28.8h1.5
		c-0.4,8.8-7.7,15.8-16.7,15.8s-16.2-7-16.7-15.8H12.8z M9.6,28.8c0.4,9.8,8.5,17.5,18.3,17.5s17.9-7.8,18.3-17.5h1.5
		c-0.4,10.6-9.2,19-19.9,19S8.5,39.4,8,28.8H9.6z M6.4,28.8c0.4,11.5,9.9,20.7,21.5,20.7S49,40.2,49.4,28.8h1.5
		C50.5,41.1,40.3,51,27.9,51s-22.6-9.9-23-22.2H6.4z M27.9,54.2c-14.2,0-25.8-11.3-26.2-25.4h1.5C3.6,42,14.5,52.6,27.9,52.6
		S52.2,42,52.6,28.8h1.5C53.7,42.9,42.1,54.2,27.9,54.2z"/>
	<path class="st4" d="M28.7,54.2H28l0,0h-0.1c-1.2,0-2.5,0.1-3.5,0.2c-1.1,0.1-2.3,0.3-3.5,0.6c-1.1,0.3-2.4,0.7-3.5,1.1l0,0l0,0
		c-1.1,0.5-2.4,1-3.5,1.7c-1.2,0.7-2.5,1.5-3.5,2.4c-1.2,1-2.5,2.2-3.5,3.4c-1.3,1.4-2.5,3.2-3.5,4.9C1.2,72.7,0,77.4,0,82.2
		s1.2,9.4,3.5,13.5c1,1.7,2.2,3.5,3.5,4.9c1,1.2,2.3,2.4,3.5,3.4c1,0.8,2.3,1.6,3.5,2.4c1.1,0.6,2.3,1.2,3.5,1.7l0,0l0,0
		c1.1,0.5,2.4,0.8,3.5,1.1c1.2,0.3,2.4,0.5,3.5,0.6c1,0.2,2.3,0.2,3.5,0.2h0.8l0,0l0,0h0.1l0,0c14.9-0.5,27-12.8,27-27.9
		S43.7,54.7,28.7,54.2z M3.4,91.4c-1.1-3-1.7-6.1-1.7-9.3s0.6-6.3,1.7-9.3V91.4z M6.8,97.6C6.2,96.8,5.6,96,5,95V69.3
		c0.5-0.9,1.1-1.9,1.7-2.7C6.8,66.6,6.8,97.6,6.8,97.6z M10.2,101.4c-0.6-0.5-1.1-1.1-1.7-1.7V64.6c0.5-0.6,1.1-1.2,1.7-1.7V101.4z
		 M13.6,104.1c-0.6-0.4-1.1-0.8-1.7-1.2V61.4c0.5-0.4,1.1-0.8,1.7-1.2V104.1z M16.9,105.9c-0.6-0.3-1.1-0.5-1.7-0.8V59.2
		c0.5-0.3,1.1-0.6,1.7-0.8V105.9z M20.3,107.3c-0.6-0.2-1.1-0.4-1.7-0.6V57.6c0.6-0.2,1.1-0.4,1.7-0.6V107.3z M23.7,108
		c-0.5-0.1-1.1-0.2-1.7-0.3V56.5c0.6-0.1,1.1-0.2,1.7-0.3V108z M27.1,108.3c-0.6,0-1.1-0.1-1.7-0.1V56c0.5-0.1,1.1-0.1,1.7-0.1
		V108.3z"/>
	<path class="st4" d="M109.2,0H54.9c-0.5,0-0.8,0.4-0.8,0.8v27.1c0,0.5,0.4,0.8,0.8,0.8h26.3c0.4,15,12.8,27.1,27.9,27.1
		c0.5,0,0.8-0.4,0.8-0.8V27.9V0.9C110,0.5,109.6,0,109.2,0z M108.4,54.2c-13.9-0.4-25-11.5-25.4-25.4h25.4V54.2z M108.4,25.5v1.6
		H82.9h-1.6h-0.4h-25v-1.6h25l0,0H108.4L108.4,25.5z M108.4,23.8H83.2h-1.7h-0.7H55.9v-1.7h25h1h1.7h24.7
		C108.4,22.1,108.4,23.8,108.4,23.8z M108.4,18.7v1.7l0,0H80.8l0,0H55.9v-1.7h25l0,0H108.4L108.4,18.7z M108.4,17h-23h-1.9H82H55.9
		v-1.7h26.2h2.3h1.9h22.1V17z M108.4,11.9v1.7l0,0H84.2l0,0H55.9v-1.7h28.4l0,0H108.4L108.4,11.9z M108.4,10.2H89.8h-2.3h-1.1H55.9
		V8.5h30.7h2.7h2.4h16.8V10.2z M108.4,5.1v1.7l0,0H89.8l0,0h-34V5.1h34l0,0H108.4L108.4,5.1z M108.4,1.7v1.7h-8.5h-4h-0.6H55.9V1.7
		h39.4h4.4H108.4L108.4,1.7z"/>
</g>
<path class="st4" d="M109.2,54.2H55c-0.5,0-0.8,0.4-0.8,0.8v1.1v53c0,0.5,0.4,0.8,0.8,0.8c13.1,0,24.1-9.1,27.1-21.1
	c0.6,2.4,1.4,4.6,2.7,6.7c1,1.7,2.2,3.5,3.5,4.9c1,1.2,2.3,2.4,3.5,3.4c1,0.8,2.3,1.6,3.5,2.4c1.1,0.6,2.3,1.2,3.5,1.7l0,0l0,0
	c1.1,0.5,2.4,0.8,3.5,1.1c1.2,0.3,2.4,0.5,3.5,0.6c1,0.2,2.3,0.2,3.5,0.2c0.5,0,0.8-0.4,0.8-0.8V79.2v-0.9v-0.8v-0.5V55
	C110,54.6,109.6,54.2,109.2,54.2z M55.9,78.3c1.7,0.4,3.1,2,3.1,3.8c0,1.9-1.3,3.5-3.1,3.8V78.3z M55.9,87.6
	c2.7-0.4,4.7-2.8,4.7-5.6s-2.1-5.1-4.7-5.6V75c3.5,0.4,6.3,3.4,6.3,7.1c0,3.6-2.8,6.7-6.3,7.1V87.6z M55.9,90.9
	c4.4-0.4,7.9-4.2,7.9-8.7c0-4.5-3.5-8.3-7.9-8.7v-1.5c5.2,0.4,9.5,4.8,9.5,10.3c0,5.3-4.2,9.9-9.5,10.3V90.9z M55.9,94.1
	C62.1,93.7,67,88.5,67,82.2c0-6.3-4.9-11.5-11.1-11.9v-1.5C63,69.1,68.5,75,68.5,82.2s-5.6,13-12.7,13.5V94.1z M55.9,97.3
	c7.9-0.5,14.3-7.1,14.3-15.1c0-8.1-6.4-14.7-14.3-15.1v-1.5c8.8,0.4,15.8,7.7,15.8,16.7s-7,16.1-15.8,16.7
	C55.9,98.8,55.9,97.3,55.9,97.3z M55.9,100.5c9.8-0.4,17.5-8.5,17.5-18.3c0-9.9-7.8-17.9-17.5-18.3v-1.5c10.6,0.4,19,9.2,19,19.9
	s-8.4,19.4-19,19.9C55.9,102,55.9,100.5,55.9,100.5z M55.9,103.7c11.5-0.4,20.7-9.9,20.7-21.5s-9.3-21.1-20.7-21.5v-1.5
	c12.3,0.4,22.2,10.6,22.2,23s-9.9,22.5-22.2,23C55.9,105.2,55.9,103.7,55.9,103.7z M55.9,108.3v-1.5c13.3-0.4,23.9-11.3,23.9-24.7
	S69.2,57.8,55.9,57.4v-1v-0.5c14,0.5,25.3,12.1,25.3,26.3C81.2,96.3,69.9,107.9,55.9,108.3z M84.6,91.4c-1.1-3-1.7-6.1-1.7-9.3
	c0-1.3,0.1-2.7,0.3-3.9h1.4C84.6,78.3,84.6,91.4,84.6,91.4z M88,97.6c-0.6-0.8-1.2-1.7-1.7-2.7V78.2H88V97.6z M91.4,101.4
	c-0.6-0.5-1.1-1.1-1.7-1.7V78.2h1.7V101.4z M94.8,104.1c-0.6-0.4-1.1-0.8-1.7-1.2V78.2h1.7V104.1z M98.2,105.9
	c-0.6-0.3-1.1-0.5-1.7-0.8V78.2h1.7V105.9z M101.6,107.3c-0.6-0.2-1.1-0.4-1.7-0.6V78.2h1.7V107.3z M105,108
	c-0.5-0.1-1.1-0.2-1.7-0.3V78.2h1.7V108z M108.4,108.3c-0.6,0-1.1-0.1-1.7-0.1v-30h1.7V108.3z M108.4,76.5h-26
	c-2-9.6-8.8-17.4-17.8-20.6h43.7v20.6H108.4z"/>
</svg>
