<?xml version="1.0" encoding="utf-8"?>
<!-- Generator: Adobe Illustrator 26.0.0, SVG Export Plug-In . SVG Version: 6.00 Build 0)  -->
<svg version="1.1" id="Layer_1" xmlns="http://www.w3.org/2000/svg" xmlns:xlink="http://www.w3.org/1999/xlink" x="0px" y="0px"
	 viewBox="0 0 110 140" style="enable-background:new 0 0 110 140;" xml:space="preserve">
<style type="text/css">
	.st0{fill:#FFFFFF;stroke:#182335;stroke-linecap:round;stroke-linejoin:round;stroke-miterlimit:10;}
	.st1{fill:#182335;}
	.st2{fill:#FFFFFF;}
</style>
<g>
	<g>
		<path class="st1" d="M15,56c0,0.5,0,1,0.1,1.5c0.7-3.8,4-6.6,7.9-6.6s7.3,2.9,7.9,6.6c0.1-0.5,0.1-1,0.1-1.5
			c0-4.5-3.6-8.1-8.1-8.1S15,51.6,15,56z"/>
	</g>
	<g>
		<path class="st1" d="M29.6,38c-0.8,0.8-1.4,1.8-1.8,2.8c2.9-1.1,6.3-0.5,8.6,1.8s2.9,5.7,1.8,8.6c1-0.4,2-1,2.8-1.8
			c3.2-3.2,3.2-8.3,0-11.4C37.8,34.9,32.7,34.9,29.6,38z"/>
	</g>
	<g>
		<path class="st1" d="M95,56c0,0.5,0,1-0.1,1.5c-0.7-3.8-4-6.6-7.9-6.6s-7.3,2.9-7.9,6.6c-0.1-0.5-0.1-1-0.1-1.5
			c0-4.5,3.6-8.1,8.1-8.1C91.4,48,95,51.6,95,56z"/>
	</g>
	<g>
		<path class="st1" d="M80.4,38c0.8,0.8,1.4,1.8,1.8,2.8c-2.9-1.1-6.3-0.5-8.6,1.8c-2.3,2.3-2.9,5.7-1.8,8.6c-1-0.4-2-1-2.8-1.8
			c-3.2-3.2-3.2-8.3,0-11.4C72.2,34.9,77.3,34.9,80.4,38z"/>
	</g>
	<g>
		<circle class="st1" cx="55" cy="37.9" r="8.1"/>
	</g>
</g>
<g>
	<path class="st1" d="M64,87.5c6.9-2.7,3.5-11.4,3.5-11.4c-9.2,3-12,7.2-12.9,9.7c-0.3,0-0.5,0-0.8,0c-0.9-2.5-3.7-6.6-12.9-9.7
		c0,0-3.8,9.4,4.5,11.7c-8,3.5-13.8,11.3-14.4,20.5C34.6,98.6,44,91.7,55,91.7c11,0,20.4,6.9,24.1,16.6C78.5,98.8,72.4,90.9,64,87.5
		z"/>
</g>
<path class="st0" d="M55,94.7c-10.2,0.2-18.3,6-20.6,13.5H55h20.6C73.3,100.8,65.2,95,55,94.7z"/>
</svg>
