<?xml version="1.0" encoding="utf-8"?>
<!-- Generator: Adobe Illustrator 26.0.0, SVG Export Plug-In . SVG Version: 6.00 Build 0)  -->
<svg version="1.1" id="Layer_1" xmlns="http://www.w3.org/2000/svg" xmlns:xlink="http://www.w3.org/1999/xlink" x="0px" y="0px"
	 viewBox="0 0 110 140" style="enable-background:new 0 0 110 140;" xml:space="preserve">
<style type="text/css">
	.st0{fill:#FFFFFF;stroke:#182335;stroke-linecap:round;stroke-linejoin:round;stroke-miterlimit:10;}
	.st1{fill:#182335;}
	.st2{fill:#FFFFFF;}
</style>
<g>
	<g>
		<g>
			<g>
				<g>
					<rect x="42.4" y="73.1" class="st1" width="1.8" height="6.4"/>
				</g>
				<g>
					<rect x="45.6" y="73.1" class="st1" width="3.8" height="6.4"/>
				</g>
				<g>
					<rect x="65.4" y="73.1" class="st1" width="1.8" height="6.4"/>
				</g>
				<g>
					<polygon class="st1" points="54.8,73.1 51,73.1 51,79.4 54.8,79.4 58.6,79.4 58.6,73.1 					"/>
				</g>
				<g>
					<rect x="60.1" y="73.1" class="st1" width="3.8" height="6.4"/>
				</g>
			</g>
			<g>
				<path class="st1" d="M70.7,82.6h-4.2c-0.3-0.9-1.2-1.6-2.2-1.6H45.4c-1,0-1.9,0.7-2.2,1.6h-4.2c-1.3,0-2.4,1.1-2.4,2.4v22.7
					c0,1.3,1.1,2.4,2.4,2.4h31.7c1.3,0,2.4-1.1,2.4-2.4V84.9C73,83.6,72,82.6,70.7,82.6z"/>
			</g>
		</g>
		<path class="st0" d="M79.7,46.2c0-9-11.1-16.2-24.7-16.2s-24.7,7.3-24.7,16.2c0,8.9,11,16.2,24.5,16.2c1.1,2.1,1,4.5-3.8,6.5
			c0,0,6.6,0.5,10.6-7.1C72.1,60,79.7,53.7,79.7,46.2z"/>
	</g>
</g>
</svg>
