<?xml version="1.0" encoding="utf-8"?>
<!-- Generator: Adobe Illustrator 26.0.0, SVG Export Plug-In . SVG Version: 6.00 Build 0)  -->
<svg version="1.1" id="Layer_1" xmlns="http://www.w3.org/2000/svg" xmlns:xlink="http://www.w3.org/1999/xlink" x="0px" y="0px"
	 viewBox="0 0 110 140" style="enable-background:new 0 0 110 140;" xml:space="preserve">
<style type="text/css">
	.st0{fill:#FFFFFF;stroke:#182335;stroke-linecap:round;stroke-linejoin:round;stroke-miterlimit:10;}
	.st1{fill:#182335;}
	.st2{fill:#FFFFFF;}
</style>
<path class="st0" d="M63.6,27.5c-2.7-0.7-5.6-1.1-8.6-1.1s-5.8,0.4-8.6,1.1l-24.8,56V110h66.8V83.5L63.6,27.5z"/>
<g>
	<g>
		<path class="st1" d="M76.4,84.9c0-0.6-0.5-1-1.1-1L73.1,84c-0.6,0-1,0.5-1,1.1l0.1,3.5c-0.6-0.5-1.2-0.9-1.2-0.9l0.1-0.7
			C70.3,85.7,66,76.1,66,76.1l-0.4-2.8c0.8-5.1,0-6.1,0-6.4c0-0.4-7-4.4-7.8-4.8c-0.4-0.2-0.6-0.7-0.7-1.1c1.2-1.1,1.9-2.9,1.9-4.9
			c0-3.4-2.3-6.2-5-6.2c-2.6,0-4.7,2.4-5,5.4c-1.8-1.6-5.7-5.2-6.7-8.7c-1.4-4.5-4.5-10.5-4.5-10.5s2.3-5.1,0.8-5.4
			c-1.5-0.3-2.5-2.2-5,1.1c0,0-1.2,0.3,1.4,3.9l-1,0.3c0,0,1.4,6.3,1.4,9.2s4.3,9.4,4.4,9.9c0.1,0.6,3,5,1.8,8.5
			c-1.1,3.5-8.4,8.9-8.3,15.5l0,0c0,0-0.1,1.6,0.9,1.6c1,0,0.8-0.6,2-1.3c1.1-0.6,2.6-1.4,4.8-1.7c0.1,1.6,0.4,4.9,0.8,5.5
			c0.1,0.1,0.4,0.2,0.9,0.4l-0.2,4c0,0-1.2,2.2-2.8,5.3C38.3,96,34.3,110,34.3,110h9.2l5.7-8.9c0,0,1-1.9,1.5-2.1
			c0.5-0.3,7.7,11.1,7.7,11.1h4.9h2.2h1.6c0,0-0.3-0.8-0.8-2.1l5.2-12.6c0.7-0.5,1.2-1.7,1.3-2.3c0.1-1,0.5-0.9,0.6-1.8l2.1-0.1
			c0.6,0,1-0.5,1-1.1L76.4,84.9z M65.3,105.3c-1.1-3.1-2.4-6.6-2.3-7.1c0.1-1-2.3-10.6-3.9-11.6c-0.9-0.6-1-1.8-1-2.8
			c0.2-0.1,0.3-0.2,0.4-0.3c0,0,1.1-0.5,1.1-2c0-0.7,0-2,0-3.4c0.7,1,1.4,2.1,1.5,2.6c0.3,1,2.6,6.2,2.6,6.2l6,7.9L65.3,105.3z"/>
	</g>
</g>
</svg>
