<?xml version="1.0" encoding="utf-8"?>
<!-- Generator: Adobe Illustrator 23.1.0, SVG Export Plug-In . SVG Version: 6.00 Build 0)  -->
<svg version="1.1" id="Layer_1" xmlns="http://www.w3.org/2000/svg" xmlns:xlink="http://www.w3.org/1999/xlink" x="0px" y="0px"
	 viewBox="0 0 400 100" style="enable-background:new 0 0 400 100;" xml:space="preserve">
<style type="text/css">
	.st0{fill:#182335;}
</style>
<rect x="6" class="st0" width="2" height="100"/>
<rect x="12" class="st0" width="2" height="75"/>
<rect x="22" class="st0" width="2" height="75"/>
<rect x="28" class="st0" width="2" height="75"/>
<rect x="62" class="st0" width="2" height="75"/>
<rect x="66" class="st0" width="2" height="75"/>
<rect x="84" class="st0" width="2" height="75"/>
<rect x="100" class="st0" width="2" height="75"/>
<rect x="104" class="st0" width="2" height="75"/>
<rect x="110" class="st0" width="2" height="75"/>
<rect x="126" class="st0" width="2" height="75"/>
<rect x="132" class="st0" width="2" height="75"/>
<rect x="150" class="st0" width="2" height="75"/>
<rect x="166" class="st0" width="2" height="75"/>
<rect x="162" class="st0" width="2" height="75"/>
<rect x="216" class="st0" width="2" height="100"/>
<rect x="220" class="st0" width="2" height="100"/>
<rect x="226" class="st0" width="2" height="100"/>
<rect x="242" class="st0" width="2" height="100"/>
<rect x="254" class="st0" width="2" height="100"/>
<rect x="264" class="st0" width="2" height="100"/>
<rect x="270" class="st0" width="2" height="100"/>
<rect x="308" class="st0" width="2" height="100"/>
<rect x="324" class="st0" width="2" height="100"/>
<rect x="342" class="st0" width="2" height="100"/>
<rect x="346" class="st0" width="2" height="100"/>
<rect x="352" class="st0" width="2" height="100"/>
<rect x="362" class="st0" width="2" height="100"/>
<rect x="392" class="st0" width="2" height="100"/>
<rect x="396" class="st0" width="4" height="100"/>
<rect x="374" class="st0" width="4" height="100"/>
<rect x="366" class="st0" width="4" height="100"/>
<rect x="330" class="st0" width="4" height="100"/>
<rect x="318" class="st0" width="4" height="100"/>
<rect x="302" class="st0" width="4" height="100"/>
<rect x="286" class="st0" width="4" height="100"/>
<rect x="274" class="st0" width="4" height="100"/>
<rect x="248" class="st0" width="4" height="100"/>
<rect x="230" class="st0" width="4" height="100"/>
<rect x="182" class="st0" width="4" height="100"/>
<rect x="176" class="st0" width="4" height="100"/>
<rect x="154" class="st0" width="4" height="75"/>
<rect x="138" class="st0" width="4" height="75"/>
<rect x="88" class="st0" width="4" height="75"/>
<rect x="32" class="st0" width="4" height="75"/>
<rect class="st0" width="4" height="100"/>
<rect x="44" class="st0" width="8" height="75"/>
<rect x="74" class="st0" width="8" height="75"/>
<rect x="116" class="st0" width="8" height="75"/>
<rect x="188" class="st0" width="8" height="100"/>
<rect x="198" class="st0" width="8" height="100"/>
<rect x="292" class="st0" width="8" height="100"/>
<rect x="384" class="st0" width="6" height="100"/>
<rect x="208" class="st0" width="6" height="100"/>
<rect x="54" class="st0" width="6" height="75"/>
<g>
	<path class="st0" d="M19.9,92.7l-1.2-3.2h-4.1l-1.2,3.2h-1.3l4-10.3h1.2l4,10.3H19.9z M17.1,85.3c0-0.1-0.1-0.2-0.1-0.4
		c-0.1-0.2-0.1-0.4-0.2-0.6c-0.1-0.2-0.1-0.4-0.2-0.5c-0.1,0.3-0.1,0.6-0.2,0.9s-0.2,0.5-0.2,0.7l-1.2,3.1h3.2L17.1,85.3z"/>
	<path class="st0" d="M30.6,92.7l-2.5-8h-0.1c0,0.2,0,0.5,0,0.9c0,0.4,0,0.8,0.1,1.2c0,0.4,0,0.8,0,1.2v4.8h-1.9V82.4h3l2.4,7.8h0
		l2.6-7.8h3v10.2h-2v-4.8c0-0.3,0-0.7,0-1.1s0-0.8,0-1.2c0-0.4,0-0.7,0-0.9h-0.1l-2.6,8H30.6z"/>
	<path class="st0" d="M49.1,87.5c0,1.1-0.2,2-0.5,2.8c-0.3,0.8-0.9,1.4-1.6,1.8c-0.7,0.4-1.6,0.7-2.8,0.7c-1.1,0-2-0.2-2.7-0.7
		c-0.7-0.4-1.3-1.1-1.6-1.8c-0.3-0.8-0.5-1.7-0.5-2.8s0.2-2,0.5-2.8c0.3-0.8,0.9-1.4,1.6-1.8c0.7-0.4,1.6-0.7,2.8-0.7
		c1.1,0,2,0.2,2.7,0.7s1.3,1,1.6,1.8C48.9,85.6,49.1,86.5,49.1,87.5z M41.6,87.5c0,1.1,0.2,1.9,0.6,2.5c0.4,0.6,1.1,0.9,2,0.9
		c0.9,0,1.6-0.3,2-0.9c0.4-0.6,0.6-1.5,0.6-2.5c0-1.1-0.2-1.9-0.6-2.5c-0.4-0.6-1.1-0.9-2-0.9s-1.6,0.3-2,0.9
		C41.8,85.6,41.6,86.5,41.6,87.5z"/>
	<path class="st0" d="M60.3,92.7h-2.8l-4.5-7.7H53c0,0.5,0,1,0.1,1.5s0,1,0.1,1.5v4.8h-1.9V82.4H54l4.4,7.7h0c0-0.5,0-1,0-1.4
		c0-0.5,0-0.9-0.1-1.4v-4.8h2V92.7z"/>
	<path class="st0" d="M66.8,92.7h-2.2v-8.4h-2.8v-1.8h7.7v1.8h-2.8V92.7z"/>
	<path class="st0" d="M79.6,92.7h-2.2v-4.4h-4.1v4.4h-2.2V82.4h2.2v4h4.1v-4h2.2V92.7z"/>
	<path class="st0" d="M82.2,92.7V82.4h2.2v8.4h4.2v1.8H82.2z"/>
	<path class="st0" d="M93,86.7l2.1-4.2h2.3l-3.4,6.3v4h-2.2v-3.9l-3.4-6.3h2.4L93,86.7z"/>
	<path class="st0" d="M107.1,92.7l-3.4-9h-0.1c0,0.3,0.1,0.7,0.1,1.2c0,0.5,0,1,0,1.6v6.2h-1.2V82.4h1.9l3.2,8.4h0.1l3.2-8.4h1.9
		v10.2h-1.3v-6.3c0-0.5,0-1,0-1.5c0-0.5,0-0.9,0.1-1.2h-0.1l-3.4,9H107.1z"/>
	<path class="st0" d="M122.1,92.7l-1.2-3.2h-4.1l-1.2,3.2h-1.3l4-10.3h1.2l4,10.3H122.1z M119.3,85.3c0-0.1-0.1-0.2-0.1-0.4
		c-0.1-0.2-0.1-0.4-0.2-0.6c-0.1-0.2-0.1-0.4-0.2-0.5c-0.1,0.3-0.1,0.6-0.2,0.9s-0.2,0.5-0.2,0.7l-1.2,3.1h3.2L119.3,85.3z"/>
	<path class="st0" d="M129,87.3h3.5v5c-0.6,0.2-1.1,0.3-1.7,0.4c-0.6,0.1-1.2,0.1-1.9,0.1c-1.1,0-2-0.2-2.7-0.6
		c-0.7-0.4-1.3-1-1.7-1.8s-0.6-1.7-0.6-2.8c0-1.1,0.2-2,0.6-2.8s1-1.4,1.8-1.8c0.8-0.4,1.7-0.7,2.9-0.7c0.6,0,1.1,0.1,1.6,0.2
		c0.5,0.1,1,0.3,1.4,0.4l-0.5,1.1c-0.4-0.2-0.8-0.3-1.2-0.4c-0.5-0.1-0.9-0.2-1.4-0.2c-1.2,0-2.2,0.4-2.9,1.1s-1,1.7-1,3
		c0,0.8,0.1,1.5,0.4,2.2c0.3,0.6,0.7,1.1,1.2,1.5c0.6,0.3,1.3,0.5,2.2,0.5c0.4,0,0.8,0,1.1-0.1s0.6-0.1,0.9-0.2v-3H129V87.3z"/>
	<path class="st0" d="M141.1,92.7l-0.7-2.4h-3.7l-0.7,2.4h-2.3l3.6-10.3h2.7l3.6,10.3H141.1z M139.1,86c0-0.2-0.1-0.4-0.2-0.6
		c-0.1-0.2-0.2-0.5-0.2-0.8c-0.1-0.3-0.1-0.5-0.2-0.7c0,0.2-0.1,0.4-0.2,0.7c-0.1,0.3-0.2,0.6-0.2,0.8s-0.1,0.4-0.2,0.5l-0.7,2.4
		h2.7L139.1,86z"/>
	<path class="st0" d="M151.4,92.7h-7.6v-1.4l4.9-7h-4.8v-1.8h7.4v1.4l-4.9,7h5V92.7z"/>
	<path class="st0" d="M156.9,92.7h-4.7v-1.2l1.2-0.6v-6.6l-1.2-0.6v-1.2h4.7v1.2l-1.2,0.6v6.6l1.2,0.6V92.7z"/>
	<path class="st0" d="M167.7,92.7H165l-4.5-7.7h-0.1c0,0.5,0,1,0.1,1.5s0,1,0.1,1.5v4.8h-1.9V82.4h2.7l4.4,7.7h0c0-0.5,0-1,0-1.4
		c0-0.5,0-0.9-0.1-1.4v-4.8h2V92.7z"/>
</g>
</svg>
