<?xml version="1.0" encoding="utf-8"?>
<!-- Generator: Adobe Illustrator 23.1.0, SVG Export Plug-In . SVG Version: 6.00 Build 0)  -->
<svg version="1.1" id="Layer_1" xmlns="http://www.w3.org/2000/svg" xmlns:xlink="http://www.w3.org/1999/xlink" x="0px" y="0px"
	 viewBox="0 0 423 573" style="enable-background:new 0 0 423 573;" xml:space="preserve">
<style type="text/css">
	.st0{fill:#182335;}
	.st1{fill:none;stroke:#182335;stroke-width:2;}
	.st2{fill:none;stroke:#182335;}
	.st3{fill:#182335;stroke:#182335;stroke-width:2;stroke-linecap:round;stroke-linejoin:round;stroke-miterlimit:10;}
	.st4{fill:#FFFFFF;stroke:#182335;stroke-width:2;stroke-linecap:round;stroke-linejoin:round;stroke-miterlimit:10;}
	.st5{fill:#ECC4B9;stroke:#182335;stroke-width:2;stroke-linecap:round;stroke-linejoin:round;stroke-miterlimit:10;}
	.st6{fill:#E15546;stroke:#182335;stroke-width:2;stroke-linecap:round;stroke-linejoin:round;stroke-miterlimit:10;}
	.st7{fill:#EAE5D2;stroke:#182335;stroke-width:2;stroke-linecap:round;stroke-linejoin:round;stroke-miterlimit:10;}
	.st8{fill:none;stroke:#000000;}
	.st9{fill:#8FC2A8;}
	.st10{fill:#5E9B7C;}
	.st11{fill:#468263;}
	.st12{fill:url(#SVGID_1_);}
	.st13{fill:url(#SVGID_2_);}
	.st14{fill:url(#SVGID_3_);}
	.st15{fill:#704728;}
	.st16{fill:url(#SVGID_4_);}
</style>
<g>
	<path class="st0" d="M196.2,516.7v0.6h2.1v0.6h1v-6.3h-1v5.1H196.2z M194,512.5c1.1,0,1.7,0.4,1.7,0.9c0,0.6-0.7,0.9-1.7,0.9
		c-1,0-1.7-0.4-1.7-0.9C192.3,512.9,193,512.5,194,512.5z M194,515.1c1.6,0,2.7-0.6,2.7-1.6c0-1-1.1-1.6-2.7-1.6
		c-1.6,0-2.7,0.6-2.7,1.6C191.4,514.4,192.4,515.1,194,515.1z M193.4,518h1v-1.7c1-0.1,2.1-0.1,3.2-0.3l-0.1-0.6
		c-2.3,0.3-4.9,0.3-7,0.3l0.1,0.7c0.9,0,1.8,0,2.8,0V518z M193.1,521.5v-0.9h6.2v-2.2h-7.2v0.7h6.3v0.9h-6.2v2.3h7.6v-0.7H193.1z
		 M202.1,512.5v0.8h4c-0.2,1.9-1.9,3.4-4.4,4.2l0.4,0.8c3.1-1,5.1-3,5.1-5.8H202.1z M204.2,518.7h-1v3.5h7.2v-0.8h-6.2V518.7z
		 M209.9,514.9v-3.3h-1v7.9h1v-3.8h1.6v-0.8H209.9z M215.5,519.1c-1,0-1.8-1.1-1.8-2.9c0-1.7,0.7-2.9,1.8-2.9c1,0,1.8,1.1,1.8,2.9
		C217.3,518,216.5,519.1,215.5,519.1z M215.5,512.5c-1.6,0-2.7,1.5-2.7,3.8s1.1,3.8,2.7,3.8s2.7-1.5,2.7-3.8
		S217.1,512.5,215.5,512.5z M222.7,515.9h-1.8v-4.3h-1v10.8h1v-5.6h1.8V515.9z M232.5,511.6h-1v7.9h1V511.6z M230.3,517.2
		c-1.6-0.5-2.7-1.8-2.7-3.3v-0.6h2.4v-0.8h-5.9v0.8h2.5v0.6c0,1.5-1.1,2.9-2.7,3.5l0.5,0.8c1.3-0.5,2.3-1.4,2.7-2.7
		c0.5,1.1,1.5,2,2.7,2.4L230.3,517.2z M226.6,521.3v-2.6h-1v3.4h7.2v-0.8H226.6z"/>
	<path class="st0" d="M351.2,72.5h-5.7v-0.9l2.2-2.3c0.4-0.4,0.8-0.8,1.1-1.2c0.3-0.3,0.5-0.7,0.7-1c0.2-0.3,0.2-0.7,0.2-1.1
		c0-0.5-0.1-0.8-0.4-1.1c-0.3-0.2-0.6-0.4-1.1-0.4c-0.4,0-0.8,0.1-1.1,0.2c-0.3,0.1-0.6,0.3-1,0.6l-0.6-0.7c0.3-0.3,0.7-0.5,1.2-0.7
		c0.4-0.2,0.9-0.3,1.5-0.3c0.8,0,1.4,0.2,1.9,0.6c0.5,0.4,0.7,1,0.7,1.7c0,0.4-0.1,0.9-0.3,1.3c-0.2,0.4-0.4,0.8-0.8,1.2
		c-0.3,0.4-0.7,0.8-1.2,1.2l-1.8,1.8v0h4.3V72.5z M358.1,68.2c0,0.9-0.1,1.7-0.3,2.4c-0.2,0.7-0.5,1.2-0.9,1.5
		c-0.4,0.4-1,0.5-1.7,0.5c-1,0-1.7-0.4-2.1-1.2c-0.5-0.8-0.7-1.9-0.7-3.3c0-0.9,0.1-1.7,0.3-2.4c0.2-0.7,0.5-1.2,0.9-1.5
		c0.4-0.4,1-0.5,1.6-0.5c1,0,1.7,0.4,2.1,1.2C357.9,65.7,358.1,66.8,358.1,68.2z M353.5,68.2c0,1.2,0.1,2.1,0.4,2.6
		c0.3,0.6,0.7,0.9,1.4,0.9c0.6,0,1.1-0.3,1.4-0.9c0.3-0.6,0.4-1.5,0.4-2.7c0-1.2-0.1-2-0.4-2.6c-0.3-0.6-0.7-0.9-1.4-0.9
		c-0.6,0-1.1,0.3-1.4,0.9C353.6,66.2,353.5,67,353.5,68.2z M364.9,72.5h-5.7v-0.9l2.2-2.3c0.4-0.4,0.8-0.8,1.1-1.2
		c0.3-0.3,0.5-0.7,0.7-1c0.2-0.3,0.2-0.7,0.2-1.1c0-0.5-0.1-0.8-0.4-1.1c-0.3-0.2-0.6-0.4-1.1-0.4c-0.4,0-0.8,0.1-1.1,0.2
		c-0.3,0.1-0.6,0.3-1,0.6l-0.6-0.7c0.3-0.3,0.7-0.5,1.2-0.7c0.4-0.2,0.9-0.3,1.5-0.3c0.8,0,1.4,0.2,1.9,0.6c0.5,0.4,0.7,1,0.7,1.7
		c0,0.4-0.1,0.9-0.3,1.3c-0.2,0.4-0.4,0.8-0.8,1.2c-0.3,0.4-0.7,0.8-1.2,1.2l-1.8,1.8v0h4.3V72.5z M371.8,72.5h-5.7v-0.9l2.2-2.3
		c0.4-0.4,0.8-0.8,1.1-1.2c0.3-0.3,0.5-0.7,0.7-1c0.2-0.3,0.2-0.7,0.2-1.1c0-0.5-0.1-0.8-0.4-1.1c-0.3-0.2-0.6-0.4-1.1-0.4
		c-0.4,0-0.8,0.1-1.1,0.2c-0.3,0.1-0.6,0.3-1,0.6l-0.6-0.7c0.3-0.3,0.7-0.5,1.2-0.7c0.4-0.2,0.9-0.3,1.5-0.3c0.8,0,1.4,0.2,1.9,0.6
		c0.5,0.4,0.7,1,0.7,1.7c0,0.4-0.1,0.9-0.3,1.3c-0.2,0.4-0.4,0.8-0.8,1.2c-0.3,0.4-0.7,0.8-1.2,1.2l-1.8,1.8v0h4.3V72.5z
		 M380.9,70.6h1v-8h-1V64h-3v0.8h3v1.3h-3v0.8h3V70.6z M379.2,67.8c-1.6,0.3-3,0.4-4.5,0.4v-4.8h-1V69h0.8c1.6,0,3-0.1,4.8-0.4
		L379.2,67.8z M376,72.3v-2.4h-1v3.2h7.2v-0.8H376z M389.5,71.2v-2.8h3.3v-0.8h-6.4v-3.4h6.3v-0.8h-7.3v5h3.1v2.8h-4.4V72h9.8v-0.8
		H389.5z M366.2,82.7h1.9v-0.8h-4.9v0.8h2v1c0,2-0.8,3.9-2.3,4.8l0.6,0.7c1.1-0.7,1.8-1.9,2.2-3.4c0.4,1.4,1.1,2.5,2.2,3.1l0.6-0.7
		c-1.5-0.8-2.3-2.7-2.3-4.6V82.7z M369.1,84.5h-1.8v0.8h1.8v5.5h0.9v-10h-0.9V84.5z M371.3,80.6v10.8h0.9V80.6H371.3z M382.5,83.9
		c0,0.6-0.2,1-0.5,1.4c-0.3,0.3-0.8,0.6-1.3,0.7v0c0.7,0.1,1.2,0.3,1.5,0.6c0.3,0.4,0.5,0.8,0.5,1.4c0,0.5-0.1,0.9-0.3,1.3
		c-0.2,0.4-0.6,0.7-1.1,0.9c-0.5,0.2-1.1,0.3-1.9,0.3c-0.4,0-0.9,0-1.2-0.1c-0.4-0.1-0.8-0.2-1.1-0.4v-1c0.4,0.2,0.7,0.3,1.2,0.4
		c0.4,0.1,0.8,0.1,1.2,0.1c0.8,0,1.3-0.1,1.7-0.4c0.3-0.3,0.5-0.7,0.5-1.2c0-0.5-0.2-0.9-0.6-1.2c-0.4-0.2-1-0.4-1.8-0.4h-0.8v-0.9
		h0.8c0.7,0,1.2-0.1,1.6-0.4c0.4-0.3,0.6-0.7,0.6-1.2c0-0.4-0.1-0.7-0.4-1c-0.3-0.2-0.7-0.3-1.1-0.3c-0.5,0-0.9,0.1-1.2,0.2
		s-0.7,0.3-1,0.5l-0.5-0.7c0.3-0.2,0.7-0.4,1.1-0.6c0.5-0.2,1-0.3,1.5-0.3c0.9,0,1.6,0.2,2,0.6C382.3,82.8,382.5,83.3,382.5,83.9z
		 M393.3,82.2h-3.9v-1.4h-1v1.4h-3.9V83h8.7V82.2z M386.4,85.8c0-0.8,1-1.3,2.5-1.3c1.5,0,2.5,0.5,2.5,1.3c0,0.8-1,1.3-2.5,1.3
		C387.4,87.1,386.4,86.6,386.4,85.8z M389.5,89.3v-1.5c1.9-0.1,3-0.8,3-2c0-1.3-1.4-2-3.5-2c-2.2,0-3.5,0.7-3.5,2c0,1.2,1.2,1.9,3,2
		v1.5h-4.4v0.8h9.8v-0.8H389.5z"/>
	<line class="st1" x1="29.5" y1="121.5" x2="394.5" y2="121.5"/>
	<line class="st1" x1="29.5" y1="51.5" x2="394.5" y2="51.5"/>
	<line class="st2" x1="29.5" y1="504" x2="394.5" y2="504"/>
	<path class="st3" d="M199,112.5c6.9,0,12.5-5.6,12.5-12.5c0-6.9-5.6-12.5-12.5-12.5s-12.5,5.6-12.5,12.5
		C186.5,106.9,192.1,112.5,199,112.5z"/>
	<path class="st4" d="M186.5,100c0-2.2,0.6-4.3,1.5-6c0.4-0.8,1-1.5,1.6-2.2c0.5-0.5,1-1,1.6-1.5c0.5-0.4,1-0.8,1.5-1.1
		c0.5-0.3,1-0.6,1.5-0.8c0.5-0.2,1-0.4,1.6-0.5c0.5-0.1,1-0.2,1.6-0.3c0.5-0.1,1-0.1,1.5-0.1v25c-0.5,0-1,0-1.5-0.1
		c-0.5-0.1-1.1-0.2-1.6-0.3c-0.5-0.1-1.1-0.3-1.6-0.5c-0.5-0.2-1.1-0.5-1.5-0.8c-0.6-0.3-1.1-0.7-1.5-1.1c-0.6-0.4-1.1-1-1.6-1.5
		c-0.6-0.7-1.1-1.4-1.6-2.2C187.1,104.3,186.5,102.2,186.5,100z"/>
	<path class="st4" d="M236.5,62.5h-25V75h25V62.5z"/>
	<path class="st4" d="M211.5,75c0,6.9-5.6,12.5-12.5,12.5s-12.5-5.6-12.5-12.5H211.5z"/>
	<path class="st4" d="M224,100c0-2.2,0.6-4.3,1.5-6c0.4-0.8,1-1.5,1.6-2.2c0.5-0.5,1-1,1.6-1.5c0.5-0.4,1-0.8,1.5-1.1
		c0.5-0.3,1-0.6,1.5-0.8c0.5-0.2,1-0.4,1.6-0.5c0.5-0.1,1-0.2,1.6-0.3c0.5-0.1,1-0.1,1.5-0.1v25c-0.5,0-1,0-1.5-0.1
		c-0.5-0.1-1.1-0.2-1.6-0.3c-0.5-0.1-1.1-0.3-1.6-0.5c-0.5-0.2-1.1-0.5-1.5-0.8c-0.6-0.3-1.1-0.7-1.5-1.1c-0.6-0.4-1.1-1-1.6-1.5
		c-0.6-0.7-1.1-1.4-1.6-2.2C224.6,104.3,224,102.2,224,100z"/>
	<path class="st5" d="M236.5,87.5h-25v10.3h25V87.5z"/>
	<path class="st4" d="M211.5,87.5c6.9,0,12.5,5.6,12.5,12.5c0,6.9-5.6,12.5-12.5,12.5V87.5z"/>
	<path class="st6" d="M236.5,62.5c-6.9,0-12.5,5.6-12.5,12.5s5.6,12.5,12.5,12.5V62.5z"/>
	<path class="st7" d="M199,62.5c-6.9,0-12.5,5.6-12.5,12.5h25C211.5,68.1,205.9,62.5,199,62.5z"/>
	<line class="st8" x1="295" y1="52.5" x2="295" y2="122.5"/>
	<line class="st8" x1="130" y1="52.5" x2="130" y2="122.5"/>
	<path class="st0" d="M51.9,69.5c-3.1-0.9-4.4-3.2-4.4-5.6v-1.2h-2.8V64c0,2.5-1.3,5-4.6,6l1.4,2.2c2.3-0.7,3.8-2.2,4.7-4.1
		c0.8,1.6,2.2,2.9,4.3,3.6L51.9,69.5z M44.6,77.9h3.6V73h-6.3v2h3.7v1h-3.6v5.1H43c2.6,0,4,0,5.7-0.3l-0.2-2
		c-1.3,0.2-2.3,0.3-3.9,0.3V77.9z M51.6,75h1.6v4.2h-1.6V75z M49.2,81.2h6.4V73h-6.4V81.2z M58.2,65.8h-2.5V62h-2.8v10.2h2.8v-4.2
		h2.5V65.8z M68.5,64.7c2.6,0,4.2,0.6,4.2,1.8c0,1.2-1.6,1.8-4.2,1.8c-2.6,0-4.1-0.6-4.1-1.8C64.3,65.3,65.9,64.7,68.5,64.7z
		 M68.5,70.5c4.2,0,7-1.5,7-4c0-2.5-2.8-4-7-4c-4.2,0-7,1.5-7,4C61.5,69,64.3,70.5,68.5,70.5z M64.6,75.3h-2.8V81h13.4v-2.2H64.6
		V75.3z M59.7,71.8V74h17.5v-2.2H59.7z M50.4,95.1h-1.9c0.1-0.9,0.2-1.8,0.2-2.8h-7.5v2.2H46c-0.4,3.8-2,6.6-5.9,8.9l1.6,1.9
		c3.6-2.1,5.5-4.8,6.4-8h2.3v2.6h-2.7v2.2h2.7v6.3H53V90.4h-2.6V95.1z M54.4,89.9v19.4H57V89.9H54.4z M70.9,98.7
		c-2.4,0.4-4.5,0.6-7.7,0.6v-2h6v-6.1h-8.8v2.2h6.1v1.8h-6.1v6.3h1.7c3.9,0,6.3-0.1,9-0.6L70.9,98.7z M65.3,103.1h-2.8v5.9h13.1
		v-2.2H65.3V103.1z M74.9,95.5V90h-2.8v14.3h2.8v-6.4h2.6v-2.3H74.9z"/>
	<path class="st9" d="M147.5,382.5c0-5.5,4.5-10,10-10h111c5.5,0,10,4.5,10,10v35h-131V382.5z"/>
	<rect x="147.5" y="417.5" class="st10" width="26" height="9"/>
	<rect x="252.5" y="417.5" class="st10" width="26" height="9"/>
	<rect x="147.5" y="426.5" class="st11" width="26" height="2"/>
	<rect x="252.5" y="426.5" class="st11" width="26" height="2"/>
	<ellipse class="st10" cx="213" cy="384.5" rx="42.5" ry="10"/>
	
		<linearGradient id="SVGID_1_" gradientUnits="userSpaceOnUse" x1="-407.5104" y1="555.2089" x2="-368.727" y2="555.2089" gradientTransform="matrix(1 0 0 -1 539.01 817.4)">
		<stop  offset="0" style="stop-color:#E6E6E6"/>
		<stop  offset="1" style="stop-color:#CCCCCC"/>
	</linearGradient>
	<path class="st12" d="M170.3,239.5c0,0-6-2.9-17.2-2.9c-11.3,0-20.3,6.7-18,13.5c2.3,6.7-9,22.5,0,31.5c9,9,11.3,6.7,18,2.3
		C161.5,278.3,161.3,246.2,170.3,239.5z"/>
	
		<linearGradient id="SVGID_2_" gradientUnits="userSpaceOnUse" x1="-286.074" y1="558.0648" x2="-246.3609" y2="558.0648" gradientTransform="matrix(1 0 0 -1 539.01 817.4)">
		<stop  offset="0" style="stop-color:#CCCCCC"/>
		<stop  offset="1" style="stop-color:#E6E6E6"/>
	</linearGradient>
	<path class="st13" d="M252.9,246.1c0,0,2.9,16,8.4,32c5,14.4,36.1,15.2,30.7-2.1c-5.8-18.6,2.9-32.5-10.2-42
		C267,223.3,255.2,234.8,252.9,246.1z"/>
	
		<linearGradient id="SVGID_3_" gradientUnits="userSpaceOnUse" x1="-326.3513" y1="427.675" x2="-326.3513" y2="595.8649" gradientTransform="matrix(1 0 0 -1 539.01 817.4)">
		<stop  offset="0" style="stop-color:#D19869"/>
		<stop  offset="1" style="stop-color:#F7DAC4"/>
	</linearGradient>
	<path class="st14" d="M275.7,301.2c-8.3-49.5-30.3-68.5-46-75.7c-12.4-5.8-23.4-3.9-29.4-2c-15.6,5.5-41.5,23-50.7,77.7
		c-11.3,67.5,27,88.6,63,88.6S287,368.6,275.7,301.2z"/>
	<path class="st15" d="M200.1,387.6c0-4.4-5.5-7.9-12.3-7.9c-6.8,0-12.3,3.5-12.3,7.9c0,0,0,0,0,0.1v0v5.1c0,1.5,1.2,2.7,2.7,2.7
		h19.1c1.5,0,2.7-1.2,2.7-2.7V387.6L200.1,387.6C200.1,387.7,200.1,387.6,200.1,387.6z"/>
	<path class="st15" d="M247.4,387.6c0-4.4-5.5-7.9-12.3-7.9s-12.3,3.5-12.3,7.9c0,0,0,0,0,0.1v0v5.1c0,1.5,1.2,2.7,2.7,2.7h19.1
		c1.5,0,2.7-1.2,2.7-2.7V387.6L247.4,387.6C247.4,387.7,247.4,387.6,247.4,387.6z"/>
	<path class="st15" d="M201.6,299.8c1.8,0.9,2.8,2.1,1.5,3.3c-1.3,1.2-4.5,2.1-6.3,1.2c-1.8-0.9-2.7-2.2-0.9-3.9
		C197.2,299.2,199.7,298.9,201.6,299.8z"/>
	<path class="st15" d="M223.7,299.8c-1.8,0.9-2.8,2.1-1.5,3.3c1.3,1.2,4.5,2.1,6.3,1.2c1.8-0.9,2.7-2.2,0.9-3.9
		C228.1,299.2,225.6,298.9,223.7,299.8z"/>
	<path class="st15" d="M214.1,321.5c-5.1,0-8.9-2.7-9-2.7c-0.6-0.4-0.7-1.2-0.3-1.8c0.4-0.6,1.2-0.7,1.8-0.3c0.3,0.2,7.2,5,14.2,0
		c0.6-0.4,1.4-0.3,1.8,0.3c0.4,0.6,0.3,1.4-0.3,1.8C219.6,320.8,216.7,321.5,214.1,321.5z"/>
	<path class="st15" d="M191.3,297.6c-0.3,0-0.7-0.1-0.9-0.4c-0.5-0.5-0.5-1.3,0-1.8c0.3-0.3,2.7-2.6,5.4-2.6c0.7,0,1.3,0.6,1.3,1.3
		c0,0.7-0.6,1.3-1.3,1.3c-1.4,0-3.1,1.4-3.6,1.9C191.9,297.4,191.6,297.6,191.3,297.6z"/>
	
		<linearGradient id="SVGID_4_" gradientUnits="userSpaceOnUse" x1="-382.634" y1="575.688" x2="-269.019" y2="575.688" gradientTransform="matrix(1 0 0 -1 539.01 817.4)">
		<stop  offset="0" style="stop-color:#E6E6E6"/>
		<stop  offset="0.4765" style="stop-color:#F2F2F2"/>
		<stop  offset="1" style="stop-color:#E6E6E6"/>
	</linearGradient>
	<path class="st16" d="M156.4,272c0,0,47-13.6,113.6,2.9c0,0-10-65.4-52.7-66.4C193.4,207.9,167.1,219,156.4,272z"/>
	<path class="st15" d="M271.6,335.1c-0.3-1.2,0.5-2.3,1.6-2.6c4.8-1.1,10.8-7.1,12.7-9.3c0.8-0.9,2.1-1,3-0.2c0.9,0.8,1,2.1,0.2,3
		c-0.3,0.4-7.8,9.1-15.1,10.7C273,337,271.9,336.3,271.6,335.1z"/>
	<path class="st15" d="M153.6,335.8c0,0.1,0,0.2,0,0.4c-0.2,1.2-1.4,1.9-2.5,1.7c-14.6-2.8-17.1-10.5-17.2-10.8
		c-0.3-1.1,0.3-2.3,1.4-2.7c1.1-0.3,2.3,0.3,2.7,1.4c0.1,0.2,2.3,5.7,13.9,7.9C152.9,333.9,153.7,334.8,153.6,335.8z"/>
</g>
</svg>
