<?xml version="1.0" encoding="utf-8"?>
<!-- Generator: Adobe Illustrator 23.1.0, SVG Export Plug-In . SVG Version: 6.00 Build 0)  -->
<svg version="1.1" id="Layer_1" xmlns="http://www.w3.org/2000/svg" xmlns:xlink="http://www.w3.org/1999/xlink" x="0px" y="0px"
	 viewBox="0 0 337.7 130.7" style="enable-background:new 0 0 337.7 130.7;" xml:space="preserve">
<style type="text/css">
	.st0{fill:#182335;}
	.st1{fill:#EAE5D2;stroke:#182335;stroke-width:2;stroke-miterlimit:10;}
	.st2{fill:#182335;stroke:#ECC4B9;stroke-width:2;stroke-miterlimit:10;}
	.st3{opacity:0.3;fill:#E15546;}
	.st4{fill:#ECC4B9;stroke:#182335;stroke-width:2;stroke-miterlimit:10;}
	.st5{opacity:0.6;fill:#E15546;}
	.st6{opacity:0.3;}
	.st7{fill:#E15546;}
	.st8{fill:#ECC4B9;}
</style>
<g>
	<path class="st0" d="M335.1,110.7h-11.3V30.4c0-3.1-2.6-5.7-5.7-5.7h-28V11.9c0-4.4-3.5-7.9-7.9-7.9h-4.2c-4.4,0-7.9,3.5-7.9,7.9
		v12.8H71.5V11.9C71.5,7.5,68,4,63.6,4h-4.2c-4.4,0-7.9,3.5-7.9,7.9v12.8h-28c-3.1,0-5.7,2.6-5.7,5.7v80.3H6.6
		c-1.4,0-2.6,1.1-2.6,2.5v12.7H0v2.8l4,2h333.7v-17.5C337.7,111.8,336.5,110.7,335.1,110.7z"/>
	<g>
		<g>
			<path class="st1" d="M60.6,1h-4.2c-4.4,0-7.9,3.5-7.9,7.9v15.8h20V8.9C68.5,4.5,65,1,60.6,1z"/>
			<circle class="st2" cx="58.5" cy="11.3" r="4.2"/>
			<path class="st3" d="M49.5,19.3v7.4h17.9v-7.4"/>
		</g>
		<g>
			<path class="st1" d="M279.3,1h-4.2c-4.4,0-7.9,3.5-7.9,7.9v15.8h20V8.9C287.2,4.5,283.7,1,279.3,1z"/>
			<circle class="st2" cx="277.2" cy="11.3" r="4.2"/>
			<path class="st3" d="M268.2,19.3v7.4h17.9v-7.4"/>
		</g>
		<path class="st4" d="M315.1,123.7H20.5c-3.1,0-5.7-2.6-5.7-5.7V27.4c0-3.1,2.6-5.7,5.7-5.7h294.6c3.1,0,5.7,2.6,5.7,5.7V118
			C320.8,121.2,318.3,123.7,315.1,123.7z"/>
		<polygon class="st3" points="319.7,117.2 16,117.2 16,52.2 319.7,84.2 		"/>
		<polygon class="st5" points="319.7,117.2 16,117.2 16,100 319.7,105.2 		"/>
		<g class="st6">
			<rect x="57.8" y="22.8" class="st7" width="107" height="94.4"/>
			<rect x="192.8" y="22.8" class="st7" width="107" height="94.4"/>
		</g>
		<path class="st1" d="M334.7,127.7H1v-17.4c0-1.4,1.1-2.6,2.5-2.6h328.6c1.4,0,2.5,1.1,2.5,2.6V127.7z"/>
		<polygon class="st8" points="2.1,126.6 333.6,126.6 333.6,123.1 2.1,113.6 		"/>
	</g>
</g>
</svg>
