<?xml version="1.0" encoding="utf-8"?>
<!-- Generator: Adobe Illustrator 23.1.0, SVG Export Plug-In . SVG Version: 6.00 Build 0)  -->
<svg version="1.1" id="Layer_1" xmlns="http://www.w3.org/2000/svg" xmlns:xlink="http://www.w3.org/1999/xlink" x="0px" y="0px"
	 viewBox="0 0 423 573" style="enable-background:new 0 0 423 573;" xml:space="preserve">
<style type="text/css">
	.st0{fill:#182335;}
	.st1{fill:none;stroke:#182335;stroke-width:2;}
	.st2{fill:none;stroke:#182335;}
	.st3{fill:#182335;stroke:#182335;stroke-width:2;stroke-linecap:round;stroke-linejoin:round;stroke-miterlimit:10;}
	.st4{fill:#FFFFFF;stroke:#182335;stroke-width:2;stroke-linecap:round;stroke-linejoin:round;stroke-miterlimit:10;}
	.st5{fill:#ECC4B9;stroke:#182335;stroke-width:2;stroke-linecap:round;stroke-linejoin:round;stroke-miterlimit:10;}
	.st6{fill:#E15546;stroke:#182335;stroke-width:2;stroke-linecap:round;stroke-linejoin:round;stroke-miterlimit:10;}
	.st7{fill:#EAE5D2;stroke:#182335;stroke-width:2;stroke-linecap:round;stroke-linejoin:round;stroke-miterlimit:10;}
	.st8{fill:none;stroke:#000000;}
	.st9{fill:#D9D9D9;}
	.st10{fill:url(#SVGID_1_);}
	.st11{fill:#475984;}
	.st12{fill:#384772;}
	.st13{fill:#303E6D;}
	.st14{fill:#6371AD;}
	.st15{fill:#EAEAEA;}
	.st16{fill:#5869A0;}
	.st17{fill:none;stroke:#475984;stroke-width:10;stroke-linecap:round;stroke-linejoin:round;stroke-miterlimit:10;}
	.st18{fill:#1D2126;}
	.st19{fill:#272C33;}
	.st20{fill:#BCBCBC;}
	.st21{fill:#2D2A27;}
	.st22{fill:#5B5652;}
	.st23{fill:url(#SVGID_2_);}
</style>
<path class="st0" d="M196.2,516.7v0.6h2.1v0.6h1v-6.3h-1v5.1H196.2z M194,512.5c1.1,0,1.7,0.4,1.7,0.9c0,0.6-0.7,0.9-1.7,0.9
	c-1,0-1.7-0.4-1.7-0.9C192.3,512.9,193,512.5,194,512.5z M194,515.1c1.6,0,2.7-0.6,2.7-1.6c0-1-1.1-1.6-2.7-1.6
	c-1.6,0-2.7,0.6-2.7,1.6C191.4,514.4,192.4,515.1,194,515.1z M193.4,518h1v-1.7c1-0.1,2.1-0.1,3.2-0.3l-0.1-0.6
	c-2.3,0.3-4.9,0.3-7,0.3l0.1,0.7c0.9,0,1.8,0,2.8,0V518z M193.1,521.5v-0.9h6.2v-2.2h-7.2v0.7h6.3v0.9h-6.2v2.3h7.6v-0.7H193.1z
	 M202.1,512.5v0.8h4c-0.2,1.9-1.9,3.4-4.4,4.2l0.4,0.8c3.1-1,5.1-3,5.1-5.8H202.1z M204.2,518.7h-1v3.5h7.2v-0.8h-6.2V518.7z
	 M209.9,514.9v-3.3h-1v7.9h1v-3.8h1.6v-0.8H209.9z M215.5,519.1c-1,0-1.8-1.1-1.8-2.9c0-1.7,0.7-2.9,1.8-2.9c1,0,1.8,1.1,1.8,2.9
	C217.3,518,216.5,519.1,215.5,519.1z M215.5,512.5c-1.6,0-2.7,1.5-2.7,3.8s1.1,3.8,2.7,3.8s2.7-1.5,2.7-3.8S217.1,512.5,215.5,512.5
	z M222.7,515.9h-1.8v-4.3h-1v10.8h1v-5.6h1.8V515.9z M232.5,511.6h-1v7.9h1V511.6z M230.3,517.2c-1.6-0.5-2.7-1.8-2.7-3.3v-0.6h2.4
	v-0.8h-5.9v0.8h2.5v0.6c0,1.5-1.1,2.9-2.7,3.5l0.5,0.8c1.3-0.5,2.3-1.4,2.7-2.7c0.5,1.1,1.5,2,2.7,2.4L230.3,517.2z M226.6,521.3
	v-2.6h-1v3.4h7.2v-0.8H226.6z"/>
<path class="st0" d="M351.2,72.5h-5.7v-0.9l2.2-2.3c0.4-0.4,0.8-0.8,1.1-1.2c0.3-0.3,0.5-0.7,0.7-1c0.2-0.3,0.2-0.7,0.2-1.1
	c0-0.5-0.1-0.8-0.4-1.1c-0.3-0.2-0.6-0.4-1.1-0.4c-0.4,0-0.8,0.1-1.1,0.2c-0.3,0.1-0.6,0.3-1,0.6l-0.6-0.7c0.3-0.3,0.7-0.5,1.2-0.7
	c0.4-0.2,0.9-0.3,1.5-0.3c0.8,0,1.4,0.2,1.9,0.6c0.5,0.4,0.7,1,0.7,1.7c0,0.4-0.1,0.9-0.3,1.3c-0.2,0.4-0.4,0.8-0.8,1.2
	c-0.3,0.4-0.7,0.8-1.2,1.2l-1.8,1.8v0h4.3V72.5z M358.1,68.2c0,0.9-0.1,1.7-0.3,2.4c-0.2,0.7-0.5,1.2-0.9,1.5
	c-0.4,0.4-1,0.5-1.7,0.5c-1,0-1.7-0.4-2.1-1.2c-0.5-0.8-0.7-1.9-0.7-3.3c0-0.9,0.1-1.7,0.3-2.4c0.2-0.7,0.5-1.2,0.9-1.5
	c0.4-0.4,1-0.5,1.6-0.5c1,0,1.7,0.4,2.1,1.2C357.9,65.7,358.1,66.8,358.1,68.2z M353.5,68.2c0,1.2,0.1,2.1,0.4,2.6
	c0.3,0.6,0.7,0.9,1.4,0.9c0.6,0,1.1-0.3,1.4-0.9c0.3-0.6,0.4-1.5,0.4-2.7c0-1.2-0.1-2-0.4-2.6c-0.3-0.6-0.7-0.9-1.4-0.9
	c-0.6,0-1.1,0.3-1.4,0.9C353.6,66.2,353.5,67,353.5,68.2z M364.9,72.5h-5.7v-0.9l2.2-2.3c0.4-0.4,0.8-0.8,1.1-1.2
	c0.3-0.3,0.5-0.7,0.7-1c0.2-0.3,0.2-0.7,0.2-1.1c0-0.5-0.1-0.8-0.4-1.1c-0.3-0.2-0.6-0.4-1.1-0.4c-0.4,0-0.8,0.1-1.1,0.2
	c-0.3,0.1-0.6,0.3-1,0.6l-0.6-0.7c0.3-0.3,0.7-0.5,1.2-0.7c0.4-0.2,0.9-0.3,1.5-0.3c0.8,0,1.4,0.2,1.9,0.6c0.5,0.4,0.7,1,0.7,1.7
	c0,0.4-0.1,0.9-0.3,1.3c-0.2,0.4-0.4,0.8-0.8,1.2c-0.3,0.4-0.7,0.8-1.2,1.2l-1.8,1.8v0h4.3V72.5z M371.8,72.5h-5.7v-0.9l2.2-2.3
	c0.4-0.4,0.8-0.8,1.1-1.2c0.3-0.3,0.5-0.7,0.7-1c0.2-0.3,0.2-0.7,0.2-1.1c0-0.5-0.1-0.8-0.4-1.1c-0.3-0.2-0.6-0.4-1.1-0.4
	c-0.4,0-0.8,0.1-1.1,0.2c-0.3,0.1-0.6,0.3-1,0.6l-0.6-0.7c0.3-0.3,0.7-0.5,1.2-0.7c0.4-0.2,0.9-0.3,1.5-0.3c0.8,0,1.4,0.2,1.9,0.6
	c0.5,0.4,0.7,1,0.7,1.7c0,0.4-0.1,0.9-0.3,1.3c-0.2,0.4-0.4,0.8-0.8,1.2c-0.3,0.4-0.7,0.8-1.2,1.2l-1.8,1.8v0h4.3V72.5z M380.9,70.6
	h1v-8h-1V64h-3v0.8h3v1.3h-3v0.8h3V70.6z M379.2,67.8c-1.6,0.3-3,0.4-4.5,0.4v-4.8h-1V69h0.8c1.6,0,3-0.1,4.8-0.4L379.2,67.8z
	 M376,72.3v-2.4h-1v3.2h7.2v-0.8H376z M389.5,71.2v-2.8h3.3v-0.8h-6.4v-3.4h6.3v-0.8h-7.3v5h3.1v2.8h-4.4V72h9.8v-0.8H389.5z
	 M366.2,82.7h1.9v-0.8h-4.9v0.8h2v1c0,2-0.8,3.9-2.3,4.8l0.6,0.7c1.1-0.7,1.8-1.9,2.2-3.4c0.4,1.4,1.1,2.5,2.2,3.1l0.6-0.7
	c-1.5-0.8-2.3-2.7-2.3-4.6V82.7z M369.1,84.5h-1.8v0.8h1.8v5.5h0.9v-10h-0.9V84.5z M371.3,80.6v10.8h0.9V80.6H371.3z M380.9,90.5h-1
	v-6c0-0.3,0-0.6,0-0.8c0-0.2,0-0.4,0-0.6c-0.1,0.1-0.2,0.2-0.3,0.3s-0.2,0.2-0.4,0.3l-0.9,0.7l-0.6-0.7l2.3-1.8h0.9V90.5z
	 M393.3,82.2h-3.9v-1.4h-1v1.4h-3.9V83h8.7V82.2z M386.4,85.8c0-0.8,1-1.3,2.5-1.3c1.5,0,2.5,0.5,2.5,1.3c0,0.8-1,1.3-2.5,1.3
	C387.4,87.1,386.4,86.6,386.4,85.8z M389.5,89.3v-1.5c1.9-0.1,3-0.8,3-2c0-1.3-1.4-2-3.5-2c-2.2,0-3.5,0.7-3.5,2c0,1.2,1.2,1.9,3,2
	v1.5h-4.4v0.8h9.8v-0.8H389.5z"/>
<line class="st1" x1="29.5" y1="121.5" x2="394.5" y2="121.5"/>
<line class="st1" x1="29.5" y1="51.5" x2="394.5" y2="51.5"/>
<line class="st2" x1="29.5" y1="504" x2="394.5" y2="504"/>
<path class="st3" d="M199,112.5c6.9,0,12.5-5.6,12.5-12.5c0-6.9-5.6-12.5-12.5-12.5s-12.5,5.6-12.5,12.5
	C186.5,106.9,192.1,112.5,199,112.5z"/>
<path class="st4" d="M186.5,100c0-2.2,0.6-4.3,1.5-6c0.4-0.8,1-1.5,1.6-2.2c0.5-0.5,1-1,1.6-1.5c0.5-0.4,1-0.8,1.5-1.1
	c0.5-0.3,1-0.6,1.5-0.8c0.5-0.2,1-0.4,1.6-0.5c0.5-0.1,1-0.2,1.6-0.3c0.5-0.1,1-0.1,1.5-0.1v25c-0.5,0-1,0-1.5-0.1
	c-0.5-0.1-1.1-0.2-1.6-0.3c-0.5-0.1-1.1-0.3-1.6-0.5c-0.5-0.2-1.1-0.5-1.5-0.8c-0.6-0.3-1.1-0.7-1.5-1.1c-0.6-0.4-1.1-1-1.6-1.5
	c-0.6-0.7-1.1-1.4-1.6-2.2C187.1,104.3,186.5,102.2,186.5,100z"/>
<path class="st4" d="M236.5,62.5h-25V75h25V62.5z"/>
<path class="st4" d="M211.5,75c0,6.9-5.6,12.5-12.5,12.5s-12.5-5.6-12.5-12.5H211.5z"/>
<path class="st4" d="M224,100c0-2.2,0.6-4.3,1.5-6c0.4-0.8,1-1.5,1.6-2.2c0.5-0.5,1-1,1.6-1.5c0.5-0.4,1-0.8,1.5-1.1
	c0.5-0.3,1-0.6,1.5-0.8c0.5-0.2,1-0.4,1.6-0.5c0.5-0.1,1-0.2,1.6-0.3c0.5-0.1,1-0.1,1.5-0.1v25c-0.5,0-1,0-1.5-0.1
	c-0.5-0.1-1.1-0.2-1.6-0.3c-0.5-0.1-1.1-0.3-1.6-0.5c-0.5-0.2-1.1-0.5-1.5-0.8c-0.6-0.3-1.1-0.7-1.5-1.1c-0.6-0.4-1.1-1-1.6-1.5
	c-0.6-0.7-1.1-1.4-1.6-2.2C224.6,104.3,224,102.2,224,100z"/>
<path class="st5" d="M236.5,87.5h-25v10.3h25V87.5z"/>
<path class="st4" d="M211.5,87.5c6.9,0,12.5,5.6,12.5,12.5c0,6.9-5.6,12.5-12.5,12.5V87.5z"/>
<path class="st6" d="M236.5,62.5c-6.9,0-12.5,5.6-12.5,12.5s5.6,12.5,12.5,12.5V62.5z"/>
<path class="st7" d="M199,62.5c-6.9,0-12.5,5.6-12.5,12.5h25C211.5,68.1,205.9,62.5,199,62.5z"/>
<line class="st8" x1="295" y1="52.5" x2="295" y2="122.5"/>
<line class="st8" x1="130" y1="52.5" x2="130" y2="122.5"/>
<path class="st0" d="M46,75.1c-1.3,0-2.3-0.9-2.3-2.4s1-2.4,2.3-2.4c1.3,0,2.2,0.9,2.2,2.4C48.2,74.2,47.3,75.1,46,75.1z M46,68.1
	c-2.8,0-4.9,1.9-4.9,4.6c0,2.7,2.1,4.6,4.9,4.6c2.8,0,4.9-1.9,4.9-4.6C50.9,70,48.8,68.1,46,68.1z M47.4,62.3h-2.8v2.5h-4.3V67h11.3
	v-2.2h-4.2V62.3z M58.4,69.5h-2.8V62h-2.8v19.3h2.8v-9.5h2.8V69.5z M72.4,66.3H61.8v5.9h13.9v-2.2H64.6v-1.6h10.6v-5.8H61.7v2.2
	h10.7V66.3z M77.2,73.5H59.7v2.2h7.3v5.6h2.8v-5.6h7.4V73.5z M85.3,63.2c-3,0-5.3,2-5.3,4.8c0,2.8,2.3,4.8,5.3,4.8s5.3-2,5.3-4.8
	C90.6,65.2,88.3,63.2,85.3,63.2z M85.3,65.6c1.5,0,2.6,0.9,2.6,2.4s-1.1,2.4-2.6,2.4s-2.6-0.9-2.6-2.4S83.8,65.6,85.3,65.6z
	 M92.4,61.9v19.4h2.8V61.9H92.4z M79.5,77.4c3.3,0,7.9,0,12-0.9l-0.2-2c-4.1,0.6-8.8,0.6-12.2,0.6L79.5,77.4z M53.7,90v11.3h2.8V90
	H53.7z M49.9,101.7c-4.1,0-6.6,1.4-6.6,3.8c0,2.4,2.5,3.8,6.6,3.8c4.1,0,6.6-1.4,6.6-3.8C56.5,103.1,54,101.7,49.9,101.7z
	 M49.9,103.8c2.5,0,3.8,0.5,3.8,1.7c0,1.1-1.3,1.7-3.8,1.7c-2.5,0-3.9-0.6-3.9-1.7C46.1,104.4,47.4,103.8,49.9,103.8z M45.9,91.1
	c-3,0-5.3,1.9-5.3,4.6s2.3,4.6,5.3,4.6c3,0,5.3-1.9,5.3-4.6S49,91.1,45.9,91.1z M45.9,93.4c1.5,0,2.6,0.9,2.6,2.3
	c0,1.4-1.1,2.3-2.6,2.3c-1.4,0-2.5-0.9-2.5-2.3C43.4,94.2,44.5,93.4,45.9,93.4z M61.1,97.4l0.3,2.2l11-0.6c-0.1,1.3-0.3,2.7-0.7,4.3
	l2.7,0.3c0.9-4.2,0.9-6.9,0.9-9.7v-2.2H61.7v2.2h11v0c0,1,0,2,0,3.1L61.1,97.4z M59.7,104.7v2.3h17.5v-2.3H59.7z"/>
<circle class="st9" cx="248" cy="267" r="74.5"/>
<circle class="st9" cx="295" cy="335" r="43.5"/>
<linearGradient id="SVGID_1_" gradientUnits="userSpaceOnUse" x1="-417.9509" y1="515.3065" x2="-393.8399" y2="432.8724" gradientTransform="matrix(1 0 0 -1 539.01 817.4)">
	<stop  offset="0" style="stop-color:#303E6D"/>
	<stop  offset="1" style="stop-color:#475984"/>
</linearGradient>
<path class="st10" d="M167.2,306.6l-82.5,24.5l1.1-26.8c0.1-1.3,0.9-2.3,2.1-2.7l60.4-18.3c1-0.3,2.1,0.1,2.7,0.9L167.2,306.6z"/>
<path class="st11" d="M147.9,289.9c1.7,5.9-9.2,15-24.8,19.6c-15.6,4.6-30,3.1-31.7-2.8c-1.8-5.9,9.5-14.4,25.1-19.1
	C132.1,283,146.1,283.9,147.9,289.9z"/>
<path class="st12" d="M146.5,285.5c1.7,5.9-9.2,15-24.8,19.6c-15.6,4.6-30,3.1-31.7-2.8c-1.7-5.9,9.5-14.4,25.1-19.1
	C130.7,278.6,144.7,279.6,146.5,285.5z"/>
<path class="st11" d="M120.7,302.4c15.6-4.6,26.6-14.2,24.4-21.3c-2.1-7.1-16.5-9.2-32.1-4.5c-15.6,4.6-26.6,14.2-24.4,21.3
	C90.7,305,105.1,307,120.7,302.4z"/>
<path class="st13" d="M119.7,298.4c13.6-4,23.2-11.8,21.6-17.4c-1.7-5.6-14-6.8-27.6-2.8c-13.6,4-23.2,11.8-21.6,17.4
	C93.8,301.1,106.1,302.4,119.7,298.4z"/>
<path class="st13" d="M181.5,367.9l-75.5,22c-3.1,0.9-6.3-1.1-7.3-4.5l-13.9-53.1c-1-3.4,0.6-6.9,3.7-7.8l71.9-21.4
	c3.1-0.9,6.3,1.1,7.3,4.5l17.5,52.4C186.2,363.5,184.6,367.1,181.5,367.9z"/>
<path class="st14" d="M158.3,327.1l-5,1.5c-6.1-4.3-15.6-5.6-25.3-2.8c-9.7,2.9-17,9.2-19.7,16.1l-5,1.5c-1.6,0.5-2.6,2.2-2.1,3.8
	l3.6,12c0.5,1.6,2.2,2.6,3.8,2.1l5-1.5c6.1,4.3,15.6,5.6,25.3,2.8c9.7-2.9,17-9.2,19.7-16.1l5-1.5c1.6-0.5,2.6-2.2,2.1-3.8l-3.5-12
	C161.6,327.5,159.9,326.6,158.3,327.1z"/>
<path class="st15" d="M137.3,357.4c-7.8,2.3-15.6,1.6-20.6-2c-1.4-1-3.1-1.3-4.7-0.8l-2.7,0.8l-2.2-7.4l2.7-0.8
	c1.6-0.5,2.9-1.7,3.5-3.3c2.2-5.6,8.4-10.6,16.1-12.9c7.8-2.3,15.6-1.6,20.6,2c1.4,1,3.1,1.3,4.7,0.8l2.7-0.8l2.2,7.4l-2.7,0.8
	c-1.6,0.5-2.9,1.7-3.5,3.3C151.2,350.1,145.1,355,137.3,357.4z"/>
<path class="st16" d="M125.4,351.6l-5.9,1.8v-0.2c0.1,0,0.2-0.1,0.2-0.1c0.1,0,0.3-0.1,0.5-0.2c0.2-0.1,0.4-0.2,0.5-0.4
	c0.1-0.2,0.2-0.4,0.2-0.7v-0.6l-0.1-6.5l0-0.6c0-0.3-0.1-0.5-0.2-0.5c-0.1-0.1-0.3-0.1-0.5-0.1l-0.7,0.2v-0.2l5.9-1.7v0.2l-0.7,0.2
	c-0.3,0.1-0.4,0.2-0.5,0.4c-0.1,0.1-0.2,0.4-0.2,0.7v0.6l0.1,6.5l0,0.6c0,0.3,0.1,0.5,0.2,0.5c0.1,0.1,0.3,0.1,0.6,0.1l0.6-0.2
	V351.6z"/>
<path class="st16" d="M136.8,338.4c-0.1,0-0.2,0.1-0.4,0.1c-0.1,0.1-0.3,0.1-0.5,0.2c-0.2,0.1-0.4,0.3-0.5,0.5
	c-0.1,0.2-0.2,0.5-0.2,0.8v0.7l0.2,8l-1.5,0.5l-6.2-6.5l-0.1,0l0.1,6.4l0,0.6c0,0.3,0.1,0.5,0.2,0.6c0.1,0.1,0.3,0.2,0.5,0.1
	c0.2,0,0.4-0.1,0.6-0.1c0.2,0,0.3-0.1,0.3-0.1v0.2l-3.6,1.1v-0.2c0.1,0,0.2-0.1,0.4-0.1c0.1-0.1,0.4-0.2,0.7-0.3
	c0.3-0.2,0.6-0.5,0.6-1.1v-0.7l-0.1-6.2l0-0.6c-0.1-0.2-0.2-0.3-0.4-0.4c-0.2-0.1-0.3-0.2-0.5-0.2s-0.4,0-0.5,0.1l-0.4,0.1v-0.2
	l4.8-1.4l4.7,4.9l0.1,0l-0.1-4.3l0-0.6c0-0.3-0.1-0.5-0.2-0.6c-0.1-0.1-0.3-0.2-0.5-0.1c-0.2,0-0.4,0.1-0.5,0.1
	c-0.2,0-0.3,0.1-0.4,0.1v-0.2L136.8,338.4L136.8,338.4z"/>
<path class="st16" d="M142.3,341.9l-0.3,0.5l0.1,2.5l0,0.6c0,0.3,0.1,0.5,0.2,0.5c0.1,0.1,0.3,0.1,0.5,0.1l0.5-0.1v0.2l-5.6,1.7
	v-0.2l0.6-0.2c0.2-0.1,0.4-0.2,0.5-0.4c0.1-0.2,0.2-0.4,0.2-0.6v-0.6l-0.2-6.5l0-0.6c0-0.3-0.1-0.5-0.2-0.5
	c-0.1-0.1-0.3-0.1-0.5-0.1l-0.6,0.2v-0.2l5.6-1.7v0.2l-0.5,0.2c-0.3,0.1-0.4,0.2-0.5,0.4c-0.1,0.1-0.1,0.4-0.2,0.7v0.6l0.1,3.7
	c0.2-0.4,0.5-0.9,1-1.6c0.4-0.7,0.9-1.4,1.3-2.1c0.4-0.7,0.7-1.2,0.9-1.5c0.2-0.3,0.2-0.5,0.2-0.6c0-0.1-0.1-0.2-0.2-0.2
	c-0.1,0-0.2,0-0.4,0l-0.6,0.1v-0.2l3.2-0.9v0.2c-0.1,0-0.2,0.1-0.3,0.1c-0.1,0-0.3,0.1-0.4,0.2c-0.2,0.1-0.3,0.2-0.5,0.4
	c-0.2,0.2-0.4,0.4-0.6,0.8l-1.2,1.9l3.6,4.7c0.3,0.4,0.6,0.7,0.7,0.8c0.2,0.1,0.3,0.1,0.5,0.1c0.2,0,0.3,0,0.4-0.1
	c0.1,0,0.2,0,0.2-0.1v0.2l-6.1,1.8v-0.2l0.5-0.2c0.2-0.1,0.3-0.1,0.4-0.2c0.1-0.1,0.1-0.2,0.1-0.3c0-0.1,0-0.2-0.1-0.3
	c0-0.1-0.2-0.3-0.3-0.5c-0.2-0.2-0.3-0.4-0.5-0.7c-0.2-0.3-0.5-0.6-0.8-1C142.6,342.4,142.4,342.1,142.3,341.9z"/>
<path class="st17" d="M158.8,303.5l1.5-0.4"/>
<path class="st17" d="M151.1,305.8l5.9-1.7"/>
<path class="st17" d="M88.5,324.5l60.8-18.2"/>
<path class="st18" d="M170.5,246.9l-8.2-1.6c-4.8-3.8-11.8-6.8-19.9-8.1c-7.1-1.1-13.8-0.8-19.2,0.7L113,236l-2.1,12.5
	c-1.4,8.8,10.4,18.1,26.4,20.7c16,2.6,30.1-2.5,31.5-11.4c0.1-0.6,0.1-1.3,0.1-1.9L170.5,246.9z"/>
<path class="st19" d="M170.5,246.9c1.4-8.8-10.4-18.1-26.4-20.7c-16-2.6-30.1,2.5-31.5,11.4c-1.4,8.9,10.4,18.1,26.4,20.7
	C155,260.8,169.1,255.7,170.5,246.9z"/>
<path class="st20" d="M165.6,244.8c-0.9,5.9-13.4,10.3-26,8.3c-12.6-2-22.5-10.3-21.5-16.2c0.9-5.9,12.8-9.2,25.4-7.2
	C156.1,231.7,166.6,238.9,165.6,244.8z"/>
<path class="st13" d="M152.4,250.4c-4,0.7-8.2,0.8-12.3,0.1c-5.4-0.9-10.8-3.1-14.6-6.1c-3.2-2.5-5-5.2-4.7-7.1c0.3-1.7,3.1-4,8.9-5
	c4.1-0.8,8.8-0.8,13.5,0c5.6,0.9,11.1,3,15.1,5.7c3.3,2.3,5.2,4.7,4.9,6.4C162.7,246.4,158.9,249.2,152.4,250.4z"/>
<path class="st19" d="M137.4,270.6l-2-0.3c-1.3-0.2-2.2-1.5-2-2.8l1.1-7c0.2-1.3,1.5-2.2,2.8-2l2,0.3c1.3,0.2,2.2,1.5,2,2.8l-1.1,7
	C139.9,269.9,138.7,270.8,137.4,270.6z"/>
<path class="st19" d="M148.3,271.5h-3.6c-0.9,0-1.6-0.8-1.4-1.7l1.4-8.8c0.1-0.7,0.7-1.2,1.4-1.2h3.6c0.9,0,1.6,0.8,1.4,1.7
	l-1.4,8.8C149.7,270.9,149.1,271.5,148.3,271.5z"/>
<path class="st19" d="M158.8,269l-4.9,1.2c-0.5,0.1-0.9-0.3-0.8-0.8l1.6-9.9c0-0.3,0.2-0.5,0.5-0.5l4.9-1.2c0.5-0.1,0.9,0.3,0.8,0.8
	l-1.6,9.9C159.3,268.8,159.1,269,158.8,269z"/>
<path class="st19" d="M167.9,262.8l-4.7,3.6c-0.3,0.2-0.8,0-0.7-0.4l1.8-9.5c0-0.1,0.1-0.2,0.2-0.3l3.8-3.1c0.5-0.4,1.3,0,1.2,0.7
	l-1.4,8.7C168.1,262.6,168,262.7,167.9,262.8z"/>
<path class="st19" d="M124.3,267.1l3.4,1.3c0.9,0.3,1.8-0.2,1.9-1.1l1.7-8.8c0.1-0.7-0.2-1.4-0.9-1.6l-3.4-1.3
	c-0.9-0.3-1.8,0.2-1.9,1.1l-1.7,8.8C123.2,266.2,123.6,266.9,124.3,267.1z"/>
<path class="st19" d="M115.3,261.2l4.2,2.8c0.4,0.3,0.9,0,1-0.4l1.9-9.9c0.1-0.3-0.1-0.6-0.3-0.7l-4.2-2.8c-0.4-0.3-0.9,0-1,0.4
	l-1.9,9.9C115,260.8,115.1,261.1,115.3,261.2z"/>
<path class="st19" d="M109.6,252.7l1.9,3.1c0.4,0.7,1.5,0.5,1.6-0.3l1.3-7.7c0-0.2,0-0.4-0.1-0.6l-2.6-4.5c-0.1-0.2-0.5-0.2-0.5,0.1
	l-1.7,9.4C109.4,252.3,109.5,252.5,109.6,252.7z"/>
<path class="st21" d="M158.4,408.5c-5.9,7.1-4.8,9.9-2.2,13.4c2.6,3.5,4.9,5.4,13.4,1.8S322.2,304,330.5,297c5.1-4.4,7-7.4,7.6-9
	c0.4-0.6,0.6-1.1,0.3-1.5c-0.2-0.3-0.8-0.3-1.5-0.1c-1.7,0.2-5.1,1-10.8,4.7C317.1,297,164.3,401.4,158.4,408.5z"/>
<path class="st22" d="M155.7,414l7.9,10.6c0.2,0.3,0.2,0.7-0.1,0.8l-3.4,2.5c-0.3,0.2-0.6,0.2-0.8-0.1l-7.9-10.6
	c-0.2-0.3-0.2-0.7,0.1-0.8l3.4-2.5C155.1,413.6,155.5,413.7,155.7,414z"/>
<linearGradient id="SVGID_2_" gradientUnits="userSpaceOnUse" x1="-382.3179" y1="395.8904" x2="-413.1913" y2="372.9693" gradientTransform="matrix(1 0 0 -1 539.01 817.4)">
	<stop  offset="0" style="stop-color:#838383"/>
	<stop  offset="5.210000e-02" style="stop-color:#8F8F8F"/>
	<stop  offset="0.1973" style="stop-color:#ABABAB"/>
	<stop  offset="0.3537" style="stop-color:#C1C1C1"/>
	<stop  offset="0.5246" style="stop-color:#D1D1D1"/>
	<stop  offset="0.721" style="stop-color:#DADADA"/>
	<stop  offset="1" style="stop-color:#DDDDDD"/>
</linearGradient>
<path class="st23" d="M135.1,428.1c0,0-3.1,9.5-9.5,16l13.5-10c-0.2-0.6-0.1-1.3,0.5-1.7c0.7-0.5,1.5-0.3,2,0.3
	c0.5,0.7,0.3,1.6-0.3,2c-0.5,0.4-1.3,0.3-1.8,0l-13.5,10c8.2-4.2,18.1-4.4,18.1-4.4c5-7.2,15-13.9,15-13.9c1.1-0.1-2.5-4.9-2.5-4.9
	s-3.5-4.8-3.9-3.8C152.7,417.7,143.4,425.4,135.1,428.1z"/>
</svg>
