<?xml version="1.0" encoding="utf-8"?>
<!-- Generator: Adobe Illustrator 23.1.0, SVG Export Plug-In . SVG Version: 6.00 Build 0)  -->
<svg version="1.1" id="Layer_1" xmlns="http://www.w3.org/2000/svg" xmlns:xlink="http://www.w3.org/1999/xlink" x="0px" y="0px"
	 viewBox="0 0 423 573" style="enable-background:new 0 0 423 573;" xml:space="preserve">
<style type="text/css">
	.st0{fill:#182335;}
	.st1{fill:none;stroke:#182335;stroke-width:2;}
	.st2{fill:none;stroke:#182335;}
	.st3{fill:#182335;stroke:#182335;stroke-width:2;stroke-linecap:round;stroke-linejoin:round;stroke-miterlimit:10;}
	.st4{fill:#FFFFFF;stroke:#182335;stroke-width:2;stroke-linecap:round;stroke-linejoin:round;stroke-miterlimit:10;}
	.st5{fill:#ECC4B9;stroke:#182335;stroke-width:2;stroke-linecap:round;stroke-linejoin:round;stroke-miterlimit:10;}
	.st6{fill:#E15546;stroke:#182335;stroke-width:2;stroke-linecap:round;stroke-linejoin:round;stroke-miterlimit:10;}
	.st7{fill:#EAE5D2;stroke:#182335;stroke-width:2;stroke-linecap:round;stroke-linejoin:round;stroke-miterlimit:10;}
	.st8{fill:none;stroke:#000000;}
	.st9{fill:none;stroke:#383838;stroke-width:2;stroke-linecap:round;stroke-linejoin:round;stroke-miterlimit:10;}
	.st10{fill:#383838;}
	.st11{fill:url(#SVGID_1_);}
	.st12{fill:url(#SVGID_2_);}
	.st13{fill:#F5EEB3;}
	.st14{fill:none;stroke:#FFFFFF;stroke-width:2;stroke-linecap:round;stroke-linejoin:round;stroke-miterlimit:10;}
</style>
<g>
	<path class="st0" d="M194.7,515.2v0.6h2.1v0.6h1v-6.3h-1v5.1L194.7,515.2L194.7,515.2z M192.5,511c1.1,0,1.7,0.4,1.7,0.9
		c0,0.6-0.7,0.9-1.7,0.9s-1.7-0.4-1.7-0.9C190.8,511.4,191.5,511,192.5,511z M192.5,513.6c1.6,0,2.7-0.6,2.7-1.6
		c0-1-1.1-1.6-2.7-1.6c-1.6,0-2.7,0.6-2.7,1.6C189.9,512.9,190.9,513.6,192.5,513.6z M191.9,516.5h1v-1.7c1-0.1,2.1-0.1,3.2-0.3
		l-0.1-0.6c-2.3,0.3-4.9,0.3-7,0.3l0.1,0.7c0.9,0,1.8,0,2.8,0V516.5z M191.6,520v-0.9h6.2v-2.2h-7.2v0.7h6.3v0.9h-6.2v2.3h7.6V520
		H191.6z M200.6,511v0.8h4c-0.2,1.9-1.9,3.4-4.4,4.2l0.4,0.8c3.1-1,5.1-3,5.1-5.8H200.6z M202.7,517.2h-1v3.5h7.2v-0.8h-6.2V517.2z
		 M208.4,513.4v-3.3h-1v7.9h1v-3.8h1.6v-0.8L208.4,513.4L208.4,513.4z M214,517.6c-1,0-1.8-1.1-1.8-2.9c0-1.7,0.7-2.9,1.8-2.9
		c1,0,1.8,1.1,1.8,2.9C215.8,516.5,215,517.6,214,517.6z M214,511c-1.6,0-2.7,1.5-2.7,3.8s1.1,3.8,2.7,3.8s2.7-1.5,2.7-3.8
		S215.6,511,214,511z M221.2,514.4h-1.8v-4.3h-1v10.8h1v-5.6h1.8V514.4z M231,510.1h-1v7.9h1V510.1z M228.8,515.7
		c-1.6-0.5-2.7-1.8-2.7-3.3v-0.6h2.4V511h-5.9v0.8h2.5v0.6c0,1.5-1.1,2.9-2.7,3.5l0.5,0.8c1.3-0.5,2.3-1.4,2.7-2.7
		c0.5,1.1,1.5,2,2.7,2.4L228.8,515.7z M225.1,519.8v-2.6h-1v3.4h7.2v-0.8L225.1,519.8L225.1,519.8z"/>
	<path class="st0" d="M349.7,71H344v-0.9l2.2-2.3c0.4-0.4,0.8-0.8,1.1-1.2c0.3-0.3,0.5-0.7,0.7-1s0.2-0.7,0.2-1.1
		c0-0.5-0.1-0.8-0.4-1.1c-0.3-0.2-0.6-0.4-1.1-0.4c-0.4,0-0.8,0.1-1.1,0.2c-0.3,0.1-0.6,0.3-1,0.6l-0.6-0.7c0.3-0.3,0.7-0.5,1.2-0.7
		c0.4-0.2,0.9-0.3,1.5-0.3c0.8,0,1.4,0.2,1.9,0.6c0.5,0.4,0.7,1,0.7,1.7c0,0.4-0.1,0.9-0.3,1.3c-0.2,0.4-0.4,0.8-0.8,1.2
		c-0.3,0.4-0.7,0.8-1.2,1.2l-1.8,1.8l0,0h4.3V71H349.7z M356.6,66.7c0,0.9-0.1,1.7-0.3,2.4c-0.2,0.7-0.5,1.2-0.9,1.5
		c-0.4,0.4-1,0.5-1.7,0.5c-1,0-1.7-0.4-2.1-1.2c-0.5-0.8-0.7-1.9-0.7-3.3c0-0.9,0.1-1.7,0.3-2.4c0.2-0.7,0.5-1.2,0.9-1.5
		c0.4-0.4,1-0.5,1.6-0.5c1,0,1.7,0.4,2.1,1.2C356.4,64.2,356.6,65.3,356.6,66.7z M352,66.7c0,1.2,0.1,2.1,0.4,2.6
		c0.3,0.6,0.7,0.9,1.4,0.9c0.6,0,1.1-0.3,1.4-0.9s0.4-1.5,0.4-2.7s-0.1-2-0.4-2.6s-0.7-0.9-1.4-0.9c-0.6,0-1.1,0.3-1.4,0.9
		C352.1,64.7,352,65.5,352,66.7z M363.4,71h-5.7v-0.9l2.2-2.3c0.4-0.4,0.8-0.8,1.1-1.2c0.3-0.3,0.5-0.7,0.7-1s0.2-0.7,0.2-1.1
		c0-0.5-0.1-0.8-0.4-1.1c-0.3-0.2-0.6-0.4-1.1-0.4c-0.4,0-0.8,0.1-1.1,0.2c-0.3,0.1-0.6,0.3-1,0.6l-0.6-0.7c0.3-0.3,0.7-0.5,1.2-0.7
		c0.4-0.2,0.9-0.3,1.5-0.3c0.8,0,1.4,0.2,1.9,0.6c0.5,0.4,0.7,1,0.7,1.7c0,0.4-0.1,0.9-0.3,1.3c-0.2,0.4-0.4,0.8-0.8,1.2
		c-0.3,0.4-0.7,0.8-1.2,1.2l-1.8,1.8l0,0h4.3V71H363.4z M370.3,71h-5.7v-0.9l2.2-2.3c0.4-0.4,0.8-0.8,1.1-1.2c0.3-0.3,0.5-0.7,0.7-1
		s0.2-0.7,0.2-1.1c0-0.5-0.1-0.8-0.4-1.1c-0.3-0.2-0.6-0.4-1.1-0.4c-0.4,0-0.8,0.1-1.1,0.2c-0.3,0.1-0.6,0.3-1,0.6l-0.6-0.7
		c0.3-0.3,0.7-0.5,1.2-0.7c0.4-0.2,0.9-0.3,1.5-0.3c0.8,0,1.4,0.2,1.9,0.6c0.5,0.4,0.7,1,0.7,1.7c0,0.4-0.1,0.9-0.3,1.3
		c-0.2,0.4-0.4,0.8-0.8,1.2c-0.3,0.4-0.7,0.8-1.2,1.2L366,70l0,0h4.3V71z M379.4,69.1h1v-8h-1v1.4h-3v0.8h3v1.3h-3v0.8h3V69.1z
		 M377.7,66.3c-1.6,0.3-3,0.4-4.5,0.4v-4.8h-1v5.6h0.8c1.6,0,3-0.1,4.8-0.4L377.7,66.3z M374.5,70.8v-2.4h-1v3.2h7.2v-0.8
		C380.7,70.8,374.5,70.8,374.5,70.8z M388,69.7V67h3.3v-0.8h-6.4v-3.4h6.3V62h-7.3v5h3.1v2.8h-4.4v0.8h9.8v-0.8H388V69.7z
		 M364.7,81.2h1.9v-0.8h-4.9v0.8h2v1c0,2-0.8,3.9-2.3,4.8l0.6,0.7c1.1-0.7,1.8-1.9,2.2-3.4c0.4,1.4,1.1,2.5,2.2,3.1l0.6-0.7
		c-1.5-0.8-2.3-2.7-2.3-4.6L364.7,81.2L364.7,81.2z M367.6,83h-1.8v0.8h1.8v5.5h0.9v-10h-0.9V83z M369.8,79.1v10.8h0.9V79.1H369.8z
		 M381.3,89h-5.7v-0.9l2.2-2.3c0.4-0.4,0.8-0.8,1.1-1.2c0.3-0.3,0.5-0.7,0.7-1s0.2-0.7,0.2-1.1c0-0.5-0.1-0.8-0.4-1.1
		c-0.3-0.2-0.6-0.4-1.1-0.4c-0.4,0-0.8,0.1-1.1,0.2c-0.3,0.1-0.6,0.3-1,0.6l-0.6-0.7c0.3-0.3,0.7-0.5,1.2-0.7
		c0.4-0.2,0.9-0.3,1.5-0.3c0.8,0,1.4,0.2,1.9,0.6s0.7,1,0.7,1.7c0,0.4-0.1,0.9-0.3,1.3c-0.2,0.4-0.4,0.8-0.8,1.2
		c-0.3,0.4-0.7,0.8-1.2,1.2L377,88l0,0h4.3V89z M391.8,80.7H388v-1.4h-1v1.4h-3.9v0.8h8.7L391.8,80.7L391.8,80.7z M384.9,84.3
		c0-0.8,1-1.3,2.5-1.3s2.5,0.5,2.5,1.3s-1,1.3-2.5,1.3C385.9,85.6,384.9,85.1,384.9,84.3z M388,87.8v-1.5c1.9-0.1,3-0.8,3-2
		c0-1.3-1.4-2-3.5-2c-2.2,0-3.5,0.7-3.5,2c0,1.2,1.2,1.9,3,2v1.5h-4.4v0.8h9.8v-0.8H388z"/>
	<line class="st1" x1="28" y1="120" x2="393" y2="120"/>
	<line class="st1" x1="28" y1="50" x2="393" y2="50"/>
	<line class="st2" x1="28" y1="502.5" x2="393" y2="502.5"/>
	<path class="st3" d="M197.5,111c6.9,0,12.5-5.6,12.5-12.5S204.4,86,197.5,86S185,91.6,185,98.5S190.6,111,197.5,111z"/>
	<path class="st4" d="M185,98.5c0-2.2,0.6-4.3,1.5-6c0.4-0.8,1-1.5,1.6-2.2c0.5-0.5,1-1,1.6-1.5c0.5-0.4,1-0.8,1.5-1.1
		c0.5-0.3,1-0.6,1.5-0.8c0.5-0.2,1-0.4,1.6-0.5c0.5-0.1,1-0.2,1.6-0.3c0.5-0.1,1-0.1,1.5-0.1v25c-0.5,0-1,0-1.5-0.1
		s-1.1-0.2-1.6-0.3c-0.5-0.1-1.1-0.3-1.6-0.5s-1.1-0.5-1.5-0.8c-0.6-0.3-1.1-0.7-1.5-1.1c-0.6-0.4-1.1-1-1.6-1.5
		c-0.6-0.7-1.1-1.4-1.6-2.2C185.6,102.8,185,100.7,185,98.5z"/>
	<path class="st4" d="M235,61h-25v12.5h25V61z"/>
	<path class="st4" d="M210,73.5c0,6.9-5.6,12.5-12.5,12.5S185,80.4,185,73.5H210z"/>
	<path class="st4" d="M222.5,98.5c0-2.2,0.6-4.3,1.5-6c0.4-0.8,1-1.5,1.6-2.2c0.5-0.5,1-1,1.6-1.5c0.5-0.4,1-0.8,1.5-1.1
		c0.5-0.3,1-0.6,1.5-0.8c0.5-0.2,1-0.4,1.6-0.5c0.5-0.1,1-0.2,1.6-0.3c0.5-0.1,1-0.1,1.5-0.1v25c-0.5,0-1,0-1.5-0.1
		s-1.1-0.2-1.6-0.3c-0.5-0.1-1.1-0.3-1.6-0.5s-1.1-0.5-1.5-0.8c-0.6-0.3-1.1-0.7-1.5-1.1c-0.6-0.4-1.1-1-1.6-1.5
		c-0.6-0.7-1.1-1.4-1.6-2.2C223.1,102.8,222.5,100.7,222.5,98.5z"/>
	<path class="st5" d="M235,86h-25v10.3h25V86z"/>
	<path class="st4" d="M210,86c6.9,0,12.5,5.6,12.5,12.5S216.9,111,210,111V86z"/>
	<path class="st6" d="M235,61c-6.9,0-12.5,5.6-12.5,12.5S228.1,86,235,86V61z"/>
	<path class="st7" d="M197.5,61c-6.9,0-12.5,5.6-12.5,12.5h25C210,66.6,204.4,61,197.5,61z"/>
	<line class="st8" x1="293.5" y1="51" x2="293.5" y2="121"/>
	<line class="st8" x1="128.5" y1="51" x2="128.5" y2="121"/>
	<path class="st0" d="M43.7,64.5h2.2V73c-0.7,0-1.4,0.1-2.2,0.1V64.5z M48.6,64.5h1.7v-2.2H39.4v2.2H41v8.7c-0.8,0-1.5,0-2.2,0
		l0.3,2.3c3.5,0,7.9-0.1,12-0.8l-0.2-2c-0.8,0.1-1.6,0.2-2.4,0.2v-8.4H48.6z M52.2,60.5v19.3H55V60.5H52.2z M74.7,60.5h-2.6v12.9
		h2.6V60.5z M66.3,65.3v2.2h2v4.2h2.6V60.8h-2.6v4.5H66.3z M67.7,69.5c-2.5-0.9-3.4-3-3.4-5.1V64h2.8v-2.2h-8.5V64h3v0.4
		c0,2.2-1,4.5-3.7,5.6l1.4,2.1c1.8-0.7,2.9-2,3.6-3.6c0.7,1.4,1.7,2.5,3.4,3.1L67.7,69.5z M69.4,72.5h-2.8V73c0,2-2,4.1-6.1,4.6
		l1,2.1c3.1-0.4,5.4-1.7,6.5-3.5c1.2,1.8,3.4,3.1,6.5,3.5l1-2.1c-4.2-0.5-6.2-2.6-6.2-4.6L69.4,72.5L69.4,72.5z M51.5,92H41.1v5.1
		h13.6V95H43.8v-1h10.5v-5.1H41V91h10.5V92z M51.7,105.4h-7.8v-1.6h7.8V105.4z M56.4,100.3v-2.2H38.9v2.2h7.4v1.3h-5.2v6h13.3v-6H49
		v-1.3H56.4z"/>
	<path class="st9" d="M145.1,343.2c-15-5.9-24.1-13.9-24.1-22.6c0-18.2,39.9-33,89-33s89,14.8,89,33c0,8.8-9.2,16.7-24.1,22.6"/>
	<path class="st10" d="M210,423.4c14.6,0.1,29.1-1.3,43.4-4.2c-5.7-5.8-12.4-10.4-19.9-13.5s-15.5-4.8-23.6-4.8s-16.1,1.6-23.6,4.8
		c-7.5,3.1-14.2,7.7-19.9,13.5C180.9,422,195.4,423.4,210,423.4z"/>
	<path class="st10" d="M210,210c-16.1-0.1-32.1,1.6-47.9,5.2c5.7,7.3,12.9,13.1,21.2,17.2c8.3,4,17.4,6.1,26.6,6.1
		s18.3-2.1,26.6-6.1s15.6-9.9,21.2-17.2C242.1,211.6,226.1,209.9,210,210z"/>
	<path class="st9" d="M210,429.4c49.2,0,89-14.8,89-33s-39.8-33-89-33s-89,14.8-89,33S160.8,429.4,210,429.4z"/>
	<path class="st9" d="M210,270c49.2,0,89-14.8,89-33s-39.8-33-89-33s-89,14.8-89,33S160.8,270,210,270z"/>
	<g>
		
			<linearGradient id="SVGID_1_" gradientUnits="userSpaceOnUse" x1="-329.01" y1="522.9" x2="-329.01" y2="643.3" gradientTransform="matrix(1 0 0 1 539.01 -262.6)">
			<stop  offset="0" style="stop-color:#53BDBC"/>
			<stop  offset="1" style="stop-color:#2D8281"/>
		</linearGradient>
		<path class="st11" d="M210,380.7c33.5,0,60.7-27,60.7-60.2s-27.2-60.2-60.7-60.2s-60.7,27-60.7,60.2S176.5,380.7,210,380.7z"/>
		
			<linearGradient id="SVGID_2_" gradientUnits="userSpaceOnUse" x1="-329.01" y1="522.6" x2="-329.01" y2="643.6" gradientTransform="matrix(1 0 0 1 539.01 -262.6)">
			<stop  offset="0" style="stop-color:#53BDBC"/>
			<stop  offset="1" style="stop-color:#2D8281"/>
		</linearGradient>
		<path class="st12" d="M210,260.6c16.2,0,31.3,6.2,42.7,17.6c11.4,11.3,17.7,26.4,17.7,42.4s-6.3,31.1-17.7,42.4
			c-11.4,11.3-26.6,17.6-42.7,17.6s-31.3-6.2-42.7-17.6c-11.4-11.3-17.7-26.4-17.7-42.4s6.3-31.1,17.7-42.4
			C178.7,266.8,193.8,260.6,210,260.6z M210,260c-33.7,0-61,27.1-61,60.5s27.3,60.5,61,60.5s61-27.1,61-60.5S243.7,260,210,260z"/>
	</g>
	<path class="st13" d="M209.7,336.5c14.9,0,27-12,27-26.8s-12.1-26.8-27-26.8s-27,12-27,26.8S194.8,336.5,209.7,336.5z"/>
	<path class="st10" d="M231.9,305c-5-4.4-13-7.3-22.2-7.3c-9.1,0-17.3,2.9-22.2,7.3c0,0,3-13.5,21.9-13.5
		C228.9,291.5,231.9,305,231.9,305z"/>
	<path class="st10" d="M194.4,299c0,0-3.3-8.3-17.8-7.2C176.6,291.8,176,303.9,194.4,299z"/>
	<path class="st10" d="M195,298.4c0,0,7.8-3.3,9.5-7.7s-1.1-11.6-1.1-11.6s-3.5,3.7-10,8.3C189.4,290.1,195,298.4,195,298.4z"/>
	<path class="st10" d="M195.5,300.1c0,0,2.2-3.9-0.6-4.4c-2.8-0.6-2.6,0.6-2.6,0.6s1.9,2.1,0,3.3
		C190.5,300.6,195.5,300.1,195.5,300.1z"/>
	<path class="st14" d="M253.4,349.5c-28.7,5.6-58.2,5.6-86.9,0"/>
</g>
</svg>
