<?xml version="1.0" encoding="utf-8"?>
<!-- Generator: Adobe Illustrator 23.1.0, SVG Export Plug-In . SVG Version: 6.00 Build 0)  -->
<svg version="1.1" id="Layer_1" xmlns="http://www.w3.org/2000/svg" xmlns:xlink="http://www.w3.org/1999/xlink" x="0px" y="0px"
	 viewBox="0 0 41 41" style="enable-background:new 0 0 41 41;" xml:space="preserve">
<style type="text/css">
	.st0{fill:#EAE5D2;}
	.st1{fill:none;stroke:#E15546;stroke-width:2;stroke-linecap:round;stroke-linejoin:round;stroke-miterlimit:10;}
	.st2{fill:none;stroke:#E15546;stroke-width:2;stroke-linecap:round;stroke-linejoin:round;}
	.st3{fill:#E15546;}
	.st4{fill:none;stroke:#E15546;stroke-width:2;stroke-linejoin:round;stroke-miterlimit:10;}
</style>
<rect class="st0" width="41" height="41"/>
<path class="st2" d="M15.7,31.5c-2.9,1-5.8-1-6.8-1.9 M16.1,32.5c0,0-1-3.8,1-5.8c-2.5-0.1-4.9-1.1-6.8-2.9c-2.9-2.9-1.9-8.6,0-10.6
	c-0.3-0.8-0.3-1.7-0.2-2.5c0.2-0.8,0.6-1.6,1.1-2.3c0,0,2.9,0,4.8,1.9c1.9-1,6.8-1,8.7,0c1.9-1.9,4.8-1.9,4.8-1.9
	c0.6,0.6,1,1.4,1.1,2.3c0.2,0.8,0.1,1.7-0.2,2.5c1.9,1.9,2.9,7.7,0,10.6c-1.8,1.7-4.2,2.8-6.8,2.9c1.9,1.9,1,5.8,1,5.8"/>
</svg>
