<?xml version="1.0" encoding="utf-8"?>
<!-- Generator: Adobe Illustrator 23.1.0, SVG Export Plug-In . SVG Version: 6.00 Build 0)  -->
<svg version="1.1" id="Layer_1" xmlns="http://www.w3.org/2000/svg" xmlns:xlink="http://www.w3.org/1999/xlink" x="0px" y="0px"
	 viewBox="0 0 41 41" style="enable-background:new 0 0 41 41;" xml:space="preserve">
<style type="text/css">
	.st0{fill:#EAE5D2;}
	.st1{fill:none;stroke:#E15546;stroke-width:2;stroke-linecap:round;stroke-linejoin:round;stroke-miterlimit:10;}
	.st2{fill:none;stroke:#E15546;stroke-width:2;stroke-linecap:round;stroke-linejoin:round;}
	.st3{fill:#E15546;}
	.st4{fill:none;stroke:#E15546;stroke-width:2;stroke-linejoin:round;stroke-miterlimit:10;}
</style>
<rect class="st0" width="41" height="41"/>
<path class="st0" d="M11.5,32.5v-5.4c0-4,2.7-7.2,6-7.2h6.8c3.3,0,6,3.2,6,7.2v5.4"/>
<path class="st1" d="M11.5,32.5v-5.4c0-4,2.7-7.2,6-7.2h6.8c3.3,0,6,3.2,6,7.2v5.4"/>
<path class="st1" d="M20.9,18.9c2.9,0,5.2-2.3,5.2-5.2s-2.3-5.2-5.2-5.2c-2.9,0-5.2,2.3-5.2,5.2S18,18.9,20.9,18.9z"/>
</svg>
