<?xml version="1.0" encoding="utf-8"?>
<!-- Generator: Adobe Illustrator 23.1.0, SVG Export Plug-In . SVG Version: 6.00 Build 0)  -->
<svg version="1.1" id="Layer_1" xmlns="http://www.w3.org/2000/svg" xmlns:xlink="http://www.w3.org/1999/xlink" x="0px" y="0px"
	 viewBox="0 0 41 41" style="enable-background:new 0 0 41 41;" xml:space="preserve">
<style type="text/css">
	.st0{fill:#EAE5D2;}
	.st1{fill:none;stroke:#E15546;stroke-width:2;stroke-linecap:round;stroke-linejoin:round;stroke-miterlimit:10;}
	.st2{fill:none;stroke:#E15546;stroke-width:2;stroke-linecap:round;stroke-linejoin:round;}
	.st3{fill:#E15546;}
	.st4{fill:none;stroke:#E15546;stroke-width:2;stroke-linejoin:round;stroke-miterlimit:10;}
</style>
<rect class="st0" width="41" height="41"/>
<path class="st3" d="M26.4,31.9c0.5-0.2,0.7-0.8,0.5-1.3c-0.2-0.5-0.8-0.7-1.3-0.5L26.4,31.9z M30.4,25.9c-0.3,0.5-0.1,1.1,0.3,1.4
	c0.5,0.3,1.1,0.1,1.4-0.3L30.4,25.9z M25.5,30.1c-2.4,1-5,1.2-7.4,0.4l-0.6,1.9c2.9,0.9,6,0.7,8.8-0.5L25.5,30.1z M18.1,30.5
	c-2.5-0.7-4.6-2.4-5.9-4.5l-1.7,1.1c1.6,2.6,4.1,4.5,7,5.4L18.1,30.5z M12.2,26c-1.4-2.2-1.9-4.8-1.6-7.3l-2-0.3
	c-0.4,3,0.2,6.1,1.8,8.7L12.2,26z M10.6,18.7c0.4-2.5,1.6-4.9,3.6-6.5l-1.3-1.5c-2.3,2-3.8,4.8-4.2,7.8L10.6,18.7z M14.2,12.1
	c1.9-1.7,4.4-2.6,7-2.6l0-2c-3,0-6,1.1-8.3,3.1L14.2,12.1z M21.2,9.5c2.6,0,5.1,0.9,7,2.5l1.3-1.5c-2.3-2-5.3-3-8.3-3L21.2,9.5z
	 M28.2,12c2,1.7,3.3,4,3.7,6.5l2-0.3c-0.5-3-2-5.7-4.4-7.7L28.2,12z M31.8,18.5c0.4,2.5-0.1,5.1-1.4,7.3l1.7,1
	c1.6-2.6,2.2-5.7,1.7-8.7L31.8,18.5z"/>
<path class="st4" d="M21.2,26.4c3.4,0,6.1-2.7,6.1-6.1c0-3.4-2.7-6.1-6.1-6.1c-3.4,0-6.1,2.7-6.1,6.1C15.1,23.6,17.9,26.4,21.2,26.4
	z"/>
<path class="st3" d="M28.4,14.1c0-0.6-0.4-1-1-1c-0.6,0-1,0.4-1,1H28.4z M27.4,26.4h-1c0,0.1,0,0.1,0,0.2L27.4,26.4z M32,27
	c0.3-0.4,0.3-1.1-0.2-1.4c-0.4-0.3-1.1-0.3-1.4,0.2L32,27z M26.4,14.1v12.2h2V14.1H26.4z M27.4,26.4c-1,0.2-1,0.2-1,0.2c0,0,0,0,0,0
	c0,0,0,0,0,0c0,0,0,0,0,0c0,0,0,0,0,0c0,0,0,0,0,0c0,0,0,0.1,0,0.2c0,0.1,0.1,0.3,0.2,0.5c0.1,0.4,0.4,0.9,0.9,1.3
	c0.5,0.4,1.3,0.7,2.2,0.4c0.8-0.3,1.5-0.9,2.3-2l-1.6-1.2c-0.7,0.9-1.2,1.2-1.4,1.3c-0.1,0.1-0.2,0-0.2,0c-0.1-0.1-0.2-0.3-0.3-0.5
	c0-0.1-0.1-0.2-0.1-0.3c0,0,0-0.1,0-0.1c0,0,0,0,0,0c0,0,0,0,0,0c0,0,0,0,0,0c0,0,0,0,0,0c0,0,0,0,0,0
	C28.4,26.2,28.4,26.2,27.4,26.4z"/>
</svg>
