<?xml version="1.0" encoding="utf-8"?>
<!-- Generator: Adobe Illustrator 23.1.0, SVG Export Plug-In . SVG Version: 6.00 Build 0)  -->
<svg version="1.1" id="Layer_1" xmlns="http://www.w3.org/2000/svg" xmlns:xlink="http://www.w3.org/1999/xlink" x="0px" y="0px"
	 viewBox="0 0 151.2 151" style="enable-background:new 0 0 151.2 151;" xml:space="preserve">
<style type="text/css">
	.st0{fill:#182335;stroke:#182335;stroke-width:3;stroke-linecap:round;stroke-linejoin:round;stroke-miterlimit:10;}
	.st1{fill:#FFFFFF;stroke:#182335;stroke-width:3;stroke-linecap:round;stroke-linejoin:round;stroke-miterlimit:10;}
	.st2{fill:#ECC4B9;stroke:#182335;stroke-width:3;stroke-linecap:round;stroke-linejoin:round;stroke-miterlimit:10;}
	.st3{fill:#E15546;stroke:#182335;stroke-width:3;stroke-linecap:round;stroke-linejoin:round;stroke-miterlimit:10;}
	.st4{fill:#EAE5D2;stroke:#182335;stroke-width:3;stroke-linecap:round;stroke-linejoin:round;stroke-miterlimit:10;}
</style>
<g>
	<path class="st0" d="M38.5,149.5c20.4,0,37-16.6,37-37s-16.6-37-37-37s-37,16.6-37,37S18.1,149.5,38.5,149.5z"/>
	<path class="st1" d="M1.5,112.5c0-6.5,1.7-12.6,4.6-17.9c1.3-2.3,2.8-4.6,4.7-6.6c1.4-1.6,3-3.1,4.7-4.4c1.4-1.2,3-2.2,4.6-3.2
		c1.5-0.8,3-1.7,4.6-2.2c1.5-0.6,3.1-1.2,4.7-1.6c1.5-0.3,3.1-0.7,4.7-0.8c1.5-0.2,3.1-0.3,4.6-0.3v74c-1.6,0-3.1-0.1-4.6-0.3
		c-1.6-0.2-3.2-0.5-4.7-0.8c-1.6-0.4-3.2-0.9-4.7-1.6c-1.6-0.7-3.2-1.4-4.6-2.2c-1.7-0.9-3.2-2-4.6-3.2c-1.7-1.3-3.2-2.8-4.7-4.4
		c-1.7-2-3.3-4.2-4.7-6.6C3.2,125.1,1.5,119,1.5,112.5z"/>
	<path class="st1" d="M149.5,1.5h-74v37h74V1.5z"/>
	<path class="st1" d="M75.5,38.5c0,20.5-16.5,37-37,37s-37-16.5-37-37H75.5z"/>
	<path class="st1" d="M112.5,112.5c0-6.5,1.7-12.6,4.6-17.9c1.3-2.3,2.8-4.6,4.7-6.6c1.4-1.6,3-3.1,4.7-4.4c1.4-1.2,3-2.2,4.6-3.2
		c1.5-0.8,3-1.7,4.6-2.2c1.5-0.6,3.1-1.2,4.7-1.6c1.5-0.3,3.1-0.7,4.7-0.8c1.5-0.2,3.1-0.3,4.6-0.3v74c-1.6,0-3.1-0.1-4.6-0.3
		c-1.6-0.2-3.2-0.5-4.7-0.8c-1.6-0.4-3.2-0.9-4.7-1.6c-1.6-0.7-3.2-1.4-4.6-2.2c-1.7-0.9-3.2-2-4.6-3.2c-1.7-1.3-3.2-2.8-4.7-4.4
		c-1.7-2-3.3-4.2-4.7-6.6C114.2,125.1,112.5,119,112.5,112.5z"/>
	<path class="st2" d="M149.5,75.5h-74v30.4h74V75.5z"/>
	<path class="st1" d="M75.5,75.5c20.5,0,37,16.5,37,37s-16.5,37-37,37V75.5z"/>
	<path class="st3" d="M149.5,1.5c-20.5,0-37,16.5-37,37s16.5,37,37,37V1.5z"/>
	<path class="st4" d="M38.5,1.5c-20.5,0-37,16.5-37,37h74C75.5,18,59,1.5,38.5,1.5z"/>
</g>
</svg>
