<?xml version="1.0" encoding="utf-8"?>
<!-- Generator: Adobe Illustrator 23.1.0, SVG Export Plug-In . SVG Version: 6.00 Build 0)  -->
<svg version="1.1" id="Layer_1" xmlns="http://www.w3.org/2000/svg" xmlns:xlink="http://www.w3.org/1999/xlink" x="0px" y="0px"
	 viewBox="0 0 273.7 319.3" style="enable-background:new 0 0 273.7 319.3;" xml:space="preserve">
<style type="text/css">
	.st0{fill:#FFFFFF;stroke:#182335;stroke-width:2;stroke-miterlimit:10;}
	.st1{fill:#182335;}
	.st2{fill:#FFFFFF;}
	.st3{fill:#EAE5D2;stroke:#182335;stroke-width:2;stroke-miterlimit:10;}
	.st4{fill:#E15546;stroke:#E15546;stroke-miterlimit:10;}
	.st5{fill:#FFFFFF;stroke:#E15546;stroke-miterlimit:10;}
</style>
<g>
	<path class="st3" d="M184.4,214.6H89.2c-4.1,0-7.4-3.3-7.4-7.4v-95.2c0-4.1,3.3-7.4,7.4-7.4h95.2c4.1,0,7.4,3.3,7.4,7.4v95.2
		C191.8,211.3,188.5,214.6,184.4,214.6z"/>
	<circle class="st4" cx="105.1" cy="127.9" r="15.5"/>
	<path class="st5" d="M105.1,112.4v31c8.5-0.1,15.4-7,15.4-15.5S113.6,112.5,105.1,112.4z"/>
	<g>
		<circle class="st4" cx="105.1" cy="191.4" r="15.5"/>
		<path class="st5" d="M89.6,191.4h31c-0.1-8.5-7-15.4-15.5-15.4S89.7,182.9,89.6,191.4z"/>
	</g>
	<g>
		<circle class="st4" cx="168.6" cy="127.9" r="15.5"/>
		<path class="st5" d="M184.1,128h-31c0.1,8.5,7,15.4,15.5,15.4S184,136.5,184.1,128z"/>
	</g>
	<g>
		<circle class="st4" cx="168.6" cy="191.4" r="15.5"/>
		<path class="st5" d="M168.5,175.9v31c-8.5-0.1-15.4-7-15.4-15.5S160,176,168.5,175.9z"/>
	</g>
</g>
</svg>
