<?xml version="1.0" encoding="utf-8"?>
<!-- Generator: Adobe Illustrator 23.1.0, SVG Export Plug-In . SVG Version: 6.00 Build 0)  -->
<svg version="1.1" id="Layer_1" xmlns="http://www.w3.org/2000/svg" xmlns:xlink="http://www.w3.org/1999/xlink" x="0px" y="0px"
	 viewBox="0 0 201 201" style="enable-background:new 0 0 201 201;" xml:space="preserve">
<style type="text/css">
	.st0{fill:#FFFFFF;stroke:#182335;}
	.st1{fill:#EAE5D2;stroke:#182335;stroke-width:2;stroke-linecap:round;stroke-linejoin:round;stroke-miterlimit:10;}
	.st2{fill:#FFFFFF;stroke:#182335;stroke-width:2;stroke-linecap:round;stroke-linejoin:round;stroke-miterlimit:10;}
	.st3{fill:#182335;stroke:#182335;}
	.st4{fill:#FFFFFF;}
	.st5{fill:none;stroke:#182335;stroke-width:3;stroke-linecap:round;stroke-linejoin:round;stroke-miterlimit:10;}
	.st6{fill:none;stroke:#182335;stroke-width:2;stroke-linecap:round;stroke-linejoin:round;stroke-miterlimit:10;}
	.st7{fill:#ECC4B9;}
</style>
<rect x="0.5" y="0.5" class="st0" width="198" height="200"/>
<path class="st1" d="M107.5,158.1L99,158l-8.5,0.1c0,0-26.5,5.9-31.5,23.9h40h40C134,164,107.5,158.1,107.5,158.1z"/>
<path class="st2" d="M90.5,138.5V161c0.3,4.7,4.2,8.5,9,8.5s8.7-3.8,9-8.5v-22.5H90.5z"/>
<path class="st2" d="M40.5,111.5c9.4,0,17-8.5,17-19s-7.6-19-17-19s-17,8.5-17,19S31.1,111.5,40.5,111.5z"/>
<path class="st2" d="M158.5,111.5c9.4,0,17-8.5,17-19s-7.6-19-17-19s-17,8.5-17,19S149.1,111.5,158.5,111.5z"/>
<path class="st2" d="M99.8,18.5c-0.1,0-0.2,0-0.3,0s-0.2,0-0.3,0c-32.3,0-58.5,29.5-58.5,66s17.8,66,58.5,66c0.1,0,0.2,0,0.3,0
	s0.2,0,0.3,0c40.8,0,58.5-29.5,58.5-66S132.1,18.5,99.8,18.5z"/>
<path class="st3" d="M84.3,85.5c0,1.4-0.4,2.7-1.1,3.6s-1.5,1.4-2.4,1.4S79,90,78.4,89.1c-0.7-0.9-1.1-2.2-1.1-3.6s0.4-2.7,1.1-3.6
	s1.5-1.4,2.4-1.4s1.8,0.5,2.4,1.4C83.9,82.8,84.3,84.1,84.3,85.5z"/>
<path class="st3" d="M121.3,85.5c0,1.4-0.4,2.7-1.1,3.6s-1.5,1.4-2.4,1.4s-1.8-0.5-2.4-1.4c-0.7-0.9-1.1-2.2-1.1-3.6
	s0.4-2.7,1.1-3.6s1.5-1.4,2.4-1.4s1.8,0.5,2.4,1.4C120.9,82.8,121.3,84.1,121.3,85.5z"/>
<path class="st4" d="M71.5,73.5c0,0,3-6,12-4L71.5,73.5z"/>
<path class="st5" d="M71.5,73.5c0,0,3-6,12-4"/>
<path class="st4" d="M127.5,73.5c0,0-3-6-12-4L127.5,73.5z"/>
<path class="st5" d="M127.5,73.5c0,0-3-6-12-4"/>
<path class="st4" d="M92.5,107.5c0,0,7,5,14,0H92.5z"/>
<path class="st6" d="M92.5,107.5c0,0,7,5,14,0"/>
<path class="st6" d="M42.4,69.1c0,0,78.1,4.4,85.1-33.6c0,0,3.3,30.2,29.1,33.6"/>
<path class="st6" d="M39.3,111.4c0,0,0.2,39.1-15.8,43.1"/>
<path class="st6" d="M44.5,154.5c0,0,10.4-7.7,8.7-25.3"/>
<path class="st6" d="M67.8,142.7c0,0-0.3,9.8-5.3,13.8"/>
<path class="st6" d="M159.7,111.4c0,0-0.2,39.1,15.8,43.1"/>
<path class="st6" d="M154.5,154.5c0,0-10.4-7.7-8.7-25.3"/>
<path class="st6" d="M131.2,142.7c0,0,0.3,9.8,5.3,13.8"/>
<path class="st7" d="M62.5,122.5c9.9,0,18-8.1,18-18s-8.1-18-18-18s-18,8.1-18,18S52.6,122.5,62.5,122.5z"/>
<path class="st7" d="M136.5,122.5c9.9,0,18-8.1,18-18s-8.1-18-18-18s-18,8.1-18,18S126.6,122.5,136.5,122.5z"/>
</svg>
