<?xml version="1.0" encoding="utf-8"?>
<!-- Generator: Adobe Illustrator 23.1.0, SVG Export Plug-In . SVG Version: 6.00 Build 0)  -->
<svg version="1.1" id="Layer_1" xmlns="http://www.w3.org/2000/svg" xmlns:xlink="http://www.w3.org/1999/xlink" x="0px" y="0px"
	 viewBox="0 0 496 408.7" style="enable-background:new 0 0 496 408.7;" xml:space="preserve">
<style type="text/css">
	.st0{fill:#ECC4B9;}
	.st1{fill:#182335;}
	.st2{fill:#EAE5D2;}
	.st3{opacity:0.3;fill:#E15546;enable-background:new    ;}
	.st4{opacity:0.49;fill:#E15546;enable-background:new    ;}
	.st5{opacity:0.4;}
	.st6{fill:url(#SVGID_1_);}
	.st7{fill:url(#SVGID_2_);}
	.st8{fill:#E15546;}
	.st9{opacity:0.5;fill:#E15546;enable-background:new    ;}
	.st10{fill:#E8B2A6;}
	.st11{opacity:0.5;}
	.st12{fill:#374049;}
</style>
<path class="st0" d="M68.8,38.1v98.8c0,0.3-0.2,0.5-0.5,0.5H44.4c-0.3,0-0.5-0.2-0.5-0.5V38.1c0-0.3,0.2-0.5,0.5-0.5h23.8
	C68.5,37.6,68.8,37.8,68.8,38.1z"/>
<path class="st0" d="M96.2,38.1v98.8c0,0.3-0.2,0.5-0.5,0.5H71.8c-0.3,0-0.5-0.2-0.5-0.5V38.1c0-0.3,0.2-0.5,0.5-0.5h23.8
	C96,37.6,96.2,37.8,96.2,38.1z"/>
<path class="st0" d="M123.6,38.1v98.8c0,0.3-0.2,0.5-0.5,0.5H99.3c-0.3,0-0.5-0.2-0.5-0.5V38.1c0-0.3,0.2-0.5,0.5-0.5h23.8
	C123.4,37.6,123.6,37.8,123.6,38.1z"/>
<g>
	<g>
		<rect x="397.5" y="70.6" class="st0" width="85.1" height="28.9"/>
		<path class="st1" d="M485.3,60.6h-90.5c-0.4,0-0.8,0.3-0.8,0.8v8.5c0,0.4,0.3,0.8,0.8,0.8h90.5c0.4,0,0.8-0.3,0.8-0.8v-8.5
			C486,60.9,485.7,60.6,485.3,60.6z"/>
	</g>
	<path class="st2" d="M449.3,85.9h-18.6c-0.3,0-0.6-0.3-0.6-0.6v-7.1c0-0.3,0.3-0.6,0.6-0.6h18.6c0.3,0,0.6,0.3,0.6,0.6v7.1
		C450,85.6,449.7,85.9,449.3,85.9z"/>
</g>
<polygon class="st3" points="482.2,99.4 397.1,99.4 397.1,97.7 482.2,93.7 "/>
<polygon class="st4" points="482.2,99.4 397.1,99.4 397.1,99.4 482.2,95.4 "/>
<g class="st5">
	
		<linearGradient id="SVGID_1_" gradientUnits="userSpaceOnUse" x1="0" y1="26.3" x2="84" y2="26.3" gradientTransform="matrix(1 0 0 -1 0 410)">
		<stop  offset="0" style="stop-color:#FFFFFF"/>
		<stop  offset="1" style="stop-color:#FFFFFF;stop-opacity:0"/>
	</linearGradient>
	<polygon class="st6" points="84,407.7 0,359.7 20,359.7 84,359.7 	"/>
</g>
<g class="st5">
	
		<linearGradient id="SVGID_2_" gradientUnits="userSpaceOnUse" x1="101.8577" y1="26.3" x2="185.8577" y2="26.3" gradientTransform="matrix(1 0 0 -1 0 410)">
		<stop  offset="0" style="stop-color:#FFFFFF"/>
		<stop  offset="1" style="stop-color:#FFFFFF;stop-opacity:0"/>
	</linearGradient>
	<polygon class="st7" points="185.9,407.7 101.9,359.7 121.9,359.7 185.9,359.7 	"/>
</g>
<g>
	<g>
		<rect x="397.5" y="108.6" class="st0" width="85.1" height="28.9"/>
		<path class="st1" d="M485.3,98.6h-90.5c-0.4,0-0.8,0.3-0.8,0.8v8.5c0,0.4,0.3,0.8,0.8,0.8h90.5c0.4,0,0.8-0.3,0.8-0.8v-8.5
			C486,98.9,485.7,98.6,485.3,98.6z"/>
	</g>
	<path class="st2" d="M448.9,123.9h-18.6c-0.3,0-0.6-0.3-0.6-0.6v-7.1c0-0.3,0.3-0.6,0.6-0.6h18.6c0.3,0,0.6,0.3,0.6,0.6v7.1
		C449.6,123.6,449.3,123.9,448.9,123.9z"/>
</g>
<path class="st0" d="M41.4,38.1v98.8c0,0.3-0.2,0.5-0.5,0.5H17c-0.3,0-0.5-0.2-0.5-0.5V38.1c0-0.3,0.2-0.5,0.5-0.5h23.8
	C41.1,37.6,41.4,37.8,41.4,38.1z"/>
<path class="st2" d="M36.7,48H21.1c-0.3,0-0.6-0.3-0.6-0.6V42c0-0.3,0.3-0.6,0.6-0.6h15.6c0.3,0,0.6,0.3,0.6,0.6v5.4
	C37.3,47.7,37.1,48,36.7,48z"/>
<g>
	<g>
		<path class="st1" d="M185.5,360.6h-83.3c-0.5,0-0.9-0.4-0.9-0.9v-47.1c0-0.5,0.4-0.9,0.9-0.9h83.3c0.5,0,0.9,0.4,0.9,0.9v47.1
			C186.4,360.2,186,360.6,185.5,360.6z"/>
		<path class="st8" d="M189.1,303.8H98.6c-0.4,0-0.8,0.3-0.8,0.8v8.5c0,0.4,0.3,0.8,0.8,0.8h90.5c0.4,0,0.8-0.3,0.8-0.8v-8.5
			C189.9,304.1,189.5,303.8,189.1,303.8z"/>
	</g>
	<path class="st2" d="M152.9,327.1h-18.1c-0.5,0-0.8-0.4-0.8-0.8v-6.6c0-0.5,0.4-0.8,0.8-0.8h18.1c0.5,0,0.8,0.4,0.8,0.8v6.6
		C153.8,326.7,153.4,327.1,152.9,327.1z"/>
</g>
<g>
	<g>
		<path class="st1" d="M185.5,303.9h-83.3c-0.5,0-0.9-0.4-0.9-0.9v-47.1c0-0.5,0.4-0.9,0.9-0.9h83.3c0.5,0,0.9,0.4,0.9,0.9V303
			C186.4,303.5,186,303.9,185.5,303.9z"/>
		<path class="st8" d="M189.1,247H98.6c-0.4,0-0.8,0.3-0.8,0.8v8.5c0,0.4,0.3,0.8,0.8,0.8h90.5c0.4,0,0.8-0.3,0.8-0.8v-8.5
			C189.9,247.4,189.5,247,189.1,247z"/>
	</g>
	<path class="st2" d="M152.9,270.4h-18.1c-0.5,0-0.8-0.4-0.8-0.8V263c0-0.5,0.4-0.8,0.8-0.8h18.1c0.5,0,0.8,0.4,0.8,0.8v6.6
		C153.8,270,153.4,270.4,152.9,270.4z"/>
</g>
<g>
	<path class="st1" d="M319.7,115.8H154.3c-0.7,0-1.4-0.6-1.4-1.4v-104c0-0.7,0.6-1.4,1.4-1.4h165.3c0.7,0,1.4,0.6,1.4,1.4v104
		C321,115.1,320.4,115.8,319.7,115.8z"/>
	<polygon class="st0" points="258.4,137.4 215.7,137.4 218.7,115.8 255.4,115.8 	"/>
	<path class="st2" d="M158,99.6V15c0-0.5,0.4-1,1-1h156.2c0.5,0,1,0.4,1,1v84.6c0,0.5-0.4,1-1,1H158.9
		C158.4,100.6,158,100.1,158,99.6z"/>
	<polygon class="st3" points="255.9,119.7 255.4,115.8 218.7,115.8 217.8,121.8 	"/>
	<path class="st0" d="M259.5,133.4h-44.9c-0.4,0-0.6,0.3-0.6,0.6v3.4h46.2V134C260.1,133.6,259.8,133.4,259.5,133.4z"/>
	<polygon class="st9" points="255.5,116.5 255.4,115.8 218.7,115.8 218.4,117.7 	"/>
</g>
<path class="st8" d="M288.1,126.7H271c-0.3,0-0.5-0.2-0.5-0.5v-17.1c0-0.3,0.2-0.5,0.5-0.5h17.1c0.3,0,0.5,0.2,0.5,0.5v17.1
	C288.6,126.5,288.3,126.7,288.1,126.7z"/>
<path class="st0" d="M309.9,126.7h-17.1c-0.3,0-0.5-0.2-0.5-0.5v-17.1c0-0.3,0.2-0.5,0.5-0.5h17.1c0.3,0,0.5,0.2,0.5,0.5v17.1
	C310.4,126.5,310.2,126.7,309.9,126.7z"/>
<path class="st0" d="M492.5,161.4H3.6c-0.3,0-0.5-0.2-0.5-0.5V138c0-0.3,0.2-0.5,0.5-0.5h488.9c0.3,0,0.5,0.2,0.5,0.5v22.9
	C493,161.2,492.8,161.4,492.5,161.4z"/>
<g>
	<path class="st10" d="M19.3,360.6H0.9c-0.5,0-0.8-0.4-0.8-0.9l19.8-197.6c0-0.4,0.4-0.7,0.8-0.7h18.4c0.5,0,0.8,0.4,0.8,0.9
		L20.1,359.9C20,360.3,19.7,360.6,19.3,360.6z"/>
	<path class="st10" d="M495.2,360.6h-18.4c-0.4,0-0.8-0.3-0.8-0.7l-19.8-197.6c0-0.5,0.3-0.9,0.8-0.9h18.4c0.4,0,0.8,0.3,0.8,0.7
		L496,359.7C496,360.2,495.6,360.6,495.2,360.6z"/>
</g>
<polygon class="st3" points="37.9,182.7 40,161.4 20,161.4 17.8,183.1 "/>
<polygon class="st3" points="477.3,173.8 476,161.4 456,161.4 457.3,174.2 "/>
<g class="st11">
	<polygon class="st8" points="39,171.4 40,161.4 20,161.4 19,171.7 	"/>
	<g>
		<g>
			<polygon class="st8" points="476.4,165.3 476,161.4 456,161.4 456.5,165.6 			"/>
		</g>
	</g>
</g>
<path class="st3" d="M492.5,161.4H3.5c-0.3,0-0.5-0.2-0.5-0.5v-4.1c0-0.3,0.2-0.5,0.5-0.5l489-1c0.3,0,0.5,0.2,0.5,0.5v5.1
	C493,161.2,492.8,161.4,492.5,161.4z"/>
<g>
	<path class="st12" d="M218.9,361l6.5-31.5c0.1-0.4,0.4-0.7,0.8-0.7h115.2c0.4,0,0.7,0.3,0.8,0.7l6.5,31.5c0.1,0.4,0.4,0.7,0.8,0.7
		h3.4c0.5,0,0.9-0.5,0.8-1l-24.7-120c-0.1-0.5-0.5-0.7-1-0.7l-3.2,0.7c-0.5,0.1-0.7,0.5-0.7,1l16.1,78.2c0.1,0.5-0.3,1-0.8,1H228.2
		c-0.5,0-0.9-0.5-0.8-1l16.1-78.2c0.1-0.5-0.2-0.9-0.7-1l-3.2-0.7c-0.5-0.1-0.9,0.2-1,0.7l-24.7,120c-0.1,0.5,0.3,1,0.8,1h3.4
		C218.5,361.7,218.8,361.4,218.9,361z"/>
	<path class="st1" d="M257.8,380.8l5.1-30.5c0.1-0.4,0.4-0.7,0.8-0.7h123.7c0.4,0,0.7,0.3,0.8,0.6l8.2,30.6c0.1,0.4,0.4,0.6,0.8,0.6
		h3.4c0.6,0,1-0.5,0.8-1.1l-37.7-139.9c-0.1-0.4-0.6-0.7-1-0.6l-3.2,0.9c-0.4,0.1-0.7,0.6-0.6,1l26.6,98.8c0.1,0.5-0.3,1.1-0.8,1.1
		H265.4c-0.5,0-0.9-0.5-0.8-1l16.6-99.1c0.1-0.5-0.2-0.9-0.7-1l-3.3-0.5c-0.5-0.1-0.9,0.2-1,0.7l-23.4,139.8c-0.1,0.5,0.3,1,0.8,1
		h3.4C257.4,381.5,257.8,381.2,257.8,380.8z"/>
	<path class="st8" d="M409,114.1c-0.7-9-8.7-9.5-10.1-9.5h-64.3c-32.4,0-38.7,40.8-38.7,40.8l-10.1,49.1
		c-3.3,23-22.7,31.3-28.7,32.7c-0.6,0.1-1.2,0.2-1.8,0.4c-5.5,1.1-17.4,2.3-24,4c-14.6,3.9-18.2,7.8-19.2,9.7
		c-0.3,0.5,0.1,1.1,0.7,1.1h18.5h47.6h14h62c4.2,0,41.8-1.4,48.2-37.7v-0.1l6-89.5C409,114.7,409,114.4,409,114.1z"/>
	<path class="st0" d="M395.6,107.2c-58.2,0.3-69.2-1.7-82.2,10.2s-15.3,38.1-15.3,38.1s6.1-22.7,13.8-32.7c0,0,8.1-13.8,36.3-13.2
		S395.6,107.2,395.6,107.2z"/>
	<path class="st0" d="M229.1,232.1c-0.4,0.1-0.8,0.2-1.2,0.4c-0.1,0-0.2,0.1-0.4,0.1c-0.5,0.1-1,0.3-1.4,0.4c-0.1,0-0.2,0.1-0.3,0.1
		c-0.4,0.1-0.7,0.2-1.1,0.4c-0.1,0-0.2,0.1-0.4,0.1c-0.4,0.1-0.7,0.3-1.1,0.4c-0.1,0-0.1,0-0.2,0.1c-0.4,0.1-0.8,0.3-1.1,0.4
		c-0.1,0-0.2,0.1-0.3,0.1c-0.3,0.1-0.6,0.2-0.8,0.3c-0.1,0-0.2,0.1-0.3,0.1c-0.3,0.1-0.7,0.3-1,0.4h-0.1c-0.3,0.1-0.6,0.3-0.8,0.4
		c-0.1,0-0.2,0.1-0.2,0.1c-0.2,0.1-0.4,0.2-0.7,0.3c-0.1,0-0.1,0.1-0.2,0.1c-0.3,0.1-0.5,0.3-0.7,0.4c-0.1,0-0.1,0.1-0.2,0.1
		c-0.2,0.1-0.4,0.2-0.5,0.3c-0.1,0-0.1,0.1-0.2,0.1c-0.2,0.1-0.4,0.2-0.6,0.4l0,0c-0.2,0.1-0.4,0.3-0.5,0.4l-0.1,0.1
		c-0.1,0.1-0.3,0.2-0.4,0.3l-0.1,0.1c-0.1,0.1-0.3,0.2-0.4,0.3c0,0,0,0-0.1,0.1s-0.2,0.2-0.3,0.3l-0.1,0.1c-0.1,0.1-0.2,0.2-0.3,0.3
		c0,0,0,0-0.1,0.1s-0.2,0.2-0.3,0.3c0,0,0,0.1-0.1,0.1c-0.1,0.1-0.1,0.1-0.2,0.2c0,0,0,0.1-0.1,0.1c-0.1,0.1-0.1,0.2-0.2,0.3l0,0
		c-0.1,0.1-0.1,0.2-0.1,0.2s0,0,0,0.1s-0.1,0.1-0.1,0.2c0,0,0,0,0,0.1l0,0c-0.1,0.3-0.1,0.6,0.1,0.8c1.7-1.5,9.5-7.5,23-8.6
		c15.5-1.3,26.2-7.7,26.2-7.7l0,0c-0.4,0.2-0.9,0.3-1.3,0.5l0,0c-0.8,0.3-1.5,0.5-2.1,0.7c-0.1,0-0.1,0-0.2,0.1
		c-0.3,0.1-0.6,0.2-0.8,0.2c-0.6,0.1-1.2,0.2-1.8,0.4c-5.5,1.1-17.4,2.3-24,4c-0.6,0.2-1.1,0.3-1.6,0.5
		C229.4,232,229.3,232,229.1,232.1z"/>
</g>
<rect x="213.9" y="136.4" class="st3" width="46.2" height="1"/>
<g>
	<path class="st0" d="M73.6,354.6l-13.7-2.7c-0.4-0.1-0.7-0.5-0.6-0.9l32.4-161.7c0.1-0.4,0.5-0.7,0.9-0.6l13.7,2.7
		c0.4,0.1,0.7,0.5,0.6,0.9L74.4,354C74.4,354.4,74,354.7,73.6,354.6z"/>
	<path class="st8" d="M106.5,191.4l-14.1-2.8c-0.3-0.1-0.6,0.1-0.6,0.4l-0.3,1.6c-0.1,0.3,0.1,0.6,0.4,0.6L106,194
		c0.3,0.1,0.6-0.1,0.6-0.4l0.3-1.6C107,191.7,106.8,191.5,106.5,191.4z"/>
	<path class="st8" d="M74.3,352l-14.2-2.8c-0.3-0.1-0.5,0.1-0.6,0.4l-0.3,1.6c-0.1,0.3,0.1,0.5,0.4,0.6l14.2,2.8
		c0.3,0.1,0.5-0.1,0.6-0.4l0.3-1.6C74.8,352.3,74.6,352.1,74.3,352z"/>
	<g>
		<polygon class="st3" points="77.3,339.5 61.2,341.4 60.7,344 76.8,342.1 		"/>
		<polygon class="st3" points="80.5,323.9 64.3,325.8 63.8,328.4 79.9,326.5 		"/>
		<polygon class="st3" points="83.6,308.3 67.5,310.2 66.9,312.8 83.1,311 		"/>
		<polygon class="st3" points="86.7,292.8 70.6,294.6 70.1,297.2 86.2,295.4 		"/>
		<polygon class="st3" points="89.8,277.2 73.7,279 73.2,281.6 89.3,279.8 		"/>
		<polygon class="st3" points="93,261.6 76.8,263.4 76.3,266.1 92.4,264.2 		"/>
		<polygon class="st3" points="96.1,246 80,247.9 79.4,250.5 95.6,248.6 		"/>
		<polygon class="st3" points="99.2,230.4 83.1,232.3 82.6,234.9 98.7,233 		"/>
		<polygon class="st3" points="102.3,214.8 86.2,216.7 85.7,219.3 101.8,217.4 		"/>
		<polygon class="st3" points="105.5,199.2 89.3,201.1 88.8,203.7 104.9,201.8 		"/>
	</g>
</g>
<path class="st10" d="M74.9,352.5l-14,1.8c-0.4,0.1-0.8-0.2-0.8-0.6l-19-149c-0.1-0.4,0.2-0.8,0.6-0.8l14-1.8
	c0.4-0.1,0.8,0.2,0.8,0.6l19,149C75.6,352.1,75.3,352.5,74.9,352.5z"/>
<path class="st0" d="M62.5,353.8l-14,1.8c-0.4,0.1-0.8-0.2-0.8-0.6L27.4,196c-0.1-0.4,0.2-0.8,0.6-0.8l14-1.8
	c0.4-0.1,0.8,0.2,0.8,0.6l20.3,159C63.2,353.3,62.9,353.7,62.5,353.8z"/>
<g>
	<path class="st1" d="M102.4,284.5H21.9c-0.4,0-0.7-0.3-0.7-0.7v-5.2c0-0.4,0.3-0.7,0.7-0.7h80.6c0.4,0,0.7,0.3,0.7,0.7v5.2
		C103.2,284.1,102.9,284.5,102.4,284.5z"/>
	<path class="st1" d="M92,360.6H32.3c-0.4,0-0.6-0.3-0.6-0.6v-2.7c0-0.4,0.3-0.6,0.6-0.6H92c0.4,0,0.6,0.3,0.6,0.6v2.7
		C92.6,360.3,92.3,360.6,92,360.6z"/>
	<path class="st1" d="M24.5,281.6l9.2,75.1l0.2,2v0.3h56.4l9.5-77.5H24.5V281.6z M94.6,282.6l-8.2,8.2l-6.1-6.1l2-2h12.3V282.6z
		 M85.7,332.6l-6.1,6.1l-6.1-6.1l6.1-6.1L85.7,332.6L85.7,332.6L85.7,332.6z M85.7,318.9l-6.1,6.1l-6.1-6.1l6.1-6.1L85.7,318.9
		L85.7,318.9L85.7,318.9z M66.6,312.1l6.1-6.1l6.1,6.1l-6.1,6.1L66.6,312.1z M72,318.9l-6.1,6.1l-6.1-6.1l6.1-6.1L72,318.9z
		 M65.9,311.4l-6.1-6.1l6.1-6.1l6.1,6.1L65.9,311.4z M65.2,312.1l-6.1,6.1l-6.1-6.1l6.1-6.1L65.2,312.1z M58.3,318.9l-6.1,6.1
		l-6.1-6.1l6.1-6.1L58.3,318.9z M52.2,311.4l-6.1-6.1l6.1-6.1l6.1,6.1L52.2,311.4z M51.5,312.1l-6.1,6.1l-6.1-6.1l6.1-6.1
		L51.5,312.1z M51.5,325.8l-6.1,6.1l-6.1-6.1l6.1-6.1L51.5,325.8z M52.2,326.5l6.1,6.1l-6.1,6.1l-6.1-6.1L52.2,326.5z M52.9,325.8
		l6.1-6.1l6.1,6.1l-6.1,6.1L52.9,325.8z M65.9,326.5l6.1,6.1l-6.1,6.1l-6.1-6.1L65.9,326.5z M66.6,325.8l6.1-6.1l6.1,6.1l-6.1,6.1
		L66.6,325.8z M79.6,311.4l-6.1-6.1l6.1-6.1l6.1,6.1L79.6,311.4z M79.6,297.7l-6.1-6.1l6.1-6.1l6.1,6.1L79.6,297.7z M78.9,298.4
		l-6.1,6.1l-6.1-6.1l6.1-6.1L78.9,298.4z M65.9,297.7l-6.1-6.1l6.1-6.1l6.1,6.1L65.9,297.7z M65.2,298.4l-6.1,6.1l-6.1-6.1l6.1-6.1
		L65.2,298.4z M52.2,297.7l-6.1-6.1l6.1-6.1l6.1,6.1L52.2,297.7z M51.5,298.4l-6.1,6.1l-6.1-6.1l6.1-6.1L51.5,298.4z M38.5,297.7
		l-6.1-6.1l6.1-6.1l6.1,6.1L38.5,297.7z M44.6,305.2l-6.1,6.1l-6.1-6.1l6.1-6.1L44.6,305.2z M44.6,318.9l-6.1,6.1l-6.1-6.1l6.1-6.1
		L44.6,318.9z M44.6,332.6l-6.1,6.1l-6.1-6.1l6.1-6.1L44.6,332.6z M45.3,333.3l6.1,6.1l-6.1,6.1l-6.1-6.1L45.3,333.3z M52.2,340.2
		l6.1,6.1l-6.1,6.1l-6.1-6.1L52.2,340.2z M52.9,339.5l6.1-6.1l6.1,6.1l-6.1,6.1L52.9,339.5z M65.9,340.2l6.1,6.1l-6.1,6.1l-6.1-6.1
		L65.9,340.2z M66.6,339.5l6.1-6.1l6.1,6.1l-6.1,6.1L66.6,339.5z M79.6,340.2l6.1,6.1l-6.1,6.1l-6.1-6.1L79.6,340.2z M80.3,325.8
		l6.1-6.1l6.1,6.1l-6.1,6.1L80.3,325.8z M80.3,312.1l6.1-6.1l6.1,6.1l-6.1,6.1L80.3,312.1z M86.4,304.5l-6.1-6.1l6.1-6.1l6.1,6.1
		L86.4,304.5z M80.9,282.6l-1.3,1.3l-1.3-1.3H80.9z M76.8,282.6l2,2l-6.1,6.1l-6.1-6.1l2-2H76.8z M67.2,282.6l-1.3,1.3l-1.3-1.3
		H67.2z M63.1,282.6l2,2l-6.1,6.1l-6.1-6.1l2-2H63.1z M53.5,282.6l-1.3,1.3l-1.3-1.3H53.5z M49.4,282.6l2,2l-6.1,6.1l-6.1-6.1l2-2
		H49.4z M39.8,282.6l-1.3,1.3l-1.3-1.3H39.8z M25.6,282.6h10.1l2,2l-6.1,6.1l-5.7-5.7L25.6,282.6z M26.1,286.7l4.8,4.8l-3.7,3.7
		L26.1,286.7z M27.3,296.5l4.3-4.3l6.1,6.1l-6.1,6.1l-3.8-3.8L27.3,296.5z M28,302.3l2.9,2.9l-2.3,2.3L28,302.3z M28.8,308.7
		l2.8-2.8l6.1,6.1l-6.1,6.1l-1.9-1.9L28.8,308.7z M29.9,318l1,1l-0.8,0.8L29.9,318z M30.3,320.9l1.3-1.3l6.1,6.1l-6.1,6.1
		L30.3,320.9z M31.9,333.6l5.9,5.9l-4.6,4.6L31.9,333.6z M33.6,347.6l-0.3-2.2l5.2-5.2l6.1,6.1l-6.1,6.1L33.6,347.6z M33.8,349.2
		l4,4l-3.1,3.1L33.8,349.2z M34.9,358.1l-0.1-0.6l3.7-3.7l4.2,4.2h-7.8V358.1z M44.1,358.1l-4.9-4.9l6.1-6.1l6.1,6.1l-4.9,4.9H44.1z
		 M47.9,358.1l4.2-4.2l4.2,4.2H47.9z M57.8,358.1l-4.9-4.9L59,347l6.1,6.1l-4.9,4.9h-2.4V358.1z M61.6,358.1l4.2-4.2l4.2,4.2H61.6z
		 M71.5,358.1l-4.9-4.9l6.1-6.1l6.1,6.1l-4.9,4.9H71.5z M75.3,358.1l4.2-4.2l4.2,4.2H75.3z M89.4,358.1h-4.2l-4.9-4.9l6.1-6.1
		l3.9,3.9L89.4,358.1z M90.5,349.7l-3.4-3.4l4.3-4.3L90.5,349.7z M91.6,340.4l-5.2,5.2l-6.1-6.1l6.1-6.1l5.4,5.4L91.6,340.4z
		 M92,337.5l-4.8-4.8l6.2-6.2L92,337.5z M93.5,325.3l-6.3-6.3l6.1-6.1l1.5,1.5L93.5,325.3z M95,313l-1-1l1.2-1.2L95,313z
		 M95.4,309.2l-2.2,2.2l-6.1-6.1l6.1-6.1l3,3L95.4,309.2z M96.4,300.8l-2.5-2.5l3.2-3.2L96.4,300.8z M97.3,293.6l-4.1,4.1l-6.1-6.1
		l8.9-8.9h2.7L97.3,293.6L97.3,293.6z"/>
</g>
<polygon class="st3" points="16.5,129.2 41.4,127 41.4,133.4 16.5,133.4 "/>
<polygon class="st3" points="43.9,126.8 68.8,124.5 68.8,133.4 43.9,133.4 "/>
<polygon class="st3" points="71.3,124.3 96.2,122.1 96.2,133.4 71.3,133.4 "/>
<polygon class="st3" points="123.6,119.6 123.6,133.4 98.7,133.4 98.7,121.9 "/>
<polygon class="st9" points="16.5,132.4 41.4,131.3 41.4,133.4 16.5,133.4 "/>
<polygon class="st9" points="43.9,131.2 68.8,130.1 68.8,133.4 43.9,133.4 "/>
<polygon class="st9" points="71.3,130 96.2,128.9 96.2,133.4 71.3,133.4 "/>
<polygon class="st9" points="123.6,127.7 123.6,133.4 98.7,133.4 98.7,128.8 "/>
<polygon class="st3" points="482.6,137.4 397.5,137.4 397.5,135.7 482.6,131.7 "/>
<polygon class="st4" points="482.6,137.4 397.5,137.4 397.5,137.4 482.6,133.4 "/>
<path class="st1" d="M125.3,90.4V133c0,0.2-0.2,0.4-0.4,0.4H15.5c-0.2,0-0.4-0.2-0.4-0.4V90.4c0-0.2-0.2-0.4-0.4-0.4h-3.1
	c-0.2,0-0.4,0.2-0.4,0.4v46.5c0,0.2,0.2,0.4,0.4,0.4h1.5h2h110.3h2h1.5c0.2,0,0.4-0.2,0.4-0.4V90.4c0-0.2-0.2-0.4-0.4-0.4h-3.1
	C125.5,90,125.3,90.2,125.3,90.4z"/>
<path class="st8" d="M165.8,106.4h-18.6H144c-0.5,0-1,0.4-1,1l0,0c0,0.5-0.4,0.9-0.9,1c-5.7,0.4-10.3,4.7-10.3,10
	c0,5.5,4.7,12.1,10.4,12.7c0.5,0,0.8,0.5,0.8,0.9v0.4c0,2.8,2.3,5.1,5.1,5.1h16.7c2.8,0,5.1-2.3,5.1-5.1v-16.7v-5v-3.2
	c0-0.5-0.4-1-1-1L165.8,106.4L165.8,106.4z M134.9,118.3c0-3.5,3.1-6.4,7-6.9c0.6-0.1,1.1,0.4,1.1,1v3.2v11.3c0,0.6-0.6,1.1-1.2,0.9
	C137.9,126.9,134.9,121.8,134.9,118.3z"/>
<g>
	<path class="st1" d="M455.2,52.7h-8.1c-0.4,0-0.7-0.3-0.7-0.7V1.8c0-0.4,0.3-0.7,0.7-0.7h8.1c0.4,0,0.7,0.3,0.7,0.7V52
		C455.9,52.4,455.6,52.7,455.2,52.7z"/>
	<g>
		
			<rect x="451.4" y="13.1" transform="matrix(0.9952 -9.763466e-02 9.763466e-02 0.9952 -0.6099 44.3391)" class="st0" width="2.7" height="30.6"/>
		<path class="st0" d="M451.9,10.1l-1.9,0.2c-0.2,0-0.4,0.2-0.4,0.5l0.2,2.1c0,0.2,0.2,0.4,0.5,0.4l1.9-0.2c0.2,0,0.4-0.2,0.4-0.5
			l-0.2-2.1C452.4,10.3,452.1,10.1,451.9,10.1z"/>
		
			<rect x="449.9" y="12.8" transform="matrix(0.9952 -9.763466e-02 9.763466e-02 0.9952 0.8472 44.1209)" class="st1" width="2.7" height="1.2"/>
	</g>
	<g>
		<g>
			<path class="st10" d="M461.2,21.5c0,0-3.2,27.5-1.8,27.7l4.2-27.3L461.2,21.5z"/>
			<path class="st10" d="M466.1,22.2c0,0-5.2,27.1-6.7,26.9l4.2-27.3L466.1,22.2z"/>
		</g>
		<path class="st8" d="M466.3,2.3l-2-0.3c-0.1,0-0.1,0-0.1,0c-0.1,0-0.2-0.1-0.3-0.1c-5.2-0.8-10,2.8-10.8,7.9
			c-0.8,5.2,2.8,10,7.9,10.8l0,0l-0.1,0.9c0,0.2,0.1,0.5,0.4,0.5l2,0.3c0.2,0,0.5-0.1,0.5-0.4l3-19.3C466.7,2.5,466.5,2.3,466.3,2.3
			z M454.8,10.1c0.6-4.2,4.5-7,8.7-6.4l-2.3,15.1C457,18.2,454.2,14.3,454.8,10.1z"/>
		<path class="st8" d="M466.6,2.8l-3,19.3c0,0.2,0.1,0.5,0.4,0.5l2,0.3c0.2,0,0.5-0.1,0.5-0.4l0.1-0.9l0,0c5.2,0.8,10-2.8,10.8-7.9
			c0.8-5.2-2.8-10-7.9-10.8c-0.1,0-0.2,0-0.3,0c0,0-0.1,0-0.1-0.1l-2-0.3C466.9,2.4,466.7,2.5,466.6,2.8z M467,19.7l2.3-15.1
			c4.2,0.6,7,4.5,6.4,8.7C475,17.5,471.1,20.3,467,19.7z"/>
	</g>
	<g>
		
			<rect x="441.6" y="32.5" transform="matrix(0.1416 -0.9899 0.9899 0.1416 358.756 481.36)" class="st0" width="30.6" height="2.7"/>
		<path class="st0" d="M460.4,15.9l-1.8-0.3c-0.2,0-0.4,0.1-0.5,0.4l-0.3,2.1c0,0.2,0.1,0.4,0.4,0.5l1.8,0.3c0.2,0,0.4-0.1,0.5-0.4
			l0.3-2.1C460.8,16.1,460.7,15.9,460.4,15.9z"/>
		
			<rect x="458.4" y="17.5" transform="matrix(0.1416 -0.9899 0.9899 0.1416 375.3609 470.598)" class="st1" width="1.3" height="2.7"/>
	</g>
	<path class="st8" d="M466.3,60.6h-20.7c-0.3,0-0.5-0.2-0.5-0.5V27.4c0-0.3,0.2-0.5,0.5-0.5h20.7c0.3,0,0.5,0.2,0.5,0.5v32.7
		C466.7,60.3,466.5,60.6,466.3,60.6z"/>
</g>
<g>
	<path class="st1" d="M427,57.2h-14.6c-0.4,0-0.8-0.3-0.8-0.8v-2.6c0-0.4,0.3-0.8,0.8-0.8H427c0.4,0,0.8,0.3,0.8,0.8v2.6
		C427.8,56.9,427.4,57.2,427,57.2z"/>
	<path class="st8" d="M415.1,61.3h-14.6c-0.4,0-0.8-0.3-0.8-0.8V58c0-0.4,0.3-0.8,0.8-0.8h14.6c0.4,0,0.8,0.3,0.8,0.8v2.6
		C415.8,61,415.5,61.3,415.1,61.3z"/>
	<path class="st0" d="M432.2,61.3h-14.6c-0.4,0-0.8-0.3-0.8-0.8V58c0-0.4,0.3-0.8,0.8-0.8h14.6c0.4,0,0.8,0.3,0.8,0.8v2.6
		C432.9,61,432.6,61.3,432.2,61.3z"/>
	<path class="st0" d="M416.1,51.1L402.7,57c-0.4,0.2-0.8,0-1-0.4l-1-2.4c-0.2-0.4,0-0.8,0.4-1l13.4-5.9c0.4-0.2,0.8,0,1,0.4l1,2.4
		C416.6,50.4,416.4,50.9,416.1,51.1z"/>
</g>
<path class="st2" d="M119,48h-15.6c-0.3,0-0.6-0.3-0.6-0.6V42c0-0.3,0.3-0.6,0.6-0.6H119c0.3,0,0.6,0.3,0.6,0.6v5.4
	C119.7,47.7,119.4,48,119,48z"/>
<rect x="47.9" y="41.4" class="st2" width="16.9" height="6.6"/>
<rect x="75.3" y="41.4" class="st2" width="16.9" height="6.6"/>
</svg>
