<?xml version="1.0" encoding="utf-8"?>
<!-- Generator: Adobe Illustrator 23.1.0, SVG Export Plug-In . SVG Version: 6.00 Build 0)  -->
<svg version="1.1" id="Layer_1" xmlns="http://www.w3.org/2000/svg" xmlns:xlink="http://www.w3.org/1999/xlink" x="0px" y="0px"
	 viewBox="0 0 592.5 393.9" style="enable-background:new 0 0 592.5 393.9;" xml:space="preserve">
<style type="text/css">
	.st0{fill:#ECC4B9;}
	.st1{opacity:0.3;fill:#E15546;enable-background:new    ;}
	.st2{opacity:0.5;fill:#E15546;enable-background:new    ;}
	.st3{opacity:0.3;}
	.st4{fill:#E15546;}
	.st5{fill:#EAE5D2;}
	.st6{opacity:0.7;}
	.st7{fill:url(#SVGID_1_);}
	.st8{fill:url(#SVGID_2_);}
	.st9{fill:#E8B2A6;}
	.st10{fill:#182335;}
	.st11{fill:#FFFFFF;}
	.st12{fill:url(#SVGID_3_);}
	.st13{fill:url(#SVGID_4_);}
</style>
<g>
	<path class="st0" d="M256.1,385.8H0.9c-0.5,0-0.9-0.4-0.9-0.9v-22.2c0-0.5,0.4-0.9,0.9-0.9h255.2c0.5,0,0.9,0.4,0.9,0.9v22.2
		C257,385.4,256.6,385.8,256.1,385.8z"/>
	<path class="st0" d="M248.6,0H8.4c-2,0-3.6,1.6-3.6,3.6v350.3v4.3v3.6h3.6h240.2h3.6v-3.6v-4.3V3.6C252.2,1.6,250.6,0,248.6,0z"/>
	<path class="st1" d="M0,384.9c0,0.5,0.4,0.9,0.9,0.9h255.2c0.5,0,0.9-0.4,0.9-0.9v-5H0V384.9z"/>
	<path class="st2" d="M0,384.9c0,0.5,0.4,0.9,0.9,0.9h255.2c0.5,0,0.9-0.4,0.9-0.9v-0.6l-257-3V384.9z"/>
	<rect x="4.8" y="359.7" class="st1" width="247.4" height="2.1"/>
	<g class="st3">
		<g>
			<path class="st4" d="M239.2,172.9V16.5c0-1.4-1.1-2.5-2.5-2.5H21.3c-1.4,0-2.5,1.1-2.5,2.5v156.4c0,1.4,1.1,2.5,2.5,2.5h215.4
				C238.1,175.4,239.2,174.3,239.2,172.9z"/>
		</g>
	</g>
	<g>
		<g>
			<path class="st5" d="M236.2,170.1V16.3c0-1.3-1-2.3-2.3-2.3H21.2c-1.3,0-2.3,1-2.3,2.3V170c0,1.3,1,2.3,2.3,2.3h212.7
				C235.1,172.4,236.2,171.4,236.2,170.1z"/>
		</g>
	</g>
	<g class="st3">
		<g>
			<path class="st4" d="M239.2,346.9V190.5c0-1.4-1.1-2.5-2.5-2.5H21.3c-1.4,0-2.5,1.1-2.5,2.5v156.4c0,1.4,1.1,2.5,2.5,2.5h215.4
				C238.1,349.4,239.2,348.3,239.2,346.9z"/>
		</g>
	</g>
	<g>
		<g>
			<path class="st5" d="M236.2,344.1V190.3c0-1.3-1-2.3-2.3-2.3H21.2c-1.3,0-2.3,1-2.3,2.3V344c0,1.3,1,2.3,2.3,2.3h212.7
				C235.1,346.4,236.2,345.4,236.2,344.1z"/>
		</g>
	</g>
	<g class="st6">
		
			<linearGradient id="SVGID_1_" gradientUnits="userSpaceOnUse" x1="235.5" y1="289.6" x2="280.5" y2="289.6" gradientTransform="matrix(1 0 0 -1 0 396)">
			<stop  offset="0" style="stop-color:#FFFFFF"/>
			<stop  offset="1" style="stop-color:#FFFFFF;stop-opacity:0"/>
		</linearGradient>
		<polygon class="st7" points="280.5,198.9 235.5,171.9 235.5,13.9 280.5,40.9 		"/>
	</g>
	<g class="st6">
		
			<linearGradient id="SVGID_2_" gradientUnits="userSpaceOnUse" x1="235.5" y1="115.6" x2="280.5" y2="115.6" gradientTransform="matrix(1 0 0 -1 0 396)">
			<stop  offset="0" style="stop-color:#FFFFFF"/>
			<stop  offset="1" style="stop-color:#FFFFFF;stop-opacity:0"/>
		</linearGradient>
		<polygon class="st8" points="280.5,372.9 235.5,345.9 235.5,187.9 280.5,214.9 		"/>
	</g>
	<path class="st0" d="M530.1,385.8H274.9c-0.5,0-0.9-0.4-0.9-0.9v-22.2c0-0.5,0.4-0.9,0.9-0.9h255.2c0.5,0,0.9,0.4,0.9,0.9v22.2
		C531,385.4,530.6,385.8,530.1,385.8z"/>
	<path class="st0" d="M522.6,0H282.4c-2,0-3.6,1.6-3.6,3.6v350.3v4.3v3.6h3.6h240.2h3.6v-3.6v-4.3V3.6C526.2,1.6,524.6,0,522.6,0z"
		/>
	<path class="st1" d="M274,384.9c0,0.5,0.4,0.9,0.9,0.9h255.2c0.5,0,0.9-0.4,0.9-0.9v-5H274V384.9z"/>
	<path class="st2" d="M274,384.9c0,0.5,0.4,0.9,0.9,0.9h255.2c0.5,0,0.9-0.4,0.9-0.9v-0.6l-257-3V384.9z"/>
	<rect x="278.8" y="359.7" class="st1" width="247.4" height="2.1"/>
	<g class="st3">
		<g>
			<path class="st4" d="M513.2,172.9V16.5c0-1.4-1.1-2.5-2.5-2.5H295.3c-1.4,0-2.5,1.1-2.5,2.5v156.4c0,1.4,1.1,2.5,2.5,2.5h215.4
				C512.1,175.4,513.2,174.3,513.2,172.9z"/>
		</g>
	</g>
	<g>
		<g>
			<path class="st5" d="M510.2,170.1V16.3c0-1.3-1-2.3-2.3-2.3H295.2c-1.3,0-2.3,1-2.3,2.3V170c0,1.3,1,2.3,2.3,2.3h212.7
				C509.1,172.4,510.2,171.4,510.2,170.1z"/>
		</g>
	</g>
	<g class="st3">
		<g>
			<path class="st4" d="M513.2,346.9V190.5c0-1.4-1.1-2.5-2.5-2.5H295.3c-1.4,0-2.5,1.1-2.5,2.5v156.4c0,1.4,1.1,2.5,2.5,2.5h215.4
				C512.1,349.4,513.2,348.3,513.2,346.9z"/>
		</g>
	</g>
	<g>
		<g>
			<path class="st5" d="M510.2,344.1V190.3c0-1.3-1-2.3-2.3-2.3H295.2c-1.3,0-2.3,1-2.3,2.3V344c0,1.3,1,2.3,2.3,2.3h212.7
				C509.1,346.4,510.2,345.4,510.2,344.1z"/>
		</g>
	</g>
	<ellipse class="st9" cx="327.9" cy="323.6" rx="17" ry="19.2"/>
	<path class="st1" d="M310.2,325.7c0,0,0.3-20.6,17.7-21.3c0,0-7.7,0.4-7.7,21.3"/>
	<path class="st1" d="M310.2,325.7c0,0,0.3-20.6,17.7-21.3c0,0-13.7,0.4-13.7,21.3"/>
	<path class="st10" d="M353.5,320.2h-17.3c-1,0-1.8-0.8-1.8-1.8v-7.9c0-1,0.8-1.8,1.8-1.8h17.3c1,0,1.8,0.8,1.8,1.8v7.9
		C355.3,319.4,354.5,320.2,353.5,320.2z"/>
	<path class="st4" d="M341.4,361.8h-27c-0.6,0-1.1-0.5-1.1-1.1v-2c0-0.6,0.5-1.1,1.1-1.1h27c0.6,0,1.1,0.5,1.1,1.1v2
		C342.4,361.3,341.9,361.8,341.4,361.8z"/>
	<path class="st4" d="M349.8,325.7L349.8,325.7h-43.9c-8.9,8.9-10.2,22.3-3.6,29s25.5,5.8,25.5,5.8s18.9,0.8,25.5-5.8
		C360,348,358.7,334.6,349.8,325.7L349.8,325.7z"/>
	<path class="st4" d="M349.6,323.6h-43.5c-0.6,0-1,0.5-1,1.1l0,0c0,0.6,0.5,1,1,1h43.5c0.6,0,1-0.5,1-1l0,0
		C350.7,324.1,350.2,323.6,349.6,323.6z"/>
	<g>
		<g>
			<path class="st11" d="M344.8,311.9c0,0.3,0.1,0.6,0.1,0.9c0.1,0.3,0.2,0.6,0.3,0.9c0,0.1,0.2,0.2,0.3,0.2c0.1,0,0.3,0,0.4-0.1
				s0.2-0.2,0.2-0.3v-0.1c0-0.1,0-0.2-0.1-0.3l0,0c0,0,0,0.1,0.1,0.1c-0.1-0.3-0.2-0.7-0.3-1.1v0.1c0-0.1,0-0.3,0-0.4
				c0-0.3-0.2-0.5-0.5-0.5C345.1,311.4,344.8,311.6,344.8,311.9L344.8,311.9z"/>
		</g>
		<g>
			<path class="st11" d="M347.4,311.7c0.1,0.4,0.1,0.9,0.2,1.3c0,0.1,0.1,0.3,0.2,0.3c0.1,0.1,0.3,0.1,0.4,0.1s0.3-0.1,0.3-0.2
				c0,0,0-0.1,0.1-0.1c0-0.1,0-0.2,0-0.3c-0.1-0.4-0.1-0.9-0.2-1.3c0-0.1-0.1-0.3-0.2-0.3c-0.1-0.1-0.3-0.1-0.4-0.1
				s-0.3,0.1-0.3,0.2c0,0,0,0.1-0.1,0.1C347.4,311.5,347.4,311.6,347.4,311.7L347.4,311.7z"/>
		</g>
		<g>
			<path class="st11" d="M344.5,316.5c2.4,1,5.4,0,6.8-2.1c0.4-0.6-0.5-1.1-0.9-0.5c-1.2,1.8-3.7,2.4-5.6,1.6
				c-0.3-0.1-0.6,0.1-0.7,0.4C344,316.1,344.2,316.4,344.5,316.5L344.5,316.5z"/>
		</g>
	</g>
	<rect x="343.5" y="318.1" class="st10" width="2.7" height="8.9"/>
	<g class="st6">
		
			<linearGradient id="SVGID_3_" gradientUnits="userSpaceOnUse" x1="509.5" y1="279.1" x2="593.5" y2="279.1" gradientTransform="matrix(1 0 0 -1 0 396)">
			<stop  offset="0" style="stop-color:#FFFFFF"/>
			<stop  offset="1" style="stop-color:#FFFFFF;stop-opacity:0"/>
		</linearGradient>
		<polygon class="st12" points="593.5,219.9 509.5,171.9 509.5,13.9 593.5,61.9 		"/>
	</g>
	<g class="st6">
		
			<linearGradient id="SVGID_4_" gradientUnits="userSpaceOnUse" x1="509.5" y1="105.1" x2="593.5" y2="105.1" gradientTransform="matrix(1 0 0 -1 0 396)">
			<stop  offset="0" style="stop-color:#FFFFFF"/>
			<stop  offset="1" style="stop-color:#FFFFFF;stop-opacity:0"/>
		</linearGradient>
		<polygon class="st13" points="593.5,393.9 509.5,345.9 509.5,187.9 593.5,235.9 		"/>
	</g>
</g>
</svg>
