<?xml version="1.0" encoding="utf-8"?>
<!-- Generator: Adobe Illustrator 23.1.0, SVG Export Plug-In . SVG Version: 6.00 Build 0)  -->
<svg version="1.1" id="Layer_1" xmlns="http://www.w3.org/2000/svg" xmlns:xlink="http://www.w3.org/1999/xlink" x="0px" y="0px"
	 viewBox="0 0 160.7 72.6" style="enable-background:new 0 0 160.7 72.6;" xml:space="preserve">
<style type="text/css">
	.st0{fill:#C9241E;}
</style>
<path class="st0" d="M18.1,58.4l-2.8,8.4h-2l3.7-10h1.3L18.1,58.4z M20.4,66.8l-2.9-8.4l-0.2-1.5h1.3l3.7,10h-1.9V66.8z M20.3,63.1
	v1.5H15v-1.5H20.3z M27.5,63.8v-6.9h1.9v6.9c0,0.7-0.1,1.2-0.4,1.7c-0.3,0.5-0.7,0.8-1.2,1.1c-0.5,0.3-1.1,0.4-1.7,0.4
	c-0.6,0-1.2-0.1-1.7-0.3c-0.5-0.2-0.9-0.6-1.2-1s-0.4-1-0.4-1.7h1.9c0,0.4,0.1,0.7,0.2,0.9c0.1,0.2,0.3,0.4,0.5,0.5s0.5,0.2,0.8,0.2
	s0.5-0.1,0.7-0.2s0.4-0.3,0.5-0.6C27.4,64.4,27.5,64.1,27.5,63.8z M33.3,56.8v10h-1.9v-10H33.3z M43.3,56.8v10h-1.9l-4.2-6.9v6.9
	h-1.9v-10h1.9l4.2,6.9v-6.9H43.3z M48.7,61.8v1.4h-3.8v-1.4H48.7z M58.3,56.8v10h-1.9l-4.2-6.9v6.9h-1.9v-10h1.9l4.2,6.9v-6.9H58.3z
	 M66.8,65.3v1.5h-5.3v-1.5H66.8z M62.1,56.8v10h-1.9v-10H62.1z M66.2,61v1.4h-4.6V61H66.2z M66.8,56.8v1.5h-5.3v-1.5H66.8z
	 M70.6,64.9l2-8h1.1l0.1,1.7l-2.1,8.3h-1.1V64.9z M69.3,56.8l1.6,8v1.9h-1.2l-2.3-10h1.9V56.8z M75.8,64.8l1.6-8h1.9l-2.3,10h-1.2
	V64.8z M74.2,56.8l2,8.1l0.1,1.9h-1.1l-2.1-8.3l0.1-1.7H74.2z M85.7,64.2c0-0.2,0-0.4-0.1-0.5c-0.1-0.2-0.2-0.3-0.3-0.4
	s-0.4-0.3-0.6-0.4c-0.3-0.1-0.6-0.3-1-0.4c-0.5-0.1-0.9-0.3-1.3-0.5c-0.4-0.2-0.8-0.4-1.1-0.6s-0.5-0.5-0.7-0.8s-0.3-0.7-0.3-1.1
	s0.1-0.8,0.3-1.1c0.2-0.3,0.4-0.6,0.8-0.9c0.3-0.2,0.7-0.4,1.1-0.6c0.4-0.1,0.9-0.2,1.5-0.2c0.7,0,1.4,0.1,1.9,0.4
	c0.5,0.3,1,0.6,1.3,1.1s0.4,1,0.4,1.6h-1.9c0-0.3-0.1-0.6-0.2-0.8c-0.1-0.2-0.3-0.4-0.6-0.6c-0.3-0.1-0.6-0.2-1-0.2s-0.7,0.1-1,0.2
	s-0.4,0.3-0.6,0.5c-0.1,0.2-0.2,0.4-0.2,0.7c0,0.2,0,0.3,0.1,0.5c0.1,0.1,0.2,0.3,0.4,0.4s0.4,0.2,0.6,0.3c0.3,0.1,0.6,0.2,0.9,0.3
	c0.5,0.2,1,0.3,1.4,0.5s0.8,0.4,1,0.7c0.3,0.3,0.5,0.5,0.6,0.9c0.1,0.3,0.2,0.7,0.2,1.1s-0.1,0.8-0.3,1.1c-0.2,0.3-0.4,0.6-0.7,0.9
	c-0.3,0.2-0.7,0.4-1.1,0.5c-0.4,0.1-0.9,0.2-1.5,0.2c-0.5,0-1-0.1-1.4-0.2c-0.5-0.1-0.9-0.3-1.3-0.6c-0.4-0.3-0.7-0.6-0.9-1
	s-0.3-0.9-0.3-1.4h1.9c0,0.3,0.1,0.6,0.2,0.8c0.1,0.2,0.3,0.4,0.4,0.5c0.2,0.1,0.4,0.2,0.7,0.3c0.3,0.1,0.5,0.1,0.8,0.1
	c0.4,0,0.7-0.1,0.9-0.2c0.3-0.1,0.4-0.3,0.6-0.5C85.6,64.7,85.7,64.5,85.7,64.2z"/>
<g>
	<rect x="158.7" class="st0" width="2" height="61.7"/>
</g>
<g>
	<rect x="154.2" class="st0" width="1" height="61.7"/>
</g>
<g>
	<rect x="143.4" class="st0" width="1" height="61.7"/>
</g>
<g>
	<rect x="138.4" class="st0" width="1" height="61.7"/>
</g>
<g>
	<rect x="145.2" class="st0" width="6" height="61.7"/>
</g>
<g>
	<rect x="133" class="st0" width="1" height="61.7"/>
</g>
<g>
	<rect x="135.8" class="st0" width="1" height="61.7"/>
</g>
<g>
	<rect x="101.6" y="-0.2" class="st0" width="4" height="62"/>
</g>
<g>
	<rect x="117.6" y="-0.2" class="st0" width="1" height="62"/>
</g>
<g>
	<rect x="121.6" y="-0.2" class="st0" width="1" height="62"/>
</g>
<g>
	<rect x="128.6" y="-0.2" class="st0" width="1" height="62"/>
</g>
<g>
	<rect x="112.6" y="-0.2" class="st0" width="1" height="62"/>
</g>
<g>
	<rect x="90.9" class="st0" width="1" height="52.2"/>
</g>
<g>
	<rect x="99.6" y="-0.2" class="st0" width="1" height="62"/>
</g>
<g>
	<rect x="95.6" y="-0.2" class="st0" width="1" height="62"/>
</g>
<g>
	<rect x="85.6" class="st0" width="1" height="52.2"/>
</g>
<g>
	<rect x="80.3" class="st0" width="1" height="52.2"/>
</g>
<g>
	<rect x="75.1" class="st0" width="1" height="52.2"/>
</g>
<g>
	<rect x="71.9" class="st0" width="1" height="52.2"/>
</g>
<g>
	<rect x="67.6" class="st0" width="1" height="52.2"/>
</g>
<g>
	<rect x="57.4" class="st0" width="6" height="52.2"/>
</g>
<g>
	<rect x="53.9" class="st0" width="1" height="52.2"/>
</g>
<g>
	<rect x="46.6" class="st0" width="3" height="52.2"/>
</g>
<g>
	<rect x="43.3" class="st0" width="1" height="52.2"/>
</g>
<g>
	<rect x="37" class="st0" width="2" height="52.2"/>
</g>
<g>
	<rect x="31.7" class="st0" width="2" height="52.2"/>
</g>
<g>
	<rect x="27.4" class="st0" width="1" height="52.2"/>
</g>
<g>
	<rect x="22.1" class="st0" width="1" height="52.2"/>
</g>
<g>
	<rect x="24.7" class="st0" width="1" height="52.2"/>
</g>
<g>
	<rect x="17.1" class="st0" width="1" height="52.2"/>
</g>
<g>
	<rect x="14.2" class="st0" width="2" height="52.2"/>
</g>
<g>
	<rect x="9.6" class="st0" width="3" height="52.2"/>
</g>
<g>
	<rect x="123.6" y="-0.2" class="st0" width="3" height="62"/>
</g>
<g>
	<rect x="6.5" class="st0" width="1" height="61.7"/>
</g>
<g>
	<rect x="4.1" class="st0" width="1" height="61.7"/>
</g>
<g>
	<rect class="st0" width="2" height="61.7"/>
</g>
</svg>
