<?xml version="1.0" encoding="utf-8"?>
<!-- Generator: Adobe Illustrator 23.1.0, SVG Export Plug-In . SVG Version: 6.00 Build 0)  -->
<svg version="1.1" id="Layer_1" xmlns="http://www.w3.org/2000/svg" xmlns:xlink="http://www.w3.org/1999/xlink" x="0px" y="0px"
	 viewBox="0 0 1189.9 741.1" style="enable-background:new 0 0 1189.9 741.1;" xml:space="preserve">
<style type="text/css">
	.st0{fill:#FFE8B0;}
	.st1{opacity:0.7;}
	.st2{fill:#E8E8E8;}
	.st3{opacity:0.5;fill:#E8E8E8;}
	.st4{fill:#E5CBC7;}
	.st5{fill:#FFFFFF;}
	.st6{fill:#BAE5AA;}
	.st7{fill:#D18078;}
	.st8{fill:none;stroke:#E5CBC7;stroke-width:2;stroke-linecap:round;stroke-linejoin:round;stroke-miterlimit:10;}
	.st9{fill:#4A4F5B;}
	.st10{fill:#FFD683;}
	.st11{fill:#507574;}
	.st12{fill:url(#SVGID_1_);}
	.st13{fill:url(#SVGID_2_);}
	.st14{fill:#212B54;}
	.st15{fill:#1D2642;}
	.st16{fill:#EFEFEF;}
	.st17{fill:#1A2649;}
	.st18{fill:url(#SVGID_3_);}
	.st19{fill:#AFB6C6;}
	.st20{fill:url(#SVGID_4_);}
	.st21{fill:none;stroke:#D7E8CA;stroke-width:2;stroke-linecap:round;stroke-linejoin:round;stroke-miterlimit:10;}
	.st22{fill:none;stroke:#8DAA79;stroke-width:3;stroke-miterlimit:10;}
	.st23{fill:none;stroke:#E06D68;stroke-width:2;stroke-linecap:round;stroke-linejoin:round;stroke-miterlimit:10;}
	.st24{fill:#8DAA79;}
	.st25{fill:#FFFFFF;stroke:#000000;stroke-miterlimit:10;}
	.st26{fill:url(#SVGID_5_);}
	.st27{fill:url(#SVGID_6_);}
	.st28{fill:url(#SVGID_7_);}
	.st29{fill:url(#SVGID_8_);}
	.st30{fill:#DBB1A2;}
	.st31{fill:#EAC7B9;}
	.st32{opacity:0.5;fill:#DBB1A2;}
	.st33{fill:#DDDDDD;}
	.st34{fill:#3A2F2D;}
	.st35{fill:#423A38;}
	.st36{fill:url(#SVGID_9_);}
	.st37{fill:url(#SVGID_10_);}
	.st38{fill:url(#SVGID_11_);}
	.st39{fill:url(#SVGID_12_);}
	.st40{fill:url(#SVGID_13_);}
	.st41{fill:url(#SVGID_14_);}
	.st42{fill:#5B4C48;}
	.st43{fill:#E8D7AA;}
	.st44{fill:#95B769;}
	.st45{clip-path:url(#SVGID_16_);}
	.st46{fill:#D7E8CA;}
	.st47{fill:#D18078;stroke:#FFFFFF;stroke-width:5;stroke-miterlimit:10;}
	.st48{fill:#E88090;stroke:#FFFFFF;stroke-width:5;stroke-miterlimit:10;}
	.st49{fill:none;stroke:#EFEFEF;stroke-width:5;stroke-miterlimit:10;}
	.st50{fill:#E2CF9F;}
	.st51{fill:#DBC68A;}
	.st52{fill:#969696;}
	.st53{fill:#AFD3A1;}
	.st54{fill:#A8CE99;}
	.st55{fill:#A1BF94;}
	.st56{fill:#E88090;}
	.st57{fill:#FFEEC7;}
	.st58{fill:#FFDA71;}
	.st59{fill:#D1D1D1;}
</style>
<rect x="690.5" y="35.1" class="st0" width="212.4" height="212.4"/>
<g class="st1">
	<path class="st2" d="M637.3,650.2l-52.7,11.2c-2.2,0.5-4.4-0.9-4.8-3.1l-4.1-19.4c-0.5-2.2,0.9-4.4,3.1-4.8l52.7-11.2
		c2.2-0.5,4.4,0.9,4.8,3.1l4.1,19.4C641,647.6,639.5,649.8,637.3,650.2z"/>
	<path class="st2" d="M272.6,721.9c-1.8,0-3.5-1.3-3.9-3.2l-95.3-448c-0.2-1,0-2.1,0.6-3c0.6-0.9,1.5-1.5,2.5-1.7l672.8-143.1
		c0.3-0.1,0.6-0.1,0.8-0.1c1.8,0,3.5,1.3,3.9,3.2l95.3,448c0.5,2.2-0.9,4.3-3.1,4.7L273.5,721.8
		C273.2,721.9,272.9,721.9,272.6,721.9z"/>
</g>
<path class="st3" d="M269.6,104.5c-11.8-55.6-66.5-91-122-79.2C98,35.8,64.5,80.4,66.1,129.3l-33.4,7.1c-9.8,2.1-16,11.7-14,21.5v0
	c2.1,9.8,11.7,16,21.5,14l33.4-7.1c18.4,45.3,67.2,72.3,116.7,61.8C245.9,214.7,281.4,160.1,269.6,104.5z"/>
<g>
	<g>
		<rect x="724.5" y="102.8" class="st4" width="127" height="134.6"/>
	</g>
	<g>
		<rect x="741.3" y="120.7" class="st5" width="93.3" height="99"/>
	</g>
	<g>
		<path class="st5" d="M838.9,116v108.3H737.1V116H838.9 M841.9,113H734.1v114.3h107.8V113L841.9,113z"/>
	</g>
</g>
<g>
	<g>
		
			<rect x="1026.6" y="232.1" transform="matrix(0.4614 -0.8872 0.8872 0.4614 327.0018 1129.729)" class="st4" width="134.6" height="127"/>
	</g>
	<g>
		
			<rect x="1044.4" y="248.9" transform="matrix(0.4614 -0.8872 0.8872 0.4614 327.0018 1129.729)" class="st5" width="99" height="93.3"/>
	</g>
	<g>
		<path class="st5" d="M1073.7,224l90.3,47l-50,96.1l-90.3-47L1073.7,224 M1072.4,220l-52.7,101.4l95.7,49.7l52.7-101.4L1072.4,220
			L1072.4,220z"/>
	</g>
</g>
<g>
	<path class="st6" d="M636,70.3h127.6c6.2,0,11.2,5,11.2,11.2V255c0,6.2-5,11.2-11.2,11.2H636c-6.2,0-11.2-5-11.2-11.2V81.4
		C624.8,75.3,629.8,70.3,636,70.3z"/>
	
		<rect x="636.6" y="114.7" transform="matrix(-1 -1.224647e-16 1.224647e-16 -1 1399.6863 368.1456)" class="st5" width="126.5" height="138.7"/>
</g>
<g>
	<g>
		<path class="st5" d="M657.2,192.8l-1.2,0.5c-7.2,3.3-15.4,5-23.8,5c-5.8,0-11.6-0.8-17.3-2.4c-14.2-4-26.2-12.3-33.8-23.5
			l-0.7-1.1l-21.7-6l16.6-59.5l21.7,6l1.2-0.5c7.2-3.3,15.4-5,23.8-5c5.8,0,11.6,0.8,17.3,2.4c14.2,4,26.2,12.3,33.8,23.5l0.7,1.1
			l21.7,6l-16.6,59.5L657.2,192.8z"/>
		<path class="st7" d="M621.9,109.8c5.5,0,11,0.8,16.4,2.3c13.4,3.7,24.7,11.6,31.9,22.1l1.4,2.1l2.5,0.7l17.1,4.8l-14.7,52.8
			l-17.1-4.8l-2.5-0.7l-2.3,1.1c-6.7,3.1-14.4,4.7-22.3,4.7c-5.5,0-11-0.8-16.4-2.3c-13.4-3.7-24.7-11.6-31.9-22.1l-1.4-2.1
			l-2.5-0.7l-17.1-4.8l14.7-52.8l17.1,4.8l2.5,0.7l2.3-1.1C606.3,111.4,614,109.8,621.9,109.8 M572.9,101.5l-18.5,66.3l23.8,6.6
			c7.7,11.4,20.3,20.6,35.8,24.9c6.2,1.7,12.3,2.5,18.3,2.5c9.1,0,17.7-1.9,25.2-5.3l23.8,6.6l18.5-66.3l-23.8-6.6
			c-7.7-11.4-20.3-20.6-35.8-24.9c-6.2-1.7-12.3-2.5-18.3-2.5c-9.1,0-17.7,1.9-25.2,5.3L572.9,101.5L572.9,101.5z"/>
	</g>
	<path class="st8" d="M617.1,188c-12.3-3.4-22.7-10.6-29.2-20.2c-1.6-2.3-3.9-4-6.6-4.7l-12.5-3.5L581,116l12.5,3.5
		c2.7,0.7,5.6,0.5,8.1-0.6c10.5-4.8,23.1-5.6,35.4-2.2c12.3,3.4,22.7,10.6,29.2,20.2c1.6,2.3,3.9,4,6.6,4.7l12.5,3.5l-12.2,43.6
		l-12.5-3.5c-2.7-0.7-5.6-0.5-8.1,0.6C642,190.7,629.4,191.4,617.1,188z"/>
</g>
<g>
	<path class="st9" d="M1050.5,595.4l-313-53.5c-5.5-0.9-9.1-6.1-8.2-11.6l76.3-447c0.9-5.5,6.1-9.1,11.6-8.2l313,53.5
		c5.5,0.9,9.1,6.1,8.2,11.6l-76.3,447C1061.2,592.7,1056,596.3,1050.5,595.4z"/>
	<g>
		
			<rect x="778.6" y="106.9" transform="matrix(0.9857 0.1683 -0.1683 0.9857 68.9516 -152.6169)" class="st10" width="312.3" height="447"/>
		<g>
			
				<rect x="803.8" y="180.3" transform="matrix(0.9857 0.1683 -0.1683 0.9857 44.423 -158.9762)" class="st11" width="312.3" height="4.5"/>
			
				<rect x="798.1" y="213.8" transform="matrix(0.9857 0.1683 -0.1683 0.9857 49.9909 -157.5326)" class="st11" width="312.3" height="4.5"/>
			
				<rect x="792.4" y="247.4" transform="matrix(0.9857 0.1683 -0.1683 0.9857 55.5588 -156.089)" class="st11" width="312.3" height="4.5"/>
			
				<rect x="786.6" y="281" transform="matrix(0.9857 0.1683 -0.1683 0.9857 61.1267 -154.6454)" class="st11" width="312.3" height="4.5"/>
			
				<rect x="780.9" y="314.5" transform="matrix(0.9857 0.1683 -0.1683 0.9857 66.6945 -153.2017)" class="st11" width="312.3" height="4.5"/>
			
				<rect x="775.2" y="348.1" transform="matrix(0.9857 0.1683 -0.1683 0.9857 72.2625 -151.7581)" class="st11" width="312.3" height="4.5"/>
			
				<rect x="769.4" y="381.7" transform="matrix(0.9857 0.1683 -0.1683 0.9857 77.8303 -150.3145)" class="st11" width="312.3" height="4.5"/>
			
				<rect x="763.7" y="415.2" transform="matrix(0.9857 0.1683 -0.1683 0.9857 83.3982 -148.8709)" class="st11" width="312.3" height="4.5"/>
			
				<rect x="758" y="448.8" transform="matrix(0.9857 0.1683 -0.1683 0.9857 88.9661 -147.4272)" class="st11" width="312.3" height="4.5"/>
			
				<rect x="752.2" y="482.4" transform="matrix(0.9857 0.1683 -0.1683 0.9857 94.534 -145.9837)" class="st11" width="312.3" height="4.5"/>
			
				<rect x="746.5" y="515.9" transform="matrix(0.9857 0.1683 -0.1683 0.9857 100.1019 -144.54)" class="st11" width="312.3" height="4.5"/>
		</g>
	</g>
	<g>
		
			<linearGradient id="SVGID_1_" gradientUnits="userSpaceOnUse" x1="925.9362" y1="141.3367" x2="925.9362" y2="99.0721" gradientTransform="matrix(0.9857 0.1683 -0.1683 0.9857 78.4133 -155.73)">
			<stop  offset="0" style="stop-color:#E6E6E6"/>
			<stop  offset="0.2238" style="stop-color:#ECECEC"/>
			<stop  offset="1" style="stop-color:#FFFFFF"/>
		</linearGradient>
		<polygon class="st12" points="1041,152 893.6,126.8 900.8,85.2 1048.1,110.3 		"/>
		
			<linearGradient id="SVGID_2_" gradientUnits="userSpaceOnUse" x1="925.9365" y1="111.4008" x2="925.9365" y2="99.0721" gradientTransform="matrix(0.9857 0.1683 -0.1683 0.9857 78.4133 -155.73)">
			<stop  offset="0" style="stop-color:#E6E6E6"/>
			<stop  offset="0.2238" style="stop-color:#ECECEC"/>
			<stop  offset="1" style="stop-color:#FFFFFF"/>
		</linearGradient>
		<polygon class="st13" points="1046,122.5 898.7,97.3 900.8,85.2 1048.1,110.3 		"/>
		<g>
			
				<rect x="897.1" y="86.1" transform="matrix(0.9857 0.1683 -0.1683 0.9857 30.947 -150.6711)" class="st14" width="14.2" height="42.3"/>
			
				<rect x="899.6" y="86.3" transform="matrix(0.9857 0.1683 -0.1683 0.9857 28.4995 -151.3057)" class="st15" width="14.2" height="12.3"/>
		</g>
		<g>
			
				<rect x="1030.4" y="108.8" transform="matrix(0.9857 0.1683 -0.1683 0.9857 36.6803 -172.784)" class="st14" width="14.2" height="42.3"/>
			
				<rect x="1032.9" y="109.1" transform="matrix(0.9857 0.1683 -0.1683 0.9857 34.2329 -173.4186)" class="st15" width="14.2" height="12.3"/>
		</g>
	</g>
</g>
<g>
	<path class="st0" d="M973.7,615.8L847.6,596c-6.1-1-10.3-6.7-9.3-12.8l26.9-171.4c1-6.1,6.7-10.3,12.8-9.3l126.1,19.8
		c6.1,1,10.3,6.7,9.3,12.8l-26.9,171.4C985.5,612.5,979.8,616.7,973.7,615.8z"/>
	
		<rect x="865" y="424.1" transform="matrix(0.988 0.1548 -0.1548 0.988 87.5529 -137.7162)" class="st5" width="126.5" height="138.7"/>
</g>
<g class="st1">
	<path class="st2" d="M656.3,627.2l-52.7,11.2c-2.2,0.5-4.4-0.9-4.8-3.1l-4.1-19.4c-0.5-2.2,0.9-4.4,3.1-4.8l52.7-11.2
		c2.2-0.5,4.4,0.9,4.8,3.1l4.1,19.4C660,624.6,658.5,626.8,656.3,627.2z"/>
	<path class="st2" d="M291.6,698.9c-1.8,0-3.5-1.3-3.9-3.2l-95.3-448c-0.2-1,0-2.1,0.6-3c0.6-0.9,1.5-1.5,2.5-1.7L868.3,99.8
		c0.3-0.1,0.6-0.1,0.8-0.1c1.8,0,3.5,1.3,3.9,3.2l95.3,448c0.5,2.2-0.9,4.3-3.1,4.7L292.5,698.8
		C292.2,698.9,291.9,698.9,291.6,698.9z"/>
</g>
<path class="st16" d="M93.9,168.3l-63.7,13.5c-9.8,2.1-19.4-4.2-21.5-14v0c-2.1-9.8,4.2-19.4,14-21.5l63.7-13.5
	c9.8-2.1,19.4,4.2,21.5,14l0,0C110,156.6,103.7,166.2,93.9,168.3z"/>
<g>
	<path class="st17" d="M645.3,643.2l-52.7,11.2c-2.2,0.5-4.4-0.9-4.8-3.1l-4.1-19.4c-0.5-2.2,0.9-4.4,3.1-4.8l52.7-11.2
		c2.2-0.5,4.4,0.9,4.8,3.1l4.1,19.4C649,640.6,647.5,642.8,645.3,643.2z"/>
	<path class="st14" d="M280.6,714.9c-1.8,0-3.5-1.3-3.9-3.2l-95.3-448c-0.2-1,0-2.1,0.6-3c0.6-0.9,1.5-1.5,2.5-1.7l672.8-143.1
		c0.3-0.1,0.6-0.1,0.8-0.1c1.8,0,3.5,1.3,3.9,3.2l95.3,448c0.5,2.2-0.9,4.3-3.1,4.7L281.5,714.8
		C281.2,714.9,280.9,714.9,280.6,714.9z"/>
</g>
<linearGradient id="SVGID_3_" gradientUnits="userSpaceOnUse" x1="245.0696" y1="480.0297" x2="573.3094" y2="416.2264">
	<stop  offset="0" style="stop-color:#FFFFFF"/>
	<stop  offset="1" style="stop-color:#F2F2F2"/>
</linearGradient>
<polygon class="st18" points="614.3,627 294.7,695 204.1,269.3 523.7,201.3 "/>
<path class="st3" d="M1038.7,531c-23.7-21.3-48.6-124.4-51.2-131.4c-2.6-7-8.2-11.7-8.2-11.7L922,352.9c0,0-3.3-2.6-8.8-5.7
	l49.5-31.2c2.3,0.6,5.2,0.1,7.6-1.4l99.8-62.9l-1.8-2.3l12.8-8.1l-2.7-3.4l26.1-16.4c4.5-2.9,5.6-8.4,2.4-12.5c-3.2-4-9.5-5-14-2.1
	l-26.1,16.4l-2.7-3.4L877,337.7c-1.6,0.1-3.2,0.4-4.8,0.7c-24.9,5.4-67.7,8.5-83.2,19.8c-15.5,11.3-28.8,25.6-35.7,29.9
	c0,0,2.4,6.1,10.4,8.4c-0.3,0.2-0.6,0.5-0.9,0.8c-2,1.8-2.9,3.8-3.1,6c-0.6,1.9-0.5,3.9,0.2,6l-7,4.4c-1.9,1.2-3.1,3-3.4,4.9
	l-18.3,11.5c-2.7,1.9-29.2,20.3-27.8,30.2l-5.7,5.9l0.8,1l8.1-2.9c10.1,4.5,38.4-11.6,41.3-13.3l7.5-4.7c1.9,5,7,9.8,21.7,8.5
	c0.1,0,0.2,0,0.2,0c0,0,0,0.1,0,0.1c0.4,4.8,0.5,16.1,21,14.2c1-0.1,1.9-0.2,2.8-0.3c0.4,4.9,2.1,13.5,19.6,11.9
	c1.7-0.2,3.4-0.4,4.9-0.6l12.8,12.9c0,0,41.7,51.4,88.3,62.4c0,0,67.5,96.2,150.5,221.4l133.4-16.5
	C1082.1,601.6,1062.4,552.2,1038.7,531z"/>
<g>
	<path class="st17" d="M634.7,596.3l-10.6,5.9c3.3,6.2,19.4,38.4,14,62.4l6.9-6.2l5.3,8.1C656.1,636.9,638.1,602.5,634.7,596.3z"/>
	<polygon class="st17" points="629.4,599.2 624.1,602.2 624.1,602.2 	"/>
	<polygon class="st17" points="624.1,602.2 624.1,602.2 622.4,603.1 	"/>
	<path class="st19" d="M624.1,602.2l-1.6,0.9L624.1,602.2C624.1,602.2,624.1,602.2,624.1,602.2l-1.6,0.9c6,10.9,19.2,42,13.6,63.3
		l2-1.8C643.5,640.6,627.3,608.4,624.1,602.2z"/>
	<path class="st19" d="M636.4,595.4l-1.8,1c3.4,6.2,21.4,40.6,15.6,70.1l1.6,2.4C659.3,637.1,637.5,597.2,636.4,595.4z"/>
</g>
<linearGradient id="SVGID_4_" gradientUnits="userSpaceOnUse" x1="568.9443" y1="414.1079" x2="888.6408" y2="346.1544">
	<stop  offset="0" style="stop-color:#E6E6E6"/>
	<stop  offset="0.2238" style="stop-color:#ECECEC"/>
	<stop  offset="1" style="stop-color:#FFFFFF"/>
</linearGradient>
<polygon class="st20" points="933.9,559 614.3,627 523.7,201.3 843.3,133.3 "/>
<g>
	<line class="st21" x1="566.3" y1="245" x2="807" y2="191.5"/>
	<line class="st21" x1="570.8" y1="265.5" x2="811.6" y2="211.9"/>
	<line class="st21" x1="575.3" y1="285.9" x2="816.1" y2="232.4"/>
	<line class="st21" x1="579.9" y1="306.3" x2="820.7" y2="252.8"/>
	<line class="st21" x1="584.4" y1="326.8" x2="825.2" y2="273.2"/>
</g>
<g>
	<rect x="615.4" y="269.1" class="st0" width="232.5" height="248.4"/>
	<circle class="st22" cx="668.7" cy="485.3" r="15.7"/>
	<g>
		<g>
			<path class="st23" d="M725.6,349c-0.3,1.8-0.5,3.9,0.8,5.1c1.9,1.8,5.1,0,7.6,0.8"/>
			<path class="st23" d="M731.8,348.4c-1.9,4.7-2.6,9.9-2,15"/>
		</g>
		<g>
			<path class="st23" d="M756.6,348.5c-1.4,2.3-2.7,5.4-1,7.4c0.5,0.7,1.3,1.1,1.9,1.8c1.4,1.6,1.2,4.4-0.5,5.7"/>
			<path class="st23" d="M755.4,349.6c2.9-0.4,5.8-0.8,8.7-1.2"/>
		</g>
		<path class="st23" d="M816,348.4c2.1,0.6,4.1,1.3,6.2,1.9c-0.9,4.5-2.4,8.9-4.3,13.1"/>
		<path class="st23" d="M642.2,348.4c-1.7,4.9-3,9.9-4,15"/>
		<path class="st23" d="M697.2,348.4c1.1,0,2.3,0.4,3.1,1.2c-0.7,0.9-1.4,1.7-2.1,2.6c-0.1,0.2-0.3,0.4-0.3,0.6
			c0,0.5,0.6,0.7,1.1,0.9c2.1,0.7,3.6,2.9,3.4,5.1c-0.2,2.2-2,4.2-4.1,4.6"/>
		<path class="st23" d="M789.9,348.4c-1.2-0.1-1.8,1.3-1.9,2.5c-0.6,4.1-0.7,8.4-0.3,12.5c1.5-1.3,3-2.9,3.4-4.8
			c0.4-2-0.8-4.4-2.8-4.4"/>
		<path class="st23" d="M667.7,349.7c0.9-2.1,4.4-1.7,5.4,0.4c1,2,0.2,4.5-1.3,6.3c-1.4,1.8-3.3,3.1-4.8,4.8
			c-0.2,0.2-0.4,0.5-0.5,0.8c-0.2,0.9,1,1.5,2,1.4c0.9-0.1,1.9-0.5,2.8-0.1"/>
	</g>
	<g>
		<g>
			<path class="st23" d="M720.2,446.8c0.9-2.1,4.4-1.7,5.4,0.4c1,2,0.2,4.5-1.3,6.3c-1.4,1.8-3.3,3.1-4.8,4.8
				c-0.2,0.2-0.4,0.5-0.5,0.8c-0.2,0.9,1,1.5,2,1.4c0.9-0.1,1.9-0.5,2.8-0.1"/>
			<g>
				<path class="st23" d="M732.7,445.6c-1.4,2.3-2.7,5.4-1,7.4c0.5,0.7,1.3,1.1,1.9,1.8c1.4,1.6,1.2,4.4-0.5,5.7"/>
				<path class="st23" d="M731.5,446.7c2.9-0.4,5.8-0.8,8.7-1.2"/>
			</g>
		</g>
		<g>
			<path class="st23" d="M752.8,446.8c0.9-2.1,4.4-1.7,5.4,0.4c1,2,0.2,4.5-1.3,6.3c-1.4,1.8-3.3,3.1-4.8,4.8
				c-0.2,0.2-0.4,0.5-0.5,0.8c-0.2,0.9,1,1.5,2,1.4c0.9-0.1,1.9-0.5,2.8-0.1"/>
			<path class="st23" d="M766,445.5c-1.2-0.1-1.8,1.3-1.9,2.5c-0.6,4.1-0.7,8.4-0.3,12.5c1.5-1.3,3-2.9,3.4-4.8
				c0.4-2-0.8-4.4-2.8-4.4"/>
		</g>
		<g>
			<path class="st23" d="M810.9,446.8c0.9-2.1,4.4-1.7,5.4,0.4c1,2,0.2,4.5-1.3,6.3c-1.4,1.8-3.3,3.1-4.8,4.8
				c-0.2,0.2-0.4,0.5-0.5,0.8c-0.2,0.9,1,1.5,2,1.4c0.9-0.1,1.9-0.5,2.8-0.1"/>
			<path class="st23" d="M823.9,445.5c-1.2,0.6-2.4,1.1-3.3,2.1c-0.9,1-1.3,2.5-0.6,3.6c0.7,1.2,2.2,1.6,3.4,2.1
				c1.4,0.6,2.8,1.5,3.4,2.9c0.6,1.4,0.3,3.3-1.1,4c-1.3,0.7-3.4-0.4-3.2-1.9c0.1-0.6,0.4-1,0.7-1.5c2.1-3.2,3.8-6.6,5.2-10.1"/>
		</g>
		<g>
			<path class="st23" d="M632.8,446.8c0.9-2.1,4.4-1.7,5.4,0.4c1,2,0.2,4.5-1.3,6.3c-1.4,1.8-3.3,3.1-4.8,4.8
				c-0.2,0.2-0.4,0.5-0.5,0.8c-0.2,0.9,1,1.5,2,1.4c0.9-0.1,1.9-0.5,2.8-0.1"/>
			<path class="st23" d="M642.9,446.8c0.9-2.1,4.4-1.7,5.4,0.4c1,2,0.2,4.5-1.3,6.3c-1.4,1.8-3.3,3.1-4.8,4.8
				c-0.2,0.2-0.4,0.5-0.5,0.8c-0.2,0.9,1,1.5,2,1.4c0.9-0.1,1.9-0.5,2.8-0.1"/>
		</g>
		<g>
			<path class="st23" d="M690.8,446.8c0.9-2.1,4.4-1.7,5.4,0.4c1,2,0.2,4.5-1.3,6.3c-1.4,1.8-3.3,3.1-4.8,4.8
				c-0.2,0.2-0.4,0.5-0.5,0.8c-0.2,0.9,1,1.5,2,1.4c0.9-0.1,1.9-0.5,2.8-0.1"/>
			<g>
				<path class="st23" d="M701.6,446.1c-0.3,1.8-0.5,3.9,0.8,5.1c1.9,1.8,5.1,0,7.6,0.8"/>
				<path class="st23" d="M707.9,445.5c-1.9,4.7-2.6,9.9-2,15"/>
			</g>
		</g>
		<g>
			<path class="st23" d="M782.2,446.8c0.9-2.1,4.4-1.7,5.4,0.4c1,2,0.2,4.5-1.3,6.3c-1.4,1.8-3.3,3.1-4.8,4.8
				c-0.2,0.2-0.4,0.5-0.5,0.8c-0.2,0.9,1,1.5,2,1.4c0.9-0.1,1.9-0.5,2.8-0.1"/>
			<path class="st23" d="M791.3,445.5c2.1,0.6,4.1,1.3,6.2,1.9c-0.9,4.5-2.4,8.9-4.3,13.1"/>
		</g>
		<g>
			<path class="st23" d="M662.8,446.8c0.9-2.1,4.4-1.7,5.4,0.4c1,2,0.2,4.5-1.3,6.3c-1.4,1.8-3.3,3.1-4.8,4.8
				c-0.2,0.2-0.4,0.5-0.5,0.8c-0.2,0.9,1,1.5,2,1.4c0.9-0.1,1.9-0.5,2.8-0.1"/>
			<path class="st23" d="M673.2,445.5c1.1,0,2.3,0.4,3.1,1.2c-0.7,0.9-1.4,1.7-2.1,2.6c-0.1,0.2-0.3,0.4-0.3,0.6
				c0,0.5,0.6,0.7,1.1,0.9c2.1,0.7,3.6,2.9,3.4,5.1c-0.2,2.2-2,4.2-4.1,4.6"/>
		</g>
	</g>
	<g>
		<g>
			<path class="st23" d="M727.4,380.7c-1.7,4.9-3,9.9-4,15"/>
			<path class="st23" d="M735.9,380.7c-1.7,4.9-3,9.9-4,15"/>
		</g>
		<g>
			<path class="st23" d="M756,380.7c-1.7,4.9-3,9.9-4,15"/>
			<path class="st23" d="M761.1,382.1c0.9-2.1,4.4-1.7,5.4,0.4c1,2,0.2,4.5-1.3,6.3c-1.4,1.8-3.3,3.1-4.8,4.8
				c-0.2,0.2-0.4,0.5-0.5,0.8c-0.2,0.9,1,1.5,2,1.4c0.9-0.1,1.9-0.5,2.8-0.1"/>
		</g>
		<g>
			<path class="st23" d="M814,380.7c-1.7,4.9-3,9.9-4,15"/>
			<g>
				<path class="st23" d="M819.8,381.3c-0.3,1.8-0.5,3.9,0.8,5.1c1.9,1.8,5.1,0,7.6,0.8"/>
				<path class="st23" d="M826,380.7c-1.9,4.7-2.6,9.9-2,15"/>
			</g>
		</g>
		<path class="st23" d="M640.1,380.7c-1.2,0.6-2.4,1.1-3.3,2.1c-0.9,1-1.3,2.5-0.6,3.6c0.7,1.2,2.2,1.6,3.4,2.1
			c1.4,0.6,2.8,1.5,3.4,2.9c0.6,1.4,0.3,3.3-1.1,4c-1.3,0.7-3.4-0.4-3.2-1.9c0.1-0.6,0.4-1,0.7-1.5c2.1-3.2,3.8-6.6,5.2-10.1"/>
		<g>
			<path class="st23" d="M695.7,380.7c-1.7,4.9-3,9.9-4,15"/>
			<path class="st23" d="M705.2,382.9c5,3.1,3,13.3-3.7,11C695.3,391.7,699.1,379.1,705.2,382.9z"/>
		</g>
		<g>
			<path class="st23" d="M785.9,380.7c-1.7,4.9-3,9.9-4,15"/>
			<path class="st23" d="M791.5,380.7c1.1,0,2.3,0.4,3.1,1.2c-0.7,0.9-1.4,1.7-2.1,2.6c-0.1,0.2-0.3,0.4-0.3,0.6
				c0,0.5,0.6,0.7,1.1,0.9c2.1,0.7,3.6,2.9,3.4,5.1c-0.2,2.2-2,4.2-4.1,4.6"/>
		</g>
		<path class="st23" d="M672.8,386.5c-1.8,0.6-4,0.2-5.1-1.4s-0.2-4.2,1.7-4.4c1.2-0.1,2.2,0.7,2.8,1.7c0.5,1,0.7,2.2,0.7,3.4
			c0.1,3.3-0.3,6.7-1.2,9.9"/>
	</g>
	<g>
		<g>
			<path class="st23" d="M725.6,413.1c-1.7,4.9-3,9.9-4,15"/>
			<path class="st23" d="M733.2,413.1c-1.2,0.6-2.4,1.1-3.3,2.1c-0.9,1-1.3,2.5-0.6,3.6c0.7,1.2,2.2,1.6,3.4,2.1
				c1.4,0.6,2.8,1.5,3.4,2.9c0.6,1.4,0.3,3.3-1.1,4c-1.3,0.7-3.4-0.4-3.2-1.9c0.1-0.6,0.4-1,0.7-1.5c2.1-3.2,3.8-6.6,5.2-10.1"/>
		</g>
		<g>
			<path class="st23" d="M756.6,413.1c-1.7,4.9-3,9.9-4,15"/>
			<path class="st23" d="M766.3,418.9c-1.8,0.6-4,0.2-5.1-1.4s-0.2-4.2,1.7-4.4c1.2-0.1,2.2,0.7,2.8,1.7c0.5,1,0.7,2.2,0.7,3.4
				c0.1,3.3-0.3,6.7-1.2,9.9"/>
		</g>
		<g>
			<path class="st23" d="M826.4,413.1c-1.7,4.9-3,9.9-4,15"/>
			<path class="st23" d="M812.9,414.5c0.9-2.1,4.4-1.7,5.4,0.4c1,2,0.2,4.5-1.3,6.3c-1.4,1.8-3.3,3.1-4.8,4.8
				c-0.2,0.2-0.4,0.5-0.5,0.8c-0.2,0.9,1,1.5,2,1.4c0.9-0.1,1.9-0.5,2.8-0.1"/>
		</g>
		<g>
			<path class="st23" d="M635.5,413.1c-1.7,4.9-3,9.9-4,15"/>
			<g>
				<path class="st23" d="M641.4,413.2c-1.4,2.3-2.7,5.4-1,7.4c0.5,0.7,1.3,1.1,1.9,1.8c1.4,1.6,1.2,4.4-0.5,5.7"/>
				<path class="st23" d="M640.2,414.3c2.9-0.4,5.8-0.8,8.7-1.2"/>
			</g>
		</g>
		<g>
			<path class="st23" d="M696.3,413.1c-1.7,4.9-3,9.9-4,15"/>
			<path class="st23" d="M701.3,413.1c2.1,0.6,4.1,1.3,6.2,1.9c-0.9,4.5-2.4,8.9-4.3,13.1"/>
		</g>
		<g>
			<path class="st23" d="M780.1,414.5c0.9-2.1,4.4-1.7,5.4,0.4c1,2,0.2,4.5-1.3,6.3c-1.4,1.8-3.3,3.1-4.8,4.8
				c-0.2,0.2-0.4,0.5-0.5,0.8c-0.2,0.9,1,1.5,2,1.4c0.9-0.1,1.9-0.5,2.8-0.1"/>
			<path class="st23" d="M796.8,415.3c5,3.1,3,13.3-3.7,11C786.9,424.1,790.7,411.5,796.8,415.3z"/>
		</g>
		<g>
			<path class="st23" d="M674.8,413.1c-1.2-0.1-1.8,1.3-1.9,2.5c-0.6,4.1-0.7,8.4-0.3,12.5c1.5-1.3,3-2.9,3.4-4.8
				c0.4-2-0.8-4.4-2.8-4.4"/>
			<path class="st23" d="M668,413.1c-1.7,4.9-3,9.9-4,15"/>
		</g>
	</g>
	<g>
		<g>
			<path class="st23" d="M632.8,479.2c0.9-2.1,4.4-1.7,5.4,0.4c1,2,0.2,4.5-1.3,6.3c-1.4,1.8-3.3,3.1-4.8,4.8
				c-0.2,0.2-0.4,0.5-0.5,0.8c-0.2,0.9,1,1.5,2,1.4c0.9-0.1,1.9-0.5,2.8-0.1"/>
			<path class="st23" d="M648.7,483.6c-1.8,0.6-4,0.2-5.1-1.4s-0.2-4.2,1.7-4.4c1.2-0.1,2.2,0.7,2.8,1.7c0.5,1,0.7,2.2,0.7,3.4
				c0.1,3.3-0.3,6.7-1.2,9.9"/>
		</g>
		<g>
			<path class="st23" d="M660.7,477.8c1.1,0,2.3,0.4,3.1,1.2c-0.7,0.9-1.4,1.7-2.1,2.6c-0.1,0.2-0.3,0.4-0.3,0.6
				c0,0.5,0.6,0.7,1.1,0.9c2.1,0.7,3.6,2.9,3.4,5.1c-0.2,2.2-2,4.2-4.1,4.6"/>
			<path class="st23" d="M676.6,480.1c5,3.1,3,13.3-3.7,11C666.7,488.8,670.5,476.2,676.6,480.1z"/>
		</g>
		<g>
			<path class="st23" d="M692.3,477.8c1.1,0,2.3,0.4,3.1,1.2c-0.7,0.9-1.4,1.7-2.1,2.6c-0.1,0.2-0.3,0.4-0.3,0.6
				c0,0.5,0.6,0.7,1.1,0.9c2.1,0.7,3.6,2.9,3.4,5.1c-0.2,2.2-2,4.2-4.1,4.6"/>
			<path class="st23" d="M706.6,477.8c-1.7,4.9-3,9.9-4,15"/>
		</g>
	</g>
	<g>
		<g>
			<path class="st24" d="M675.8,298.6c-1.5,2.9-3.1,5.8-4.6,8.7c-0.7,1.3,0.7,2.9,2.1,2.1c3.6-2.3,7.1-4.6,10.7-6.9
				c1.3-0.8,3.3-2.1,4.9-1.5c0.8,0.3,1.9,1.6,1.1,2.4c-1.2,1.2,0.3,3.2,1.8,2.4c4.1-2.2,8.1-4.4,12.2-6.6c1-0.6,6.9-4,6.1-0.4
				c-0.5,2.3-2.5,4.7-1.1,7c2.2,3.6,7.1,0.4,9.8-0.6c4.6-1.6,9.4-2.7,14.2-3.1c-0.3-0.9-0.5-1.9-0.8-2.8c-2.9,2-4,6-2.1,9.1
				c0.4,0.6,1,0.8,1.7,0.7c4.6-0.9,8.7-3.7,11.1-7.7c-0.7,0.2-1.4,0.4-2.1,0.5c7.1,3.7,16.3,2.3,21.9-3.5c-0.8-0.1-1.6-0.2-2.4-0.3
				c3.7,5,11.9,4.8,15.2-0.6c-0.9-0.1-1.8-0.2-2.7-0.4c1,5.6,2.1,11.7,0.6,17.3c-1.2,4.3-4,8.4-8.3,9.8c0.6,0.5,1.3,1,1.9,1.4
				c-0.2-6.3,3.2-12.4,8.7-15.5c2.5-1.4,5.3-2.2,8.1-1.8c2.6,0.3,5.2,1.6,5.9,4.3c0.5,1.9,3.4,1.1,2.9-0.8c-0.9-3.3-3.8-5.5-7-6.2
				c-3.6-0.8-7.2-0.2-10.4,1.5c-6.8,3.4-11.3,11-11.1,18.6c0,0.9,0.9,1.8,1.9,1.4c5.1-1.7,8.6-6.2,10.2-11.2
				c2-6.4,0.8-13.2-0.4-19.6c-0.2-1.3-2.1-1.4-2.7-0.4c-2,3.3-7.7,3.7-10.1,0.6c-0.6-0.7-1.6-1.1-2.4-0.3c-4.6,4.8-12.3,6.2-18.3,3
				c-0.7-0.4-1.6-0.2-2.1,0.5c-2.1,3.4-5.5,5.6-9.4,6.3c0.6,0.2,1.1,0.5,1.7,0.7c-1-1.6-0.5-3.9,1.1-5c1.1-0.8,0.8-2.9-0.8-2.8
				c-4.3,0.4-8.6,1.2-12.8,2.5c-2.1,0.7-4.1,1.5-6.2,2.3c-0.7,0.3-2.7,1.1-2.5-0.3c0.1-1.2,0.9-2.4,1.3-3.6c0.4-1.3,0.6-2.7-0.1-3.9
				c-1.7-3.2-5.8-2-8.3-0.6c-4.7,2.5-9.4,5.1-14.1,7.6c0.6,0.8,1.2,1.6,1.8,2.4c1.4-1.5,1.4-3.6,0.3-5.2c-1.3-2-3.5-2.7-5.8-2.2
				c-2.7,0.5-5,2.4-7.2,3.8c-2.6,1.7-5.2,3.3-7.8,5c0.7,0.7,1.4,1.4,2.1,2.1c1.5-2.9,3.1-5.8,4.6-8.7
				C679.3,298.4,676.7,296.9,675.8,298.6L675.8,298.6z"/>
		</g>
	</g>
</g>
<g>
	<line class="st21" x1="298" y1="564" x2="538.7" y2="510.5"/>
	<line class="st21" x1="302.5" y1="584.4" x2="543.3" y2="530.9"/>
	<line class="st21" x1="307" y1="604.8" x2="547.8" y2="551.3"/>
	<line class="st21" x1="311.6" y1="625.3" x2="552.3" y2="571.8"/>
	<line class="st21" x1="316.1" y1="645.7" x2="556.9" y2="592.2"/>
</g>
<path class="st3" d="M968.4,506.6c-18.1-23.1-46.4-86-48.1-93.4c-1.7-7.4-6-12.5-6-12.5l-44.7-39c0,0-2.6-2.9-6.8-6.4l42.1-30.2
	c1.8,0.7,4.2,0.4,6.3-1.1l84.9-61l-1.3-2.4l10.9-7.8l-2-3.7l22.2-15.9c3.9-2.8,5-8.5,2.6-12.9c-2.4-4.3-7.5-5.6-11.3-2.8l-22.2,15.9
	l-2-3.7l-159,114.2c-1.3,0.1-2.6,0.3-4,0.6c-20.6,4.5-55.6,5.8-68.9,16.9c-13.3,11-24.9,25.4-30.8,29.5c0,0,1.6,6.4,8,9.2
	c-0.3,0.2-0.5,0.5-0.8,0.8c-1.7,1.8-2.6,3.8-2.9,6.1c-0.6,2-0.6,4.1-0.2,6.2l-6,4.3c-1.6,1.2-2.7,2.9-3.1,4.9l-15.5,11.2
	c-2.3,1.8-24.9,19.8-24.3,30.2l-5,5.9l0.6,1.1l6.8-2.6c8,5.1,32-10.4,34.4-12l6.3-4.6c1.3,5.2,5.1,10.5,17.2,9.8c0.1,0,0.1,0,0.2,0
	c0,0,0,0.1,0,0.1c0,5-0.5,16.7,16.3,15.7c0.8,0,1.5-0.1,2.3-0.2c0.1,5.2,1,14.1,15.3,13.2c1.4-0.1,2.8-0.2,4.1-0.4l9.7,14
	c0,0,46.1,52.3,83.5,65.8c0,0,73.3,105.9,133.8,239.8l156.6-22.5C1049.7,605.6,986.6,529.7,968.4,506.6z"/>
<rect x="1536.2" y="536.3" transform="matrix(0.7521 -0.6591 0.6591 0.7521 21.7464 1182.104)" class="st25" width="91.9" height="51.7"/>
<rect x="1484.6" y="526.3" transform="matrix(0.7521 -0.6591 0.6591 0.7521 15.5579 1145.6284)" class="st25" width="91.9" height="51.7"/>
<rect x="1463.8" y="375.2" transform="matrix(0.8724 -0.4889 0.4889 0.8724 0.1026 802.3629)" class="st25" width="145.6" height="51.7"/>
<rect x="1428.6" y="413.6" transform="matrix(0.7521 -0.6591 0.6591 0.7521 75.9603 1080.809)" class="st25" width="91.9" height="51.7"/>
<rect x="1444.1" y="504.4" transform="matrix(0.7521 -0.6591 0.6591 0.7521 19.9689 1113.5282)" class="st25" width="91.9" height="51.7"/>
<rect x="1572.3" y="365.9" transform="matrix(0.9481 0.318 -0.318 0.9481 211.3798 -502.4888)" class="st25" width="145.6" height="60.9"/>
<rect x="1454.4" y="472.8" transform="matrix(0.8838 0.4679 -0.4679 0.8838 411.0944 -638.1544)" class="st25" width="71.3" height="71.3"/>
<rect x="1485" y="502.1" transform="matrix(0.8838 0.4679 -0.4679 0.8838 431.235 -660.6409)" class="st25" width="120.8" height="71.3"/>
<g>
	
		<linearGradient id="SVGID_5_" gradientUnits="userSpaceOnUse" x1="1590.0646" y1="703.7276" x2="1768.2472" y2="703.7276" gradientTransform="matrix(0.9938 0.1112 -0.1112 0.9938 54.6173 -96.7171)">
		<stop  offset="0" style="stop-color:#EAC7B9"/>
		<stop  offset="1" style="stop-color:#DBB1A2"/>
	</linearGradient>
	<polygon class="st26" points="1726.2,866 1549.1,846.2 1564,712.8 1741.1,732.6 	"/>
	<g>
		
			<linearGradient id="SVGID_6_" gradientUnits="userSpaceOnUse" x1="1611.8301" y1="809.7723" x2="1675.1184" y2="809.7723" gradientTransform="matrix(0.9938 0.1112 -0.1112 0.9938 54.6173 -96.7171)">
			<stop  offset="0" style="stop-color:#EAC7B9"/>
			<stop  offset="1" style="stop-color:#DBB1A2"/>
		</linearGradient>
		<path class="st27" d="M1589.9,870.2c0,0-25.7,18.2-24.2,24.9c1.6,6.7,4.3,22.7,29.7,15.8s34.1-18.6,34.1-18.6
			S1616.8,858.6,1589.9,870.2z"/>
		
			<linearGradient id="SVGID_7_" gradientUnits="userSpaceOnUse" x1="1575.615" y1="799.488" x2="1643.1315" y2="799.488" gradientTransform="matrix(0.9938 0.1112 -0.1112 0.9938 54.6173 -96.7171)">
			<stop  offset="0" style="stop-color:#EAC7B9"/>
			<stop  offset="1" style="stop-color:#DBB1A2"/>
		</linearGradient>
		<path class="st28" d="M1556.6,854.8c0,0-27.5,19.4-25.8,26.6c1.7,7.1,4.5,24.2,31.7,16.9c27.2-7.3,36.4-19.9,36.4-19.9
			S1585.3,842.5,1556.6,854.8z"/>
		
			<linearGradient id="SVGID_8_" gradientUnits="userSpaceOnUse" x1="1538.725" y1="784.128" x2="1612.5033" y2="784.128" gradientTransform="matrix(0.9938 0.1112 -0.1112 0.9938 54.6173 -96.7171)">
			<stop  offset="0" style="stop-color:#EAC7B9"/>
			<stop  offset="1" style="stop-color:#DBB1A2"/>
		</linearGradient>
		<path class="st29" d="M1524,833.7c0,0-30,21.2-28.2,29c1.8,7.8,5,26.5,34.7,18.5c29.7-8,39.7-21.7,39.7-21.7
			S1555.3,820.3,1524,833.7z"/>
	</g>
	<path class="st30" d="M1552.9,801.9l-29.7-12.3c0,0-15.9-3.7-26.1,10.9c-10.2,14.5,10.3,29.7,23.4,41
		C1533.6,852.7,1557.4,817,1552.9,801.9z"/>
	<path class="st31" d="M1622.3,925.7c0,0,68.7,68.7,134.1,75.2c0,0,114.4,130.8,256.7,302.3l175.4-54
		c-211.7-212.4-250.3-282.8-287.5-309.8c-37.1-27-95.9-177.7-101.1-187.7c-5.2-10-13.9-15.8-13.9-15.8l-85.7-40.6
		c0,0-38.4-24.6-70.5-11c-32.1,13.6-88.9,27.6-107.1,48.1c-18.1,20.4-32.4,45.1-40.7,53.1c0,0,9.1,16.8,32.1,8.3
		c23-8.5,43.5-36,43.5-36s63-10,89.7-16.4c0,0,36.3,14.1,62.5,39.3c14.1,13.5,17.7,25.2,7.6,39.7c-10,14.5-35.7,35-84.8,26.4
		c0,0-56.4-33.7-80-44.8s-53.3,22.4-29.6,42.2c23.7,19.7,23.7,19.7,23.7,19.7l0,0L1622.3,925.7z"/>
	<path class="st32" d="M1534.4,778.4c0,0,11.9-11.8,17.8-27.7l45.8-6.4l-38.2,27.4L1534.4,778.4z"/>
	<g>
		<path class="st33" d="M1853.9,495.9L1853.9,495.9c-5.3-5.4-5.3-14.1,0.1-19.4l40.1-39.5c5.4-5.3,14.1-5.3,19.4,0.1l0,0
			c5.3,5.4,5.3,14.1-0.1,19.4l-40.1,39.5C1867.9,501.4,1859.3,501.3,1853.9,495.9z"/>
		
			<rect x="1680.6" y="405.3" transform="matrix(0.7018 0.7124 -0.7124 0.7018 967.8902 -1018.7307)" class="st16" width="40.4" height="482.9"/>
		<g>
			<polygon class="st33" points="1427.8,917.1 1446.6,905.9 1450.5,893.4 1438,897.1 1426.4,915.8 			"/>
			<path class="st34" d="M1434.6,909c11.9,12.1,51.8-23.7,55.6-27.2l39.9-39.3l-27.6-28.1l-39.9,39.3
				C1459.1,857.5,1422.8,897,1434.6,909z"/>
		</g>
		<path class="st35" d="M1506.6,859.8l-21.7-22c-3-3-2.9-7.8,0.1-10.8l123.5-121.7c3-3,7.8-2.9,10.8,0.1l21.7,22
			c3,3,2.9,7.8-0.1,10.8l-123.5,121.7C1514.4,862.8,1509.6,862.8,1506.6,859.8z"/>
		
			<rect x="1829.7" y="487.7" transform="matrix(0.7018 0.7124 -0.7124 0.7018 920.8505 -1153.3248)" class="st34" width="16.7" height="71.2"/>
		<g>
			
				<rect x="1590.6" y="722.6" transform="matrix(0.7018 0.7124 -0.7124 0.7018 994.8554 -922.9849)" class="st34" width="18.6" height="8.6"/>
			
				<rect x="1572" y="741" transform="matrix(0.7018 0.7124 -0.7124 0.7018 1002.392 -904.2166)" class="st34" width="18.6" height="8.6"/>
			
				<rect x="1553.3" y="759.3" transform="matrix(0.7018 0.7124 -0.7124 0.7018 1009.9099 -885.4418)" class="st34" width="18.6" height="8.6"/>
			
				<rect x="1534.7" y="777.7" transform="matrix(0.7018 0.7124 -0.7124 0.7018 1017.4465 -866.6734)" class="st34" width="18.6" height="8.6"/>
			
				<rect x="1516" y="796.1" transform="matrix(0.7018 0.7124 -0.7124 0.7018 1024.9707 -847.901)" class="st34" width="18.6" height="8.6"/>
			
				<rect x="1497.4" y="814.5" transform="matrix(0.7018 0.7124 -0.7124 0.7018 1032.5012 -829.1306)" class="st34" width="18.6" height="8.6"/>
		</g>
		<path class="st35" d="M1861.9,496.7l-118.7,117c-4.5,4.4-5.3,11-1.8,14.6c3.5,3.6,10.1,2.9,14.6-1.5l118.7-117L1861.9,496.7z"/>
	</g>
	<path class="st30" d="M1552.9,801.9l-29.7-12.3c0,0-15.8-6.8-26,7.7c-10.2,14.5,10.3,32.9,23.4,44.2
		C1533.6,852.7,1557.4,817,1552.9,801.9z"/>
	<path class="st31" d="M1901.1,939.4c-37.1-27-95.9-177.7-101.1-187.7c-5.2-10-13.9-15.8-13.9-15.8l-83.2,24.4l-40.7-12.1
		c0,0,15.8,18.2,28.4,35.4c0,0,0,0,0,0v0c0,0,0.1,0.1,0.1,0.1c4.1,5.7,7.9,11.2,10.7,16c0,0.1,2.6,20.8-17.6,30
		c-38.3,13.8-72.6,3.2-90.7-6.1c-14.8-8.4-30.4-17-40.3-21.7c-23.6-11.1-53.3,22.4-29.6,42.2c23.7,19.7,23.7,19.7,23.7,19.7
		l75.4,61.9c0,0,68.7,68.7,134.1,75.2c0,0,114.4,130.8,256.7,302.3l175.4-54C1976.8,1036.9,1938.2,966.4,1901.1,939.4z"/>
</g>
<g>
	
		<linearGradient id="SVGID_9_" gradientUnits="userSpaceOnUse" x1="758.0165" y1="435.1445" x2="875.9254" y2="435.1445" gradientTransform="matrix(0.9632 0.2688 -0.2688 0.9632 163.8332 -226.4801)">
		<stop  offset="0" style="stop-color:#EAC7B9"/>
		<stop  offset="1" style="stop-color:#DBB1A2"/>
	</linearGradient>
	<polygon class="st36" points="878.6,470.9 765,439.2 788.9,353.6 902.5,385.3 	"/>
	<g>
		
			<linearGradient id="SVGID_10_" gradientUnits="userSpaceOnUse" x1="772.4131" y1="505.3145" x2="814.2931" y2="505.3145" gradientTransform="matrix(0.9632 0.2688 -0.2688 0.9632 163.8332 -226.4801)">
			<stop  offset="0" style="stop-color:#EAC7B9"/>
			<stop  offset="1" style="stop-color:#DBB1A2"/>
		</linearGradient>
		<path class="st37" d="M789.1,459.2c0,0-18.7,9.2-18.4,13.7c0.3,4.5,0.4,15.3,17.8,13.5c17.4-1.8,24.2-8.5,24.2-8.5
			S807.9,454.5,789.1,459.2z"/>
		
			<linearGradient id="SVGID_11_" gradientUnits="userSpaceOnUse" x1="748.4492" y1="498.5071" x2="793.1272" y2="498.5071" gradientTransform="matrix(0.9632 0.2688 -0.2688 0.9632 163.8332 -226.4801)">
			<stop  offset="0" style="stop-color:#EAC7B9"/>
			<stop  offset="1" style="stop-color:#DBB1A2"/>
		</linearGradient>
		<path class="st38" d="M769,445.6c0,0-20,9.8-19.7,14.6c0.3,4.8,0.4,16.3,18.9,14.4c18.5-1.9,25.9-9.1,25.9-9.1
			S789.1,440.6,769,445.6z"/>
		
			<linearGradient id="SVGID_12_" gradientUnits="userSpaceOnUse" x1="724.0391" y1="488.341" x2="772.8607" y2="488.341" gradientTransform="matrix(0.9632 0.2688 -0.2688 0.9632 163.8332 -226.4801)">
			<stop  offset="0" style="stop-color:#EAC7B9"/>
			<stop  offset="1" style="stop-color:#DBB1A2"/>
		</linearGradient>
		<path class="st39" d="M749.9,428.4c0,0-21.9,10.7-21.5,16s0.4,17.8,20.7,15.7c20.3-2.1,28.3-10,28.3-10S771.9,422.9,749.9,428.4z"
			/>
	</g>
	<path class="st30" d="M772.2,410.6l-18.1-11.2c0,0-10-4.1-18.2,4.3c-8.2,8.4,3.6,20.5,11,29.3C754.2,441.8,773.6,421,772.2,410.6z"
		/>
	<path class="st31" d="M804.4,498.9c0,0,37.6,52.2,79.6,63.3c0,0,60.9,97.6,135.6,224.7l120.3-16.7
		C1024.2,609.1,1006.5,559,985.1,537.4c-21.4-21.6-43.8-126.2-46.1-133.3c-2.3-7.1-7.4-11.8-7.4-11.8l-51.7-35.6
		c0,0-22.5-20.1-44.9-14.7s-61,8.6-75,20c-14,11.4-26,26-32.2,30.4c0,0,4.2,11.9,20.1,8.8c15.9-3.1,32.2-18.9,32.2-18.9
		s42.2,0.2,60.3-1.2c0,0,22.2,13.1,36.7,32.3c7.8,10.3,8.9,18.3,0.8,26.7c-8.1,8.4-27.1,19.1-58.2,8.2c0,0-33.3-28-47.5-37.7
		c-14.2-9.8-37.2,9-23.8,24.4c13.4,15.4,13.4,15.4,13.4,15.4l0,0L804.4,498.9z"/>
	<path class="st32" d="M762.6,393.3c0,0,9-6.4,14.5-16.2l30.6,0.7l-27.8,13.8L762.6,393.3z"/>
	<g>
		<path class="st33" d="M1001.3,242.7L1001.3,242.7c-2.9-4.1-1.9-9.8,2.1-12.7l30.4-21.6c4.1-2.9,9.8-1.9,12.7,2.1l0,0
			c2.9,4.1,1.9,9.8-2.1,12.7l-30.4,21.6C1009.8,247.8,1004.2,246.8,1001.3,242.7z"/>
		
			<rect x="871.9" y="165.3" transform="matrix(0.5787 0.8155 -0.8155 0.5787 638.0226 -585.0416)" class="st16" width="26.7" height="319.5"/>
		<g>
			<polygon class="st33" points="678.3,472.7 691.8,467.3 695.6,459.6 687.1,460.7 677.5,471.7 			"/>
			<path class="st34" d="M683.6,468.1c6.5,9.1,36.4-10,39.2-11.8l30.3-21.5L738,413.5L707.8,435C705.1,437.1,677.1,459,683.6,468.1z
				"/>
		</g>
		<path class="st35" d="M734.4,441.5l-8.8-12.5c-2.4-3.4-1.6-8.2,1.8-10.6l89.4-63.4c3.4-2.4,8.2-1.6,10.6,1.8l8.8,12.5
			c2.4,3.4,1.6,8.2-1.8,10.6L745,443.3C741.5,445.7,736.8,444.9,734.4,441.5z"/>
		
			<rect x="982.5" y="235.3" transform="matrix(0.5787 0.8155 -0.8155 0.5787 627.3917 -696.6834)" class="st34" width="11.1" height="47.1"/>
		<g>
			
				<rect x="804.7" y="363.8" transform="matrix(0.5787 0.8155 -0.8155 0.5787 640.6277 -506.8459)" class="st34" width="12.3" height="5.7"/>
			
				<rect x="790.6" y="373.8" transform="matrix(0.5787 0.8155 -0.8155 0.5787 642.8531 -491.0944)" class="st34" width="12.3" height="5.7"/>
			
				<rect x="776.5" y="383.9" transform="matrix(0.5787 0.8155 -0.8155 0.5787 645.0722 -475.3419)" class="st34" width="12.3" height="5.7"/>
			
				<rect x="762.3" y="393.9" transform="matrix(0.5787 0.8155 -0.8155 0.5787 647.2971 -459.5905)" class="st34" width="12.3" height="5.7"/>
			
				<rect x="748.2" y="403.9" transform="matrix(0.5787 0.8155 -0.8155 0.5787 649.5276 -443.8398)" class="st34" width="12.3" height="5.7"/>
			
				<rect x="734.1" y="414" transform="matrix(0.5787 0.8155 -0.8155 0.5787 651.7469 -428.0877)" class="st34" width="12.3" height="5.7"/>
		</g>
		<path class="st35" d="M1006.4,244.1l-90,63.8c-3.4,2.4-4.6,6.6-2.7,9.3c1.9,2.7,6.3,3,9.7,0.5l90-63.8L1006.4,244.1z"/>
	</g>
	<path class="st30" d="M772.2,410.6l-18.1-11.2c0,0-9.6-6.1-17.8,2.3c-8.2,8.4,3.2,22.6,10.6,31.3
		C754.2,441.8,773.6,421,772.2,410.6z"/>
	<linearGradient id="SVGID_13_" gradientUnits="userSpaceOnUse" x1="942.1763" y1="786.9142" x2="942.1763" y2="387.1062">
		<stop  offset="0" style="stop-color:#DBB1A2"/>
		<stop  offset="1" style="stop-color:#EAC7B9"/>
	</linearGradient>
	<path class="st40" d="M985.1,537.4c-21.4-21.6-43.8-126.2-46.1-133.3c-2.3-7.1-7.4-11.8-7.4-11.8l-56.9,7.1l-25.3-12.2
		c0,0,8.4,13.6,14.8,26.1c0,0,0,0,0,0l0,0c0,0,0,0.1,0,0.1c2.1,4.1,4,8.2,5.3,11.6c0,0-0.5,13.9-14.7,17.7
		c-26.5,4.9-47.8-5.6-58.6-13.6c-8.8-7.1-18.1-14.4-24-18.4c-14.2-9.8-37.2,9-23.8,24.4c13.4,15.4,13.4,15.4,13.4,15.4l42.7,48.4
		c0,0,37.6,52.2,79.6,63.3c0,0,60.9,97.6,135.6,224.7l120.3-16.7C1024.2,609.1,1006.5,559,985.1,537.4z"/>
</g>
<ellipse transform="matrix(0.7071 -0.7071 0.7071 0.7071 -49.5553 152.2159)" class="st33" cx="159" cy="135.9" rx="102.9" ry="102.9"/>
<radialGradient id="SVGID_14_" cx="158.9632" cy="135.9265" r="79.1071" gradientUnits="userSpaceOnUse">
	<stop  offset="0" style="stop-color:#352A27"/>
	<stop  offset="0.3111" style="stop-color:#3A2E2B"/>
	<stop  offset="0.6764" style="stop-color:#483B38"/>
	<stop  offset="1" style="stop-color:#5B4C48"/>
</radialGradient>
<circle class="st41" cx="159" cy="135.9" r="79.1"/>
<ellipse transform="matrix(0.1092 -0.994 0.994 0.1092 -307.0695 -100.6699)" class="st42" cx="-209.7" cy="121" rx="79.1" ry="79.1"/>
<path class="st43" d="M95,160c5.3,18.2,37.2,41.2,62.5,42.4c7,0.4,22.1,1,29.9-2.3c-12.7,5.4-31.7,6-42.2,4.1
	C117.9,199.4,93.7,173.8,95,160L95,160z"/>
<path class="st43" d="M151.3,191.8c20.9,1.6,42-5.6,54-23.4c5.4-7.8,9-16.5,12-25.7c-0.8,7.7-2.8,15.3-6.3,22.4
	C200.6,187.8,175.1,198.5,151.3,191.8L151.3,191.8z"/>
<path class="st43" d="M127.3,70.4c25.8-7.3,51.7-11,79.5,11.3c6.7,5.4,10.7,13.5,14.6,21c3.2,6.4,5.8,13.2,7.4,20.2
	c3.2,14,2.3,28.9-2.8,42.3c4.2-13.6,4.8-28.2,1.3-42c-3.7-14.7-11.2-28.5-21.3-39.8c-0.3-0.3-1.2-1-1.5-1.3
	C184,64.6,144.9,61,127.3,70.4L127.3,70.4z"/>
<g>
	
		<rect x="300.8" y="341.1" transform="matrix(0.9781 -0.2081 0.2081 0.9781 -80.8939 90.453)" class="st44" width="177.3" height="177.3"/>
	<g>
		<defs>
			
				<rect id="SVGID_15_" x="300.8" y="341.1" transform="matrix(0.9781 -0.2081 0.2081 0.9781 -80.8939 90.453)" width="177.3" height="177.3"/>
		</defs>
		<clipPath id="SVGID_16_">
			<use xlink:href="#SVGID_15_"  style="overflow:visible;"/>
		</clipPath>
		<g class="st45">
			
				<rect x="279.8" y="369.7" transform="matrix(0.9781 -0.2081 0.2081 0.9781 -69.2895 86.6788)" class="st46" width="195.1" height="5.9"/>
			
				<rect x="285.8" y="398.2" transform="matrix(0.9781 -0.2081 0.2081 0.9781 -75.0918 88.566)" class="st46" width="195.1" height="5.9"/>
			
				<rect x="291.9" y="426.8" transform="matrix(0.9781 -0.2081 0.2081 0.9781 -80.8939 90.4531)" class="st46" width="195.1" height="5.9"/>
			
				<rect x="298" y="455.3" transform="matrix(0.9781 -0.2081 0.2081 0.9781 -86.6959 92.3399)" class="st46" width="195.1" height="5.9"/>
			
				<rect x="304" y="483.8" transform="matrix(0.9781 -0.2081 0.2081 0.9781 -92.4979 94.2269)" class="st46" width="195.1" height="5.9"/>
			
				<rect x="348.9" y="414.6" transform="matrix(0.2081 0.9781 -0.9781 0.2081 762.0142 -106.0554)" class="st46" width="195.1" height="5.9"/>
			
				<rect x="320.4" y="420.7" transform="matrix(0.2081 0.9781 -0.9781 0.2081 745.3637 -73.3547)" class="st46" width="195.1" height="5.9"/>
			
				<rect x="291.9" y="426.8" transform="matrix(0.2081 0.9781 -0.9781 0.2081 728.7136 -40.6538)" class="st46" width="195.1" height="5.9"/>
			
				<rect x="263.4" y="432.8" transform="matrix(0.2081 0.9781 -0.9781 0.2081 712.0635 -7.9528)" class="st46" width="195.1" height="5.9"/>
			
				<rect x="234.9" y="438.9" transform="matrix(0.2081 0.9781 -0.9781 0.2081 695.4132 24.748)" class="st46" width="195.1" height="5.9"/>
		</g>
	</g>
</g>
<g>
	<polygon class="st47" points="1030.5,321.6 1045.2,316.4 1054.6,328.7 1069.8,332.2 1071.1,347.7 1082,358.9 1074.7,372.6 
		1077.8,387.9 1064.2,395.5 1058.6,410 1043.1,409.1 1030.5,418.2 1017.9,409.1 1002.4,410 996.8,395.5 983.2,387.9 986.3,372.6 
		979,358.9 989.9,347.7 991.2,332.2 1006.4,328.7 1015.9,316.4 	"/>
	<g>
		<path class="st5" d="M1031.5,399.4c-17.7,0-32.1-14.4-32.1-32.1c0-17.7,14.4-32.1,32.1-32.1c17.7,0,32.1,14.4,32.1,32.1
			C1063.5,385,1049.2,399.4,1031.5,399.4z"/>
		<path class="st4" d="M1031.5,336.7c16.9,0,30.6,13.7,30.6,30.6c0,16.9-13.7,30.6-30.6,30.6c-16.9,0-30.6-13.7-30.6-30.6
			C1000.9,350.5,1014.6,336.7,1031.5,336.7 M1031.5,333.7c-18.5,0-33.6,15-33.6,33.6c0,18.5,15,33.6,33.6,33.6s33.6-15,33.6-33.6
			C1065,348.8,1050,333.7,1031.5,333.7L1031.5,333.7z"/>
	</g>
</g>
<path class="st3" d="M383.6,300l-127.5,5.5c-6.2,0.3-11,5.5-10.7,11.7l7.5,173.4c0.3,6.2,5.5,11,11.7,10.7l127.5-5.5
	c6.2-0.3,11-5.5,10.7-11.7l-7.5-173.4C395,304.5,389.8,299.7,383.6,300z"/>
<g>
	<path class="st0" d="M379.9,500.5H252.3c-6.2,0-11.2-5-11.2-11.2V315.8c0-6.2,5-11.2,11.2-11.2h127.6c6.2,0,11.2,5,11.2,11.2v173.5
		C391.1,495.5,386.1,500.5,379.9,500.5z"/>
	<rect x="252.9" y="317.4" class="st5" width="126.5" height="138.7"/>
</g>
<rect x="273" y="280.8" transform="matrix(0.9781 -0.2081 0.2081 0.9781 -56.1994 72.4186)" class="st48" width="86.2" height="45.1"/>
<path class="st3" d="M394.9,701.8l15.2-3.2l-6.8-32l4.5-1l-3-14.3l-9.2,2l-23.4,5l-2.7-12.6c3.2-3.4,4.6-8.2,3.6-12.9
	c-0.8-3.8-3-7-6.2-9.1s-7.1-2.8-10.8-2l-14.4,3.1c-7.8,1.7-12.7,9.3-11.1,17.1c1,4.6,4.2,8.5,8.5,10.3l2.7,12.6l-22.5,4.8l0,0
	l-9.6,2.1l3,14.3l4.5-1l6.8,32l15.2-3.2l-0.7-3.2l55.8-11.9L394.9,701.8z M342.2,649.3l-1-0.3c-3.6-1.2-6.3-4.2-7-7.9
	c-1.2-5.7,2.4-11.4,8.2-12.6l14.4-3.1c0.7-0.2,1.5-0.2,2.2-0.2c2,0,4,0.6,5.8,1.7c2.4,1.5,4,3.9,4.6,6.7c0.8,3.7-0.5,7.5-3.2,10.1
	l-0.8,0.7l3.1,14.7l-23.1,4.9L342.2,649.3z"/>
<g>
	<g>
		<path class="st46" d="M364.2,285c1.7,7.6,12.3,8.3,18.5,7.9c8-0.5,16.2-3.7,22.1-9.2c2.7-2.5,5-6.1,4.3-10
			c-0.6-3.3-3.9-6.3-7.4-5.9c-3.8,0.5-5.2,4.5-6.1,7.7c-1,3.7-1.8,7.6-2.3,11.4c-1.3,8.8-1.8,17.8-1.3,26.8c0.1,1.6,2.6,2.1,2.9,0.4
			c0.6-3,1.5-6,2.6-8.8c0.9-2.4,2.2-5.9,4.1-7.4c0.2-0.1,0.4-0.2,0.3-0.2c0.3-0.1-0.1-0.1,0.3,0c-0.2,0-0.1,0,0.1,0.1
			c-0.1-0.1,0.3,0.3,0.3,0.3c0.7,1,0.8,2.8,1,4c0.2,1.5,0.3,3.1,0.2,4.6c0,0.8-0.1,1.5-0.2,2.3c-0.1,0.6-0.3,1.2-0.3,1.8
			c0.1,1.2,1.4,2,2.5,2.1c2.3,0.2,4.2-1.6,4.9-3.7c0.7-2,0.8-4.2,3.1-4.8c1.7-0.5,3.6-0.2,5.4-0.2c1.9,0,3.9-0.1,5.5-1.2
			c1.7-1.1,2.7-3,2.4-5.1c-0.6-4.6-6-6.9-9.6-3.9c-3.7,3.1-3.3,8.6,0.3,11.5c3.8,3.1,9.1,2.5,12.9-0.3c4.2-3.1,6.6-7.9,8.1-12.8
			c1.8-5.5,2.6-11.9,1.7-17.6c-0.4-2.2-2.4-4.2-4.7-2.9c-2.4,1.3-2.9,4.5-3.4,6.9c-0.6,3-1,6.1-1.2,9.1c-0.1,2.7-0.2,5.6,0.5,8.2
			c1.4,4.8,6.2,7,11,5.7c5-1.4,7.9-6.2,9.6-10.8c2.1-5.5,3-11.7,2.4-17.6c-0.2-2.2-0.9-4.6-3.3-5.2c-2.4-0.6-4.7,1.3-5.4,3.5
			c-0.9,2.7-0.5,6.1-0.5,8.9c0,3.1,0,6.1,0,9.2c0,2.5,0.1,5.3,1.4,7.6c1.2,2,3.1,3.2,5.4,3.5c5,0.6,9.1-2.7,11.2-7
			c1.1-2.3,1.8-4.7,2.5-7.2c-1-0.1-2-0.3-2.9-0.4c-0.6,4.7,0.5,12.8,7.1,11.7c3.4-0.6,5.7-4,7.2-6.8c1.6-3.2,2.4-6.8,0.9-10.2
			c-1.3-2.7-4.2-4.8-7.3-4.2c-2.9,0.6-5.3,3.7-4.5,6.7c0.8,3,4.2,4.1,7,3.6c3.4-0.7,5.7-3.7,8.2-5.9c2.7-2.5,6.5-5,10.4-4.5
			c3,0.4,6.5,3.1,5.8,6.4c-0.4,1.9,2.5,2.7,2.9,0.8c1-5.3-3.7-9.8-8.7-10.2c-5.9-0.6-10.9,3.8-14.8,7.6c-1.7,1.6-4.1,3.8-6.6,2.7
			c-2.5-1-0.9-4,1.2-4.3c2.6-0.3,4.2,2.8,4.2,5c0.1,3-1.6,6.2-3.5,8.4c-1.6,1.8-4.4,3.1-5.8,0.4c-1.1-2.1-1-4.9-0.7-7.2
			c0.2-1.7-2.5-2-2.9-0.4c-0.9,3.2-1.7,6.6-3.9,9.1c-1.7,2.1-4.6,3.5-7.3,2.7c-3.3-0.9-3.5-4.7-3.5-7.5c0-4.1,0-8.2,0-12.3
			c0-1.7-0.3-3.8,0.4-5.4c0.5-1.3,2-2,2.6-0.4c0.6,1.5,0.5,3.4,0.5,5c0,1.9-0.1,3.8-0.4,5.7c-0.9,5.8-3.4,14.8-10,16.3
			c-2.9,0.6-5.8-0.6-6.7-3.5c-1.1-3.4-0.6-7.5-0.2-10.9c0.2-2.1,0.6-4.1,1.1-6.2c0.2-0.8,0.4-1.7,0.7-2.5c0.1-0.3,0.8-1.5,1-1.4
			c0.4,0.1,0.4,1.7,0.4,1.9c0.1,1,0.1,2,0.1,3c0,1.9-0.1,3.8-0.4,5.7c-0.9,6.3-3.3,14.1-8.8,17.9c-2.4,1.6-5.5,2.2-8.1,0.7
			c-2.4-1.4-3.6-4.4-1.8-6.8c1.6-2.1,4.6-1.7,5.3,0.9c0.7,2.6-2.3,3.1-4.1,3.2c-2.4,0.1-5-0.3-7.3,0.5c-1.1,0.4-2.1,1-2.9,1.9
			c-1,1.3-1.3,2.8-1.8,4.3c-0.2,0.6-1.2,2.8-2.1,1.9c0.1,0.5,0.3,1,0.4,1.5c0.8-4.3,0.7-8.8-0.5-13c-0.6-2.1-2.4-4-4.7-3.3
			c-1.9,0.5-3.1,2.5-4,4.1c-1.3,2.3-2.2,4.8-3.1,7.2c-0.8,2.3-1.5,4.7-2,7.2c1,0.1,2,0.3,2.9,0.4c-0.4-6.7-0.1-13.4,0.5-20.1
			c0.6-6.5,1.5-13.3,3.7-19.5c0.4-1.3,1.1-2.9,2.5-3.3c1.2-0.4,2.5,0.3,3.3,1.2c2.3,2.5,0.9,5.9-1.1,8.2c-4.5,5.1-11.6,8.1-18.2,9.2
			c-3.7,0.6-7.7,0.6-11.4-0.1c-2.9-0.6-6.5-1.9-7.2-5.2C366.6,282.3,363.7,283.1,364.2,285L364.2,285z"/>
	</g>
</g>
<g>
	<path class="st49" d="M212.5,996.3V954h-62.4v42.3c-8.4,4.9-14.1,14.1-14.1,24.6l0,0c0,15.7,12.8,28.5,28.5,28.5h33.6
		c15.7,0,28.5-12.8,28.5-28.5l0,0C226.6,1010.4,221,1001.3,212.5,996.3z"/>
	<g>
		<rect x="115.3" y="895.7" class="st43" width="125.7" height="58.3"/>
		<rect x="115.3" y="895.7" class="st50" width="125.7" height="10.1"/>
		<rect x="106.4" y="890.2" class="st43" width="26.9" height="69.4"/>
		<rect x="231.6" y="890.2" class="st43" width="26.9" height="69.4"/>
		<rect x="106.9" y="946.6" class="st50" width="142.5" height="25.1"/>
		<rect x="98.5" y="946.6" class="st51" width="34.7" height="25.1"/>
		<rect x="231.6" y="946.6" class="st51" width="34.7" height="25.1"/>
	</g>
</g>
<g>
	<g>
		<path class="st52" d="M340,674.2l-4-19c-4.3-1.8-7.5-5.7-8.5-10.3c-1.7-7.8,3.3-15.4,11.1-17.1l14.4-3.1c3.8-0.8,7.6-0.1,10.8,2
			s5.4,5.3,6.2,9.1c1,4.6-0.4,9.4-3.6,12.9l4,19L340,674.2z M356,628.2c-0.7,0-1.5,0.1-2.2,0.2l-14.4,3.1c-5.7,1.2-9.4,6.9-8.2,12.6
			c0.8,3.7,3.5,6.7,7,7.9l1,0.3l3.7,17.4l23.1-4.9l-3.7-17.4l0.8-0.7c2.8-2.5,4-6.4,3.2-10.1c-0.6-2.8-2.2-5.1-4.6-6.7
			C360,628.8,358,628.2,356,628.2z"/>
	</g>
	<g>
		
			<rect x="325.8" y="673.7" transform="matrix(-0.9781 0.2081 -0.2081 -0.9781 860.1817 1290.6381)" class="st6" width="72.9" height="33.8"/>
		
			<rect x="328.7" y="701.3" transform="matrix(-0.9781 0.2081 -0.2081 -0.9781 868.7791 1317.0751)" class="st53" width="72.9" height="5.8"/>
		
			<rect x="387.5" y="663.4" transform="matrix(-0.9781 0.2081 -0.2081 -0.9781 924.1597 1269.8295)" class="st6" width="15.6" height="40.2"/>
		
			<rect x="316.5" y="678.5" transform="matrix(-0.9781 0.2081 -0.2081 -0.9781 786.7639 1314.5155)" class="st6" width="15.6" height="40.2"/>
		
			<rect x="316.8" y="663.8" transform="matrix(-0.9781 0.2081 -0.2081 -0.9781 847.9493 1253.0289)" class="st54" width="82.6" height="14.6"/>
		
			<rect x="383.3" y="656.3" transform="matrix(-0.9781 0.2081 -0.2081 -0.9781 916.2523 1230.8138)" class="st55" width="20.1" height="14.6"/>
		
			<rect x="307.8" y="672.4" transform="matrix(-0.9781 0.2081 -0.2081 -0.9781 770.2028 1278.3156)" class="st55" width="20.1" height="14.6"/>
	</g>
</g>
<g>
	<g>
		<path class="st55" d="M817.4,183.6l-21.1,4.4c-4.1,0.9-8.2-1.8-9.1-5.9l-9.7-46.1c-0.9-4.1,1.8-8.2,5.9-9.1l21.1-4.4
			c4.1-0.9,8.2,1.8,9.1,5.9l9.7,46.1C824.2,178.7,821.5,182.8,817.4,183.6z"/>
		
			<rect x="728" y="142.6" transform="matrix(0.9787 -0.2052 0.2052 0.9787 -30.6131 166.1617)" class="st56" width="115.8" height="176.3"/>
		<g>
			<path class="st6" d="M802.4,166.5C802.4,166.5,802.4,166.5,802.4,166.5c-1.2,0.2-2.4-0.3-3.1-1.3l-18.2-27.5
				c-0.9-1.4-0.5-3.2,0.8-4.2c1.4-0.9,3.2-0.5,4.2,0.8l14.1,21.3l4.9-25.4c0.3-1.6,1.9-2.7,3.5-2.4c1.6,0.3,2.7,1.9,2.4,3.5
				l-6.3,32.6C804.5,165.3,803.6,166.2,802.4,166.5z"/>
		</g>
	</g>
	<g>
		<g>
			<g>
				<path class="st55" d="M785.8,207.8c7,23.8,3.6,50.1-8.5,71.7c-3.5,6.1-7.6,11.9-12.4,17c-1.3,1.4,0.8,3.5,2.1,2.1
					c17.5-18.8,26.7-44.8,25.3-70.4c-0.4-7.2-1.6-14.3-3.6-21.2C788.2,205.2,785.3,206,785.8,207.8L785.8,207.8z"/>
			</g>
		</g>
		<circle class="st57" cx="762.8" cy="220.3" r="12.8"/>
		<circle class="st57" cx="774.1" cy="233.9" r="12.8"/>
		<circle class="st43" cx="762.1" cy="255.5" r="12.8"/>
		<circle class="st57" cx="806.2" cy="271.9" r="12.8"/>
		<circle class="st43" cx="809.8" cy="226.7" r="12.8"/>
		<circle class="st43" cx="808.9" cy="196" r="12.8"/>
		<circle class="st57" cx="798.8" cy="207.3" r="12.8"/>
		<circle class="st57" cx="781.5" cy="187.9" r="12.8"/>
	</g>
</g>
<g>
	<circle class="st56" cx="489.8" cy="500.5" r="40.7"/>
	<circle class="st5" cx="489.8" cy="500.5" r="32.3"/>
	<circle class="st8" cx="489.8" cy="500.5" r="28.8"/>
</g>
<g>
	<circle class="st4" cx="744.4" cy="32.5" r="29.5"/>
</g>
<g>
	<circle class="st4" cx="840.4" cy="635.1" r="29.5"/>
</g>
<g>
	<circle class="st4" cx="1145.8" cy="330.4" r="29.5"/>
</g>
<g>
	<path class="st5" d="M879.5,680c-14.3,0-26-11.7-26-26c0-14.3,11.7-26,26-26c14.3,0,26,11.7,26,26C905.5,668.3,893.8,680,879.5,680
		z"/>
	<g>
		<path class="st7" d="M879.5,631.4c12.4,0,22.5,10.1,22.5,22.5c0,12.4-10.1,22.5-22.5,22.5s-22.5-10.1-22.5-22.5
			C856.9,641.5,867,631.4,879.5,631.4 M879.5,624.4c-16.3,0-29.5,13.2-29.5,29.5c0,16.3,13.2,29.5,29.5,29.5S909,670.3,909,654
			C909,637.7,895.8,624.4,879.5,624.4L879.5,624.4z"/>
	</g>
</g>
<path class="st3" d="M595.3,631.3c-1.2-28.6-6.1-65.6-14.5-110c-15.3-80.1-31.2-168-46.8-225.9c-7.8-28.8-14.4-49.6-15.3-56.2
	c-0.8-5.6-1.8-11.2-2-15.2l0,0c0,0-1.3-15.7,1.5-18.9c2.9-3.3,4.8-4.8,7.5-4.2c0,0-2.4-1.6-10.1-0.9c-0.2,0-6.8,1.9-10.4,11.6
	c-2.4,7.2-3.6,16.4-2,27.9c1.1,7.6,6.7,28.5,15.2,60.1c15.6,57.7,31.4,145.2,46.5,224.8c22.2,116.3,14.9,156.5,4.9,169.8l8.1-3.8
	c0,0,4.2,9.5,4.7,13.4C592.7,690.7,596.8,667,595.3,631.3z"/>
<path class="st58" d="M598,630.9c-1.2-28.6-6.1-65.6-14.5-110c-15.3-80.1-38.9-167.6-54.5-225.5c-7.8-28.8-13.9-51.5-14.8-58.1
	c-0.8-5.6-0.7-10.4-0.1-14.4l0,0c0,0,1.4-14.6,4.3-17.9c2.9-3.3,4.8-4.8,7.5-4.2c0,0-6.9-2.9-15.2-0.8c-0.2,0-6.8,1.9-10.4,11.6
	c-2.4,7.2-3.6,16.4-2,27.9c1.1,7.6,6.7,28.5,15.2,60.1c15.6,57.7,39.1,144.8,54.2,224.4c22.2,116.3,14.9,156.5,4.9,169.8l8.1-3.8
	c0,0,4.2,9.5,4.7,13.4C595.4,690.3,599.5,666.6,598,630.9z"/>
<g>
	
		<rect x="133.1" y="290.5" transform="matrix(0.981 -0.1939 0.1939 0.981 -93.9671 41.0689)" class="st9" width="59.4" height="420"/>
	<g>
		
			<rect x="171.8" y="695.6" transform="matrix(0.981 -0.1939 0.1939 0.981 -131.7373 49.4297)" class="st16" width="29.7" height="4.2"/>
		<rect x="170" y="687.2" transform="matrix(0.981 -0.1939 0.1939 0.981 -130.27 47.614)" class="st16" width="16.2" height="4.2"/>
		
			<rect x="168.1" y="677.5" transform="matrix(0.981 -0.1939 0.1939 0.981 -128.4232 47.0575)" class="st16" width="16.2" height="4.2"/>
		
			<rect x="166.2" y="667.7" transform="matrix(0.981 -0.1939 0.1939 0.981 -126.5764 46.5009)" class="st16" width="16.2" height="4.2"/>
		
			<rect x="164.2" y="658" transform="matrix(0.981 -0.1939 0.1939 0.981 -124.7297 45.9444)" class="st16" width="16.2" height="4.2"/>
		
			<rect x="162.2" y="647" transform="matrix(0.981 -0.1939 0.1939 0.981 -122.5035 46.647)" class="st16" width="29.7" height="4.2"/>
		
			<rect x="160.4" y="638.6" transform="matrix(0.981 -0.1939 0.1939 0.981 -121.0361 44.8313)" class="st16" width="16.2" height="4.2"/>
		
			<rect x="158.5" y="628.9" transform="matrix(0.981 -0.1939 0.1939 0.981 -119.1894 44.2747)" class="st16" width="16.2" height="4.2"/>
		
			<rect x="156.6" y="619.2" transform="matrix(0.981 -0.1939 0.1939 0.981 -117.3426 43.7182)" class="st16" width="16.2" height="4.2"/>
		
			<rect x="154.6" y="609.5" transform="matrix(0.981 -0.1939 0.1939 0.981 -115.4958 43.1616)" class="st16" width="16.2" height="4.2"/>
		
			<rect x="152.6" y="598.4" transform="matrix(0.981 -0.1939 0.1939 0.981 -113.2696 43.8643)" class="st16" width="29.7" height="4.2"/>
		
			<rect x="150.8" y="590" transform="matrix(0.981 -0.1939 0.1939 0.981 -111.8023 42.0485)" class="st16" width="16.2" height="4.2"/>
		
			<rect x="148.9" y="580.3" transform="matrix(0.981 -0.1939 0.1939 0.981 -109.9556 41.492)" class="st16" width="16.2" height="4.2"/>
		
			<rect x="147" y="570.6" transform="matrix(0.981 -0.1939 0.1939 0.981 -108.1088 40.9354)" class="st16" width="16.2" height="4.2"/>
		
			<rect x="145" y="560.9" transform="matrix(0.981 -0.1939 0.1939 0.981 -106.262 40.3789)" class="st16" width="16.2" height="4.2"/>
		
			<rect x="143" y="549.9" transform="matrix(0.981 -0.1939 0.1939 0.981 -104.0358 41.0815)" class="st16" width="29.7" height="4.2"/>
		
			<rect x="141.2" y="541.5" transform="matrix(0.981 -0.1939 0.1939 0.981 -102.5685 39.2658)" class="st16" width="16.2" height="4.2"/>
		
			<rect x="139.3" y="531.8" transform="matrix(0.981 -0.1939 0.1939 0.981 -100.7217 38.7093)" class="st16" width="16.2" height="4.2"/>
		
			<rect x="137.4" y="522.1" transform="matrix(0.981 -0.1939 0.1939 0.981 -98.875 38.1527)" class="st16" width="16.2" height="4.2"/>
		
			<rect x="135.4" y="512.3" transform="matrix(0.981 -0.1939 0.1939 0.981 -97.0282 37.5962)" class="st16" width="16.2" height="4.2"/>
		
			<rect x="133.4" y="501.3" transform="matrix(0.981 -0.1939 0.1939 0.981 -94.802 38.2988)" class="st16" width="29.7" height="4.2"/>
		
			<rect x="131.6" y="492.9" transform="matrix(0.981 -0.1939 0.1939 0.981 -93.3347 36.4831)" class="st16" width="16.2" height="4.2"/>
		
			<rect x="129.7" y="483.2" transform="matrix(0.981 -0.1939 0.1939 0.981 -91.4879 35.9265)" class="st16" width="16.2" height="4.2"/>
		
			<rect x="127.8" y="473.5" transform="matrix(0.981 -0.1939 0.1939 0.981 -89.6411 35.37)" class="st16" width="16.2" height="4.2"/>
		
			<rect x="125.8" y="463.8" transform="matrix(0.981 -0.1939 0.1939 0.981 -87.7944 34.8134)" class="st16" width="16.2" height="4.2"/>
		
			<rect x="123.8" y="452.8" transform="matrix(0.981 -0.1939 0.1939 0.981 -85.5681 35.516)" class="st16" width="29.7" height="4.2"/>
		
			<rect x="122" y="444.4" transform="matrix(0.981 -0.1939 0.1939 0.981 -84.1008 33.7003)" class="st16" width="16.2" height="4.2"/>
		
			<rect x="120.1" y="434.7" transform="matrix(0.981 -0.1939 0.1939 0.981 -82.2541 33.1438)" class="st16" width="16.2" height="4.2"/>
		
			<rect x="118.2" y="424.9" transform="matrix(0.981 -0.1939 0.1939 0.981 -80.4073 32.5872)" class="st16" width="16.2" height="4.2"/>
		
			<rect x="116.2" y="415.2" transform="matrix(0.981 -0.1939 0.1939 0.981 -78.5605 32.0307)" class="st16" width="16.2" height="4.2"/>
		
			<rect x="114.2" y="404.2" transform="matrix(0.981 -0.1939 0.1939 0.981 -76.3343 32.7333)" class="st16" width="29.7" height="4.2"/>
		
			<rect x="112.4" y="395.8" transform="matrix(0.981 -0.1939 0.1939 0.981 -74.867 30.9176)" class="st16" width="16.2" height="4.2"/>
		
			<rect x="110.5" y="386.1" transform="matrix(0.981 -0.1939 0.1939 0.981 -73.0202 30.361)" class="st16" width="16.2" height="4.2"/>
		
			<rect x="108.6" y="376.4" transform="matrix(0.981 -0.1939 0.1939 0.981 -71.1735 29.8045)" class="st16" width="16.2" height="4.2"/>
		
			<rect x="106.6" y="366.7" transform="matrix(0.981 -0.1939 0.1939 0.981 -69.3267 29.2479)" class="st16" width="16.2" height="4.2"/>
		
			<rect x="104.6" y="355.6" transform="matrix(0.981 -0.1939 0.1939 0.981 -67.1005 29.9505)" class="st16" width="29.7" height="4.2"/>
		
			<rect x="102.8" y="347.2" transform="matrix(0.981 -0.1939 0.1939 0.981 -65.6332 28.1348)" class="st16" width="16.2" height="4.2"/>
		
			<rect x="100.9" y="337.5" transform="matrix(0.981 -0.1939 0.1939 0.981 -63.7864 27.5783)" class="st16" width="16.2" height="4.2"/>
		
			<rect x="99" y="327.8" transform="matrix(0.981 -0.1939 0.1939 0.981 -61.9396 27.0217)" class="st16" width="16.2" height="4.2"/>
		
			<rect x="97" y="318.1" transform="matrix(0.981 -0.1939 0.1939 0.981 -60.0929 26.4652)" class="st16" width="16.2" height="4.2"/>
		
			<rect x="95" y="307.1" transform="matrix(0.981 -0.1939 0.1939 0.981 -57.8666 27.1678)" class="st16" width="29.7" height="4.2"/>
	</g>
</g>
<g>
	<path class="st59" d="M150.6,719l-17.4,3.4c-2.1,0.4-3.5,2.5-3.1,4.6l0.6,3.3c0.4,2.1,2.5,3.5,4.6,3.1l17.4-3.4
		c2.1-0.4,3.5-2.5,3.1-4.6l-0.6-3.3C154.8,719.9,152.7,718.5,150.6,719z"/>
	<path class="st9" d="M157.9,723.2l-29.8,5.9c-1,0.2-2-0.5-2.2-1.5l-45.1-228c-0.2-1,0.5-2,1.5-2.2l29.8-5.9c1-0.2,2,0.5,2.2,1.5
		l45.1,228C159.5,722,158.9,723,157.9,723.2z"/>
	<path class="st59" d="M82.9,370.7l-19.8,3.9c-4.9,1-8.1,5.7-7.1,10.6l0.8,4l0.5,2.6l22.2,112.3l37.5-7.4L94.8,384.4l-0.5-2.6
		l-0.8-4C92.6,372.9,87.8,369.7,82.9,370.7z"/>
	<rect x="72.4" y="389.2" transform="matrix(0.981 -0.1941 0.1941 0.981 -74.8445 22.435)" class="st16" width="9.3" height="8"/>
	<path class="st33" d="M107.6,539.8l-2.9,0.6c-3.4,0.7-6.7-1.5-7.4-5L70.7,401c-0.7-3.4,1.5-6.7,5-7.4l2.9-0.6
		c3.4-0.7,6.7,1.5,7.4,5l26.6,134.4C113.2,535.8,111,539.1,107.6,539.8z"/>
</g>
</svg>
