<?xml version="1.0" encoding="utf-8"?>
<!-- Generator: Adobe Illustrator 23.1.0, SVG Export Plug-In . SVG Version: 6.00 Build 0)  -->
<svg version="1.1" id="Layer_1" xmlns="http://www.w3.org/2000/svg" xmlns:xlink="http://www.w3.org/1999/xlink" x="0px" y="0px"
	 viewBox="0 0 780 541" style="enable-background:new 0 0 780 541;" xml:space="preserve">
<style type="text/css">
	.st0{fill:#ADD2B6;}
	.st1{fill:#FFFFFF;stroke:#ADD2B6;stroke-width:2;}
	.st2{fill:#507763;stroke:#507763;stroke-width:2;stroke-linejoin:round;}
	.st3{fill:#ADD2B6;stroke:#507763;stroke-width:2;stroke-linejoin:round;}
	.st4{fill:#507763;stroke:#507763;stroke-width:2;}
	.st5{fill:#FFFFFF;stroke:#507763;stroke-width:2;stroke-miterlimit:10;}
	.st6{fill-rule:evenodd;clip-rule:evenodd;fill:#507763;}
	.st7{fill:#507763;}
	.st8{fill:#FFFFFF;stroke:#ADD2B6;stroke-width:2;stroke-miterlimit:10;}
	.st9{fill:#C9241E;}
	.st10{fill:#F7F6AF;stroke:#507763;stroke-width:2;}
	.st11{fill:none;stroke:#507763;stroke-width:2;stroke-miterlimit:10;}
	.st12{fill:#F7F6AF;stroke:#507763;stroke-width:2;stroke-linejoin:round;}
	.st13{fill:#F7F6AF;stroke:#507763;stroke-width:2;stroke-linecap:round;stroke-linejoin:round;}
	.st14{fill:#C9241E;stroke:#C9241E;stroke-width:2;}
	.st15{fill:#ADD2B6;stroke:#C9241E;stroke-width:2;}
	.st16{fill:#507763;stroke:#507763;stroke-width:2;stroke-miterlimit:4;}
	.st17{fill:#ADD2B6;stroke:#C9241E;stroke-width:2;stroke-miterlimit:4;}
	.st18{fill:#ADD2B6;stroke:#C9241E;stroke-width:2;stroke-linejoin:round;}
	.st19{fill:#C9241E;stroke:#C9241E;stroke-width:2;stroke-linejoin:round;}
</style>
<path class="st0" d="M107,206.2c31.3,0,56.7-25.5,56.7-57s-25.4-57-56.7-57c-31.3,0-56.7,25.5-56.7,57S75.7,206.2,107,206.2z"/>
<path class="st0" d="M800.9,336.9H595.4c-11.6,0-21,7.3-21,16.3v159.2c0,9,9.4,16.3,21,16.3h205.6c11.6,0,21-7.3,21-16.3V353.2
	C822,344.2,812.6,336.9,800.9,336.9z"/>
<path class="st0" d="M519.6,89l-77.1-0.4l-0.4,73.6l77.1,0.4L519.6,89z"/>
<path class="st1" d="M523.8,81.5l-73.4-0.4l-0.4,73.6l73.4,0.4L523.8,81.5z"/>
<path class="st0" d="M7.6,172.4l-72.2,26.9l25.8,69l72.2-26.9L7.6,172.4z"/>
<path class="st1" d="M10.1,164.7l-68.7,25.6l25.8,69l68.7-25.6L10.1,164.7z"/>
<path class="st0" d="M765.2,37.3l-71.9-21.7L671.9,86l71.9,21.7L765.2,37.3z"/>
<path class="st2" d="M701.4,11.7l69.2,20.9l-17.5,57.8l-14.8,7.9l-57.9-17.5L701.4,11.7z"/>
<path class="st3" d="M742,87.5l10.5,3.2L738.9,98L742,87.5z"/>
<path class="st4" d="M813.4,336.9H607.9c-11.6,0-21,7.3-21,16.3v159.2c0,9,9.4,16.3,21,16.3h205.6c11.6,0,21-7.3,21-16.3V353.2
	C834.5,344.2,825.1,336.9,813.4,336.9z"/>
<path class="st5" d="M720.1,429.2c6.3,37-11.3,63.1-37.6,67.6c-26.4,4.5-51.6-14.4-57.9-51.4c-6.3-37,10-70.5,36.4-75
	C687.3,366,713.8,392.3,720.1,429.2z"/>
<path class="st6" d="M175.6,138.2c0,31.5-25.4,57-56.7,57c-23.7,0-43.9-14.6-52.4-35.3l-23.3,6.5c-0.5,0.1-1,0.2-1.4,0.2l0,0
	c-1.2,0-2.3-0.4-3.2-1.1c-0.9-0.7-1.6-1.7-1.9-2.9l-1.1-3.8c-0.4-1.4-0.2-2.9,0.5-4.1c0.7-1.2,1.9-2.2,3.2-2.5l23.4-6.6
	c-0.3-2.5-0.5-5-0.5-7.5c0-31.5,25.4-57,56.7-57C150.2,81.2,175.6,106.7,175.6,138.2z"/>
<path class="st7" d="M66.4,160l0.9-0.4c-0.2-0.5-0.7-0.7-1.2-0.6L66.4,160z M43.1,166.5l0.3,1h0L43.1,166.5z M41.7,166.7l0-1
	c-0.5,0-0.9,0.4-1,0.8c-0.1,0.5,0.2,1,0.7,1.1L41.7,166.7z M41.7,166.7l0,1c0.5,0,0.9-0.4,1-0.8c0.1-0.5-0.2-1-0.7-1.1L41.7,166.7z
	 M36.5,162.8l-1,0.3l0,0L36.5,162.8z M35.5,158.9l-1,0.3l0,0L35.5,158.9z M36,154.8l0.9,0.5L36,154.8z M39.2,152.3l-0.3-1h0
	L39.2,152.3z M62.6,145.7l0.3,1c0.5-0.1,0.8-0.6,0.7-1.1L62.6,145.7z M118.8,196.2c31.9,0,57.7-26,57.7-58h-2
	c0,30.9-24.9,56-55.7,56V196.2z M65.5,160.4c8.7,21.1,29.3,35.9,53.4,35.9v-2c-23.2,0-43.2-14.3-51.5-34.6L65.5,160.4z M66.1,159
	l-23.3,6.5l0.5,1.9l23.3-6.5L66.1,159z M42.8,165.6c-0.4,0.1-0.8,0.2-1.2,0.2l0,2c0.6,0,1.2-0.1,1.7-0.2L42.8,165.6z M41.3,167.7
	L41.3,167.7l0.7-1.9l0,0L41.3,167.7z M41.7,165.7c-0.9,0-1.9-0.3-2.6-0.9l-1.2,1.6c1.1,0.9,2.5,1.3,3.8,1.3L41.7,165.7z M39.1,164.8
	c-0.8-0.6-1.3-1.4-1.6-2.3l-1.9,0.5c0.4,1.3,1.2,2.5,2.3,3.4L39.1,164.8z M37.5,162.5l-1.1-3.8l-1.9,0.5l1.1,3.8L37.5,162.5z
	 M36.4,158.7c-0.3-1.1-0.2-2.3,0.4-3.4l-1.7-1c-0.8,1.5-1,3.2-0.6,4.9L36.4,158.7z M36.9,155.3c0.6-1,1.5-1.8,2.6-2.1l-0.5-1.9
	c-1.6,0.5-3,1.5-3.8,3L36.9,155.3z M39.5,153.2l23.4-6.6l-0.5-1.9l-23.4,6.6L39.5,153.2z M61.1,138.2c0,2.6,0.2,5.1,0.5,7.6l2-0.3
	c-0.3-2.4-0.5-4.9-0.5-7.4H61.1z M118.8,80.2c-31.9,0-57.7,26-57.7,58h2c0-30.9,24.9-56,55.7-56V80.2z M176.6,138.2
	c0-32-25.8-58-57.7-58v2c30.8,0,55.7,25.1,55.7,56H176.6z"/>
<path class="st8" d="M118.8,188.3c27.5,0,49.8-22.4,49.8-50.1s-22.3-50.1-49.8-50.1c-27.5,0-49.8,22.4-49.8,50.1
	S91.3,188.3,118.8,188.3z"/>
<path class="st9" d="M118.8,171.9c18.4,0,33.3-14.9,33.3-33.3s-14.9-33.3-33.3-33.3c-18.4,0-33.3,14.9-33.3,33.3
	S100.4,171.9,118.8,171.9z"/>
<path class="st0" d="M539.1,271.8l-459.8-53c-6.5-0.8-12.4,3.9-13.2,10.4L49.9,369.3c-0.8,6.5,3.9,12.4,10.5,13.2l459.8,53
	c6.5,0.8,12.4-3.9,13.2-10.4L549.6,285C550.3,278.5,545.7,272.6,539.1,271.8z"/>
<path class="st10" d="M523.3,424.5c-0.5,0-0.9,0-1.3-0.1l-459.8-53c-3.1-0.4-5.8-1.9-7.8-4.3c-1.9-2.4-2.8-5.5-2.4-8.5l16.2-140.1
	c0.3-2.8,1.7-5.4,3.8-7.3c2.1-1.9,4.9-2.9,7.7-2.9c0.4,0,0.9,0,1.3,0.1l459.8,53c3.1,0.4,5.8,1.9,7.7,4.3c1.9,2.4,2.8,5.5,2.4,8.5
	l-16.2,140.1c-0.3,2.8-1.7,5.4-3.8,7.3S526.1,424.5,523.3,424.5z"/>
<path class="st1" d="M283.7,383.9c-0.4,0-0.9,0-1.3-0.1L76,360.1c-3.1-0.4-5.8-1.9-7.7-4.3c-1.9-2.4-2.8-5.5-2.4-8.5l13.3-114.6
	c0.3-2.8,1.7-5.4,3.8-7.3c2.1-1.9,4.9-2.9,7.7-2.9c0.4,0,0.9,0,1.3,0.1l206.3,23.8c3.1,0.4,5.8,1.9,7.8,4.3c1.9,2.4,2.8,5.5,2.4,8.5
	l-13.3,114.6c-0.3,2.8-1.7,5.4-3.8,7.3C289.2,382.9,286.5,383.9,283.7,383.9z"/>
<path class="st11" d="M279.5,231.5c0,0,13-75,78.9-109.5c65.9-34.5,122-69.3,122-146.3"/>
<path class="st1" d="M405.3,333.9c-0.4,0-0.9,0-1.3-0.1l-76.3-8.8c-3.1-0.4-5.8-1.9-7.7-4.3c-1.9-2.4-2.8-5.5-2.4-8.5l5.9-51.4
	c0.3-2.8,1.7-5.4,3.8-7.3c2.1-1.9,4.9-2.9,7.7-2.9c0.4,0,0.9,0,1.3,0.1l76.3,8.8c1.5,0.2,3,0.6,4.3,1.4c1.3,0.7,2.5,1.7,3.4,2.9
	c0.9,1.2,1.6,2.6,2.1,4c0.4,1.5,0.5,3,0.4,4.5l-5.9,51.4c-0.3,2.8-1.7,5.4-3.8,7.3C410.9,332.9,408.1,333.9,405.3,333.9z"/>
<path class="st1" d="M512.3,410.3c-0.4,0-0.9,0-1.3-0.1l-76.3-8.8c-3.1-0.4-5.8-1.9-7.7-4.3c-1.9-2.4-2.8-5.5-2.4-8.5L437.8,274
	c0.3-2.8,1.7-5.4,3.8-7.3c2.1-1.9,4.9-2.9,7.7-2.9c0.4,0,0.9,0,1.3,0.1l76.3,8.8c3.1,0.4,5.8,1.9,7.7,4.3c1.9,2.4,2.8,5.5,2.4,8.5
	L523.8,400c-0.3,2.8-1.7,5.4-3.8,7.3C517.9,409.2,515.1,410.3,512.3,410.3z"/>
<path class="st0" d="M557.3,147.3L482.9,127l-19.5,71l74.4,20.3L557.3,147.3z"/>
<path class="st12" d="M490.9,123.4l69.8,19l-16,58.2l-14.5,8.3L471.8,193L490.9,123.4z"/>
<path class="st12" d="M533.6,198.1l10.6,2.9l-13.4,7.7L533.6,198.1z"/>
<path class="st0" d="M647.6,27.4L496.3,146.1l96.3,122.2l151.2-118.7L647.6,27.4z"/>
<path class="st13" d="M755.7,147.6L659.4,25.5L508.2,144.2l96.3,122.2L755.7,147.6z"/>
<path class="st14" d="M523.9,122.9c-2-2.5-5.6-2.9-8-1c-2.5,1.9-2.9,5.5-1,8l8.8,11.2c2,2.5,5.6,2.9,8,1c2.5-2,2.9-5.5,1-8
	L523.9,122.9z"/>
<path class="st15" d="M547.9,104c-2-2.5-5.6-2.9-8-1c-2.5,1.9-2.9,5.5-1,8l8.8,11.2c2,2.5,5.6,2.9,8,1c2.5-1.9,2.9-5.5,1-8
	L547.9,104z"/>
<path class="st14" d="M571.9,85.1c-2-2.5-5.6-2.9-8-1c-2.5,2-2.9,5.5-1,8l8.8,11.2c2,2.5,5.6,2.9,8,1c2.5-2,2.9-5.5,1-8L571.9,85.1z
	"/>
<path class="st4" d="M596,66.3c-2-2.5-5.6-2.9-8-1c-2.5,2-2.9,5.5-1,8l8.8,11.2c2,2.5,5.6,2.9,8,1c2.5-2,2.9-5.5,1-8L596,66.3z"/>
<path class="st14" d="M620,47.4c-2-2.5-5.6-2.9-8-1c-2.5,2-2.9,5.5-1,8l8.8,11.2c2,2.5,5.6,2.9,8,1c2.5-2,2.9-5.5,1-8L620,47.4z"/>
<path class="st4" d="M644,28.5c-2-2.5-5.6-2.9-8-1c-2.5,2-2.9,5.5-1,8l8.8,11.2c2,2.5,5.6,2.9,8,1c2.5-2,2.9-5.5,1-8L644,28.5z"/>
<path class="st0" d="M58.4,414.6l455.5,53.2c5.5,0.6,9.4,5.6,8.8,11.1l-4.1,35.1c-0.6,5.5-5.6,9.4-11.1,8.8L51.9,469.5
	c-5.5-0.6-9.4-5.6-8.8-11.1l4.1-35.1C47.9,417.9,52.9,414,58.4,414.6z"/>
<path class="st16" d="M59.9,402.9l455.5,53.2c5.5,0.6,9.4,5.6,8.8,11.1l-4.1,35.1c-0.6,5.5-5.6,9.4-11.1,8.8L53.5,457.8
	c-5.5-0.6-9.4-5.6-8.8-11.1l4.1-35.1C49.5,406.2,54.5,402.3,59.9,402.9z"/>
<path class="st9" d="M82.1,330.4l10.7,1.2c2.7,0.3,4.7,2.8,4.4,5.5l-1.2,10.7c-0.3,2.7-2.8,4.7-5.5,4.4L79.9,351
	c-2.7-0.3-4.7-2.8-4.4-5.5l1.2-10.7C76.9,332.1,79.4,330.1,82.1,330.4z"/>
<path class="st9" d="M109.1,311.1l10.7,1.2c2.7,0.3,4.7,2.8,4.4,5.5l-1.2,10.7c-0.3,2.7-2.8,4.7-5.5,4.4l-10.7-1.2
	c-2.7-0.3-4.7-2.8-4.4-5.5l1.2-10.7C103.9,312.8,106.4,310.8,109.1,311.1z"/>
<path class="st17" d="M135,315.1l10.7,1.2c2.2,0.2,3.8,2.2,3.5,4.4l-1.2,10.7c-0.2,2.2-2.2,3.8-4.4,3.5l-10.7-1.2
	c-2.2-0.2-3.8-2.2-3.5-4.4l1.2-10.7C130.9,316.5,132.8,314.9,135,315.1z"/>
<path class="st18" d="M707.8,407.4c-16.5-4.3-32-0.8-39.2,0.4l-6.2-32.1C686.8,372.1,702.1,394.3,707.8,407.4z"/>
<path class="st19" d="M664.5,408.2c-13.9,1.6-28.9,9.9-35.9,14c2.6-33.6,20.3-44.3,30.1-46.1L664.5,408.2z"/>
</svg>
