<?xml version="1.0" encoding="utf-8"?>
<!-- Generator: Adobe Illustrator 23.1.0, SVG Export Plug-In . SVG Version: 6.00 Build 0)  -->
<svg version="1.1" id="Layer_1" xmlns="http://www.w3.org/2000/svg" xmlns:xlink="http://www.w3.org/1999/xlink" x="0px" y="0px"
	 viewBox="0 0 131 135" style="enable-background:new 0 0 131 135;" xml:space="preserve">
<style type="text/css">
	.st0{fill:none;stroke:#C9241E;stroke-miterlimit:10;}
	.st1{fill:#F7F6AF;stroke:#C9241E;stroke-miterlimit:10;}
	.st2{fill:#C9241E;stroke:#C9241E;stroke-miterlimit:10;}
	.st3{fill:#507763;}
	.st4{fill:#97D6A6;stroke:#507763;stroke-miterlimit:10;}
	.st5{fill:#F7F6AF;}
	.st6{fill:#FFFFFF;}
</style>
<g>
	<path class="st0" d="M124.1,26.4H6v92.8h118.2L124.1,26.4L124.1,26.4z"/>
	<path class="st1" d="M131,31H0v5.3h131V31z"/>
	<path class="st2" d="M130.7,31H0L6.3,0.3h118.2L130.7,31z"/>
	<rect x="22" y="42.3" class="st3" width="87" height="20"/>
	<path class="st4" d="M100,45.3c4,0,7.4,3.3,7.4,7.4v0.1c0,4-3.3,7.4-7.4,7.4H30.2c-4,0-7.4-3.3-7.4-7.4v-0.1c0-4,3.3-7.4,7.4-7.4
		H100z M100,38.2H30.2c-7.9,0-14.4,6.4-14.4,14.4v0.1c0,7.9,6.4,14.4,14.4,14.4H100c7.9,0,14.4-6.4,14.4-14.4v-0.1
		C114.3,44.7,107.9,38.2,100,38.2z"/>
	<g>
		<path class="st5" d="M101.5,50.9H30v82.3h71.5V50.9z"/>
		<path class="st6" d="M101.5,134.7H30c-0.8,0-1.5-0.7-1.5-1.5V50.9c0-0.8,0.7-1.5,1.5-1.5h71.5c0.8,0,1.5,0.7,1.5,1.5v82.3
			C103,134.1,102.3,134.7,101.5,134.7z M31.5,131.7H100V52.4H31.5V131.7z"/>
	</g>
</g>
</svg>
