<?xml version="1.0" encoding="utf-8"?>
<!-- Generator: Adobe Illustrator 23.1.0, SVG Export Plug-In . SVG Version: 6.00 Build 0)  -->
<svg version="1.1" id="Layer_1" xmlns="http://www.w3.org/2000/svg" xmlns:xlink="http://www.w3.org/1999/xlink" x="0px" y="0px"
	 viewBox="0 0 551 122" style="enable-background:new 0 0 551 122;" xml:space="preserve">
<style type="text/css">
	.st0{fill:#F7F6AF;}
	.st1{fill:#ADD2B6;}
	.st2{fill:#FFFFFF;}
	.st3{fill:#C9241E;}
</style>
<g>
	<g>
		<path class="st0" d="M49.4,1.5c-0.2-0.2-0.5-0.4-0.8-0.4H34.3c-0.5,0-0.9,0.3-1,0.8L19.6,66.6c-0.8,3.9-2.1,6.7-3.9,8.5
			c-1.8,1.7-4,2.6-6.8,2.6c-1.5,0-2.8-0.1-4-0.3c-1.2-0.2-2.4-0.4-3.4-0.7c-0.1,0-0.2,0-0.2,0c-0.2,0-0.4,0.1-0.6,0.2
			c-0.2,0.2-0.4,0.5-0.4,0.8v11.9c0,0.4,0.3,0.8,0.7,1c1.2,0.3,2.4,0.6,3.8,0.9c1.4,0.3,3.1,0.4,5.2,0.4c7,0,12.6-1.8,16.7-5.3
			c4.1-3.5,7-9.4,8.7-17.4L49.6,2.3C49.7,2,49.6,1.7,49.4,1.5z"/>
		<path class="st0" d="M88.8,11.3c0.3-0.1,0.5-0.4,0.6-0.7l1.7-8.3c0.1-0.3,0-0.6-0.2-0.8c-0.2-0.2-0.5-0.4-0.8-0.4H59.8
			c-0.5,0-0.9,0.3-1,0.8l-1.7,8.3c-0.1,0.4,0.1,0.9,0.5,1.1l6.4,3.5l-9.1,43.1l-8.3,3.6c-0.3,0.1-0.5,0.4-0.6,0.7l-1.7,8.3
			c-0.1,0.3,0,0.6,0.2,0.8c0.2,0.2,0.5,0.4,0.8,0.4h30.3c0.5,0,0.9-0.3,1-0.8l1.7-8.3c0.1-0.4-0.1-0.9-0.5-1.1L71.2,58l9.1-43.1
			L88.8,11.3z"/>
		<path class="st0" d="M157.8,1.1L157.8,1.1h-12.9c-0.5,0-0.9,0.3-1,0.8L137,34.4c-0.4,1.8-0.8,3.9-1.2,6.2
			c-0.4,2.3-0.8,4.6-1.1,6.7c-0.1,0.7-0.2,1.3-0.3,1.9L119.5,1.8c-0.1-0.4-0.5-0.7-1-0.7h-16.7c-0.5,0-0.9,0.3-1,0.8L86.3,70.5
			c-0.1,0.3,0,0.6,0.2,0.8c0.2,0.2,0.5,0.4,0.8,0.4h12.9c0.5,0,0.9-0.3,1-0.8l6.8-32.3c0.3-1.7,0.7-3.6,1-5.7c0.4-2.2,0.7-4.2,1-6.1
			c0.3-1.7,0.5-3.3,0.6-4.6L126.3,71c0.1,0.4,0.5,0.7,1,0.7h16c0.5,0,0.9-0.3,1-0.8l14.5-68.5c0-0.1,0-0.2,0-0.3
			C158.8,1.6,158.3,1.1,157.8,1.1z"/>
		<path class="st0" d="M189.1,30.5c-0.2-0.2-0.5-0.4-0.8-0.4h-24.6c-0.5,0-0.9,0.3-1,0.8l-2.5,11.7c-0.1,0.3,0,0.6,0.2,0.8
			c0.2,0.2,0.5,0.4,0.8,0.4h24.6c0.5,0,0.9-0.3,1-0.8l2.5-11.7C189.3,31,189.3,30.7,189.1,30.5z"/>
		<path class="st0" d="M240.7,4.9c-2.9-1.6-5.9-2.8-9-3.5c-3.1-0.8-6.5-1.2-10.1-1.2c-4.9,0-9.2,0.9-12.9,2.8
			c-3.7,1.9-6.6,4.5-8.6,7.7c-2,3.3-3,7.1-3,11.3c0,3.3,0.6,6.2,1.8,8.7c1.2,2.4,2.8,4.6,4.6,6.4c1.8,1.8,3.7,3.4,5.7,4.8
			c2.4,1.8,4.3,3.4,5.8,4.9c1.3,1.3,2,3.1,2,5.5c0,2.2-0.9,3.8-2.7,4.8c-1.9,1.1-4.5,1.7-7.5,1.7c-2.8,0-5.5-0.4-8.1-1.3
			c-2.7-0.9-5.4-2.1-8.2-3.7c-0.2-0.1-0.3-0.1-0.5-0.1c-0.2,0-0.3,0-0.5,0.1c-0.3,0.2-0.5,0.5-0.5,0.9v12.9c0,0.3,0.2,0.7,0.5,0.8
			c2.1,1.3,4.6,2.4,7.5,3.2c2.9,0.8,6.2,1.2,9.7,1.2c4.8,0,9.3-0.8,13.3-2.4c4-1.6,7.3-4.1,9.7-7.3c2.5-3.3,3.7-7.5,3.7-12.5
			c0-4.2-1-7.9-3-11.1c-2-3.1-4.9-6-8.8-8.6c-2.6-1.7-4.7-3.3-6.1-4.7c-1.3-1.3-1.9-2.9-1.9-5.1c0-2.1,0.7-3.7,2.1-4.8
			c1.5-1.2,3.4-1.8,5.7-1.8c4,0,8.4,1.1,13.1,3.4c0.1,0.1,0.3,0.1,0.4,0.1c0.1,0,0.2,0,0.3-0.1c0.3-0.1,0.5-0.3,0.6-0.5l5.1-10.9
			C241.4,5.7,241.2,5.2,240.7,4.9z"/>
		<path class="st0" d="M295,36.2c2.7-3.7,4.1-8.5,4.1-14.1c0-4.1-0.8-7.8-2.4-10.9c-1.6-3.2-4.2-5.7-7.7-7.5
			c-3.5-1.7-8.1-2.6-13.8-2.6h-19.1c-0.5,0-0.9,0.3-1,0.8l-14.5,68.5c-0.1,0.3,0,0.6,0.2,0.8c0.2,0.2,0.5,0.4,0.8,0.4h14.3
			c0.5,0,0.9-0.3,1-0.8l4.9-23.6h6.5c5.8,0,11.1-0.9,15.6-2.7C288.5,42.8,292.3,39.9,295,36.2z M279.2,30.4c-2.4,2-5.7,2.9-9.7,2.9
			h-4.6l3.9-18.4h5.9c5.5,0,8.1,2.4,8.1,7.4C282.7,25.9,281.6,28.5,279.2,30.4z"/>
		<path class="st0" d="M340.5,1.1H323c-0.4,0-0.7,0.2-0.9,0.5l-35.9,68.5c-0.2,0.3-0.2,0.7,0,1c0.2,0.3,0.5,0.5,0.9,0.5h15
			c0.4,0,0.7-0.2,0.9-0.6l7.8-15.8h20.6l1.1,15.4c0,0.5,0.5,0.9,1,0.9h13.9c0.3,0,0.6-0.1,0.7-0.3c0.2-0.2,0.3-0.5,0.3-0.8L341.5,2
			C341.4,1.5,341,1.1,340.5,1.1z M330.6,41.2h-13l8.3-17.1c1-2,1.8-3.9,2.6-5.5c0.1-0.3,0.3-0.6,0.4-0.9c0,0.4,0,0.9,0.1,1.3
			c0.1,1.9,0.3,3.8,0.4,5.7L330.6,41.2z"/>
		<path class="st0" d="M403.1,3.7c-3.5-1.7-8.1-2.6-13.8-2.6h-19.1c-0.5,0-0.9,0.3-1,0.8l-14.5,68.5c-0.1,0.3,0,0.6,0.2,0.8
			c0.2,0.2,0.5,0.4,0.8,0.4h14.3c0.5,0,0.9-0.3,1-0.8l4.9-23.6h6.5c5.8,0,11.1-0.9,15.6-2.7c4.6-1.8,8.4-4.6,11.1-8.4
			c2.7-3.7,4.1-8.5,4.1-14.1c0-4.1-0.8-7.8-2.4-10.9C409.2,8,406.6,5.5,403.1,3.7z M393.2,30.4c-2.4,2-5.7,2.9-9.7,2.9h-4.6
			l3.9-18.4h5.9c5.5,0,8.1,2.4,8.1,7.4C396.8,25.9,395.6,28.5,393.2,30.4z"/>
		<path class="st0" d="M468,2.4c0-0.1,0-0.2,0-0.3c0-0.6-0.4-1-1-1h0h-38.3c-0.5,0-0.9,0.3-1,0.8l-14.5,68.5c-0.1,0.3,0,0.6,0.2,0.8
			c0.2,0.2,0.5,0.4,0.8,0.4h38.3c0.5,0,0.9-0.3,1-0.8l2.5-12c0.1-0.3,0-0.6-0.2-0.8c-0.2-0.2-0.5-0.4-0.8-0.4h-22.8l3.3-15.7h21.6
			c0.5,0,0.9-0.3,1-0.8l2.6-11.8c0-0.1,0-0.2,0-0.3c0-0.6-0.4-1-1-1h0h-21.1l2.7-13.1h23.2c0.5,0,0.9-0.3,1-0.8L468,2.4z"/>
		<path class="st0" d="M506.1,42.2c4.1-1.6,7.5-4,10.2-7.3c3-3.6,4.5-8.3,4.5-13.9c0-7-2.2-12.1-6.4-15.2c-4.2-3.1-9.8-4.6-16.9-4.6
			h-16.8c-0.5,0-0.9,0.3-1,0.8l-14.5,68.5c-0.1,0.3,0,0.6,0.2,0.8c0.2,0.2,0.5,0.4,0.8,0.4h14.3c0.5,0,0.9-0.3,1-0.8l5.4-25.5h4.1
			l9.5,25.6c0.1,0.4,0.5,0.7,0.9,0.7h15.6c0.3,0,0.6-0.2,0.8-0.4c0.2-0.3,0.2-0.6,0.1-0.9L506.1,42.2z M504.2,21.7
			c0,3.4-1,5.8-3,7.4c-2.1,1.6-5.1,2.5-8.9,2.5h-2.4l3.5-16.5h2.6C501.6,15,504.2,17.2,504.2,21.7z"/>
	</g>
	<g>
		<path class="st1" d="M79.4,31.5c-0.2-0.2-0.5-0.4-0.8-0.4H64.3c-0.5,0-0.9,0.3-1,0.8L49.6,96.6c-0.8,3.9-2.1,6.7-3.9,8.5
			c-1.8,1.7-4,2.6-6.8,2.6c-1.5,0-2.8-0.1-4-0.3c-1.2-0.2-2.4-0.4-3.4-0.7c-0.1,0-0.2,0-0.2,0c-0.2,0-0.4,0.1-0.6,0.2
			c-0.2,0.2-0.4,0.5-0.4,0.8v11.9c0,0.4,0.3,0.8,0.7,1c1.2,0.3,2.4,0.6,3.8,0.9c1.4,0.3,3.1,0.4,5.2,0.4c7,0,12.6-1.8,16.7-5.3
			c4.1-3.5,7-9.4,8.7-17.4l14.2-66.7C79.7,32,79.6,31.7,79.4,31.5z"/>
		<path class="st1" d="M118.8,41.3c0.3-0.1,0.5-0.4,0.6-0.7l1.7-8.3c0.1-0.3,0-0.6-0.2-0.8c-0.2-0.2-0.5-0.4-0.8-0.4H89.8
			c-0.5,0-0.9,0.3-1,0.8l-1.7,8.3c-0.1,0.4,0.1,0.9,0.5,1.1l6.4,3.5l-9.1,43.1l-8.3,3.6c-0.3,0.1-0.5,0.4-0.6,0.7l-1.7,8.3
			c-0.1,0.3,0,0.6,0.2,0.8c0.2,0.2,0.5,0.4,0.8,0.4h30.3c0.5,0,0.9-0.3,1-0.8l1.7-8.3c0.1-0.4-0.1-0.9-0.5-1.1l-6.6-3.5l9.1-43.1
			L118.8,41.3z"/>
		<path class="st1" d="M187.8,31.1L187.8,31.1h-12.9c-0.5,0-0.9,0.3-1,0.8L167,64.4c-0.4,1.8-0.8,3.9-1.2,6.2
			c-0.4,2.3-0.8,4.6-1.1,6.7c-0.1,0.7-0.2,1.3-0.3,1.9l-14.9-47.4c-0.1-0.4-0.5-0.7-1-0.7h-16.7c-0.5,0-0.9,0.3-1,0.8l-14.5,68.5
			c-0.1,0.3,0,0.6,0.2,0.8c0.2,0.2,0.5,0.4,0.8,0.4h12.9c0.5,0,0.9-0.3,1-0.8l6.8-32.3c0.3-1.7,0.7-3.6,1-5.7c0.4-2.2,0.7-4.2,1-6.1
			c0.3-1.7,0.5-3.3,0.6-4.6l15.7,48.7c0.1,0.4,0.5,0.7,1,0.7h16c0.5,0,0.9-0.3,1-0.8l14.5-68.5c0-0.1,0-0.2,0-0.3
			C188.8,31.6,188.3,31.1,187.8,31.1z"/>
		<path class="st1" d="M219.1,60.5c-0.2-0.2-0.5-0.4-0.8-0.4h-24.6c-0.5,0-0.9,0.3-1,0.8l-2.5,11.7c-0.1,0.3,0,0.6,0.2,0.8
			c0.2,0.2,0.5,0.4,0.8,0.4h24.6c0.5,0,0.9-0.3,1-0.8l2.5-11.7C219.3,61,219.3,60.7,219.1,60.5z"/>
		<path class="st1" d="M270.7,34.9c-2.9-1.6-5.9-2.8-9-3.5c-3.1-0.8-6.5-1.2-10.1-1.2c-4.9,0-9.2,0.9-12.9,2.8
			c-3.7,1.9-6.6,4.5-8.6,7.7c-2,3.3-3,7.1-3,11.3c0,3.3,0.6,6.2,1.8,8.7c1.2,2.4,2.8,4.6,4.6,6.4c1.8,1.8,3.7,3.4,5.7,4.8
			c2.4,1.8,4.3,3.4,5.8,4.9c1.3,1.3,2,3.1,2,5.5c0,2.2-0.9,3.8-2.7,4.8c-1.9,1.1-4.5,1.7-7.5,1.7c-2.8,0-5.5-0.4-8.1-1.3
			c-2.7-0.9-5.4-2.1-8.2-3.7c-0.2-0.1-0.3-0.1-0.5-0.1c-0.2,0-0.3,0-0.5,0.1c-0.3,0.2-0.5,0.5-0.5,0.9v12.9c0,0.3,0.2,0.7,0.5,0.8
			c2.1,1.3,4.6,2.4,7.5,3.2c2.9,0.8,6.2,1.2,9.7,1.2c4.8,0,9.3-0.8,13.3-2.4c4-1.6,7.3-4.1,9.7-7.3c2.5-3.3,3.7-7.5,3.7-12.5
			c0-4.2-1-7.9-3-11.1c-2-3.1-4.9-6-8.8-8.6c-2.6-1.7-4.7-3.3-6.1-4.7c-1.3-1.3-1.9-2.9-1.9-5.1c0-2.1,0.7-3.7,2.1-4.8
			c1.5-1.2,3.4-1.8,5.7-1.8c4,0,8.4,1.1,13.1,3.4c0.1,0.1,0.3,0.1,0.4,0.1c0.1,0,0.2,0,0.3-0.1c0.3-0.1,0.5-0.3,0.6-0.5l5.1-10.9
			C271.4,35.7,271.2,35.2,270.7,34.9z"/>
		<path class="st1" d="M325,66.2c2.7-3.7,4.1-8.5,4.1-14.1c0-4.1-0.8-7.8-2.4-10.9c-1.6-3.2-4.2-5.7-7.7-7.5
			c-3.5-1.7-8.1-2.6-13.8-2.6h-19.1c-0.5,0-0.9,0.3-1,0.8l-14.5,68.5c-0.1,0.3,0,0.6,0.2,0.8c0.2,0.2,0.5,0.4,0.8,0.4h14.3
			c0.5,0,0.9-0.3,1-0.8l4.9-23.6h6.5c5.8,0,11.1-0.9,15.6-2.7C318.5,72.8,322.3,69.9,325,66.2z M309.2,60.4c-2.4,2-5.7,2.9-9.7,2.9
			h-4.6l3.9-18.4h5.9c5.5,0,8.1,2.4,8.1,7.4C312.7,55.9,311.6,58.5,309.2,60.4z"/>
		<path class="st1" d="M370.5,31.1H353c-0.4,0-0.7,0.2-0.9,0.5l-35.9,68.5c-0.2,0.3-0.2,0.7,0,1c0.2,0.3,0.5,0.5,0.9,0.5h15
			c0.4,0,0.7-0.2,0.9-0.6l7.8-15.8h20.6l1.1,15.4c0,0.5,0.5,0.9,1,0.9h13.9c0.3,0,0.6-0.1,0.7-0.3c0.2-0.2,0.3-0.5,0.3-0.8L371.5,32
			C371.4,31.5,371,31.1,370.5,31.1z M360.6,71.2h-13l8.3-17.1c1-2,1.8-3.9,2.6-5.5c0.1-0.3,0.3-0.6,0.4-0.9c0,0.4,0,0.9,0.1,1.3
			c0.1,1.9,0.3,3.8,0.4,5.7L360.6,71.2z"/>
		<path class="st1" d="M433.1,33.7c-3.5-1.7-8.1-2.6-13.8-2.6h-19.1c-0.5,0-0.9,0.3-1,0.8l-14.5,68.5c-0.1,0.3,0,0.6,0.2,0.8
			c0.2,0.2,0.5,0.4,0.8,0.4h14.3c0.5,0,0.9-0.3,1-0.8l4.9-23.6h6.5c5.8,0,11.1-0.9,15.6-2.7c4.6-1.8,8.4-4.6,11.1-8.4
			c2.7-3.7,4.1-8.5,4.1-14.1c0-4.1-0.8-7.8-2.4-10.9C439.2,38,436.6,35.5,433.1,33.7z M423.2,60.4c-2.4,2-5.7,2.9-9.7,2.9h-4.6
			l3.9-18.4h5.9c5.5,0,8.1,2.4,8.1,7.4C426.8,55.9,425.6,58.5,423.2,60.4z"/>
		<path class="st1" d="M498,32.4c0-0.1,0-0.2,0-0.3c0-0.6-0.4-1-1-1h0h-38.3c-0.5,0-0.9,0.3-1,0.8l-14.5,68.5
			c-0.1,0.3,0,0.6,0.2,0.8c0.2,0.2,0.5,0.4,0.8,0.4h38.3c0.5,0,0.9-0.3,1-0.8l2.5-12c0.1-0.3,0-0.6-0.2-0.8
			c-0.2-0.2-0.5-0.4-0.8-0.4h-22.8l3.3-15.7h21.6c0.5,0,0.9-0.3,1-0.8l2.6-11.8c0-0.1,0-0.2,0-0.3c0-0.6-0.4-1-1-1h0h-21.1l2.7-13.1
			h23.2c0.5,0,0.9-0.3,1-0.8L498,32.4z"/>
		<path class="st1" d="M536.1,72.2c4.1-1.6,7.5-4,10.2-7.3c3-3.6,4.5-8.3,4.5-13.9c0-7-2.2-12.1-6.4-15.2c-4.2-3.1-9.8-4.6-16.9-4.6
			h-16.8c-0.5,0-0.9,0.3-1,0.8l-14.5,68.5c-0.1,0.3,0,0.6,0.2,0.8c0.2,0.2,0.5,0.4,0.8,0.4h14.3c0.5,0,0.9-0.3,1-0.8l5.4-25.5h4.1
			l9.5,25.6c0.1,0.4,0.5,0.7,0.9,0.7h15.6c0.3,0,0.6-0.2,0.8-0.4c0.2-0.3,0.2-0.6,0.1-0.9L536.1,72.2z M534.2,51.7
			c0,3.4-1,5.8-3,7.4c-2.1,1.6-5.1,2.5-8.9,2.5h-2.4l3.5-16.5h2.6C531.6,45,534.2,47.2,534.2,51.7z"/>
	</g>
	<g>
		<g>
			<path class="st2" d="M24.9,108.3c-2.1,0-4-0.1-5.5-0.4c-1.4-0.3-2.7-0.6-3.9-0.9c-1.1-0.3-1.8-1.3-1.8-2.4V92.7
				c0-0.8,0.3-1.5,0.9-2c0.4-0.4,1-0.5,1.6-0.5c0.2,0,0.4,0,0.6,0.1c1,0.2,2.1,0.5,3.3,0.6c1.1,0.2,2.4,0.3,3.8,0.3
				c2.4,0,4.3-0.7,5.8-2.1c1.6-1.5,2.7-4.1,3.5-7.7l13.7-64.7c0.2-1.2,1.3-2,2.4-2h14.3c0.8,0,1.5,0.3,1.9,0.9
				c0.5,0.6,0.7,1.4,0.5,2.1L51.9,84.4c-1.8,8.4-4.9,14.5-9.2,18.3C38.3,106.4,32.3,108.3,24.9,108.3z"/>
			<path class="st3" d="M63.6,17.1L49.4,83.8c-1.7,7.9-4.5,13.5-8.4,16.9c-3.9,3.4-9.3,5.1-16.1,5.1c-2,0-3.6-0.1-5-0.4
				c-1.3-0.3-2.6-0.5-3.7-0.9V92.7c1.1,0.3,2.3,0.5,3.5,0.7c1.2,0.2,2.6,0.3,4.2,0.3c3.1,0,5.6-0.9,7.5-2.8c2-1.9,3.3-4.9,4.2-9
				l13.7-64.7H63.6 M63.6,12.1H49.3c-2.4,0-4.4,1.7-4.9,4L30.7,80.8c-0.8,3.9-1.9,5.6-2.8,6.4c-0.6,0.6-1.7,1.4-4.1,1.4
				c-1.3,0-2.4-0.1-3.4-0.2c-1.1-0.2-2.2-0.4-3.1-0.6c-0.4-0.1-0.8-0.1-1.1-0.1c-1.1,0-2.2,0.4-3.1,1.1c-1.2,0.9-1.9,2.4-1.9,3.9
				v11.9c0,2.2,1.5,4.2,3.7,4.8c1.3,0.4,2.7,0.7,4.1,1c1.7,0.3,3.6,0.5,5.9,0.5c8,0,14.5-2.1,19.3-6.3c4.8-4.2,8.1-10.6,10-19.6
				l14.2-66.7c0.3-1.5-0.1-3-1-4.2C66.6,12.8,65.1,12.1,63.6,12.1L63.6,12.1z M63.6,22.1L63.6,22.1L63.6,22.1L63.6,22.1z"/>
		</g>
		<g>
			<path class="st2" d="M60.3,88.2c-0.8,0-1.5-0.3-1.9-0.9c-0.5-0.6-0.7-1.4-0.5-2.1l1.7-8.3c0.2-0.8,0.7-1.5,1.4-1.8l7.6-3.3
				l8.8-41.3l-5.5-3c-1-0.5-1.5-1.6-1.3-2.7l1.7-8.3c0.2-1.2,1.3-2,2.4-2h30.3c0.8,0,1.5,0.3,1.9,0.9c0.5,0.6,0.7,1.4,0.5,2.1
				l-1.7,8.3c-0.2,0.8-0.7,1.5-1.5,1.8L96.6,31l-8.7,41.2l5.6,3c1,0.5,1.5,1.6,1.3,2.7l-1.7,8.3c-0.2,1.2-1.3,2-2.4,2H60.3z"/>
			<path class="st3" d="M105.1,17.1l-1.7,8.3l-8.9,3.8L85,73.6l7.3,3.8l-1.7,8.3H60.3l1.7-8.3l8.7-3.8l9.4-44.4L73,25.4l1.7-8.3
				H105.1 M105.1,12.1H74.8c-2.4,0-4.4,1.7-4.9,4l-1.7,8.3c-0.5,2.2,0.6,4.4,2.5,5.4l3.8,2.1L66.4,70L60,72.8
				c-1.5,0.6-2.6,2-2.9,3.6l-1.7,8.3c-0.3,1.5,0.1,3,1,4.2c0.9,1.2,2.4,1.8,3.9,1.8h30.3c2.4,0,4.4-1.7,4.9-4l1.7-8.3
				c0.5-2.2-0.6-4.4-2.6-5.4l-3.9-2.1l8.1-38.1l6.5-2.8c1.5-0.6,2.6-2,2.9-3.6l1.7-8.3c0.3-1.5-0.1-3-1-4.2
				C108,12.8,106.6,12.1,105.1,12.1L105.1,12.1z M105.1,22.1L105.1,22.1L105.1,22.1L105.1,22.1z"/>
		</g>
		<g>
			<path class="st2" d="M142.3,88.2c-1.1,0-2-0.7-2.4-1.7l-13.7-42.5c-0.2,1.4-0.4,2.8-0.7,4.3c-0.4,2.1-0.7,4-1,5.7l-6.8,32.3
				c-0.2,1.2-1.3,2-2.4,2h-12.9c-0.8,0-1.5-0.3-1.9-0.9s-0.7-1.4-0.5-2.1l14.5-68.5c0.2-1.2,1.3-2,2.4-2h16.7c1.1,0,2.1,0.7,2.4,1.7
				l13,41.3c0.1-0.8,0.3-1.6,0.4-2.4c0.4-2.3,0.8-4.4,1.2-6.2l6.9-32.4c0.2-1.2,1.3-2,2.4-2h12.9c0.8,0,1.5,0.3,1.9,0.9
				s0.7,1.4,0.5,2.1l-14.5,68.5c-0.2,1.2-1.3,2-2.4,2H142.3z"/>
			<path class="st3" d="M172.8,17.1L172.8,17.1 M172.8,17.1l-14.5,68.5h-16l-16.7-51.8h-0.5c-0.1,0.4-0.2,1.3-0.4,2.7
				c-0.2,1.4-0.4,3.2-0.7,5.1c-0.3,2-0.6,4-1,6.1c-0.4,2.1-0.7,4-1,5.6l-6.8,32.3h-12.9l14.5-68.5h16.7l15.9,50.5h0.4
				c0.3-1.3,0.5-3.1,0.9-5.2c0.3-2.1,0.7-4.4,1.1-6.7c0.4-2.3,0.8-4.4,1.2-6.1l6.9-32.4H172.8 M172.8,12.1L172.8,12.1h-12.9
				c-2.4,0-4.4,1.7-4.9,4l-6.7,31.4l-10.1-31.9c-0.7-2.1-2.6-3.5-4.8-3.5h-16.7c-2.4,0-4.4,1.7-4.9,4L97.4,84.6
				c-0.3,1.5,0.1,3,1,4.2c0.9,1.2,2.4,1.9,3.9,1.9h12.9c2.4,0,4.4-1.7,4.9-4l6.8-32.3c0,0,0-0.1,0-0.1c0,0,0,0,0,0l10.6,32.9
				c0.7,2.1,2.6,3.5,4.8,3.5h16c2.4,0,4.4-1.7,4.9-4l14.5-68.4c0.1-0.4,0.1-0.8,0.1-1.2C177.8,14.4,175.5,12.1,172.8,12.1
				L172.8,12.1z M172.8,22.1L172.8,22.1L172.8,22.1L172.8,22.1z"/>
		</g>
		<g>
			<path class="st2" d="M176.2,60.3c-0.8,0-1.5-0.3-1.9-0.9c-0.5-0.6-0.7-1.4-0.5-2.1l2.5-11.7c0.2-1.2,1.3-2,2.4-2h24.6
				c0.8,0,1.5,0.3,1.9,0.9c0.5,0.6,0.7,1.4,0.5,2.1l-2.5,11.7c-0.2,1.2-1.3,2-2.4,2H176.2z"/>
			<path class="st3" d="M203.3,46.1l-2.5,11.7h-24.6l2.5-11.7H203.3 M203.3,41.1h-24.6c-2.4,0-4.4,1.6-4.9,4l-2.5,11.7
				c-0.3,1.5,0.1,3,1,4.2c0.9,1.2,2.4,1.9,3.9,1.9h24.6c2.4,0,4.4-1.6,4.9-4l2.5-11.7c0.3-1.5-0.1-3-1-4.2
				C206.2,41.8,204.8,41.1,203.3,41.1L203.3,41.1z M203.3,51.1L203.3,51.1L203.3,51.1L203.3,51.1z"/>
		</g>
		<g>
			<path class="st2" d="M221.8,89.1c-3.7,0-7.1-0.4-10.1-1.2c-3.1-0.8-5.8-2-8-3.4c-0.7-0.5-1.1-1.3-1.1-2.1V69.5
				c0-0.9,0.5-1.7,1.2-2.2c0.4-0.2,0.8-0.3,1.3-0.3c0.4,0,0.9,0.1,1.2,0.3c2.7,1.5,5.3,2.7,7.9,3.5c2.5,0.8,5.1,1.2,7.7,1.2
				c2.7,0,5-0.5,6.7-1.5c1.3-0.8,1.9-1.8,1.9-3.5c0-1.9-0.5-3.4-1.6-4.4c-1.4-1.4-3.4-3-5.7-4.7c-2-1.5-4-3.1-5.8-4.9
				c-2-1.9-3.6-4.2-4.9-6.8c-1.3-2.7-2-5.8-2-9.3c0-4.5,1.1-8.6,3.3-12.1c2.2-3.5,5.3-6.3,9.2-8.3c3.9-2,8.5-3,13.6-3
				c3.8,0,7.3,0.4,10.5,1.2c3.2,0.8,6.3,2.1,9.3,3.7c1.2,0.6,1.6,2.1,1.1,3.2l-5.1,10.9c-0.3,0.6-0.8,1.1-1.4,1.3
				c-0.3,0.1-0.6,0.1-0.8,0.1c-0.4,0-0.7-0.1-1.1-0.2c-4.5-2.1-8.7-3.2-12.5-3.2c-2,0-3.5,0.5-4.7,1.5c-1.1,0.9-1.6,2.1-1.6,3.7
				c0,1.7,0.5,3.1,1.5,4c1.4,1.3,3.3,2.9,5.9,4.6c4,2.7,7.2,5.7,9.2,9c2.1,3.4,3.2,7.4,3.2,11.9c0,5.3-1.3,9.8-4,13.4
				c-2.6,3.5-6.1,6.1-10.4,7.8C231.5,88.3,226.9,89.1,221.8,89.1z"/>
			<path class="st3" d="M236.6,16.2c3.6,0,6.9,0.4,9.9,1.2c3,0.8,5.9,1.9,8.7,3.5l-5.1,10.9c-4.9-2.3-9.4-3.5-13.5-3.5
				c-2.6,0-4.7,0.7-6.3,2.1c-1.7,1.4-2.5,3.2-2.5,5.6c0,2.4,0.7,4.4,2.2,5.8c1.5,1.4,3.6,3.1,6.2,4.8c3.8,2.5,6.6,5.2,8.5,8.3
				c1.9,3,2.8,6.5,2.8,10.6c0,4.8-1.2,8.8-3.5,11.9c-2.3,3.1-5.4,5.5-9.3,7c-3.9,1.5-8.2,2.3-12.9,2.3c-3.5,0-6.6-0.4-9.5-1.2
				c-2.8-0.8-5.3-1.8-7.2-3.1V69.5c2.8,1.6,5.6,2.8,8.4,3.7c2.8,0.9,5.6,1.3,8.4,1.3c3.2,0,5.9-0.6,8-1.8c2.1-1.2,3.2-3.1,3.2-5.7
				c0-2.6-0.8-4.7-2.3-6.2c-1.5-1.5-3.5-3.2-6-4.9c-1.9-1.4-3.8-3-5.6-4.7c-1.8-1.7-3.3-3.8-4.4-6.1c-1.2-2.3-1.7-5.1-1.7-8.2
				c0-4.1,1-7.7,2.9-10.8c1.9-3.1,4.7-5.6,8.2-7.3C227.7,17.1,231.9,16.2,236.6,16.2 M236.6,11.2c-5.5,0-10.4,1.1-14.7,3.2
				c-4.4,2.2-7.8,5.3-10.2,9.2c-2.4,3.9-3.6,8.4-3.6,13.4c0,3.9,0.8,7.4,2.2,10.4c1.4,2.8,3.2,5.4,5.4,7.5c1.9,1.9,4,3.6,6.1,5.1
				c2.2,1.6,4,3.1,5.4,4.5c0.2,0.2,0.8,0.8,0.8,2.6c0,0.9-0.2,1.1-0.7,1.3c-1.3,0.8-3.2,1.2-5.5,1.2c-2.3,0-4.7-0.4-6.9-1.1
				c-2.4-0.8-4.9-1.9-7.4-3.3c-0.8-0.4-1.6-0.7-2.5-0.7c-0.9,0-1.7,0.2-2.5,0.7c-1.5,0.9-2.5,2.5-2.5,4.3v12.9
				c0,1.7,0.9,3.3,2.3,4.2c2.4,1.6,5.3,2.8,8.7,3.7c3.3,0.9,6.9,1.3,10.8,1.3c5.3,0,10.3-0.9,14.8-2.7c4.7-1.9,8.6-4.8,11.5-8.7
				c3-4,4.5-9,4.5-14.9c0-5-1.2-9.4-3.6-13.2c-2.3-3.6-5.6-6.9-10-9.8c-2.4-1.6-4.3-3-5.5-4.3c-0.2-0.2-0.7-0.7-0.7-2.2
				c0-1.1,0.3-1.5,0.7-1.8c0.7-0.6,1.8-0.9,3.1-0.9c3.4,0,7.2,1,11.4,3c0.7,0.3,1.4,0.5,2.1,0.5c0.6,0,1.1-0.1,1.7-0.3
				c1.3-0.5,2.3-1.4,2.8-2.6l5.1-10.9c1.1-2.4,0.2-5.2-2.1-6.5c-3.2-1.7-6.5-3-9.9-3.9C244.3,11.6,240.6,11.2,236.6,11.2L236.6,11.2
				z"/>
		</g>
		<g>
			<path class="st2" d="M256.6,88.2c-0.8,0-1.5-0.3-1.9-0.9s-0.7-1.4-0.5-2.1l14.5-68.5c0.2-1.2,1.3-2,2.4-2h19.1
				c5.9,0,10.8,0.9,14.5,2.8c3.8,1.9,6.7,4.6,8.4,8.1c1.7,3.3,2.5,7.2,2.5,11.6c0,6-1.5,11-4.4,15c-2.9,4-6.9,6.9-11.8,8.9
				c-4.8,1.9-10.2,2.8-16.2,2.8H278l-4.7,22.4c-0.2,1.2-1.3,2-2.4,2H256.6z M284.4,46.9c3.7,0,6.6-0.9,8.8-2.6c2-1.6,3-3.8,3-6.8
				c0-4.2-1.9-5.9-6.6-5.9h-4.7l-3.3,15.4H284.4z"/>
			<path class="st3" d="M290.2,17.1c5.6,0,10,0.8,13.4,2.5c3.4,1.7,5.8,4,7.3,7c1.5,3,2.3,6.5,2.3,10.5c0,5.4-1.3,10-3.9,13.5
				c-2.6,3.6-6.2,6.3-10.7,8c-4.5,1.8-9.6,2.6-15.3,2.6H276l-5.1,24.4h-14.3l14.5-68.5H290.2 M278.6,49.4h5.9
				c4.3,0,7.7-1.1,10.4-3.2c2.6-2.1,3.9-5,3.9-8.7c0-5.6-3-8.4-9.1-8.4h-6.7L278.6,49.4 M290.2,12.1h-19.1c-2.4,0-4.4,1.7-4.9,4
				l-14.5,68.5c-0.3,1.5,0.1,3,1,4.2c0.9,1.2,2.4,1.9,3.9,1.9h14.3c2.4,0,4.4-1.7,4.9-4l4.3-20.4h3.2c6.3,0,12-1,17.1-3
				c5.4-2.1,9.7-5.4,12.9-9.7c3.3-4.4,4.9-10,4.9-16.5c0-4.7-0.9-9-2.8-12.7c-2-4-5.2-7.1-9.5-9.3C301.7,13.1,296.6,12.1,290.2,12.1
				L290.2,12.1z M286.9,34h2.7c3.9,0,4.1,1.2,4.1,3.4c0,2.8-1.1,4.1-2.1,4.8c-1.7,1.3-3.9,2-6.9,2.1L286.9,34L286.9,34z"/>
		</g>
		<g>
			<path class="st2" d="M348.5,88.2c-1.3,0-2.4-1-2.5-2.3l-1-14h-18.3l-7.4,14.9c-0.4,0.9-1.3,1.4-2.2,1.4h-15
				c-0.9,0-1.7-0.5-2.1-1.2c-0.5-0.7-0.5-1.7-0.1-2.5L335.8,16c0.4-0.8,1.3-1.3,2.2-1.3h17.5c1.3,0,2.4,1,2.5,2.2l6.9,68.5
				c0.1,0.7-0.2,1.4-0.6,1.9c-0.5,0.5-1.1,0.8-1.9,0.8H348.5z M344,54.7c0,0-1.1-15.7-1.1-16.1c-0.2,0.4-0.4,0.8-0.6,1.2L335,54.7
				H344z"/>
			<path class="st3" d="M355.5,17.1l6.9,68.5h-13.9l-1.2-16.3h-22.2l-8.1,16.3h-15L338,17.1H355.5 M344.9,28h-0.2
				c-0.6,1.7-1.3,3.4-2.1,5.1c-0.8,1.7-1.6,3.5-2.6,5.5l-9,18.5h15.6l-1.2-17.7c-0.1-1.9-0.3-3.7-0.4-5.7
				C344.9,31.9,344.8,30,344.9,28 M355.5,12.1H338c-1.9,0-3.6,1-4.4,2.7l-35.9,68.5c-0.8,1.5-0.8,3.4,0.2,4.9
				c0.9,1.5,2.5,2.4,4.3,2.4h15c1.9,0,3.6-1.1,4.5-2.8l6.7-13.5h14.4l0.8,11.7c0.2,2.6,2.4,4.6,5,4.6h13.9c1.4,0,2.8-0.6,3.7-1.6
				s1.4-2.4,1.3-3.9l-6.9-68.5C360.2,14.1,358,12.1,355.5,12.1L355.5,12.1z M339,52.2l2-4.1l0.3,4.1H339L339,52.2z"/>
		</g>
		<g>
			<path class="st2" d="M370.6,88.2c-0.8,0-1.5-0.3-1.9-0.9s-0.7-1.4-0.5-2.1l14.5-68.5c0.2-1.2,1.3-2,2.4-2h19.1
				c5.9,0,10.8,0.9,14.5,2.8c3.8,1.9,6.7,4.6,8.4,8.1c1.7,3.3,2.5,7.2,2.5,11.6c0,6-1.5,11-4.4,15c-2.9,4-6.9,6.9-11.8,8.9
				c-4.8,1.9-10.2,2.8-16.2,2.8h-5.3l-4.7,22.4c-0.2,1.2-1.3,2-2.4,2H370.6z M398.5,46.9c3.7,0,6.6-0.9,8.8-2.6c2-1.6,3-3.8,3-6.8
				c0-4.2-1.9-5.9-6.6-5.9H399l-3.3,15.4H398.5z"/>
			<path class="st3" d="M404.2,17.1c5.6,0,10,0.8,13.4,2.5c3.4,1.7,5.8,4,7.3,7c1.5,3,2.3,6.5,2.3,10.5c0,5.4-1.3,10-3.9,13.5
				c-2.6,3.6-6.2,6.3-10.7,8c-4.5,1.8-9.6,2.6-15.3,2.6H390l-5.1,24.4h-14.3l14.5-68.5H404.2 M392.6,49.4h5.9
				c4.3,0,7.7-1.1,10.4-3.2c2.6-2.1,3.9-5,3.9-8.7c0-5.6-3-8.4-9.1-8.4h-6.7L392.6,49.4 M404.2,12.1h-19.1c-2.4,0-4.4,1.7-4.9,4
				l-14.5,68.5c-0.3,1.5,0.1,3,1,4.2c0.9,1.2,2.4,1.9,3.9,1.9h14.3c2.4,0,4.4-1.7,4.9-4l4.3-20.4h3.2c6.3,0,12-1,17.1-3
				c5.4-2.1,9.7-5.4,12.9-9.7c3.3-4.4,4.9-10,4.9-16.5c0-4.7-0.9-9-2.8-12.7c-2-4-5.2-7.1-9.5-9.3C415.7,13.1,410.6,12.1,404.2,12.1
				L404.2,12.1z M401,34h2.7c3.9,0,4.1,1.2,4.1,3.4c0,2.8-1.1,4.1-2.1,4.8c-1.7,1.3-3.9,2-6.9,2.1L401,34L401,34z"/>
		</g>
		<g>
			<path class="st2" d="M429.2,88.2c-0.8,0-1.5-0.3-1.9-0.9s-0.7-1.4-0.5-2.1l14.5-68.5c0.2-1.2,1.3-2,2.4-2H482
				c0.8,0,1.5,0.3,1.9,0.9c0.5,0.6,0.7,1.4,0.5,2.1l-2.5,11.9c-0.2,1.2-1.3,2-2.4,2h-22l-2.1,10.1h19.3c0.8,0,1.5,0.3,1.9,0.9
				c0.5,0.6,0.7,1.4,0.5,2.1l-2.6,11.9c-0.3,1.1-1.3,2-2.4,2h-20.3l-2.7,12.7H470c0.8,0,1.5,0.3,1.9,0.9c0.5,0.6,0.7,1.3,0.5,2.1
				l-2.5,12c-0.2,1.2-1.3,2-2.4,2H429.2z"/>
			<path class="st3" d="M482,17.1L482,17.1 M482,17.1L479.5,29h-24l-3.2,15.1h22.4L472.1,56h-22.4L446,73.7h24l-2.5,12h-38.3
				l14.5-68.5H482 M474.7,44.1L474.7,44.1 M482,12.1L482,12.1h-38.3c-2.4,0-4.4,1.7-4.9,4l-14.5,68.5c-0.3,1.5,0.1,3,1,4.2
				c0.9,1.2,2.4,1.9,3.9,1.9h38.3c2.4,0,4.4-1.7,4.9-4l2.5-12c0.3-1.5-0.1-3-1-4.2c-0.9-1.2-2.4-1.8-3.9-1.8h-17.8l1.6-7.7h18.3
				c2.4,0,4.4-1.6,4.9-3.9l2.6-11.7c0.1-0.4,0.2-0.8,0.2-1.2c0-2.8-2.2-5-5-5h0h-16.2l1.1-5.1h19.9c2.4,0,4.4-1.7,4.9-4l2.5-11.7
				c0.1-0.4,0.1-0.8,0.1-1.2C487,14.4,484.8,12.1,482,12.1L482,12.1z M482,22.1L482,22.1L482,22.1L482,22.1z"/>
		</g>
		<g>
			<path class="st2" d="M516.4,88.2c-1,0-2-0.7-2.3-1.6l-9.1-24.7h-1.8L498,86.2c-0.2,1.2-1.3,2-2.4,2h-14.3c-0.8,0-1.5-0.3-1.9-0.9
				s-0.7-1.4-0.5-2.1l14.5-68.5c0.2-1.2,1.3-2,2.4-2h16.8c7.4,0,13.3,1.6,17.8,4.9c4.7,3.4,7,9,7,16.4c0,6-1.6,11-4.9,14.9
				c-2.6,3.1-5.7,5.5-9.4,7.1l11.2,26.7c0.3,0.8,0.2,1.7-0.2,2.4c-0.5,0.7-1.2,1.1-2.1,1.1H516.4z M507.2,45.1c3.5,0,6.2-0.7,8-2.2
				c1.7-1.3,2.5-3.3,2.5-6.2c0-2.7-0.8-5.2-6.7-5.2h-1.4l-2.9,13.5H507.2z"/>
			<path class="st3" d="M512.5,17.1c6.8,0,12.3,1.5,16.3,4.4c4,2.9,6,7.7,6,14.4c0,5.4-1.4,9.9-4.3,13.3c-2.8,3.4-6.4,5.9-10.8,7.3
				l12.2,29.1h-15.6l-9.7-26.3h-5.6l-5.6,26.3h-14.3l14.5-68.5H512.5 M503.6,47.6h3.6c4.1,0,7.3-0.9,9.6-2.7
				c2.3-1.8,3.4-4.5,3.4-8.2c0-5.1-3.1-7.7-9.2-7.7h-3.5L503.6,47.6 M512.5,12.1h-16.8c-2.4,0-4.4,1.7-4.9,4l-14.5,68.5
				c-0.3,1.5,0.1,3,1,4.2c0.9,1.2,2.4,1.9,3.9,1.9h14.3c2.4,0,4.4-1.7,4.9-4l4-18.9l7.2,19.6c0.7,2,2.6,3.3,4.7,3.3h15.6
				c1.7,0,3.2-0.8,4.2-2.2c0.9-1.4,1.1-3.2,0.4-4.7l-10.3-24.6c3.1-1.7,5.8-4,8.1-6.7c3.6-4.3,5.4-9.9,5.4-16.5
				c0-8.3-2.7-14.5-8-18.4C526.9,13.9,520.4,12.1,512.5,12.1L512.5,12.1z M509.8,42.4l1.8-8.4c3.6,0.1,3.6,1.2,3.6,2.7
				c0,3-1.1,3.9-1.5,4.2C512.8,41.7,511.5,42.2,509.8,42.4L509.8,42.4z"/>
		</g>
	</g>
</g>
</svg>
