<?xml version="1.0" encoding="utf-8"?>
<!-- Generator: Adobe Illustrator 23.1.0, SVG Export Plug-In . SVG Version: 6.00 Build 0)  -->
<svg version="1.1" id="Layer_1" xmlns="http://www.w3.org/2000/svg" xmlns:xlink="http://www.w3.org/1999/xlink" x="0px" y="0px"
	 viewBox="0 0 242 54" style="enable-background:new 0 0 242 54;" xml:space="preserve">
<style type="text/css">
	.st0{fill:#F7F6AF;}
	.st1{fill:#ADD2B6;}
	.st2{fill:#FFFFFF;}
	.st3{fill:#C9241E;}
</style>
<g>
	<g>
		<path class="st0" d="M21.9,0.3h-0.6H15h-0.4l-0.1,0.4L8.6,29c-0.3,1.7-0.9,2.9-1.7,3.7c-0.8,0.7-1.7,1.1-2.9,1.1
			c-0.6,0-1.2,0-1.8-0.1c-0.5-0.1-1-0.2-1.5-0.3l-0.6-0.1v0.6v5.2v0.4l0.4,0.1c0.5,0.1,1.1,0.3,1.7,0.4c0.6,0.1,1.4,0.2,2.3,0.2
			c3.1,0,5.6-0.8,7.4-2.3c1.8-1.6,3.1-4.1,3.8-7.7l6.2-29.2L21.9,0.3z"/>
		<polygon class="st0" points="38.9,4.9 39.1,4.8 39.2,4.5 39.9,0.9 40.1,0.3 39.5,0.3 26.2,0.3 25.8,0.3 25.7,0.7 24.9,4.3 
			24.9,4.7 25.2,4.9 28,6.4 24,25.1 20.4,26.7 20.2,26.8 20.1,27.1 19.3,30.7 19.2,31.3 19.8,31.3 33.1,31.3 33.5,31.3 33.6,30.9 
			34.4,27.3 34.4,26.9 34.1,26.7 31.2,25.2 35.2,6.5 		"/>
		<path class="st0" d="M69.7,0.3h-0.6h-5.6H63l-0.1,0.4l-3,14.2c-0.2,0.8-0.3,1.7-0.5,2.7c-0.2,1-0.3,2-0.5,2.9
			c0,0.2-0.1,0.4-0.1,0.6L52.4,0.7l-0.1-0.3h-0.4h-7.3h-0.4l-0.1,0.4l-6.3,30l-0.1,0.6h0.6h5.6h0.4l0.1-0.4l3-14.1
			c0.1-0.7,0.3-1.6,0.4-2.5c0.2-0.9,0.3-1.8,0.4-2.7c0.1-0.6,0.2-1.2,0.2-1.7l6.8,21.1l0.1,0.3h0.4h7h0.4l0.1-0.4l6.3-30L69.7,0.3z"
			/>
		<polygon class="st0" points="71.8,13.5 71.4,13.5 71.3,13.9 70.2,19 70.1,19.6 70.7,19.6 81.4,19.6 81.8,19.6 81.9,19.2 83,14.1 
			83.2,13.5 82.5,13.5 		"/>
		<path class="st0" d="M105.8,2.2L105.4,2c-1.3-0.7-2.6-1.2-3.9-1.6c-1.3-0.3-2.8-0.5-4.4-0.5c-2.1,0-4,0.4-5.7,1.2
			c-1.6,0.8-2.9,2-3.8,3.4c-0.9,1.4-1.3,3.1-1.3,5c0,1.4,0.3,2.7,0.8,3.8c0.5,1.1,1.2,2,2,2.8c0.8,0.8,1.6,1.5,2.5,2.1
			c1,0.8,1.9,1.5,2.5,2.1c0.6,0.6,0.9,1.3,0.9,2.4c0,0.9-0.4,1.6-1.1,2c-0.8,0.5-1.9,0.7-3.2,0.7c-1.2,0-2.4-0.2-3.5-0.6
			c-1.2-0.4-2.4-0.9-3.6-1.6l-0.7-0.4v0.9v5.6v0.3l0.2,0.1c0.9,0.6,2,1.1,3.3,1.4c1.3,0.3,2.7,0.5,4.3,0.5c2.1,0,4.1-0.4,5.8-1
			c1.8-0.7,3.2-1.8,4.3-3.2c1.1-1.5,1.6-3.3,1.6-5.5c0-1.9-0.4-3.5-1.3-4.9c-0.9-1.4-2.2-2.6-3.9-3.8c-1.1-0.8-2-1.5-2.7-2.1
			c-0.5-0.5-0.8-1.3-0.8-2.2c0-0.9,0.3-1.6,0.9-2.1C95.2,6.4,96,6.2,97,6.2c1.7,0,3.7,0.5,5.7,1.5l0.5,0.2l0.2-0.5l2.2-4.8
			L105.8,2.2z"/>
		<path class="st0" d="M129.1,15.8c1.2-1.6,1.8-3.7,1.8-6.2c0-1.8-0.3-3.4-1-4.8c-0.7-1.4-1.9-2.5-3.4-3.3c-1.5-0.8-3.6-1.1-6.1-1.1
			h-8.4h-0.4l-0.1,0.4l-6.3,30l-0.1,0.6h0.6h6.3h0.4l0.1-0.4l2.1-10.3h2.8c2.5,0,4.9-0.4,6.9-1.2C126.3,18.6,127.9,17.4,129.1,15.8z
			 M117.9,14.4H116l1.7-7.9h2.5c2.4,0,3.5,1,3.5,3.2c0,1.5-0.5,2.6-1.5,3.4C121.1,14,119.7,14.4,117.9,14.4z"/>
		<path class="st0" d="M149.5,0.8l0-0.4H149h-7.6H141l-0.1,0.3l-15.7,30l-0.4,0.7h0.8h6.6h0.3l0.1-0.3l3.4-6.9h8.9l0.5,6.7l0,0.5
			h0.5h6.1h0.6l-0.1-0.6L149.5,0.8z M144.6,17.8h-5.5l3.6-7.4c0.4-0.9,0.8-1.7,1.1-2.4c0-0.1,0.1-0.1,0.1-0.2c0,0.1,0,0.2,0,0.3
			c0.1,0.8,0.1,1.7,0.2,2.5L144.6,17.8z"/>
		<path class="st0" d="M179.8,4.7c-0.7-1.4-1.9-2.5-3.4-3.3c-1.5-0.8-3.6-1.1-6.1-1.1H162h-0.4l-0.1,0.4l-6.3,30l-0.1,0.6h0.6h6.3
			h0.4l0.1-0.4l2.1-10.3h2.8c2.5,0,4.9-0.4,6.9-1.2c2-0.8,3.7-2,4.9-3.7c1.2-1.6,1.8-3.7,1.8-6.2C180.9,7.7,180.5,6.1,179.8,4.7z
			 M167.8,14.4h-1.9l1.7-7.9h2.5c2.4,0,3.5,1,3.5,3.2c0,1.5-0.5,2.6-1.5,3.4C171,14,169.6,14.4,167.8,14.4z"/>
		<polygon class="st0" points="203.2,6.5 203.7,6.5 203.7,6.1 204.8,0.9 205,0.3 204.3,0.3 187.6,0.3 187.2,0.3 187.1,0.7 
			180.8,30.7 180.6,31.3 181.2,31.3 198,31.3 198.4,31.3 198.5,30.9 199.6,25.6 199.7,25 199.1,25 189.2,25 190.6,18.3 200,18.3 
			200.4,18.3 200.5,17.9 201.6,12.7 201.8,12.1 201.1,12.1 192,12.1 193.2,6.5 		"/>
		<path class="st0" d="M221.5,18.4c1.8-0.7,3.3-1.8,4.4-3.2c1.3-1.6,2-3.6,2-6.1c0-3.1-1-5.3-2.8-6.7c-1.8-1.3-4.3-2-7.4-2h-7.4
			h-0.4l-0.1,0.4l-6.3,30l-0.1,0.6h0.6h6.3h0.4l0.1-0.4l2.4-11.1h1.7l4.1,11.2l0.1,0.3h0.3h6.8h0.8l-0.3-0.7L221.5,18.4z M215.9,6.5
			h1.1c3.2,0,3.5,1.6,3.5,2.9c0,1.4-0.4,2.5-1.3,3.2c-0.9,0.7-2.2,1.1-3.9,1.1h-1L215.9,6.5z"/>
	</g>
	<g>
		<path class="st1" d="M35.9,14.3h-0.6H29h-0.4l-0.1,0.4l-6,28.3c-0.3,1.7-0.9,2.9-1.7,3.7c-0.8,0.7-1.7,1.1-2.9,1.1
			c-0.6,0-1.2,0-1.8-0.1c-0.5-0.1-1-0.2-1.5-0.3l-0.6-0.1v0.6v5.2v0.4l0.4,0.1c0.5,0.1,1.1,0.3,1.7,0.4c0.6,0.1,1.4,0.2,2.3,0.2
			c3.1,0,5.6-0.8,7.4-2.3c1.8-1.6,3.1-4.1,3.8-7.7l6.2-29.2L35.9,14.3z"/>
		<polygon class="st1" points="52.9,18.9 53.1,18.8 53.2,18.5 53.9,14.9 54.1,14.3 53.5,14.3 40.2,14.3 39.8,14.3 39.7,14.7 
			38.9,18.3 38.9,18.7 39.2,18.9 42,20.4 38,39.1 34.4,40.7 34.2,40.8 34.1,41.1 33.3,44.7 33.2,45.3 33.8,45.3 47.1,45.3 
			47.5,45.3 47.6,44.9 48.4,41.3 48.4,40.9 48.1,40.7 45.2,39.2 49.2,20.5 		"/>
		<path class="st1" d="M83.7,14.3h-0.6h-5.6H77l-0.1,0.4l-3,14.2c-0.2,0.8-0.3,1.7-0.5,2.7c-0.2,1-0.3,2-0.5,2.9
			c0,0.2-0.1,0.4-0.1,0.6l-6.5-20.5l-0.1-0.3h-0.4h-7.3h-0.4l-0.1,0.4l-6.3,30l-0.1,0.6h0.6h5.6h0.4l0.1-0.4l3-14.1
			c0.1-0.7,0.3-1.6,0.4-2.5c0.2-0.9,0.3-1.8,0.4-2.7c0.1-0.6,0.2-1.2,0.2-1.7l6.8,21.1l0.1,0.3h0.4h7h0.4l0.1-0.4l6.3-30L83.7,14.3z
			"/>
		<polygon class="st1" points="85.8,27.5 85.4,27.5 85.3,27.9 84.2,33 84.1,33.6 84.7,33.6 95.4,33.6 95.8,33.6 95.9,33.2 97,28.1 
			97.2,27.5 96.5,27.5 		"/>
		<path class="st1" d="M119.8,16.2l-0.4-0.2c-1.3-0.7-2.6-1.2-3.9-1.6c-1.3-0.3-2.8-0.5-4.4-0.5c-2.1,0-4,0.4-5.7,1.2
			c-1.6,0.8-2.9,2-3.8,3.4c-0.9,1.4-1.3,3.1-1.3,5c0,1.4,0.3,2.7,0.8,3.8c0.5,1.1,1.2,2,2,2.8c0.8,0.8,1.6,1.5,2.5,2.1
			c1,0.8,1.9,1.5,2.5,2.1c0.6,0.6,0.9,1.3,0.9,2.4c0,0.9-0.4,1.6-1.1,2c-0.8,0.5-1.9,0.7-3.2,0.7c-1.2,0-2.4-0.2-3.5-0.6
			c-1.2-0.4-2.4-0.9-3.6-1.6l-0.7-0.4v0.9v5.6v0.3l0.2,0.1c0.9,0.6,2,1.1,3.3,1.4c1.3,0.3,2.7,0.5,4.3,0.5c2.1,0,4.1-0.4,5.8-1
			c1.8-0.7,3.2-1.8,4.3-3.2c1.1-1.5,1.6-3.3,1.6-5.5c0-1.9-0.4-3.5-1.3-4.9c-0.9-1.4-2.2-2.6-3.9-3.8c-1.1-0.8-2-1.5-2.7-2.1
			c-0.5-0.5-0.8-1.3-0.8-2.2c0-0.9,0.3-1.6,0.9-2.1c0.6-0.5,1.4-0.8,2.5-0.8c1.7,0,3.7,0.5,5.7,1.5l0.5,0.2l0.2-0.5l2.2-4.8
			L119.8,16.2z"/>
		<path class="st1" d="M143.1,29.8c1.2-1.6,1.8-3.7,1.8-6.2c0-1.8-0.3-3.4-1-4.8c-0.7-1.4-1.9-2.5-3.4-3.3c-1.5-0.8-3.6-1.1-6.1-1.1
			h-8.4h-0.4l-0.1,0.4l-6.3,30l-0.1,0.6h0.6h6.3h0.4l0.1-0.4l2.1-10.3h2.8c2.5,0,4.9-0.4,6.9-1.2C140.3,32.6,141.9,31.4,143.1,29.8z
			 M131.9,28.4H130l1.7-7.9h2.5c2.4,0,3.5,1,3.5,3.2c0,1.5-0.5,2.6-1.5,3.4C135.1,28,133.7,28.4,131.9,28.4z"/>
		<path class="st1" d="M163.5,14.8l0-0.4H163h-7.6H155l-0.1,0.3l-15.7,30l-0.4,0.7h0.8h6.6h0.3l0.1-0.3l3.4-6.9h8.9l0.5,6.7l0,0.5
			h0.5h6.1h0.6l-0.1-0.6L163.5,14.8z M158.6,31.8h-5.5l3.6-7.4c0.4-0.9,0.8-1.7,1.1-2.4c0-0.1,0.1-0.1,0.1-0.2c0,0.1,0,0.2,0,0.3
			c0.1,0.8,0.1,1.7,0.2,2.5L158.6,31.8z"/>
		<path class="st1" d="M193.8,18.7c-0.7-1.4-1.9-2.5-3.4-3.3c-1.5-0.8-3.6-1.1-6.1-1.1H176h-0.4l-0.1,0.4l-6.3,30l-0.1,0.6h0.6h6.3
			h0.4l0.1-0.4l2.1-10.3h2.8c2.5,0,4.9-0.4,6.9-1.2c2-0.8,3.7-2,4.9-3.7c1.2-1.6,1.8-3.7,1.8-6.2C194.9,21.7,194.5,20.1,193.8,18.7z
			 M181.8,28.4h-1.9l1.7-7.9h2.5c2.4,0,3.5,1,3.5,3.2c0,1.5-0.5,2.6-1.5,3.4C185,28,183.6,28.4,181.8,28.4z"/>
		<polygon class="st1" points="217.2,20.5 217.7,20.5 217.7,20.1 218.8,14.9 219,14.3 218.3,14.3 201.6,14.3 201.2,14.3 201.1,14.7 
			194.8,44.7 194.6,45.3 195.2,45.3 212,45.3 212.4,45.3 212.5,44.9 213.6,39.6 213.7,39 213.1,39 203.2,39 204.6,32.3 214,32.3 
			214.4,32.3 214.5,31.9 215.6,26.7 215.8,26.1 215.1,26.1 206,26.1 207.2,20.5 		"/>
		<path class="st1" d="M235.5,32.4c1.8-0.7,3.3-1.8,4.4-3.2c1.3-1.6,2-3.6,2-6.1c0-3.1-1-5.3-2.8-6.7c-1.8-1.3-4.3-2-7.4-2h-7.4
			h-0.4l-0.1,0.4l-6.3,30l-0.1,0.6h0.6h6.3h0.4l0.1-0.4l2.4-11.1h1.7l4.1,11.2l0.1,0.3h0.3h6.8h0.8l-0.3-0.7L235.5,32.4z
			 M229.9,20.5h1.1c3.2,0,3.5,1.6,3.5,2.9c0,1.4-0.4,2.5-1.3,3.2c-0.9,0.7-2.2,1.1-3.9,1.1h-1L229.9,20.5z"/>
	</g>
	<g>
		<g>
			<path class="st2" d="M11.4,48.1c-1,0-1.8-0.1-2.5-0.2c-0.6-0.1-1.2-0.3-1.8-0.4c-0.6-0.2-1.1-0.8-1.1-1.4v-5.2
				c0-0.5,0.2-0.9,0.6-1.2c0.3-0.2,0.6-0.3,0.9-0.3c0.1,0,0.2,0,0.3,0c0.4,0.1,0.9,0.2,1.4,0.3c0.5,0.1,1,0.1,1.6,0.1
				c0.9,0,1.7-0.3,2.3-0.8c0.6-0.6,1.1-1.7,1.4-3.1l6-28.3c0.1-0.7,0.8-1.2,1.5-1.2h6.3c0.5,0,0.9,0.2,1.2,0.6
				c0.3,0.4,0.4,0.8,0.3,1.3l-6.2,29.2c-0.8,3.8-2.2,6.5-4.2,8.2C17.4,47.2,14.7,48.1,11.4,48.1z"/>
			<path class="st3" d="M28.3,7.8L22.1,37c-0.7,3.4-2,5.9-3.7,7.4c-1.7,1.5-4.1,2.2-7,2.2c-0.9,0-1.6-0.1-2.2-0.2
				c-0.6-0.1-1.1-0.2-1.6-0.4v-5.2c0.5,0.1,1,0.2,1.5,0.3c0.5,0.1,1.2,0.1,1.8,0.1c1.3,0,2.4-0.4,3.3-1.2c0.9-0.8,1.5-2.1,1.8-3.9
				l6-28.3H28.3 M28.3,4.8H22c-1.4,0-2.6,1-2.9,2.4l-6,28.3c-0.3,1.6-0.8,2.2-1,2.4c-0.2,0.2-0.5,0.4-1.2,0.4c-0.5,0-1,0-1.4-0.1
				c-0.5-0.1-0.9-0.2-1.3-0.3c-0.2-0.1-0.5-0.1-0.7-0.1c-0.7,0-1.3,0.2-1.9,0.6c-0.7,0.6-1.1,1.4-1.1,2.4v5.2c0,1.3,0.9,2.5,2.2,2.9
				c0.6,0.2,1.2,0.3,1.9,0.4c0.8,0.1,1.7,0.2,2.7,0.2c3.7,0,6.7-1,9-3c2.3-1.9,3.8-4.9,4.7-9l6.2-29.2c0.2-0.9,0-1.8-0.6-2.5
				C30.1,5.2,29.2,4.8,28.3,4.8L28.3,4.8z M28.3,10.8L28.3,10.8L28.3,10.8L28.3,10.8z"/>
		</g>
		<g>
			<path class="st2" d="M26.8,39.3c-0.5,0-0.9-0.2-1.2-0.6c-0.3-0.4-0.4-0.8-0.3-1.3l0.8-3.6c0.1-0.5,0.4-0.9,0.9-1.1l3.1-1.4
				l3.7-17.6l-2.1-1.1c-0.6-0.3-0.9-1-0.8-1.6l0.8-3.6c0.1-0.7,0.8-1.2,1.5-1.2h13.3c0.5,0,0.9,0.2,1.2,0.6c0.3,0.4,0.4,0.8,0.3,1.3
				l-0.8,3.6c-0.1,0.5-0.4,0.9-0.9,1.1l-3.2,1.4l-3.7,17.5l2.2,1.2c0.6,0.3,0.9,1,0.8,1.6l-0.8,3.6c-0.1,0.7-0.8,1.2-1.5,1.2H26.8z"
				/>
			<path class="st3" d="M46.5,7.8l-0.8,3.6l-3.9,1.7l-4.1,19.4l3.2,1.7l-0.8,3.6H26.8l0.8-3.6l3.8-1.7l4.1-19.4l-3.1-1.7l0.8-3.6
				H46.5 M46.5,4.8H33.2c-1.4,0-2.6,1-2.9,2.4l-0.8,3.6c-0.3,1.3,0.3,2.6,1.5,3.3l1.1,0.6l-3.3,15.7l-2.4,1.1
				c-0.9,0.4-1.5,1.2-1.7,2.1l-0.8,3.6c-0.2,0.9,0,1.8,0.6,2.5c0.6,0.7,1.4,1.1,2.3,1.1h13.3c1.4,0,2.6-1,2.9-2.4l0.8-3.6
				c0.3-1.3-0.4-2.6-1.5-3.3l-1.2-0.6l3.3-15.7l2.5-1.1c0.9-0.4,1.6-1.2,1.8-2.1l0.8-3.6c0.2-0.9,0-1.8-0.6-2.5
				C48.2,5.2,47.4,4.8,46.5,4.8L46.5,4.8z M46.5,10.8L46.5,10.8L46.5,10.8L46.5,10.8z"/>
		</g>
		<g>
			<path class="st2" d="M62.7,39.3c-0.7,0-1.2-0.4-1.4-1l-5.5-17c0,0.1,0,0.1,0,0.2c-0.2,0.9-0.3,1.8-0.4,2.5l-3,14.1
				c-0.1,0.7-0.8,1.2-1.5,1.2h-5.6c-0.5,0-0.9-0.2-1.2-0.6c-0.3-0.4-0.4-0.8-0.3-1.3l6.3-30c0.1-0.7,0.8-1.2,1.5-1.2h7.3
				c0.7,0,1.2,0.4,1.4,1l5.2,16.5c0.1-0.8,0.3-1.5,0.4-2.1l3-14.2c0.1-0.7,0.8-1.2,1.5-1.2h5.6c0.5,0,0.9,0.2,1.2,0.6
				c0.3,0.4,0.4,0.8,0.3,1.3l-6.3,30c-0.1,0.7-0.8,1.2-1.5,1.2H62.7z"/>
			<path class="st3" d="M76.1,7.8L76.1,7.8 M76.1,7.8l-6.3,30h-7l-7.3-22.7h-0.2c0,0.2-0.1,0.6-0.2,1.2s-0.2,1.4-0.3,2.2
				s-0.3,1.8-0.4,2.7c-0.2,0.9-0.3,1.7-0.4,2.5l-3,14.1h-5.6l6.3-30h7.3l7,22.1H66c0.1-0.6,0.2-1.4,0.4-2.3c0.1-0.9,0.3-1.9,0.5-2.9
				c0.2-1,0.4-1.9,0.5-2.7l3-14.2H76.1 M76.1,4.8L76.1,4.8h-5.6c-1.4,0-2.6,1-2.9,2.4l-2.3,10.7l-3.5-11c-0.4-1.2-1.6-2.1-2.9-2.1
				h-7.3c-1.4,0-2.6,1-2.9,2.4l-6.3,30c-0.2,0.9,0,1.8,0.6,2.5c0.6,0.7,1.4,1.1,2.3,1.1h5.6c1.4,0,2.6-1,2.9-2.4l2.4-11.2l3.7,11.5
				c0.4,1.2,1.6,2.1,2.9,2.1h7c1.4,0,2.6-1,2.9-2.4L79,8.6c0.1-0.2,0.1-0.5,0.1-0.8C79.1,6.1,77.7,4.8,76.1,4.8L76.1,4.8z
				 M76.1,10.8L76.1,10.8L76.1,10.8L76.1,10.8z"/>
		</g>
		<g>
			<path class="st2" d="M77.7,27.6c-0.5,0-0.9-0.2-1.2-0.6c-0.3-0.4-0.4-0.8-0.3-1.3l1.1-5.1c0.1-0.7,0.8-1.2,1.5-1.2h10.8
				c0.5,0,0.9,0.2,1.2,0.6c0.3,0.4,0.4,0.8,0.3,1.3l-1.1,5.1c-0.1,0.7-0.8,1.2-1.5,1.2H77.7z"/>
			<path class="st3" d="M89.5,21l-1.1,5.1H77.7l1.1-5.1H89.5 M89.5,18H78.8c-1.4,0-2.6,1-2.9,2.4l-1.1,5.1c-0.2,0.9,0,1.8,0.6,2.5
				c0.6,0.7,1.4,1.1,2.3,1.1h10.8c1.4,0,2.6-1,2.9-2.4l1.1-5.1c0.2-0.9,0-1.8-0.6-2.5C91.3,18.4,90.4,18,89.5,18L89.5,18z M89.5,24
				L89.5,24L89.5,24L89.5,24z"/>
		</g>
		<g>
			<path class="st2" d="M97.5,39.7c-1.6,0-3.2-0.2-4.5-0.6c-1.4-0.4-2.6-0.9-3.6-1.5c-0.4-0.3-0.7-0.8-0.7-1.3v-5.6
				c0-0.5,0.3-1,0.7-1.3c0.2-0.1,0.5-0.2,0.8-0.2c0.3,0,0.5,0.1,0.7,0.2c1.1,0.6,2.3,1.2,3.4,1.5c1,0.3,2.1,0.5,3.2,0.5
				c1.1,0,2-0.2,2.7-0.6c0.4-0.2,0.6-0.5,0.6-1.2c0-0.7-0.2-1.3-0.6-1.6c-0.6-0.6-1.4-1.3-2.4-2c-0.9-0.7-1.8-1.4-2.6-2.2
				c-0.9-0.9-1.7-1.9-2.2-3.1c-0.6-1.2-0.9-2.7-0.9-4.3c0-2.1,0.5-3.9,1.5-5.5c1-1.6,2.4-2.9,4.2-3.8c1.8-0.9,3.8-1.3,6.1-1.3
				c1.7,0,3.3,0.2,4.7,0.6c1.4,0.4,2.8,0.9,4.2,1.6c0.7,0.4,1,1.2,0.6,2l-2.2,4.8c-0.2,0.4-0.5,0.6-0.9,0.8
				c-0.2,0.1-0.3,0.1-0.5,0.1c-0.2,0-0.4,0-0.6-0.1c-1.9-0.9-3.7-1.4-5.3-1.4c-0.8,0-1.4,0.2-1.8,0.6c-0.3,0.2-0.5,0.5-0.5,1.3
				c0,0.9,0.3,1.3,0.5,1.5c0.6,0.6,1.4,1.2,2.5,1.9c1.8,1.2,3.2,2.6,4.2,4.1c1,1.6,1.5,3.4,1.5,5.4c0,2.4-0.6,4.5-1.8,6.1
				c-1.2,1.6-2.8,2.8-4.7,3.6C101.9,39.3,99.8,39.7,97.5,39.7z"/>
			<path class="st3" d="M104,7.4c1.6,0,3,0.2,4.3,0.5c1.3,0.3,2.6,0.8,3.8,1.5l-2.2,4.8c-2.1-1-4.1-1.5-5.9-1.5
				c-1.1,0-2,0.3-2.8,0.9c-0.7,0.6-1.1,1.4-1.1,2.5c0,1.1,0.3,1.9,1,2.5c0.6,0.6,1.6,1.3,2.7,2.1c1.7,1.1,2.9,2.3,3.7,3.6
				c0.8,1.3,1.2,2.9,1.2,4.6c0,2.1-0.5,3.8-1.5,5.2c-1,1.4-2.4,2.4-4.1,3.1c-1.7,0.7-3.6,1-5.6,1c-1.5,0-2.9-0.2-4.1-0.5
				c-1.2-0.3-2.3-0.8-3.2-1.3v-5.6c1.2,0.7,2.4,1.2,3.7,1.6c1.2,0.4,2.4,0.6,3.7,0.6c1.4,0,2.6-0.3,3.5-0.8c0.9-0.5,1.4-1.4,1.4-2.5
				c0-1.1-0.3-2.1-1-2.7c-0.7-0.7-1.5-1.4-2.6-2.2c-0.8-0.6-1.7-1.3-2.4-2.1c-0.8-0.8-1.4-1.6-1.9-2.7c-0.5-1-0.8-2.2-0.8-3.6
				c0-1.8,0.4-3.4,1.3-4.7s2-2.4,3.6-3.2C100.1,7.8,101.9,7.4,104,7.4 M104,4.4c-2.5,0-4.8,0.5-6.8,1.5c-2,1-3.7,2.5-4.8,4.3
				c-1.1,1.8-1.7,4-1.7,6.3c0,1.8,0.4,3.5,1.1,4.9c0.7,1.3,1.5,2.5,2.5,3.5c0.9,0.8,1.8,1.6,2.7,2.3c0.9,0.7,1.7,1.3,2.3,1.9
				c0.1,0.1,0.1,0.3,0.1,0.5C99,29.9,98.3,30,97.6,30c-0.9,0-1.9-0.1-2.8-0.4c-1-0.3-2-0.8-3.1-1.4c-0.5-0.3-1-0.4-1.5-0.4
				c-0.5,0-1,0.1-1.5,0.4c-0.9,0.5-1.5,1.5-1.5,2.6v5.6c0,1,0.5,2,1.4,2.5c1.1,0.7,2.5,1.3,4,1.7c1.5,0.4,3.1,0.6,4.9,0.6
				c2.4,0,4.7-0.4,6.8-1.2c2.2-0.9,4-2.2,5.4-4.1c1.4-1.9,2.1-4.3,2.1-7c0-2.3-0.6-4.4-1.7-6.2c-1.1-1.7-2.6-3.2-4.6-4.5
				c-1-0.7-1.8-1.3-2.3-1.8c0,0-0.1-0.2-0.1-0.4c0-0.1,0-0.1,0-0.1c0.1-0.1,0.3-0.2,0.9-0.2c1.4,0,2.9,0.4,4.6,1.2
				c0.4,0.2,0.8,0.3,1.3,0.3c0.3,0,0.7-0.1,1-0.2c0.8-0.3,1.4-0.8,1.7-1.6l2.2-4.8c0.7-1.4,0.1-3.1-1.3-3.9c-1.4-0.8-3-1.4-4.5-1.8
				C107.5,4.6,105.8,4.4,104,4.4L104,4.4z"/>
		</g>
		<g>
			<path class="st2" d="M112.7,39.3c-0.5,0-0.9-0.2-1.2-0.6c-0.3-0.4-0.4-0.8-0.3-1.3l6.3-30c0.1-0.7,0.8-1.2,1.5-1.2h8.4
				c2.7,0,4.9,0.4,6.5,1.2c1.8,0.9,3.1,2.1,3.9,3.7c0.8,1.5,1.1,3.3,1.1,5.2c0,2.7-0.7,5-2,6.8c-1.3,1.8-3.1,3.1-5.3,4
				c-2.1,0.8-4.6,1.3-7.2,1.3h-2l-2,9.5c-0.1,0.7-0.8,1.2-1.5,1.2H112.7z M124.9,20.4c1.5,0,2.7-0.3,3.6-1.1
				c0.8-0.6,1.2-1.5,1.2-2.7c0-1.4-0.4-2.2-2.5-2.2h-1.7l-1.3,5.9H124.9z"/>
			<path class="st3" d="M127.4,7.8c2.4,0,4.4,0.4,5.9,1.1c1.5,0.7,2.5,1.8,3.2,3.1c0.7,1.3,1,2.8,1,4.6c0,2.4-0.6,4.4-1.7,5.9
				c-1.1,1.6-2.7,2.7-4.7,3.5c-2,0.8-4.2,1.2-6.7,1.2h-3.2L119,37.8h-6.3l6.3-30H127.4 M122.3,21.9h2.6c1.9,0,3.4-0.5,4.5-1.4
				s1.7-2.2,1.7-3.8c0-2.5-1.3-3.7-4-3.7h-2.9L122.3,21.9 M127.4,4.8h-8.4c-1.4,0-2.6,1-2.9,2.4l-6.3,30c-0.2,0.9,0,1.8,0.6,2.5
				c0.6,0.7,1.4,1.1,2.3,1.1h6.3c1.4,0,2.6-1,2.9-2.4l1.7-8.3h0.8c2.9,0,5.5-0.5,7.8-1.4c2.5-1,4.5-2.5,6-4.5
				c1.5-2.1,2.3-4.7,2.3-7.7c0-2.2-0.4-4.2-1.3-5.9c-1-1.9-2.5-3.4-4.5-4.4C132.7,5.3,130.4,4.8,127.4,4.8L127.4,4.8z M126.7,16h0.5
				c0.5,0,0.8,0.1,0.9,0.1c0,0.1,0.1,0.3,0.1,0.6c0,0.9-0.3,1.3-0.6,1.5c-0.4,0.3-0.9,0.5-1.5,0.6L126.7,16L126.7,16z"/>
		</g>
		<g>
			<path class="st2" d="M152.9,39.3c-0.8,0-1.4-0.6-1.5-1.4l-0.4-5.7h-7.4l-3.1,6.3c-0.3,0.5-0.8,0.8-1.3,0.8h-6.6
				c-0.5,0-1-0.3-1.3-0.7c-0.3-0.4-0.3-1,0-1.5l15.7-30c0.3-0.5,0.8-0.8,1.3-0.8h7.6c0.8,0,1.4,0.6,1.5,1.3l3,30
				c0,0.4-0.1,0.8-0.4,1.2c-0.3,0.3-0.7,0.5-1.1,0.5H152.9z M150.5,23.8l-0.4-5.1l-2.5,5.1H150.5z"/>
			<path class="st3" d="M156,7.8l3,30h-6.1l-0.5-7.1h-9.7l-3.5,7.1h-6.6l15.7-30H156 M151.4,12.6L151.4,12.6c-0.4,0.8-0.7,1.5-1,2.2
				s-0.7,1.5-1.1,2.4l-3.9,8.1h6.8l-0.5-7.7c-0.1-0.8-0.1-1.6-0.2-2.5C151.4,14.3,151.3,13.4,151.4,12.6 M156,4.8h-7.6
				c-1.1,0-2.1,0.6-2.7,1.6l-15.7,30c-0.5,0.9-0.5,2,0.1,2.9c0.5,0.9,1.5,1.4,2.6,1.4h6.6c1.1,0,2.2-0.6,2.7-1.7l2.7-5.5h5l0.3,4.4
				c0.1,1.6,1.4,2.8,3,2.8h6.1c0.8,0,1.7-0.4,2.2-1c0.6-0.6,0.8-1.5,0.8-2.3l-3-30C158.8,6,157.5,4.8,156,4.8L156,4.8z"/>
		</g>
		<g>
			<path class="st2" d="M162.6,39.3c-0.5,0-0.9-0.2-1.2-0.6c-0.3-0.4-0.4-0.8-0.3-1.3l6.3-30c0.1-0.7,0.8-1.2,1.5-1.2h8.4
				c2.7,0,4.9,0.4,6.5,1.2c1.8,0.9,3.1,2.1,3.9,3.7c0.8,1.5,1.1,3.3,1.1,5.2c0,2.7-0.7,5-2,6.8c-1.3,1.8-3.1,3.1-5.3,4
				c-2.1,0.8-4.6,1.3-7.2,1.3h-2l-2,9.5c-0.1,0.7-0.8,1.2-1.5,1.2H162.6z M174.8,20.4c1.5,0,2.7-0.3,3.6-1.1
				c0.8-0.6,1.2-1.5,1.2-2.7c0-1.4-0.4-2.2-2.5-2.2h-1.7l-1.3,5.9H174.8z"/>
			<path class="st3" d="M177.3,7.8c2.4,0,4.4,0.4,5.9,1.1c1.5,0.7,2.5,1.8,3.2,3.1c0.7,1.3,1,2.8,1,4.6c0,2.4-0.6,4.4-1.7,5.9
				c-1.1,1.6-2.7,2.7-4.7,3.5c-2,0.8-4.2,1.2-6.7,1.2h-3.2l-2.2,10.7h-6.3l6.3-30H177.3 M172.2,21.9h2.6c1.9,0,3.4-0.5,4.5-1.4
				s1.7-2.2,1.7-3.8c0-2.5-1.3-3.7-4-3.7h-2.9L172.2,21.9 M177.3,4.8H169c-1.4,0-2.6,1-2.9,2.4l-6.3,30c-0.2,0.9,0,1.8,0.6,2.5
				c0.6,0.7,1.4,1.1,2.3,1.1h6.3c1.4,0,2.6-1,2.9-2.4l1.7-8.3h0.8c2.9,0,5.5-0.5,7.8-1.4c2.5-1,4.5-2.5,6-4.5
				c1.5-2.1,2.3-4.7,2.3-7.7c0-2.2-0.4-4.2-1.3-5.9c-1-1.9-2.5-3.4-4.5-4.4C182.6,5.3,180.3,4.8,177.3,4.8L177.3,4.8z M176.6,16h0.5
				c0.5,0,0.8,0.1,0.9,0.1c0,0.1,0.1,0.3,0.1,0.6c0,0.9-0.3,1.3-0.6,1.5c-0.4,0.3-0.9,0.5-1.5,0.6L176.6,16L176.6,16z"/>
		</g>
		<g>
			<path class="st2" d="M188.2,39.3c-0.5,0-0.9-0.2-1.2-0.6c-0.3-0.4-0.4-0.8-0.3-1.3l6.3-30c0.1-0.7,0.8-1.2,1.5-1.2h16.8
				c0.5,0,0.9,0.2,1.2,0.6c0.3,0.4,0.4,0.8,0.3,1.3l-1.1,5.2c-0.1,0.7-0.8,1.2-1.5,1.2H201l-0.8,3.6h7.9c0.5,0,0.9,0.2,1.2,0.6
				s0.4,0.8,0.3,1.3l-1.1,5.2c-0.2,0.7-0.8,1.2-1.5,1.2h-8.6l-1,4.7h8.6c0.5,0,0.9,0.2,1.2,0.6c0.3,0.3,0.4,0.8,0.3,1.3l-1.1,5.3
				c-0.1,0.7-0.8,1.2-1.5,1.2H188.2z"/>
			<path class="st3" d="M211.3,7.8L211.3,7.8 M211.3,7.8l-1.1,5.2h-10.5l-1.4,6.6h9.8l-1.1,5.2h-9.8l-1.6,7.7h10.5l-1.1,5.3h-16.8
				l6.3-30H211.3 M208.1,19.6L208.1,19.6 M211.3,4.8L211.3,4.8h-16.8c-1.4,0-2.6,1-2.9,2.4l-6.3,30c-0.2,0.9,0,1.8,0.6,2.5
				c0.6,0.7,1.4,1.1,2.3,1.1H205c1.4,0,2.6-1,2.9-2.4l1.1-5.3c0.2-0.9,0-1.8-0.6-2.5c-0.6-0.7-1.4-1.1-2.3-1.1h-6.8l0.4-1.7h7.4
				c1.4,0,2.6-1,2.9-2.4l1.1-5.1c0.1-0.2,0.1-0.5,0.1-0.8c0-1.7-1.3-3-3-3h0h-6.1l0.1-0.6h8.1c1.4,0,2.6-1,2.9-2.4l1.1-5.1
				c0.1-0.2,0.1-0.5,0.1-0.7C214.3,6.1,213,4.8,211.3,4.8L211.3,4.8z M211.3,10.8L211.3,10.8L211.3,10.8L211.3,10.8z"/>
		</g>
		<g>
			<path class="st2" d="M226.4,39.3c-0.6,0-1.2-0.4-1.4-1l-3.9-10.5h-0.2l-2.2,10.3c-0.1,0.7-0.8,1.2-1.5,1.2H211
				c-0.5,0-0.9-0.2-1.2-0.6c-0.3-0.4-0.4-0.8-0.3-1.3l6.3-30c0.1-0.7,0.8-1.2,1.5-1.2h7.4c3.3,0,6,0.7,8,2.2
				c2.1,1.6,3.2,4.1,3.2,7.5c0,2.7-0.7,5-2.2,6.8c-1.1,1.3-2.4,2.3-3.9,3.1l4.8,11.3c0.2,0.5,0.1,1-0.1,1.4s-0.7,0.7-1.2,0.7H226.4z
				 M222.6,19.6c1.3,0,2.3-0.3,3-0.9c0.6-0.5,0.9-1.3,0.9-2.4c0-0.8,0-1.9-2.5-1.9h-0.3L222.6,19.6z"/>
			<path class="st3" d="M224.7,7.8c3,0,5.4,0.6,7.1,1.9c1.7,1.3,2.6,3.4,2.6,6.3c0,2.4-0.6,4.3-1.9,5.8c-1.2,1.5-2.8,2.6-4.7,3.2
				l5.3,12.7h-6.8l-4.2-11.5h-2.4l-2.4,11.5H211l6.3-30H224.7 M220.8,21.1h1.6c1.8,0,3.2-0.4,4.2-1.2c1-0.8,1.5-2,1.5-3.6
				c0-2.2-1.3-3.4-4-3.4h-1.5L220.8,21.1 M224.7,4.8h-7.4c-1.4,0-2.6,1-2.9,2.4l-6.3,30c-0.2,0.9,0,1.8,0.6,2.5s1.4,1.1,2.3,1.1h6.3
				c1.4,0,2.6-1,2.9-2.4l1.2-5.5l2.2,5.9c0.4,1.2,1.6,2,2.8,2h6.8c1,0,1.9-0.5,2.5-1.3c0.6-0.8,0.7-1.9,0.3-2.8l-4.2-10.1
				c1.2-0.7,2.2-1.7,3.2-2.8c1.7-2,2.6-4.6,2.6-7.7c0-4.9-2.1-7.4-3.8-8.7C231.3,5.7,228.3,4.8,224.7,4.8L224.7,4.8z M224.6,17.7
				l0.3-1.6c0,0,0.1,0,0.1,0c0,0.1,0,0.1,0,0.2c0,0.9-0.3,1.1-0.3,1.2C224.7,17.6,224.6,17.6,224.6,17.7L224.6,17.7z"/>
		</g>
	</g>
</g>
</svg>
