<?xml version="1.0" encoding="utf-8"?>
<!-- Generator: Adobe Illustrator 23.1.0, SVG Export Plug-In . SVG Version: 6.00 Build 0)  -->
<svg version="1.1" id="Layer_1" xmlns="http://www.w3.org/2000/svg" xmlns:xlink="http://www.w3.org/1999/xlink" x="0px" y="0px"
	 viewBox="0 0 206 50" style="enable-background:new 0 0 206 50;" xml:space="preserve">
<style type="text/css">
	.st0{fill:#1D3254;}
</style>
<rect x="117.3" class="st0" width="20.9" height="50"/>
<rect x="96.5" class="st0" width="7.8" height="50"/>
<rect x="41.7" class="st0" width="7.8" height="50"/>
<rect class="st0" width="7.8" height="50"/>
<rect x="18.3" class="st0" width="2.6" height="50"/>
<rect x="13" class="st0" width="2.6" height="50"/>
<rect x="106.9" class="st0" width="2.6" height="50"/>
<rect x="169.6" class="st0" width="8" height="50"/>
<rect x="198" class="st0" width="8" height="50"/>
<rect x="192.7" class="st0" width="2.7" height="50"/>
<rect x="187.4" class="st0" width="2.7" height="50"/>
<rect x="182.9" class="st0" width="2.7" height="50"/>
<rect x="153.6" class="st0" width="2.7" height="50"/>
<rect x="148.3" class="st0" width="2.7" height="50"/>
<rect x="143.8" class="st0" width="1.8" height="50"/>
<rect x="158.9" class="st0" width="2.7" height="50"/>
<rect x="78.2" class="st0" width="2.6" height="50"/>
<rect x="73" class="st0" width="2.6" height="50"/>
<rect x="67.8" class="st0" width="2.6" height="50"/>
<rect x="62.6" class="st0" width="2.6" height="50"/>
<rect x="57.4" class="st0" width="2.6" height="50"/>
<rect x="52.2" class="st0" width="2.6" height="50"/>
<rect x="36.5" class="st0" width="2.6" height="50"/>
<rect x="31.3" class="st0" width="2.6" height="50"/>
</svg>
