<?xml version="1.0" encoding="utf-8"?>
<!-- Generator: Adobe Illustrator 23.1.0, SVG Export Plug-In . SVG Version: 6.00 Build 0)  -->
<svg version="1.1" id="Layer_1" xmlns="http://www.w3.org/2000/svg" xmlns:xlink="http://www.w3.org/1999/xlink" x="0px" y="0px"
	 viewBox="0 0 310 119.5" style="enable-background:new 0 0 310 119.5;" xml:space="preserve">
<style type="text/css">
	.st0{fill:#FFBFAD;}
	.st1{fill:#E15546;fill-opacity:0.6;}
	.st2{fill:#F3EDD3;}
	.st3{fill:#1D3254;}
</style>
<g>
	<g>
		<path class="st0" d="M303,1H6.8v111.8H303V1z"/>
		<path class="st1" d="M7.9,111.8h294.1V64.9L7.9,11V111.8z"/>
	</g>
	<path class="st2" d="M309.3,103H0.7v15.9h308.6V103z"/>
	<path class="st0" d="M308.6,118.2H1.4v-3.5l307.2-6.9V118.2z"/>
</g>
<path class="st3" d="M308.6,102.3h-4.5V2.1V0h-2.1H7.9H5.9v2.1v100.2H1.4H0v1.4v14.5v1.4h1.4h307.2h1.4v-1.4v-14.5v-1.4H308.6z
	 M7.9,2.1h294.1v100.2H7.9V2.1z M308.6,118.2H1.4v-14.5h307.2V118.2z"/>
</svg>
