<?xml version="1.0" encoding="utf-8"?>
<!-- Generator: Adobe Illustrator 23.1.0, SVG Export Plug-In . SVG Version: 6.00 Build 0)  -->
<svg version="1.1" id="Layer_1" xmlns="http://www.w3.org/2000/svg" xmlns:xlink="http://www.w3.org/1999/xlink" x="0px" y="0px"
	 viewBox="0 0 538 508.8" style="enable-background:new 0 0 538 508.8;" xml:space="preserve">
<style type="text/css">
	.st0{fill:url(#SVGID_1_);fill-opacity:0.2;}
	.st1{fill:#FFBFAD;}
	.st2{fill:#1D3254;}
	.st3{fill:#F3EDD3;}
	.st4{fill:#FA5D4C;}
	.st5{opacity:0.3;fill:#FA5D4C;enable-background:new    ;}
	.st6{opacity:0.5;fill:#FA5D4C;enable-background:new    ;}
	.st7{fill:#F1B09D;}
	.st8{opacity:0.5;}
	.st9{fill:#606E84;}
	.st10{opacity:0.49;fill:#FA5D4C;enable-background:new    ;}
</style>
<g>
	
		<linearGradient id="SVGID_1_" gradientUnits="userSpaceOnUse" x1="-302.5776" y1="229.0417" x2="12.99" y2="229.0417" gradientTransform="matrix(1 0 0 -1 262.01 596.1291)">
		<stop  offset="0" style="stop-color:#FFFFFF"/>
		<stop  offset="1" style="stop-color:#FFFFFF;stop-opacity:0"/>
	</linearGradient>
	<path class="st0" d="M16,225.3l259,119.9v163.6L0,390.5L16,225.3z"/>
	<path class="st1" d="M523,75.5h-92.2v31.3H523V75.5z"/>
	<path class="st2" d="M526.7,64.6h-99.8v10.9h99.8V64.6z"/>
	<path class="st3" d="M487.6,83h-21.5v9h21.5V83z"/>
	<path class="st1" d="M523.4,117.7h-92.2V149h92.2V117.7z"/>
	<path class="st2" d="M527.1,106.8h-99.8v10.9h99.8V106.8z"/>
	<path class="st3" d="M487.6,125.4h-21.5v9h21.5V125.4z"/>
	<path class="st1" d="M104.3,40.7h-27V149h27V40.7z"/>
	<path class="st1" d="M74.6,40.7h-27V149h27V40.7z"/>
	<path class="st1" d="M44.9,40.7h-27V149h27V40.7z"/>
	<path class="st1" d="M134.1,40.7h-27V149h27V40.7z"/>
	<path class="st3" d="M40.5,44.9H22.2v7.2h18.3V44.9z"/>
	<path class="st3" d="M70.2,44.9H51.9v7.2h18.3V44.9z"/>
	<path class="st3" d="M100,44.9H81.7v7.2H100V44.9z"/>
	<path class="st3" d="M129.7,44.9h-18.3v7.2h18.3V44.9z"/>
	<path class="st2" d="M202.2,338.2H110v53h92.2V338.2z"/>
	<path class="st4" d="M205.9,327.3h-99.8v10.9h99.8V327.3z"/>
	<path class="st3" d="M166.7,345.7h-21.5v9h21.5V345.7z"/>
	<path class="st2" d="M202.2,274.4H110v53h92.2V274.4z"/>
	<path class="st4" d="M205.9,263.6h-99.8v10.9h99.8V263.6z"/>
	<path class="st3" d="M166.7,282.1h-21.5v9h21.5V282.1z"/>
	<path class="st2" d="M346.8,125.6H167.4c-0.8,0-1.5-0.7-1.5-1.5V11.2c0-0.8,0.7-1.5,1.5-1.5h179.4c0.8,0,1.5,0.7,1.5,1.5V124
		C348.2,124.9,347.5,125.6,346.8,125.6z"/>
	<path class="st1" d="M280.2,149h-46.3l3.3-23.4H277L280.2,149z"/>
	<path class="st3" d="M342.8,109.1V15.2H171.4v93.9H342.8z"/>
	<path class="st5" d="M277.6,129.8l-0.7-4.2h-39.8l-1,6.5L277.6,129.8z"/>
	<path class="st1" d="M282.2,144.6h-50.1v4.4h50.1V144.6z"/>
	<path class="st6" d="M277.1,126.3l-0.1-0.8h-39.8l-0.3,2.1L277.1,126.3z"/>
	<path class="st4" d="M313,117.8h-19.5v19.5H313V117.8z"/>
	<path class="st1" d="M336.6,117.8h-19.5v19.5h19.5V117.8z"/>
	<path class="st1" d="M534.7,149H3.3v26h531.5V149z"/>
	<path class="st7" d="M21.7,391.1H0L21.7,175h21.8L21.7,391.1z"/>
	<path class="st7" d="M538,391.1h-21.7L494.7,175h21.7L538,391.1z"/>
	<path class="st5" d="M41.1,198.2l2.4-23.2H21.7l-2.3,23.6L41.1,198.2z"/>
	<path class="st5" d="M517.6,188.4l-1.3-13.4h-21.7l1.4,13.8L517.6,188.4z"/>
	<g class="st8">
		<path class="st6" d="M42.4,185.9l1.1-10.9H21.7l-1.1,11.2L42.4,185.9z"/>
		<g class="st8">
			<g class="st8">
				<path class="st6" d="M516.8,179.3l-0.4-4.2h-21.7l0.4,4.6L516.8,179.3z"/>
			</g>
		</g>
	</g>
	<path class="st5" d="M534.7,175H3.3v-5.4l531.5-1.1V175z"/>
	<path class="st9" d="M237.3,392.3l7.3-35.6H371l7.3,35.6h5.6l-27.2-132.2l-5.3,1.1l17.9,86.9H246.5l17.9-86.9l-5.3-1.1l-27.2,132.2
		H237.3z"/>
	<path class="st2" d="M279.6,413.7l5.8-34.5h135.6l9.3,34.5h5.7L394.5,260l-5.3,1.4l29.4,109.1H286.8L305,261l-5.3-0.9L274,413.7
		H279.6z"/>
	<path class="st4" d="M443.6,123.7c-0.8-9.7-9.5-10.3-11-10.3h-69.7c-35.2,0-42,44.2-42,44.2l-11,53.3
		c-3.6,24.9-24.6,33.9-31.1,35.4c-0.7,0.1-1.3,0.2-2,0.4c-5.9,1.2-19,2.5-26,4.4c-21.8,5.9-21.1,11.8-21.1,11.8h21.1h51.6h15.1h67.3
		c4.6,0,45.4-1.5,52.3-40.9l6.5-97.1C443.6,124.4,443.6,124,443.6,123.7z"/>
	<path class="st1" d="M429.1,116.3c-63.2,0.3-75-1.9-89.2,11.1c-14.2,13-16.6,41.3-16.6,41.3s6.6-24.6,14.9-35.5
		c0,0,8.8-14.9,39.3-14.3C408.3,119.5,429.1,116.3,429.1,116.3z"/>
	<path class="st1" d="M283.5,244.7c-2,0.8-3.6,1.3-4.8,1.6c-0.7,0.1-1.3,0.2-2,0.4c-5.9,1.2-19,2.5-26,4.4
		c-21.8,5.9-21.1,11.8-21.1,11.8s8.5-8.3,25.4-9.7C271.9,251.6,283.5,244.7,283.5,244.7z"/>
	<path class="st5" d="M282.2,147.9h-50.1v1.1h50.1V147.9z"/>
	<path class="st1" d="M116.1,207.7l-16.4-3.3l-35.5,177l16.4,3.3L116.1,207.7z"/>
	<path class="st4" d="M116.1,207.7l-16.4-3.3l-0.6,2.9l16.4,3.3L116.1,207.7z"/>
	<path class="st4" d="M81.1,381.9l-16.4-3.3l-0.6,2.9l16.4,3.3L81.1,381.9z"/>
	<path class="st5" d="M83.9,368.2l-17.4,2.1l-0.5,2.8l17.4-2.1L83.9,368.2z"/>
	<path class="st5" d="M87.3,351.3l-17.5,2l-0.5,2.8l17.4-2L87.3,351.3z"/>
	<path class="st5" d="M90.7,334.5l-17.5,2l-0.5,2.8l17.4-2L90.7,334.5z"/>
	<path class="st5" d="M94.1,317.5l-17.5,2.1l-0.5,2.8l17.5-2.1L94.1,317.5z"/>
	<path class="st5" d="M97.5,300.6l-17.5,2.1l-0.5,2.8l17.5-2.1L97.5,300.6z"/>
	<path class="st5" d="M100.8,283.7l-17.4,2l-0.7,2.8l17.5-2L100.8,283.7z"/>
	<path class="st5" d="M104.2,266.8l-17.4,2l-0.7,2.8l17.5-2L104.2,266.8z"/>
	<path class="st5" d="M107.6,249.8l-17.4,2.1l-0.5,2.8l17.4-2.1L107.6,249.8z"/>
	<path class="st5" d="M111,233L93.6,235l-0.5,2.8l17.4-2.1L111,233z"/>
	<path class="st5" d="M114.5,216.1l-17.5,2l-0.5,2.8l17.4-2L114.5,216.1z"/>
	<path class="st7" d="M61.2,219.1l-16.7,2.1l20.8,163.2l16.7-2.1L61.2,219.1z"/>
	<path class="st1" d="M46.4,209.5l-16.7,2.1l22.2,174l16.7-2.1L46.4,209.5z"/>
	<path class="st2" d="M112,301.3H23v7.2h89V301.3z"/>
	<path class="st2" d="M100.4,386.7h-66v4.4h66V386.7z"/>
	<path class="st2" d="M26.6,305.5l9.9,81.5l0.2,2.2v0.3H98l10.2-84H26.6L26.6,305.5z M102.6,306.6l-8.8,8.8l-6.6-6.6l2.2-2.2H102.6z
		 M93,360.7l-6.6,6.6l-6.6-6.6l6.6-6.6L93,360.7z M93,345.9l-6.6,6.6l-6.6-6.6l6.6-6.6L93,345.9z M72.2,338.5l6.6-6.6l6.6,6.6
		l-6.6,6.6L72.2,338.5z M78.1,345.9l-6.6,6.6l-6.6-6.6l6.6-6.6L78.1,345.9z M71.4,337.7l-6.6-6.6l6.6-6.6l6.6,6.6L71.4,337.7z
		 M70.7,338.5l-6.6,6.6l-6.6-6.6l6.6-6.6L70.7,338.5z M63.3,345.9l-6.6,6.6l-6.6-6.6l6.6-6.6L63.3,345.9z M56.6,337.7l-6.6-6.6
		l6.6-6.6l6.6,6.6L56.6,337.7z M55.9,338.5l-6.6,6.6l-6.6-6.6l6.6-6.6L55.9,338.5z M55.9,353.3l-6.6,6.6l-6.6-6.6l6.6-6.6
		L55.9,353.3z M56.6,354.1l6.6,6.6l-6.6,6.6l-6.6-6.6L56.6,354.1z M57.4,353.3l6.6-6.6l6.6,6.6l-6.6,6.6L57.4,353.3z M71.4,354.1
		l6.6,6.6l-6.6,6.6l-6.6-6.6L71.4,354.1z M72.2,353.3l6.6-6.6l6.6,6.6l-6.6,6.6L72.2,353.3z M86.4,337.7l-6.6-6.6l6.6-6.6l6.6,6.6
		L86.4,337.7z M86.4,322.8l-6.6-6.6l6.6-6.6l6.6,6.6L86.4,322.8z M85.6,323.6l-6.6,6.6l-6.6-6.6l6.6-6.6L85.6,323.6z M71.4,322.8
		l-6.6-6.6l6.6-6.6l6.6,6.6L71.4,322.8z M70.7,323.6l-6.6,6.6l-6.6-6.6l6.6-6.6L70.7,323.6z M56.6,322.8l-6.6-6.6l6.6-6.6l6.6,6.6
		L56.6,322.8z M55.9,323.6l-6.6,6.6l-6.6-6.6l6.6-6.6L55.9,323.6z M41.7,322.8l-6.6-6.6l6.6-6.6l6.6,6.6L41.7,322.8z M48.5,331
		l-6.6,6.6l-6.6-6.6l6.6-6.6L48.5,331z M48.5,345.9l-6.6,6.6l-6.6-6.6l6.6-6.6L48.5,345.9z M48.5,360.7l-6.6,6.6l-6.6-6.6l6.6-6.6
		L48.5,360.7z M49.2,361.5l6.6,6.6l-6.6,6.6l-6.6-6.6L49.2,361.5z M56.6,369l6.6,6.6l-6.6,6.6l-6.6-6.6L56.6,369z M57.4,368.2
		l6.6-6.6l6.6,6.6l-6.6,6.6L57.4,368.2z M71.4,369l6.6,6.6l-6.6,6.6l-6.6-6.6L71.4,369z M72.2,368.2l6.6-6.6l6.6,6.6l-6.6,6.6
		L72.2,368.2z M86.4,369l6.6,6.6l-6.6,6.6l-6.6-6.6L86.4,369z M87.1,353.3l6.6-6.6l6.6,6.6l-6.6,6.6L87.1,353.3z M87.1,338.5
		l6.6-6.6l6.6,6.6l-6.6,6.6L87.1,338.5z M93.8,330.2l-6.6-6.6l6.6-6.6l6.6,6.6L93.8,330.2z M87.8,306.6l-1.4,1.4l-1.4-1.4H87.8z
		 M83.3,306.6l2.2,2.2l-6.6,6.6l-6.6-6.6l2.2-2.2H83.3z M72.9,306.6l-1.4,1.4l-1.4-1.4H72.9z M68.5,306.6l2.2,2.2l-6.6,6.6l-6.6-6.6
		l2.2-2.2H68.5z M58,306.6l-1.4,1.4l-1.4-1.4H58z M53.6,306.6l2.2,2.2l-6.6,6.6l-6.6-6.6l2.2-2.2H53.6z M43.2,306.6l-1.4,1.4
		l-1.4-1.4H43.2z M27.8,306.6h11l2.2,2.2l-6.6,6.6l-6.2-6.2L27.8,306.6z M28.3,310.9l5.2,5.2l-4,4L28.3,310.9z M29.6,321.6l4.7-4.7
		l6.6,6.6l-6.6,6.6l-4.1-4.1L29.6,321.6z M30.4,327.9l3.2,3.2l-2.4,2.4L30.4,327.9z M31.3,334.8l3-3l6.6,6.6l-6.6,6.6l-2.1-2.1
		L31.3,334.8z M32.5,344.8l1.1,1.1l-0.9,0.9L32.5,344.8z M32.9,348.1l1.4-1.4l6.6,6.6l-6.6,6.6L32.9,348.1z M34.5,361.8l6.4,6.4
		l-5,5L34.5,361.8z M36.4,376.9l-0.3-2.4l5.7-5.7l6.6,6.6l-6.6,6.6L36.4,376.9z M36.6,378.7l4.4,4.4l-3.4,3.4L36.6,378.7z
		 M37.8,388.4l-0.1-0.7l4-4l4.6,4.6h-8.5V388.4z M47.9,388.4l-5.3-5.3l6.6-6.6l6.6,6.6l-5.3,5.3H47.9z M52.1,388.4l4.6-4.6l4.6,4.6
		H52.1z M62.7,388.4l-5.3-5.3l6.6-6.6l6.6,6.6l-5.3,5.3H62.7z M66.9,388.4l4.6-4.6l4.6,4.6H66.9z M77.5,388.4l-5.3-5.3l6.6-6.6
		l6.6,6.6l-5.3,5.3H77.5z M81.7,388.4l4.6-4.6l4.6,4.6H81.7z M97,388.4h-4.6l-5.3-5.3l6.6-6.6l4.2,4.2L97,388.4z M98.1,379.2
		l-3.6-3.6l4.7-4.7L98.1,379.2z M99.4,369.2l-5.7,5.7l-6.6-6.6l6.6-6.6l5.9,5.9L99.4,369.2z M99.8,366l-5.2-5.2l6.8-6.8L99.8,366z
		 M101.4,352.7l-6.9-6.9l6.6-6.6l1.6,1.6L101.4,352.7z M103,339.5l-1.1-1.1l1.3-1.3L103,339.5z M103.6,335.3l-2.3,2.3l-6.6-6.6
		l6.6-6.6l3.3,3.3L103.6,335.3z M104.7,326.3l-2.7-2.7l3.4-3.4L104.7,326.3z M105.5,318.4l-4.4,4.4l-6.6-6.6l9.7-9.7h2.8
		L105.5,318.4z"/>
	<path class="st5" d="M134.1,144.6H17.9v-14.9l116.2,10.5V144.6z"/>
	<path class="st6" d="M134.1,144.6H17.9v-6.1l116.2,5V144.6z"/>
	<path class="st5" d="M523.4,149h-92.2v-1.9l92.2-4.2V149z"/>
	<path class="st10" d="M523.4,149h-92.2l92.2-4.4V149z"/>
	<path class="st5" d="M523.4,106.7h-92.2v-1.9l92.2-4.4V106.7z"/>
	<path class="st10" d="M523.4,106.7h-92.2l92.2-4.4V106.7z"/>
	<path class="st2" d="M135.9,97.6v47H16.3v-47h-4.2v51.3h2.2h2.1h119.6h2.1h2.2V97.6H135.9z"/>
	<path class="st4" d="M179.8,115.4h-20.1h-4.6v2.1c-6.6,0-12.1,4.9-12.1,10.9c0,6.2,5.6,13.7,12.1,13.7v2.4c0,2.5,2.1,4.6,4.6,4.6
		h20.1c2.5,0,4.6-2.1,4.6-4.6v-19.2v-5.4v-4.6h-4.6V115.4z M146.4,128.3c0-4.1,3.9-7.5,8.8-7.5v4.6v13.4
		C150.3,138.7,146.4,132.4,146.4,128.3z"/>
	<path class="st2" d="M494.4,0h-10.2v55.9h10.2V0z"/>
	<path class="st1" d="M491,12.9l-2.9,0.3l3.2,33.1l2.9-0.3L491,12.9z"/>
	<path class="st1" d="M490.6,9.7l-2.9,0.3l0.3,3.1l2.9-0.3L490.6,9.7z"/>
	<path class="st2" d="M490.9,12.8l-2.9,0.3L488,14l2.9-0.3L490.9,12.8z"/>
	<path class="st7" d="M500.2,22c0,0-3.5,29.7-1.9,30.1l4.6-29.6L500.2,22z"/>
	<path class="st7" d="M505.5,22.9c0,0-5.7,29.4-7.3,29.2l4.6-29.6L505.5,22.9z"/>
	<path class="st4" d="M505.8,1.2l-2.2-0.3c-0.1,0-0.1,0-0.1,0c-0.1,0-0.2-0.1-0.3-0.1c-5.7-0.9-10.9,3-11.8,8.6
		c-0.9,5.6,3,10.9,8.6,11.8l-0.1,1c0,0.2,0.1,0.5,0.4,0.5l2.2,0.3c0.2,0,0.5-0.1,0.5-0.4l3.3-20.9C506.2,1.5,506,1.3,505.8,1.2z
		 M493.3,9.7c0.7-4.5,4.9-7.6,9.5-6.9l-2.5,16.3C495.7,18.4,492.6,14.3,493.3,9.7z"/>
	<path class="st4" d="M506.1,1.7l-3.3,20.9c0,0.2,0.1,0.5,0.4,0.5l2.2,0.3c0.2,0,0.5-0.1,0.5-0.4l0.1-1c5.7,0.9,10.9-3,11.8-8.6
		c0.9-5.6-3-10.9-8.6-11.8c-0.1,0-0.2,0-0.3,0c0,0-0.1,0-0.1-0.1l-2.2-0.3C506.4,1.3,506.2,1.5,506.1,1.7z M506.5,20.1L509,3.8
		c4.5,0.7,7.6,4.9,6.9,9.5C515.2,17.8,511,20.8,506.5,20.1z"/>
	<path class="st1" d="M499.4,19.2l-2.9-0.4l-4.7,32.9l2.9,0.4L499.4,19.2z"/>
	<path class="st1" d="M499.9,16l-2.9-0.4l-0.4,3.1l2.9,0.4L499.9,16z"/>
	<path class="st2" d="M499.4,19.2l-2.9-0.4l-0.1,0.9l2.9,0.4L499.4,19.2z"/>
	<path class="st4" d="M506.2,27.9h-23.4v36.5h23.4V27.9z"/>
	<path class="st2" d="M464.1,55.5h-17.5V60h17.5V55.5z"/>
	<path class="st4" d="M451.1,60h-17.5v4.5h17.5V60z"/>
	<path class="st1" d="M469.6,60h-17.5v4.5h17.5V60z"/>
	<path class="st1" d="M450.3,48.9l-16.1,7l1.8,4.1l16.1-7L450.3,48.9z"/>
</g>
</svg>
