<?xml version="1.0" encoding="utf-8"?>
<!-- Generator: Adobe Illustrator 23.1.0, SVG Export Plug-In . SVG Version: 6.00 Build 0)  -->
<svg version="1.1" id="Layer_1" xmlns="http://www.w3.org/2000/svg" xmlns:xlink="http://www.w3.org/1999/xlink" x="0px" y="0px"
	 viewBox="0 0 270 67" style="enable-background:new 0 0 270 67;" xml:space="preserve">
<style type="text/css">
	.st0{fill:#F3EDD3;}
	.st1{fill:#1D3254;}
</style>
<circle class="st0" cx="32.5" cy="-59.6" r="32.5"/>
<circle class="st0" cx="73" cy="-59.6" r="32.5"/>
<circle class="st0" cx="113.5" cy="-59.6" r="32.5"/>
<circle class="st0" cx="154" cy="-59.6" r="32.5"/>
<circle class="st0" cx="194.5" cy="-59.6" r="32.5"/>
<circle class="st0" cx="235" cy="-59.6" r="32.5"/>
<path class="st1" d="M237,2c-7.7,0-14.7,2.7-20.3,7.1C211.2,4.7,204.2,2,196.5,2s-14.7,2.7-20.3,7.1C170.7,4.7,163.7,2,156,2
	s-14.7,2.7-20.3,7.1C130.2,4.7,123.2,2,115.5,2s-14.7,2.7-20.3,7.1C89.7,4.7,82.7,2,75,2S60.3,4.7,54.8,9.1C49.2,4.7,42.2,2,34.5,2
	C16.6,2,2,16.6,2,34.5S16.6,67,34.5,67c7.7,0,14.7-2.7,20.3-7.1C60.3,64.3,67.3,67,75,67s14.7-2.7,20.3-7.1
	c5.6,4.4,12.6,7.1,20.3,7.1s14.7-2.7,20.3-7.1c5.6,4.4,12.6,7.1,20.3,7.1s14.7-2.7,20.3-7.1c5.6,4.4,12.6,7.1,20.3,7.1
	s14.7-2.7,20.3-7.1c5.6,4.4,12.6,7.1,20.3,7.1c17.9,0,32.5-14.6,32.5-32.5S254.9,2,237,2z"/>
<g>
	<path class="st0" d="M235,64.5c-7.3,0-14.2-2.4-19.9-7c-0.1-0.1-0.2-0.1-0.3-0.1s-0.2,0-0.3,0.1c-5.7,4.6-12.6,7-19.9,7
		s-14.2-2.4-19.9-7c-0.1-0.1-0.2-0.1-0.3-0.1s-0.2,0-0.3,0.1c-5.7,4.6-12.6,7-19.9,7s-14.2-2.4-19.9-7c-0.1-0.1-0.2-0.1-0.3-0.1
		s-0.2,0-0.3,0.1c-5.7,4.6-12.6,7-19.9,7s-14.2-2.4-19.9-7c-0.1-0.1-0.2-0.1-0.3-0.1s-0.2,0-0.3,0.1c-5.7,4.6-12.6,7-19.9,7
		s-14.2-2.4-19.9-7c-0.1-0.1-0.2-0.1-0.3-0.1s-0.2,0-0.3,0.1c-5.7,4.6-12.6,7-19.9,7c-17.6,0-32-14.4-32-32c0-17.6,14.4-32,32-32
		c7.3,0,14.2,2.4,19.9,7c0.1,0.1,0.2,0.1,0.3,0.1s0.2,0,0.3-0.1c5.7-4.6,12.6-7,19.9-7s14.2,2.4,19.9,7c0.1,0.1,0.2,0.1,0.3,0.1
		s0.2,0,0.3-0.1c5.7-4.6,12.6-7,19.9-7s14.2,2.4,19.9,7c0.1,0.1,0.2,0.1,0.3,0.1s0.2,0,0.3-0.1c5.7-4.6,12.6-7,19.9-7
		s14.2,2.4,19.9,7c0.1,0.1,0.2,0.1,0.3,0.1s0.2,0,0.3-0.1c5.7-4.6,12.6-7,19.9-7s14.2,2.4,19.9,7c0.1,0.1,0.2,0.1,0.3,0.1
		s0.2,0,0.3-0.1c5.7-4.6,12.6-7,19.9-7c17.6,0,32,14.4,32,32C267,50.1,252.6,64.5,235,64.5z"/>
	<path class="st1" d="M235,1c17.4,0,31.5,14.1,31.5,31.5S252.4,64,235,64c-7.2,0-14-2.4-19.6-6.9c-0.2-0.1-0.4-0.2-0.6-0.2
		s-0.4,0.1-0.6,0.2c-5.6,4.5-12.4,6.9-19.6,6.9s-14-2.4-19.6-6.9c-0.2-0.1-0.4-0.2-0.6-0.2s-0.4,0.1-0.6,0.2
		C168,61.6,161.2,64,154,64s-14-2.4-19.6-6.9c-0.2-0.1-0.4-0.2-0.6-0.2s-0.4,0.1-0.6,0.2c-5.6,4.5-12.4,6.9-19.6,6.9
		s-14-2.4-19.6-6.9c-0.2-0.1-0.4-0.2-0.6-0.2s-0.4,0.1-0.6,0.2C87,61.6,80.2,64,73,64s-14-2.4-19.6-6.9c-0.2-0.1-0.4-0.2-0.6-0.2
		s-0.4,0.1-0.6,0.2C46.5,61.6,39.7,64,32.5,64C15.1,64,1,49.9,1,32.5S15.1,1,32.5,1c7.2,0,14,2.4,19.6,6.9c0.2,0.1,0.4,0.2,0.6,0.2
		s0.4-0.1,0.6-0.2C59,3.4,65.8,1,73,1s14,2.4,19.6,6.9C92.8,8,93,8.1,93.3,8.1s0.4-0.1,0.6-0.2C99.5,3.4,106.3,1,113.5,1
		s14,2.4,19.6,6.9c0.2,0.1,0.4,0.2,0.6,0.2s0.4-0.1,0.6-0.2C140,3.4,146.8,1,154,1s14,2.4,19.6,6.9c0.2,0.1,0.4,0.2,0.6,0.2
		s0.4-0.1,0.6-0.2c5.6-4.5,12.4-6.9,19.6-6.9s14,2.4,19.6,6.9c0.2,0.1,0.4,0.2,0.6,0.2s0.4-0.1,0.6-0.2C221,3.4,227.8,1,235,1
		 M235,0c-7.7,0-14.7,2.7-20.3,7.1C209.2,2.7,202.2,0,194.5,0s-14.7,2.7-20.3,7.1C168.7,2.7,161.7,0,154,0s-14.7,2.7-20.3,7.1
		C128.2,2.7,121.2,0,113.5,0S98.8,2.7,93.3,7.1C87.7,2.7,80.7,0,73,0S58.3,2.7,52.8,7.1C47.2,2.7,40.2,0,32.5,0
		C14.6,0,0,14.6,0,32.5S14.6,65,32.5,65c7.7,0,14.7-2.7,20.3-7.1C58.3,62.3,65.3,65,73,65s14.7-2.7,20.3-7.1
		c5.6,4.4,12.6,7.1,20.3,7.1s14.7-2.7,20.3-7.1c5.6,4.4,12.6,7.1,20.3,7.1s14.7-2.7,20.3-7.1c5.6,4.4,12.6,7.1,20.3,7.1
		s14.7-2.7,20.3-7.1c5.6,4.4,12.6,7.1,20.3,7.1c17.9,0,32.5-14.6,32.5-32.5S252.9,0,235,0L235,0z"/>
</g>
</svg>
