<?xml version="1.0" encoding="utf-8"?>
<!-- Generator: Adobe Illustrator 23.1.0, SVG Export Plug-In . SVG Version: 6.00 Build 0)  -->
<svg version="1.1" id="Layer_1" xmlns="http://www.w3.org/2000/svg" xmlns:xlink="http://www.w3.org/1999/xlink" x="0px" y="0px"
	 viewBox="0 0 113.8 142.2" style="enable-background:new 0 0 113.8 142.2;" xml:space="preserve">
<style type="text/css">
	.st0{fill:#F3EDD3;stroke:#1D3254;stroke-width:2;stroke-miterlimit:10;}
	.st1{fill:#FA5D4C;stroke:#FA5D4C;stroke-miterlimit:10;}
	.st2{fill:#FFFFFF;stroke:#FA5D4C;stroke-miterlimit:10;}
</style>
<g>
	<path class="st0" d="M78.6,46.1H35.3c-1.9,0-3.4,1.5-3.4,3.4v43.3c0,1.9,1.5,3.4,3.4,3.4h43.3c1.9,0,3.4-1.5,3.4-3.4V49.4
		C81.9,47.6,80.4,46.1,78.6,46.1z"/>
	<path class="st1" d="M42.5,63.7c3.9,0,7-3.2,7-7c0-3.9-3.2-7-7-7c-3.9,0-7,3.2-7,7C35.4,60.5,38.6,63.7,42.5,63.7z"/>
	<path class="st2" d="M42.5,49.6v14.1c1.9,0,3.7-0.7,5-2.1c1.3-1.3,2.1-3.1,2.1-5c0-1.9-0.7-3.7-2.1-5
		C46.2,50.3,44.4,49.6,42.5,49.6z"/>
	<path class="st1" d="M71.4,92.6c3.9,0,7-3.2,7-7c0-3.9-3.2-7-7-7c-3.9,0-7,3.2-7,7C64.3,89.4,67.5,92.6,71.4,92.6z"/>
	<path class="st2" d="M71.3,78.5v14.1c-1.9,0-3.7-0.7-5-2.1c-1.3-1.3-2.1-3.1-2.1-5c0-1.9,0.7-3.7,2.1-5
		C67.6,79.2,69.4,78.5,71.3,78.5z"/>
</g>
</svg>
