<?xml version="1.0" encoding="utf-8"?>
<!-- Generator: Adobe Illustrator 23.1.0, SVG Export Plug-In . SVG Version: 6.00 Build 0)  -->
<svg version="1.1" id="Layer_1" xmlns="http://www.w3.org/2000/svg" xmlns:xlink="http://www.w3.org/1999/xlink" x="0px" y="0px"
	 viewBox="0 0 423 573" style="enable-background:new 0 0 423 573;" xml:space="preserve">
<style type="text/css">
	.st0{fill:#1D3254;}
	.st1{fill:none;stroke:#1D3254;}
	.st2{fill:none;stroke:#A4A6A5;stroke-width:3;stroke-linecap:round;stroke-linejoin:round;stroke-miterlimit:10;}
	.st3{fill:#F2F2F0;}
	.st4{fill:#63708B;}
	.st5{fill:none;stroke:#1D3254;stroke-width:2;}
	.st6{fill:none;stroke:#000000;}
	.st7{fill:#1D3254;stroke:#1D3254;stroke-width:2;stroke-linecap:round;stroke-linejoin:round;stroke-miterlimit:10;}
	.st8{fill:#FFFFFF;stroke:#1D3254;stroke-width:2;stroke-linecap:round;stroke-linejoin:round;stroke-miterlimit:10;}
	.st9{fill:#FFBFAD;stroke:#1D3254;stroke-width:2;stroke-linecap:round;stroke-linejoin:round;stroke-miterlimit:10;}
	.st10{fill:#FA5D4C;stroke:#1D3254;stroke-width:2;stroke-linecap:round;stroke-linejoin:round;stroke-miterlimit:10;}
	.st11{fill:#F3EDD3;stroke:#1D3254;stroke-width:2;stroke-linecap:round;stroke-linejoin:round;stroke-miterlimit:10;}
	.st12{fill:none;stroke:#383838;stroke-width:2;stroke-linecap:round;stroke-linejoin:round;stroke-miterlimit:10;}
	.st13{fill:#383838;}
	.st14{fill:url(#SVGID_1_);}
	.st15{fill:#F5EEB3;}
	.st16{fill:none;stroke:#FFFFFF;stroke-width:2;stroke-linecap:round;stroke-linejoin:round;stroke-miterlimit:10;}
	.st17{fill:#8FC2A8;}
	.st18{fill:#5E9B7C;}
	.st19{fill:#468263;}
	.st20{fill:url(#SVGID_2_);}
	.st21{fill:#704728;}
	.st22{fill:url(#SVGID_3_);}
	.st23{fill:url(#SVGID_4_);}
	.st24{fill:url(#SVGID_5_);}
</style>
<g>
	<path class="st0" d="M196.2,516.7v0.6h2.1v0.6h1v-6.3h-1v5.1H196.2z M194,512.5c1.1,0,1.7,0.4,1.7,0.9c0,0.6-0.7,0.9-1.7,0.9
		c-1,0-1.7-0.4-1.7-0.9C192.3,512.9,193,512.5,194,512.5z M194,515.1c1.6,0,2.7-0.6,2.7-1.6c0-1-1.1-1.6-2.7-1.6
		c-1.6,0-2.7,0.6-2.7,1.6C191.4,514.4,192.4,515.1,194,515.1z M193.4,518h1v-1.7c1-0.1,2.1-0.1,3.2-0.3l-0.1-0.6
		c-2.3,0.3-4.9,0.3-7,0.3l0.1,0.7c0.9,0,1.8,0,2.8,0V518z M193.1,521.5v-0.9h6.2v-2.2h-7.2v0.7h6.3v0.9h-6.2v2.3h7.6v-0.7H193.1z
		 M202.1,512.5v0.8h4c-0.2,1.9-1.9,3.4-4.4,4.2l0.4,0.8c3.1-1,5.1-3,5.1-5.8H202.1z M204.2,518.7h-1v3.5h7.2v-0.8h-6.2V518.7z
		 M209.9,514.9v-3.3h-1v7.9h1v-3.8h1.6v-0.8H209.9z M215.5,519.1c-1,0-1.8-1.1-1.8-2.9c0-1.7,0.7-2.9,1.8-2.9c1,0,1.8,1.1,1.8,2.9
		C217.3,518,216.5,519.1,215.5,519.1z M215.5,512.5c-1.6,0-2.7,1.5-2.7,3.8s1.1,3.8,2.7,3.8s2.7-1.5,2.7-3.8
		S217.1,512.5,215.5,512.5z M222.7,515.9h-1.8v-4.3h-1v10.8h1v-5.6h1.8V515.9z M232.5,511.6h-1v7.9h1V511.6z M230.3,517.2
		c-1.6-0.5-2.7-1.8-2.7-3.3v-0.6h2.4v-0.8h-5.9v0.8h2.5v0.6c0,1.5-1.1,2.9-2.7,3.5l0.5,0.8c1.3-0.5,2.3-1.4,2.7-2.7
		c0.5,1.1,1.5,2,2.7,2.4L230.3,517.2z M226.6,521.3v-2.6h-1v3.4h7.2v-0.8H226.6z"/>
	<line class="st1" x1="29.5" y1="504" x2="394.5" y2="504"/>
	<line class="st5" x1="29.5" y1="121.5" x2="394.5" y2="121.5"/>
	<line class="st5" x1="29.5" y1="51.5" x2="394.5" y2="51.5"/>
	<line class="st6" x1="295" y1="52.5" x2="295" y2="122.5"/>
	<line class="st6" x1="130" y1="52.5" x2="130" y2="122.5"/>
	<path class="st0" d="M351.2,72.5h-5.7v-0.9l2.2-2.3c0.4-0.4,0.8-0.8,1.1-1.2c0.3-0.3,0.5-0.7,0.7-1c0.2-0.3,0.2-0.7,0.2-1.1
		c0-0.5-0.1-0.8-0.4-1.1c-0.3-0.2-0.6-0.4-1.1-0.4c-0.4,0-0.8,0.1-1.1,0.2c-0.3,0.1-0.6,0.3-1,0.6l-0.6-0.7c0.3-0.3,0.7-0.5,1.2-0.7
		c0.4-0.2,0.9-0.3,1.5-0.3c0.8,0,1.4,0.2,1.9,0.6c0.5,0.4,0.7,1,0.7,1.7c0,0.4-0.1,0.9-0.3,1.3c-0.2,0.4-0.4,0.8-0.8,1.2
		c-0.3,0.4-0.7,0.8-1.2,1.2l-1.8,1.8v0h4.3V72.5z M358.1,68.2c0,0.9-0.1,1.7-0.3,2.4c-0.2,0.7-0.5,1.2-0.9,1.5
		c-0.4,0.4-1,0.5-1.7,0.5c-1,0-1.7-0.4-2.1-1.2c-0.5-0.8-0.7-1.9-0.7-3.3c0-0.9,0.1-1.7,0.3-2.4c0.2-0.7,0.5-1.2,0.9-1.5
		c0.4-0.4,1-0.5,1.6-0.5c1,0,1.7,0.4,2.1,1.2C357.9,65.7,358.1,66.8,358.1,68.2z M353.5,68.2c0,1.2,0.1,2.1,0.4,2.6
		c0.3,0.6,0.7,0.9,1.4,0.9c0.6,0,1.1-0.3,1.4-0.9c0.3-0.6,0.4-1.5,0.4-2.7c0-1.2-0.1-2-0.4-2.6c-0.3-0.6-0.7-0.9-1.4-0.9
		c-0.6,0-1.1,0.3-1.4,0.9C353.6,66.2,353.5,67,353.5,68.2z M364.9,72.5h-5.7v-0.9l2.2-2.3c0.4-0.4,0.8-0.8,1.1-1.2
		c0.3-0.3,0.5-0.7,0.7-1c0.2-0.3,0.2-0.7,0.2-1.1c0-0.5-0.1-0.8-0.4-1.1c-0.3-0.2-0.6-0.4-1.1-0.4c-0.4,0-0.8,0.1-1.1,0.2
		c-0.3,0.1-0.6,0.3-1,0.6l-0.6-0.7c0.3-0.3,0.7-0.5,1.2-0.7c0.4-0.2,0.9-0.3,1.5-0.3c0.8,0,1.4,0.2,1.9,0.6c0.5,0.4,0.7,1,0.7,1.7
		c0,0.4-0.1,0.9-0.3,1.3c-0.2,0.4-0.4,0.8-0.8,1.2c-0.3,0.4-0.7,0.8-1.2,1.2l-1.8,1.8v0h4.3V72.5z M371.8,72.5h-5.7v-0.9l2.2-2.3
		c0.4-0.4,0.8-0.8,1.1-1.2c0.3-0.3,0.5-0.7,0.7-1c0.2-0.3,0.2-0.7,0.2-1.1c0-0.5-0.1-0.8-0.4-1.1c-0.3-0.2-0.6-0.4-1.1-0.4
		c-0.4,0-0.8,0.1-1.1,0.2c-0.3,0.1-0.6,0.3-1,0.6l-0.6-0.7c0.3-0.3,0.7-0.5,1.2-0.7c0.4-0.2,0.9-0.3,1.5-0.3c0.8,0,1.4,0.2,1.9,0.6
		c0.5,0.4,0.7,1,0.7,1.7c0,0.4-0.1,0.9-0.3,1.3c-0.2,0.4-0.4,0.8-0.8,1.2c-0.3,0.4-0.7,0.8-1.2,1.2l-1.8,1.8v0h4.3V72.5z
		 M380.9,70.6h1v-8h-1V64h-3v0.8h3v1.3h-3v0.8h3V70.6z M379.2,67.8c-1.6,0.3-3,0.4-4.5,0.4v-4.8h-1V69h0.8c1.6,0,3-0.1,4.8-0.4
		L379.2,67.8z M376,72.3v-2.4h-1v3.2h7.2v-0.8H376z M389.5,71.2v-2.8h3.3v-0.8h-6.4v-3.4h6.3v-0.8h-7.3v5h3.1v2.8h-4.4V72h9.8v-0.8
		H389.5z M366.2,82.7h1.9v-0.8h-4.9v0.8h2v1c0,2-0.8,3.9-2.3,4.8l0.6,0.7c1.1-0.7,1.8-1.9,2.2-3.4c0.4,1.4,1.1,2.5,2.2,3.1l0.6-0.7
		c-1.5-0.8-2.3-2.7-2.3-4.6V82.7z M369.1,84.5h-1.8v0.8h1.8v5.5h0.9v-10h-0.9V84.5z M371.3,80.6v10.8h0.9V80.6H371.3z M382.8,90.5
		h-5.7v-0.9l2.2-2.3c0.4-0.4,0.8-0.8,1.1-1.2c0.3-0.3,0.5-0.7,0.7-1c0.2-0.3,0.2-0.7,0.2-1.1c0-0.5-0.1-0.8-0.4-1.1
		c-0.3-0.2-0.6-0.4-1.1-0.4c-0.4,0-0.8,0.1-1.1,0.2c-0.3,0.1-0.6,0.3-1,0.6l-0.6-0.7c0.3-0.3,0.7-0.5,1.2-0.7
		c0.4-0.2,0.9-0.3,1.5-0.3c0.8,0,1.4,0.2,1.9,0.6c0.5,0.4,0.7,1,0.7,1.7c0,0.4-0.1,0.9-0.3,1.3c-0.2,0.4-0.4,0.8-0.8,1.2
		c-0.3,0.4-0.7,0.8-1.2,1.2l-1.8,1.8v0h4.3V90.5z M393.3,82.2h-3.9v-1.4h-1v1.4h-3.9V83h8.7V82.2z M386.4,85.8c0-0.8,1-1.3,2.5-1.3
		c1.5,0,2.5,0.5,2.5,1.3c0,0.8-1,1.3-2.5,1.3C387.4,87.1,386.4,86.6,386.4,85.8z M389.5,89.3v-1.5c1.9-0.1,3-0.8,3-2
		c0-1.3-1.4-2-3.5-2c-2.2,0-3.5,0.7-3.5,2c0,1.2,1.2,1.9,3,2v1.5h-4.4v0.8h9.8v-0.8H389.5z"/>
	<path class="st7" d="M199,112.5c6.9,0,12.5-5.6,12.5-12.5c0-6.9-5.6-12.5-12.5-12.5s-12.5,5.6-12.5,12.5
		C186.5,106.9,192.1,112.5,199,112.5z"/>
	<path class="st8" d="M186.5,100c0-2.2,0.6-4.3,1.5-6c0.4-0.8,1-1.5,1.6-2.2c0.5-0.5,1-1,1.6-1.5c0.5-0.4,1-0.8,1.5-1.1
		c0.5-0.3,1-0.6,1.5-0.8c0.5-0.2,1-0.4,1.6-0.5c0.5-0.1,1-0.2,1.6-0.3c0.5-0.1,1-0.1,1.5-0.1v25c-0.5,0-1,0-1.5-0.1
		c-0.5-0.1-1.1-0.2-1.6-0.3c-0.5-0.1-1.1-0.3-1.6-0.5c-0.5-0.2-1.1-0.5-1.5-0.8c-0.6-0.3-1.1-0.7-1.5-1.1c-0.6-0.4-1.1-1-1.6-1.5
		c-0.6-0.7-1.1-1.4-1.6-2.2C187.1,104.3,186.5,102.2,186.5,100z"/>
	<path class="st8" d="M236.5,62.5h-25V75h25V62.5z"/>
	<path class="st8" d="M211.5,75c0,6.9-5.6,12.5-12.5,12.5s-12.5-5.6-12.5-12.5H211.5z"/>
	<path class="st8" d="M224,100c0-2.2,0.6-4.3,1.5-6c0.4-0.8,1-1.5,1.6-2.2c0.5-0.5,1-1,1.6-1.5c0.5-0.4,1-0.8,1.5-1.1
		c0.5-0.3,1-0.6,1.5-0.8c0.5-0.2,1-0.4,1.6-0.5c0.5-0.1,1-0.2,1.6-0.3c0.5-0.1,1-0.1,1.5-0.1v25c-0.5,0-1,0-1.5-0.1
		c-0.5-0.1-1.1-0.2-1.6-0.3c-0.5-0.1-1.1-0.3-1.6-0.5c-0.5-0.2-1.1-0.5-1.5-0.8c-0.6-0.3-1.1-0.7-1.5-1.1c-0.6-0.4-1.1-1-1.6-1.5
		c-0.6-0.7-1.1-1.4-1.6-2.2C224.6,104.3,224,102.2,224,100z"/>
	<path class="st9" d="M236.5,87.5h-25v10.3h25V87.5z"/>
	<path class="st8" d="M211.5,87.5c6.9,0,12.5,5.6,12.5,12.5c0,6.9-5.6,12.5-12.5,12.5V87.5z"/>
	<path class="st10" d="M236.5,62.5c-6.9,0-12.5,5.6-12.5,12.5s5.6,12.5,12.5,12.5V62.5z"/>
	<path class="st11" d="M199,62.5c-6.9,0-12.5,5.6-12.5,12.5h25C211.5,68.1,205.9,62.5,199,62.5z"/>
	<path class="st0" d="M45.2,66h2.2v8.5c-0.7,0-1.4,0.1-2.2,0.1V66z M50.1,66h1.7v-2.2H40.9V66h1.7v8.7c-0.8,0-1.5,0-2.2,0l0.3,2.3
		c3.5,0,7.9-0.1,12-0.8l-0.2-2c-0.8,0.1-1.6,0.2-2.4,0.2V66z M53.7,62v19.3h2.8V62H53.7z M76.2,62h-2.6v12.9h2.6V62z M67.8,66.8V69
		h2v4.2h2.6V62.3h-2.6v4.5H67.8z M69.2,71c-2.5-0.9-3.4-3-3.4-5.1v-0.4h2.8v-2.2h-8.5v2.2h3v0.4c0,2.2-1,4.5-3.7,5.6l1.4,2.1
		c1.8-0.7,2.9-2,3.6-3.6c0.7,1.4,1.7,2.5,3.4,3.1L69.2,71z M70.9,74h-2.8v0.5c0,2-2,4.1-6.1,4.6l1,2.1c3.1-0.4,5.4-1.7,6.5-3.5
		c1.2,1.8,3.4,3.1,6.5,3.5l1-2.1c-4.2-0.5-6.2-2.6-6.2-4.6V74z M50.3,101.2v1.9h3.6v1.5h2.8V90h-2.8v11.2H50.3z M46.6,92.6
		c1.3,0,2.2,0.5,2.2,1.4s-0.9,1.4-2.2,1.4c-1.3,0-2.2-0.5-2.2-1.4S45.3,92.6,46.6,92.6z M46.6,97.5c2.8,0,4.8-1.4,4.8-3.4
		s-2-3.5-4.8-3.5c-2.8,0-4.8,1.4-4.8,3.5S43.7,97.5,46.6,97.5z M45.5,106.8v-2.6h2.7v-3.7c1.6-0.1,3.1-0.3,4.6-0.5l-0.2-2
		c-4.1,0.5-8.8,0.6-12.3,0.6l0.4,2.2c1.4,0,3.1,0,4.8-0.1v2.6h-2.7v5.8h14.3v-2.2H45.5z M63.4,93.9h6v-2.2h-8.8v13h1.6
		c3.5,0,5.8-0.1,8.4-0.6l-0.3-2.2c-2.2,0.4-4.2,0.5-7,0.5V93.9z M73.2,90v6.7h-4.7v2.2h4.7v10.5H76V90H73.2z M91.3,97.7h1.6v6.6h2.6
		V90h-2.6v5.5h-1.6v-5.1h-2.6v13.6h2.6V97.7z M87.9,99.1c-1.7,0.3-3.3,0.4-5.4,0.4v-1.9h4.6v-6h-7.3v2.2h4.7v1.8h-4.6v6.1h1.3
		c2.8,0,4.7-0.1,6.9-0.4L87.9,99.1z M85.3,106.8V103h-2.8v6H96v-2.2H85.3z M114,98.9h-10.8v-5.1h10.7v-2.2h-13.5v9.5H114V98.9z
		 M98.4,104.7v2.3h17.5v-2.3H98.4z"/>
	<path class="st12" d="M146.6,325.7c-15-5.9-24.1-13.9-24.1-22.6c0-18.2,39.9-33,89-33s89,14.8,89,33c0,8.8-9.2,16.7-24.1,22.6"/>
	<path class="st13" d="M211.5,405.9c14.6,0.1,29.1-1.3,43.4-4.2c-5.7-5.8-12.4-10.4-19.9-13.5c-7.5-3.1-15.5-4.8-23.6-4.8
		s-16.1,1.6-23.6,4.8c-7.5,3.1-14.2,7.7-19.9,13.5C182.4,404.5,196.9,405.9,211.5,405.9z"/>
	<path class="st13" d="M211.5,192.5c-16.1-0.1-32.1,1.6-47.9,5.2c5.7,7.3,12.9,13.1,21.2,17.2c8.3,4,17.4,6.1,26.6,6.1
		s18.3-2.1,26.6-6.1c8.3-4,15.6-9.9,21.2-17.2C243.6,194.1,227.6,192.4,211.5,192.5z"/>
	<path class="st12" d="M211.5,411.9c49.2,0,89-14.8,89-33c0-18.2-39.8-33-89-33s-89,14.8-89,33C122.5,397.1,162.3,411.9,211.5,411.9
		z"/>
	<path class="st12" d="M211.5,252.5c49.2,0,89-14.8,89-33s-39.8-33-89-33s-89,14.8-89,33S162.3,252.5,211.5,252.5z"/>
	
		<linearGradient id="SVGID_1_" gradientUnits="userSpaceOnUse" x1="-50.5105" y1="417.624" x2="-50.5105" y2="297.176" gradientTransform="matrix(1 0 0 -1 262.01 660.4)">
		<stop  offset="0" style="stop-color:#53BDBC"/>
		<stop  offset="1" style="stop-color:#2D8281"/>
	</linearGradient>
	<path class="st14" d="M211.5,363.2c33.5,0,60.7-27,60.7-60.2s-27.2-60.2-60.7-60.2c-33.5,0-60.7,27-60.7,60.2
		S178,363.2,211.5,363.2z"/>
	<path class="st15" d="M211.2,319c14.9,0,27-12,27-26.8c0-14.8-12.1-26.8-27-26.8c-14.9,0-27,12-27,26.8
		C184.2,307,196.3,319,211.2,319z"/>
	<path class="st13" d="M233.4,287.5c-5-4.4-13-7.3-22.2-7.3c-9.1,0-17.3,2.9-22.2,7.3c0,0,3-13.5,21.9-13.5
		C230.4,274,233.4,287.5,233.4,287.5z"/>
	<path class="st13" d="M195.9,281.5c0,0-3.3-8.3-17.8-7.2C178.1,274.3,177.5,286.4,195.9,281.5z"/>
	<path class="st13" d="M196.5,280.9c0,0,7.8-3.3,9.5-7.7c1.7-4.4-1.1-11.6-1.1-11.6s-3.5,3.7-10,8.3
		C190.9,272.6,196.5,280.9,196.5,280.9z"/>
	<path class="st13" d="M197,282.6c0,0,2.2-3.9-0.6-4.4c-2.8-0.6-2.6,0.6-2.6,0.6s1.9,2.1,0,3.3C192,283.1,197,282.6,197,282.6z"/>
	<path class="st16" d="M254.9,332c-28.7,5.6-58.2,5.6-86.9,0"/>
</g>
</svg>
