<?xml version="1.0" encoding="utf-8"?>
<!-- Generator: Adobe Illustrator 23.1.0, SVG Export Plug-In . SVG Version: 6.00 Build 0)  -->
<svg version="1.1" id="Layer_1" xmlns="http://www.w3.org/2000/svg" xmlns:xlink="http://www.w3.org/1999/xlink" x="0px" y="0px"
	 viewBox="0 0 423 573" style="enable-background:new 0 0 423 573;" xml:space="preserve">
<style type="text/css">
	.st0{fill:#1D3254;stroke:#1D3254;stroke-width:3;stroke-linecap:round;stroke-linejoin:round;stroke-miterlimit:10;}
	.st1{fill:#FFFFFF;stroke:#1D3254;stroke-width:3;stroke-linecap:round;stroke-linejoin:round;stroke-miterlimit:10;}
	.st2{fill:none;stroke:#1D3254;stroke-width:2;stroke-linecap:round;stroke-linejoin:round;stroke-miterlimit:10;}
	.st3{fill:#FFBFAD;stroke:#1D3254;stroke-width:3;stroke-linecap:round;stroke-linejoin:round;stroke-miterlimit:10;}
	.st4{fill:#FA5D4C;stroke:#1D3254;stroke-width:3;stroke-linecap:round;stroke-linejoin:round;stroke-miterlimit:10;}
	.st5{fill:#F3EDD3;stroke:#1D3254;stroke-width:3;stroke-linecap:round;stroke-linejoin:round;stroke-miterlimit:10;}
	.st6{enable-background:new    ;}
	.st7{fill:#1D3254;}
</style>
<g>
	<path class="st0" d="M174.4,310.5c20.4,0,37-16.6,37-37s-16.6-37-37-37s-37,16.6-37,37S154,310.5,174.4,310.5z"/>
	<path class="st1" d="M137.4,273.5c0-6.5,1.7-12.6,4.6-17.9c1.3-2.3,2.8-4.6,4.7-6.6c1.4-1.6,3-3.1,4.7-4.4c1.4-1.2,3-2.2,4.6-3.2
		c1.5-0.8,3-1.7,4.6-2.2c1.5-0.6,3.1-1.2,4.7-1.6c1.5-0.3,3.1-0.7,4.7-0.8c1.5-0.2,3.1-0.3,4.6-0.3v74c-1.6,0-3.1-0.1-4.6-0.3
		c-1.6-0.2-3.2-0.5-4.7-0.8c-1.6-0.4-3.2-0.9-4.7-1.6c-1.6-0.7-3.2-1.4-4.6-2.2c-1.7-0.9-3.2-2-4.6-3.2c-1.7-1.3-3.2-2.8-4.7-4.4
		c-1.7-2-3.3-4.2-4.7-6.6C139.1,286.1,137.4,280,137.4,273.5z"/>
	<path class="st2" d="M165.2,237.7v71.7"/>
	<path class="st2" d="M155.9,241.5v64"/>
	<path class="st2" d="M146.6,249.1V298"/>
	<path class="st1" d="M285.4,162.5h-74v37h74V162.5z"/>
	<path class="st2" d="M211.4,171.8h74"/>
	<path class="st2" d="M211.4,181h74"/>
	<path class="st2" d="M211.4,190.4h74"/>
	<path class="st1" d="M211.4,199.5c0,20.5-16.5,37-37,37s-37-16.5-37-37H211.4z"/>
	<path class="st2" d="M202.7,199.5c0,15.6-12.7,28.3-28.3,28.3c-15.5,0-28.3-12.8-28.3-28.3"/>
	<path class="st2" d="M194,199.5c0,10.8-8.8,19.6-19.6,19.6s-19.6-8.8-19.6-19.6"/>
	<path class="st2" d="M185.3,199.5c0,6-4.9,10.9-10.9,10.9s-10.9-4.9-10.9-10.9"/>
	<path class="st1" d="M248.4,273.5c0-6.5,1.7-12.6,4.6-17.9c1.3-2.3,2.8-4.6,4.7-6.6c1.4-1.6,3-3.1,4.7-4.4c1.4-1.2,3-2.2,4.6-3.2
		c1.5-0.8,3-1.7,4.6-2.2c1.5-0.6,3.1-1.2,4.7-1.6c1.5-0.3,3.1-0.7,4.7-0.8c1.5-0.2,3.1-0.3,4.6-0.3v74c-1.6,0-3.1-0.1-4.6-0.3
		c-1.6-0.2-3.2-0.5-4.7-0.8c-1.6-0.4-3.2-0.9-4.7-1.6c-1.6-0.7-3.2-1.4-4.6-2.2c-1.7-0.9-3.2-2-4.6-3.2c-1.7-1.3-3.2-2.8-4.7-4.4
		c-1.7-2-3.3-4.2-4.7-6.6C250.1,286.1,248.4,280,248.4,273.5z"/>
	<path class="st2" d="M276.2,237.7v71.7"/>
	<path class="st2" d="M266.9,241.5v64"/>
	<path class="st2" d="M257.6,249.1V298"/>
	<path class="st3" d="M285.4,236.5h-74v30.4h74V236.5z"/>
	<path class="st1" d="M211.4,236.5c20.5,0,37,16.5,37,37s-16.5,37-37,37V236.5z"/>
	<path class="st2" d="M211.4,245.2c15.6,0,28.3,12.7,28.3,28.3c0,15.5-12.7,28.3-28.3,28.3"/>
	<path class="st2" d="M211.4,253.9c10.8,0,19.6,8.8,19.6,19.6s-8.8,19.6-19.6,19.6"/>
	<path class="st2" d="M211.4,262.6c6,0,10.9,4.9,10.9,10.9s-4.9,10.9-10.9,10.9"/>
	<path class="st4" d="M285.4,162.5c-20.5,0-37,16.5-37,37s16.5,37,37,37V162.5z"/>
	<path class="st5" d="M174.4,162.5c-20.5,0-37,16.5-37,37h74C211.4,179,194.9,162.5,174.4,162.5z"/>
</g>
<g class="st6">
	<path class="st7" d="M161.9,389v2.5h-8.2v3.7h-3.2v-3.7h-8.7V389H161.9z M142.7,385.4c4.3-0.5,6.5-2.3,6.9-4h-5.9v-2.5H160v2.5h-6
		c0.4,1.8,2.5,3.6,6.9,4l-1.2,2.5c-4.1-0.5-6.8-2.2-8-4.4c-1.1,2.3-3.8,4-8,4.4L142.7,385.4z M147.3,397.2h12.3v2.5h-15.5v-6.4h3.2
		V397.2z"/>
	<path class="st7" d="M168.2,379.7v5.4h4.6v-5.4h3.1V395H165v-15.2H168.2z M168.2,392.4h4.6v-4.9h-4.6V392.4z M182.2,377.9v22.2
		h-3.2v-22.2H182.2z"/>
	<path class="st7" d="M197.6,390.5v1.6c3.8,0.3,6,1.7,6,3.9c0,2.5-2.9,4-7.7,4s-7.7-1.4-7.7-4c0-2.3,2.3-3.6,6.1-4v-1.6H186V388h20
		v2.5H197.6z M186.9,384.7c4.1-0.4,6.3-1.8,6.8-3.3h-5.9v-2.5h16.3v2.5h-5.9c0.6,1.5,2.7,2.9,6.8,3.3l-1.1,2.4c-4.2-0.4-6.9-1.9-8-4
		c-1.2,2.1-3.9,3.6-8.1,4L186.9,384.7z M195.9,394.5c-3,0-4.5,0.5-4.5,1.6c0,1.1,1.5,1.6,4.5,1.6c3,0,4.5-0.5,4.5-1.6
		C200.4,395,198.9,394.5,195.9,394.5z"/>
	<path class="st7" d="M220.4,384.1c0,3-2.6,5.2-6,5.2c-3.4,0-6-2.2-6-5.2c0-3,2.6-5.2,6-5.2C217.9,378.9,220.4,381.1,220.4,384.1z
		 M211.5,384.1c0,1.7,1.2,2.6,2.9,2.6s2.9-1,2.9-2.6c0-1.6-1.2-2.6-2.9-2.6S211.5,382.5,211.5,384.1z M214.9,390.8v2.1h8.4v-2.1h3.1
		v9h-14.7v-9H214.9z M214.9,397.3h8.4v-2h-8.4V397.3z M226.5,378v11.9h-3.2V378H226.5z"/>
	<path class="st7" d="M234.5,391.9c2.9-0.1,6-0.3,9.3-1l0.3,2.6c-3.8,0.8-7.4,1-10.8,1h-2V380h3.1V391.9z M248.6,377.9V400h-3.2
		v-22.1H248.6z"/>
	<path class="st7" d="M256.3,392.2c3.1,0,5.8-0.2,8.6-0.7l0.3,2.6c-3.3,0.6-6.4,0.7-10.2,0.7h-1.9V380h10.3v2.6h-7.2V392.2z
		 M272.8,388.7h-3.2v11.4h-3.2V378h3.2v8.2h3.2V388.7z"/>
	<path class="st7" d="M275.6,396c0-1.3,0.9-2.3,2.2-2.3s2.2,1,2.2,2.3c0,1.3-1,2.3-2.2,2.3S275.6,397.3,275.6,396z M276.1,383.1
		l-0.1-3.3h3.6l-0.1,3.3l-0.5,8.9h-2.3L276.1,383.1z"/>
</g>
</svg>
