<?xml version="1.0" encoding="utf-8"?>
<!-- Generator: Adobe Illustrator 23.1.0, SVG Export Plug-In . SVG Version: 6.00 Build 0)  -->
<svg version="1.1" id="Layer_1" xmlns="http://www.w3.org/2000/svg" xmlns:xlink="http://www.w3.org/1999/xlink" x="0px" y="0px"
	 viewBox="0 0 113.8 142.2" style="enable-background:new 0 0 113.8 142.2;" xml:space="preserve">
<style type="text/css">
	.st0{fill:#F3EDD3;stroke:#1D3254;stroke-width:2;stroke-miterlimit:10;}
	.st1{fill:#FA5D4C;stroke:#FA5D4C;stroke-miterlimit:10;}
	.st2{fill:#FFFFFF;stroke:#FA5D4C;stroke-miterlimit:10;}
</style>
<g>
	<path class="st0" d="M78.6,46.1H35.3c-1.9,0-3.4,1.5-3.4,3.4v43.3c0,1.9,1.5,3.4,3.4,3.4h43.3c1.9,0,3.4-1.5,3.4-3.4V49.4
		C81.9,47.6,80.4,46.1,78.6,46.1z"/>
	<path class="st1" d="M56.9,78.1c3.9,0,7-3.2,7-7c0-3.9-3.2-7-7-7s-7,3.2-7,7C49.9,75,53,78.1,56.9,78.1z"/>
	<path class="st2" d="M64,71.1H49.9c0,1.9,0.7,3.7,2.1,5c1.3,1.3,3.1,2.1,5,2.1c1.9,0,3.7-0.7,5-2.1C63.2,74.7,64,72.9,64,71.1z"/>
</g>
</svg>
