<?xml version="1.0" encoding="utf-8"?>
<!-- Generator: Adobe Illustrator 23.1.0, SVG Export Plug-In . SVG Version: 6.00 Build 0)  -->
<svg version="1.1" id="Layer_1" xmlns="http://www.w3.org/2000/svg" xmlns:xlink="http://www.w3.org/1999/xlink" x="0px" y="0px"
	 viewBox="0 0 52 52" style="enable-background:new 0 0 52 52;" xml:space="preserve">
<style type="text/css">
	.st0{fill:#FA5D4C;}
	.st1{fill:#F3EDD3;}
</style>
<rect class="st0" width="52" height="52"/>
<g>
	<g>
		<path class="st1" d="M34.3,39H17.7c-0.9,0-1.6-0.7-1.6-1.5v-9.1c0-0.8,0.7-1.5,1.6-1.5s1.6,0.7,1.6,1.5v7.6h13.5v-7.6
			c0-0.8,0.7-1.5,1.6-1.5s1.6,0.7,1.6,1.5v9.1C35.9,38.3,35.2,39,34.3,39z"/>
	</g>
	<g>
		<path class="st1" d="M38.4,26c-0.3,0-0.7-0.1-1-0.3L26,16.5l-11.5,9.2c-0.7,0.5-1.6,0.4-2.2-0.2c-0.5-0.7-0.4-1.7,0.2-2.2L25,13.3
			c0.6-0.5,1.4-0.5,1.9,0l12.4,9.9c0.7,0.5,0.8,1.5,0.2,2.2C39.4,25.8,38.9,26,38.4,26z"/>
	</g>
</g>
</svg>
