<?xml version="1.0" encoding="utf-8"?>
<!-- Generator: Adobe Illustrator 23.1.0, SVG Export Plug-In . SVG Version: 6.00 Build 0)  -->
<svg version="1.1" id="Layer_1" xmlns="http://www.w3.org/2000/svg" xmlns:xlink="http://www.w3.org/1999/xlink" x="0px" y="0px"
	 viewBox="0 0 52 52" style="enable-background:new 0 0 52 52;" xml:space="preserve">
<style type="text/css">
	.st0{fill:#FA5D4C;}
	.st1{fill:#F3EDD3;}
</style>
<rect class="st0" width="52" height="52"/>
<g>
	<g>
		<path class="st1" d="M39,38H13c-0.8,0-1.5-0.7-1.5-1.5v-21c0-0.8,0.7-1.5,1.5-1.5h26c0.8,0,1.5,0.7,1.5,1.5v21
			C40.5,37.3,39.8,38,39,38z M14.5,35h23V17h-23V35z"/>
	</g>
	<g>
		<path class="st1" d="M26,29c-0.3,0-0.7-0.1-1-0.4l-13-12c-0.6-0.5-0.7-1.5-0.2-2.1c0.5-0.6,1.5-0.7,2.1-0.2l12,11.2l12-11.2
			c0.6-0.5,1.6-0.5,2.1,0.2s0.5,1.6-0.2,2.1l-13,12C26.7,28.9,26.3,29,26,29z"/>
	</g>
</g>
</svg>
