<?xml version="1.0" encoding="utf-8"?>
<!-- Generator: Adobe Illustrator 23.1.0, SVG Export Plug-In . SVG Version: 6.00 Build 0)  -->
<svg version="1.1" id="Layer_1" xmlns="http://www.w3.org/2000/svg" xmlns:xlink="http://www.w3.org/1999/xlink" x="0px" y="0px"
	 viewBox="0 0 52 52" style="enable-background:new 0 0 52 52;" xml:space="preserve">
<style type="text/css">
	.st0{fill:#FA5D4C;}
	.st1{fill:none;stroke:#F3EDD3;stroke-width:3;stroke-linecap:round;stroke-linejoin:round;stroke-miterlimit:10;}
	.st2{fill:#F3EDD3;}
</style>
<rect class="st0" width="52" height="52"/>
<g>
	<path class="st1" d="M20.4,38.9c-3.4,1.1-6.8-1.1-7.9-2.2 M20.9,40c0,0-1.1-4.5,1.1-6.7c-3-0.1-5.8-1.3-7.9-3.4
		c-3.4-3.4-2.3-10.1,0-12.3c-0.3-0.9-0.4-2-0.2-3c0.2-1,0.7-1.9,1.3-2.7c0,0,3.4,0,5.7,2.2c2.3-1.1,7.9-1.1,10.2,0
		c2.3-2.2,5.6-2.2,5.6-2.2c0.7,0.7,1.1,1.7,1.3,2.6c0.2,1,0.1,2-0.2,3c2.3,2.2,3.4,9,0,12.3c-2.1,2-4.9,3.2-7.9,3.4
		c2.3,2.2,1.1,6.7,1.1,6.7"/>
</g>
</svg>
