<?xml version="1.0" encoding="utf-8"?>
<!-- Generator: Adobe Illustrator 23.1.0, SVG Export Plug-In . SVG Version: 6.00 Build 0)  -->
<svg version="1.1" id="Layer_1" xmlns="http://www.w3.org/2000/svg" xmlns:xlink="http://www.w3.org/1999/xlink" x="0px" y="0px"
	 viewBox="0 0 167.9 151" style="enable-background:new 0 0 167.9 151;" xml:space="preserve">
<style type="text/css">
	.st0{fill:#1D3254;stroke:#1D3254;stroke-width:3;stroke-linecap:round;stroke-linejoin:round;stroke-miterlimit:10;}
	.st1{fill:#FFFFFF;stroke:#1D3254;stroke-width:3;stroke-linecap:round;stroke-linejoin:round;stroke-miterlimit:10;}
	.st2{fill:none;stroke:#1D3254;stroke-width:2;stroke-linecap:round;stroke-linejoin:round;stroke-miterlimit:10;}
	.st3{fill:#FFBFAD;stroke:#1D3254;stroke-width:3;stroke-linecap:round;stroke-linejoin:round;stroke-miterlimit:10;}
	.st4{fill:#FA5D4C;stroke:#1D3254;stroke-width:3;stroke-linecap:round;stroke-linejoin:round;stroke-miterlimit:10;}
	.st5{fill:#F3EDD3;stroke:#1D3254;stroke-width:3;stroke-linecap:round;stroke-linejoin:round;stroke-miterlimit:10;}
	.st6{clip-path:url(#SVGID_2_);}
	.st7{fill:#1D3254;}
</style>
<g>
	<path class="st0" d="M38.5,149.5c20.4,0,37-16.6,37-37s-16.6-37-37-37s-37,16.6-37,37S18.1,149.5,38.5,149.5z"/>
	<path class="st1" d="M1.5,112.5c0-6.5,1.7-12.6,4.6-17.9c1.3-2.3,2.8-4.6,4.7-6.6c1.4-1.6,3-3.1,4.7-4.4c1.4-1.2,3-2.2,4.6-3.2
		c1.5-0.8,3-1.7,4.6-2.2c1.5-0.6,3.1-1.2,4.7-1.6c1.5-0.3,3.1-0.7,4.7-0.8c1.5-0.2,3.1-0.3,4.6-0.3v74c-1.6,0-3.1-0.1-4.6-0.3
		c-1.6-0.2-3.2-0.5-4.7-0.8c-1.6-0.4-3.2-0.9-4.7-1.6c-1.6-0.7-3.2-1.4-4.6-2.2c-1.7-0.9-3.2-2-4.6-3.2c-1.7-1.3-3.2-2.8-4.7-4.4
		c-1.7-2-3.3-4.2-4.7-6.6C3.2,125.1,1.5,119,1.5,112.5z"/>
	<path class="st2" d="M29.3,76.7v71.7"/>
	<path class="st2" d="M20,80.5v64"/>
	<path class="st2" d="M10.7,88.1V137"/>
	<path class="st1" d="M149.5,1.5h-74v37h74V1.5z"/>
	<path class="st2" d="M75.5,10.8h74"/>
	<path class="st2" d="M75.5,20h74"/>
	<path class="st2" d="M75.5,29.4h74"/>
	<path class="st1" d="M75.5,38.5c0,20.5-16.5,37-37,37s-37-16.5-37-37H75.5z"/>
	<path class="st2" d="M66.8,38.5c0,15.6-12.7,28.3-28.3,28.3C23,66.8,10.2,54,10.2,38.5"/>
	<path class="st2" d="M58.1,38.5c0,10.8-8.8,19.6-19.6,19.6s-19.6-8.8-19.6-19.6"/>
	<path class="st2" d="M49.4,38.5c0,6-4.9,10.9-10.9,10.9s-10.9-4.9-10.9-10.9"/>
	<path class="st1" d="M112.5,112.5c0-6.5,1.7-12.6,4.6-17.9c1.3-2.3,2.8-4.6,4.7-6.6c1.4-1.6,3-3.1,4.7-4.4c1.4-1.2,3-2.2,4.6-3.2
		c1.5-0.8,3-1.7,4.6-2.2c1.5-0.6,3.1-1.2,4.7-1.6c1.5-0.3,3.1-0.7,4.7-0.8c1.5-0.2,3.1-0.3,4.6-0.3v74c-1.6,0-3.1-0.1-4.6-0.3
		c-1.6-0.2-3.2-0.5-4.7-0.8c-1.6-0.4-3.2-0.9-4.7-1.6c-1.6-0.7-3.2-1.4-4.6-2.2c-1.7-0.9-3.2-2-4.6-3.2c-1.7-1.3-3.2-2.8-4.7-4.4
		c-1.7-2-3.3-4.2-4.7-6.6C114.2,125.1,112.5,119,112.5,112.5z"/>
	<path class="st2" d="M140.3,76.7v71.7"/>
	<path class="st2" d="M131,80.5v64"/>
	<path class="st2" d="M121.7,88.1V137"/>
	<path class="st3" d="M149.5,75.5h-74v30.4h74V75.5z"/>
	<path class="st1" d="M75.5,75.5c20.5,0,37,16.5,37,37s-16.5,37-37,37V75.5z"/>
	<path class="st2" d="M75.5,84.2c15.6,0,28.3,12.7,28.3,28.3c0,15.5-12.7,28.3-28.3,28.3"/>
	<path class="st2" d="M75.5,92.9c10.8,0,19.6,8.8,19.6,19.6s-8.8,19.6-19.6,19.6"/>
	<path class="st2" d="M75.5,101.6c6,0,10.9,4.9,10.9,10.9s-4.9,10.9-10.9,10.9"/>
	<path class="st4" d="M149.5,1.5c-20.5,0-37,16.5-37,37s16.5,37,37,37V1.5z"/>
	<path class="st5" d="M38.5,1.5c-20.5,0-37,16.5-37,37h74C75.5,18,59,1.5,38.5,1.5z"/>
	<g>
		<defs>
			<rect id="SVGID_1_" x="149.5" y="1.5" width="18.4" height="74"/>
		</defs>
		<clipPath id="SVGID_2_">
			<use xlink:href="#SVGID_1_"  style="overflow:visible;"/>
		</clipPath>
		<g class="st6">
			<path class="st7" d="M166.9,15.3c0,1.6-0.3,2.4-1.2,2.7c-0.9,0.5-2.1,0.5-3.8,0.5c-0.1-0.8-0.6-2.2-1-2.9
				c1.1,0.1,2.4,0.1,2.8,0.1s0.5-0.2,0.5-0.5v-2.2h-8.5c-0.5,2.2-2.4,4.2-3.8,5.7c-0.4-0.6-1.4-1.6-1.9-2c2.4-2.4,3.6-5.9,3.6-8.7
				V1.5h13.2V15.3z M164.3,10.4V8.7h-8.1c0,0.6-0.1,1.2-0.1,1.9L164.3,10.4L164.3,10.4z M156.2,4.2v1.9h8.1V4.2H156.2z"/>
			<path class="st7" d="M156.2,26.9h3.4v2.7h-3.4v8.1h-2.8v-8.1h-3.2v-2.7h3.2v-3.5h-2.8v-2.7h8.5v2.7h-2.8V26.9z M163.2,32.9h-2.7
				v-11h2.7V32.9z M167.3,20v14.3c0,1.7-0.3,2.5-1.3,2.8c-1,0.5-2.4,0.6-4.3,0.5c-0.1-0.9-0.6-2.2-1-2.9c1.3,0.1,2.7,0.1,3.1,0.1
				s0.6-0.1,0.6-0.5V20H167.3z"/>
			<path class="st7" d="M155.4,55.5c-0.3-0.5-0.8-1.1-1.3-1.8c-0.8,1.3-1.7,2.3-2.9,3c-0.3-0.7-1-1.7-1.6-2.2c1.1-0.6,2-1.6,2.6-2.8
				l-0.4-0.5l-0.1,0.5l-2.1-1.4c0.3-1.5,0.7-3.4,1-5.5h-1v-2.5h1.4c0.2-1.3,0.3-2.5,0.5-3.7l2.5,0.2c-0.2,1.1-0.3,2.3-0.5,3.5h1h0.4
				l1.6,0.2c-0.1,3.5-0.5,6.4-1.3,8.6c0.8,0.8,1.4,1.5,1.8,2.2L155.4,55.5z M153,44.8c-0.2,1.2-0.4,2.5-0.7,3.5
				c0.3,0.2,0.5,0.5,0.8,0.7c0.3-1.3,0.6-2.7,0.7-4.3L153,44.8L153,44.8z M167.4,47.4c-0.5,2-1.4,3.8-2.4,5.3
				c0.2,1.1,0.4,1.7,0.7,1.7c0.2,0,0.3-0.8,0.4-2.5c0.5,0.6,1.3,1.1,1.8,1.4c-0.3,2.7-0.9,3.4-2.4,3.4c-1,0-1.7-0.8-2.2-2.1
				c-0.4,0.4-0.9,0.8-1.4,1.2c-0.3-0.4-0.9-1.3-1.4-1.8c0,1-0.2,1.7-0.8,2.1c-0.6,0.4-1.5,0.5-2.6,0.5c-0.1-0.7-0.4-1.9-0.8-2.5
				c0.6,0,1.3,0,1.5,0s0.3-0.1,0.3-0.3v-2.5l-1.4,0.3l-0.9-2.5c0.6-0.1,1.4-0.3,2.2-0.4v-2.4h-1.6v-2.5h1.7V42
				c-0.5,0.1-0.9,0.2-1.4,0.3c-0.1-0.6-0.5-1.5-0.8-2c1.7-0.4,3.3-1,4.4-1.6l1.6,1.5v-1.5h2.4c0,0.5,0,1,0,1.5l2-0.8
				c0.6,1,1.3,2.5,1.5,3.3l-2.2,0.9c-0.2-0.9-0.7-2.2-1.2-3.2c0,1.2,0,2.5,0,3.6h3.2v2.5h-3.2c0,0.8,0.1,1.6,0.1,2.4
				c0.2-0.6,0.4-1.2,0.6-1.9L167.4,47.4z M160.6,44h1.6c0-1,0-2.1,0-3.1c-0.5,0.2-1,0.4-1.5,0.6L160.6,44L160.6,44z M160.6,53.9
				c0.8-0.5,1.5-1.2,2.2-1.9c-0.3-1.6-0.4-3.5-0.5-5.7h-1.6v2l1.3-0.3l0.3,2.3l-1.6,0.4L160.6,53.9L160.6,53.9z"/>
			<path class="st7" d="M163,57.6c1.2,2,3,3.9,4.9,4.8c-0.5,0.7-1.1,1.7-1.5,2.5c-1.8-1.1-3.6-3-4.6-4.7c-1,1.7-2.7,3.7-4.6,4.9
				c-0.3-0.7-0.9-1.7-1.3-2.3h-6.5v-2.2h7.3v1.5c1.6-1.2,2.9-3,3.7-4.5L163,57.6L163,57.6z M156.3,74.5h-3.6v0.7h-2.3v-6.6h5.9V74.5
				z M156.3,65.3h-5.9v-2.1h5.8L156.3,65.3L156.3,65.3z M150.4,65.9h5.8V68h-5.8V65.9z M156.2,60h-5.7V58h5.8L156.2,60L156.2,60z
				 M152.6,70.7v1.6h1.3v-1.6H152.6z M167.1,69.4c-2.1,2.9-5.2,4.8-8.7,6c-0.4-0.7-1.1-1.7-1.8-2.4c3.2-0.9,6.4-2.4,7.9-4.7
				L167.1,69.4z M163.9,63.5c-1.2,1.6-2.8,2.9-4.6,3.8c-0.4-0.5-1.1-1.2-1.8-1.7c1.4-0.7,3-2,3.9-3.1L163.9,63.5z M165.7,66.3
				c-1.6,2.1-3.9,3.6-6.4,4.7c-0.3-0.6-1-1.4-1.7-1.9c2.1-0.8,4.4-2.3,5.7-3.8L165.7,66.3z"/>
		</g>
	</g>
</g>
</svg>
