<?xml version="1.0" encoding="utf-8"?>
<!-- Generator: Adobe Illustrator 23.1.0, SVG Export Plug-In . SVG Version: 6.00 Build 0)  -->
<svg version="1.1" id="Layer_1" xmlns="http://www.w3.org/2000/svg" xmlns:xlink="http://www.w3.org/1999/xlink" x="0px" y="0px"
	 viewBox="0 0 251 292" style="enable-background:new 0 0 251 292;" xml:space="preserve">
<style type="text/css">
	.st0{fill:#1D3254;}
	.st1{fill:#FFFFFF;}
	.st2{fill:#4A4F5B;stroke:#1D3254;stroke-width:2;stroke-linecap:round;stroke-linejoin:round;}
	.st3{fill:#FFFFFF;stroke:#1D3254;stroke-linecap:round;stroke-linejoin:round;}
	.st4{fill:#4A4F5B;stroke:#1D3254;stroke-linecap:round;stroke-linejoin:round;}
	.st5{fill:none;stroke:#1D3254;stroke-linecap:round;stroke-linejoin:round;}
	.st6{fill:#F3EDD3;stroke:#1D3254;stroke-linecap:round;stroke-linejoin:round;}
	.st7{fill:#8C8E96;stroke:#1D3254;stroke-width:2;stroke-linecap:round;stroke-linejoin:round;}
	.st8{fill:#8C8E96;stroke:#1D3254;stroke-linecap:round;stroke-linejoin:round;}
	.st9{fill:#D9D8D7;stroke:#1D3254;stroke-width:2;stroke-linecap:round;stroke-linejoin:round;}
	.st10{fill:#D9D8D7;stroke:#1D3254;stroke-linecap:round;stroke-linejoin:round;}
	.st11{fill:#EFEFEF;stroke:#1D3254;stroke-width:2;stroke-linecap:round;stroke-linejoin:round;}
	.st12{fill:#EFEFEF;stroke:#1D3254;stroke-linecap:round;stroke-linejoin:round;}
	.st13{fill:#63708B;stroke:#1D3254;stroke-width:2;stroke-linecap:round;stroke-linejoin:round;}
	.st14{fill:#63708B;stroke:#1D3254;stroke-linecap:round;stroke-linejoin:round;}
</style>
<g>
	<rect x="2" y="22.7" class="st0" width="249" height="269.3"/>
	<g>
		<rect x="0.5" y="21.2" class="st1" width="248" height="268.3"/>
		<path class="st0" d="M248,21.7V289H1V21.7H248 M249,20.7H0V290h249V20.7L249,20.7z"/>
	</g>
</g>
<g>
	<path class="st2" d="M202.3,157.5l-12.9-10.4c-0.8-0.6-1.7-0.9-2.7-0.9h-18.2v-8.9h-6.3v-9h6.3v-8.9H81.8v8.9H88v9h-6.2v8.9H63.5
		c-1,0-1.9,0.3-2.7,0.9l-12.8,10.4c-0.5,0.4-0.9,0.9-1.1,1.5c-0.3,0.6-0.4,1.2-0.4,1.8v96.5c0,1.1,0.4,2.2,1.2,3
		c0.8,0.8,1.9,1.2,3,1.2h149c1.1,0,2.2-0.4,3-1.2c0.8-0.8,1.2-1.9,1.2-3v-96.5c0-0.6-0.2-1.3-0.4-1.8
		C203.2,158.4,202.8,157.9,202.3,157.5z"/>
	<path class="st3" d="M188.9,169.6H61.4v48.5h127.5V169.6z"/>
	<path class="st2" d="M164.7,64.7l-2.8,0.6l-0.8-3.8L69.6,80.2l0.8,3.8l-2.8,0.6l4.6,22.3l2.8-0.6l0.8,3.8l91.5-18.7l-0.8-3.8
		l2.8-0.6L164.7,64.7z"/>
	<path class="st4" d="M77.6,82.5l-10,2l4.6,22.3l10-2L77.6,82.5z"/>
	<path class="st4" d="M164.8,64.7l-10,2l4.6,22.3l10-2L164.8,64.7z"/>
	<path class="st4" d="M112.5,75.4l-10,2l4.6,22.3l10-2L112.5,75.4z"/>
	<path class="st4" d="M95,79l-10,2l4.6,22.3l10-2L95,79z"/>
	<path class="st4" d="M147.4,68.3l-10,2l4.6,22.3l10-2L147.4,68.3z"/>
	<path class="st4" d="M129.9,71.9l-10,2l4.6,22.3l10-2L129.9,71.9z"/>
	<path class="st5" d="M81.8,146.1h86.8"/>
	<path class="st5" d="M88,137.1h74.2"/>
	<path class="st5" d="M88,128.1h74.2"/>
	<path class="st5" d="M76.9,204.5h97.4"/>
	<path class="st0" d="M101.3,192.5l-0.5,2.6h2.2v1.1h-2.4l-0.7,3.3h-1.1l0.7-3.3h-2.3l-0.6,3.3h-1.1l0.6-3.3h-2v-1.1h2.2l0.5-2.6
		h-2.1v-1.1H97l0.6-3.4h1.2l-0.6,3.4h2.3l0.6-3.4h1.1l-0.6,3.4h2v1.1H101.3z M97.4,195.1h2.3l0.5-2.6h-2.3L97.4,195.1z M112.8,196.9
		h-1.7v2.6h-1.4v-2.6h-5.5v-1.2l5.4-7.7h1.5v7.6h1.7V196.9z M109.8,192c0-0.6,0-1,0-1.4c0-0.4,0-0.8,0-1.1h-0.1
		c-0.1,0.2-0.2,0.4-0.3,0.7c-0.1,0.2-0.3,0.4-0.4,0.6l-3.4,4.9h4.1V192z M121.9,199.5l-1.4-3.5h-4.5l-1.4,3.5h-1.5l4.5-11.5h1.3
		l4.4,11.5H121.9z M118.8,191.2c0-0.1-0.1-0.2-0.2-0.5c-0.1-0.2-0.2-0.5-0.2-0.7c-0.1-0.2-0.1-0.4-0.2-0.6c-0.1,0.3-0.2,0.7-0.3,1
		c-0.1,0.3-0.2,0.6-0.2,0.7l-1.3,3.5h3.6L118.8,191.2z M132.2,196.9h-1.7v2.6h-1.4v-2.6h-5.5v-1.2l5.4-7.7h1.5v7.6h1.7V196.9z
		 M129.2,192c0-0.6,0-1,0-1.4c0-0.4,0-0.8,0-1.1h-0.1c-0.1,0.2-0.2,0.4-0.3,0.7c-0.1,0.2-0.3,0.4-0.4,0.6l-3.4,4.9h4.1V192z
		 M135.5,199.5h-1.4v-11.4h6.4v1.3h-4.9v4h4.6v1.3h-4.6V199.5z M145.2,192.5c1.2,0,2.1,0.3,2.8,0.9c0.7,0.6,1,1.4,1,2.5
		c0,1.2-0.4,2.1-1.1,2.8c-0.7,0.7-1.8,1-3.1,1c-0.6,0-1.1-0.1-1.7-0.2c-0.5-0.1-0.9-0.3-1.3-0.5v-1.3c0.4,0.2,0.8,0.4,1.4,0.6
		c0.6,0.1,1.1,0.2,1.6,0.2c0.8,0,1.5-0.2,2-0.6c0.5-0.4,0.8-1,0.8-1.9c0-0.7-0.2-1.3-0.7-1.7c-0.5-0.4-1.2-0.6-2.2-0.6
		c-0.3,0-0.6,0-1,0.1c-0.4,0.1-0.7,0.1-0.9,0.2l-0.7-0.4l0.4-5.4h5.7v1.3h-4.5l-0.3,3.3c0.2,0,0.4-0.1,0.7-0.1
		C144.5,192.5,144.8,192.5,145.2,192.5z M154.8,188.1c1.4,0,2.5,0.2,3.2,0.6c0.7,0.4,1.1,1.1,1.1,2.2c0,0.7-0.2,1.2-0.6,1.7
		c-0.4,0.4-0.9,0.7-1.6,0.8v0.1c0.5,0.1,0.9,0.2,1.3,0.4c0.4,0.2,0.7,0.5,0.9,0.9s0.3,0.9,0.3,1.5c0,1-0.4,1.8-1.1,2.4
		c-0.7,0.6-1.7,0.8-2.9,0.8h-4v-11.4H154.8z M155.1,192.9c1,0,1.7-0.2,2-0.5c0.4-0.3,0.5-0.8,0.5-1.4c0-0.6-0.2-1.1-0.7-1.3
		c-0.4-0.3-1.1-0.4-2.1-0.4H153v3.6H155.1z M153,194.1v4.1h2.3c1,0,1.7-0.2,2.1-0.6c0.4-0.4,0.6-0.9,0.6-1.6c0-0.6-0.2-1.1-0.6-1.4
		c-0.4-0.4-1.1-0.6-2.2-0.6H153z"/>
	<path class="st6" d="M168.6,11.4l2.1-2.1c0.1-0.1,0.1-0.2,0.2-0.3s0.1-0.2,0.1-0.3s0-0.2-0.1-0.3s-0.1-0.2-0.2-0.3l-2.1-2.1
		c0,0-0.1-0.1-0.1-0.1V5.6c0,0,0.1,0,0.1-0.1l2.1-2.1c0.1-0.1,0.1-0.2,0.2-0.3s0.1-0.2,0.1-0.3s0-0.2-0.1-0.3s-0.1-0.2-0.2-0.3
		l-1.8-1.8H81.5l-1.8,1.8c-0.1,0.1-0.2,0.3-0.2,0.5c0,0.2,0.1,0.4,0.2,0.5l2.1,2.1c0,0,0,0,0.1,0V6c0,0,0,0-0.1,0.1l-2.1,2.1
		c-0.1,0.1-0.2,0.3-0.2,0.5s0.1,0.4,0.2,0.5l2.1,2.1c0,0,0,0,0.1,0v0.5l-0.1,0L79.7,14c-0.1,0.1-0.2,0.3-0.2,0.5
		c0,0.2,0.1,0.4,0.2,0.5l2.1,2.1c0,0,0,0,0.1,0v0.5c0,0-0.1,0-0.1,0l-2.1,2.1c-0.1,0.1-0.2,0.3-0.2,0.5c0,0.2,0.1,0.4,0.2,0.5
		l2.1,2.1l0.1,0v0.5c0,0-0.1,0-0.1,0.1l-2.1,2.1c-0.1,0.1-0.2,0.3-0.2,0.5c0,0.2,0.1,0.4,0.2,0.5l2.1,2.1c0,0,0,0,0.1,0v0.5l-0.1,0
		l-2.1,2.1c-0.1,0.1-0.2,0.3-0.2,0.5s0.1,0.4,0.2,0.5l2.1,2.1c0,0,0,0,0.1,0v0.5c0,0-0.1,0-0.1,0l-2.1,2.1c-0.1,0.1-0.2,0.3-0.2,0.5
		s0.1,0.4,0.2,0.5l1.9,1.9h87.2l1.9-1.9c0.1-0.1,0.1-0.2,0.2-0.3c0-0.1,0.1-0.2,0.1-0.3s0-0.2-0.1-0.3c0-0.1-0.1-0.2-0.2-0.3
		l-2.1-2.1c0,0-0.1-0.1-0.1-0.1v-0.4c0,0,0.1-0.1,0.1-0.1l2.1-2.1c0.1-0.1,0.1-0.2,0.2-0.3c0-0.1,0.1-0.2,0.1-0.3
		c0-0.1,0-0.2-0.1-0.3s-0.1-0.2-0.2-0.3l-2.1-2.1c0,0-0.1-0.1-0.1-0.1v-0.4c0,0,0.1-0.1,0.1-0.1l2.1-2.1c0.1-0.1,0.1-0.2,0.2-0.3
		c0-0.1,0.1-0.2,0.1-0.3c0-0.1,0-0.2-0.1-0.3c0-0.1-0.1-0.2-0.2-0.3l-2.1-2.1c0,0-0.1-0.1-0.1-0.1v-0.4c0,0,0.1,0,0.1-0.1l2.1-2.1
		c0.1-0.1,0.1-0.2,0.2-0.3c0-0.1,0.1-0.2,0.1-0.3c0-0.1,0-0.2-0.1-0.3c0-0.1-0.1-0.2-0.2-0.3l-2.1-2.1c0,0-0.1-0.1-0.1-0.1v-0.4
		c0,0,0.1,0,0.1-0.1l2.1-2.1c0.1-0.1,0.1-0.2,0.2-0.3c0-0.1,0.1-0.2,0.1-0.3s0-0.2-0.1-0.3c0-0.1-0.1-0.2-0.2-0.3l-2.1-2.1
		c0,0-0.1-0.1-0.1-0.1v-0.4C168.5,11.4,168.6,11.4,168.6,11.4z"/>
</g>
</svg>
