<?xml version="1.0" encoding="utf-8"?>
<!-- Generator: Adobe Illustrator 23.1.0, SVG Export Plug-In . SVG Version: 6.00 Build 0)  -->
<svg version="1.1" id="Layer_1" xmlns="http://www.w3.org/2000/svg" xmlns:xlink="http://www.w3.org/1999/xlink" x="0px" y="0px"
	 viewBox="0 0 201 201" style="enable-background:new 0 0 201 201;" xml:space="preserve">
<style type="text/css">
	.st0{fill:#F3EDD3;stroke:#1D3254;stroke-width:2;stroke-linecap:round;stroke-linejoin:round;stroke-miterlimit:10;}
	.st1{fill:#FFFFFF;stroke:#1D3254;stroke-width:2;stroke-linecap:round;stroke-linejoin:round;stroke-miterlimit:10;}
	.st2{fill:#1D3254;stroke:#1D3254;}
	.st3{fill:#FFFFFF;}
	.st4{fill:none;stroke:#1D3254;stroke-width:3;stroke-linecap:round;stroke-linejoin:round;stroke-miterlimit:10;}
	.st5{fill:none;stroke:#1D3254;stroke-width:2;stroke-linecap:round;stroke-linejoin:round;stroke-miterlimit:10;}
	.st6{fill:#FFBFAD;}
</style>
<path class="st0" d="M108.5,158.1L100,158l-8.5,0.1c0,0-26.5,5.9-31.5,23.9h40h40C135,164,108.5,158.1,108.5,158.1z"/>
<path class="st1" d="M91.5,138.5V161c0.3,4.7,4.2,8.5,9,8.5s8.7-3.8,9-8.5v-22.5H91.5z"/>
<path class="st1" d="M41.5,111.5c9.4,0,17-8.5,17-19s-7.6-19-17-19s-17,8.5-17,19S32.1,111.5,41.5,111.5z"/>
<path class="st1" d="M159.5,111.5c9.4,0,17-8.5,17-19s-7.6-19-17-19s-17,8.5-17,19S150.1,111.5,159.5,111.5z"/>
<path class="st1" d="M100.8,18.5c-0.1,0-0.2,0-0.3,0s-0.2,0-0.3,0c-32.3,0-58.5,29.5-58.5,66s17.8,66,58.5,66c0.1,0,0.2,0,0.3,0
	s0.2,0,0.3,0c40.8,0,58.5-29.5,58.5-66S133.1,18.5,100.8,18.5z"/>
<path class="st2" d="M85.3,85.5c0,1.4-0.4,2.7-1.1,3.6c-0.7,0.9-1.5,1.4-2.4,1.4S80,90,79.4,89.1c-0.7-0.9-1.1-2.2-1.1-3.6
	s0.4-2.7,1.1-3.6c0.7-0.9,1.5-1.4,2.4-1.4s1.8,0.5,2.4,1.4C84.9,82.8,85.3,84.1,85.3,85.5z"/>
<path class="st2" d="M122.3,85.5c0,1.4-0.4,2.7-1.1,3.6c-0.7,0.9-1.5,1.4-2.4,1.4s-1.8-0.5-2.4-1.4c-0.7-0.9-1.1-2.2-1.1-3.6
	s0.4-2.7,1.1-3.6c0.7-0.9,1.5-1.4,2.4-1.4s1.8,0.5,2.4,1.4C121.9,82.8,122.3,84.1,122.3,85.5z"/>
<path class="st3" d="M72.5,73.5c0,0,3-6,12-4L72.5,73.5z"/>
<path class="st4" d="M72.5,73.5c0,0,3-6,12-4"/>
<path class="st3" d="M128.5,73.5c0,0-3-6-12-4L128.5,73.5z"/>
<path class="st4" d="M128.5,73.5c0,0-3-6-12-4"/>
<path class="st3" d="M93.5,107.5c0,0,7,5,14,0H93.5z"/>
<path class="st5" d="M93.5,107.5c0,0,7,5,14,0"/>
<path class="st5" d="M43.4,69.1c0,0,78.1,4.4,85.1-33.6c0,0,3.3,30.2,29.1,33.6"/>
<path class="st5" d="M40.3,111.4c0,0,0.2,39.1-15.8,43.1"/>
<path class="st5" d="M45.5,154.5c0,0,10.4-7.7,8.7-25.3"/>
<path class="st5" d="M68.8,142.7c0,0-0.3,9.8-5.3,13.8"/>
<path class="st5" d="M160.7,111.4c0,0-0.2,39.1,15.8,43.1"/>
<path class="st5" d="M155.5,154.5c0,0-10.4-7.7-8.7-25.3"/>
<path class="st5" d="M132.2,142.7c0,0,0.3,9.8,5.3,13.8"/>
<path class="st6" d="M63.5,122.5c9.9,0,18-8.1,18-18s-8.1-18-18-18s-18,8.1-18,18S53.6,122.5,63.5,122.5z"/>
<path class="st6" d="M137.5,122.5c9.9,0,18-8.1,18-18s-8.1-18-18-18s-18,8.1-18,18S127.6,122.5,137.5,122.5z"/>
</svg>
