<?xml version="1.0" encoding="utf-8"?>
<!-- Generator: Adobe Illustrator 23.1.0, SVG Export Plug-In . SVG Version: 6.00 Build 0)  -->
<svg version="1.1" id="Layer_1" xmlns="http://www.w3.org/2000/svg" xmlns:xlink="http://www.w3.org/1999/xlink" x="0px" y="0px"
	 viewBox="0 0 201 201" style="enable-background:new 0 0 201 201;" xml:space="preserve">
<style type="text/css">
	.st0{fill:#F3EDD3;stroke:#1D3254;stroke-width:2;stroke-linecap:round;stroke-linejoin:round;stroke-miterlimit:10;}
	.st1{fill:#FFFFFF;stroke:#1D3254;stroke-width:2;stroke-linecap:round;stroke-linejoin:round;stroke-miterlimit:10;}
	.st2{fill:#1D3254;stroke:#1D3254;}
	.st3{fill:#FFFFFF;}
	.st4{fill:none;stroke:#1D3254;stroke-width:3;stroke-linecap:round;stroke-linejoin:round;stroke-miterlimit:10;}
	.st5{fill:none;stroke:#1D3254;stroke-width:2;stroke-linecap:round;stroke-linejoin:round;stroke-miterlimit:10;}
	.st6{fill:#FFBFAD;}
	.st7{fill:none;stroke:#1D3254;stroke-width:2;stroke-linecap:round;stroke-linejoin:round;}
	.st8{fill:#1D3254;}
</style>
<g>
	<path class="st0" d="M109.6,158l-8.5-0.1l-8.5,0.1c0,0-26.5,5.9-31.5,23.9h40h40C136.1,163.9,109.6,158,109.6,158z"/>
	<path class="st1" d="M92.6,138.4v22.5c0.3,4.7,4.2,8.5,9,8.5s8.7-3.8,9-8.5v-22.5H92.6z"/>
	<path class="st1" d="M42.6,111.4c9.4,0,17-8.5,17-19s-7.6-19-17-19s-17,8.5-17,19S33.2,111.4,42.6,111.4z"/>
	<path class="st1" d="M160.6,111.4c9.4,0,17-8.5,17-19s-7.6-19-17-19s-17,8.5-17,19S151.2,111.4,160.6,111.4z"/>
	<path class="st1" d="M101.9,18.4c-0.1,0-0.2,0-0.3,0s-0.2,0-0.3,0c-32.3,0-58.5,29.5-58.5,66s17.8,66,58.5,66c0.1,0,0.2,0,0.3,0
		s0.2,0,0.3,0c40.8,0,58.5-29.5,58.5-66S134.2,18.4,101.9,18.4z"/>
	<path class="st2" d="M86.4,85.4c0,1.4-0.4,2.7-1.1,3.6c-0.7,0.9-1.5,1.4-2.4,1.4c-0.9,0-1.8-0.5-2.4-1.4c-0.7-0.9-1.1-2.2-1.1-3.6
		s0.4-2.7,1.1-3.6c0.7-0.9,1.5-1.4,2.4-1.4c0.9,0,1.8,0.5,2.4,1.4C85.9,82.7,86.4,84,86.4,85.4z"/>
	<path class="st2" d="M123.4,85.4c0,1.4-0.4,2.7-1.1,3.6c-0.7,0.9-1.5,1.4-2.4,1.4c-0.9,0-1.8-0.5-2.4-1.4c-0.7-0.9-1.1-2.2-1.1-3.6
		s0.4-2.7,1.1-3.6c0.7-0.9,1.5-1.4,2.4-1.4c0.9,0,1.8,0.5,2.4,1.4C122.9,82.7,123.4,84,123.4,85.4z"/>
	<path class="st3" d="M73.6,73.4c0,0,3-6,12-4L73.6,73.4z"/>
	<path class="st4" d="M73.6,73.4c0,0,3-6,12-4"/>
	<path class="st3" d="M129.6,73.4c0,0-3-6-12-4L129.6,73.4z"/>
	<path class="st4" d="M129.6,73.4c0,0-3-6-12-4"/>
	<path class="st3" d="M94.6,107.4c0,0,7,5,14,0H94.6z"/>
	<path class="st5" d="M94.6,107.4c0,0,7,5,14,0"/>
	<path class="st6" d="M64.6,122.4c9.9,0,18-8.1,18-18s-8.1-18-18-18s-18,8.1-18,18S54.6,122.4,64.6,122.4z"/>
	<path class="st6" d="M138.6,122.4c9.9,0,18-8.1,18-18s-8.1-18-18-18c-9.9,0-18,8.1-18,18S128.6,122.4,138.6,122.4z"/>
	<path class="st7" d="M91.1,25.9c-33.2,11.2-41.2,46-41,62c0.3,5-1.5,15.3-11.5,16.5 M100.1,25.9c7.2,6.7,17.2,26.7,0,53.5
		 M109.1,25.9c10.8,2.3,34,14.6,40,45s13.5,33.3,16.5,31"/>
	<path class="st8" d="M57.3,133.4c0.6,0,1-0.5,1-1s-0.5-1-1-1L57.3,133.4z M22.9,181.7c-0.4,0.4-0.5,1-0.1,1.4
		c0.4,0.4,1,0.5,1.4,0.1L22.9,181.7z M43.2,181.6c-0.5,0.3-0.6,0.9-0.4,1.4c0.3,0.5,0.9,0.6,1.4,0.4L43.2,181.6z M49.1,167.8l-1-0.1
		L49.1,167.8z M60.7,137.8c0.5-0.1,0.9-0.6,0.9-1.1c-0.1-0.5-0.6-0.9-1.1-0.9L60.7,137.8z M57.3,131.4c-3.5,0.1-8.7,1.2-13,4.2
		c-4.4,3.1-7.8,8.1-7.5,15.8l2-0.1c-0.2-7,2.8-11.4,6.7-14.1c3.9-2.7,8.7-3.8,11.9-3.9L57.3,131.4z M36.7,151.5
		c0.4,14.4-9,26.1-13.8,30.2l1.3,1.5c5-4.3,14.9-16.6,14.5-31.8L36.7,151.5z M44.2,183.3c2-1.2,3.3-3.4,4.1-6
		c0.9-2.6,1.4-5.9,1.8-9.4l-2-0.2c-0.4,3.5-0.9,6.6-1.7,9c-0.8,2.5-1.8,4.1-3.2,4.9L44.2,183.3z M50.1,167.9
		c0.3-2.3,0.2-5.3,0.1-8.4c-0.1-3.2-0.1-6.6,0.3-9.7c0.4-3.2,1.2-6,2.8-8.1c1.5-2.1,3.8-3.5,7.4-3.9l-0.2-2
		c-4.1,0.4-6.9,2.2-8.8,4.7c-1.8,2.5-2.7,5.7-3.1,9c-0.4,3.3-0.4,6.8-0.3,10c0.1,3.2,0.2,6.1-0.1,8.1L50.1,167.9z"/>
	<path class="st8" d="M65.3,140.4c0.5-0.1,0.9-0.7,0.8-1.2c-0.1-0.5-0.7-0.9-1.2-0.8L65.3,140.4z M58.6,150.9l1-0.3L58.6,150.9z
		 M53.6,181.4c-0.6,0-1,0.4-1,1s0.4,1,1,1V181.4z M64.8,138.5c-1.7,0.4-4,1.4-5.7,3.5c-1.7,2.1-2.6,5.1-1.6,9.2l1.9-0.5
		c-0.9-3.5-0.1-5.9,1.2-7.5c1.3-1.6,3.2-2.5,4.6-2.8L64.8,138.5z M57.6,151.2c1.2,4.7,2.5,12.5,2.2,19c-0.2,3.3-0.7,6.2-1.7,8.2
		c-1,2-2.4,3-4.5,3v2c3,0,5-1.7,6.2-4.1c1.2-2.4,1.8-5.6,1.9-9c0.3-6.8-1-14.8-2.2-19.6L57.6,151.2z"/>
</g>
</svg>
