<?xml version="1.0" encoding="utf-8"?>
<!-- Generator: Adobe Illustrator 23.1.0, SVG Export Plug-In . SVG Version: 6.00 Build 0)  -->
<svg version="1.1" id="Layer_1" xmlns="http://www.w3.org/2000/svg" xmlns:xlink="http://www.w3.org/1999/xlink" x="0px" y="0px"
	 viewBox="0 0 201 201" style="enable-background:new 0 0 201 201;" xml:space="preserve">
<style type="text/css">
	.st0{fill:#F3EDD3;stroke:#1D3254;stroke-width:2;stroke-linecap:round;stroke-linejoin:round;stroke-miterlimit:10;}
	.st1{fill:#FFFFFF;stroke:#1D3254;stroke-width:2;stroke-linecap:round;stroke-linejoin:round;stroke-miterlimit:10;}
	.st2{fill:#1D3254;stroke:#1D3254;}
	.st3{fill:#FFFFFF;}
	.st4{fill:none;stroke:#1D3254;stroke-width:2;stroke-linecap:round;stroke-linejoin:round;stroke-miterlimit:10;}
	.st5{fill:#FFBFAD;}
	.st6{fill:none;stroke:#1D3254;stroke-width:5;stroke-linecap:round;stroke-linejoin:round;}
	.st7{fill:none;stroke:#1D3254;stroke-width:2;stroke-linecap:round;}
</style>
<g>
	<path class="st0" d="M110.5,158.1L100,158l-10.5,0.1c0,0-32.8,5.9-39,23.9H100h49.5C143.3,164,110.5,158.1,110.5,158.1z"/>
	<path class="st1" d="M91.5,138v22.5c0.3,4.7,4.2,8.5,9,8.5s8.7-3.8,9-8.5V138H91.5z"/>
	<path class="st1" d="M41.5,111c9.4,0,17-8.5,17-19s-7.6-19-17-19c-9.4,0-17,8.5-17,19S32.1,111,41.5,111z"/>
	<path class="st1" d="M159.5,111c9.4,0,17-8.5,17-19s-7.6-19-17-19s-17,8.5-17,19S150.1,111,159.5,111z"/>
	<path class="st1" d="M100.8,18c-0.1,0-0.2,0-0.3,0s-0.2,0-0.3,0c-32.3,0-58.5,29.5-58.5,66s17.8,66,58.5,66c0.1,0,0.2,0,0.3,0
		s0.2,0,0.3,0c40.8,0,58.5-29.5,58.5-66S133.1,18,100.8,18z"/>
	<path class="st2" d="M85.3,85c0,1.4-0.4,2.7-1.1,3.6c-0.7,0.9-1.5,1.4-2.4,1.4c-0.9,0-1.8-0.5-2.4-1.4c-0.7-0.9-1.1-2.2-1.1-3.6
		s0.4-2.7,1.1-3.6c0.7-0.9,1.5-1.4,2.4-1.4c0.9,0,1.8,0.5,2.4,1.4C84.9,82.3,85.3,83.6,85.3,85z"/>
	<path class="st2" d="M122.3,85c0,1.4-0.4,2.7-1.1,3.6c-0.7,0.9-1.5,1.4-2.4,1.4c-0.9,0-1.8-0.5-2.4-1.4c-0.7-0.9-1.1-2.2-1.1-3.6
		s0.4-2.7,1.1-3.6c0.7-0.9,1.5-1.4,2.4-1.4c0.9,0,1.8,0.5,2.4,1.4C121.9,82.3,122.3,83.6,122.3,85z"/>
	<path class="st3" d="M93.5,107c0,0,7,5,14,0H93.5z"/>
	<path class="st4" d="M93.5,107c0,0,7,5,14,0"/>
	<path class="st5" d="M63.5,122c9.9,0,18-8.1,18-18c0-9.9-8.1-18-18-18s-18,8.1-18,18C45.5,113.9,53.6,122,63.5,122z"/>
	<path class="st5" d="M137.5,122c9.9,0,18-8.1,18-18c0-9.9-8.1-18-18-18s-18,8.1-18,18C119.5,113.9,127.6,122,137.5,122z"/>
	<path class="st6" d="M74.5,73H86"/>
	<path class="st6" d="M115.5,73H127"/>
	<path class="st3" d="M155.5,60C123.8,43.2,72.7,46,51.1,49.5c-1.7-2.4,0.7-6.7,2.1-8.5c0.5-3.5,16.1-29,50.8-29
		c33.2,0,51.4,33,53,37.5C158.3,53.1,156.5,58,155.5,60z"/>
	<path class="st7" d="M56.4,41c15.9-4.5,57.3-9.4,95.8,7 M51.1,49.5C72.7,46,123.8,43.2,155.5,60c1.1-2,2.9-6.9,1.6-10.5
		c-1.6-4.5-19.8-37.5-53-37.5c-34.8,0-50.3,25.5-50.8,29C51.8,42.8,49.4,47.1,51.1,49.5z"/>
	<path class="st7" d="M77.5,43.1C74.1,45.5,67.4,53.6,67.4,67 M69.6,43.1c-4.4-0.7-14.4,2.4-19.1,20.4"/>
</g>
</svg>
