<?xml version="1.0" encoding="utf-8"?>
<!-- Generator: Adobe Illustrator 23.1.0, SVG Export Plug-In . SVG Version: 6.00 Build 0)  -->
<svg version="1.1" id="Layer_1" xmlns="http://www.w3.org/2000/svg" xmlns:xlink="http://www.w3.org/1999/xlink" x="0px" y="0px"
	 viewBox="0 0 392.7 236.8" style="enable-background:new 0 0 392.7 236.8;" xml:space="preserve">
<style type="text/css">
	.st0{fill:#FFFFFF;stroke:#1D3254;stroke-width:2;stroke-linecap:round;stroke-linejoin:round;stroke-miterlimit:10;}
	.st1{fill:#543A8D;}
	.st2{fill:#3C276A;stroke:#FFFFFF;stroke-linecap:round;stroke-linejoin:round;stroke-miterlimit:10;}
	.st3{fill:#6547A5;stroke:#FFFFFF;stroke-linecap:round;stroke-linejoin:round;stroke-miterlimit:10;}
	.st4{fill:url(#SVGID_1_);stroke:#FFFFFF;stroke-linecap:round;stroke-linejoin:round;stroke-miterlimit:10;}
	.st5{fill:url(#SVGID_2_);stroke:#FFFFFF;stroke-linecap:round;stroke-linejoin:round;stroke-miterlimit:10;}
	.st6{fill:url(#SVGID_3_);stroke:#FFFFFF;stroke-linecap:round;stroke-linejoin:round;stroke-miterlimit:10;}
	.st7{fill:url(#SVGID_4_);stroke:#FFFFFF;stroke-linecap:round;stroke-linejoin:round;stroke-miterlimit:10;}
	.st8{fill:url(#SVGID_5_);stroke:#FFFFFF;stroke-linecap:round;stroke-linejoin:round;stroke-miterlimit:10;}
	.st9{fill:url(#SVGID_6_);stroke:#FFFFFF;stroke-linecap:round;stroke-linejoin:round;stroke-miterlimit:10;}
</style>
<g>
	<path class="st0" d="M261.6,235.8c-16,0-29.7-4.5-39.5-13.1c-0.8-0.8-1.6-1.4-2.3-2.5c0,0,0-0.2-0.2-0.2c-4.5,1.6-9.4,2.7-14.3,2.7
		c-6.6,0-12.9-1.8-18.4-5.3c-10-5.7-16.8-13.5-20.3-22.7c-4.9,1.6-10.2,2.5-15.4,2.5c-1.6,0-3.5,0-5.1-0.2c-0.2,0-0.6,0-0.8-0.2
		c-5.3-0.8-10-2-14.5-3.3c-7.2-1.8-13.3-3.3-20.1-3.3c-1.8,0-3.5-0.2-5.1-0.8c-9.8,3.1-20.3,3.1-27.5,3.1c-4.5,0-8.6-1.8-11.5-4.9
		c-1.2,2.9-3.3,5.3-5.9,7c-17.2,11.1-30.9,16.2-43.6,16.2c-5.7,0-11.1-3.1-13.9-8.2c-2-3.9-2.5-8.2-1.4-12.3
		c-1.2-4.3-0.6-9,1.6-12.9c2.9-4.7,5.5-9,7.8-13.1c-3.3-1.2-6.4-3.9-8-7.2c-2-3.9-2.5-8.2-1.4-12.3c-1.2-4.3-0.6-9,1.6-12.9
		c2.9-4.7,5.5-9,7.8-13.1c-3.3-1.2-6.4-3.9-8-7.2c-2-3.9-2.5-8.2-1.4-12.3c-1.2-4.3-0.6-9,1.6-12.9C9,77,13.9,69,15.3,60.6
		c-2.7-3.5-3.7-8.2-2.7-12.7c0-0.4,0.2-0.8,0.2-1.2c-0.8-2.5-0.8-5.3-0.2-8c1.4-7,6.6-11.7,8.8-13.5c0.6-0.6,1.4-1,2-1.4
		C37.7,15.5,51.6,12.3,65.3,9c3.7-0.8,7.8-1.8,11.5-2.9c0.2,0,0.2,0,0.4-0.2c2.5-0.6,4.9-0.8,7.2-0.8c2.7,0,5.3,0.4,7.8,1.2
		C103.6,1,117,1,125.4,1c4.1,0,8.4,1.4,12.1,3.7c4.9-1,10-1.4,15.2-1.4c19.5,0,36.1,6.6,45.3,17.8c2.7,3.3,4.7,7,6.1,10.9
		c2-0.6,4.1-1,6.1-1.4c0.2,0,0.2,0,0.4,0c2.9-0.4,5.7-0.6,8.4-0.6c17.2,0,28.9,7.8,37.9,16c4.1-1.4,8.2-2.3,12.3-2.3
		c5.1,0,9.4,1,12.7,1.8c2.3,0.6,4.1,1,5.3,1c0.2,0,0.2,0,0.4,0c5.9-1.8,12.1-3.5,18-3.5c3.5,0,6.6,0.6,9.4,1.6
		c2.9-1.6,6.1-2.7,9.4-2.9c4.5-1,8.4-2.3,12.7-3.7c4.5-1.6,9.6-3.3,15.6-4.5c0.4-0.2,0.8-0.4,1-0.6c4.1-2.7,9.8-6.4,17-6.4
		c8.8,0,16.2,5.7,19.1,14.8c1.8,4.5,2.3,9.4,1.4,14.1c1.4,8-0.8,16-6.4,22.7c2.3,2.3,3.9,5.1,4.9,8.6c1.8,4.5,2.3,9.4,1.4,14.1
		c1.4,8-0.8,16-6.4,22.7c2.3,2.3,3.9,5.1,4.9,8.6c1.8,4.5,2.3,9.4,1.4,14.1c2,12.3-4.3,24.6-17.6,32.2c-1.8,1-3.9,1.6-5.9,2
		c-0.8,0.2-2.3,0.4-3.9,0.4c1.4,2.3,2.5,4.9,2.7,7.6c0.2,2,0,3.9-0.6,5.7c0.4,1,0.6,2.3,0.6,3.5c0.4,5.7-2.3,11.3-7,14.3
		c-16.6,11.1-30.5,16.4-42.8,16.4c-5.7,0-10.9-1.2-15.6-3.5c-2.3,1.8-4.5,3.1-7,4.3c-0.4,0.2-0.8,0.4-1.2,0.6
		C282.9,233.9,271.8,235.8,261.6,235.8z"/>
	<path class="st1" d="M31.9,158.3c1.4-6.8,3.1-13.7-3.3-16c0.4-2.3,3.3-4.5,3.3-4.5c15.8-9,32.4-11.5,49.4-16
		c9.6-2.3,12.7,4.5,8.4,13.7c-2.9,2.3-5.5,4.5-7.4,2.3c-3.5-4.5-8.2-4.5-15-4.5c-7.4,2.3-15.8,9-12.7,16c5.9,4.5,11.7-11.5,15.8-9
		c8.6,2.3-1.8,18.2-10,25c-1.2-4.5-0.2-9-7.6-6.8c-5.5,4.5-4.7,11.5-5.7,16c2.3,0,4.5,0,6.8,0c-0.4,2.3-1,4.5-1.4,6.8
		C41.8,188,28.9,195,17.4,195C24.2,183.3,31.3,171.9,31.9,158.3z"/>
	<path class="st1" d="M95,142.4c1.4-6.8,3.1-13.7-0.6-18.2c8.4-6.8,22.1-6.8,31.3-6.8c2.3,0,6.4,2.3,5.3,6.8
		c-0.6,2.3-5.1,2.3-7.4,2.3c-5.3,13.7-20.3,29.5-14.3,43.2c-8.4,6.8-22.1,6.8-31.1,6.8l-1.2-4.5C87.7,165.1,88.3,151.4,95,142.4z"/>
	<path class="st1" d="M138.7,130.9c3.3-4.5-0.8-6.8-2.5-9c24.4-6.8,59,2.3,53.3,27.2c-3.7,16-21.5,34.2-41.6,32
		c-13.1-2.3-23.6-6.8-37.3-6.8c0.4-2.3,1-4.5,1.4-6.8h4.5C126.2,156.1,131.5,142.4,138.7,130.9z M140.7,162.8c-0.6,2.3-1,4.5-1,4.5
		c7.2,9,19.3-4.5,25.4-11.5c3.9-6.8,10.4-16,5.1-22.7C156.9,121.9,151.8,153.6,140.7,162.8z"/>
	<path class="st1" d="M206.5,194.6c2.3,0,7.4-2.3,7.4-2.3c1-4.5-4.7-9-4.3-11.5c11.3-9,21.7,4.5,32.2,9c-15.8,9-32.6,22.7-46.5,13.7
		c-12.1-6.8-18.6-18.2-12.7-34.2c7.2-11.5,16.2-20.5,30.3-22.7c16.6-2.3,26.4,4.5,35.6,13.7c4.1,2.3-3.3,13.7-12.9,16
		c-2.3,0-4.1-2.3-4.1-2.3c-3.1-6.8-2.7-18.2-12.9-13.7c-7.4,2.3-18.6,11.5-19.1,22.7C201.2,187.8,200.1,192.3,206.5,194.6z"/>
	<path class="st1" d="M291.5,162.8c7.4-2.3,14.8-4.5,18.8-2.3c1.2,4.5-3.9,16-7.8,13.7c-6.8,0-14.3-6.8-22.3-2.3
		c-2.9,2.3-9,9-7.8,13.7c5.7,4.5,10.2-4.5,15.8-9l4.1,2.3c-1.6,6.8-5.5,13.7-9.4,20.5c0,0-2.9,2.3-5.1,2.3c-4.5,0,1.6-6.8-5.3-6.8
		c-7,0-11.3,9-10,13.7c7.6,6.8,20.5,0,29.5-9c2.3,0,6.8,0,6.8,0c0.6,6.8-5.5,13.7-10.7,16c-19.9,6.8-42.6,6.8-55.9-4.5
		c-1.8-2.3,9,0,10.7-6.8c5.5-13.7,19.5-25,15.4-36.5l1-4.5C272.5,156.1,279.6,165.1,291.5,162.8z"/>
	<path class="st1" d="M358.7,149.1c5.1-2.3,14.1-11.5,16.6-2.3c2.9,6.8-1,13.7-9,18.2c-2.3,0-2.9,2.3-5.7-4.5
		c-1.6-2.3-6.8,0-7.4,2.3c-1,13.7-16.2,29.5-2,36.5c-13.5,9-31.8,18.2-43.8,11.5c15.8-9,18-27.2,24-43.2
		c-7.4,2.3-11.9,11.5-19.3,13.7l-1.6-2.3c2.3-9,9.4-20.5,16.4-20.5C338.8,156.1,346.8,151.4,358.7,149.1z"/>
	<path class="st2" d="M31.9,149.1c1.4-6.8,3.1-13.7-3.3-16c0.4-2.3,3.3-4.5,3.3-4.5c15.8-9,32.4-11.5,49.4-16
		c9.6-2.3,12.7,4.5,8.4,13.7c-2.9,2.3-5.5,4.5-7.4,2.3c-3.5-4.5-8.2-4.5-15-4.5c-7.4,2.3-15.8,9-12.7,16c5.9,4.5,11.7-11.5,15.8-9
		c8.6,2.3-1.8,18.2-10,25c-1.2-4.5-0.2-9-7.6-6.8c-5.5,4.5-4.7,11.5-5.7,16c2.3,0,4.5,0,6.8,0c-0.4,2.3-1,4.5-1.4,6.8
		c-10.7,6.8-23.6,13.7-35,13.7C24.2,174.1,31.3,162.8,31.9,149.1z"/>
	<path class="st2" d="M95,133.1c1.4-6.8,3.1-13.7-0.6-18.2c8.4-6.8,22.1-6.8,31.3-6.8c2.3,0,6.4,2.3,5.3,6.8
		c-0.6,2.3-5.1,2.3-7.4,2.3c-5.3,13.7-20.3,29.5-14.3,43.2c-8.4,6.8-22.1,6.8-31.1,6.8l-1.2-4.5C87.7,156.1,88.3,142.4,95,133.1z"/>
	<path class="st2" d="M138.7,121.9c3.3-4.5-0.8-6.8-2.5-9c24.4-6.8,59,2.3,53.3,27.2c-3.7,16-21.5,34.2-41.6,32
		c-13.1-2.3-23.6-6.8-37.3-6.8c0.4-2.3,1-4.5,1.4-6.8h4.5C126.2,146.9,131.5,133.1,138.7,121.9z M140.7,153.6c-0.6,2.3-1,4.5-1,4.5
		c7.2,9,19.3-4.5,25.4-11.5c3.9-6.8,10.4-16,5.1-22.7C156.9,112.7,151.8,144.6,140.7,153.6z"/>
	<path class="st2" d="M206.5,185.6c2.3,0,7.4-2.3,7.4-2.3c1-4.5-4.7-9-4.3-11.5c11.3-9,21.7,4.5,32.2,9c-15.8,9-32.6,22.7-46.5,13.7
		c-12.1-6.8-18.6-18.2-12.7-34.2c7.2-11.5,16.2-20.5,30.3-22.7c16.6-2.3,26.4,4.5,35.6,13.7c4.1,2.3-3.3,13.7-12.9,16
		c-2.3,0-4.1-2.3-4.1-2.3c-3.1-6.8-2.7-18.2-12.9-13.7c-7.4,2.3-18.6,11.5-19.1,22.7C201.2,178.8,200.1,183.3,206.5,185.6z"/>
	<path class="st2" d="M291.5,153.6c7.4-2.3,14.8-4.5,18.8-2.3c1.2,4.5-3.9,16-7.8,13.7c-6.8,0-14.3-6.8-22.3-2.3
		c-2.9,2.3-9,9-7.8,13.7c5.7,4.5,10.2-4.5,15.8-9l4.1,2.3c-1.6,6.8-5.5,13.7-9.4,20.5c0,0-2.9,2.3-5.1,2.3c-4.5,0,1.6-6.8-5.3-6.8
		c-7,0-11.3,9-10,13.7c7.6,6.8,20.5,0,29.5-9c2.3,0,6.8,0,6.8,0c0.6,6.8-5.5,13.7-10.7,16c-19.9,6.8-42.6,6.8-55.9-4.5
		c-1.8-2.3,9,0,10.7-6.8c5.5-13.7,19.5-25,15.4-36.5l1-4.5C272.5,146.9,279.6,156.1,291.5,153.6z"/>
	<path class="st2" d="M358.7,140.1c5.1-2.3,14.1-11.5,16.6-2.3c2.9,6.8-1,13.7-9,18.2c-2.3,0-2.9,2.3-5.7-4.5
		c-1.6-2.3-6.8,0-7.4,2.3c-1,13.7-16.2,29.5-2,36.5c-13.5,9-31.8,18.2-43.8,11.5c15.8-9,18-27.2,24-43.2
		c-7.4,2.3-11.9,11.5-19.3,13.7l-1.6-2.3c2.3-9,9.4-20.5,16.4-20.5C338.8,146.9,346.8,142.4,358.7,140.1z"/>
	<path class="st1" d="M31.9,112.7c1.4-6.8,3.1-13.7-3.3-16c0.4-2.3,3.3-4.5,3.3-4.5c15.8-9,32.4-11.5,49.4-16
		c9.6-2.3,12.7,4.5,8.4,13.7c-2.9,2.3-5.5,4.5-7.4,2.3c-3.5-4.5-8.2-4.5-15-4.5c-7.4,2.3-15.8,9-12.7,16c5.9,4.5,11.7-11.5,15.8-9
		c8.6,2.3-1.8,18.2-10,25c-1.2-4.5-0.2-9-7.6-6.8c-5.5,4.5-4.7,11.5-5.7,16c2.3,0,4.5,0,6.8,0c-0.4,2.3-1,4.5-1.4,6.8
		c-10.7,6.8-23.6,13.7-35,13.7C24.2,137.9,31.3,126.4,31.9,112.7z"/>
	<path class="st1" d="M95,96.9c1.4-6.8,3.1-13.7-0.6-18.2c8.4-6.8,22.1-6.8,31.3-6.8c2.3,0,6.4,2.3,5.3,6.8
		c-0.6,2.3-5.1,2.3-7.4,2.3c-5.3,13.7-20.3,29.5-14.3,43.2c-8.4,6.8-22.1,6.8-31.1,6.8l-1.2-4.5C87.7,119.6,88.3,105.9,95,96.9z"/>
	<path class="st1" d="M138.7,85.4c3.3-4.5-0.8-6.8-2.5-9c24.4-6.8,59,2.3,53.3,27.2c-3.7,16-21.5,34.2-41.6,32
		c-13.1-2.3-23.6-6.8-37.3-6.8c0.4-2.3,1-4.5,1.4-6.8h4.5C126.2,110.4,131.5,96.9,138.7,85.4z M140.7,117.4c-0.6,2.3-1,4.5-1,4.5
		c7.2,9,19.3-4.5,25.4-11.5c3.9-6.8,10.4-16,5.1-22.7C156.9,76.4,151.8,108.1,140.7,117.4z"/>
	<path class="st1" d="M206.5,149.1c2.3,0,7.4-2.3,7.4-2.3c1-4.5-4.7-9-4.3-11.5c11.3-9,21.7,4.5,32.2,9c-15.8,9-32.6,22.7-46.5,13.7
		c-12.1-6.8-18.6-18.2-12.7-34.2c7.2-11.5,16.2-20.5,30.3-22.7c16.6-2.3,26.4,4.5,35.6,13.7c4.1,2.3-3.3,13.7-12.9,16
		c-2.3,0-4.1-2.3-4.1-2.3c-3.1-6.8-2.7-18.2-12.9-13.7c-7.4,2.3-18.6,11.5-19.1,22.7C201.2,142.4,200.1,146.9,206.5,149.1z"/>
	<path class="st1" d="M291.5,117.4c7.4-2.3,14.8-4.5,18.8-2.3c1.2,4.5-3.9,16-7.8,13.7c-6.8,0-14.3-6.8-22.3-2.3
		c-2.9,2.3-9,9-7.8,13.7c5.7,4.5,10.2-4.5,15.8-9l4.1,2.3c-1.6,6.8-5.5,13.7-9.4,20.5c0,0-2.9,2.3-5.1,2.3c-4.5,0,1.6-6.8-5.3-6.8
		c-7,0-11.3,9-10,13.7c7.6,6.8,20.5,0,29.5-9c2.3,0,6.8,0,6.8,0c0.6,6.8-5.5,13.7-10.7,16c-19.9,6.8-42.6,6.8-55.9-4.5
		c-1.8-2.3,9,0,10.7-6.8c5.5-13.7,19.5-25,15.4-36.5l1-4.5C272.5,110.4,279.6,119.6,291.5,117.4z"/>
	<path class="st1" d="M358.7,103.6c5.1-2.3,14.1-11.5,16.6-2.3c2.9,6.8-1,13.7-9,18.2c-2.3,0-2.9,2.3-5.7-4.5
		c-1.6-2.3-6.8,0-7.4,2.3c-1,13.7-16.2,29.5-2,36.5c-13.5,9-31.8,18.2-43.8,11.5c15.8-9,18-27.2,24-43.2
		c-7.4,2.3-11.9,11.5-19.3,13.7l-1.6-2.3c2.3-9,9.4-20.5,16.4-20.5C338.8,110.4,346.8,105.9,358.7,103.6z"/>
	<path class="st3" d="M31.9,103.6c1.4-6.8,3.1-13.7-3.3-16c0.4-2.3,3.3-4.5,3.3-4.5c15.8-9,32.4-11.5,49.4-16
		c9.6-2.3,12.7,4.5,8.4,13.7c-2.9,2.3-5.5,4.5-7.4,2.3c-3.5-4.5-8.2-4.5-15-4.5c-7.4,2.3-15.8,9-12.7,16c5.9,4.5,11.7-11.5,15.8-9
		c8.6,2.3-1.8,18.2-10,25c-1.2-4.5-0.2-9-7.6-6.8c-5.5,4.5-4.7,11.5-5.7,16c2.3,0,4.5,0,6.8,0c-0.4,2.3-1,4.5-1.4,6.8
		c-10.7,6.8-23.6,13.7-35,13.7C24.2,128.6,31.3,117.4,31.9,103.6z"/>
	<path class="st3" d="M95,87.7c1.4-6.8,3.1-13.7-0.6-18.2c8.4-6.8,22.1-6.8,31.3-6.8c2.3,0,6.4,2.3,5.3,6.8
		c-0.6,2.3-5.1,2.3-7.4,2.3c-5.3,13.7-20.3,29.5-14.3,43.2c-8.4,6.8-22.1,6.8-31.1,6.8l-1.2-4.5C87.7,110.4,88.3,96.9,95,87.7z"/>
	<path class="st3" d="M138.7,76.4c3.3-4.5-0.8-6.8-2.5-9c24.4-6.8,59,2.3,53.3,27.2c-3.7,16-21.5,34.2-41.6,32
		c-13.1-2.3-23.6-6.8-37.3-6.8c0.4-2.3,1-4.5,1.4-6.8h4.5C126.2,101.4,131.5,87.7,138.7,76.4z M140.7,108.1c-0.6,2.3-1,4.5-1,4.5
		c7.2,9,19.3-4.5,25.4-11.5c3.9-6.8,10.4-16,5.1-22.7C156.9,67.2,151.8,99.1,140.7,108.1z"/>
	<path class="st3" d="M206.5,140.1c2.3,0,7.4-2.3,7.4-2.3c1-4.5-4.7-9-4.3-11.5c11.3-9,21.7,4.5,32.2,9c-15.8,9-32.6,22.7-46.5,13.7
		c-12.1-6.8-18.6-18.2-12.7-34.2c7.2-11.5,16.2-20.5,30.3-22.7c16.6-2.3,26.4,4.5,35.6,13.7c4.1,2.3-3.3,13.7-12.9,16
		c-2.3,0-4.1-2.3-4.1-2.3c-3.1-6.8-2.7-18.2-12.9-13.7c-7.4,2.3-18.6,11.5-19.1,22.7C201.2,133.1,200.1,137.9,206.5,140.1z"/>
	<path class="st3" d="M291.5,108.1c7.4-2.3,14.8-4.5,18.8-2.3c1.2,4.5-3.9,16-7.8,13.7c-6.8,0-14.3-6.8-22.3-2.3
		c-2.9,2.3-9,9-7.8,13.7c5.7,4.5,10.2-4.5,15.8-9l4.1,2.3c-1.6,6.8-5.5,13.7-9.4,20.5c0,0-2.9,2.3-5.1,2.3c-4.5,0,1.6-6.8-5.3-6.8
		c-7,0-11.3,9-10,13.7c7.6,6.8,20.5,0,29.5-9c2.3,0,6.8,0,6.8,0c0.6,6.8-5.5,13.7-10.7,16c-19.9,6.8-42.6,6.8-55.9-4.5
		c-1.8-2.3,9,0,10.7-6.8c5.5-13.7,19.5-25,15.4-36.5l1-4.5C272.5,101.4,279.6,110.4,291.5,108.1z"/>
	<path class="st3" d="M358.7,94.6c5.1-2.3,14.1-11.5,16.6-2.3c2.9,6.8-1,13.7-9,18.2c-2.3,0-2.9,2.3-5.7-4.5c-1.6-2.3-6.8,0-7.4,2.3
		c-1,13.7-16.2,29.5-2,36.5c-13.5,9-31.8,18.2-43.8,11.5c15.8-9,18-27.2,24-43.2c-7.4,2.3-11.9,11.5-19.3,13.7l-1.6-2.3
		c2.3-9,9.4-20.5,16.4-20.5C338.8,101.4,346.8,96.9,358.7,94.6z"/>
	<path class="st1" d="M31.9,67.2c1.4-6.8,3.1-13.7-3.3-16c0.4-2.3,3.3-4.5,3.3-4.5c15.8-9,32.4-11.5,49.4-16
		c9.6-2.3,12.7,4.5,8.4,13.7c-2.9,2.3-5.5,4.5-7.4,2.3c-3.5-4.5-8.2-4.5-15-4.5c-7.4,2.3-15.8,9-12.7,16c5.9,4.5,11.7-11.5,15.8-9
		c8.6,2.3-1.8,18.2-10,25c-1.2-4.5-0.2-9-7.6-6.8c-5.5,4.5-4.7,11.5-5.7,16c2.3,0,4.5,0,6.8,0c-0.4,2.3-1,4.5-1.4,6.8
		c-10.7,6.8-23.6,13.7-35,13.7C24.2,92.2,31.3,80.9,31.9,67.2z"/>
	<path class="st1" d="M95,51.2c1.4-6.8,3.1-13.7-0.6-18.2c8.4-6.8,22.1-6.8,31.3-6.8c2.3,0,6.4,2.3,5.3,6.8
		c-0.6,2.3-5.1,2.3-7.4,2.3c-5.3,13.7-20.3,29.5-14.3,43.2c-8.4,6.8-22.1,6.8-31.1,6.8L77,80.7C87.7,74.1,88.3,60.4,95,51.2z"/>
	<path class="st1" d="M138.7,39.9c3.3-4.5-0.8-6.8-2.5-9c24.4-6.8,59,2.3,53.3,27.2c-3.7,16-21.5,34.2-41.6,32
		c-13.1-2.3-23.6-6.8-37.3-6.8c0.4-2.3,1-4.5,1.4-6.8h4.5C126.2,64.9,131.5,51.2,138.7,39.9z M140.7,71.7c-0.6,2.3-1,4.5-1,4.5
		c7.2,9,19.3-4.5,25.4-11.5c3.9-6.8,10.4-16,5.1-22.7C156.9,30.7,151.8,62.7,140.7,71.7z"/>
	<path class="st1" d="M206.5,103.6c2.3,0,7.4-2.3,7.4-2.3c1-4.5-4.7-9-4.3-11.5c11.3-9,21.7,4.5,32.2,9c-15.8,9-32.6,22.7-46.5,13.7
		c-12.1-6.8-18.6-18.2-12.7-34.2c7.2-11.5,16.2-20.5,30.3-22.7c16.6-2.3,26.4,4.5,35.6,13.7c4.1,2.3-3.3,13.7-12.9,16
		c-2.3,0-4.1-2.3-4.1-2.3c-3.1-6.8-2.7-18.2-12.9-13.7c-7.4,2.3-18.6,11.5-19.1,22.7C201.2,96.9,200.1,101.4,206.5,103.6z"/>
	<path class="st1" d="M291.5,71.7c7.4-2.3,14.8-4.5,18.8-2.3c1.2,4.5-3.9,16-7.8,13.7c-6.8,0-14.3-6.8-22.3-2.3
		c-2.9,2.3-9,9-7.8,13.7c5.7,4.5,10.2-4.5,15.8-9l4.1,2.3c-1.6,6.8-5.5,13.7-9.4,20.5c0,0-2.9,2.3-5.1,2.3c-4.5,0,1.6-6.8-5.3-6.8
		c-7,0-11.3,9-10,13.7c7.6,6.8,20.5,0,29.5-9c2.3,0,6.8,0,6.8,0c0.6,6.8-5.5,13.7-10.7,16c-19.9,6.8-42.6,6.8-55.9-4.5
		c-1.8-2.3,9,0,10.7-6.8c5.5-13.7,19.5-25,15.4-36.5l1-4.5C272.5,64.9,279.6,74.1,291.5,71.7z"/>
	<path class="st1" d="M358.7,58.2c5.1-2.3,14.1-11.5,16.6-2.3c2.9,6.8-1,13.7-9,18.2c-2.3,0-2.9,2.3-5.7-4.5c-1.6-2.3-6.8,0-7.4,2.3
		c-1,13.7-16.2,29.5-2,36.5c-13.5,9-31.8,18.2-43.8,11.5c15.8-9,18-27.2,24-43.2c-7.4,2.3-11.9,11.5-19.3,13.7l-1.6-2.3
		c2.3-9,9.4-20.5,16.4-20.5C338.8,64.9,346.8,60.4,358.7,58.2z"/>
	
		<linearGradient id="SVGID_1_" gradientUnits="userSpaceOnUse" x1="-484.5012" y1="460.8372" x2="-484.5012" y2="387.2618" gradientTransform="matrix(1 0 0 -1 539.01 482.0921)">
		<stop  offset="0" style="stop-color:#7756BF"/>
		<stop  offset="1" style="stop-color:#301E59"/>
	</linearGradient>
	<path class="st4" d="M31.9,58.2c1.4-6.8,3.1-13.7-3.3-16c0.4-2.3,3.3-4.5,3.3-4.5c15.8-9,32.4-11.5,49.4-16
		c9.6-2.3,12.7,4.5,8.4,13.7c-2.9,2.3-5.5,4.5-7.4,2.3c-3.5-4.5-8.2-4.5-15-4.5c-7.4,2.3-15.8,9-12.7,16c5.9,4.5,11.7-11.5,15.8-9
		c8.6,2.3-1.8,18.2-10,25c-1.2-4.5-0.2-9-7.6-6.8c-5.5,4.5-4.7,11.5-5.7,16c2.3,0,4.5,0,6.8,0c-0.4,2.3-1,4.5-1.4,6.8
		c-10.7,6.8-23.6,13.7-35,13.7C24.2,83.2,31.3,71.7,31.9,58.2z"/>
	
		<linearGradient id="SVGID_2_" gradientUnits="userSpaceOnUse" x1="-434.8705" y1="464.9085" x2="-434.8705" y2="405.9055" gradientTransform="matrix(1 0 0 -1 539.01 482.0921)">
		<stop  offset="0" style="stop-color:#7756BF"/>
		<stop  offset="1" style="stop-color:#301E59"/>
	</linearGradient>
	<path class="st5" d="M95,42.2c1.4-6.8,3.1-13.7-0.6-18.2c8.4-6.8,22.1-6.8,31.3-6.8c2.3,0,6.4,2.3,5.3,6.8
		c-0.6,2.3-5.1,2.3-7.4,2.3c-5.3,13.7-20.3,29.5-14.3,43.2c-8.4,6.8-22.1,6.8-31.1,6.8L77,71.7C87.7,64.9,88.3,51.2,95,42.2z"/>
	
		<linearGradient id="SVGID_3_" gradientUnits="userSpaceOnUse" x1="-388.6425" y1="462.5716" x2="-388.6425" y2="401.0027" gradientTransform="matrix(1 0 0 -1 539.01 482.0921)">
		<stop  offset="0" style="stop-color:#7756BF"/>
		<stop  offset="1" style="stop-color:#301E59"/>
	</linearGradient>
	<path class="st6" d="M138.7,30.7c3.3-4.5-0.8-6.8-2.5-9c24.4-6.8,59,2.3,53.3,27.2c-3.7,16-21.5,34.2-41.6,32
		c-13.1-2.3-23.6-6.8-37.3-6.8c0.4-2.3,1-4.5,1.4-6.8h4.5C126.2,55.9,131.5,42.2,138.7,30.7z M140.7,62.7c-0.6,2.3-1,4.5-1,4.5
		c7.2,9,19.3-4.5,25.4-11.5c3.9-6.8,10.4-16,5.1-22.7C156.9,21.7,151.8,53.7,140.7,62.7z"/>
	
		<linearGradient id="SVGID_4_" gradientUnits="userSpaceOnUse" x1="-324.0343" y1="435.8421" x2="-324.0343" y2="375.5063" gradientTransform="matrix(1 0 0 -1 539.01 482.0921)">
		<stop  offset="0" style="stop-color:#7756BF"/>
		<stop  offset="1" style="stop-color:#301E59"/>
	</linearGradient>
	<path class="st7" d="M206.5,94.6c2.3,0,7.4-2.3,7.4-2.3c1-4.5-4.7-9-4.3-11.5c11.3-9,21.7,4.5,32.2,9c-15.8,9-32.6,22.7-46.5,13.7
		c-12.1-6.8-18.6-18.2-12.7-34.2c7.2-11.5,16.2-20.5,30.3-22.7c16.6-2.3,26.4,4.5,35.6,13.7c4.1,2.3-3.3,13.7-12.9,16
		c-2.3,0-4.1-2.3-4.1-2.3c-3.1-6.8-2.7-18.2-12.9-13.7c-7.4,2.3-18.6,11.5-19.1,22.7C201.2,87.7,200.1,92.2,206.5,94.6z"/>
	
		<linearGradient id="SVGID_5_" gradientUnits="userSpaceOnUse" x1="-267.7886" y1="422.6136" x2="-267.7886" y2="361.956" gradientTransform="matrix(1 0 0 -1 539.01 482.0921)">
		<stop  offset="0" style="stop-color:#7756BF"/>
		<stop  offset="1" style="stop-color:#301E59"/>
	</linearGradient>
	<path class="st8" d="M291.5,62.7c7.4-2.3,14.8-4.5,18.8-2.3c1.2,4.5-3.9,16-7.8,13.7c-6.8,0-14.3-6.8-22.3-2.3
		c-2.9,2.3-9,9-7.8,13.7c5.7,4.5,10.2-4.5,15.8-9l4.1,2.3c-1.6,6.8-5.5,13.7-9.4,20.5c0,0-2.9,2.3-5.1,2.3c-4.5,0,1.6-6.8-5.3-6.8
		c-7,0-11.3,9-10,13.7c7.6,6.8,20.5,0,29.5-9c2.3,0,6.8,0,6.8,0c0.6,6.8-5.5,13.7-10.7,16c-19.9,6.8-42.6,6.8-55.9-4.5
		c-1.8-2.3,9,0,10.7-6.8c5.5-13.7,19.5-25,15.4-36.5l1-4.5C272.5,55.9,279.6,64.9,291.5,62.7z"/>
	
		<linearGradient id="SVGID_6_" gradientUnits="userSpaceOnUse" x1="-197.2404" y1="439.4261" x2="-197.2404" y2="369.1573" gradientTransform="matrix(1 0 0 -1 539.01 482.0921)">
		<stop  offset="0" style="stop-color:#7756BF"/>
		<stop  offset="1" style="stop-color:#301E59"/>
	</linearGradient>
	<path class="st9" d="M358.7,48.9c5.1-2.3,14.1-11.5,16.6-2.3c2.9,6.8-1,13.7-9,18.2c-2.3,0-2.9,2.3-5.7-4.5c-1.6-2.3-6.8,0-7.4,2.3
		c-1,13.7-16.2,29.5-2,36.5c-13.5,9-31.8,18.2-43.8,11.5c15.8-9,18-27.2,24-43.2c-7.4,2.3-11.9,11.5-19.3,13.7l-1.6-2.3
		c2.3-9,9.4-20.5,16.4-20.5C338.8,55.9,346.8,51.2,358.7,48.9z"/>
</g>
</svg>
