<?xml version="1.0" encoding="utf-8"?>
<!-- Generator: Adobe Illustrator 23.1.0, SVG Export Plug-In . SVG Version: 6.00 Build 0)  -->
<svg version="1.1" id="Layer_1" xmlns="http://www.w3.org/2000/svg" xmlns:xlink="http://www.w3.org/1999/xlink" x="0px" y="0px"
	 viewBox="0 0 251 292" style="enable-background:new 0 0 251 292;" xml:space="preserve">
<style type="text/css">
	.st0{fill:#1D3254;}
	.st1{fill:#FFFFFF;}
	.st2{fill:#4A4F5B;stroke:#1D3254;stroke-width:2;stroke-linecap:round;stroke-linejoin:round;}
	.st3{fill:#FFFFFF;stroke:#1D3254;stroke-linecap:round;stroke-linejoin:round;}
	.st4{fill:#4A4F5B;stroke:#1D3254;stroke-linecap:round;stroke-linejoin:round;}
	.st5{fill:none;stroke:#1D3254;stroke-linecap:round;stroke-linejoin:round;}
	.st6{fill:#F3EDD3;stroke:#1D3254;stroke-linecap:round;stroke-linejoin:round;}
	.st7{fill:#8C8E96;stroke:#1D3254;stroke-width:2;stroke-linecap:round;stroke-linejoin:round;}
	.st8{fill:#8C8E96;stroke:#1D3254;stroke-linecap:round;stroke-linejoin:round;}
	.st9{fill:#D9D8D7;stroke:#1D3254;stroke-width:2;stroke-linecap:round;stroke-linejoin:round;}
	.st10{fill:#D9D8D7;stroke:#1D3254;stroke-linecap:round;stroke-linejoin:round;}
	.st11{fill:#EFEFEF;stroke:#1D3254;stroke-width:2;stroke-linecap:round;stroke-linejoin:round;}
	.st12{fill:#EFEFEF;stroke:#1D3254;stroke-linecap:round;stroke-linejoin:round;}
	.st13{fill:#63708B;stroke:#1D3254;stroke-width:2;stroke-linecap:round;stroke-linejoin:round;}
	.st14{fill:#63708B;stroke:#1D3254;stroke-linecap:round;stroke-linejoin:round;}
</style>
<g>
	<rect x="2" y="22.7" class="st0" width="249" height="269.3"/>
	<g>
		<rect x="0.5" y="21.2" class="st1" width="248" height="268.3"/>
		<path class="st0" d="M248,21.7V289H1V21.7H248 M249,20.7H0V290h249V20.7L249,20.7z"/>
	</g>
</g>
<g>
	<path class="st11" d="M202.3,156.8l-12.9-10.4c-0.8-0.6-1.7-0.9-2.7-0.9h-18.2v-8.9h-6.3v-9h6.3v-8.9H81.8v8.9H88v9h-6.2v8.9H63.5
		c-1,0-1.9,0.3-2.7,0.9l-12.8,10.4c-0.5,0.4-0.9,0.9-1.2,1.5c-0.3,0.6-0.4,1.2-0.4,1.8v96.5c0,1.1,0.4,2.2,1.2,3
		c0.8,0.8,1.9,1.2,3,1.2h149c1.1,0,2.2-0.4,3-1.2c0.8-0.8,1.2-1.9,1.2-3V160c0-0.6-0.2-1.3-0.4-1.8
		C203.2,157.6,202.8,157.2,202.3,156.8z"/>
	<path class="st3" d="M188.9,168.9H61.4v48.5h127.5V168.9z"/>
	<path class="st11" d="M164.7,64l-2.8,0.6l-0.8-3.8L69.6,79.5l0.8,3.8l-2.8,0.6l4.6,22.3l2.8-0.6l0.8,3.8l91.5-18.7l-0.8-3.8
		l2.8-0.6L164.7,64z"/>
	<path class="st12" d="M77.6,81.8l-10,2l4.6,22.3l10-2L77.6,81.8z"/>
	<path class="st12" d="M164.8,64l-10,2l4.6,22.3l10-2L164.8,64z"/>
	<path class="st12" d="M112.5,74.7l-10,2l4.6,22.3l10-2L112.5,74.7z"/>
	<path class="st12" d="M95,78.2l-10,2l4.6,22.3l10-2L95,78.2z"/>
	<path class="st12" d="M147.4,67.5l-10,2l4.6,22.3l10-2L147.4,67.5z"/>
	<path class="st12" d="M129.9,71.1l-10,2l4.6,22.3l10-2L129.9,71.1z"/>
	<path class="st5" d="M81.8,145.4h86.8"/>
	<path class="st5" d="M88,136.4h74.2"/>
	<path class="st5" d="M88,127.4h74.2"/>
	<path class="st5" d="M76.9,203.7h97.4"/>
	<path class="st0" d="M99.3,191.8l-0.5,2.6h2.2v1.1h-2.4l-0.7,3.3h-1.1l0.7-3.3h-2.3l-0.6,3.3h-1.1l0.6-3.3h-2v-1.1h2.2l0.5-2.6
		h-2.1v-1.1H95l0.6-3.4h1.2l-0.6,3.4h2.3l0.6-3.4h1.1l-0.6,3.4h2v1.1H99.3z M95.4,194.3h2.3l0.5-2.6h-2.3L95.4,194.3z M110.8,196.2
		h-1.7v2.6h-1.4v-2.6h-5.5V195l5.4-7.7h1.5v7.6h1.7V196.2z M107.8,191.3c0-0.6,0-1,0-1.4c0-0.4,0-0.8,0-1.1h-0.1
		c-0.1,0.2-0.2,0.4-0.3,0.7s-0.3,0.4-0.4,0.6l-3.4,4.9h4.1V191.3z M119.9,198.7l-1.4-3.5h-4.5l-1.4,3.5h-1.5l4.5-11.5h1.3l4.4,11.5
		H119.9z M116.8,190.5c0-0.1-0.1-0.2-0.2-0.5c-0.1-0.2-0.1-0.5-0.2-0.7c-0.1-0.2-0.1-0.4-0.2-0.6c-0.1,0.3-0.2,0.7-0.3,1
		c-0.1,0.3-0.2,0.6-0.2,0.7l-1.3,3.5h3.6L116.8,190.5z M130.2,196.2h-1.7v2.6h-1.4v-2.6h-5.5V195l5.4-7.7h1.5v7.6h1.7V196.2z
		 M127.2,191.3c0-0.6,0-1,0-1.4c0-0.4,0-0.8,0-1.1h-0.1c-0.1,0.2-0.2,0.4-0.3,0.7s-0.3,0.4-0.4,0.6l-3.4,4.9h4.1V191.3z
		 M133.5,198.7h-1.4v-11.4h6.4v1.3h-4.9v4h4.6v1.3h-4.6V198.7z M143.2,191.7c1.2,0,2.1,0.3,2.8,0.9c0.7,0.6,1,1.4,1,2.5
		c0,1.2-0.4,2.1-1.1,2.8c-0.7,0.7-1.8,1-3.1,1c-0.6,0-1.1-0.1-1.7-0.2c-0.5-0.1-0.9-0.3-1.3-0.5V197c0.4,0.2,0.8,0.4,1.4,0.6
		c0.6,0.1,1.1,0.2,1.6,0.2c0.8,0,1.5-0.2,2-0.6c0.5-0.4,0.8-1,0.8-1.9c0-0.7-0.2-1.3-0.7-1.7c-0.5-0.4-1.2-0.6-2.2-0.6
		c-0.3,0-0.6,0-1,0.1c-0.4,0.1-0.7,0.1-0.9,0.2l-0.7-0.4l0.4-5.4h5.7v1.3h-4.5l-0.3,3.3c0.2,0,0.4-0.1,0.7-0.1
		C142.5,191.8,142.8,191.7,143.2,191.7z M152.8,187.3c1.4,0,2.5,0.2,3.2,0.6c0.7,0.4,1.1,1.1,1.1,2.2c0,0.7-0.2,1.2-0.6,1.7
		c-0.4,0.4-0.9,0.7-1.6,0.8v0.1c0.5,0.1,0.9,0.2,1.3,0.4c0.4,0.2,0.7,0.5,0.9,0.9c0.2,0.4,0.3,0.9,0.3,1.5c0,1-0.4,1.8-1.1,2.4
		c-0.7,0.6-1.7,0.8-2.9,0.8h-4v-11.4H152.8z M153.1,192.2c1,0,1.7-0.2,2-0.5c0.4-0.3,0.5-0.8,0.5-1.4c0-0.6-0.2-1.1-0.7-1.3
		c-0.4-0.3-1.1-0.4-2.1-0.4H151v3.6H153.1z M151,193.4v4.1h2.3c1,0,1.7-0.2,2.1-0.6c0.4-0.4,0.6-0.9,0.6-1.6c0-0.6-0.2-1.1-0.6-1.4
		c-0.4-0.4-1.1-0.6-2.2-0.6H151z"/>
	<path class="st6" d="M168.6,11.6l2.1-2.1c0.1-0.1,0.1-0.2,0.2-0.3c0-0.1,0.1-0.2,0.1-0.3c0-0.1,0-0.2-0.1-0.3
		c0-0.1-0.1-0.2-0.2-0.3l-2.1-2.1c0,0-0.1-0.1-0.1-0.1V5.8c0,0,0.1,0,0.1-0.1l2.1-2.1c0.1-0.1,0.1-0.2,0.2-0.3
		c0-0.1,0.1-0.2,0.1-0.3c0-0.1,0-0.2-0.1-0.3s-0.1-0.2-0.2-0.3l-1.8-1.8H81.5l-1.8,1.8c-0.1,0.1-0.2,0.3-0.2,0.5
		c0,0.2,0.1,0.4,0.2,0.5l2.1,2.1c0,0,0,0,0.1,0v0.5c0,0,0,0-0.1,0.1l-2.1,2.1c-0.1,0.1-0.2,0.3-0.2,0.5c0,0.2,0.1,0.4,0.2,0.5
		l2.1,2.1c0,0,0,0,0.1,0v0.5l-0.1,0l-2.1,2.1c-0.1,0.1-0.2,0.3-0.2,0.5c0,0.2,0.1,0.4,0.2,0.5l2.1,2.1c0,0,0,0,0.1,0V18
		c0,0-0.1,0-0.1,0l-2.1,2.1c-0.1,0.1-0.2,0.3-0.2,0.5c0,0.2,0.1,0.4,0.2,0.5l2.1,2.1l0.1,0v0.5c0,0-0.1,0-0.1,0.1L79.7,26
		c-0.1,0.1-0.2,0.3-0.2,0.5c0,0.2,0.1,0.4,0.2,0.5l2.1,2.1c0,0,0,0,0.1,0v0.5l-0.1,0l-2.1,2.1c-0.1,0.1-0.2,0.3-0.2,0.5
		c0,0.2,0.1,0.4,0.2,0.5l2.1,2.1c0,0,0,0,0.1,0v0.5c0,0-0.1,0-0.1,0l-2.1,2.1c-0.1,0.1-0.2,0.3-0.2,0.5c0,0.2,0.1,0.4,0.2,0.5
		l1.9,1.9h87.2l1.9-1.9c0.1-0.1,0.1-0.2,0.2-0.3c0-0.1,0.1-0.2,0.1-0.3c0-0.1,0-0.2-0.1-0.3c0-0.1-0.1-0.2-0.2-0.3l-2.1-2.1
		c0,0-0.1-0.1-0.1-0.1v-0.4c0,0,0.1,0,0.1-0.1l2.1-2.1c0.1-0.1,0.1-0.2,0.2-0.3c0-0.1,0.1-0.2,0.1-0.3c0-0.1,0-0.2-0.1-0.3
		c0-0.1-0.1-0.2-0.2-0.3l-2.1-2.1c0,0-0.1-0.1-0.1-0.1v-0.4c0,0,0.1-0.1,0.1-0.1l2.1-2.1c0.1-0.1,0.1-0.2,0.2-0.3
		c0-0.1,0.1-0.2,0.1-0.3c0-0.1,0-0.2-0.1-0.3c0-0.1-0.1-0.2-0.2-0.3l-2.1-2.1c0,0-0.1-0.1-0.1-0.1v-0.4c0,0,0.1,0,0.1-0.1l2.1-2.1
		c0.1-0.1,0.1-0.2,0.2-0.3c0-0.1,0.1-0.2,0.1-0.3c0-0.1,0-0.2-0.1-0.3c0-0.1-0.1-0.2-0.2-0.3l-2.1-2.1c0,0-0.1-0.1-0.1-0.1v-0.4
		c0,0,0.1,0,0.1-0.1l2.1-2.1c0.1-0.1,0.1-0.2,0.2-0.3c0-0.1,0.1-0.2,0.1-0.3c0-0.1,0-0.2-0.1-0.3c0-0.1-0.1-0.2-0.2-0.3l-2.1-2.1
		c0,0-0.1-0.1-0.1-0.1v-0.4C168.5,11.6,168.6,11.6,168.6,11.6z"/>
</g>
</svg>
