<?xml version="1.0" encoding="utf-8"?>
<!-- Generator: Adobe Illustrator 23.1.0, SVG Export Plug-In . SVG Version: 6.00 Build 0)  -->
<svg version="1.1" id="Layer_1" xmlns="http://www.w3.org/2000/svg" xmlns:xlink="http://www.w3.org/1999/xlink" x="0px" y="0px"
	 viewBox="0 0 397.1 560" style="enable-background:new 0 0 397.1 560;" xml:space="preserve">
<style type="text/css">
	.st0{fill:#FFFFFF;stroke:#1D3254;stroke-width:2;stroke-linecap:round;stroke-linejoin:round;stroke-miterlimit:10;}
	.st1{fill:#FFDD66;}
	.st2{fill:#F5EEB3;}
	.st3{fill:none;stroke:#1D3254;stroke-linecap:round;stroke-linejoin:round;}
	.st4{fill:none;stroke:#1D3254;stroke-linecap:round;stroke-linejoin:round;stroke-dasharray:2.94,2.94;}
	.st5{fill:#352260;}
	.st6{fill:#1FC9C8;}
	.st7{fill:#BBBBDF;}
</style>
<g>
	<path class="st0" d="M347.2,411.1L110.4,1L1,64.2l236.9,410.3c4.2-2.4,9.5-1,11.9,3.2c2.4,4.2,1,9.5-3.2,11.9l40.1,69.5l109.4-63.2
		L356,426.4c-4.2,2.4-9.5,1-11.9-3.2C341.7,419,343,413.6,347.2,411.1z"/>
	<path class="st1" d="M194.1,272.4c17.1-9.9,22.9-31.7,13.1-48.8c-9.9-17.1-31.7-22.9-48.8-13.1c-17.1,9.9-22.9,31.7-13.1,48.8
		C155.2,276.5,177,282.3,194.1,272.4z"/>
	<path class="st2" d="M145.9,188.9c10.1-5.8,21.7-6.1,31.6-2c1-7.4-0.4-15.3-4.4-22.4c-9.8-17-31.8-22.9-48.8-13.1
		c-17,9.8-22.9,31.8-13.1,48.8c4.1,7.1,10.2,12.2,17.1,15C129.7,204.6,135.9,194.7,145.9,188.9z"/>
	<path class="st2" d="M111.3,129c12.7-7.3,27.9-5.9,39,2.2c-0.5-4.8-2-9.6-4.6-14c-9.8-17-31.8-22.9-48.8-13.1
		c-17,9.8-22.9,31.8-13.1,48.8c2.6,4.4,5.9,8.1,9.8,10.9C92.2,150.1,98.7,136.2,111.3,129z"/>
	<path class="st2" d="M76.3,68.3c15.1-8.7,33.8-5.1,44.8,7.5c-0.7-2.1-1.6-4.2-2.8-6.2c-9.8-17-31.8-22.9-48.8-13.1
		c-17,9.8-22.9,31.8-13.1,48.8c1.2,2,2.5,3.8,4,5.5C54.9,95,61.3,77,76.3,68.3z"/>
	<path class="st2" d="M206.6,294.1c10.1-5.8,16.2-15.7,17.5-26.4c6.9,2.9,13.1,8,17.1,15c9.8,17,3.9,38.9-13.1,48.8
		c-17,9.8-38.9,3.9-48.8-13.1c-4.1-7.1-5.4-14.9-4.4-22.4C184.9,300.3,196.7,299.9,206.6,294.1z"/>
	<path class="st2" d="M241.2,354.1c12.7-7.3,19.1-21.2,17.6-34.9c3.9,2.9,7.3,6.5,9.8,10.9c9.8,17,4,38.9-13.1,48.8
		c-17,9.8-38.9,4-48.8-13.1c-2.6-4.4-4-9.2-4.6-14C213.3,360,228.7,361.3,241.2,354.1z"/>
	<path class="st2" d="M276.2,414.6c15.1-8.7,21.3-26.7,15.9-42.6c1.5,1.7,2.8,3.5,4,5.5c9.8,17,3.9,38.9-13.1,48.8
		c-17,9.8-38.9,3.9-48.8-13.1c-1.2-2-2-4.1-2.8-6.2C242.4,419.7,261.2,423.2,276.2,414.6z"/>
	<path class="st3" d="M250.3,477.6l1.8-1"/>
	<path class="st4" d="M257.9,473.2l81.5-47.1"/>
	<path class="st3" d="M342.4,424.4l1.8-1"/>
	<path class="st5" d="M275.9,488.1l2.9-1.7l-0.8-1.3c-0.1-0.2-0.3-0.5-0.3-0.6c-0.1-0.1-0.3-0.2-0.3-0.3c-0.2,0-0.2,0-0.3,0
		s-0.2,0.1-0.4,0.1l-0.1-0.1l2.6-1.5l0.1,0.1c-0.1,0.1-0.2,0.1-0.3,0.3c-0.1,0.1-0.2,0.3-0.2,0.3c0,0.2,0,0.3,0.1,0.4
		s0.2,0.4,0.3,0.6l1.7,3c0.1,0.2,0.3,0.5,0.3,0.6s0.3,0.2,0.3,0.3c0.2,0.1,0.2,0.1,0.3,0c0.1-0.1,0.2-0.1,0.4-0.1l0.1,0.1l-2.6,1.5
		l-0.1-0.1c0.1-0.1,0.2-0.1,0.3-0.3c0.1-0.1,0.2-0.3,0.2-0.3c0.1-0.2,0-0.3-0.1-0.4c-0.1-0.1-0.2-0.4-0.3-0.6l-0.9-1.6l-2.9,1.7
		l0.9,1.6c0.1,0.2,0.3,0.5,0.3,0.6c0.1,0.1,0.3,0.2,0.3,0.3c0.2,0,0.2,0,0.3,0s0.2-0.1,0.4-0.1l0.1,0.1L276,492l-0.1-0.1
		c0.1-0.1,0.2-0.1,0.3-0.3c0.1-0.1,0.2-0.3,0.2-0.3c0.1-0.2,0-0.3-0.1-0.4c-0.1-0.1-0.2-0.4-0.3-0.6l-1.7-3
		c-0.1-0.2-0.3-0.5-0.3-0.6s-0.3-0.2-0.3-0.3c-0.2-0.1-0.2-0.1-0.3,0c-0.1,0.1-0.2,0.1-0.4,0.1l-0.1-0.1l2.6-1.5l0.1,0.1
		c-0.1,0.1-0.2,0.1-0.3,0.3c-0.1,0.1-0.2,0.3-0.2,0.3c-0.1,0.2,0,0.3,0.1,0.4c0.1,0.1,0.2,0.4,0.3,0.6l0.8,1.3L275.9,488.1z"/>
	<path class="st5" d="M283.9,480l0.9,1.2l-0.1,0.1c-0.1-0.2-0.3-0.3-0.5-0.5c-0.2-0.1-0.4-0.1-0.6-0.2c-0.2-0.1-0.3,0-0.6,0
		c-0.3,0-0.4,0.2-0.7,0.4l-1,0.6l1.5,2.5l0.2-0.1c0.2-0.1,0.5-0.3,0.6-0.3c0.1-0.1,0.2-0.3,0.3-0.3c0.1-0.2,0.1-0.2,0-0.3
		s0-0.3-0.2-0.5l0.1-0.1l1.2,2.2l-0.1,0.1c-0.1-0.2-0.3-0.3-0.4-0.4c-0.1-0.1-0.3-0.2-0.4-0.2c-0.2-0.1-0.3,0-0.5,0
		c-0.2,0-0.3,0-0.5,0.2l-0.2,0.1l0.6,1c0.2,0.4,0.3,0.6,0.5,0.8c0.1,0.2,0.2,0.4,0.4,0.4c0.3,0.2,0.4,0.2,0.8,0.2
		c0.3,0,0.5-0.2,0.8-0.3c0.4-0.2,0.6-0.3,0.8-0.6c0.2-0.3,0.2-0.4,0.4-0.7c0.1-0.2,0-0.3,0-0.5c0.1-0.2-0.1-0.4-0.2-0.7l0.1-0.1
		l1,1.7l-4.9,2.8l-0.1-0.1c0.1-0.1,0.2-0.1,0.3-0.3c0.1-0.1,0.2-0.3,0.2-0.3c0.1-0.2,0-0.3-0.1-0.4c-0.1-0.1-0.2-0.4-0.3-0.6l-1.7-3
		c-0.1-0.2-0.3-0.5-0.3-0.6c-0.1-0.1-0.3-0.2-0.3-0.3c-0.2-0.1-0.2-0.1-0.3,0c-0.1,0.1-0.2,0.1-0.4,0.1l-0.2-0.4L283.9,480z"/>
	<path class="st5" d="M287.9,485c0.2-0.3,0.4-0.4,0.4-0.7c0-0.2,0-0.3-0.1-0.4c-0.1-0.1-0.2-0.4-0.3-0.6l-1.7-3
		c-0.1-0.2-0.3-0.5-0.3-0.6c-0.1-0.1-0.3-0.2-0.4-0.2c-0.2,0-0.2,0-0.3,0c-0.1,0.1-0.2,0.1-0.4,0.2l-0.1-0.1l2.6-1.5l0.1,0.1
		c-0.1,0.1-0.2,0.1-0.3,0.3c-0.1,0.2-0.2,0.3-0.2,0.3c0,0.2,0,0.3,0,0.5s0.2,0.4,0.3,0.6l1.4,2.4c0.2,0.4,0.3,0.6,0.5,0.8
		c0.1,0.2,0.2,0.4,0.4,0.4c0.3,0.2,0.4,0.2,0.8,0.2c0.3,0,0.5-0.2,0.8-0.3c0.4-0.2,0.6-0.3,0.8-0.6c0.2-0.3,0.2-0.4,0.4-0.7
		c0.1-0.2,0-0.3,0-0.5s-0.1-0.4-0.2-0.7l0.1-0.1l1,1.7l-4.9,2.8L287.9,485z"/>
	<path class="st5" d="M293.1,482c0.2-0.3,0.4-0.4,0.4-0.7c0.1-0.2,0-0.3-0.1-0.4c-0.1-0.1-0.2-0.4-0.3-0.6l-1.7-3
		c-0.1-0.2-0.3-0.5-0.3-0.6c-0.1-0.1-0.3-0.2-0.4-0.2c-0.2-0.1-0.2-0.1-0.3,0s-0.2,0.1-0.4,0.2l-0.1-0.1l2.6-1.5l0.1,0.1
		c-0.1,0.1-0.2,0.1-0.3,0.3s-0.2,0.3-0.2,0.3c-0.1,0.2,0,0.3,0,0.5c0,0.2,0.2,0.4,0.3,0.6l1.4,2.4c0.2,0.4,0.3,0.6,0.5,0.8
		c0.1,0.2,0.2,0.4,0.4,0.4c0.3,0.2,0.4,0.2,0.8,0.2c0.3,0,0.5-0.2,0.8-0.3c0.4-0.2,0.6-0.3,0.8-0.6c0.2-0.3,0.2-0.4,0.4-0.7
		c0.1-0.2,0-0.3,0-0.5c0.1-0.2-0.1-0.4-0.2-0.7l0.1-0.1l1,1.7l-4.9,2.8L293.1,482z"/>
	<path class="st5" d="M296.7,476.2c-0.3-0.5-0.4-0.9-0.5-1.5c-0.2-0.5,0.1-1,0.2-1.6c0.1-0.4,0.4-0.7,0.7-1c0.3-0.3,0.5-0.5,0.9-0.7
		c0.5-0.3,0.9-0.4,1.3-0.5c0.5,0,1,0.1,1.6,0.2c0.8,0.3,1.4,0.8,1.8,1.5c0.2,0.4,0.3,0.8,0.3,1.1c0.1,0.4,0,0.8-0.1,1.2
		c0,0.5-0.3,0.9-0.7,1.3c-0.2,0.4-0.7,0.7-1.2,1c-0.5,0.3-0.9,0.4-1.3,0.5c-0.4,0.1-1-0.1-1.5-0.1c-0.4-0.1-0.7-0.4-1-0.6
		C297.3,476.9,297,476.6,296.7,476.2z M297.8,475.8c0.5,0.8,1.1,1.3,1.8,1.7c0.4,0.1,0.6,0.3,0.9,0.1c0.3,0,0.5-0.2,0.8-0.3
		c0.2-0.1,0.5-0.3,0.6-0.5c0.2-0.3,0.3-0.5,0.3-0.8c0.1-0.9-0.1-1.5-0.6-2.4c-0.3-0.5-0.5-0.8-0.8-1.1c-0.3-0.3-0.7-0.6-1-0.7
		c-0.3-0.2-0.6-0.2-0.9-0.1c-0.3,0-0.5,0.2-0.8,0.3c-0.2,0.1-0.6,0.3-0.6,0.5c-0.2,0.3-0.2,0.4-0.3,0.8c-0.1,0.4,0,0.8,0.1,1.2
		C297.3,475,297.5,475.3,297.8,475.8z"/>
	<path class="st5" d="M305.9,476.4c0.1-0.2,0.1-0.4,0.2-0.6c0-0.2,0.1-0.4,0-0.5c0-0.3,0-0.5-0.1-0.7c-0.1,0.1-0.1,0.1-0.2,0.1
		s-0.2,0.1-0.4,0.1c-0.2-0.1-0.3-0.2-0.3-0.3c-0.1-0.1-0.1-0.2-0.1-0.4c0.1-0.2,0.2-0.3,0.3-0.3s0.3,0,0.5,0
		c0.2,0.1,0.3,0.3,0.4,0.4c0.1,0.2,0.3,0.5,0.2,0.7c0,0.3,0,0.5-0.1,0.7C306.3,475.8,306.1,476.1,305.9,476.4z"/>
	<path class="st5" d="M305.6,467.4l2.5-1.5l0.1,0.1c-0.2,0.1-0.4,0.2-0.5,0.3c-0.1,0.1-0.1,0.2-0.2,0.3s-0.1,0.2,0,0.3
		c0.1,0.1,0.1,0.2,0.4,0.4l0.3,0.2l3.1,2.4l-0.7-3.1c-0.1-0.4-0.2-0.7-0.3-0.8s-0.1-0.2-0.3-0.3c-0.1-0.1-0.3-0.2-0.3-0.2
		c-0.2,0-0.2,0-0.3,0c-0.1,0.1-0.2,0.1-0.4,0.2l-0.1-0.2l2.6-1.5l0.1,0.1c-0.1,0.1-0.2,0.1-0.4,0.2s-0.1,0.1-0.2,0.3
		c-0.1,0.1-0.1,0.2-0.1,0.4c0.1,0.1,0,0.3,0,0.3c0.1,0.1,0.1,0.2,0.4,0.4l2.8,2.7l-0.5-3.4c-0.2-0.5-0.2-0.9-0.3-1.1
		c-0.1-0.2-0.3-0.3-0.5-0.3c-0.1,0.1-0.3,0-0.5,0.2l-0.1-0.1l1.9-1.1l0.1,0.1c-0.2,0.1-0.4,0.2-0.3,0.3c-0.1,0.1-0.2,0.3-0.1,0.4
		c0,0.3-0.1,0.7,0.1,1.4l0.7,5l-0.1,0.1l-3.9-3.5l1.1,5.1l-0.2,0.1l-4.4-3.4l-0.3-0.3c-0.3-0.2-0.3-0.3-0.5-0.3
		c-0.2-0.1-0.2-0.1-0.4-0.1C305.8,467.5,305.7,467.4,305.6,467.4C305.9,467.4,305.8,467.5,305.6,467.4z"/>
	<path class="st5" d="M316.5,464.8c-0.3-0.5-0.4-0.9-0.5-1.5c-0.2-0.5,0.1-1,0.2-1.6c0.1-0.4,0.4-0.7,0.7-1c0.3-0.3,0.5-0.5,0.9-0.7
		c0.5-0.3,0.9-0.4,1.3-0.5c0.5,0,1,0.1,1.6,0.2c0.8,0.3,1.4,0.8,1.8,1.5c0.2,0.4,0.3,0.8,0.3,1.1c0.1,0.4,0,0.8-0.1,1.2
		c0,0.5-0.3,0.9-0.7,1.3c-0.2,0.4-0.7,0.7-1.2,1c-0.5,0.3-0.9,0.4-1.3,0.5c-0.4,0.1-1-0.1-1.5-0.1c-0.4-0.1-0.7-0.4-1-0.6
		C316.9,465.5,316.7,465.2,316.5,464.8z M317.6,464.4c0.5,0.8,1.1,1.3,1.8,1.7c0.4,0.1,0.6,0.3,0.9,0.1c0.3,0,0.5-0.2,0.8-0.3
		c0.2-0.1,0.5-0.3,0.6-0.5c0.2-0.3,0.3-0.5,0.3-0.8c0.1-0.9-0.1-1.5-0.6-2.4c-0.3-0.5-0.5-0.8-0.8-1.1c-0.3-0.3-0.7-0.6-1-0.7
		c-0.3-0.2-0.6-0.2-0.9-0.1c-0.3,0-0.5,0.2-0.8,0.3c-0.2,0.1-0.6,0.3-0.6,0.5c-0.2,0.3-0.2,0.4-0.3,0.8c-0.1,0.4,0,0.8,0.1,1.2
		C317.1,463.5,317.3,463.9,317.6,464.4z"/>
	<path class="st5" d="M324.9,460.2l0.8,1.4c0.1,0.2,0.3,0.5,0.3,0.6c0.1,0.1,0.3,0.2,0.3,0.3c0.2,0.1,0.2,0.1,0.3,0
		c0.1-0.1,0.2-0.1,0.4-0.1l0.1,0.1l-2.6,1.5l-0.1-0.1c0.1-0.1,0.2-0.1,0.3-0.3c0.1-0.1,0.2-0.3,0.2-0.3c0.1-0.2,0-0.3-0.1-0.4
		c-0.1-0.1-0.2-0.4-0.3-0.6l-1.7-3c-0.1-0.2-0.3-0.5-0.3-0.6s-0.3-0.2-0.3-0.3c-0.2-0.1-0.2-0.1-0.3,0s-0.2,0.1-0.4,0.1l-0.1-0.1
		l1.9-1.1c0.4-0.2,0.6-0.3,0.6-0.3c0.5-0.3,0.8-0.3,1-0.4c0.3,0,0.6,0,0.9,0.1c0.3,0.2,0.5,0.3,0.7,0.6c0.3,0.5,0.3,0.8,0.1,1.4
		c-0.1,0.2-0.2,0.3-0.2,0.4c-0.1,0.1-0.2,0.3-0.4,0.4c0.2,0.1,0.3,0,0.5,0c0.1-0.1,0.2,0,0.3,0.2c0.1,0.1,0.3,0.2,0.5,0.3
		c0.5,0.3,1,0.6,1.2,0.7c0.3,0.2,0.4,0.2,0.6,0.3c0.2,0.1,0.2,0.1,0.3,0s0.1-0.1,0.3,0l0.1,0.1l-1,0.6c-0.2-0.1-0.3-0.2-0.3-0.2
		l-0.6-0.5c-0.3-0.3-0.8-0.5-1.1-0.8c-0.3-0.2-0.6-0.3-0.8-0.3c-0.1,0.1-0.2,0-0.3,0c-0.1,0.1-0.2,0.1-0.4,0.2l-0.4,0.2L324.9,460.2
		z M324.8,460l0.1-0.1c0.4-0.2,0.6-0.3,0.7-0.4s0.2-0.3,0.2-0.4c0.1-0.4,0.1-0.9-0.1-1.2c-0.1-0.2-0.2-0.4-0.5-0.5
		c-0.3-0.2-0.4-0.2-0.6-0.3s-0.3,0-0.5,0c-0.1,0.1-0.4,0.2-0.7,0.4l-0.1,0.1L324.8,460z"/>
	<path class="st5" d="M330.1,460.6c0.2-0.3,0.4-0.4,0.4-0.7c0.1-0.2,0-0.3-0.1-0.4c-0.1-0.1-0.2-0.4-0.3-0.6l-1.7-3
		c-0.1-0.2-0.3-0.5-0.3-0.6c-0.1-0.1-0.3-0.2-0.4-0.2c-0.2-0.1-0.2-0.1-0.3,0c-0.1,0.1-0.2,0.1-0.4,0.2l-0.1-0.1l2.6-1.5l0.1,0.1
		c-0.1,0.1-0.2,0.1-0.3,0.3c0,0.2-0.2,0.3-0.2,0.3c-0.1,0.2,0,0.3,0,0.5c-0.1,0.2,0.2,0.4,0.3,0.6l1.4,2.4c0.2,0.4,0.3,0.6,0.5,0.8
		c0.1,0.2,0.2,0.4,0.4,0.4c0.3,0.2,0.4,0.2,0.8,0.2c0.3,0,0.5-0.2,0.8-0.3c0.4-0.2,0.6-0.3,0.8-0.6c0.2-0.3,0.2-0.4,0.4-0.7
		c0.1-0.2,0-0.3,0-0.5c0.1-0.2-0.1-0.4-0.2-0.7l0.1-0.1l1,1.7l-4.9,2.8L330.1,460.6z"/>
	<path class="st5" d="M335.3,457.7c0.1-0.1,0.2-0.1,0.3-0.3c0.1-0.1,0.2-0.3,0.2-0.3c0-0.2,0-0.3-0.1-0.4s-0.2-0.4-0.3-0.6l-1.7-3
		c-0.2-0.4-0.3-0.5-0.4-0.7c-0.1-0.1-0.3-0.2-0.4-0.2c-0.2,0-0.4,0.1-0.7,0.1l2.3-1.3c0.5-0.3,0.8-0.5,1-0.6
		c0.6-0.3,1.2-0.4,1.7-0.4c0.5,0,1.1,0.2,1.5,0.6c0.5,0.3,0.9,0.8,1.2,1.2c0.2,0.4,0.3,0.8,0.4,1.2c0.1,0.4,0.1,0.7,0,1.1
		c-0.2,0.6-0.4,0.9-0.7,1.2c-0.3,0.3-0.6,0.5-1,0.7L335.3,457.7z M333.8,451.3l2.4,4.1c0.1,0.2,0.3,0.5,0.3,0.6
		c0.1,0.1,0.3,0.2,0.3,0.3c0.3,0.2,0.7,0.1,1-0.1c0.4-0.2,0.6-0.3,0.8-0.6c0.2-0.3,0.3-0.5,0.3-0.8c0.1-0.4,0.1-0.7,0-1.1
		c-0.1-0.4-0.2-0.7-0.4-1c-0.2-0.4-0.4-0.7-0.7-1c-0.3-0.3-0.6-0.5-1-0.7c-0.6-0.2-1.1-0.2-1.5-0.1c-0.3,0-0.5,0.2-0.9,0.4l-0.5,0.3
		L333.8,451.3z"/>
	<path class="st5" d="M342.1,452.6c0.1-0.1,0.2-0.1,0.4-0.1c0.2,0.1,0.3,0.2,0.3,0.3c0.1,0.1,0.1,0.2,0.1,0.4s-0.2,0.3-0.3,0.3
		c-0.1,0.1-0.2,0.1-0.4,0.1c-0.2-0.1-0.3-0.2-0.3-0.3c-0.1-0.1-0.1-0.2-0.1-0.4C341.8,452.7,342,452.7,342.1,452.6z M341.8,452.1
		l-2.3-2.8c-0.1-0.2-0.3-0.5-0.3-0.6c-0.1-0.2-0.2-0.4-0.2-0.5c0.1-0.2,0.2-0.3,0.3-0.3s0.2-0.1,0.4-0.1c0.2,0.1,0.3,0.2,0.3,0.3
		c0.1,0.1,0.1,0.2,0.3,0.5L341.8,452.1z"/>
	<path class="st6" d="M359.6,449.4l-94.2,54.4c-0.4,0.2-0.7,0.1-0.9-0.3c-0.2-0.4-0.1-0.7,0.3-0.9l94.2-54.4
		c0.4-0.2,0.7-0.1,0.9,0.3C360,448.8,359.9,449.2,359.6,449.4z"/>
	<path class="st6" d="M378.6,482.4l-94.2,54.4c-0.4,0.2-0.7,0.1-0.9-0.3c-0.2-0.4-0.1-0.7,0.3-0.9l94.2-54.4
		c0.4-0.2,0.7-0.1,0.9,0.3C379,481.8,378.9,482.1,378.6,482.4z"/>
	<path class="st5" d="M283.7,504.3c0.8-0.5,1.2-0.9,1.5-1c0.2-0.3,0.4-0.4,0.8-0.6c0.8-0.5,3.3,0.2,4.5,2.3c0.6,1,0.5,2-0.6,2.6
		c-1.8,1-3.2-1.4-4.1-0.8c-0.8,0.5-0.1,1.5,0,1.7l3.6,6.2c1.4,2.4,2.7,0.2,3.4,1.5c0.3,0.6,0.5,1.8-3.3,4c-1.1,0.6-4.8,2.8-5.7,1.2
		c-0.6-1.1,1-1.4,0.8-2.4c0-0.6-0.7-1.8-0.9-2.4l-2.5-4.6c-1.1-2.2-1.6-1.9-1.8-1.8c-1,0.6,0.1,3.2-1.6,4.1c-0.8,0.5-1.7,0-2.1-0.7
		c-1-1.7-0.8-4.8,0.4-5.5c0.1-0.1,0.4-0.1,0.8-0.3c0.4-0.1,1-0.4,1.9-0.9l4.9-2.8L283.7,504.3z"/>
	<path class="st5" d="M294.1,506.5c-1.5-2.6-2.1-3.1-2.5-3.2c-0.8-0.3-1.7,0.2-2.1-0.7c-0.8-1.4,3.4-3.9,3.7-4.1
		c1.2-0.7,3.7-2.1,4.5-0.7c0.4,0.7-0.3,1.1-0.5,1.9c-0.1,0.7,1,2.5,1.8,3.9l1.2,2c2.1,3.6,2.3,3.5,2.8,3.5c0.7,0.1,1.2-0.2,1.6,0.5
		c0.3,0.6,0.7,1.7-3.8,4.3c-0.8,0.5-3.5,2-4.2,0.7c-0.3-0.6,0.3-1.1,0.4-1.8c0.1-0.4-0.1-1.4-1.7-4.1l-1.2-2.2L294.1,506.5z"/>
	<path class="st5" d="M305.7,491.2c2-1.2,3.8-0.9,4.4-1.3c0.5-0.3,0.5-0.5,0.9-0.7c0.8-0.5,2.7,0.2,4,2.5c0.7,1.2,0.5,2.6-0.7,3.3
		c-2.2,1.2-3.6-2.7-7.2-0.6c-1.6,0.9-1.4,2.8-0.8,4c1.7,3,4.8,4.7,7.7,3.1c2.6-1.5,2.2-3.2,2.8-3.5c0.6-0.3,1.3,0.2,1.5,0.7
		c0.5,0.8,0.6,3.3-0.3,3.9c-0.7,0.4-1.5,2.4-3.9,3.8c-4.3,2.5-9.7,1.1-12.1-2.9C299.7,499,301.7,493.5,305.7,491.2z"/>
	<path class="st5" d="M329,493.6c-0.6-0.2-2.7-1-3.1-0.7c-0.5,0.3-0.3,0.8,0,1.4l0.3,0.5c0.6,1,1.9,0.3,2.5,1.3
		c0.3,0.6,0.3,1.6-3.3,3.7c-3.2,1.9-3.9,1.5-4.3,0.9c-0.6-1.1,0.7-1,0.1-2.9c-0.5-1.3-1.1-2.5-1.8-3.7c-0.8-1.3-1.6-2.8-2.5-3.8
		c-1.3-1.7-1.9-0.2-2.6-1.5c-0.2-0.4-1.1-1.3,3.5-3.9c1-0.6,3.1-1.8,3.9-0.4c0.6,1.1-0.8,1.1,0.6,3.5c0.1,0.2,0.5,0.8,0.8,0.6
		c0.6-0.3,0.9-3.4,0.7-3.8c-0.3-0.5-0.7-0.4-1-0.9c-0.9-1.6,1.8-3,2.9-3.6c1.1-0.6,3.3-2.1,4.1-0.6c1,1.7-1.7,2-2,3.1
		c-0.2,0.6-1.2,2.9-0.7,3.8c0.3,0.6,1.1,0.8,1.7,1l7.2,2.4c1,0.4,2.1-0.4,2.8,0.8c0.6,1-0.5,1.7-1.2,2.1l-3.5,2
		c-0.8,0.5-0.9,0.4-2.3-0.1L329,493.6z"/>
	<path class="st5" d="M339.2,472.3c2.8-1.6,2.9-2.2,3.3-2.4c1.2-0.7,2.9,1.1,3.3,1.9c0.4,0.7,0.6,1.6-0.2,2.1
		c-1.6,0.9-1.5-1.7-5.3,0.5c-2.3,1.3-1.8,1.5-0.4,3.9c0.7,1.2,0.8,1.1,2,0.4c1.6-0.9-1-2.5,0.5-3.3c1.2-0.7,2.6,1.5,3.1,2.4
		c0.5,0.8,1.7,3.3,0.5,4c-1.3,0.8-1.2-2.2-3.3-1c-0.8,0.5-0.4,1.2,0,1.9c1.7,3,1.9,2.7,4.1,1.5c4.2-2.4,1.3-4.6,3-5.6
		c0.6-0.3,1.4,0.2,1.7,0.8c0.8,1.4,1.1,4.5,0.3,4.9c-0.1,0.1-0.5,0.2-0.9,0.4c-0.5,0.3-1.1,0.5-1.7,0.8l-8.4,4.8
		c-1.3,0.8-1.7,0.2-1.8-0.1c-0.6-1.1,1.3-1.1,0.2-3.3c-1.9-3.9-1.7-3.5-4-7.1c-1.9-3-2.6-0.6-3.4-2c-0.7-1.2,1.1-2,1.9-2.5l5.5-3.2
		L339.2,472.3z"/>
	<path class="st5" d="M355.5,462.9c0.8-0.5,1.2-0.9,1.5-1c0.2-0.3,0.4-0.4,0.8-0.6c0.8-0.5,3.3,0.2,4.5,2.3c0.6,1,0.5,2-0.6,2.6
		c-1.8,1-3.2-1.4-4.1-0.8c-0.8,0.5-0.1,1.5,0,1.7l3.6,6.2c1.4,2.4,2.7,0.2,3.4,1.5c0.3,0.6,0.5,1.8-3.3,4c-1.1,0.6-4.8,2.8-5.7,1.2
		c-0.6-1.1,1-1.4,0.8-2.4c0-0.6-0.7-1.8-0.9-2.4l-2.5-4.6c-1.1-2.2-1.6-2-1.8-1.8c-1,0.6,0.1,3.2-1.6,4.1c-0.8,0.5-1.7,0-2.1-0.7
		c-1-1.7-0.8-4.8,0.4-5.5c0.1-0.1,0.4-0.1,0.8-0.3c0.4-0.1,1-0.4,1.9-0.9l4.9-2.8L355.5,462.9z"/>
	<path class="st7" d="M291.2,543.6c1.2-0.7,1.6-2.2,0.9-3.4c-0.7-1.2-2.2-1.6-3.4-0.9c-1.2,0.7-1.6,2.2-0.9,3.4
		C288.5,543.9,290.1,544.3,291.2,543.6z"/>
	<path class="st7" d="M298.2,539.6c1.2-0.7,1.6-2.2,0.9-3.4c-0.7-1.2-2.2-1.6-3.4-0.9c-1.2,0.7-1.6,2.2-0.9,3.4
		C295.5,539.9,297,540.3,298.2,539.6z"/>
	<path class="st7" d="M305.1,535.6c1.2-0.7,1.6-2.2,0.9-3.4c-0.7-1.2-2.2-1.6-3.4-0.9c-1.2,0.7-1.6,2.2-0.9,3.4
		C302.4,535.9,304,536.3,305.1,535.6z"/>
	<path class="st7" d="M312,531.7c1.2-0.7,1.6-2.2,0.9-3.4c-0.7-1.2-2.2-1.6-3.4-0.9c-1.2,0.7-1.6,2.2-0.9,3.4
		C309.3,532,310.8,532.4,312,531.7z"/>
	<path class="st7" d="M318.9,527.7c1.2-0.7,1.6-2.2,0.9-3.4c-0.7-1.2-2.2-1.6-3.4-0.9c-1.2,0.7-1.6,2.2-0.9,3.4
		C316.2,527.9,317.7,528.3,318.9,527.7z"/>
	<path class="st7" d="M325.8,523.7c1.2-0.7,1.6-2.2,0.9-3.4c-0.7-1.2-2.2-1.6-3.4-0.9c-1.2,0.7-1.6,2.2-0.9,3.4
		C323,524,324.6,524.4,325.8,523.7z"/>
	<path class="st7" d="M332.7,519.7c1.2-0.7,1.6-2.2,0.9-3.4c-0.7-1.2-2.2-1.6-3.4-0.9c-1.2,0.7-1.6,2.2-0.9,3.4
		C330,520,331.5,520.4,332.7,519.7z"/>
	<path class="st7" d="M339.7,515.7c1.2-0.7,1.6-2.2,0.9-3.4c-0.7-1.2-2.2-1.6-3.4-0.9c-1.2,0.7-1.6,2.2-0.9,3.4
		C336.9,516,338.5,516.4,339.7,515.7z"/>
	<path class="st7" d="M346.5,511.7c1.2-0.7,1.6-2.2,0.9-3.4c-0.7-1.2-2.2-1.6-3.4-0.9c-1.2,0.7-1.6,2.2-0.9,3.4
		C343.8,512,345.3,512.4,346.5,511.7z"/>
	<path class="st7" d="M353.4,507.7c1.2-0.7,1.6-2.2,0.9-3.4c-0.7-1.2-2.2-1.6-3.4-0.9c-1.2,0.7-1.6,2.2-0.9,3.4
		C350.7,508,352.3,508.4,353.4,507.7z"/>
	<path class="st7" d="M360.4,503.7c1.2-0.7,1.6-2.2,0.9-3.4c-0.7-1.2-2.2-1.6-3.4-0.9c-1.2,0.7-1.6,2.2-0.9,3.4
		C357.7,504,359.2,504.4,360.4,503.7z"/>
	<path class="st7" d="M367.2,499.8c1.2-0.7,1.6-2.2,0.9-3.4c-0.7-1.2-2.2-1.6-3.4-0.9c-1.2,0.7-1.6,2.2-0.9,3.4
		C364.5,500.1,366,500.5,367.2,499.8z"/>
	<path class="st7" d="M374.2,495.8c1.2-0.7,1.6-2.2,0.9-3.4c-0.7-1.2-2.2-1.6-3.4-0.9c-1.2,0.7-1.6,2.2-0.9,3.4
		C371.5,496,373,496.4,374.2,495.8z"/>
	<path class="st7" d="M381,491.8c1.2-0.7,1.6-2.2,0.9-3.4c-0.7-1.2-2.2-1.6-3.4-0.9c-1.2,0.7-1.6,2.2-0.9,3.4
		C378.3,492.1,379.8,492.5,381,491.8z"/>
</g>
</svg>
