<?xml version="1.0" encoding="utf-8"?>
<!-- Generator: Adobe Illustrator 23.1.0, SVG Export Plug-In . SVG Version: 6.00 Build 0)  -->
<svg version="1.1" id="Layer_1" xmlns="http://www.w3.org/2000/svg" xmlns:xlink="http://www.w3.org/1999/xlink" x="0px" y="0px"
	 viewBox="0 0 159.9 169.3" style="enable-background:new 0 0 159.9 169.3;" xml:space="preserve">
<style type="text/css">
	.st0{fill:#FFFFFF;stroke:#231F20;stroke-linecap:round;stroke-linejoin:round;stroke-miterlimit:10;}
	.st1{fill:#231F20;}
	.st2{fill:#FFFFFF;}
	.st3{fill:none;stroke:#231F20;stroke-linecap:round;stroke-linejoin:round;stroke-miterlimit:10;}
	.st4{fill:#DBDBDB;}
	.st5{fill:#FFFFFF;stroke:#1D3254;stroke-width:2;stroke-linecap:round;stroke-linejoin:round;stroke-miterlimit:10;}
	.st6{fill:url(#SVGID_1_);}
	.st7{fill:#FFF2F2;}
	.st8{fill:#348D8C;}
	.st9{fill:none;stroke:#348D8C;stroke-linecap:round;stroke-linejoin:round;stroke-miterlimit:10;}
	.st10{fill:#CF8EEA;}
	.st11{fill:#F5EEB3;}
	.st12{fill:#1FC9C8;}
</style>
<g>
	<path class="st0" d="M80,152.2c-34,0-68.9-12.4-68.9-12.4s9.7,6.3,14.5-56.3c4.8-62.6,53-54.6,53-54.6h2.7c0,0,48.2-7.9,53,54.6
		c4.8,62.5,14.5,56.3,14.5,56.3S113.9,152.2,80,152.2z"/>
	<path class="st0" d="M86.5,128.7H73.4v18.5h13.1V128.7z"/>
	<path class="st0" d="M41.3,111.5c8.7,0,15.8-7.1,15.8-15.8c0-8.7-7.1-15.8-15.8-15.8S25.5,87,25.5,95.7
		C25.5,104.4,32.6,111.5,41.3,111.5z"/>
	<path class="st0" d="M118.6,111.5c8.7,0,15.8-7.1,15.8-15.8c0-8.7-7.1-15.8-15.8-15.8c-8.7,0-15.8,7.1-15.8,15.8
		C102.8,104.4,109.9,111.5,118.6,111.5z"/>
	<path class="st0" d="M80,134.2c24.1,0,43.7-21.8,43.7-48.6S104.1,37,80,37c-24.1,0-43.7,21.8-43.7,48.6S55.9,134.2,80,134.2z"/>
	<path class="st1" d="M68,91.1c1.5,0,2.8-1.7,2.8-3.8c0-2.1-1.3-3.8-2.8-3.8c-1.5,0-2.8,1.7-2.8,3.8C65.2,89.4,66.5,91.1,68,91.1z"
		/>
	<path class="st1" d="M92,91.1c1.5,0,2.8-1.7,2.8-3.8c0-2.1-1.3-3.8-2.8-3.8c-1.5,0-2.8,1.7-2.8,3.8C89.2,89.4,90.5,91.1,92,91.1z"
		/>
	<path class="st2" d="M72.6,95.7c0,0,7.2,7.1,14.7,0H72.6z"/>
	<path class="st3" d="M72.6,95.7c0,0,7.2,7.1,14.7,0"/>
	<path class="st4" d="M52.2,107.6c6.6,0,11.9-5.3,11.9-11.9c0-6.6-5.3-11.9-11.9-11.9s-11.9,5.3-11.9,11.9
		C40.3,102.3,45.6,107.6,52.2,107.6z"/>
	<path class="st4" d="M107.7,107.6c6.6,0,11.9-5.3,11.9-11.9c0-6.6-5.3-11.9-11.9-11.9c-6.6,0-11.9,5.3-11.9,11.9
		C95.8,102.3,101.1,107.6,107.7,107.6z"/>
	<path class="st0" d="M125.9,75.2C115.7,31.7,80,35.3,80,35.3s-35.7-3.6-45.9,39.9c0,0-1.5,15.1,10.5,22.1c0,0-8-13.1,12.5-46.4
		c0,0-6.9,13.9-1.4,25.5H80h24.3c5.5-11.6-1.4-25.5-1.4-25.5c20.5,33.3,12.5,46.4,12.5,46.4C127.4,90.3,125.9,75.2,125.9,75.2z"/>
	<path class="st0" d="M80,29c-33.3,0-42,34.2-42,34.2c16.2-29.7,42-27.9,42-27.9s25.8-1.8,42,27.9C122,63.2,113.3,29,80,29z"/>
	<path class="st0" d="M76.4,31.2c0,0,2.4-12.3-15.3-13.6s-20-3.3-20-3.3s6.3,8.6,7.7,11.6C50.2,28.8,56.6,41.1,76.4,31.2z"/>
	<path class="st0" d="M84,31.2c0,0-5.2-10,12.3-12.8c15.5-2.5,16.4-7.4,16.4-7.4s-0.3,11.6-1.2,14.8C110.4,30.5,103.8,41.1,84,31.2z
		"/>
	<path class="st0" d="M76.4,31.2c0,0,2.6,2.2,4.3,1.8c0,0,5.1,0.6,3.9-5.4s-8.1-0.9-8.1-0.9S77.5,30.7,76.4,31.2z"/>
	<path class="st0" d="M101.7,137.9c-8-2.6-12.6,2.4-12.6,2.4l-9.2,2.4l-9.1-2.4c0,0-4.7-5-12.6-2.4c-7.9,2.6-10.5,9.7-9.5,15.8
		c0,0,12.6,4.5,31.2,4.5s31.2-4.5,31.2-4.5C112.2,147.6,109.7,140.6,101.7,137.9z"/>
	<path class="st0" d="M73.4,139.2c0,0,2.5,3.5,6.5,3.5c0,0-3.7,8.3-7.3,6.6C69,147.6,65.9,141.2,73.4,139.2z"/>
	<path class="st0" d="M86.5,139.2c0,0-2.5,3.5-6.5,3.5c0,0,3.7,8.3,7.3,6.6S94.1,141.2,86.5,139.2z"/>
	<path class="st0" d="M80,153.3c1.4,0,2.5-1.1,2.5-2.5s-1.1-2.5-2.5-2.5c-1.4,0-2.5,1.1-2.5,2.5S78.6,153.3,80,153.3z"/>
	<path class="st5" d="M157.8,135.4c-1.2-2.4-3.2-4.1-5.6-5c-1.7-3.6-5.4-15-7.9-47.6c-2.2-28.2-12.6-43.9-23.6-52.6
		c0.3-0.7,0.5-1.4,0.6-1.9c1-3.7,1.3-12.3,1.5-17c0.2-5.2-3.7-9.7-9-10.2c-0.4,0-0.7-0.1-1.1-0.1c-3.6,0-6.8,1.9-8.6,4.9
		c-1,0.5-3.6,1.7-9.4,2.7c-7,1.1-11.7,3.3-14.9,5.9c-3.6-3.4-9.3-6.2-18-6.9c-11.1-0.8-15.1-1.9-16-2.2c-1.5-0.8-3.1-1.2-4.7-1.2
		c-2.4,0-4.9,0.9-6.8,2.7c-3.7,3.5-4.3,9.2-1.3,13.3c2.8,3.9,5.8,8.3,6.5,9.6c-11.2,8.7-21.9,24.5-24,53c-2.5,32.7-6.2,44-7.9,47.6
		c-2.4,0.9-4.4,2.6-5.6,5c-2.2,4.5-0.7,10,3.5,12.8c0.6,0.4,1.6,0.9,2.9,1.3c3.1,1.1,15.2,5,31,8.2c1.1,2.5,3.2,4.5,5.8,5.5
		c0.6,0.2,14.5,5.1,34.6,5.1s34-4.9,34.6-5.1c2.6-0.9,4.7-2.9,5.8-5.5c15.8-3.2,27.9-7.2,31-8.2c1.3-0.4,2.3-0.9,2.9-1.3
		C158.5,145.5,160.1,140,157.8,135.4z"/>
	
		<linearGradient id="SVGID_1_" gradientUnits="userSpaceOnUse" x1="-459.0508" y1="386.0407" x2="-459.0508" y2="262.4091" gradientTransform="matrix(1 0 0 -1 539.01 414.6091)">
		<stop  offset="0" style="stop-color:#F5EEB3"/>
		<stop  offset="1" style="stop-color:#F0E589"/>
	</linearGradient>
	<path class="st6" d="M80,152.2c-34,0-68.9-12.4-68.9-12.4s9.7,6.3,14.5-56.3c4.8-62.6,53-54.6,53-54.6h2.7c0,0,48.2-7.9,53,54.6
		c4.8,62.5,14.5,56.3,14.5,56.3S113.9,152.2,80,152.2z"/>
	<path class="st7" d="M86.5,128.7H73.4v18.5h13.1V128.7z"/>
	<path class="st7" d="M41.3,111.5c8.7,0,15.8-7.1,15.8-15.8c0-8.7-7.1-15.8-15.8-15.8S25.5,87,25.5,95.7
		C25.5,104.4,32.6,111.5,41.3,111.5z"/>
	<path class="st7" d="M118.6,111.5c8.7,0,15.8-7.1,15.8-15.8c0-8.7-7.1-15.8-15.8-15.8c-8.7,0-15.8,7.1-15.8,15.8
		C102.8,104.4,109.9,111.5,118.6,111.5z"/>
	<path class="st2" d="M80,134.2c24.1,0,43.7-21.8,43.7-48.6S104.1,37,80,37c-24.1,0-43.7,21.8-43.7,48.6S55.9,134.2,80,134.2z"/>
	<path class="st8" d="M68,91.1c1.5,0,2.8-1.7,2.8-3.8c0-2.1-1.3-3.8-2.8-3.8c-1.5,0-2.8,1.7-2.8,3.8C65.2,89.4,66.5,91.1,68,91.1z"
		/>
	<path class="st8" d="M92,91.1c1.5,0,2.8-1.7,2.8-3.8c0-2.1-1.3-3.8-2.8-3.8c-1.5,0-2.8,1.7-2.8,3.8C89.2,89.4,90.5,91.1,92,91.1z"
		/>
	<path class="st9" d="M72.6,95.7c0,0,7.2,7.1,14.7,0"/>
	<path class="st10" d="M52.2,107.6c6.6,0,11.9-5.3,11.9-11.9c0-6.6-5.3-11.9-11.9-11.9s-11.9,5.3-11.9,11.9
		C40.3,102.3,45.6,107.6,52.2,107.6z"/>
	<path class="st10" d="M107.7,107.6c6.6,0,11.9-5.3,11.9-11.9c0-6.6-5.3-11.9-11.9-11.9c-6.6,0-11.9,5.3-11.9,11.9
		C95.8,102.3,101.1,107.6,107.7,107.6z"/>
	<path class="st11" d="M125.9,75.2C115.7,31.7,80,35.3,80,35.3s-35.7-3.6-45.9,39.9c0,0-1.5,15.1,10.5,22.1c0,0-8-13.1,12.5-46.4
		c0,0-6.9,13.9-1.4,25.5H80h24.3c5.5-11.6-1.4-25.5-1.4-25.5c20.5,33.3,12.5,46.4,12.5,46.4C127.4,90.3,125.9,75.2,125.9,75.2z"/>
	<path class="st8" d="M80,29c-33.3,0-42,34.2-42,34.2c16.2-29.7,42-27.9,42-27.9s25.8-1.8,42,27.9C122,63.2,113.3,29,80,29z"/>
	<path class="st8" d="M77.4,31.2c0,0,2.4-12.3-15.3-13.6s-20-3.3-20-3.3s6.3,8.6,7.7,11.6C51.2,28.8,57.6,41.1,77.4,31.2z"/>
	<path class="st8" d="M84,31.2c0,0-5.2-10,12.3-12.8c15.5-2.5,16.4-7.4,16.4-7.4s-0.3,11.6-1.2,14.8C110.4,30.5,103.8,41.1,84,31.2z
		"/>
	<path class="st8" d="M76.4,31.2c0,0,2.6,2.2,4.3,1.8c0,0,5.1,0.6,3.9-5.4s-8.1-0.9-8.1-0.9S77.5,30.7,76.4,31.2z"/>
	<path class="st12" d="M101.7,137.9c-8-2.6-12.6,2.4-12.6,2.4l-9.2,2.4l-9.1-2.4c0,0-4.7-5-12.6-2.4c-7.9,2.6-10.5,9.7-9.5,15.8
		c0,0,12.6,4.5,31.2,4.5s31.2-4.5,31.2-4.5C112.2,147.6,109.7,140.6,101.7,137.9z"/>
	<path class="st10" d="M73.4,139.2c0,0,2.5,3.5,6.5,3.5c0,0-3.7,8.3-7.3,6.6C69,147.6,65.9,141.2,73.4,139.2z"/>
	<path class="st10" d="M86.5,139.2c0,0-2.5,3.5-6.5,3.5c0,0,3.7,8.3,7.3,6.6S94.1,141.2,86.5,139.2z"/>
	<path class="st11" d="M80,153.3c1.4,0,2.5-1.1,2.5-2.5s-1.1-2.5-2.5-2.5c-1.4,0-2.5,1.1-2.5,2.5S78.6,153.3,80,153.3z"/>
</g>
</svg>
