<?xml version="1.0" encoding="utf-8"?>
<!-- Generator: Adobe Illustrator 23.1.0, SVG Export Plug-In . SVG Version: 6.00 Build 0)  -->
<svg version="1.1" id="Layer_1" xmlns="http://www.w3.org/2000/svg" xmlns:xlink="http://www.w3.org/1999/xlink" x="0px" y="0px"
	 viewBox="0 0 201 201" style="enable-background:new 0 0 201 201;" xml:space="preserve">
<style type="text/css">
	.st0{fill:#F3EDD3;stroke:#1D3254;stroke-width:2;stroke-linecap:round;stroke-linejoin:round;stroke-miterlimit:10;}
	.st1{fill:#FFFFFF;stroke:#1D3254;stroke-width:2;stroke-linecap:round;stroke-linejoin:round;stroke-miterlimit:10;}
	.st2{fill:#1D3254;stroke:#1D3254;}
	.st3{fill:#FFFFFF;}
	.st4{fill:none;stroke:#1D3254;stroke-width:3;stroke-linecap:round;stroke-linejoin:round;stroke-miterlimit:10;}
	.st5{fill:none;stroke:#1D3254;stroke-width:2;stroke-linecap:round;stroke-linejoin:round;stroke-miterlimit:10;}
	.st6{fill:#FFBFAD;}
</style>
<g>
	<g>
		<path class="st0" d="M107.5,158.9l-8.5-0.1l-8.5,0.1c0,0-26.5,5.9-31.5,23.9h40h40C134,164.8,107.5,158.9,107.5,158.9z"/>
		<path class="st1" d="M90.5,139.3v22.5c0.3,4.7,4.2,8.5,9,8.5s8.7-3.8,9-8.5v-22.5H90.5z"/>
		<path class="st1" d="M40.5,112.3c9.4,0,17-8.5,17-19s-7.6-19-17-19s-17,8.5-17,19S31.1,112.3,40.5,112.3z"/>
		<path class="st1" d="M158.5,112.3c9.4,0,17-8.5,17-19s-7.6-19-17-19s-17,8.5-17,19S149.1,112.3,158.5,112.3z"/>
		<path class="st1" d="M99.8,19.3c-0.1,0-0.2,0-0.3,0s-0.2,0-0.3,0c-32.3,0-58.5,29.5-58.5,66s17.8,66,58.5,66c0.1,0,0.2,0,0.3,0
			s0.2,0,0.3,0c40.8,0,58.5-29.5,58.5-66S132.1,19.3,99.8,19.3z"/>
		<path class="st2" d="M84.3,86.3c0,1.4-0.4,2.7-1.1,3.6c-0.7,0.9-1.5,1.4-2.4,1.4s-1.8-0.5-2.4-1.4c-0.7-0.9-1.1-2.2-1.1-3.6
			s0.4-2.7,1.1-3.6c0.7-0.9,1.5-1.4,2.4-1.4s1.8,0.5,2.4,1.4C83.9,83.6,84.3,84.8,84.3,86.3z"/>
		<path class="st2" d="M121.3,86.3c0,1.4-0.4,2.7-1.1,3.6c-0.7,0.9-1.5,1.4-2.4,1.4s-1.8-0.5-2.4-1.4c-0.7-0.9-1.1-2.2-1.1-3.6
			s0.4-2.7,1.1-3.6c0.7-0.9,1.5-1.4,2.4-1.4s1.8,0.5,2.4,1.4C120.9,83.6,121.3,84.8,121.3,86.3z"/>
		<path class="st3" d="M71.5,74.3c0,0,3-6,12-4L71.5,74.3z"/>
		<path class="st4" d="M71.5,74.3c0,0,3-6,12-4"/>
		<path class="st3" d="M127.5,74.3c0,0-3-6-12-4L127.5,74.3z"/>
		<path class="st4" d="M127.5,74.3c0,0-3-6-12-4"/>
		<path class="st3" d="M92.5,108.3c0,0,7,5,14,0H92.5z"/>
		<path class="st5" d="M92.5,108.3c0,0,7,5,14,0"/>
		<path class="st6" d="M62.5,123.3c9.9,0,18-8.1,18-18s-8.1-18-18-18s-18,8.1-18,18S52.6,123.3,62.5,123.3z"/>
		<path class="st6" d="M136.5,123.3c9.9,0,18-8.1,18-18s-8.1-18-18-18s-18,8.1-18,18S126.6,123.3,136.5,123.3z"/>
		<path class="st5" d="M83.5,32.3c0,0-24,11-21,38"/>
		<path class="st5" d="M99.5,32.3c0,0-13,17-4,40"/>
		<path class="st5" d="M115.5,32.3c0,0,19,14,17,38"/>
		<path class="st5" d="M40.5,112.3c0,0,4,11-11,35c-7.5,12.1,18,35-3,35"/>
		<path class="st5" d="M56.2,133.8c0,0,2.3,17.5-3.7,24.5s-8,19-2,24"/>
		<path class="st5" d="M71.5,145.4c0,0-6,10.5,0,21.7"/>
		<path class="st5" d="M158.5,112.3c0,0-4,11,11,35c7.5,12.1-18,35,3,35"/>
		<path class="st5" d="M142.8,133.8c0,0-2.3,17.5,3.7,24.5s8,19,2,24"/>
		<path class="st5" d="M127.5,145.4c0,0,6,10.5,0,21.7"/>
	</g>
</g>
</svg>
